<?xml version="1.0" encoding="UTF-8" standalone="no"?>
<svg
   xmlns:dc="http://purl.org/dc/elements/1.1/"
   xmlns:cc="http://creativecommons.org/ns#"
   xmlns:rdf="http://www.w3.org/1999/02/22-rdf-syntax-ns#"
   xmlns:svg="http://www.w3.org/2000/svg"
   xmlns="http://www.w3.org/2000/svg"
   viewBox="0 0 1849.64 2257.7068"
   height="2257.7068"
   width="1849.64"
   xml:space="preserve"
   id="svg2"
   version="1.1"><metadata
     id="metadata8"><rdf:RDF><cc:Work
         rdf:about=""><dc:format>image/svg+xml</dc:format><dc:type
           rdf:resource="http://purl.org/dc/dcmitype/StillImage" /></cc:Work></rdf:RDF></metadata><defs
     id="defs6"><clipPath
       id="clipPath154"
       clipPathUnits="userSpaceOnUse"><path
         id="path152"
         d="M 7790.48,628.102 H 988.414 c -107.285,0 -194.258,87 -194.258,194.3 0,107.2 86.973,194.198 194.258,194.198 H 7790.48 c 107.29,0 194.26,-86.998 194.26,-194.198 0,-107.3 -86.97,-194.3 -194.26,-194.3" /></clipPath></defs><g
     transform="matrix(1.3333333,0,0,-1.3333333,0,2257.7067)"
     id="g10"><g
       transform="scale(0.1)"
       id="g12"><g
         transform="scale(1.03882)"
         id="g14"><path
           id="path16"
           style="fill:#fcfbf1;fill-opacity:1;fill-rule:nonzero;stroke:none"
           d="M 13344.4,11.7433 H -0.00376027 V 16300 H 13344.4 V 11.7433" /></g><path
         id="path18"
         style="fill:#537263;fill-opacity:1;fill-rule:nonzero;stroke:none"
         d="m 11099,7562.53 c -266.4,147.98 -710.3,118.4 -532.7,621.58 88.8,266.36 710.3,503.11 295.9,858.31 -266.3,207.18 -591.9,-147.99 -680.7,266.39 -59.2,295.96 325.6,443.95 148,769.49 -118.4,296 -739.93,532.8 -976.71,414.4 l -88.81,-29.6 c -296,29.6 -591.93,0 -739.9,-266.4 -177.64,-384.78 236.72,-651.12 29.55,-1006.31 -207.19,-355.15 -710.35,-266.36 -739.94,-710.34 -59.16,-503.15 414.39,-355.15 266.38,-799.12 -118.38,-355.16 -562.34,-473.56 -473.55,-976.73 59.22,-355.2 355.17,-562.3 710.33,-591.9 177.62,-29.6 325.59,118.3 503.16,59.2 177.58,-59.2 236.78,-266.4 414.36,-355.2 414.39,-236.8 976.73,-148 1391.03,0 710.4,266.4 1272.8,1243.08 473.6,1746.23" /><path
         id="path20"
         style="fill:#191a2d;fill-opacity:1;fill-rule:nonzero;stroke:none"
         d="m 9415.7,2531 h 110.949 V 9782.36 H 9415.7 Z" /><path
         id="path22"
         style="fill:#191a2d;fill-opacity:1;fill-rule:nonzero;stroke:none"
         d="m 8711.36,8646.99 c 90.39,-327.39 425.8,-540.22 713.34,-680.66 56.88,-27.81 106.94,57.28 49.77,85.17 -263.24,128.59 -584.87,320.76 -667.97,621.73 -16.9,61.24 -112.11,35.2 -95.14,-26.24" /><path
         id="path24"
         style="fill:#191a2d;fill-opacity:1;fill-rule:nonzero;stroke:none"
         d="m 9475.93,7408.86 c 281.49,-44.45 578.77,156.37 827.27,261.48 58.5,24.69 8.1,109.68 -49.7,85.17 -128.9,-54.48 -254.36,-116.51 -383.9,-169.55 -110.62,-45.31 -245.35,-101.24 -367.48,-81.98 -62.18,9.82 -88.9,-85.25 -26.19,-95.12" /><path
         id="path26"
         style="fill:#191a2d;fill-opacity:1;fill-rule:nonzero;stroke:none"
         d="m 9482.44,6497.6 c -223.21,46.3 -410.47,185.6 -570.26,342.5 -45.39,44.6 -115.17,-25.1 -69.72,-69.8 171.07,-168 374.78,-318.2 613.75,-367.8 62.11,-12.9 88.47,82.2 26.23,95.1" /><path
         id="path28"
         style="fill:#191a2d;fill-opacity:1;fill-rule:nonzero;stroke:none"
         d="m 9469.29,8551.56 c 200.16,-14.63 468.44,60.99 555.61,261.24 25.2,57.71 -59.79,107.98 -85.12,49.77 -74.16,-170.18 -301.97,-224.69 -470.49,-212.35 -63.51,4.65 -63.04,-94.03 0,-98.66" /><path
         id="path30"
         style="fill:#191a2d;fill-opacity:1;fill-rule:nonzero;stroke:none"
         d="m 9494.21,9038.15 c -100.05,62.1 -183.45,146.26 -266.29,229.07 -45.03,45 -114.82,-24.74 -69.74,-69.76 88.81,-88.77 179,-177.96 286.21,-244.51 54.24,-33.64 103.75,51.73 49.82,85.2" /><path
         id="path32"
         style="fill:#191a2d;fill-opacity:1;fill-rule:nonzero;stroke:none"
         d="m 9502.12,6086.8 c 336,84.8 732.98,194.8 968.98,466.5 41.5,47.8 -28,117.9 -69.8,69.8 -225.1,-259.2 -604.9,-360.3 -925.37,-441.2 -61.66,-15.6 -35.47,-110.7 26.19,-95.1" /><path
         id="path34"
         style="fill:#fbf6c4;fill-opacity:1;fill-rule:nonzero;stroke:none"
         d="m 5725.68,10655 c 0,378.9 -462.61,686 -1033.28,686 -132.4,0 -258.89,-16.7 -375.27,-46.9 -272.41,239.6 -694.12,393.3 -1167.54,393.3 -529.54,0 -994.38,-192.3 -1257.92,-481.9 C 1363.32,11181 948.688,10944 948.688,10655 h 713.562 l -0.03,-1.2 h 2974.72 v 1.2 h 1088.74" /><path
         id="path36"
         style="fill:#31464f;fill-opacity:1;fill-rule:nonzero;stroke:none"
         d="m 843.813,2614.5 c 355.847,-264 727.257,-366.2 727.257,-366.2 0,0 -205.6,325.7 -561.43,589.7 -355.847,264 -727.253,366.2 -727.253,366.2 0,0 205.597,-325.7 561.426,-589.7" /><path
         id="path38"
         style="fill:#385058;fill-opacity:1;fill-rule:nonzero;stroke:none"
         d="m 1026.63,2871.5 c 234.88,-375.8 543.3,-606.5 543.3,-606.5 0,0 -72.44,378.3 -307.32,754 -234.86,375.7 -543.278,606.5 -543.278,606.5 0,0 72.422,-378.3 307.298,-754" /><path
         id="path40"
         style="fill:#385058;fill-opacity:1;fill-rule:nonzero;stroke:none"
         d="m 1599.3,3071.9 c -70.12,-437.5 10.46,-814.3 10.46,-814.3 0,0 194.25,332.7 264.34,770.2 70.18,437.5 -10.38,814.2 -10.38,814.2 0,0 -194.28,-332.6 -264.42,-770.1" /><path
         id="path42"
         style="fill:#31464f;fill-opacity:1;fill-rule:nonzero;stroke:none"
         d="m 2114.64,2882.6 c 224.47,382.1 286.38,762.3 286.38,762.3 0,0 -301.91,-239.2 -526.35,-621.3 -224.4,-382 -286.34,-762.2 -286.34,-762.2 0,0 301.93,239.2 526.31,621.2" /><path
         id="path44"
         style="fill:#28383d;fill-opacity:1;fill-rule:nonzero;stroke:none"
         d="m 2337.27,2526.4 c 384.14,220.8 626.16,520.5 626.16,520.5 0,0 -380.76,-58.4 -764.87,-279.3 -384.11,-220.8 -626.15,-520.5 -626.15,-520.5 0,0 380.76,58.4 764.86,279.3" /><path
         id="path46"
         style="fill:#28383d;fill-opacity:1;fill-rule:nonzero;stroke:none"
         d="m 1328.7,3011.1 c 64.95,-438.3 255.28,-773.2 255.28,-773.2 0,0 85,375.7 20.03,814 -64.97,438.3 -255.33,773.2 -255.33,773.2 0,0 -85,-375.7 -19.98,-814" /><path
         id="path48"
         style="fill:#28383d;fill-opacity:1;fill-rule:nonzero;stroke:none"
         d="m 774.332,2341.1 c 426.918,-118.6 810.228,-80.7 810.228,-80.7 0,0 -308.83,230.3 -735.747,348.8 -426.915,118.7 -810.2544,80.7 -810.2544,80.7 0,0 308.8674,-230.3 735.7734,-348.8" /><path
         id="path50"
         style="fill:#31464f;fill-opacity:1;fill-rule:nonzero;stroke:none"
         d="m 5865.14,2671 c 367.65,-350.9 775.87,-519.8 775.87,-519.8 0,0 -187.86,399.8 -555.49,750.7 -367.61,350.8 -775.85,519.7 -775.85,519.7 0,0 187.86,-399.8 555.47,-750.6" /><path
         id="path52"
         style="fill:#385058;fill-opacity:1;fill-rule:nonzero;stroke:none"
         d="m 6109.62,2937.5 c 214.11,-460.8 532.44,-767.1 532.44,-767.1 0,0 -28.84,440.8 -243,901.6 -214.1,460.9 -532.44,767.3 -532.44,767.3 0,0 28.86,-440.9 243,-901.8" /><path
         id="path54"
         style="fill:#385058;fill-opacity:1;fill-rule:nonzero;stroke:none"
         d="m 6789.74,3084.5 c -141.75,-488 -103.38,-928.1 -103.38,-928.1 0,0 268.21,351.1 409.91,839.1 141.79,487.9 103.47,928.1 103.47,928.1 0,0 -268.24,-351.1 -410,-839.1" /><path
         id="path56"
         style="fill:#31464f;fill-opacity:1;fill-rule:nonzero;stroke:none"
         d="m 7349.47,2796.2 c 309.61,403 433.9,827 433.9,827 0,0 -377.5,-229.6 -687.05,-632.6 -309.47,-403 -433.81,-827 -433.81,-827 0,0 377.49,229.5 686.96,632.6" /><path
         id="path58"
         style="fill:#28383d;fill-opacity:1;fill-rule:nonzero;stroke:none"
         d="m 7552.42,2359.1 c 468.49,197 786.34,503.9 786.34,503.9 0,0 -441.64,-12.6 -910.07,-209.6 -468.44,-196.9 -786.35,-503.8 -786.35,-503.8 0,0 441.64,12.5 910.08,209.5" /><path
         id="path60"
         style="fill:#28383d;fill-opacity:1;fill-rule:nonzero;stroke:none"
         d="m 6473.17,3053.7 c 11.86,-508 181.04,-916.1 181.04,-916.1 0,0 149.96,415.5 138.05,923.6 -11.85,508 -181.09,916.1 -181.09,916.1 0,0 -149.91,-415.6 -138,-923.6" /><path
         id="path62"
         style="fill:#28383d;fill-opacity:1;fill-rule:nonzero;stroke:none"
         d="m 5747.37,2369.6 c 469.09,-195.5 910.73,-206.5 910.73,-206.5 0,0 -318.91,305.8 -788.03,501.1 -469.08,195.5 -910.76,206.6 -910.76,206.6 0,0 318.96,-305.8 788.06,-501.2" /><path
         id="path64"
         style="fill:#fbcf2c;fill-opacity:1;fill-rule:nonzero;stroke:none"
         d="m 5232.43,13518.9 c 0,-778.1 -630.74,-1408.8 -1408.83,-1408.8 -778.1,0 -1408.83,630.7 -1408.83,1408.8 0,778.1 630.73,1408.8 1408.83,1408.8 778.09,0 1408.83,-630.7 1408.83,-1408.8" /><path
         id="path66"
         style="fill:#fbf6c4;fill-opacity:1;fill-rule:nonzero;stroke:none"
         d="m 12137.9,13425.2 c 0,646.4 -596.6,1170.4 -1332.7,1170.4 -170.8,0 -333.9,-28.5 -484,-79.9 -351.36,408.5 -895.31,670.7 -1505.93,670.7 -683.03,0 -1282.56,-328.1 -1622.48,-822 -681.48,-41.8 -1216.31,-446.2 -1216.31,-939.2 h 920.39 l -0.04,-1.9 h 3836.87 l -0.1,1.9 h 1404.3" /><path
         id="path68"
         style="fill:#9b412d;fill-opacity:1;fill-rule:nonzero;stroke:none"
         d="m 3462.4,3943.3 49.08,772.6 -489.02,11.1 31.3,-775.3 408.64,-8.4" /><path
         id="path70"
         style="fill:#bb5d4a;fill-opacity:1;fill-rule:nonzero;stroke:none"
         d="m 3550.87,4709.7 c 0,-32.6 -26.39,-59 -58.98,-59 h -471.86 c -32.59,0 -59,26.4 -59,59 0,32.6 26.41,59 59,59 h 471.86 c 32.59,0 58.98,-26.4 58.98,-59" /><path
         id="path72"
         style="fill:#8fae60;fill-opacity:1;fill-rule:nonzero;stroke:none"
         d="m 10597.6,2035.4 c -202.6,-91.8 -419.4,-50.1 -419.4,-50.1 0,0 111.6,190.6 314.2,282.4 202.6,91.7 419.4,49.9 419.4,49.9 0,0 -111.6,-190.5 -314.2,-282.2" /><path
         id="path74"
         style="fill:#537263;fill-opacity:1;fill-rule:nonzero;stroke:none"
         d="m 12318.9,5371.9 c -209.9,73.5 -338,253.4 -338,253.4 0,0 212.3,60.8 422.2,-12.7 209.9,-73.4 338,-253.3 338,-253.3 0,0 -212.3,-60.8 -422.2,12.6" /><path
         id="path76"
         style="fill:#537263;fill-opacity:1;fill-rule:nonzero;stroke:none"
         d="m 9892.38,2424.8 c -222.35,-5.5 -405.72,117.5 -405.72,117.5 0,0 177.09,132 399.41,137.4 222.33,5.6 405.73,-117.5 405.73,-117.5 0,0 -177.1,-131.9 -399.42,-137.4" /><path
         id="path78"
         style="fill:#537263;fill-opacity:1;fill-rule:nonzero;stroke:none"
         d="m 1174.21,2075.3 c -196.499,-50.6 -384.792,21 -384.792,21 0,0 130.273,153.7 326.782,204.3 196.5,50.6 384.79,-21.1 384.79,-21.1 0,0 -130.27,-153.6 -326.78,-204.2" /><path
         id="path80"
         style="fill:#a6b14b;fill-opacity:1;fill-rule:nonzero;stroke:none"
         d="m 7888.14,3336.5 c -157.21,-68.3 -323.81,-33.6 -323.81,-33.6 0,0 88.24,145.5 245.43,213.9 157.21,68.3 323.83,33.6 323.83,33.6 0,0 -88.28,-145.6 -245.45,-213.9" /><path
         id="path82"
         style="fill:#759f5d;fill-opacity:1;fill-rule:nonzero;stroke:none"
         d="m 4108.18,2919.4 c -148.97,15.8 -260.65,114 -260.65,114 0,0 129.81,72.6 278.77,56.8 148.97,-15.7 260.65,-114 260.65,-114 0,0 -129.81,-72.6 -278.77,-56.8" /><path
         id="path84"
         style="fill:#8fae60;fill-opacity:1;fill-rule:nonzero;stroke:none"
         d="m 8921.69,9103.41 c -202.59,-91.76 -419.41,-50.01 -419.41,-50.01 0,0 111.6,190.55 314.2,282.33 202.58,91.75 419.43,49.98 419.43,49.98 0,0 -111.64,-190.55 -314.22,-282.3" /><path
         id="path86"
         style="fill:#537263;fill-opacity:1;fill-rule:nonzero;stroke:none"
         d="m 718.121,4326.3 c -209.922,73.5 -338.008,253.4 -338.008,253.4 0,0 212.285,60.8 422.227,-12.6 209.92,-73.5 337.97,-253.4 337.97,-253.4 0,0 -212.306,-60.8 -422.189,12.6" /><path
         id="path88"
         style="fill:#a6b14b;fill-opacity:1;fill-rule:nonzero;stroke:none"
         d="m 7879.72,7168.21 c -209.94,73.44 -338.01,253.34 -338.01,253.34 0,0 212.29,60.82 422.21,-12.62 209.94,-73.43 338.01,-253.34 338.01,-253.34 0,0 -212.31,-60.82 -422.21,12.62" /><path
         id="path90"
         style="fill:#a6b14b;fill-opacity:1;fill-rule:nonzero;stroke:none"
         d="m 1860.58,6393.7 c -220.27,-30.6 -416.44,70.8 -416.44,70.8 0,0 160.97,151.1 381.28,181.8 220.28,30.7 416.4,-70.8 416.4,-70.8 0,0 -160.97,-151.1 -381.24,-181.8" /><path
         id="path92"
         style="fill:#537263;fill-opacity:1;fill-rule:nonzero;stroke:none"
         d="m 6326.38,10541.2 c -196.5,-50.6 -384.82,21 -384.82,21 0,0 130.27,153.7 326.8,204.3 196.5,50.6 384.82,-21.1 384.82,-21.1 0,0 -130.31,-153.6 -326.8,-204.2" /><path
         id="path94"
         style="fill:#759f5d;fill-opacity:1;fill-rule:nonzero;stroke:none"
         d="m 464.117,9202.25 c -163.183,120.62 -226.308,311.95 -226.308,311.95 0,0 201.445,-4.22 364.589,-124.86 163.204,-120.62 226.309,-311.98 226.309,-311.98 0,0 -201.445,4.27 -364.59,124.89" /><path
         id="path96"
         style="fill:#759f5d;fill-opacity:1;fill-rule:nonzero;stroke:none"
         d="m 11581.8,4124.6 c -180.7,-92.4 -380.1,-63.9 -380.1,-63.9 0,0 93.4,178.6 274,271 180.6,92.5 380.1,63.9 380.1,63.9 0,0 -93.5,-178.5 -274,-271" /><path
         id="path98"
         style="fill:#655e50;fill-opacity:1;fill-rule:nonzero;stroke:none"
         d="m 3088.26,2102.8 h 291.477 V 3778.7 H 3088.26 Z" /><path
         id="path100"
         style="fill:#2a231c;fill-opacity:1;fill-rule:nonzero;stroke:none"
         d="m 3088.26,3511.7 h 291.477 v 203.297 H 3088.26 Z" /><path
         id="path102"
         style="fill:#655e50;fill-opacity:1;fill-rule:nonzero;stroke:none"
         d="m 9085.33,2102.8 h 291.48 v 1675.9 h -291.48 z" /><path
         id="path104"
         style="fill:#2a231c;fill-opacity:1;fill-rule:nonzero;stroke:none"
         d="m 9085.33,3511.7 h 291.48 v 203.297 h -291.48 z" /><path
         id="path106"
         style="fill:#1b2034;fill-opacity:1;fill-rule:nonzero;stroke:none"
         d="m 9901.28,3851.6 c 0,-75.4 -91.68,-136.6 -204.82,-136.6 H 2855.79 c -113.1,0 -204.81,61.2 -204.81,136.6 0,75.5 91.71,136.7 204.81,136.7 h 6840.67 c 113.14,0 204.82,-61.2 204.82,-136.7" /><path
         id="path108"
         style="fill:#161516;fill-opacity:1;fill-rule:nonzero;stroke:none"
         d="M 9696.46,3715 H 2855.79 c -113.1,0 -204.81,61.2 -204.81,136.6 0,5.2 0.52,10.2 1.33,15.2 h 7247.65 c 0.81,-5 1.32,-10 1.32,-15.2 0,-75.4 -91.68,-136.6 -204.82,-136.6" /><path
         id="path110"
         style="fill:#8fae60;fill-opacity:1;fill-rule:nonzero;stroke:none"
         d="m 2954.51,1878.9 c 0,0 31.46,660.9 -472.03,865.4 0,0 534.97,-78.7 660.84,-786.7 0,0 -220.28,629.4 283.22,1007 0,0 -330.43,-440.6 -141.62,-1007 0,0 15.76,613.6 409.1,723.8 0,0 -346.14,-251.8 -314.68,-786.8 l -424.83,-15.7" /><path
         id="path112"
         style="fill:#8fae60;fill-opacity:1;fill-rule:nonzero;stroke:none"
         d="m 9097.3,1914.2 c 0,0 31.48,660.9 -471.99,865.4 0,0 534.96,-78.7 660.82,-786.7 0,0 -220.28,629.4 283.22,1007 0,0 -330.43,-440.6 -141.6,-1007 0,0 15.74,613.6 409.08,723.8 0,0 -346.13,-251.8 -314.69,-786.8 l -424.84,-15.7" /><path
         id="path114"
         style="fill:#8fae60;fill-opacity:1;fill-rule:nonzero;stroke:none"
         d="m 8757.24,1878.9 c 0,0 31.49,660.9 -471.99,865.4 0,0 534.96,-78.7 660.82,-786.7 0,0 -220.27,629.4 283.22,1007 0,0 -330.43,-440.6 -141.62,-1007 0,0 15.76,613.6 409.1,723.8 0,0 -346.13,-251.8 -314.69,-786.8 l -424.84,-15.7" /><path
         id="path116"
         style="fill:#8fae60;fill-opacity:1;fill-rule:nonzero;stroke:none"
         d="m 3377.71,1822.6 c 0,0 31.47,660.8 -472.01,865.4 0,0 534.96,-78.7 660.82,-786.8 0,0 -220.26,629.4 283.23,1007 0,0 -330.42,-440.5 -141.61,-1007 0,0 15.74,613.7 409.1,723.8 0,0 -346.15,-251.7 -314.69,-786.7 l -424.84,-15.7" /><path
         id="path118"
         style="fill:#759f5d;fill-opacity:1;fill-rule:nonzero;stroke:none"
         d="m 11960.5,9157.87 c -218.6,36.43 -582.9,36.43 -728.6,-182.18 -291.5,-400.76 291.4,-655.79 255,-1020.14 -36.4,-473.63 -910.8,-546.48 -874.4,-1020.13 36.4,-400.72 582.9,-255.02 327.9,-947.22 -109.3,-327.9 -582.9,-728.7 -437.2,-1129.5 255,-619.3 765.1,-218.6 1129.4,-218.6 510.1,0 1675.9,-582.9 2149.6,109.3 400.7,619.4 -655.8,874.4 -801.6,1311.6 -72.8,327.9 182.2,510.1 145.8,801.5 -72.9,327.97 -437.2,327.97 -473.7,619.42 -36.4,291.46 255.1,400.76 327.9,655.81 72.9,364.33 -109.3,364.33 -255,619.35 -109.3,291.48 218.6,327.92 -255,473.66 -145.7,36.43 -364.4,-36.44 -437.2,-72.87" /><path
         id="path120"
         style="fill:#191a2c;fill-opacity:1;fill-rule:nonzero;stroke:none"
         d="m 12125.4,2599.9 h -99 v 6084.31 h 99 V 2599.9" /><path
         id="path122"
         style="fill:#191a2c;fill-opacity:1;fill-rule:nonzero;stroke:none"
         d="m 11288.7,5993.9 c 165.7,-270.8 474.5,-381.3 765,-465.1 75.4,-21.7 107.4,95.5 32.3,117.2 -258.1,74.4 -544.5,167.4 -692.4,409.2 -40.8,66.7 -145.9,5.7 -104.9,-61.3" /><path
         id="path124"
         style="fill:#191a2c;fill-opacity:1;fill-rule:nonzero;stroke:none"
         d="m 12134.5,6233.2 c 233.5,83.6 397.3,271.4 443.2,516.1 14.4,76.5 -102.6,109.2 -117.1,32.2 -37.9,-201.5 -163.2,-361.3 -358.3,-431.2 -73.2,-26.2 -41.7,-143.5 32.2,-117.1" /><path
         id="path126"
         style="fill:#191a2c;fill-opacity:1;fill-rule:nonzero;stroke:none"
         d="m 12069.8,7069.01 c -236.1,6.17 -402,146.64 -530.5,334.28 -44,64.16 -149.2,3.5 -104.9,-61.3 153.5,-224.06 354.3,-387.07 635.4,-394.42 78.4,-2.05 78.2,119.4 0,121.44" /><path
         id="path128"
         style="fill:#191a2c;fill-opacity:1;fill-rule:nonzero;stroke:none"
         d="m 12142.7,8040.57 c 202.4,3.27 371.9,94.27 453.2,285.13 30.3,71.18 -74.2,133.12 -104.9,61.29 -65,-152.67 -184.7,-222.32 -348.3,-224.97 -78.3,-1.28 -78.4,-122.74 0,-121.45" /><path
         id="path130"
         style="fill:#191a2c;fill-opacity:1;fill-rule:nonzero;stroke:none"
         d="m 12118.4,4919.4 c 293.3,5.5 577.1,123.1 771.6,345.7 51.3,58.7 -34.3,145 -85.9,85.9 -174.1,-199.3 -422.5,-305.2 -685.7,-310.1 -78.2,-1.4 -78.4,-122.9 0,-121.5" /><path
         id="path132"
         style="fill:#31464f;fill-opacity:1;fill-rule:nonzero;stroke:none"
         d="m 12513.9,2672.7 c -601,-278.4 -1175.7,-315.3 -1175.7,-315.3 0,0 399.8,414.4 1000.8,692.9 601,278.4 1175.7,315.4 1175.7,315.4 0,0 -399.8,-414.5 -1000.8,-693" /><path
         id="path134"
         style="fill:#385058;fill-opacity:1;fill-rule:nonzero;stroke:none"
         d="m 12324.3,3104.4 c -457.9,-478.7 -979.3,-722.9 -979.3,-722.9 0,0 220.8,531.8 678.6,1010.5 457.8,478.7 979.4,723 979.4,723 0,0 -220.9,-531.9 -678.7,-1010.6" /><path
         id="path136"
         style="fill:#385058;fill-opacity:1;fill-rule:nonzero;stroke:none"
         d="m 11546.8,3571.5 c -30.1,-661.7 -262.4,-1188.7 -262.4,-1188.7 0,0 -183.4,546 -153.2,1207.6 30,661.7 262.2,1188.7 262.2,1188.7 0,0 183.5,-545.9 153.4,-1207.6" /><path
         id="path138"
         style="fill:#31464f;fill-opacity:1;fill-rule:nonzero;stroke:none"
         d="m 10735,3450.9 c -212.6,627.4 -187.9,1202.7 -187.9,1202.7 0,0 369.4,-441.8 581.9,-1069.2 212.6,-627.3 187.9,-1202.7 187.9,-1202.7 0,0 -369.4,441.9 -581.9,1069.2" /><path
         id="path140"
         style="fill:#28383d;fill-opacity:1;fill-rule:nonzero;stroke:none"
         d="m 10301,2996.9 c -495.34,439.9 -758.64,952 -758.64,952 0,0 539.64,-201 1034.94,-640.9 495.2,-439.8 758.6,-951.9 758.6,-951.9 0,0 -539.7,200.9 -1034.9,640.8" /><path
         id="path142"
         style="fill:#28383d;fill-opacity:1;fill-rule:nonzero;stroke:none"
         d="m 11924.5,3400.5 c -228.1,-621.9 -608.4,-1054.4 -608.4,-1054.4 0,0 -10.3,575.8 217.8,1197.7 228.1,621.9 608.4,1054.3 608.4,1054.3 0,0 10.4,-575.7 -217.8,-1197.6" /><path
         id="path144"
         style="fill:#28383d;fill-opacity:1;fill-rule:nonzero;stroke:none"
         d="m 12532.7,2251.4 c -661,-44.1 -1210.6,127.9 -1210.6,127.9 0,0 522,243.3 1182.9,287.3 660.9,44 1210.6,-127.9 1210.6,-127.9 0,0 -522,-243.3 -1182.9,-287.3" /><path
         id="path146"
         style="fill:#bbc245;fill-opacity:1;fill-rule:nonzero;stroke:none"
         d="M 0,0 H 13862.5 V 2615.7 H 0 Z" /><g
         id="g148"><g
           clip-path="url(#clipPath154)"
           id="g150"><path
             id="path156"
             style="fill:#8a9124;fill-opacity:1;fill-rule:nonzero;stroke:none"
             d="m 794.156,628.102 h 7190.59 v 388.5 H 794.156 Z" /></g></g><path
         id="path158"
         style="fill:#8a9124;fill-opacity:1;fill-rule:nonzero;stroke:none"
         d="M 11944.6,1257.9 H 9341.5 c -74.98,0 -135.74,60.8 -135.74,135.8 0,74.9 60.76,135.7 135.74,135.7 h 2603.1 c 74.9,0 135.7,-60.8 135.7,-135.7 0,-75 -60.8,-135.8 -135.7,-135.8" /><path
         id="path160"
         style="fill:#da7c34;fill-opacity:1;fill-rule:nonzero;stroke:none"
         d="m 9820.39,2919.3 c 0,0 -328.46,-207.7 -290.71,-419.1 37.72,-211.3 86.82,-298.2 18.85,-483.2 -67.95,-185 10.68,-389.9 -132.83,-374.8 -143.46,15.1 -236.43,-37.3 -209.94,-112.8 26.44,-75.5 313.36,-203.8 494.63,-60.3 181.21,143.4 218.92,245.3 218.92,245.3 0,0 86.79,-343.6 317.19,-407.7 230.3,-64.2 237.9,22.6 219,30.1 -18.9,7.7 -219,90.7 -215.2,234.2 0,0 290.7,-139.7 604,7.5 313.4,147.3 407.8,181.2 505.9,120.8 98.2,-60.4 188.8,-260.5 117.1,-320.9 -71.7,-60.4 -0.1,-101.9 94.4,-49.1 94.4,52.9 139.7,373.8 -75.5,505.9 0,0 339.8,49.1 385.1,-302 0,0 11.3,-98.1 60.4,-22.6 49.1,75.4 33.9,222.7 -41.5,366.2 -75.6,143.4 -237.9,177.4 -237.9,177.4 0,0 -26.4,86.8 0,135.9 26.4,49.2 249.2,166.2 328.5,230.3 79.2,64.2 166.1,173.7 169.9,237.9 3.7,64.2 -52.9,226.5 -71.8,222.8 -18.9,-3.8 -524.8,-98.2 -566.3,-71.8 -41.6,26.5 -166.2,332.3 -343.6,388.9 -177.4,56.6 -381.3,-113.3 -245.4,-143.5 135.9,-30.2 468.2,-147.2 502.2,-252.9 0,0 -275.7,83 -385.1,-30.3 -109.6,-113.2 -204,-79.2 -234.1,-56.6 -30.2,22.7 -203.9,-79.2 -41.5,-151 162.3,-71.7 445.5,211.4 543.6,185 98.2,-26.4 79.3,-105.7 49.1,-192.6 -30.2,-86.8 -119.4,-134.5 -266.7,-134.5 -147.2,0 -571.6,156.1 -799.3,193.9 -350.65,58.1 -520.54,-28.6 -622.47,-119.3 0,0 -60.39,147.3 33.97,226.5 94.41,79.3 253.02,271.9 117.09,196.4" /><path
         id="path162"
         style="fill:#9f5323;fill-opacity:1;fill-rule:nonzero;stroke:none"
         d="m 9798.53,1811.4 c 0,0 -37.75,-101.9 -218.98,-245.4 -113.7,-90 -268.91,-73 -375.49,-29.2 0.78,-2.6 0.66,-4.5 1.7,-7.4 26.44,-75.5 313.36,-203.8 494.63,-60.3 83.26,65.8 135.93,122.8 168.88,165.3 -49.41,92.8 -70.74,177 -70.74,177" /><path
         id="path164"
         style="fill:#9f5323;fill-opacity:1;fill-rule:nonzero;stroke:none"
         d="m 11738,2021.7 c 11.4,-14.5 22.1,-30.4 31.3,-48 59.6,-113.3 80.9,-228.3 63.4,-309.1 17.9,-36.2 31.8,-78.8 38.6,-131.4 0,0 11.3,-98.1 60.4,-22.6 49.1,75.4 33.9,222.7 -41.5,366.2 -39.1,74 -101.1,118.8 -152.2,144.9" /><path
         id="path166"
         style="fill:#9f5323;fill-opacity:1;fill-rule:nonzero;stroke:none"
         d="m 10455.5,1336.8 c -9.6,3.9 -66.8,27.7 -119.8,69.2 -16.1,-22.4 -71.8,-43.7 -220,-2.3 -17.1,4.7 -33,11.4 -48.5,18.9 44.7,-52.5 100.5,-96.7 169.3,-115.9 230.3,-64.2 237.9,22.6 219,30.1" /><path
         id="path168"
         style="fill:#9f5323;fill-opacity:1;fill-rule:nonzero;stroke:none"
         d="m 12078.9,2881.1 c -4,-0.8 -30.1,-5.8 -69,-12.7 12.4,-42 21.5,-86.2 19.9,-113.1 -3.8,-64.2 -90.6,-173.7 -169.8,-237.8 -79.3,-64.3 -302.1,-181.3 -328.5,-230.4 -26.5,-49.1 0,-135.9 0,-135.9 0,0 52,-10.9 110.8,-46.4 -3.2,27.7 -3.1,61.1 10,85.3 26.4,49.2 249.2,166.2 328.5,230.3 79.2,64.2 166.1,173.7 169.9,237.9 3.7,64.2 -52.9,226.5 -71.8,222.8" /><path
         id="path170"
         style="fill:#9f5323;fill-opacity:1;fill-rule:nonzero;stroke:none"
         d="m 11486.2,1835.2 c 0,0 100.1,14 199,-28.9 -112.2,155.1 -319.8,125.9 -319.8,125.9 173.3,-106.4 177.5,-335.1 123.4,-447.7 8.8,-44.7 4.2,-84.5 -21.5,-106.1 -71.7,-60.4 -0.1,-101.9 94.4,-49.1 94.4,52.9 139.7,373.8 -75.5,505.9" /><path
         id="path172"
         style="fill:#9f5323;fill-opacity:1;fill-rule:nonzero;stroke:none"
         d="m 11229.5,1796.3 c -98.1,60.4 -192.6,26.4 -506,-120.8 -313.3,-147.3 -604,-7.5 -604,-7.5 -2.7,-101.5 96.4,-172.6 161.4,-208.2 -24.7,31.5 -41.7,68.6 -40.6,111.2 0,0 290.7,-139.7 604,7.5 266.7,125.3 374.8,168.3 461.6,141.2 -22.8,32.2 -49.2,59.9 -76.4,76.6" /><path
         id="path174"
         style="fill:#dfd7c3;fill-opacity:1;fill-rule:nonzero;stroke:none"
         d="m 11296.4,2447.6 c 0,0 117,-254.5 373.7,-236.7 l 30.3,24.6 c 0,0 -260.5,-15.2 -383.1,241.2 l -20.9,-29.1" /><path
         id="path176"
         style="fill:#9f5323;fill-opacity:1;fill-rule:nonzero;stroke:none"
         d="m 11683.4,2662.1 c 0,-17.8 -14.4,-32.1 -32.1,-32.1 -17.7,0 -32.1,14.3 -32.1,32.1 0,17.7 14.4,32.1 32.1,32.1 17.7,0 32.1,-14.4 32.1,-32.1" /><path
         id="path178"
         style="fill:#fbc677;fill-opacity:1;fill-rule:nonzero;stroke:none"
         d="m 5282.43,7578.43 c 0,0 -46.16,526.89 101.24,728.57 l -1067.81,407.12 -588.15,-536.45 1554.72,-599.24" /><path
         id="path180"
         style="fill:#edb46c;fill-opacity:1;fill-rule:nonzero;stroke:none"
         d="m 4900.39,7732.52 c 0,0 823.45,-389.11 939.45,-608.75 0,0 74.57,369.85 533.36,606.63 458.79,236.78 178.05,420.07 178.05,420.07 0,0 -152.57,271.67 -115.36,435.89 0,0 142.05,78.32 174.76,-143.17 0,0 42.04,460.09 146.29,401.94 104.23,-58.14 53.03,-253.72 53.03,-253.72 0,0 35.47,461.58 145.42,367.62 109.94,-93.97 23.26,-385.11 23.26,-385.11 0,0 90.52,338.61 177.15,263.74 86.64,-74.87 -55.82,-429.35 -55.82,-429.35 0,0 199.58,210.33 204.76,50.3 5.19,-160 -413.67,-576.2 -413.67,-576.2 0,0 -383.91,-1839.81 -537.07,-1823.61 -153.17,16.3 -732.61,-183.9 -1040.8,-40.4 -308.2,143.5 -1417.66,1343.22 -412.81,1714.12" /><path
         id="path182"
         style="fill:#fbc677;fill-opacity:1;fill-rule:nonzero;stroke:none"
         d="m 6330.35,3979 328.12,-657.5 -131.94,-2214.7 h -168.99 c 0,0 20.97,128.8 -37.84,279.1 -58.79,150.4 -748.08,672.7 -533.34,1209.6 l -555.96,114 c 0,0 310.5,1312.6 1099.95,1269.5" /><path
         id="path184"
         style="fill:#edb46c;fill-opacity:1;fill-rule:nonzero;stroke:none"
         d="M 2787.82,4119.3 2637.5,3120.8 c 0,0 -289.9,225.5 -493.91,0 -204.02,-225.5 -365.08,-193.3 -365.08,-193.3 V 2702 l 1428.06,-322.1 526.14,762.4 -944.89,977" /><path
         id="path186"
         style="fill:#211d1a;fill-opacity:1;fill-rule:nonzero;stroke:none"
         d="m 7202.78,942.902 c 0,0 41.89,-91 -26.4,-118.5 -117.87,-47.402 -303,-45.402 -481.04,0.7 -182.94,47.3 -266.08,-72.903 -419.84,27.398 -19.5,12.703 -39.43,106.199 -7.44,122 l 253.73,11.402 269.74,-18.601 165.06,-21 246.19,-3.399" /><path
         id="path188"
         style="fill:#f68a2b;fill-opacity:1;fill-rule:nonzero;stroke:none"
         d="m 6620.75,1280.9 c 0,0 -178.24,-100 -287.63,-31 0,0 -108.43,-161.6 -65.06,-275.4 0,0 103.79,-23.301 193.38,-22.199 89.58,1.101 228.26,-34 291.45,-66 63.18,-32 314.77,-77.5 429.12,25.199 83.96,75.402 -212.22,70.402 -276.34,105.3 -216.06,167.3 -284.92,264.1 -284.92,264.1" /><path
         id="path190"
         style="fill:#f68a2b;fill-opacity:1;fill-rule:nonzero;stroke:none"
         d="m 6529.33,1439.6 h 100.22 v -261.3 h -100.22 v 261.3" /><path
         id="path192"
         style="fill:#211d1a;fill-opacity:1;fill-rule:nonzero;stroke:none"
         d="m 1494.21,2106.4 c 0,0 -94.79,-32.5 -115.23,38.2 -35.24,122.1 -14.61,306.1 49.19,478.5 65.57,177.3 -45.67,272.1 69.65,415 14.61,18.1 109.62,28.5 122.13,-4.9 L 1605.74,2779.6 1560,2513.1 1522.46,2351 1494.21,2106.4" /><path
         id="path194"
         style="fill:#f68a2b;fill-opacity:1;fill-rule:nonzero;stroke:none"
         d="m 1889.2,2651.4 c 0,0 -81.48,187.4 -1.76,289.3 0,0 -149.94,124.2 -267.49,92.5 0,0 -33.63,-100.9 -41.57,-190.2 -7.94,-89.2 -56.86,-223.6 -95.1,-283.3 -38.2,-59.6 -108.82,-305.3 -18.22,-429.4 66.51,-91.2 91.45,204 132.61,264.2 188.28,198.1 291.53,256.9 291.53,256.9" /><path
         id="path196"
         style="fill:#f68a2b;fill-opacity:1;fill-rule:nonzero;stroke:none"
         d="m 2056.34,2726.3 -10.11,-99.7 -259.94,26.4 10.12,99.7 259.93,-26.4" /><path
         id="path198"
         style="fill:#211d1a;fill-opacity:1;fill-rule:nonzero;stroke:none"
         d="m 2744.88,4772.7 -475.19,-982.8 c 0,0 1291.22,-289.5 1463.02,-1212.9 l 912.68,1219.4 -1868.31,976.3" /><path
         id="path200"
         style="fill:#2b2522;fill-opacity:1;fill-rule:nonzero;stroke:none"
         d="M 6652.47,3796.4 5482.91,5182.3 2519.39,5064.2 c 0,0 -53.69,-547.6 182.53,-676.4 236.22,-128.9 2528.48,-1761.2 2528.48,-1761.2 0,0 724.14,1019.5 1422.07,1169.8" /><path
         id="path202"
         style="fill:#fbc677;fill-opacity:1;fill-rule:nonzero;stroke:none"
         d="m 5633.86,4992.7 c 0,0 805.31,590.5 214.76,1309.9 -590.56,719.42 -150.33,1052.28 -783.83,1449.56 -633.51,397.28 -816.04,708.66 -1267,461.7 -450.97,-246.95 -935.3,-635.43 -1309.96,-3221.16 h 3146.03" /><path
         id="path204"
         style="fill:#f68a2b;fill-opacity:1;fill-rule:nonzero;stroke:none"
         d="m 5674.04,5182.3 c 0,0 438.72,-101.8 520.32,143 81.59,244.8 130.67,892.7 -288.59,1321.9 -419.26,429.21 -130.65,934.02 -1154.62,1449.77 C 3740.52,8606 3010.75,8241.28 2487.83,5688.5 c 0,0 -142.12,-567.2 -332.53,-594.4 v -231.2 c 0,0 2903.2,502.9 3518.74,319.4" /><path
         id="path206"
         style="fill:#f8c06d;fill-opacity:1;fill-rule:nonzero;stroke:none"
         d="m 5316.89,8155.08 c 15.88,59.02 37.51,111.88 66.78,151.92 l -331.78,126.5 c 86.56,1.62 173.89,11.5 261.22,21.39 95.5,10.8 191.02,21.61 285.53,21.61 35.14,0 70.11,-1.49 104.92,-5.03 -99.69,-118.75 -235.57,-240.31 -386.67,-316.39 m -722.37,452.8 -276.83,105.54 c 2.23,9.58 5.24,18.98 9.08,28.2 80.99,-9.44 173.84,-69.5 267.75,-133.74" /><path
         id="path208"
         style="fill:#f79539;fill-opacity:1;fill-rule:nonzero;stroke:none"
         d="m 5019.57,8077.49 c -35.92,0 -71.93,3.72 -107.83,11.7 -227.13,50.49 -649.04,387.9 -594.05,624.23 l 276.83,-105.54 c 111.19,-76.07 223.84,-158.01 319.89,-168.7 37.51,-4.18 75.26,-5.91 113.17,-5.91 8.09,0 16.2,0.08 24.31,0.23 L 5383.67,8307 c -29.27,-40.04 -50.9,-92.9 -66.78,-151.92 -94.83,-47.75 -195.67,-77.59 -297.32,-77.59" /><path
         id="path210"
         style="fill:#182330;fill-opacity:1;fill-rule:nonzero;stroke:none"
         d="M 4811.09,10086.6 4332.57,10193 4095.21,9125.3 c -47.67,-214.44 87.52,-426.92 301.92,-474.58 l 90.29,-20.07 323.67,1455.95" /><path
         id="path212"
         style="fill:#fbc677;fill-opacity:1;fill-rule:nonzero;stroke:none"
         d="m 4405.25,9367.88 -60.52,-272.26 c -95.2,-428.16 174.66,-852.31 602.82,-947.49 428.17,-95.18 852.33,174.67 947.47,602.81 l 196.79,885.24 -1208.96,268.76 -162.03,-728.92 c -14.89,-66.9 -81.19,-109.11 -148.18,-94.22 -67.02,14.9 -109.18,81.22 -94.32,148.12 l 25.8,116 -98.87,21.96" /><path
         id="path214"
         style="fill:#fbc677;fill-opacity:1;fill-rule:nonzero;stroke:none"
         d="m 4330.8,9413.12 256,-56.91 -80.83,-363.66 -256.01,56.9 c -100.43,22.33 -163.71,121.83 -141.38,222.25 22.31,100.42 121.81,163.73 222.22,141.42" /><path
         id="path216"
         style="fill:#e09d3a;fill-opacity:1;fill-rule:nonzero;stroke:none"
         d="m 4416.5,9125.88 32.77,147.45 -142.5,31.68 c -40.66,9.04 -81.06,-16.68 -90.1,-57.33 -9.05,-40.65 16.66,-81.08 57.31,-90.1 l 142.52,-31.7" /><path
         id="path218"
         style="fill:#182330;fill-opacity:1;fill-rule:nonzero;stroke:none"
         d="m 6321.6,10127.1 -3.17,0.7 23.98,9.8 c 84.29,34.5 141.42,107.2 159.8,189.9 11.46,51.5 7.91,106.9 -13.66,159.4 -56.05,136.8 -212.31,202.3 -349.15,146.1 l -205.63,-84.2 c 74.65,102.3 62.26,246.5 -33.25,334.2 -102.62,94.1 -262.11,87.3 -356.22,-15.4 l -221.99,-241.9 -264.1,58.8 c -143.87,31.9 -287.03,9.6 -408.17,-53.7 l 48.69,157.5 c -111.38,-23.2 -207.82,-102.3 -248.34,-215.9 -98.94,54.2 -215.72,53.5 -311.79,5.2 l 266.09,-182.6 c -28.97,-50.9 -51.02,-107.1 -64.4,-167.3 l -68.35,-307.46 164.31,-36.53 -102.42,-460.7 c 83.09,-19.44 141.69,-107.94 140.97,-191.11 l 3.76,-0.84 -7.18,-32.36 c -0.55,-2.93 -1.25,-5.77 -1.91,-8.63 l -16.68,-74.99 c -14.87,-66.9 27.32,-133.21 94.31,-148.11 67,-14.9 133.32,27.3 148.18,94.2 l 142.51,641 1285,-54.61 c 57.65,-152.84 232.43,-153.4 302.26,-108.96 69.85,44.43 122.69,115.54 142.07,202.71 38.76,174.38 -71.15,347.09 -245.52,385.79" /><path
         id="path220"
         style="fill:#182330;fill-opacity:1;fill-rule:nonzero;stroke:none"
         d="m 5599.17,9431.91 c -6.52,-24.63 8.23,-49.86 32.89,-56.34 l 180.62,-47.55 c 24.64,-6.48 49.81,8.23 56.32,32.87 6.48,24.64 -8.25,49.86 -32.81,56.33 l -180.71,47.55 c -24.62,6.44 -49.79,-8.23 -56.31,-32.86" /><path
         id="path222"
         style="fill:#ffffff;fill-opacity:1;fill-rule:nonzero;stroke:none"
         d="m 5775.11,9217.91 c -0.9,-55.83 -46.88,-100.32 -102.72,-99.42 -55.83,0.9 -100.35,46.87 -99.45,102.69 0.91,55.86 46.9,100.38 102.72,99.47 55.84,-0.9 100.35,-46.89 99.45,-102.74" /><path
         id="path224"
         style="fill:#182330;fill-opacity:1;fill-rule:nonzero;stroke:none"
         d="m 5709.19,9218.97 c -0.31,-19.41 -16.31,-34.88 -35.75,-34.56 -19.38,0.32 -34.86,16.29 -34.57,35.7 0.32,19.45 16.32,34.93 35.71,34.61 19.45,-0.31 34.94,-16.3 34.61,-35.75" /><path
         id="path226"
         style="fill:#fbc677;fill-opacity:1;fill-rule:nonzero;stroke:none"
         d="m 5957.77,9290.52 78.42,-532.81 -260.85,22.54 z" /><path
         id="path228"
         style="fill:#ffffff;fill-opacity:1;fill-rule:nonzero;stroke:none"
         d="m 5723.44,8802.36 c -5.14,0.07 -186.49,155.96 -324.75,106.65 -138.27,-49.31 -115.65,-243.85 -85.29,-278.71 30.38,-34.87 113.2,17.07 191.99,38.13 78.75,21.08 124.42,-24.37 174.88,14.34 50.47,38.72 43.17,119.59 43.17,119.59" /><path
         id="path230"
         style="fill:#d66b53;fill-opacity:1;fill-rule:nonzero;stroke:none"
         d="m 5723.44,8802.36 c 0,0 0.59,-4.65 0.69,-13.43 0.08,-8.77 -0.13,-21.76 -3.27,-37.96 -3.07,-16.09 -9.08,-35.89 -23.27,-54.68 -3.78,-4.63 -7.79,-9.26 -12.41,-13.08 -2.09,-2.12 -4.96,-4.23 -7.51,-5.93 -2.67,-1.81 -5.25,-3.86 -8.33,-5.24 -11.66,-6.54 -26.05,-9.48 -40.46,-9.25 -28.94,0.59 -58.44,8.95 -89.72,6.02 -30.93,-2.23 -62.65,-15.4 -95.25,-27.44 -16.36,-6.25 -32.95,-12.9 -50.31,-18.7 -17.35,-5.61 -35.54,-11.28 -56.03,-10.1 -2.51,-0.06 -5.1,0.64 -7.7,1.23 -2.57,0.62 -5.13,1.02 -7.88,2.58 -2.5,1.34 -5.78,2.74 -7.48,4.29 l -5.24,4.56 -0.92,0.94 -0.28,0.42 -0.56,0.81 -1.13,1.65 -2.24,3.31 c -1.63,2.19 -2.8,4.43 -3.7,6.72 -2,4.54 -4.27,9.07 -5.51,13.72 -6.24,18.47 -9.3,37.5 -10.52,56.64 -2.47,38.15 2.46,77.08 17.03,112.28 14.32,35.19 39.42,65.97 72.91,82.84 8.29,3.51 15.29,7.22 24.45,10.5 8.63,2.18 17.19,4.33 25.65,6.46 8.68,0.73 17.23,1.46 25.68,2.19 8.46,0.07 16.79,-0.73 25,-1.06 32.71,-3.29 62.33,-12.48 88.66,-22.75 52.37,-21.71 91.53,-48.15 118.3,-66.93 13.44,-9.37 23.5,-17.43 30.47,-22.71 3.49,-2.66 6.16,-4.69 7.94,-6.06 1.95,-1.2 2.94,-1.84 2.94,-1.84 z m 0,0 c 0,0 -1.03,0.56 -3,1.66 -1.87,1.26 -4.67,3.16 -8.31,5.62 -7.21,4.96 -17.8,12.25 -31.54,21.12 -27.29,17.85 -67.7,41.79 -119.61,61.96 -26.09,9.43 -55.25,17.63 -86.65,19.99 -31.44,2.57 -64.62,-2.4 -95.08,-18.99 -29.43,-15.21 -53.05,-43.92 -65.95,-76.84 -13.38,-33.01 -17.86,-70.23 -15.18,-106.55 1.05,-18.16 3.83,-36.42 9.41,-53.29 2.31,-8.26 6.98,-17 10.38,-22.01 l 5.19,-4.63 c 1.75,-1.53 3.12,-1.44 4.59,-2.39 1.24,-0.89 3.3,-1.23 5.21,-1.68 1.89,-0.44 3.73,-1.05 5.85,-1 16.5,-1.18 34.21,3.7 50.97,9.1 16.93,5.48 33.51,11.97 49.97,18.08 32.9,12 65.19,24.59 98.79,26.32 33.27,2.13 63.44,-7.21 90.53,-8.31 27.49,-1.82 50.3,12.01 64.65,29.02 14.13,17.18 20.94,36.3 24.59,51.99 3.65,15.84 4.78,28.67 5.17,37.42 0.33,8.74 0.02,13.41 0.02,13.41" /><path
         id="path232"
         style="fill:#d66b53;fill-opacity:1;fill-rule:nonzero;stroke:none"
         d="m 5297.4,8788.97 91.66,3.36 c 0,0 -50.57,18.2 -80.99,29.37 -4.49,-10.64 -8.01,-21.61 -10.67,-32.73" /><path
         id="path234"
         style="fill:#ffffff;fill-opacity:1;fill-rule:nonzero;stroke:none"
         d="m 4277.3,9944.4 c 0,0 569.73,-341.46 1845.49,-296.84 l -61.96,-150.9 c 0,0 -1004,-95.32 -1816.66,298.59 l 33.13,149.15" /><path
         id="path236"
         style="fill:#fbc677;fill-opacity:1;fill-rule:nonzero;stroke:none"
         d="m 4880.5,6569.9 c 0,0 -396.33,-358 -882.73,-214.8 -486.4,143.3 -930.23,209.3 -930.23,209.3 0,0 -229.34,-381.8 -895.15,-621.4 0,0 -107.24,-670.7 -600.14,-634.6 0,0 -238.58,119.3 -64.58,525.7 0,0 175.86,-170.9 185.21,5.2 9.35,176.1 213.62,179.4 213.62,179.4 0,0 726.9,1626.71 803.15,1619.33 76.25,-7.37 102.57,-13.77 198.87,26.94 96.29,40.71 673.67,42.57 673.67,42.57 0,0 209.55,495.36 506.18,339.66 C 4385,7891.53 5486.53,7504.03 4880.5,6569.9" /><path
         id="path238"
         style="fill:#f68a2b;fill-opacity:1;fill-rule:nonzero;stroke:none"
         d="m 6898.41,7889.79 -63.58,-267.01 -321.71,194.07 111.6,162.86 273.69,-89.92" /><path
         id="path240"
         style="fill:#fbf6c4;fill-opacity:1;fill-rule:nonzero;stroke:none"
         d="m 4029.45,13993.8 c 0,342.7 -312.05,620.6 -697.01,620.6 -89.34,0 -174.63,-15.1 -253.15,-42.4 -183.75,216.7 -468.23,355.7 -787.59,355.7 -357.21,0 -670.77,-173.9 -848.54,-435.9 -356.43,-22.2 -636.133,-236.6 -636.133,-498 h 481.383 l -0.05,-1.1 h 2006.66 l -0.02,1.1 h 734.45" /><path
         id="path242"
         style="fill:#71cfce;fill-opacity:1;fill-rule:nonzero;stroke:none"
         d="m 6723.76,9697.97 c 10.18,80.14 20.39,160.27 30.58,240.4 71.26,-46.67 144.15,-94.87 194.49,-163.61 50.34,-68.74 74.17,-163.52 37.55,-240.47 -36.64,-76.91 -146.25,-116.99 -213.17,-64.23 -64.01,50.45 -59.72,147.04 -49.45,227.91" /><path
         id="path244"
         style="fill:#71cfce;fill-opacity:1;fill-rule:nonzero;stroke:none"
         d="m 7292.81,9667.57 c -100.05,-8.41 -154.53,108.8 -207.24,194.26 -73.35,118.92 -196.4,206.07 -332.93,235.87 164.87,32.5 340.89,5.1 488.1,-75.9 70.26,-38.75 137.77,-94.7 158.58,-172.14 20.81,-77.46 -26.57,-175.4 -106.51,-182.09" /><path
         id="path246"
         style="fill:#71cfce;fill-opacity:1;fill-rule:nonzero;stroke:none"
         d="m 7100.97,10285.6 c -93.42,51.1 -207.32,63.5 -309.53,33.6 38.37,47.2 78.37,95.3 131.8,124.3 53.42,29 124.09,34.8 172.47,-2.1 48.37,-36.8 56,-122.3 5.26,-155.8" /><path
         id="path248"
         style="fill:#ffffff;fill-opacity:1;fill-rule:nonzero;stroke:none"
         d="m 7310.06,9731.88 c -1.53,5.09 -0.85,10.81 2.35,15.58 38.69,57.58 21.86,145.78 -35.16,185.01 -8.39,5.77 -10.5,17.22 -4.72,25.61 5.78,8.38 17.23,10.51 25.6,4.72 74.04,-51.02 95,-161.24 44.84,-235.86 -5.67,-8.43 -17.11,-10.67 -25.53,-4.99 -3.68,2.44 -6.18,5.99 -7.38,9.93" /><path
         id="path250"
         style="fill:#ffffff;fill-opacity:1;fill-rule:nonzero;stroke:none"
         d="m 7189.33,9995.86 c -1.1,3.65 -1.08,7.64 0.29,11.54 3.43,9.6 13.96,14.5 23.52,11.1 l 24.69,-8.9 c 9.54,-3.4 14.49,-13.97 11.09,-23.52 -3.42,-9.55 -13.96,-14.55 -23.53,-11.09 l -24.68,8.86 c -5.7,2.05 -9.77,6.64 -11.38,12.01" /><path
         id="path252"
         style="fill:#ffffff;fill-opacity:1;fill-rule:nonzero;stroke:none"
         d="m 7035.27,10424 c -0.99,3.2 -1.1,6.8 -0.09,10.3 2.78,9.8 12.95,15.5 22.74,12.7 37.29,-10.7 64.96,-46.5 65.56,-85.4 0.16,-10.1 -7.94,-18.5 -18.09,-18.7 -10.16,-0.1 -18.49,7.9 -18.71,18.1 -0.36,22.7 -17.08,44.4 -38.83,50.6 -6.26,1.8 -10.83,6.6 -12.58,12.4" /><path
         id="path254"
         style="fill:#ffffff;fill-opacity:1;fill-rule:nonzero;stroke:none"
         d="m 6957.78,10435 -0.4,1.6 c -2.1,9.9 4.27,19.6 14.19,21.7 l 24.77,5.3 c 9.92,2.2 19.78,-4.4 21.87,-14.1 2.14,-9.9 -4.18,-19.7 -14.12,-21.8 l -24.92,-5.4 c -9.4,-2 -18.67,3.6 -21.39,12.7" /><path
         id="path256"
         style="fill:#ffffff;fill-opacity:1;fill-rule:nonzero;stroke:none"
         d="m 6848.43,9506.55 c -0.68,2.24 -0.96,4.63 -0.7,7.08 0.99,10.15 9.96,17.53 20.06,16.57 19.47,-1.89 39.62,3.77 55.25,15.56 15.64,11.78 26.67,29.56 30.26,48.79 1.87,9.98 11.45,16.58 21.45,14.72 10.03,-1.9 16.56,-11.55 14.7,-21.46 -5.25,-28.14 -21.36,-54.2 -44.24,-71.47 -22.97,-17.23 -52.45,-25.54 -80.94,-22.79 -7.66,0.76 -13.76,6.08 -15.84,13" /><path
         id="path258"
         style="fill:#ffffff;fill-opacity:1;fill-rule:nonzero;stroke:none"
         d="m 6957.76,9648.95 -0.15,0.47 -10.35,37.75 c -2.68,9.8 3.09,19.91 12.91,22.61 9.76,2.69 20.39,-4.39 22.61,-12.87 l 10.31,-37.77 c 2.68,-9.81 -3.09,-19.91 -12.88,-22.61 -9.66,-2.65 -19.58,2.9 -22.45,12.42" /></g></g></svg>