<svg height="512pt" viewBox="0 -23 512 512" width="512pt" xmlns="http://www.w3.org/2000/svg"><path d="m312.648438 280.324219c-77.765626-39.476563-169.703126-39.476563-247.46875 0-16.898438 8.582031-27.546876 25.925781-27.546876 44.878906v109.566406h302.5625v-109.566406c0-18.953125-10.648437-36.296875-27.546874-44.878906zm0 0" fill="#fc6a58"/><path d="m312.648438 280.324219c-29.136719-14.789063-60.265626-24.03125-91.890626-27.738281-3.105468 14.738281-16.179687 25.804687-31.84375 25.804687-6.492187 0-12.53125-1.90625-17.609374-5.179687v.039062c4.109374 10.429688 13.703124 17.699219 24.855468 18.8125 23 2.289062 45.519532 5.269531 66.960938 16.152344 16.898437 8.582031 27.546875 25.925781 27.546875 44.878906v81.675781h49.527343v-109.566406c0-18.953125-10.648437-36.296875-27.546874-44.878906zm0 0" fill="#e35052"/><path d="m188.914062 278.390625c-17.976562 0-32.546874-14.574219-32.546874-32.546875v-50.902344h65.097656v50.902344c-.003906 17.972656-14.574219 32.546875-32.550782 32.546875zm0 0" fill="#fed6a6"/><path d="m171.367188 273.246094c5.0625 3.25 11.082031 5.144531 17.546874 5.144531 17.976563 0 32.546876-14.574219 32.546876-32.546875v-50.902344h-49.582032zm0 0" fill="#efc79c"/><path d="m264.074219 38.664062h-150.320313c-12.242187 0-22.167968 9.925782-22.167968 22.171876v61.335937h194.65625v-61.335937c0-12.246094-9.925782-22.171876-22.167969-22.171876zm0 0" fill="#fa9a39"/><path d="m117.539062 102.988281h-11.835937c-10.039063 0-18.171875 8.144531-18.171875 18.183594v8.601563c0 10.042968 8.132812 18.1875 18.171875 18.1875h11.835937zm0 0" fill="#fed6a6"/><path d="m260.289062 102.988281h11.835938c10.039062 0 18.171875 8.144531 18.171875 18.183594v8.601563c0 10.042968-8.132813 18.1875-18.171875 18.1875h-11.835938zm0 0" fill="#fed6a6"/><path d="m112.175781 73.199219.261719 84.84375c.507812 21.617187 12.769531 36.53125 25.777344 49.34375 11.972656 11.785156 28.257812 25.710937 51.109375 25.902343 22.847656-.351562 39.039062-14.367187 50.925781-26.234374 12.921875-12.902344 25.078125-27.921876 25.4375-49.539063l-.160156-51.441406c-.054688-18.175781-14.804688-32.878907-32.976563-32.878907h-120.375zm0 0" fill="#ffe3c2"/><path d="m265.527344 106.074219c-.054688-18.171875-14.804688-32.875-32.976563-32.875h-16.503906l.113281 84.316406c-.359375 21.621094-12.515625 36.640625-25.4375 49.539063-7.085937 7.074218-15.707031 14.914062-26.351562 20.164062 7.316406 3.601562 15.582031 5.992188 24.949218 6.070312 22.847657-.351562 39.039063-14.367187 50.929688-26.234374 12.921875-12.902344 25.078125-27.921876 25.4375-49.539063zm0 0" fill="#f7d6b5"/><path d="m144.8125 7.5c-17.546875 0-31.851562 13.867188-32.570312 31.238281-11.394532.929688-20.65625 10.46875-20.65625 22.097657v48.898437c3.328124-4.113281 8.414062-6.746094 14.117187-6.746094h6.566406s.027344 0-.003906 0c12.027344 0 22.296875-9.644531 24.664063-21.4375 0-4.5625 3.699218-8.261719 8.257812-8.261719h89.125c27.003906 0 48.894531-21.890624 48.894531-48.894531v-14.636719c0-1.246093-1.011719-2.257812-2.257812-2.257812zm0 0" fill="#fdbd37"/><path d="m133.996094 256.292969c-8.472656 1.734375-16.882813 3.882812-25.199219 6.433593v99.136719h25.199219zm0 0" fill="#4c7ba5"/><path d="m269.027344 262.726562c-8.320313-2.550781-16.726563-4.699218-25.203125-6.4375v109.882813h25.203125zm0 0" fill="#4c7ba5"/><path d="m295.457031 434.769531v-75.917969c0-3.730468-2.003906-7.175781-5.261719-8.996093-7.710937-4.304688-21.164062-13.3125-21.164062-23.722657v-3.445312c0-3.765625-3.050781-6.820312-6.816406-6.820312h-146.601563c-3.765625 0-6.816406 3.054687-6.816406 6.820312v3.445312c0 10.410157-13.453125 19.417969-21.160156 23.722657-3.261719 1.820312-5.265625 5.265625-5.265625 8.996093v75.917969zm0 0" fill="#375779"/><path d="m450.347656 305.210938h-81.445312c-18.101563 0-32.777344 14.671874-32.777344 32.773437v51.761719c0 13.894531 11.265625 25.160156 25.160156 25.160156h96.679688c13.894531 0 25.160156-11.265625 25.160156-25.160156v-51.761719c0-18.101563-14.675781-32.773437-32.777344-32.773437zm0 0" fill="#b2b9bf"/><path d="m450.347656 305.210938h-27.789062c6.097656 0 11.039062 4.941406 11.039062 11.039062v95.230469c0 1.890625-1.53125 3.425781-3.421875 3.425781h27.789063c13.898437 0 25.160156-11.265625 25.160156-25.160156v-51.761719c0-18.101563-14.675781-32.773437-32.777344-32.773437zm0 0" fill="#a3acb2"/><path d="m450.347656 305.210938h-81.445312c-18.101563 0-32.777344 14.671874-32.777344 32.773437h147c0-18.101563-14.675781-32.773437-32.777344-32.773437zm0 0" fill="#545464"/><path d="m422.558594 305.210938c6.097656 0 11.039062 4.941406 11.039062 11.039062v21.734375h49.527344c0-2.828125-.355469-5.570313-1.03125-8.1875-.269531-1.050781-.589844-2.074219-.957031-3.078125-.917969-2.511719-2.136719-4.878906-3.609375-7.058594-1.765625-2.613281-3.902344-4.960937-6.328125-6.964844-.40625-.335937-.820313-.660156-1.238281-.972656-5.46875-4.089844-12.257813-6.511718-19.609376-6.511718zm0 0" fill="#394856"/><path d="m497.71875 459.386719h-483.4375c-3.746094 0-6.78125-3.039063-6.78125-6.785157v-32.914062c0-3.746094 3.035156-6.78125 6.78125-6.78125h483.433594c3.746094 0 6.785156 3.035156 6.785156 6.78125v32.914062c0 3.746094-3.035156 6.785157-6.78125 6.785157zm0 0" fill="#8b5f46"/><path d="m497.71875 412.90625h-42.746094v46.480469h42.746094c3.746094 0 6.78125-3.039063 6.78125-6.785157v-32.914062c0-3.746094-3.035156-6.78125-6.78125-6.78125zm0 0" fill="#844535"/><path d="m190.085938 165.347656h5.628906c4.144531 0 7.5-3.355468 7.5-7.5 0-4.140625-3.355469-7.5-7.5-7.5h-.816406v-12.277344c0-4.144531-3.359376-7.5-7.5-7.5-4.144532 0-7.5 3.355469-7.5 7.5v17.089844c-.003907 5.617188 4.570312 10.1875 10.1875 10.1875zm0 0"/><path d="m220.8125 186.535156c2.21875-3.5 1.175781-8.132812-2.324219-10.347656s-8.132812-1.175781-10.347656 2.328125c-3.433594 5.421875-10.980469 8.925781-19.226563 8.925781-8.242187 0-15.789062-3.503906-19.222656-8.925781-2.210937-3.5-6.847656-4.542969-10.347656-2.328125s-4.539062 6.847656-2.324219 10.347656c6.207031 9.8125 18.429688 15.90625 31.894531 15.90625 13.464844 0 25.691407-6.09375 31.898438-15.90625zm0 0"/><path d="m228.042969 137.457031c4.144531 0 7.5-3.355469 7.5-7.5v-7.785156c0-4.144531-3.355469-7.5-7.5-7.5-4.140625 0-7.5 3.355469-7.5 7.5v7.785156c0 4.144531 3.359375 7.5 7.5 7.5zm0 0"/><path d="m157.285156 122.171875c0-4.144531-3.355468-7.5-7.5-7.5-4.144531 0-7.5 3.355469-7.5 7.5v7.785156c0 4.144531 3.355469 7.5 7.5 7.5 4.144532 0 7.5-3.355469 7.5-7.5zm0 0"/><path d="m497.71875 405.40625h-11.082031c2.566406-4.703125 3.988281-10.0625 3.988281-15.660156v-17.425782h5.117188c8.828124 0 16.007812-7.183593 16.007812-16.007812v-9.820312c0-8.824219-7.179688-16.007813-16.007812-16.007813h-5.816407c-3.527343-18.636719-19.933593-32.773437-39.578125-32.773437h-33.222656v-4.125h5.375c4.140625 0 7.5-3.355469 7.5-7.5 0-4.140626-3.359375-7.5-7.5-7.5h-25.75c-4.144531 0-7.5 3.359374-7.5 7.5 0 4.144531 3.355469 7.5 7.5 7.5h5.375v4.125h-33.226562c-9.207032 0-17.703126 3.105468-24.496094 8.324218-4.886719-13.847656-14.957032-25.59375-28.359375-32.394531-27.441407-13.933594-56.703125-23.1875-87.082031-27.554687 0-.078126 0-.160157 0-.242188v-19.03125c6.113281-4.421875 11.589843-9.457031 16.589843-14.449219 15.300781-15.277343 27.695313-34.660156 27.628907-56.925781 13.667968-.554688 24.617187-11.855469 24.617187-25.664062v-8.601563c0-5.089844-1.488281-9.839844-4.054687-13.835937v-46.5c0-6.558594-2.183594-12.898438-6.117188-18.039063 1.996094-5.773437 3.082031-11.960937 3.082031-18.402344v-14.636719c0-5.378906-4.378906-9.757812-9.757812-9.757812h-136.136719c-19.53125 0-35.800781 13.828125-39.371094 32.433594-12.371094 3.726562-21.355468 15.199218-21.355468 28.402344v46.5c-2.566407 3.996093-4.054688 8.746093-4.054688 13.835937v8.601563c0 13.90625 11.101562 25.261718 24.898438 25.675781.078124 23.246093 12.019531 41.523437 28.023437 57.28125 4.820313 4.75 10.078125 9.539062 15.914063 13.78125v19.332031.242188c-30.378907 4.367187-59.636719 13.621093-87.082032 27.550781-19.523437 9.914062-31.652344 29.671875-31.652344 51.566406v17.539063c0 4.144531 3.359376 7.5 7.5 7.5 4.144532 0 7.5-3.355469 7.5-7.5v-17.539063c0-16.214844 8.984376-30.847656 23.441407-38.1875 10.636719-5.398437 21.554687-10.054687 32.722656-13.957031v53.074218c0 4.558594-6.800781 11.300782-17.316406 17.175782-5.617188 3.136718-9.109375 9.09375-9.109375 15.546875v46.550781h-29.738282v-27.699219c0-4.144531-3.355468-7.5-7.5-7.5-4.140624 0-7.5 3.355469-7.5 7.5v27.699219h-15.851562c-7.875 0-14.28125 6.40625-14.28125 14.28125v32.914062c0 7.875 6.40625 14.285157 14.28125 14.285157h483.4375c7.875 0 14.28125-6.410157 14.28125-14.285157v-32.914062c0-7.875-6.40625-14.28125-14.28125-14.28125zm-169.09375-48.085938h-5.117188c-.554687 0-1.007812-.453124-1.007812-1.007812v-9.820312c0-.554688.453125-1.007813 1.007812-1.007813h5.117188zm168.125-10.828124v9.820312c0 .554688-.453125 1.007812-1.007812 1.007812h-5.117188v-11.835937h5.117188c.554687 0 1.007812.453125 1.007812 1.007813zm-127.847656-33.78125h81.445312c11.328125 0 20.9375 7.488281 24.140625 17.773437h-71.1875c-4.144531 0-7.5 3.359375-7.5 7.5 0 4.144531 3.355469 7.5 7.5 7.5h72.324219v44.261719c0 6.625-3.679688 12.628906-9.484375 15.660156h-113.03125c-5.804687-3.03125-9.484375-9.035156-9.484375-15.660156v-44.261719h24.777344c4.144531 0 7.5-3.355469 7.5-7.5 0-4.140625-3.355469-7.5-7.5-7.5h-23.640625c3.203125-10.285156 12.8125-17.773437 24.140625-17.773437zm-36.4375 8.121093c-1.433594 3.03125-2.5 6.269531-3.140625 9.652344h-5.816407c-8.828124 0-16.007812 7.183594-16.007812 16.007813v9.820312c0 8.824219 7.179688 16.007812 16.007812 16.007812h5.117188v17.425782c0 5.597656 1.421875 10.957031 3.988281 15.660156h-29.65625v-46.554688c0-6.449218-3.488281-12.40625-9.105469-15.542968-10.523437-5.878906-17.320312-12.621094-17.320312-17.179688l-.003906-53.070312c11.164062 3.898437 22.089844 8.554687 32.726562 13.953125 12.96875 6.585937 21.730469 19.421875 23.210938 33.820312zm-70.9375-12.464843h-10.203125v-42.730469c3.417969.824219 6.820312 1.714843 10.203125 2.675781zm21.269531-178.59375c0 5.550781-4.25 10.125-9.660156 10.636718l-.09375-29.882812c5.457031.46875 9.753906 5.066406 9.753906 10.644531zm-4.054687-33.417969c-4-.804688-7.132813-.976563-7.132813-.867188-2.175781-8.058593-6.738281-15.066406-12.882813-20.261719 7.804688-3.761718 14.617188-9.273437 19.925782-16.023437.0625.539063.089844 37.152344.089844 37.152344zm-165.890626-50.140625c3.777344-.308594 6.730469-3.382813 6.886719-7.167969.554688-13.484375 11.570313-24.046875 25.074219-24.046875h130.894531v9.394531c0 22.824219-18.570312 41.394531-41.394531 41.394531h-89.125c-8.378906 0-15.253906 6.574219-15.730469 14.839844-1.941406 8.378906-9.390625 14.859375-17.191406 14.859375h-6.558594c-2.289062 0-4.507812.300781-6.621093.867188v-35.519531c0-7.570313 6.046874-13.992188 13.765624-14.621094zm-17.820312 83.558594v-8.601563c0-5.582031 4.300781-10.179687 9.757812-10.644531l.09375 29.902344c-5.503906-.421876-9.851562-5.039063-9.851562-10.65625zm24.90625 28.167968-.148438-48.429687c11.945313-3.136719 21.882813-13.484375 24.492188-26.488281.097656-.484376.144531-.976563.144531-1.472657 0-.417969.34375-.761719.761719-.761719h89.433594c12.335937.988282 22.101562 10.570313 23.285156 22.917969.027344.277344.277344 53.753907.277344 53.753907-.316406 17.816406-9.519532 30.589843-23.234375 44.285156-12.3125 12.292968-26.367188 23.714844-45.652344 24.042968-19.277344-.195312-33.414063-11.527343-45.820313-23.746093-13.808593-13.597657-23.09375-26.304688-23.539062-44.101563zm69.320312 82.851563h.066407c.035156 0 .074219 0 .113281-.003907 9.089844-.136718 17.207031-2.144531 24.523438-5.316406v10.371094c0 13.808594-11.234376 25.046875-25.046876 25.046875s-25.046874-11.238281-25.046874-25.046875v-10.570312c7.558593 3.335937 15.957031 5.4375 25.390624 5.519531zm-.34375 45.097656c16.785157 0 31.195313-10.382813 37.140626-25.066406 3.4375.484375 6.863281 1.035156 10.269531 1.652343v45.890626h-94.828125v-45.890626c3.410156-.617187 6.839844-1.167968 10.277344-1.652343 5.945312 14.683593 20.355468 25.066406 37.140624 25.066406zm-62.417968-20.253906v42.730469h-10.199219v-40.050782c3.378906-.960937 6.78125-1.851562 10.199219-2.679687zm-36.625 93.214843c0-1.019531.542968-1.957031 1.421875-2.449218 11.40625-6.371094 25.003906-16.792969 25.003906-30.269532v-2.765624h145.234375v2.765624c0 13.476563 13.597656 23.898438 25.007812 30.273438.875.488281 1.417969 1.425781 1.417969 2.445312v46.554688h-198.085937zm407.128906 93.035157h-482v-31.480469h482zm0 0"/></svg>