<?xml version="1.0" encoding="iso-8859-1"?>
<!-- Generator: Adobe Illustrator 19.0.0, SVG Export Plug-In . SVG Version: 6.00 Build 0)  -->
<svg xmlns="http://www.w3.org/2000/svg" xmlns:xlink="http://www.w3.org/1999/xlink" version="1.1" id="Layer_1" x="0px" y="0px" viewBox="0 0 511.994 511.994" style="enable-background:new 0 0 511.994 511.994;" xml:space="preserve" width="512" height="512">
<g id="XMLID_924_">
	<g id="XMLID_925_">
		<path id="XMLID_926_" style="fill:#37D0F5;" d="M504.497,37.483v310.948c0,11.046-8.954,20-20,20h-457c-11.046,0-20-8.954-20-20    V37.483c0-11.046,8.954-20,20-20h457C495.543,17.483,504.497,26.437,504.497,37.483z"/>
		<path id="XMLID_927_" style="fill:#00ACEF;" d="M82.352,327.83c-15.424,0-27.973-12.549-27.973-27.973V86.053    c0-15.424,12.549-27.973,27.973-27.973h347.291c15.424,0,27.973,12.549,27.973,27.973v213.804    c0,15.424-12.549,27.973-27.973,27.973H82.352z M401.669,271.884V114.026H110.325v157.858H401.669z"/>
		<polygon id="XMLID_930_" style="fill:#AAEBF9;" points="504.497,77.224 504.497,152.754 385.367,271.884 329.417,327.834     288.817,368.434 213.307,368.434 253.907,327.834 309.847,271.884 401.667,180.064 457.617,124.104   "/>
		<polygon id="XMLID_931_" style="fill:#AAEBF9;" points="504.497,196.644 504.497,272.164 408.227,368.434 332.717,368.434     373.317,327.834 457.617,243.524   "/>
		<path id="XMLID_938_" style="fill:#76D8FF;" d="M429.647,327.834c15.42,0,27.97-12.55,27.97-27.98v-56.33l-84.3,84.31H429.647z     M401.667,180.064v75.52l55.95-55.95v-75.53L401.667,180.064z M309.847,271.884l-55.94,55.95h75.51l55.95-55.95H309.847z"/>
		<g id="XMLID_947_">
			<g id="XMLID_943_">
				<path id="XMLID_944_" style="fill:#DEEFFF;" d="M429.643,314.83H82.351c-8.269,0-14.973-6.704-14.973-14.973V86.053      c0-8.269,6.704-14.973,14.973-14.973h347.291c8.269,0,14.973,6.704,14.973,14.973v213.804      C444.616,308.126,437.912,314.83,429.643,314.83z M97.325,284.884H414.67V101.026H97.325V284.884z"/>
			</g>
		</g>
		<g id="XMLID_951_">
			<circle id="XMLID_1947_" style="fill:#F88224;" cx="294.799" cy="207.136" r="79.204"/>
			<path id="XMLID_1946_" style="fill:#F75820;" d="M350.801,263.139c-30.929,30.929-81.077,30.929-112.006,0     c-3.359-3.359-6.343-6.937-8.973-10.699c30.886,21.595,73.744,18.604,101.314-8.966c27.57-27.57,30.561-70.428,8.966-101.314     c3.762,2.63,7.34,5.614,10.698,8.973C381.73,182.062,381.73,232.21,350.801,263.139z"/>
		</g>
		<path id="XMLID_1942_" style="fill:#1680F6;" d="M356.531,328.425H155.463c-5.907,0-10.695-4.788-10.695-10.695v-33.007    c0-5.907,4.788-10.695,10.695-10.695h201.067c5.907,0,10.695,4.788,10.695,10.695v33.007    C367.226,323.637,362.437,328.425,356.531,328.425z"/>
	</g>
	<g id="XMLID_952_">
		<path id="XMLID_954_" d="M78.736,360.927H27.5c-6.893,0-12.5-5.607-12.5-12.5V37.483c0-6.893,5.607-12.5,12.5-12.5h76.236    c4.142,0,7.5-3.357,7.5-7.5s-3.358-7.5-7.5-7.5H27.5C12.336,9.983,0,22.32,0,37.483v310.944c0,15.163,12.336,27.5,27.5,27.5    h51.236c4.142,0,7.5-3.357,7.5-7.5S82.878,360.927,78.736,360.927z"/>
		<path id="XMLID_955_" d="M484.494,9.983H138.258c-4.142,0-7.5,3.357-7.5,7.5s3.358,7.5,7.5,7.5h346.236    c6.893,0,12.5,5.607,12.5,12.5v210.252c0,4.143,3.358,7.5,7.5,7.5s7.5-3.357,7.5-7.5V37.483    C511.994,22.32,499.658,9.983,484.494,9.983z"/>
		<path id="XMLID_956_" d="M504.494,274.758c-4.142,0-7.5,3.357-7.5,7.5v66.169c0,6.893-5.607,12.5-12.5,12.5H351.781l3.387-25.002    h1.363c8.441,0,15.537-5.786,17.583-13.595h55.529c12.392,0,22.473-10.082,22.473-22.474V86.052    c0-12.392-10.082-22.473-22.473-22.473H82.352c-12.392,0-22.473,10.081-22.473,22.473v213.805    c0,12.392,10.082,22.474,22.473,22.474h55.529c2.046,7.809,9.142,13.595,17.583,13.595h1.363l3.387,25.002h-46.955    c-4.142,0-7.5,3.357-7.5,7.5s3.358,7.5,7.5,7.5h48.987l1.265,9.338c-2.239,0.865-4.025,2.789-4.61,5.303    c-0.938,4.035,1.572,8.066,5.606,9.004c0.318,0.074,0.65,0.143,0.97,0.216l6.406,47.29c-1.176,1.004-2.058,2.373-2.435,3.995    c-0.817,3.515,0.983,7.024,4.126,8.491l4.87,35.953c0.51,3.763,3.728,6.494,7.423,6.494c0.335,0,0.675-0.022,1.016-0.069    c4.104-0.556,6.981-4.334,6.425-8.438l-4.139-30.556c10.325,1.826,21.472,3.241,33.09,4.223l1.333,27.7    c0.193,4.015,3.509,7.14,7.485,7.14c0.122,0,0.244-0.003,0.366-0.009c4.138-0.199,7.33-3.715,7.131-7.852l-1.25-25.963    c7.721,0.388,15.578,0.588,23.484,0.588c4.646,0,9.262-0.071,13.839-0.204l-1.231,25.579c-0.199,4.137,2.993,7.652,7.131,7.852    c0.123,0.006,0.245,0.009,0.366,0.009c3.977,0,7.292-3.125,7.485-7.14l1.298-26.978c11.427-0.706,22.477-1.829,32.909-3.353    l-3.923,28.964c-0.556,4.104,2.321,7.883,6.425,8.438c0.342,0.047,0.681,0.069,1.016,0.069c3.695,0,6.913-2.731,7.423-6.494    l4.6-33.956c2.845-1.495,4.51-4.719,3.878-8.04c-0.308-1.621-1.121-3.013-2.239-4.06l6.409-47.313    c0.136-0.026,0.276-0.049,0.411-0.075c4.069-0.774,6.741-4.7,5.966-8.77c-0.485-2.552-2.211-4.553-4.434-5.5l1.609-11.876h134.745    c15.164,0,27.5-12.337,27.5-27.5v-66.169C511.994,278.116,508.636,274.758,504.494,274.758z M336.644,360.927h-41.797    l1.203-25.002h43.98L336.644,360.927z M232.164,360.927l-1.203-25.002h50.073l-1.203,25.002H232.164z M279.108,375.927    l-0.876,18.212c-5.527,0.175-11.113,0.265-16.74,0.265c-9.365,0-18.653-0.261-27.753-0.752l-0.853-17.726H279.108z     M223.095,207.136c0-16.629,5.63-32.391,15.976-45.121l45.121,45.121l-14.17,14.17c-12.482-9.316-28.918-12.866-46.804-10.107    C223.143,209.851,223.095,208.498,223.095,207.136z M366.502,207.136c0,16.63-5.63,32.391-15.976,45.121l-45.121-45.121    l14.178-14.178c9.727,7.259,21.845,11.029,35.19,11.029c3.779,0,7.658-0.31,11.606-0.919    C366.454,204.419,366.502,205.774,366.502,207.136z M330.364,182.178l20.163-20.163c6.323,7.78,10.87,16.696,13.459,26.248    C351.081,190.223,339.37,188.08,330.364,182.178z M319.757,171.571c-5.894-8.996-8.038-20.691-6.091-33.578    c9.383,2.543,18.348,7.004,26.254,13.415L319.757,171.571z M308.969,182.359l-14.17,14.17l-45.121-45.12    c14.212-11.525,31.839-16.792,49.179-15.818C296.109,153.465,299.659,169.886,308.969,182.359z M259.233,232.095l-20.162,20.162    c-6.323-7.78-10.87-16.696-13.459-26.248C238.515,224.05,250.226,226.194,259.233,232.095z M254.627,266.528    c-1.695-1.15-3.351-2.366-4.95-3.664l20.176-20.176c4.353,6.617,6.654,14.701,6.756,23.84H254.627z M291.607,266.528    c-0.137-13.146-3.961-25.101-11-34.593l14.192-14.192l45.114,45.113c-1.363,1.107-2.754,2.175-4.184,3.171    c-0.225,0.156-0.436,0.324-0.638,0.5H291.607z M381.502,207.136c0-23.159-9.019-44.933-25.395-61.31    c-33.806-33.806-88.812-33.804-122.618,0c-16.376,16.377-25.395,38.15-25.395,61.31c0,4.773,0.404,9.482,1.156,14.103    c0.013,0.09,0.031,0.18,0.047,0.27c2.794,16.836,10.482,32.404,22.365,45.018h-76.2c-7.421,0-13.808,4.471-16.636,10.856h-34.002    V108.526h302.345v168.858h-34.002c-2.656-5.996-8.454-10.287-15.297-10.789C373.116,250.446,381.502,229.442,381.502,207.136z     M74.878,299.857V86.052c0-4.12,3.353-7.473,7.473-7.473h347.291c4.121,0,7.473,3.353,7.473,7.473v213.805    c0,4.121-3.353,7.474-7.473,7.474h-54.917v-14.946h39.943c4.142,0,7.5-3.357,7.5-7.5V101.026c0-4.143-3.358-7.5-7.5-7.5H97.325    c-4.142,0-7.5,3.357-7.5,7.5v183.858c0,4.143,3.358,7.5,7.5,7.5h39.943v14.946H82.352    C78.231,307.331,74.878,303.978,74.878,299.857z M152.268,317.73v-33.007c0-1.762,1.434-3.195,3.195-3.195h201.067    c1.762,0,3.195,1.434,3.195,3.195v33.007c0,1.762-1.434,3.195-3.195,3.195H155.463    C153.702,320.925,152.268,319.492,152.268,317.73z M171.963,335.925h43.98l1.203,25.002H175.35L171.963,335.925z M217.869,375.927    l0.803,16.683c-14.101-1.204-27.519-2.998-39.752-5.331l-1.538-11.351H217.869z M187.05,447.297l-6.012-44.383    c11.963,2.095,24.889,3.704,38.361,4.799l2.134,44.344C209.286,450.964,197.646,449.364,187.05,447.297z M260.81,453.775    c-8.169,0-16.27-0.225-24.209-0.649l-2.137-44.411c8.882,0.454,17.926,0.691,27.028,0.691c5.378,0,10.721-0.083,16.017-0.24    l-2.136,44.383C270.564,453.698,265.704,453.775,260.81,453.775z M324.707,449.046c-10.758,1.72-22.288,2.985-34.283,3.771    l2.133-44.316c13.251-0.775,26.065-2.046,38.155-3.789L324.707,449.046z M332.81,389.229c-12.416,1.939-25.707,3.353-39.528,4.207    l0.843-17.508h40.487L332.81,389.229z"/>
	</g>
</g>















</svg>
