<?xml version="1.0"?>
<svg xmlns="http://www.w3.org/2000/svg" id="Fill_Outline" data-name="Fill Outline" viewBox="0 0 64 64" width="512" height="512"><title>Bike icon</title><desc>Bike icon for website, application, printing, document, poster design, etc.</desc><metadata><?xpacket begin="﻿" id="W5M0MpCehiHzreSzNTczkc9d"?><x:xmpmeta xmlns:x="adobe:ns:meta/" x:xmptk="Adobe XMP Core 5.6-c145 79.163499, 2018/08/13-16:40:22        "><rdf:RDF xmlns:rdf="http://www.w3.org/1999/02/22-rdf-syntax-ns#"><rdf:Description xmlns:dc="http://purl.org/dc/elements/1.1/" rdf:about=""><dc:title><rdf:Alt><rdf:li xml:lang="x-default">Bike icon</rdf:li></rdf:Alt></dc:title><dc:description><rdf:Alt><rdf:li xml:lang="x-default">Bike icon for website, application, printing, document, poster design, etc.</rdf:li></rdf:Alt></dc:description><dc:subject><rdf:Bag><rdf:li xml:lang="x-default">Bike</rdf:li><rdf:li>bicycle</rdf:li><rdf:li>sport</rdf:li><rdf:li>man</rdf:li><rdf:li>runner</rdf:li><rdf:li>healthy</rdf:li><rdf:li>cardio</rdf:li><rdf:li>fast</rdf:li></rdf:Bag></dc:subject></rdf:Description></rdf:RDF></x:xmpmeta><?xpacket end="w"?></metadata><g id="Flat"><path d="M26.73,36.14A3,3,0,0,1,25.85,34H24a2,2,0,0,0,0,4h5l-1-.59Z" style="fill:#4e80f2"/><path d="M36,19H46a0,0,0,0,1,0,0v3a5,5,0,0,1-5,5h0a5,5,0,0,1-5-5V19A0,0,0,0,1,36,19Z" style="fill:#fea4a7"/><circle cx="17" cy="52" r="9" style="fill:#98b4f4"/><path d="M47,35.1l-4.76-2.22-4-4a3,3,0,0,0,.68-2.28v-.06A5,5,0,0,1,36.4,24l-.12,0a3,3,0,0,0-2.48.85L26.73,31.9a3,3,0,0,0,0,4.24l2.12,2.12,4.57,4.57v9.4a2.54,2.54,0,0,0,5.07.07l.2-9.06a5,5,0,0,0-1.46-3.67l-4.85-4.84,3-3,5.21,5.2,4.73,1.93A2,2,0,0,0,47,35.1Z" style="fill:#fea4a7"/><path d="M38,53.76a2.26,2.26,0,0,1-2.54-2.29v-8a4,4,0,0,0-1.17-2.83l-3.4-3.4-2.12-2.12A4.68,4.68,0,0,1,27.67,31l-.94.94a3,3,0,0,0,0,4.24l2.12,2.12,4.57,4.57V52.1a2.63,2.63,0,0,0,2.17,2.64,2.5,2.5,0,0,0,2.37-1Z" style="fill:#fe6569"/><path d="M38.21,28.87a2.92,2.92,0,0,0,.68-2h0a6.1,6.1,0,0,1-2.83-2.76L36,24a2.94,2.94,0,0,0-2.18.85l-5,5,4.25,4.25,2.33-2.34,2,1.94,2.83-2.83Z" style="fill:#3cc37f"/><path d="M36.06,24.13,36,24a2.93,2.93,0,0,0-2.13.81A5,5,0,0,0,38,27a5.16,5.16,0,0,0,.89-.09v0A6.1,6.1,0,0,1,36.06,24.13Z" style="fill:#2b8d5c"/><path d="M33.06,34.06l-4.25-4.25L26.73,31.9a3,3,0,0,0,0,4.24l2.12,2.12,1.94,2,3.54-3.54-1.95-1.94Z" style="fill:#3cc37f"/><path d="M30.85,37.26l-2.12-2.12A4.68,4.68,0,0,1,27.67,31l-.94.94a3,3,0,0,0-.66,3.25,3.07,3.07,0,0,0,.66,1l2.12,2.12,1.94,2,1.5-1.5Z" style="fill:#2b8d5c"/><circle cx="52" cy="52" r="9" style="fill:#98b4f4"/><path d="M41,14h7a0,0,0,0,1,0,0v3a2,2,0,0,1-2,2H36a0,0,0,0,1,0,0v0A5,5,0,0,1,41,14Z" style="fill:#054def"/><path d="M41,14h7a0,0,0,0,1,0,0v2a0,0,0,0,1,0,0H43a2,2,0,0,1-2-2v0A0,0,0,0,1,41,14Z" style="fill:#4e80f2"/><path d="M44.5,21a4.45,4.45,0,0,0-4.25,5.92A4.65,4.65,0,0,0,41,27a5,5,0,0,0,5-5v-.72A4.39,4.39,0,0,0,44.5,21Z" style="fill:#fee4e5"/><path d="M35,31.2a1,1,0,0,0-1.67.19l-1,1.94L33,34h.11l2.28-2.28Z" style="fill:#2b8d5c"/><path d="M47,35.1l-4.76-2.22-.2-.21A2,2,0,0,0,43,35l5,2.52A2,2,0,0,0,47,35.1Z" style="fill:#fee4e5"/><path d="M52,46a6,6,0,0,0-5.12,2.88,6,6,0,0,1,8.24,8.24A6,6,0,0,0,52,46Z" style="fill:#4e80f2"/><path d="M17,46a6,6,0,0,0-5.12,2.88,6,6,0,0,1,8.24,8.24A6,6,0,0,0,17,46Z" style="fill:#4e80f2"/></g><g id="Outline"><path d="M15.44,48.31a1,1,0,1,0-.78-1.84A6,6,0,0,0,17,58a6.07,6.07,0,0,0,2.8-.69,1,1,0,0,0-.94-1.77A3.85,3.85,0,0,1,17,56a4,4,0,0,1-1.56-7.69Z" style="fill:#032c89"/><path d="M52,42a9.68,9.68,0,0,0-3.2.54L48,40.67l-.28-1.11A3.06,3.06,0,0,0,49,35.91a3,3,0,0,0-1.58-1.72L42.8,32.05l-3.32-3.32a4.33,4.33,0,0,0,.31-.85A6,6,0,0,0,47,22V19.82A3,3,0,0,0,49,17V14a1,1,0,0,0-1-1H41a6,6,0,0,0-6,6v3a6,6,0,0,0,2.9,5.13,2,2,0,0,1-.46,1.1,1,1,0,0,0,.06,1.35l1.25,1.25-1.41,1.42L36.1,31a1,1,0,0,0-1.41,0l-1.63,1.63-2.83-2.83,3.23-3.23a1,1,0,0,0,0-1.41,1,1,0,0,0-1.42,0l-6,6A3.92,3.92,0,0,0,25,33H24a3,3,0,0,0,0,6h1v1.64l-2.48,3A10,10,0,0,0,17,42a1,1,0,0,0,0,2,8,8,0,0,1,4.25,1.23l-5,6.14A1,1,0,0,0,17,53h7.93a8,8,0,1,1-12.4-7.63,1,1,0,1,0-1.12-1.66A10,10,0,0,0,11,60H3a1,1,0,0,0,0,2H17a10,10,0,0,0,10-9h2.47a1,1,0,0,0,0-2H27a10,10,0,0,0-2.88-6.06L26.47,42h1.12a1,1,0,1,0,0-2H27V39h1a.7.7,0,0,0,.14,0l4.28,4.28v8a1,1,0,1,0,2,0v-8.4a1,1,0,0,0-.29-.7l-1.92-1.92,2.12-2.12,2.19,2.19a4,4,0,0,1,1.17,2.94l-.2,9.05A1.52,1.52,0,0,1,36,53.76a1,1,0,0,0,0,2,3.52,3.52,0,0,0,3.53-3.44l.2-9a6.06,6.06,0,0,0-1.76-4.41L35,36h0L33.8,34.73l1.6-1.6,1.23,1.24h0l3.26,3.26a1.06,1.06,0,0,0,.33.22L45,39.78a3.39,3.39,0,0,0,.76.19v0H42.2a1,1,0,0,0,0,2h2.39l-3.3,3.29a1,1,0,0,0,0,1.42,1,1,0,0,0,1.42,0l4-4,.29.64A10,10,0,0,0,42,52a1,1,0,0,0,2,0,8,8,0,0,1,3.81-6.8l3.28,7.21A1,1,0,0,0,52,53a1,1,0,0,0,.41-.09,1,1,0,0,0,.5-1.32l-3.28-7.23a8,8,0,1,1-4.75,11.3,1,1,0,0,0-1.77.91A9.91,9.91,0,0,0,46,60H39a1,1,0,0,0,0,2H52a10,10,0,0,0,0-20ZM41,15h6v2a1,1,0,0,1-1,1H37.13A4,4,0,0,1,41,15Zm-4,5h8v2a4,4,0,0,1-8,0ZM24.93,51H19.11l3.68-4.5A8,8,0,0,1,24.93,51ZM23,36a1,1,0,0,1,1-1h1a3.93,3.93,0,0,0,1,1.85l.15.15H24A1,1,0,0,1,23,36Zm7.79,2.79-3.35-3.35a2,2,0,0,1,0-2.83l1.37-1.38,2.84,2.83a1,1,0,0,0,0,1.38l1.23,1.23Zm10.37-2.72-2.41-2.41,1.42-1.41,1.34,1.34a1,1,0,0,0,.28.2L46.54,36a1.06,1.06,0,0,1,.55.59,1.11,1.11,0,0,1,0,.65L47,36.76a1,1,0,1,0-1.94.48l.11.46Z" style="fill:#032c89"/><path d="M56,52a1,1,0,0,0,2,0,6,6,0,0,0-3.66-5.53,1,1,0,1,0-.78,1.84A4,4,0,0,1,56,52Z" style="fill:#032c89"/><path d="M52,58a1,1,0,0,0,0-2,4,4,0,0,1-4-4,1,1,0,0,0-2,0A6,6,0,0,0,52,58Z" style="fill:#032c89"/><path d="M3,34H13a1,1,0,0,0,0-2H3a1,1,0,0,0,0,2Z" style="fill:#032c89"/><path d="M6,39a1,1,0,0,0,0,2H9a1,1,0,0,0,0-2Z" style="fill:#032c89"/><path d="M14,26H26a1,1,0,0,0,0-2H14a1,1,0,0,0,0,2Z" style="fill:#032c89"/><path d="M27,19h4a1,1,0,0,0,0-2H27a1,1,0,0,0,0,2Z" style="fill:#032c89"/><circle cx="43" cy="22" r="1" style="fill:#032c89"/></g></svg>
