<svg height="512pt" viewBox="0 0 512 512" width="512pt" xmlns="http://www.w3.org/2000/svg"><path d="m211 308.300781c0 67.5-19.800781 132.898438-57.300781 189l-9.597657 14.699219h-76.203124l-9.597657-14.699219c-37.5-56.101562-58.300781-121.5-58.300781-189 0-36.300781 15.097656-71.199219 40-97.300781l39-15-21-15c1.800781-6 3-12 3-18.601562 0-3.597657-.601562-7.5-1.199219-11.398438l23.097657-15-36.898438-15c-9.601562-12.898438-15-28.800781-15-45 0-22.800781 10.199219-44.800781 27.597656-59.199219 13.503906-11.101562 30.300782-16.800781 47.402344-16.800781 5.398438 0 10.5.597656 15.902344 1.800781 27.898437 5.699219 50.996094 28.199219 57.296875 56.097657 4.800781 22.203124-.300781 45.402343-13.800781 63.101562l-36.296876 15 23.699219 15c-.601562 3.898438-1.800781 7.199219-1.800781 11.398438 0 6.601562 1.199219 12.601562 2.996094 18.601562l-20.996094 15 39 15c24.902344 26.101562 39 61 39 97.300781zm0 0" fill="#ececf1"/><path d="m211 308.300781c0 67.5-19.800781 132.898438-57.300781 189l-9.597657 14.699219h-38.101562v-512c5.398438 0 10.5.597656 15.902344 1.800781 27.898437 5.699219 50.996094 28.199219 57.296875 56.097657 4.800781 22.203124-.300781 45.402343-13.800781 63.101562l-36.296876 15 23.699219 15c-.601562 3.898438-1.800781 7.199219-1.800781 11.398438 0 6.601562 1.199219 12.601562 2.996094 18.601562l-20.996094 15 39 15c24.902344 26.101562 39 61 39 97.300781zm0 0" fill="#d3d3d8"/><path d="m165.398438 121c-.898438 1.199219-1.5 2.398438-2.398438 3.300781-5.699219 6.597657-8.699219 16.199219-10.199219 26.699219h-93c-2.101562-10.199219-6.601562-20.398438-13.800781-30zm0 0" fill="#ff641a"/><path d="m172 211h-132l1.800781-1.800781c7.800781-8.101563 13.199219-17.699219 16.199219-28.199219h96c3 10.5 8.402344 20.097656 16.199219 28.199219zm0 0" fill="#ff641a"/><path d="m152.800781 151h-46.800781v-30h59.398438c-.898438 1.199219-1.5 2.398438-2.398438 3.300781-5.699219 6.597657-8.699219 16.199219-10.199219 26.699219zm0 0" fill="#f03800"/><path d="m172 211h-66v-30h48c3 10.5 8.398438 20.097656 16.199219 28.199219zm0 0" fill="#f03800"/><path d="m391 308.300781c0 67.5-19.800781 132.898438-57.300781 189l-9.597657 14.699219h-76.203124l-9.597657-14.699219c-37.5-56.101562-58.300781-121.5-58.300781-189 0-36.300781 15.097656-71.199219 40-97.300781l39-15-21-15c1.800781-6 3-12 3-18.601562 0-3.597657-.601562-7.5-1.199219-11.398438l23.097657-15-36.898438-15c-9.601562-12.898438-15-28.800781-15-45 0-22.800781 10.199219-44.800781 27.597656-59.199219 13.503906-11.101562 30.300782-16.800781 47.402344-16.800781 5.398438 0 10.5.597656 15.902344 1.800781 27.898437 5.699219 50.996094 28.199219 57.296875 56.097657 4.800781 22.203124-.300781 45.402343-13.800781 63.101562l-36.296876 15 23.699219 15c-.601562 3.898438-1.800781 7.199219-1.800781 11.398438 0 6.601562 1.199219 12.601562 2.996094 18.601562l-20.996094 15 39 15c24.902344 26.101562 39 61 39 97.300781zm0 0" fill="#ececf1"/><path d="m391 308.300781c0 67.5-19.800781 132.898438-57.300781 189l-9.597657 14.699219h-38.101562v-512c5.398438 0 10.5.597656 15.902344 1.800781 27.898437 5.699219 50.996094 28.199219 57.296875 56.097657 4.800781 22.203124-.300781 45.402343-13.800781 63.101562l-36.296876 15 23.699219 15c-.601562 3.898438-1.800781 7.199219-1.800781 11.398438 0 6.601562 1.199219 12.601562 2.996094 18.601562l-20.996094 15 39 15c24.902344 26.101562 39 61 39 97.300781zm0 0" fill="#d3d3d8"/><path d="m345.398438 121c-.898438 1.199219-1.5 2.398438-2.398438 3.300781-5.699219 6.597657-8.699219 16.199219-10.199219 26.699219h-93c-2.101562-10.199219-6.601562-20.398438-13.800781-30zm0 0" fill="#ff641a"/><path d="m352 211h-132l1.800781-1.800781c7.800781-8.101563 13.199219-17.699219 16.199219-28.199219h96c3 10.5 8.402344 20.097656 16.199219 28.199219zm0 0" fill="#ff641a"/><path d="m332.800781 151h-46.800781v-30h59.398438c-.898438 1.199219-1.5 2.398438-2.398438 3.300781-5.699219 6.597657-8.699219 16.199219-10.199219 26.699219zm0 0" fill="#f03800"/><path d="m352 211h-66v-30h48c3 10.5 8.398438 20.097656 16.199219 28.199219zm0 0" fill="#f03800"/><path d="m391 272c-66.300781 0-120 53.699219-120 120s53.699219 120 120 120 121-53.699219 121-120-54.699219-120-121-120zm0 0" fill="#7c8388"/><path d="m512 392c0 66.300781-54.699219 120-121 120v-240c66.300781 0 121 53.699219 121 120zm0 0" fill="#575f64"/><g fill="#292929"><path d="m421 392h30v30h-30zm0 0"/><path d="m391 362h30v30h-30zm0 0"/><path d="m391 422h30v30h-30zm0 0"/></g></svg>