<?xml version="1.0" encoding="utf-8"?>
<svg id="master-artboard" viewBox="0 0 1400 980" version="1.1" xmlns="http://www.w3.org/2000/svg" x="0px" y="0px" style="enable-background:new 0 0 1400 980;" width="1400px" height="980px">

<path d="M 0 0 H 1400 V 980 H 0 V 0 Z" class="st0" style="fill: rgb(250, 203, 180);"/>
<g>
	<g>
		<g>
			<path class="st1" d="M416.4,370.1c-1.8,12.1-6.4,32.5-18.4,54.2c-5,9-9.7,16.1-13.8,22.5c-10.9,16.7-13.8,21.8-8.8,30.5l8.8,8.6&#10;&#9;&#9;&#9;&#9;l53.6-56.9c0.1-0.2,0.1-0.4,0.2-0.6c7.6-18.2,8.3-32.5,2.1-42.7C434.4,376.3,423.5,372,416.4,370.1z" style="fill: rgb(219, 83, 38);"/>
		</g>
		<g>
			<path class="st1" d="M446.7,427.7l-64.6,68.5c-0.2,0.2-0.4,0.4-0.6,0.6c-1,0.8-23.8,20.9-11.8,37.2l13.5,10.7l65.7-53.7&#10;&#9;&#9;&#9;&#9;c6.6-6.7,21.8-26.4,17.1-40.7C462,438.3,452.6,431.2,446.7,427.7z" style="fill: rgb(219, 83, 38);"/>
		</g>
		<g>
			<path class="st1" d="M385.1,345.3c-14.3,0.3-22.8,13.3-25.5,18.1c0.6,8.5,4.3,40.4,25.9,64.6c16.5-30.6,28-50.7,28.5-57.9&#10;&#9;&#9;&#9;&#9;C411.4,364.2,396.4,345.3,385.1,345.3z" style="fill: rgb(219, 83, 38);"/>
		</g>
		<g>
			<path class="st1" d="M465.1,530.9c0.3-19.5-7.4-29.6-12.3-34.1l-66.4,54.2c0,0,0,0,0,0l-5,4.1c-0.1,0.1-0.3,0.2-0.4,0.3&#10;&#9;&#9;&#9;&#9;c-4.2,3-15.5,13.1-17.1,23.7c-0.7,4.5,0.5,8.7,3.5,12.9c0.6,0.8,1,1.6,1.2,2.5c3.1,0.3,6.2,0.4,9.3,0.4&#10;&#9;&#9;&#9;&#9;C412.6,594.8,464.6,568,465.1,530.9z" style="fill: rgb(219, 83, 38);"/>
		</g>
		<g>
			<path class="st1" d="M331.1,433.5l33.3,32.6c2.3-7.4,7-14.7,12.3-22.7c1.8-2.7,3.7-5.7,5.7-8.8c-20.2-20.1-26.5-46-28.5-60&#10;&#9;&#9;&#9;&#9;c-8.4,3.1-14.6,8-18.8,14.9C326.1,404.5,329.1,424.7,331.1,433.5z" style="fill: rgb(219, 83, 38);"/>
		</g>
		<g>
			<path class="st1" d="M358.8,592.3c-0.7-3.6-0.8-7.4-0.2-11.2c2.4-15,14.9-27,20.7-31.8l-54.7-43.6c-8.3,1.9-12.3,7.5-14.2,12.1&#10;&#9;&#9;&#9;&#9;c-5,12.1-1.1,29,9.9,43C332.6,576.5,348.1,586.6,358.8,592.3z" style="fill: rgb(219, 83, 38);"/>
		</g>
		<g>
			<path class="st1" d="M325.8,498.9l32.3,25.7c2.1-14.1,12.3-26.9,20.1-33.8l1.3-1.4l-9.7-9.5c0,0,0,0,0,0l-44.7-43.8&#10;&#9;&#9;&#9;&#9;c-10.4,6.9-16.2,14.9-17.1,23.9C306.5,474.8,318.1,490.6,325.8,498.9z" style="fill: rgb(219, 83, 38);"/>
		</g>
	</g>
	<g>
		<g>
			<path class="st2" d="M384.2,491c-1.3,0-2.6-0.5-3.5-1.4l-8.8-8.6c-0.3-0.3-0.6-0.7-0.9-1.1c-6.7-11.8-1.5-19.8,9-35.7&#10;&#9;&#9;&#9;&#9;c4.1-6.3,8.7-13.3,13.6-22.2c11.4-20.6,16-39.9,17.8-52.5c0.2-1.4,1-2.7,2.2-3.5c1.2-0.8,2.7-1,4.1-0.7&#10;&#9;&#9;&#9;&#9;c8.7,2.2,20.4,7.2,26.8,17.9c7,11.6,6.4,27.5-1.8,47.2c0,0.1-0.1,0.2-0.1,0.2c-0.2,0.7-0.6,1.4-1.1,1.9l-53.6,56.9&#10;&#9;&#9;&#9;&#9;c-0.9,1-2.2,1.6-3.6,1.6C384.3,491,384.2,491,384.2,491z M379.5,474.2l4.6,4.5l49.4-52.4c6.9-16.5,7.7-29.3,2.4-38&#10;&#9;&#9;&#9;&#9;c-3.6-6-10.1-9.6-15.5-11.6c-2.4,13.2-7.5,31.1-18,50.1c-5.1,9.1-9.8,16.4-14,22.8C377.8,465.9,376.6,468.8,379.5,474.2z" style="fill: rgb(109, 58, 41);"/>
		</g>
		<g>
			<path class="st2" d="M383.1,549.8c-1.1,0-2.2-0.4-3.1-1.1l-13.5-10.7c-0.3-0.3-0.7-0.6-0.9-0.9c-11.8-15.9,2.3-35.1,12.5-44&#10;&#9;&#9;&#9;&#9;c0.1-0.1,0.2-0.1,0.2-0.2l64.6-68.6c1.6-1.7,4.2-2.1,6.2-0.9c6.1,3.5,16.9,11.6,21.6,25.4c6.7,20-17.3,44.7-18.3,45.8&#10;&#9;&#9;&#9;&#9;c-0.1,0.1-0.3,0.3-0.4,0.4l-65.7,53.7C385.4,549.4,384.3,549.8,383.1,549.8z M373.4,530.5l9.7,7.8l62.4-50.9&#10;&#9;&#9;&#9;&#9;c8-8.3,19.2-25,15.7-35.3c-2.9-8.6-8.9-14.3-13.7-17.8l-61.7,65.5c-0.3,0.3-0.6,0.6-1,1c-0.2,0.2-5.7,5-9.7,11.6&#10;&#9;&#9;&#9;&#9;C368.8,522.6,371.8,528.2,373.4,530.5z" style="fill: rgb(109, 58, 41);"/>
		</g>
		<g>
			<path class="st2" d="M385.5,433.1c-1.4,0-2.8-0.6-3.8-1.7c-22.5-25.2-26.5-58.1-27.2-67.6c-0.1-1,0.1-2,0.6-2.8&#10;&#9;&#9;&#9;&#9;c3.4-6.1,13.1-20.4,29.8-20.7c13.9,0,30.8,18,34,25.4c0.3,0.7,0.5,1.5,0.4,2.3c-0.5,7.2-8.7,36.9-29.9,63.3&#10;&#9;&#9;&#9;&#9;c-0.9,1.2-2.3,1.8-3.8,1.9C385.6,433.1,385.5,433.1,385.5,433.1z M364.7,364.6c0.9,9.5,4.6,34.5,20.6,55.3&#10;&#9;&#9;&#9;&#9;c15.7-21.6,22.7-44.4,23.8-51.4c-3.4-5.9-16.2-18.2-24.1-18.2C374.5,350.6,367.5,360.1,364.7,364.6z" style="fill: rgb(109, 58, 41);"/>
		</g>
		<g>
			<path class="st2" d="M377.7,599.9c-3.1,0-6.4-0.2-9.7-0.5c-2.1-0.2-3.8-1.6-4.4-3.6c-0.1-0.3-0.3-0.6-0.4-0.9&#10;&#9;&#9;&#9;&#9;c-3.9-5.2-5.4-10.8-4.5-16.7c2.3-14.7,19-26.9,19.2-27c0.1,0,0.1-0.1,0.2-0.1l5.1-4.1c0,0,0.1-0.1,0.1-0.1l66.3-54.1&#10;&#9;&#9;&#9;&#9;c1.9-1.6,4.8-1.5,6.6,0.2c5.3,4.9,14.3,16.3,14,37.9c-0.2,18.5-12,36.3-33.1,50.1C419.2,592.6,396.5,599.9,377.7,599.9z&#10;&#9;&#9;&#9;&#9; M371.8,589.6c2,0.1,4,0.2,6,0.2c32.1,0,81.9-25.3,82.3-59c0.2-13.8-4-22.3-7.8-27.2l-62.7,51.2c0,0-0.1,0.1-0.1,0.1l-5,4.1&#10;&#9;&#9;&#9;&#9;c-0.2,0.2-0.4,0.3-0.7,0.5c-4.4,3.1-13.8,12.2-15.1,20.3c-0.5,3.2,0.3,6,2.6,9.1C371.5,589.1,371.6,589.3,371.8,589.6z" style="fill: rgb(109, 58, 41);"/>
		</g>
		<g>
			<path class="st2" d="M364.4,471.1c-1.3,0-2.6-0.5-3.5-1.4l-33.3-32.6c-0.7-0.7-1.2-1.6-1.4-2.5c-5.6-25.4,0.5-40.8,4.6-47.7&#10;&#9;&#9;&#9;&#9;c4.7-7.9,11.9-13.6,21.4-17.1c1.4-0.5,3-0.4,4.3,0.4c1.3,0.8,2.2,2.1,2.4,3.6c1.8,13.2,7.8,38.1,27,57.2c1.7,1.7,2,4.3,0.7,6.3&#10;&#9;&#9;&#9;&#9;c-1.9,3.1-3.8,6-5.7,8.9c-5.2,7.9-9.6,14.7-11.7,21.5c-0.5,1.7-1.9,3-3.6,3.4C365.2,471.1,364.8,471.1,364.4,471.1z M335.7,430.9&#10;&#9;&#9;&#9;&#9;l26.8,26.3c2.7-5.5,6.2-11,10-16.6c1.2-1.8,2.3-3.6,3.5-5.4c-16.3-17.7-23.1-39-26-53.4c-4.5,2.5-8,5.9-10.6,10.2&#10;&#9;&#9;&#9;&#9;C331.8,404.8,334,422.6,335.7,430.9z" style="fill: rgb(109, 58, 41);"/>
		</g>
		<g>
			<path class="st2" d="M358.8,597.4c-0.8,0-1.6-0.2-2.4-0.6c-11.2-5.9-27.2-16.5-40.1-32.8c-12.1-15.4-16.3-34.3-10.7-48.1&#10;&#9;&#9;&#9;&#9;c3.2-7.9,9.5-13.2,17.7-15.1c1.5-0.3,3.1,0,4.2,1l54.7,43.6c1.2,0.9,1.9,2.4,1.9,3.9c0,1.5-0.7,3-1.8,3.9&#10;&#9;&#9;&#9;&#9;c-5,4.1-16.8,15.2-18.9,28.7c-0.5,3.2-0.5,6.4,0.2,9.4c0.4,1.9-0.4,3.9-1.9,5C360.9,597,359.8,597.4,358.8,597.4z M323.4,511.3&#10;&#9;&#9;&#9;&#9;c-3.9,1.5-6.7,4.3-8.4,8.4c-2,5-2.3,11.1-0.8,17.8c1.6,6.9,5.1,13.9,10,20.2c9,11.5,19.8,19.8,29,25.6c0.1-1,0.2-2,0.4-3&#10;&#9;&#9;&#9;&#9;c2.1-13.2,10.7-24,17.8-30.8L323.4,511.3z" style="fill: rgb(109, 58, 41);"/>
		</g>
		<g>
			<path class="st2" d="M358.1,529.7c-1.1,0-2.2-0.4-3.1-1.1l-32.3-25.7c-0.2-0.2-0.4-0.3-0.5-0.5c-6.4-6.8-20.9-24.6-19.1-42.8&#10;&#9;&#9;&#9;&#9;c1.1-10.5,7.6-19.8,19.3-27.6c2-1.3,4.6-1.1,6.3,0.6l54.4,53.3c2,1.9,2,5.1,0.1,7.1l-1.3,1.4c-0.1,0.1-0.2,0.2-0.4,0.3&#10;&#9;&#9;&#9;&#9;c-7.4,6.4-16.6,18.3-18.5,30.7c-0.3,1.8-1.5,3.3-3.1,4C359.3,529.6,358.7,529.7,358.1,529.7z M329.2,495.2l25.8,20.6&#10;&#9;&#9;&#9;&#9;c3.6-10.5,10.5-19.8,17.2-26.3l-47.7-46.7c-7,5.4-10.9,11.4-11.6,17.8C311.9,472,320.6,485.9,329.2,495.2z" style="fill: rgb(109, 58, 41);"/>
		</g>
	</g>
</g>
<g>
	<g>
		<g>
			<path class="st1" d="M1147.5,221.6c0,0,24.9-19.2,6.7-50.3c-18.1-31.1-90.2-30.6-108.3,25.1c-18.1,55.7,39.9,110.1,124.9,95.1&#10;&#9;&#9;&#9;&#9;c85-15,91.2-121.8,24.9-134.7l-42.5-36.3c0,0,59.4-13.7,96.4,19.2c48.3,43,49,141.6-39.9,177.2c-69.4,27.8-163.7,6.7-193.8-56.5&#10;&#9;&#9;&#9;&#9;c-30.1-63.2,4.1-166.9,132.7-140.4l47.7,45.1c0,0,19.7,46.6-17.6,74.6C1178.6,239.7,1159.9,239.2,1147.5,221.6z" style="fill: rgb(219, 83, 38);"/>
		</g>
	</g>
	<g>
		<g>
			<path class="st1" d="M1093.2,152.7c0,0-15.2,25.4-8.9,58.5c6.2,33.2,42.7,61.1,84.5,62.2c0,0,25.9-5.7,9.8-33.7&#10;&#9;&#9;&#9;&#9;c0,0-44.6-17.1-54.4-40.9c-9.8-23.8,16.1-36.8,16.1-36.8S1128,145.9,1093.2,152.7z" style="fill: rgb(219, 83, 38);"/>
		</g>
	</g>
	<g>
		<g>
			<path class="st1" d="M1099.1,241.2c0,0-7.6,19.8,3.3,30.2c10.9,10.4,37.9-2.9,37.9-2.9L1099.1,241.2z" style="fill: rgb(219, 83, 38);"/>
		</g>
	</g>
	<g>
		<g>
			<path class="st2" d="M1145.1,334.1c-60.7,0-113.3-28-133.9-71.5c-16.1-33.8-14-75.5,5.4-106.1c18.7-29.6,51.8-46,93.1-46&#10;&#9;&#9;&#9;&#9;c12.5,0,25.9,1.5,39.9,4.3c0.6,0.1,1.3,0.4,1.8,0.7c0.2-0.1,0.4-0.1,0.7-0.2c0.5-0.1,13.1-3,30.3-3c20.3,0,49,4,70.7,23.3&#10;&#9;&#9;&#9;&#9;c26.3,23.4,39.1,62.4,32.6,99.4c-6.9,39.4-33.2,70.1-74,86.4C1191.3,329.8,1168.4,334.1,1145.1,334.1z M1109.7,120.9&#10;&#9;&#9;&#9;&#9;c-48.2,0-72.5,22.4-84.4,41.2c-17.5,27.7-19.4,65.4-4.8,96.1c18.9,39.8,67.8,65.6,124.6,65.6c0,0,0,0,0,0c22,0,43.6-4,62.6-11.7&#10;&#9;&#9;&#9;&#9;c37.4-15,61.5-42.9,67.7-78.6c5.9-33.6-5.6-68.9-29.3-89.9c-19.2-17.1-45.3-20.7-63.8-20.7c-6.7,0-12.6,0.5-17.3,1l33,28.1&#10;&#9;&#9;&#9;&#9;c29.3,6.3,48,30.8,47.7,62.8c-0.2,18.3-6.8,36.4-18.7,50.8c-13.4,16.2-32.5,27-55.3,31c-9.8,1.7-19.6,2.6-29,2.6&#10;&#9;&#9;&#9;&#9;c-38.8,0-72.9-15.2-91.4-40.6c-13.8-19.1-17.5-41.7-10.3-63.8c11.9-36.5,44.7-49.4,69.2-49.4c21.5,0,40.1,8.9,48.5,23.3&#10;&#9;&#9;&#9;&#9;c14.1,24.2,4.9,43.8-4.2,53.4c8.4,9.4,18.5,11.7,22.5,12.2c12.9-10.4,19.4-24.5,19.2-42c-0.1-11.7-3.3-21.3-4.4-24.3l-45.7-43.3&#10;&#9;&#9;&#9;&#9;C1133.3,122.2,1121,120.9,1109.7,120.9z M1110.2,155.8c-22.1,0-49.2,11.1-59.4,42.3c-6.1,18.8-3,38.2,8.9,54.5&#10;&#9;&#9;&#9;&#9;c16.5,22.8,47.6,36.3,83,36.3c8.8,0,18-0.8,27.2-2.5c20.4-3.6,37.4-13.1,49.1-27.4c10.4-12.6,16.2-28.4,16.4-44.4&#10;&#9;&#9;&#9;&#9;c0.2-24.8-13-44.2-34.3-51.1c1,2.5,5.1,13.8,5.4,28.3c0.4,21.6-8.2,39.5-24.9,52c-0.9,0.7-2.1,1.1-3.2,1&#10;&#9;&#9;&#9;&#9;c-0.9,0-21.4-0.8-35.2-20.3c-1.6-2.3-1.1-5.4,1.1-7.1c0.8-0.7,21-16.9,5.4-43.6C1143.3,162.9,1127.8,155.8,1110.2,155.8z" style="fill: rgb(109, 58, 41);"/>
		</g>
	</g>
	<g>
		<g>
			<path class="st2" d="M1168.7,278.6c0,0-0.1,0-0.1,0c-43.4-1.1-82.6-30.3-89.4-66.4c-6.5-34.7,8.9-61,9.6-62.1&#10;&#9;&#9;&#9;&#9;c0.8-1.3,2-2.1,3.5-2.4c6-1.2,11.7-1.7,17.1-1.7c24.9,0,34.6,12.5,35,13c0.9,1.2,1.3,2.8,0.9,4.3c-0.3,1.5-1.3,2.8-2.7,3.5&#10;&#9;&#9;&#9;&#9;c-0.9,0.4-21.5,11.2-13.6,30.2c7.4,17.9,39.7,33.5,51.5,38.1c1.1,0.4,2,1.2,2.6,2.3c6.1,10.7,7.5,20,4.1,27.7&#10;&#9;&#9;&#9;&#9;c-4.7,10.7-16.8,13.4-17.4,13.6C1169.5,278.5,1169.1,278.6,1168.7,278.6z M1096.6,157.3c-3.2,6.4-12,27.3-7.2,52.9&#10;&#9;&#9;&#9;&#9;c5.9,31.3,40.4,56.6,78.8,57.9c1.8-0.5,7.5-2.6,9.6-7.6c2.2-5.1-0.1-11.7-2.8-16.8c-8.7-3.6-46-20-55.6-43.1&#10;&#9;&#9;&#9;&#9;c-7.5-18.1,2.5-32,12.1-39.3c-4.1-2.5-11.2-5.2-22.2-5.2C1105.3,156.2,1101,156.6,1096.6,157.3z" style="fill: rgb(109, 58, 41);"/>
		</g>
	</g>
	<g>
		<g>
			<path class="st2" d="M1114.4,280.4L1114.4,280.4c-6.6,0-11.8-1.8-15.6-5.4c-13.2-12.6-4.9-34.8-4.6-35.7c0.6-1.5,1.8-2.6,3.2-3.1&#10;&#9;&#9;&#9;&#9;c1.5-0.5,3.1-0.3,4.4,0.6l41.2,27.2c1.5,1,2.4,2.8,2.3,4.6c-0.1,1.8-1.2,3.5-2.9,4.3C1141.9,273.3,1127.3,280.4,1114.4,280.4z&#10;&#9;&#9;&#9;&#9; M1102.2,249.4c-1,5.6-1.2,13.4,3.7,18.1c1.8,1.7,4.6,2.5,8.4,2.5c4.9,0,10.4-1.4,14.8-2.8L1102.2,249.4z" style="fill: rgb(109, 58, 41);"/>
		</g>
	</g>
</g>
<g>
	<g>
		<g>
			<path class="st1" d="M1162.1,659.8c-58.7,0-106.4,47.6-106.4,106.4c0,58.7,47.6,106.4,106.4,106.4s106.4-47.6,106.4-106.4&#10;&#9;&#9;&#9;&#9;C1268.4,707.4,1220.8,659.8,1162.1,659.8z M1162.1,798.5c-17.8,0-32.3-14.5-32.3-32.3c0-17.8,14.5-32.3,32.3-32.3&#10;&#9;&#9;&#9;&#9;s32.3,14.5,32.3,32.3C1194.4,784,1179.9,798.5,1162.1,798.5z" style="fill: rgb(219, 83, 38);"/>
		</g>
	</g>
	<g>
		<g>
			<path class="st2" d="M1162.1,877c-61.1,0-110.9-49.7-110.9-110.9s49.7-110.9,110.9-110.9c61.1,0,110.9,49.7,110.9,110.9&#10;&#9;&#9;&#9;&#9;S1223.2,877,1162.1,877z M1162.1,664.3c-56.2,0-101.9,45.7-101.9,101.9c0,56.2,45.7,101.9,101.9,101.9&#10;&#9;&#9;&#9;&#9;c56.2,0,101.9-45.7,101.9-101.9C1263.9,710,1218.3,664.3,1162.1,664.3z M1162.1,803c-20.3,0-36.8-16.5-36.8-36.8&#10;&#9;&#9;&#9;&#9;c0-20.3,16.5-36.8,36.8-36.8c20.3,0,36.8,16.5,36.8,36.8C1198.9,786.4,1182.4,803,1162.1,803z M1162.1,738.3&#10;&#9;&#9;&#9;&#9;c-15.3,0-27.8,12.5-27.8,27.8c0,15.3,12.5,27.8,27.8,27.8c15.3,0,27.8-12.5,27.8-27.8C1189.9,750.8,1177.4,738.3,1162.1,738.3z" style="fill: rgb(109, 58, 41);"/>
		</g>
	</g>
	<g>
		<g>
			<g>
				<path class="st2" d="M1096.9,831.5c9.6,1.1,27.3-12,53.6-35.2c-4.1-1.6-7.9-4-11-7c-15.7,13.7-30.5,25.7-38.1,29&#10;&#9;&#9;&#9;&#9;&#9;c3.4-7.7,16.7-23.1,31.2-38.7c-1.9-4.1-2.9-8.6-2.9-13.4c0-0.6,0.1-1.2,0.1-1.8c-33.9,36-46.7,53.2-39.9,63.1&#10;&#9;&#9;&#9;&#9;&#9;C1091.5,829.7,1094,831.2,1096.9,831.5z" style="fill: rgb(109, 58, 41);"/>
			</g>
		</g>
		<g>
			<g>
				<path class="st2" d="M1256.1,769.6c-0.5-2.7-2.3-4.8-4.8-5.7c-6.2-2.2-12.6,2.6-39.5,25.7c-14.3,12.3-42.9,36.8-53.3,39.4&#10;&#9;&#9;&#9;&#9;&#9;c3.7-10.7,29.2-40.2,44.9-58.4c33.3-38.6,40.7-48.4,36.3-55.9c-1.1-1.9-3.1-3.2-5.3-3.6c-6.5-1-16.1,6.5-47.1,34.8&#10;&#9;&#9;&#9;&#9;&#9;c2.7,3.4,4.7,7.3,5.9,11.5c7.3-6.7,14.7-13.4,21.2-19.1c-6.3,7.7-13.8,16.4-20.3,23.9c0.2,1.3,0.3,2.6,0.3,3.9&#10;&#9;&#9;&#9;&#9;&#9;c0,17.2-13.5,31.3-30.5,32.2c-13.3,16.9-19.3,27.6-18.2,34.7c0.5,2.9,2,5.4,4.5,6.9c12,7.4,34.3-10.5,69.8-40.9&#10;&#9;&#9;&#9;&#9;&#9;c4.8-4.1,10-8.6,14.8-12.5c-10.2,13.5-27.3,33-43.4,49.7c-2.4,2.5-2.3,6.4,0.2,8.8c1.2,1.2,2.8,1.7,4.3,1.7&#10;&#9;&#9;&#9;&#9;&#9;c1.6,0,3.3-0.6,4.5-1.9C1227,817.2,1258.4,781.6,1256.1,769.6z" style="fill: rgb(109, 58, 41);"/>
			</g>
		</g>
		<g>
			<g>
				<path class="st2" d="M1195.6,691.8c-5.6,9-21.6,26.3-36.7,42.2c1.1-0.1,2.2-0.2,3.3-0.2c4.2,0,8.2,0.8,11.9,2.3&#10;&#9;&#9;&#9;&#9;&#9;c26.2-27.8,37.1-41.5,36-50.1c-0.3-2.8-1.8-5.1-4.1-6.5c-10.4-6.5-28.4,7.2-69.8,42.4c-19.2,16.3-47.7,40.4-57.2,42.4&#10;&#9;&#9;&#9;&#9;&#9;c1.9-11.3,37.1-51,79.7-89.7c2.6-2.3,2.8-6.3,0.4-8.8c-2.3-2.6-6.3-2.8-8.8-0.4c-13.9,12.6-83.3,76.6-83.9,99.8&#10;&#9;&#9;&#9;&#9;&#9;c-0.1,4.4,1.7,7.1,3.2,8.6c10.7,10.8,33-7.2,74.6-42.5C1160.7,717.4,1184.4,697.2,1195.6,691.8z" style="fill: rgb(109, 58, 41);"/>
			</g>
		</g>
	</g>
</g>
<g>
	<g>
		<g>
			<path class="st1" d="M824.7,710.2L824.7,710.2L824.7,710.2C824.7,710.2,824.7,710.2,824.7,710.2L824.7,710.2&#10;&#9;&#9;&#9;&#9;c-29.3,0-53,11-49.5,41.3c3.5,30.3,32.5,46.7,49.5,46.7c17,0,46-16.4,49.5-46.7C877.6,721.2,854,710.2,824.7,710.2z" style="fill: rgb(219, 83, 38);"/>
		</g>
	</g>
	<g>
		<g>
			<path class="st1" d="M778.1,730.6c0,0-34.5,10.5-44.2,31c0,0-4.7,8.8,0,18.3c4.7,9.5,13.2,26.2,13.2,26.2s8.8,12,23.6,6.6&#10;&#9;&#9;&#9;&#9;c14.8-5.4,34.1-20,34.1-20S762.4,769.5,778.1,730.6z" style="fill: rgb(219, 83, 38);"/>
		</g>
	</g>
	<g>
		<g>
			<path class="st1" d="M707.1,835.1c0,0-10.4-8.5,1.3-25.2c11.7-16.7,26.7-27.6,26.7-27.6l13,26.4&#10;&#9;&#9;&#9;&#9;C748,808.7,721.9,848.3,707.1,835.1z" style="fill: rgb(219, 83, 38);"/>
		</g>
	</g>
	<g>
		<g>
			<path class="st1" d="M872.7,728.7c0,0,34.5,10.5,44.2,31c0,0,4.7,8.8,0,18.3c-4.7,9.5-13.2,26.2-13.2,26.2s-8.8,12-23.6,6.6&#10;&#9;&#9;&#9;&#9;c-14.8-5.4-34.1-20-34.1-20S888.4,767.7,872.7,728.7z" style="fill: rgb(219, 83, 38);"/>
		</g>
	</g>
	<g>
		<g>
			<path class="st1" d="M943.7,833.2c0,0,10.4-8.5-1.3-25.2c-11.7-16.7-26.7-27.6-26.7-27.6l-13,26.4&#10;&#9;&#9;&#9;&#9;C902.7,806.8,928.9,846.4,943.7,833.2z" style="fill: rgb(219, 83, 38);"/>
		</g>
	</g>
	<g>
		<g>
			<path class="st2" d="M824.7,802.7c-10.2,0-22.7-5-32.6-13c-12.1-9.7-19.7-23.1-21.3-37.7c-1.4-12.6,1.4-23,8.4-30.9&#10;&#9;&#9;&#9;&#9;c9-10.1,24.8-15.5,45.6-15.5c20.8,0,36.6,5.3,45.6,15.5c7,7.8,9.8,18.2,8.4,30.9c-1.7,14.6-9.2,28-21.3,37.7&#10;&#9;&#9;&#9;&#9;C847.3,797.7,834.8,802.7,824.7,802.7z M824.7,714.7c-12.7,0-29.7,2.2-38.9,12.4c-5.2,5.8-7.3,13.9-6.1,23.8&#10;&#9;&#9;&#9;&#9;c3.3,28.4,30.6,42.7,45,42.7s41.8-14.3,45-42.7c1.1-10-0.9-18-6.1-23.8C854.4,716.9,837.3,714.7,824.7,714.7z" style="fill: rgb(109, 58, 41);"/>
		</g>
	</g>
	<g>
		<g>
			<path class="st2" d="M763.2,818.6C763.2,818.6,763.2,818.6,763.2,818.6c-12.4,0-19.5-9.4-19.8-9.8c-0.1-0.2-0.3-0.4-0.4-0.6&#10;&#9;&#9;&#9;&#9;c-0.1-0.2-8.6-16.8-13.3-26.2c-5.4-10.9-0.7-21,0-22.3c10.5-22,45.5-32.9,46.9-33.3c1.7-0.5,3.5,0,4.6,1.3&#10;&#9;&#9;&#9;&#9;c1.2,1.3,1.5,3.1,0.9,4.7c-5.8,14.5-3.5,28.4,6.8,41.2c8,9.9,17.8,15.3,17.9,15.3c1.3,0.7,2.2,2.1,2.3,3.6c0.1,1.5-0.6,3-1.8,3.9&#10;&#9;&#9;&#9;&#9;c-0.8,0.6-20,15.1-35.3,20.6C769.2,818,766.2,818.6,763.2,818.6z M750.9,803.6c0.9,1.1,5.4,5.9,12.3,5.9c1.9,0,3.9-0.4,6-1.1&#10;&#9;&#9;&#9;&#9;c9.5-3.4,21.1-11,27.7-15.6c-4.1-2.9-9.7-7.6-14.8-13.8c-10.3-12.6-14-26.7-11-41.1c-10.3,4.3-27.2,13-33.2,25.6&#10;&#9;&#9;&#9;&#9;c0,0.1-0.1,0.1-0.1,0.2c-0.1,0.3-3.5,7,0.1,14.2C742.1,786.4,749.6,801,750.9,803.6z" style="fill: rgb(109, 58, 41);"/>
		</g>
	</g>
	<g>
		<g>
			<path class="st2" d="M714,842.3c-3.7,0-7.1-1.3-9.9-3.8c-0.7-0.6-3.7-3.5-5.1-8.6c-1.3-4.8-1.4-12.6,5.7-22.6&#10;&#9;&#9;&#9;&#9;c12-17.1,27.2-28.2,27.8-28.6c1.1-0.8,2.4-1,3.7-0.7c1.3,0.3,2.4,1.2,2.9,2.4l13,26.4c0.7,1.4,0.6,3.1-0.3,4.5&#10;&#9;&#9;&#9;&#9;C749.7,814.3,730.8,842.3,714,842.3z M733.5,789.3c-5.1,4.3-14.1,12.5-21.5,23.1c-8.8,12.6-2.8,18.6-2,19.2c0.1,0,0,0,0.1,0.1&#10;&#9;&#9;&#9;&#9;c1.2,1.1,2.4,1.6,4,1.6c4.7,0,11.5-4.6,19.3-13.1c4.2-4.6,7.7-9.3,9.6-11.9L733.5,789.3z" style="fill: rgb(109, 58, 41);"/>
		</g>
	</g>
	<g>
		<g>
			<path class="st2" d="M887.5,816.7c-3,0-6-0.6-9-1.6c-15.3-5.5-34.5-20-35.3-20.6c-1.2-0.9-1.9-2.4-1.8-3.9c0.1-1.5,1-2.9,2.3-3.6&#10;&#9;&#9;&#9;&#9;c1.6-0.9,38.7-21.7,24.7-56.5c-0.6-1.6-0.3-3.4,0.9-4.7c1.2-1.3,3-1.8,4.6-1.3c1.5,0.5,36.4,11.3,46.9,33.3&#10;&#9;&#9;&#9;&#9;c0.7,1.3,5.4,11.4,0,22.3c-4.7,9.4-13.2,26-13.3,26.2c-0.1,0.2-0.2,0.4-0.4,0.6C907,807.2,899.9,816.7,887.5,816.7z M853.9,791&#10;&#9;&#9;&#9;&#9;c6.6,4.6,18.2,12.1,27.7,15.6c2,0.7,4,1.1,6,1.1c6.9,0,11.4-4.8,12.3-5.9c1.3-2.6,8.8-17.2,13-25.7c3.6-7.2,0.1-14.1,0.1-14.1&#10;&#9;&#9;&#9;&#9;c0-0.1-0.1-0.1-0.1-0.2c-6-12.6-22.9-21.3-33.2-25.6c3,14.4-0.7,28.5-11,41.1C863.6,783.4,858,788,853.9,791z" style="fill: rgb(109, 58, 41);"/>
		</g>
	</g>
	<g>
		<g>
			<path class="st2" d="M936.8,840.4L936.8,840.4c-16.8,0-35.7-27.9-37.8-31.1c-0.9-1.3-1-3-0.3-4.5l13-26.4&#10;&#9;&#9;&#9;&#9;c0.6-1.2,1.7-2.1,2.9-2.4c1.3-0.3,2.6-0.1,3.7,0.7c0.6,0.5,15.8,11.5,27.8,28.6c7,10.1,7,17.9,5.7,22.6c-1.4,5.1-4.4,8-5.1,8.6&#10;&#9;&#9;&#9;&#9;C943.8,839.1,940.5,840.4,936.8,840.4z M907.9,806.4c7.3,10.4,20.4,25,28.8,25l0,0c1.5,0,2.8-0.5,4-1.6c0,0,0.1-0.1,0.1-0.1&#10;&#9;&#9;&#9;&#9;c0.7-0.6,6.7-6.5-2.1-19.2c-7.4-10.6-16.3-18.8-21.5-23.1L907.9,806.4z" style="fill: rgb(109, 58, 41);"/>
		</g>
	</g>
</g>
<g>
	<g>
		<g>
			<path d="M 376.100006 229.699997 A 120.5 120.5 0 0 1 255.600006 350.199997 A 120.5 120.5 0 0 1 135.100006 229.699997 A 120.5 120.5 0 0 1 255.600006 109.199997 A 120.5 120.5 0 0 1 376.100006 229.699997 Z" class="st1" style="fill: rgb(219, 83, 38);"/>
		</g>
	</g>
	<g>
		<g>
			<g>
				<path class="st2" d="M255.6,354.7c-68.9,0-125-56.1-125-125c0-68.9,56.1-125,125-125s125,56.1,125,125&#10;&#9;&#9;&#9;&#9;&#9;C380.7,298.6,324.6,354.7,255.6,354.7z M255.6,113.6c-64,0-116,52-116,116c0,64,52,116,116,116s116-52,116-116&#10;&#9;&#9;&#9;&#9;&#9;C371.7,165.7,319.6,113.6,255.6,113.6z" style="fill: rgb(109, 58, 41);"/>
			</g>
		</g>
	</g>
	<g>
		<g>
			<path class="st2" d="M170.2,256.8c-1.6,0-3.1-0.5-4.5-1.6c-3-2.5-3.5-6.9-1-10c2.2-2.8,55.8-67.7,151.5-86.3&#10;&#9;&#9;&#9;&#9;c3.9-0.7,7.6,1.8,8.3,5.6c0.7,3.8-1.8,7.6-5.6,8.3c-90.7,17.6-142.7,80.6-143.2,81.3C174.3,255.9,172.2,256.8,170.2,256.8z" style="fill: rgb(109, 58, 41);"/>
		</g>
	</g>
	<g>
		<g>
			<path class="st2" d="M200.5,305.8c-1.6,0-3.1-0.5-4.5-1.6c-3-2.5-3.5-6.9-1-10c2.2-2.8,55.8-67.7,151.5-86.3&#10;&#9;&#9;&#9;&#9;c3.8-0.8,7.6,1.8,8.3,5.6c0.7,3.8-1.8,7.6-5.6,8.3c-90.7,17.6-142.7,80.6-143.2,81.3C204.6,304.9,202.6,305.8,200.5,305.8z" style="fill: rgb(109, 58, 41);"/>
		</g>
	</g>
	<g>
		<g>
			<path class="st2" d="M325.4,297.9c-3.3,0-6.3-2.3-6.9-5.7c-17.6-90.7-80.6-142.7-81.3-143.2c-3-2.5-3.5-6.9-1-10&#10;&#9;&#9;&#9;&#9;c2.5-3,6.9-3.5,10-1c2.8,2.2,67.7,55.8,86.3,151.5c0.7,3.8-1.8,7.6-5.6,8.3C326.3,297.9,325.9,297.9,325.4,297.9z" style="fill: rgb(109, 58, 41);"/>
		</g>
	</g>
	<g>
		<g>
			<path class="st2" d="M276.4,328.3c-3.3,0-6.3-2.3-6.9-5.7c-17.6-90.7-80.6-142.7-81.3-143.2c-3-2.5-3.5-6.9-1-10&#10;&#9;&#9;&#9;&#9;c2.5-3,6.9-3.5,10-1c2.8,2.2,67.7,55.8,86.3,151.5c0.7,3.8-1.8,7.6-5.6,8.3C277.3,328.2,276.9,328.3,276.4,328.3z" style="fill: rgb(109, 58, 41);"/>
		</g>
	</g>
</g>
<g>
	<g>
		<g>
			<g>
				
					<path d="M 1059.599976 495.200012 A 57.5 123.5 0 0 1 1002.099976 618.700012 A 57.5 123.5 0 0 1 944.599976 495.200012 A 57.5 123.5 0 0 1 1002.099976 371.700012 A 57.5 123.5 0 0 1 1059.599976 495.200012 Z" transform="matrix(0.9141 0.4055 -0.4055 0.9141 286.8392 -363.7613)" class="st1" style="fill: rgb(219, 83, 38);"/>
			</g>
		</g>
		<g>
			<g>
				<path class="st2" d="M963.7,615c-4.8,0-9.4-0.9-13.5-2.8c-15.7-7-24.7-26-25.2-53.6c-0.5-26.4,6.8-57.8,20.4-88.6&#10;&#9;&#9;&#9;&#9;&#9;c24.7-55.8,63.8-94.7,95-94.7c4.8,0,9.4,0.9,13.5,2.8c31.8,14.1,33.9,76.5,4.7,142.2C1034,576.1,994.9,615,963.7,615z&#10;&#9;&#9;&#9;&#9;&#9; M1040.4,384.4c-12.8,0-28.4,8.6-43.9,24.2c-16.3,16.3-31.5,39.5-42.9,65.1c-13.1,29.6-20.1,59.7-19.6,84.8&#10;&#9;&#9;&#9;&#9;&#9;c0.4,23.5,7.6,40.1,19.8,45.5c3,1.3,6.3,2,9.9,2c12.8,0,28.4-8.6,43.9-24.2c16.3-16.3,31.5-39.5,42.9-65.1&#10;&#9;&#9;&#9;&#9;&#9;c26.2-59,26.1-118.7-0.2-130.3C1047.3,385,1044,384.4,1040.4,384.4z" style="fill: rgb(109, 58, 41);"/>
			</g>
		</g>
		<g>
			<g>
				<g>
					<path class="st2" d="M997.2,466c-1.7-0.7-3-1.9-3.8-3.4c-1.5-2.7-1.9-7.4,4.7-14.4c4.1-4.3,10.1-8.7,16.9-12.5&#10;&#9;&#9;&#9;&#9;&#9;&#9;c9.6-5.3,23.4-10.3,30.6-7.1c1.7,0.7,3,1.9,3.8,3.4c1.5,2.7,1.9,7.4-4.7,14.4c-4.1,4.3-10.1,8.7-16.9,12.5&#10;&#9;&#9;&#9;&#9;&#9;&#9;C1018.1,464.2,1004.4,469.2,997.2,466z M1041.6,436.3c-2.9-0.6-11.3,0.8-22.5,6.9c-11.6,6.3-17,12.7-18,15.2&#10;&#9;&#9;&#9;&#9;&#9;&#9;c2.8,0.6,11.2-0.8,22.5-6.9C1035.2,445.1,1040.6,438.8,1041.6,436.3z" style="fill: rgb(109, 58, 41);"/>
				</g>
			</g>
			<g>
				<g>
					<path class="st2" d="M974.8,516.4c-1.7-0.7-3-1.9-3.8-3.4c-1.5-2.7-1.9-7.4,4.7-14.4c4.1-4.3,10.1-8.7,16.9-12.5&#10;&#9;&#9;&#9;&#9;&#9;&#9;c9.6-5.3,23.4-10.3,30.6-7.1c1.7,0.7,3,1.9,3.8,3.4c1.5,2.7,1.9,7.4-4.7,14.4c-4.1,4.3-10.1,8.7-16.9,12.5&#10;&#9;&#9;&#9;&#9;&#9;&#9;C995.8,514.6,982,519.6,974.8,516.4z M1019.2,486.7c-2.9-0.6-11.3,0.8-22.5,6.9c-11.6,6.3-17,12.7-18,15.2&#10;&#9;&#9;&#9;&#9;&#9;&#9;c2.8,0.6,11.2-0.8,22.5-6.9C1012.9,495.6,1018.3,489.2,1019.2,486.7z" style="fill: rgb(109, 58, 41);"/>
				</g>
			</g>
			<g>
				<g>
					<path class="st2" d="M952.4,566.9c-1.7-0.7-3-1.9-3.8-3.4c-1.5-2.7-1.9-7.4,4.7-14.4c4.1-4.3,10.1-8.7,16.9-12.5&#10;&#9;&#9;&#9;&#9;&#9;&#9;c9.6-5.3,23.4-10.3,30.6-7.1c1.7,0.7,3,1.9,3.8,3.4c1.5,2.7,1.9,7.4-4.7,14.4c-4.1,4.3-10.1,8.7-16.9,12.5&#10;&#9;&#9;&#9;&#9;&#9;&#9;C973.4,565.1,959.6,570.1,952.4,566.9z M996.9,537.2c-2.9-0.6-11.3,0.8-22.5,6.9c-11.6,6.3-17,12.7-18,15.2&#10;&#9;&#9;&#9;&#9;&#9;&#9;c2.8,0.6,11.2-0.8,22.5-6.9C990.5,546,995.9,539.6,996.9,537.2z" style="fill: rgb(109, 58, 41);"/>
				</g>
			</g>
		</g>
	</g>
	<g>
		<g>
			<g>
				<path class="st1" d="M1114.9,492.6c0,75.6-13.6,136.8-30.4,136.8s-30.4-61.3-30.4-136.8c0-75.6,13.6-136.8,30.4-136.8&#10;&#9;&#9;&#9;&#9;&#9;S1114.9,417,1114.9,492.6z" style="fill: rgb(219, 83, 38);"/>
			</g>
		</g>
		<g>
			<g>
				<path class="st2" d="M1084.5,633.9c-10.7,0-19.4-14.7-25.9-43.6c-5.8-26.2-9-60.9-9-97.7c0-36.9,3.2-71.6,9-97.7&#10;&#9;&#9;&#9;&#9;&#9;c6.4-28.9,15.1-43.6,25.9-43.6s19.4,14.7,25.9,43.6c5.8,26.2,9,60.9,9,97.7c0,36.9-3.2,71.6-9,97.7&#10;&#9;&#9;&#9;&#9;&#9;C1103.9,619.3,1095.2,633.9,1084.5,633.9z M1084.5,360.3c-0.4,0-9.1,0.4-17.1,36.6c-5.7,25.5-8.8,59.6-8.8,95.8&#10;&#9;&#9;&#9;&#9;&#9;c0,36.2,3.1,70.3,8.8,95.8c8,36.1,16.7,36.6,17.1,36.6s9.1-0.4,17.1-36.6c5.7-25.5,8.8-59.6,8.8-95.8c0-36.2-3.1-70.2-8.8-95.8&#10;&#9;&#9;&#9;&#9;&#9;C1093.6,360.7,1084.9,360.3,1084.5,360.3z" style="fill: rgb(109, 58, 41);"/>
			</g>
		</g>
		<g>
			<g>
				<path class="st2" d="M1094.2,443.9c-1.2,0-2.4-0.5-3.3-1.4l-19.4-19.4c-1.8-1.8-1.8-4.8,0-6.7c1.8-1.8,4.8-1.8,6.7,0l19.4,19.4&#10;&#9;&#9;&#9;&#9;&#9;c1.8,1.8,1.8,4.8,0,6.7C1096.6,443.4,1095.4,443.9,1094.2,443.9z" style="fill: rgb(109, 58, 41);"/>
			</g>
		</g>
		<g>
			<g>
				<path class="st2" d="M1094.2,475.6c-1.2,0-2.4-0.5-3.3-1.4l-19.4-19.4c-1.8-1.8-1.8-4.8,0-6.7c1.8-1.8,4.8-1.8,6.7,0l19.4,19.4&#10;&#9;&#9;&#9;&#9;&#9;c1.8,1.8,1.8,4.8,0,6.7C1096.6,475.2,1095.4,475.6,1094.2,475.6z" style="fill: rgb(109, 58, 41);"/>
			</g>
		</g>
		<g>
			<g>
				<path class="st2" d="M1094.2,507.4c-1.2,0-2.4-0.5-3.3-1.4l-19.4-19.4c-1.8-1.8-1.8-4.8,0-6.7c1.8-1.8,4.8-1.8,6.7,0l19.4,19.4&#10;&#9;&#9;&#9;&#9;&#9;c1.8,1.8,1.8,4.8,0,6.7C1096.6,506.9,1095.4,507.4,1094.2,507.4z" style="fill: rgb(109, 58, 41);"/>
			</g>
		</g>
		<g>
			<g>
				<path class="st2" d="M1094.2,539.1c-1.2,0-2.4-0.5-3.3-1.4l-19.4-19.4c-1.8-1.8-1.8-4.8,0-6.7c1.8-1.8,4.8-1.8,6.7,0l19.4,19.4&#10;&#9;&#9;&#9;&#9;&#9;c1.8,1.8,1.8,4.8,0,6.7C1096.6,538.6,1095.4,539.1,1094.2,539.1z" style="fill: rgb(109, 58, 41);"/>
			</g>
		</g>
		<g>
			<g>
				<path class="st2" d="M1094.2,570.8c-1.2,0-2.4-0.5-3.3-1.4l-19.4-19.4c-1.8-1.8-1.8-4.8,0-6.7c1.8-1.8,4.8-1.8,6.7,0l19.4,19.4&#10;&#9;&#9;&#9;&#9;&#9;c1.8,1.8,1.8,4.8,0,6.7C1096.6,570.4,1095.4,570.8,1094.2,570.8z" style="fill: rgb(109, 58, 41);"/>
			</g>
		</g>
	</g>
</g>
<g>
	<g>
		<g>
			<path class="st1" d="M231.1,624.9c-62.9,0-113.8,51-113.8,113.8c0,62.9,51,113.8,113.8,113.8c62.9,0,113.8-51,113.8-113.8&#10;&#9;&#9;&#9;&#9;C344.9,675.8,293.9,624.9,231.1,624.9z M231.1,797c-32.2,0-58.3-26.1-58.3-58.3c0-32.2,26.1-58.3,58.3-58.3s58.3,26.1,58.3,58.3&#10;&#9;&#9;&#9;&#9;C289.4,770.9,263.3,797,231.1,797z" style="fill: rgb(219, 83, 38);"/>
		</g>
	</g>
	<g>
		<g>
			<path class="st2" d="M231.1,857.6c-65.5,0-118.8-53.3-118.8-118.8c0-65.5,53.3-118.8,118.8-118.8s118.8,53.3,118.8,118.8&#10;&#9;&#9;&#9;&#9;C349.9,804.2,296.6,857.6,231.1,857.6z M231.1,629.9c-60,0-108.8,48.8-108.8,108.8c0,60,48.8,108.8,108.8,108.8&#10;&#9;&#9;&#9;&#9;c60,0,108.8-48.8,108.8-108.8C339.9,678.7,291.1,629.9,231.1,629.9z M231.1,802c-34.9,0-63.3-28.4-63.3-63.3&#10;&#9;&#9;&#9;&#9;c0-34.9,28.4-63.3,63.3-63.3c34.9,0,63.3,28.4,63.3,63.3C294.4,773.6,266,802,231.1,802z M231.1,685.5&#10;&#9;&#9;&#9;&#9;c-29.4,0-53.3,23.9-53.3,53.3c0,29.4,23.9,53.3,53.3,53.3c29.4,0,53.3-23.9,53.3-53.3C284.3,709.3,260.4,685.5,231.1,685.5z" style="fill: rgb(109, 58, 41);"/>
		</g>
	</g>
	<g>
		<g>
			<g>
				<path class="st1" d="M148.1,658.6c0,0-5-21.3,17.5-30.5c22.6-9.2,62.2,27.2,65.2,50.5c0,0-7.9,13.4-29.2,11.7&#10;&#9;&#9;&#9;&#9;&#9;C201.6,690.4,179,671.6,148.1,658.6z" style="fill: rgb(219, 83, 38);"/>
			</g>
		</g>
		<g>
			<g>
				<path class="st1" d="M238.1,620.4c0,0,13.7-16.4,34.1-4.1c20.4,12.3,15.2,64.5-1.4,80.5c0,0-15.1,1.6-26.2-16&#10;&#9;&#9;&#9;&#9;&#9;C244.6,680.8,246.1,652.2,238.1,620.4z" style="fill: rgb(219, 83, 38);"/>
			</g>
		</g>
		<g>
			<g>
				<path class="st1" d="M318.1,658.3c0,0,21.3-1.9,27.1,21.1c5.8,23.1-34.8,56.4-57.8,56.1c0,0-11.8-9.5-7.3-29.9&#10;&#9;&#9;&#9;&#9;&#9;C280.1,705.6,301.4,686.4,318.1,658.3z" style="fill: rgb(219, 83, 38);"/>
			</g>
		</g>
		<g>
			<g>
				<path class="st1" d="M351.5,742c0,0,17,12.9,5.7,33.9c-11.3,20.9-63.7,18.2-80.5,2.4c0,0-2.3-15,14.8-27&#10;&#9;&#9;&#9;&#9;&#9;C291.5,751.3,320.2,751.4,351.5,742z" style="fill: rgb(219, 83, 38);"/>
			</g>
		</g>
		<g>
			<g>
				<path class="st1" d="M309.2,817.9c0,0,5.7,20.6-16,30.4c-21.7,9.8-61.7-24.2-65.4-46.9c0,0,7.3-13.3,28.1-12.5&#10;&#9;&#9;&#9;&#9;&#9;C255.9,788.9,278.5,806.4,309.2,817.9z" style="fill: rgb(219, 83, 38);"/>
			</g>
		</g>
		<g>
			<g>
				<path class="st1" d="M232.6,852.3c0,0-9.7,19-32.3,11.7c-22.6-7.4-29.3-59.5-16.7-78.7c0,0,14.3-5,29.2,9.7&#10;&#9;&#9;&#9;&#9;&#9;C212.7,794.9,217.7,823.2,232.6,852.3z" style="fill: rgb(219, 83, 38);"/>
			</g>
		</g>
		<g>
			<g>
				<path class="st1" d="M154.2,818.3c0,0-19.7,8.2-32.2-12c-12.4-20.3,16.2-64.3,38.3-70.8c0,0,14.1,5.5,15.9,26.3&#10;&#9;&#9;&#9;&#9;&#9;C176.2,761.7,161.7,786.5,154.2,818.3z" style="fill: rgb(219, 83, 38);"/>
			</g>
		</g>
		<g>
			<g>
				<path class="st1" d="M110.9,735.5c0,0-17.2-12.7-6.2-33.8c11-21.1,63.4-19.2,80.4-3.6c0,0,2.6,15-14.3,27.2&#10;&#9;&#9;&#9;&#9;&#9;C170.8,725.2,142.1,725.5,110.9,735.5z" style="fill: rgb(219, 83, 38);"/>
			</g>
		</g>
	</g>
	<g>
		<g>
			<g>
				<path class="st2" d="M205.2,695.5c-1.3,0-2.6-0.1-4-0.2l-1.6-0.1l-1.2-1c-0.2-0.2-22.4-18.5-52.2-31l-2.4-1l-0.6-2.5&#10;&#9;&#9;&#9;&#9;&#9;c-2.1-8.8-0.5-27.7,20.5-36.3c3-1.2,6.3-1.8,9.8-1.8c26.1,0,59.4,33.6,62.3,56.4l0.2,1.7l-0.9,1.5&#10;&#9;&#9;&#9;&#9;&#9;C234.8,681.8,226.4,695.5,205.2,695.5z M203.5,685.5c12.9,0.6,19.7-5.4,22-8.1c-4-18.2-32.2-45.7-52-45.7c-2.2,0-4.2,0.4-6,1.1&#10;&#9;&#9;&#9;&#9;&#9;c-14.5,5.9-15.3,17.4-14.9,22.3C178.8,666.5,198.3,681.4,203.5,685.5z" style="fill: rgb(109, 58, 41);"/>
			</g>
		</g>
		<g>
			<g>
				<path class="st2" d="M269.8,701.9c-4.2,0-18.7-1.3-29.5-18.4l-0.9-1.3l0.1-1.6c0-0.3,1.4-28.3-6.3-58.9l-0.6-2.5l1.6-2&#10;&#9;&#9;&#9;&#9;&#9;c0.4-0.4,8.9-10.5,22.9-10.5c5.9,0,11.8,1.8,17.6,5.3c8.3,5,13.6,15.2,15.2,29.6c2.5,22.1-4.4,47.9-15.7,58.8l-1.2,1.2l-1.7,0.2&#10;&#9;&#9;&#9;&#9;&#9;C271.3,701.8,270.8,701.9,269.8,701.9z M249.6,679.4c7,10.3,15.3,12.1,19,12.4c8.2-9.6,13.4-31.3,11.4-49.1&#10;&#9;&#9;&#9;&#9;&#9;c-1.2-11-4.9-18.8-10.4-22.1c-4.2-2.5-8.4-3.8-12.4-3.8c-6.3,0-11.1,3.2-13.5,5.2C250,649,249.8,672.9,249.6,679.4z" style="fill: rgb(109, 58, 41);"/>
			</g>
		</g>
		<g>
			<g>
				<path class="st2" d="M287.8,740.5l-2.2,0l-1.3-1.1c-0.6-0.5-14.2-11.7-9.1-34.9l0.3-1.6l1.2-1.1c0.2-0.2,20.9-19.1,37.1-46.2&#10;&#9;&#9;&#9;&#9;&#9;l1.3-2.2l2.6-0.3c0,0,0.6-0.1,1.7-0.1c11.8,0,26.1,6.6,30.7,25c2.3,9.3-1,20.1-9.7,31.2C326.8,726.8,303.7,740.5,287.8,740.5z&#10;&#9;&#9;&#9;&#9;&#9; M284.7,708.2c-2.3,12.4,2.4,19.5,4.7,22.2c12.7-1,32-13,43-27.2c6.6-8.5,9.4-16.5,7.9-22.6c-3.6-14.2-13.8-16.9-19.4-17.3&#10;&#9;&#9;&#9;&#9;&#9;C306.4,686.9,289.4,703.7,284.7,708.2z" style="fill: rgb(109, 58, 41);"/>
			</g>
		</g>
		<g>
			<g>
				<path class="st2" d="M319.3,795.8c-18.9,0-37-5.5-45.9-13.9l-1.2-1.2l-0.3-1.7c-0.1-0.7-2.6-18.2,16.8-31.8l1.3-0.9l1.6,0&#10;&#9;&#9;&#9;&#9;&#9;c0,0,0,0,0,0c1.2,0,28.7-0.1,58.5-9.1l2.4-0.7l2,1.5c7.1,5.4,17.6,20.7,7.1,40.2C355.6,789.4,340.2,795.8,319.3,795.8z&#10;&#9;&#9;&#9;&#9;&#9; M281.7,775.9c7.6,6,22.4,9.9,37.6,9.9c16.6,0,29.5-4.7,33.6-12.3c7.2-13.3,0.8-22.4-2.6-25.9c-26.4,7.6-50.7,8.6-57,8.7&#10;&#9;&#9;&#9;&#9;&#9;C283.2,763.9,281.8,772.3,281.7,775.9z" style="fill: rgb(109, 58, 41);"/>
			</g>
		</g>
		<g>
			<g>
				<path class="st2" d="M284.6,855c-25.7,0-58.2-31-61.8-52.9l-0.3-1.7l0.8-1.5c0.3-0.6,8.9-16.1,32.7-15.1l1.6,0.1l1.3,1&#10;&#9;&#9;&#9;&#9;&#9;c0.2,0.2,22.5,17.2,52,28.3l2.4,0.9l0.7,2.5c2.4,8.6,1.5,27.1-18.8,36.3C292,854.3,288.5,855,284.6,855z M233.1,802.4&#10;&#9;&#9;&#9;&#9;&#9;c4.5,17.2,31.9,42.6,51.5,42.6c2.4,0,4.6-0.4,6.5-1.3c13.7-6.2,14.2-17.2,13.6-22.1c-25.8-10.1-45.4-23.9-50.6-27.7&#10;&#9;&#9;&#9;&#9;&#9;c-0.1,0-0.1,0-0.2,0C241.5,793.8,235.3,799.7,233.1,802.4z" style="fill: rgb(109, 58, 41);"/>
			</g>
		</g>
		<g>
			<g>
				<path class="st2" d="M210.3,870.7c-3.7,0-7.6-0.7-11.5-1.9c-9.2-3-16.6-11.8-21.4-25.4c-7.4-21-6.5-47.7,2.1-60.8l0.9-1.4&#10;&#9;&#9;&#9;&#9;&#9;l1.6-0.6c0.8-0.3,17.6-5.7,34.3,10.9l1.1,1.1l0.3,1.6c0,0.3,5,27.9,19.4,55.9l1.2,2.3l-1.2,2.3&#10;&#9;&#9;&#9;&#9;&#9;C236.7,855.2,228.6,870.7,210.3,870.7z M186.8,789.6c-5.9,11.2-6,33.5,0,50.4c3.7,10.4,9,17.2,15.1,19.2c2.9,1,5.8,1.4,8.4,1.4&#10;&#9;&#9;&#9;&#9;&#9;c8.9,0,14.3-5.6,16.6-8.7c-12.3-24.8-17.5-48.2-18.7-54.5c-7.2-6.6-13.9-8-18.4-8C188.5,789.4,187.5,789.5,186.8,789.6z" style="fill: rgb(109, 58, 41);"/>
			</g>
		</g>
		<g>
			<g>
				<path class="st2" d="M144.8,825c-7.8,0-18.8-2.8-27-16.1c-5.1-8.3-5-19.8,0.1-33.2c8-20.8,26-40.5,41-45l1.6-0.5l1.6,0.6&#10;&#9;&#9;&#9;&#9;&#9;c0.7,0.3,17.1,6.9,19.1,30.5l0.1,1.6l-0.8,1.4c-0.1,0.2-14.2,24.5-21.5,55.2l-0.6,2.5l-2.4,1C155.6,823.1,151.1,825,144.8,825z&#10;&#9;&#9;&#9;&#9;&#9; M159.9,740.9c-11.7,4.7-26.3,21.6-32.7,38.3c-3.9,10.3-4.3,19-0.9,24.4c4.6,7.5,10.8,11.3,18.4,11.3c2.1,0,3.9-0.3,5.3-0.6&#10;&#9;&#9;&#9;&#9;&#9;c6.8-26.9,17.9-48,21.1-53.7C169.6,748.2,162.9,742.7,159.9,740.9z" style="fill: rgb(109, 58, 41);"/>
			</g>
		</g>
		<g>
			<g>
				<path class="st2" d="M110,741l-2.1-1.5c-7.1-5.3-17.9-20.4-7.7-40.1c5.9-11.4,22.2-18.3,43.6-18.3c18.3,0,35.9,5.2,44.7,13.2&#10;&#9;&#9;&#9;&#9;&#9;l1.3,1.2l0.3,1.7c0.1,0.7,2.9,18.2-16.3,32.1l-1.3,0.9l-1.6,0c-0.3,0-28.3,0.4-58.4,10L110,741z M143.8,691.1&#10;&#9;&#9;&#9;&#9;&#9;c-17.3,0-30.6,4.9-34.7,12.9c-6.9,13.4-0.5,22.3,3,25.8c26.5-8,50.4-9.4,56.9-9.6c10-7.8,11.2-16.3,11.2-19.7&#10;&#9;&#9;&#9;&#9;&#9;C172.8,694.9,158.5,691.1,143.8,691.1z" style="fill: rgb(109, 58, 41);"/>
			</g>
		</g>
	</g>
</g>
<g>
	<g>
		<g>
			<g>
				<path class="st1" d="M800.2,148.8c-1.9-21.5-31.2-53.1-79.5-53.1c-48.3,0-77.5,31.7-79.5,53.1c-1.9,21.5,22.4,33.6,22.4,33.6&#10;&#9;&#9;&#9;&#9;&#9;V256h57h57v-73.6C777.8,182.4,802.1,170.2,800.2,148.8z" style="fill: rgb(219, 83, 38);"/>
			</g>
		</g>
		<g>
			<g>
				<path class="st2" d="M777.8,260.5H663.7c-2.5,0-4.5-2-4.5-4.5v-71c-6.7-4-24.2-16.6-22.4-36.7c2.1-23.4,33.2-57.2,83.9-57.2&#10;&#9;&#9;&#9;&#9;&#9;c28.9,0,48.5,10.6,59.9,19.5c13.9,10.9,22.9,25,24.1,37.8c0.9,10.2-3.2,20-11.8,28.5c-4,3.9-8.1,6.7-10.6,8.2v71&#10;&#9;&#9;&#9;&#9;&#9;C782.3,258.5,780.2,260.5,777.8,260.5z M668.2,251.5h105.1v-69.1c0-1.7,1-3.3,2.5-4c0.2-0.1,21.6-11.1,20-29.2&#10;&#9;&#9;&#9;&#9;&#9;c-0.9-10.2-8.8-22.3-20.7-31.5c-10.3-8-28-17.6-54.3-17.6c-26.3,0-44.1,9.6-54.3,17.6c-11.8,9.2-19.7,21.3-20.7,31.5&#10;&#9;&#9;&#9;&#9;&#9;c-1.6,18.1,19.7,29.1,20,29.2c1.5,0.8,2.5,2.3,2.5,4V251.5z" style="fill: rgb(109, 58, 41);"/>
			</g>
		</g>
		<g>
			<g>
				<path d="M 781.700025 139.199997 A 4.3 4.3 0 0 1 777.400024 143.499997 A 4.3 4.3 0 0 1 773.100024 139.199997 A 4.3 4.3 0 0 1 777.400024 134.899997 A 4.3 4.3 0 0 1 781.700025 139.199997 Z" class="st1" style="fill: rgb(219, 83, 38);"/>
			</g>
			<g>
				<path d="M 760.299976 169 A 2.2 2.2 0 0 1 758.099976 171.2 A 2.2 2.2 0 0 1 755.899976 169 A 2.2 2.2 0 0 1 758.099976 166.8 A 2.2 2.2 0 0 1 760.299976 169 Z" class="st1" style="fill: rgb(219, 83, 38);"/>
			</g>
			<g>
				<path d="M 763.299976 229.100006 A 2.2 2.2 0 0 1 761.099976 231.300006 A 2.2 2.2 0 0 1 758.899976 229.100006 A 2.2 2.2 0 0 1 761.099976 226.900006 A 2.2 2.2 0 0 1 763.299976 229.100006 Z" class="st1" style="fill: rgb(219, 83, 38);"/>
			</g>
			<g>
				<path d="M 688.900012 230.399994 A 2.2 2.2 0 0 1 686.700012 232.599994 A 2.2 2.2 0 0 1 684.500012 230.399994 A 2.2 2.2 0 0 1 686.700012 228.199994 A 2.2 2.2 0 0 1 688.900012 230.399994 Z" class="st1" style="fill: rgb(219, 83, 38);"/>
			</g>
			<g>
				<path d="M 691.100024 199.199997 A 2.2 2.2 0 0 1 688.900024 201.399997 A 2.2 2.2 0 0 1 686.700024 199.199997 A 2.2 2.2 0 0 1 688.900024 196.999997 A 2.2 2.2 0 0 1 691.100024 199.199997 Z" class="st1" style="fill: rgb(219, 83, 38);"/>
			</g>
			<g>
				<path d="M 728.699975 223.800003 A 3.1 3.1 0 0 1 725.599976 226.900003 A 3.1 3.1 0 0 1 722.499976 223.800003 A 3.1 3.1 0 0 1 725.599976 220.700003 A 3.1 3.1 0 0 1 728.699975 223.800003 Z" class="st1" style="fill: rgb(219, 83, 38);"/>
			</g>
			<g>
				<path d="M 700.5 157.899994 A 3 3 0 0 1 697.5 160.899994 A 3 3 0 0 1 694.5 157.899994 A 3 3 0 0 1 697.5 154.899994 A 3 3 0 0 1 700.5 157.899994 Z" class="st1" style="fill: rgb(219, 83, 38);"/>
			</g>
			<g>
				<path d="M 759.700012 201.5 A 3 3 0 0 1 756.700012 204.5 A 3 3 0 0 1 753.700012 201.5 A 3 3 0 0 1 756.700012 198.5 A 3 3 0 0 1 759.700012 201.5 Z" class="st1" style="fill: rgb(219, 83, 38);"/>
			</g>
			<g>
				<path d="M 751.999988 119.599998 A 2.2 2.2 0 0 1 749.799988 121.799999 A 2.2 2.2 0 0 1 747.599988 119.599998 A 2.2 2.2 0 0 1 749.799988 117.399998 A 2.2 2.2 0 0 1 751.999988 119.599998 Z" class="st1" style="fill: rgb(219, 83, 38);"/>
			</g>
			<g>
				<path d="M 670.199988 143.600006 A 2.9 2.9 0 0 1 667.299988 146.500006 A 2.9 2.9 0 0 1 664.399988 143.600006 A 2.9 2.9 0 0 1 667.299988 140.700006 A 2.9 2.9 0 0 1 670.199988 143.600006 Z" class="st1" style="fill: rgb(219, 83, 38);"/>
			</g>
			<g>
				<path d="M 734.6 143.5 A 4.1 4.1 0 0 1 730.5 147.6 A 4.1 4.1 0 0 1 726.4 143.5 A 4.1 4.1 0 0 1 730.5 139.4 A 4.1 4.1 0 0 1 734.6 143.5 Z" class="st1" style="fill: rgb(219, 83, 38);"/>
			</g>
			<g>
				<path d="M 708.399988 120.599998 A 4.1 4.1 0 0 1 704.299988 124.699998 A 4.1 4.1 0 0 1 700.199988 120.599998 A 4.1 4.1 0 0 1 704.299988 116.499999 A 4.1 4.1 0 0 1 708.399988 120.599998 Z" class="st1" style="fill: rgb(219, 83, 38);"/>
			</g>
			<g>
				<path d="M 722.500024 183.100006 A 4.1 4.1 0 0 1 718.400024 187.200006 A 4.1 4.1 0 0 1 714.300025 183.100006 A 4.1 4.1 0 0 1 718.400024 179.000006 A 4.1 4.1 0 0 1 722.500024 183.100006 Z" class="st1" style="fill: rgb(219, 83, 38);"/>
			</g>
		</g>
		<g>
			<g>
				<path class="st1" d="M746.3,186.3c-1.9-21.5-31.2-53.1-79.5-53.1c-48.3,0-77.5,31.7-79.5,53.1c-1.9,21.4,22.4,33.6,22.4,33.6&#10;&#9;&#9;&#9;&#9;&#9;v73.6h57h57v-73.6C723.8,219.9,748.2,207.7,746.3,186.3z" style="fill: rgb(219, 83, 38);"/>
			</g>
		</g>
		<g>
			<g>
				<path class="st2" d="M723.8,298H609.8c-2.5,0-4.5-2-4.5-4.5v-71c-6.7-4-24.2-16.6-22.4-36.7c2.1-23.4,33.2-57.2,83.9-57.2&#10;&#9;&#9;&#9;&#9;&#9;c28.9,0,48.5,10.6,59.9,19.5c13.9,10.9,22.9,25,24.1,37.8c0.9,10.2-3.2,20-11.8,28.5c-4,3.9-8.1,6.7-10.6,8.2v71&#10;&#9;&#9;&#9;&#9;&#9;C728.3,296,726.3,298,723.8,298z M614.3,289h105.1v-69.1c0-1.7,1-3.3,2.5-4c0.2-0.1,21.6-11.1,20-29.2&#10;&#9;&#9;&#9;&#9;&#9;c-0.9-10.2-8.8-22.3-20.7-31.5c-10.3-8-28-17.6-54.3-17.6c-26.3,0-44.1,9.6-54.3,17.6c-11.8,9.2-19.7,21.3-20.7,31.5&#10;&#9;&#9;&#9;&#9;&#9;c-1.6,18.1,19.7,29.1,20,29.2c1.5,0.8,2.5,2.3,2.5,4V289z" style="fill: rgb(109, 58, 41);"/>
			</g>
		</g>
	</g>
	<g>
		<path class="st2" d="M710.7,189.2c-1.7,0-3.3-0.9-4.1-2.5c-9.9-20.5-31.2-22.4-32.1-22.5c-2.5-0.2-4.3-2.4-4.1-4.8&#10;&#9;&#9;&#9;c0.2-2.5,2.3-4.3,4.8-4.1c1.1,0.1,27.4,2.3,39.6,27.5c1.1,2.2,0.1,4.9-2.1,6C712,189,711.4,189.2,710.7,189.2z" style="fill: rgb(109, 58, 41);"/>
	</g>
	<g>
		<path class="st2" d="M772.6,150.1c-1.7,0-3.3-0.9-4.1-2.5c-9.9-20.5-31.2-22.4-32.1-22.5c-2.5-0.2-4.3-2.4-4.1-4.8&#10;&#9;&#9;&#9;c0.2-2.5,2.3-4.3,4.8-4.1c1.1,0.1,27.4,2.3,39.6,27.5c1.1,2.2,0.1,4.9-2.1,6C773.9,150,773.2,150.1,772.6,150.1z" style="fill: rgb(109, 58, 41);"/>
	</g>
	<g>
		<g>
			<path d="M 620.200025 184.699997 A 4.3 4.3 0 0 1 615.900024 188.999997 A 4.3 4.3 0 0 1 611.600024 184.699997 A 4.3 4.3 0 0 1 615.900024 180.399997 A 4.3 4.3 0 0 1 620.200025 184.699997 Z" class="st1" style="fill: rgb(219, 83, 38);"/>
		</g>
		<g>
			<path d="M 637.299976 214.5 A 2.2 2.2 0 0 1 635.099976 216.7 A 2.2 2.2 0 0 1 632.899976 214.5 A 2.2 2.2 0 0 1 635.099976 212.3 A 2.2 2.2 0 0 1 637.299976 214.5 Z" class="st1" style="fill: rgb(219, 83, 38);"/>
		</g>
		<g>
			<path d="M 634.299976 274.600006 A 2.2 2.2 0 0 1 632.099976 276.800006 A 2.2 2.2 0 0 1 629.899976 274.600006 A 2.2 2.2 0 0 1 632.099976 272.400006 A 2.2 2.2 0 0 1 634.299976 274.600006 Z" class="st1" style="fill: rgb(219, 83, 38);"/>
		</g>
		<g>
			<path d="M 708.799976 275.899994 A 2.2 2.2 0 0 1 706.599976 278.099994 A 2.2 2.2 0 0 1 704.399976 275.899994 A 2.2 2.2 0 0 1 706.599976 273.699994 A 2.2 2.2 0 0 1 708.799976 275.899994 Z" class="st1" style="fill: rgb(219, 83, 38);"/>
		</g>
		<g>
			<path d="M 706.499988 244.699997 A 2.2 2.2 0 0 1 704.299988 246.899997 A 2.2 2.2 0 0 1 702.099988 244.699997 A 2.2 2.2 0 0 1 704.299988 242.499997 A 2.2 2.2 0 0 1 706.499988 244.699997 Z" class="st1" style="fill: rgb(219, 83, 38);"/>
		</g>
		<g>
			<path d="M 670.699975 269.299988 A 3.1 3.1 0 0 1 667.599976 272.399988 A 3.1 3.1 0 0 1 664.499976 269.299988 A 3.1 3.1 0 0 1 667.599976 266.199988 A 3.1 3.1 0 0 1 670.699975 269.299988 Z" class="st1" style="fill: rgb(219, 83, 38);"/>
		</g>
		<g>
			<path d="M 698.700012 203.399994 A 3 3 0 0 1 695.700012 206.399994 A 3 3 0 0 1 692.700012 203.399994 A 3 3 0 0 1 695.700012 200.399994 A 3 3 0 0 1 698.700012 203.399994 Z" class="st1" style="fill: rgb(219, 83, 38);"/>
		</g>
		<g>
			<path d="M 639.5 247 A 3 3 0 0 1 636.5 250 A 3 3 0 0 1 633.5 247 A 3 3 0 0 1 636.5 244 A 3 3 0 0 1 639.5 247 Z" class="st1" style="fill: rgb(219, 83, 38);"/>
		</g>
		<g>
			<path d="M 645.600024 165.100006 A 2.2 2.2 0 0 1 643.400024 167.300006 A 2.2 2.2 0 0 1 641.200024 165.100006 A 2.2 2.2 0 0 1 643.400024 162.900006 A 2.2 2.2 0 0 1 645.600024 165.100006 Z" class="st1" style="fill: rgb(219, 83, 38);"/>
		</g>
		<g>
			<path d="M 728.800025 189.100006 A 2.9 2.9 0 0 1 725.900024 192.000006 A 2.9 2.9 0 0 1 723.000024 189.100006 A 2.9 2.9 0 0 1 725.900024 186.200006 A 2.9 2.9 0 0 1 728.800025 189.100006 Z" class="st1" style="fill: rgb(219, 83, 38);"/>
		</g>
		<g>
			<path d="M 666.800012 189 A 4.1 4.1 0 0 1 662.700012 193.1 A 4.1 4.1 0 0 1 658.600012 189 A 4.1 4.1 0 0 1 662.700012 184.9 A 4.1 4.1 0 0 1 666.800012 189 Z" class="st1" style="fill: rgb(219, 83, 38);"/>
		</g>
		<g>
			<path d="M 678.899988 228.600006 A 4.1 4.1 0 0 1 674.799988 232.700006 A 4.1 4.1 0 0 1 670.699988 228.600006 A 4.1 4.1 0 0 1 674.799988 224.500006 A 4.1 4.1 0 0 1 678.899988 228.600006 Z" class="st1" style="fill: rgb(219, 83, 38);"/>
		</g>
	</g>
</g>
<g>
	<g>
		<g>
			<path class="st1" d="M622.8,722.1L622.8,722.1L622.8,722.1C622.8,722.1,622.8,722.1,622.8,722.1L622.8,722.1&#10;&#9;&#9;&#9;&#9;c-29.3,0-53,11-49.5,41.3c3.5,30.3,32.5,46.7,49.5,46.7c17,0,46-16.4,49.5-46.7C675.8,733.1,652.1,722.1,622.8,722.1z" style="fill: rgb(219, 83, 38);"/>
		</g>
	</g>
	<g>
		<g>
			<path class="st1" d="M576.2,742.4c0,0-34.5,10.5-44.2,31c0,0-4.7,8.8,0,18.3c4.7,9.5,13.2,26.2,13.2,26.2s8.8,12,23.6,6.6&#10;&#9;&#9;&#9;&#9;c14.8-5.4,34.1-20,34.1-20S560.6,781.4,576.2,742.4z" style="fill: rgb(219, 83, 38);"/>
		</g>
	</g>
	<g>
		<g>
			<path class="st1" d="M505.2,846.9c0,0-10.4-8.5,1.3-25.2c11.7-16.7,26.7-27.6,26.7-27.6l13,26.4&#10;&#9;&#9;&#9;&#9;C546.2,820.5,520,860.2,505.2,846.9z" style="fill: rgb(219, 83, 38);"/>
		</g>
	</g>
	<g>
		<g>
			<path class="st1" d="M670.9,740.5c0,0,34.5,10.5,44.2,31c0,0,4.7,8.8,0,18.3c-4.7,9.5-13.2,26.2-13.2,26.2s-8.8,12-23.6,6.6&#10;&#9;&#9;&#9;&#9;c-14.8-5.4-34.1-20-34.1-20S686.5,779.5,670.9,740.5z" style="fill: rgb(219, 83, 38);"/>
		</g>
	</g>
	<g>
		<g>
			<path class="st1" d="M741.9,845c0,0,10.4-8.5-1.3-25.2c-11.7-16.7-26.7-27.6-26.7-27.6l-13,26.4&#10;&#9;&#9;&#9;&#9;C700.9,818.6,727.1,858.3,741.9,845z" style="fill: rgb(219, 83, 38);"/>
		</g>
	</g>
	<g>
		<g>
			<path class="st2" d="M622.8,814.5c-10.2,0-22.7-5-32.6-13c-12.1-9.7-19.7-23.1-21.3-37.7c-1.4-12.6,1.4-23,8.4-30.9&#10;&#9;&#9;&#9;&#9;c9-10.1,24.8-15.5,45.6-15.5c20.8,0,36.6,5.3,45.6,15.5c7,7.8,9.8,18.2,8.4,30.9c-1.7,14.6-9.2,28-21.3,37.7&#10;&#9;&#9;&#9;&#9;C645.5,809.6,633,814.5,622.8,814.5z M622.8,726.6c-12.7,0-29.7,2.2-38.9,12.4c-5.2,5.8-7.3,13.9-6.1,23.8&#10;&#9;&#9;&#9;&#9;c3.3,28.4,30.6,42.7,45,42.7s41.8-14.3,45-42.7c1.1-10-0.9-18-6.1-23.8C652.5,728.7,635.5,726.6,622.8,726.6z" style="fill: rgb(109, 58, 41);"/>
		</g>
	</g>
	<g>
		<g>
			<path class="st2" d="M561.4,830.4C561.4,830.4,561.4,830.4,561.4,830.4c-12.4,0-19.5-9.4-19.8-9.8c-0.1-0.2-0.3-0.4-0.4-0.6&#10;&#9;&#9;&#9;&#9;c-0.1-0.2-8.6-16.8-13.3-26.2c-5.4-10.9-0.7-21,0-22.3c10.5-22,45.5-32.9,46.9-33.3c1.7-0.5,3.5,0,4.6,1.3&#10;&#9;&#9;&#9;&#9;c1.2,1.3,1.5,3.1,0.9,4.7c-5.8,14.5-3.5,28.4,6.8,41.2c8,9.9,17.8,15.3,17.9,15.3c1.3,0.7,2.2,2.1,2.3,3.6c0.1,1.5-0.6,3-1.8,3.9&#10;&#9;&#9;&#9;&#9;c-0.8,0.6-20,15.1-35.3,20.6C567.4,829.9,564.4,830.4,561.4,830.4z M549.1,815.5c0.9,1.1,5.4,5.9,12.3,5.9c1.9,0,3.9-0.4,6-1.1&#10;&#9;&#9;&#9;&#9;c9.5-3.4,21.1-11,27.7-15.6c-4.1-2.9-9.7-7.6-14.8-13.8c-10.3-12.6-14-26.7-11-41.1c-10.3,4.3-27.2,13-33.2,25.6&#10;&#9;&#9;&#9;&#9;c0,0.1-0.1,0.1-0.1,0.2c-0.1,0.3-3.5,7,0.1,14.2C540.3,798.3,547.7,812.9,549.1,815.5z" style="fill: rgb(109, 58, 41);"/>
		</g>
	</g>
	<g>
		<g>
			<path class="st2" d="M512.2,854.1c-3.7,0-7.1-1.3-9.9-3.8c-0.7-0.6-3.7-3.5-5.1-8.6c-1.3-4.8-1.4-12.6,5.7-22.6&#10;&#9;&#9;&#9;&#9;c12-17.1,27.2-28.2,27.8-28.6c1.1-0.8,2.4-1,3.7-0.7c1.3,0.3,2.4,1.2,2.9,2.4l13,26.4c0.7,1.4,0.6,3.1-0.3,4.5&#10;&#9;&#9;&#9;&#9;C547.9,826.2,528.9,854.1,512.2,854.1z M531.6,801.1c-5.1,4.3-14.1,12.5-21.5,23.1c-8.8,12.6-2.8,18.6-2,19.2c0.1,0,0,0,0.1,0.1&#10;&#9;&#9;&#9;&#9;c1.2,1.1,2.4,1.6,4,1.6c4.7,0,11.5-4.6,19.3-13.1c4.2-4.6,7.7-9.3,9.6-11.9L531.6,801.1z" style="fill: rgb(109, 58, 41);"/>
		</g>
	</g>
	<g>
		<g>
			<path class="st2" d="M685.7,828.5c-3,0-6-0.6-9-1.6c-15.3-5.5-34.5-20-35.3-20.6c-1.2-0.9-1.9-2.4-1.8-3.9c0.1-1.5,1-2.9,2.3-3.6&#10;&#9;&#9;&#9;&#9;c1.6-0.9,38.7-21.7,24.7-56.5c-0.6-1.6-0.3-3.4,0.9-4.7c1.2-1.3,3-1.8,4.6-1.3c1.5,0.5,36.4,11.3,46.9,33.3&#10;&#9;&#9;&#9;&#9;c0.7,1.3,5.4,11.4,0,22.3c-4.7,9.4-13.2,26-13.3,26.2c-0.1,0.2-0.2,0.4-0.4,0.6C705.2,819.1,698.1,828.5,685.7,828.5z&#10;&#9;&#9;&#9;&#9; M652.1,802.8c6.6,4.6,18.2,12.1,27.7,15.6c2,0.7,4,1.1,6,1.1c6.9,0,11.4-4.8,12.3-5.9c1.3-2.6,8.8-17.2,13-25.7&#10;&#9;&#9;&#9;&#9;c3.6-7.2,0.1-14.1,0.1-14.1c0-0.1-0.1-0.1-0.1-0.2c-6-12.6-22.9-21.3-33.2-25.6c3,14.4-0.7,28.5-11,41.1&#10;&#9;&#9;&#9;&#9;C661.8,795.3,656.2,799.9,652.1,802.8z" style="fill: rgb(109, 58, 41);"/>
		</g>
	</g>
	<g>
		<g>
			<path class="st2" d="M734.9,852.2L734.9,852.2c-16.8,0-35.7-27.9-37.8-31.1c-0.9-1.3-1-3-0.3-4.5l13-26.4&#10;&#9;&#9;&#9;&#9;c0.6-1.2,1.7-2.1,2.9-2.4c1.3-0.3,2.6-0.1,3.7,0.7c0.6,0.5,15.8,11.5,27.8,28.6c7,10.1,7,17.9,5.7,22.6c-1.4,5.1-4.4,8-5.1,8.6&#10;&#9;&#9;&#9;&#9;C742,850.9,738.7,852.2,734.9,852.2z M706.1,818.3c7.3,10.4,20.4,25,28.8,25l0,0c1.5,0,2.8-0.5,4-1.6c0,0,0.1-0.1,0.1-0.1&#10;&#9;&#9;&#9;&#9;c0.7-0.6,6.7-6.5-2.1-19.2c-7.4-10.6-16.3-18.8-21.5-23.1L706.1,818.3z" style="fill: rgb(109, 58, 41);"/>
		</g>
	</g>
</g>
<text transform="matrix(1 0 0 1 526.3608 520.8046)" class="st2 st3 st4" style="white-space: pre;  fill: rgb(109, 58, 41);  font-family: 'Charter-BlackItalic';  font-size: 138.883px; ;  font-weight: Charter-BlackItalic">Bagel</text>
<path class="st2" d="M682.7,533.8c0,2.9-2.4,5.3-5.3,5.3H528.9c-2.9,0-5.3-2.4-5.3-5.3l0,0c0-2.9,2.4-5.3,5.3-5.3h148.6&#10;&#9;C680.3,528.5,682.7,530.9,682.7,533.8L682.7,533.8z" style="fill: rgb(109, 58, 41);"/>
<path class="st2" d="M874.5,533.8c0,2.9-2.4,5.3-5.3,5.3h-93.6c-2.9,0-5.3-2.4-5.3-5.3l0,0c0-2.9,2.4-5.3,5.3-5.3h93.6&#10;&#9;C872.1,528.5,874.5,530.9,874.5,533.8L874.5,533.8z" style="fill: rgb(109, 58, 41);"/>
</svg>