<svg height="512pt" viewBox="0 -8 512.00032 512" width="512pt" xmlns="http://www.w3.org/2000/svg"><path d="m208.703125 70.195312c0 34.628907-28.070313 62.699219-62.699219 62.699219-34.625 0-62.695312-28.070312-62.695312-62.699219 0-34.625 28.070312-62.695312 62.695312-62.695312 34.628906 0 62.699219 28.070312 62.699219 62.695312zm0 0" fill="#db2a17"/><path d="m485.09375 125.652344c0 34.628906-28.070312 62.699218-62.695312 62.699218-34.628907 0-62.699219-28.070312-62.699219-62.699218s28.070312-62.699219 62.699219-62.699219c34.625 0 62.695312 28.070313 62.695312 62.699219zm0 0" fill="#fb695b"/><path d="m141.070312 125.652344c0 34.628906-28.070312 62.699218-62.699218 62.699218-34.625 0-62.699219-28.070312-62.699219-62.699218s28.074219-62.699219 62.699219-62.699219c34.628906 0 62.699218 28.070313 62.699218 62.699219zm0 0" fill="#fb695b"/><path d="m417.71875 71.605469c-16.691406-19.617188-42.28125-27.179688-65.761719-21.808594-11.929687 2.726563-24.269531-1.863281-31.898437-11.425781-15.007813-18.8125-38.121094-30.871094-64.058594-30.871094s-49.054688 12.058594-64.058594 30.871094c-7.628906 9.5625-19.964844 14.15625-31.886718 11.429687-23.519532-5.382812-49.152344 2.210938-65.835938 21.878907-23.84375 28.109374-20.386719 70.222656 7.722656 94.066406s280.121094 23.820312 308.195313-.066406c28.070312-23.882813 31.464843-66.003907 7.582031-94.074219zm0 0" fill="#73da8c"/><path d="m370 177.148438c-24.515625-46.472657-74.144531-71.167969-108.511719-83.457032-29.683593-10.617187-36.632812-49.824218-12.210937-69.761718 12.738281-10.398438 25.617187-14.238282 25.617187-14.238282-6.066406-1.433594-12.390625-2.1875-18.894531-2.1875-25.9375 0-49.054688 12.054688-64.058594 30.871094-7.628906 9.5625-19.964844 14.15625-31.886718 11.425781-23.519532-5.382812-49.152344 2.210938-65.835938 21.882813-23.84375 28.109375-20.386719 70.222656 7.722656 94.066406 22.488282 19.070312 188.273438 22.871094 268.058594 11.398438zm0 0" fill="#29ce69"/><path d="m44.695312 172.898438c-22.652343 2.214843-39.21875 22.375-37.003906 45.027343 1.6875 17.246094 13.777344 30.957031 29.445313 35.542969 7.757812 2.269531 13.878906 8.148438 17.191406 15.519531 6.050781 13.453125 19.570313 22.820313 35.273437 22.820313 21.351563 0 38.660157-17.304688 38.660157-38.65625 0-21.246094-60.914063-82.46875-83.566407-80.253906zm0 0" fill="#29ce69"/><path d="m467.304688 172.898438c22.652343 2.214843 39.21875 22.375 37.003906 45.027343-1.6875 17.246094-13.777344 30.957031-29.445313 35.542969-7.757812 2.269531-13.878906 8.148438-17.195312 15.519531-6.046875 13.453125-19.566407 22.820313-35.269531 22.820313-21.351563 0-38.660157-17.304688-38.660157-38.65625 0-21.246094 60.914063-82.46875 83.566407-80.253906zm0 0" fill="#73da8c"/><path d="m422.394531 114.851562h-332.792969c-31.195312 0-56.488281 25.289063-56.488281 56.488282 0 21.777344 12.324219 40.675781 30.382813 50.105468 15.871094 8.285157 26.105468 24.402344 26.105468 42.304688v158.792969h332.792969v-158.792969c0-17.90625 10.234375-34.019531 26.109375-42.304688 18.054688-9.429687 30.382813-28.328124 30.382813-50.105468 0-31.199219-25.292969-56.488282-56.492188-56.488282zm0 0" fill="#ffe4d3"/><path d="m208.703125 114.851562h-119.101563c-31.195312 0-56.488281 25.289063-56.488281 56.488282 0 21.777344 12.324219 40.675781 30.382813 50.105468 15.871094 8.285157 26.105468 24.402344 26.105468 42.304688v158.792969h137.382813c-6.4375-193.253907-85.914063-190.734375-85.914063-245.503907 0-55.25 67.632813-62.1875 67.632813-62.1875zm0 0" fill="#ffc7a4"/><path d="m359.976562 488.460938h-207.953124c-34.472657 0-62.417969-27.949219-62.417969-62.421876v-134.230468h332.792969v134.230468c-.003907 34.472657-27.949219 62.421876-62.421876 62.421876zm0 0" fill="#2eddda"/><path d="m422.394531 291.808594v134.230468c0 34.472657-27.945312 62.421876-62.421875 62.421876h-207.945312c75.113281-145.207032 270.367187-196.652344 270.367187-196.652344zm0 0" fill="#76e7e7"/><path d="m89.601562 291.808594v134.230468c0 34.472657 27.949219 62.421876 62.425782 62.421876h207.945312c-75.113281-145.207032-270.371094-196.652344-270.371094-196.652344zm0 0" fill="#b0f0ef"/><path d="m200.183594 239.226562c0-9.078124-9.242188-16.4375-20.644532-16.4375-11.398437 0-20.640624 7.359376-20.640624 16.4375 0 9.078126 9.242187 16.4375 20.640624 16.4375 11.402344 0 20.644532-7.359374 20.644532-16.4375zm0 0" fill="#ff83b4"/><path d="m353.101562 239.226562c0-9.078124-9.242187-16.4375-20.640624-16.4375-11.402344 0-20.640626 7.359376-20.640626 16.4375 0 9.078126 9.238282 16.4375 20.640626 16.4375 11.398437 0 20.640624-7.359374 20.640624-16.4375zm0 0" fill="#ff83b4"/><path d="m256 239.226562c7.140625 0 13.742188-3.5625 17.660156-9.53125 2.273438-3.460937 1.3125-8.109374-2.152344-10.382812-1.269531-.835938-6.882812-2.996094-10.386718 2.148438-1.679688 2.46875-4.128906 2.765624-5.121094 2.765624-.996094 0-3.484375-.269531-5.125-2.765624-2.273438-3.460938-6.921875-4.421876-10.386719-2.148438-3.460937 2.273438-4.421875 6.921875-2.148437 10.382812 3.917968 5.96875 10.519531 9.53125 17.660156 9.53125zm0 0"/><path d="m191.804688 224.976562c.859374-.863281 1.863281-.992187 2.386718-.992187.523438 0 1.453125.210937 2.386719.992187 4.734375 3.960938 9.144531 1.460938 10.609375 0 2.929688-2.929687 2.929688-7.679687 0-10.605468-3.472656-3.472656-8.085938-5.382813-12.996094-5.382813s-9.523437 1.910157-12.992187 5.382813c-2.929688 2.925781-2.929688 7.675781 0 10.605468 2.925781 2.925782 7.675781 2.925782 10.605469 0zm0 0"/><path d="m315.421875 224.976562c.859375-.863281 1.863281-.992187 2.386719-.992187.523437 0 1.453125.210937 2.386718.992187 4.734376 3.960938 9.140626 1.460938 10.605469 0 2.929688-2.929687 2.929688-7.679687.003907-10.605468-3.472657-3.472656-8.085938-5.382813-12.996094-5.382813s-9.523438 1.910157-12.996094 5.382813c-2.929688 2.925781-2.929688 7.675781 0 10.605468 2.929688 2.925782 7.679688 2.925782 10.609375 0zm0 0"/><path d="m486.375 171.023438c-.019531-4.605469-.539062-9.097657-1.492188-13.429688 16.542969-32.304688 5.636719-72.535156-25.820312-91.800781-14.125-8.652344-30.480469-11.976563-46.671875-9.617188-17.382813-13.519531-40.046875-18.734375-62.105469-13.691406-8.917968 2.039063-18.480468-1.410156-24.363281-8.789063-17.078125-21.414062-42.566406-33.695312-69.921875-33.695312-21.957031 0-42.703125 7.917969-58.867188 22.109375-13.183593-13.96875-31.742187-22.109375-51.128906-22.109375-33.175781 0-61.769531 23.484375-68.625 55.433594-10.40625.140625-20.734375 2.613281-30.324218 7.394531-16.78125 8.363281-29.300782 22.761719-35.253907 40.542969-7.933593 23.710937-2.828125 49.234375 13.253907 67.953125-16.683594 9.3125-26.71875 28-24.828126 47.332031 1.949219 19.902344 15.683594 36.144531 34.804688 42.011719 10.757812 3.300781 13.660156 15.441406 19.449219 22.429687 3.8125 4.609375 9.160156 2.042969 10.574219.839844 3.148437-2.691406 3.457031-7.367188.835937-10.574219-5.601563-6.855469-8.320313-21.351562-26.644531-27.089843-13.210938-4.136719-22.742188-15.300782-24.089844-29.078126-1.121094-11.476562 3.824219-22.625 12.539062-29.628906 4.492188 17.234375 16.039063 32.023438 32.328126 40.527344 13.621093 7.113281 22.078124 20.773438 22.078124 35.660156v162.285156c0 38.554688 31.367188 69.921876 69.925782 69.921876h207.945312c38.558594 0 69.925782-31.367188 69.925782-69.921876v-127.351562c15.085937-2.492188 28.210937-12.386719 34.613281-26.621094 2.550781-5.671875 7.089843-9.828125 12.457031-11.398437 19.195312-5.617188 32.855469-22.109375 34.804688-42.011719 1.910156-19.550781-8.375-38.433594-25.398438-47.632812zm-10.308594-58.265626c1.953125 8.125 2.042969 16.410157.351563 24.351563-8.132813-12.785156-20.660157-22.507813-35.453125-27-.910156-14.289063-5.941406-28.003906-14.496094-39.519531 8.671875.632812 17.128906 3.320312 24.757812 7.992187 12.574219 7.703125 21.394532 19.839844 24.839844 34.175781zm-330.0625-97.757812c15.488282 0 30.300782 6.621094 40.695313 17.933594-.207031.253906-7.886719 13.824218-24.972657 9.554687-22.953124-5.734375-46.773437.65625-64.429687 15.5625-1.613281-.453125-3.234375-.828125-4.863281-1.164062 6.015625-24.25 28.070312-41.886719 53.570312-41.886719zm-119.976562 93.132812c4.679687-13.980468 14.523437-25.300781 27.71875-31.878906 9.914062-4.941406 20.828125-6.761718 31.574218-5.375-8.410156 11.4375-13.375 25.070313-14.28125 39.230469-19.644531 5.964844-35.304687 21.144531-41.953124 40.488281-6.589844-12.945312-7.855469-28.128906-3.058594-42.464844zm40.941406 106.664063c-16.257812-8.488281-26.355469-25.140625-26.355469-43.457031 0-27.011719 21.976563-48.988282 48.992188-48.988282h278.429687c4.144532 0 7.5-3.355468 7.5-7.5 0-4.140624-3.355468-7.5-7.5-7.5 0 0-280.609375.03125-281.691406.085938 1.433594-11.339844 6.128906-22.105469 13.59375-30.90625 14.371094-16.941406 36.765625-24.382812 58.441406-19.421875 14.492188 3.316406 29.964844-2.203125 39.425782-14.058594 14.21875-17.828125 35.429687-28.050781 58.195312-28.050781s43.976562 10.222656 58.195312 28.046875c9.457032 11.855469 24.933594 17.375 39.433594 14.058594 21.636719-4.945313 44.007813 2.46875 58.375 19.359375 7.515625 8.832031 12.222656 19.601562 13.652344 30.96875-1.078125-.054688-25.828125-.082032-25.828125-.082032-4.140625 0-7.5 3.359376-7.5 7.5 0 4.140626 3.359375 7.5 7.5 7.5h22.566406c27.011719 0 48.992188 21.976563 48.992188 48.988282 0 18.316406-10.097657 34.96875-26.355469 43.453125-18.585938 9.707031-30.136719 28.464843-30.136719 48.957031v20.558594h-317.789062v-20.558594c0-20.488281-11.550781-39.246094-30.136719-48.953125zm121.316406 108.121094c-19.726562-9.933594-37.929687-17.71875-53.105468-23.609375h241.511718c-31.816406 12.328125-76.792968 32.960937-120.765625 64.101562-23.753906-16.835937-47.304687-30.253906-67.640625-40.492187zm226.609375 103.121093c0 30.285157-24.636719 54.921876-54.921875 54.921876h-207.945312c-30.285156 0-54.921875-24.636719-54.921875-54.921876v-124.195312c15.277343 4.777344 47.535156 15.863281 84.746093 34.628906 47.363282 23.882813 112.710938 65.460938 155.058594 127.914063 1.449219 2.136719 5.394532 5.082031 10.417969 1.996093 3.527344-2.167968 4.320313-6.988281 1.996094-10.417968-22.605469-33.335938-51.367188-60.890625-80.632813-83.175782 60.246094-41.648437 122.945313-63.648437 146.203125-70.933593zm81.949219-208.84375c-1.347656 13.773438-10.804688 25.1875-24.089844 29.074219-9.582031 2.804688-17.574218 9.964844-21.925781 19.644531-3.972656 8.832032-11.785156 15.179688-20.933594 17.457032v-19.621094c0-14.882812 8.460938-28.546875 22.082031-35.65625 16.289063-8.507812 27.832032-23.296875 32.324219-40.53125 8.71875 7.007812 13.664063 18.15625 12.542969 29.632812zm0 0"/></svg>