<?xml version="1.0" encoding="utf-8"?>
<svg id="master-artboard" viewBox="0 0 1400 980" version="1.1" xmlns="http://www.w3.org/2000/svg" x="0px" y="0px" style="enable-background:new 0 0 1400 980;" width="1400px" height="980px"><rect id="ee-background" x="0" y="0" width="1400" height="980" style="fill: white; fill-opacity: 0; pointer-events: none;"/>

<metadata><!--?xpacket begin="﻿" id="W5M0MpCehiHzreSzNTczkc9d"?-->

                                                                                                    
                                                                                                    
                                                                                                    
                                                                                                    
                                                                                                    
                                                                                                    
                                                                                                    
                                                                                                    
                                                                                                    
                                                                                                    
                                                                                                    
                                                                                                    
                                                                                                    
                                                                                                    
                                                                                                    
                                                                                                    
                                                                                                    
                                                                                                    
                                                                                                    
                                                                                                    
                           
<!--?xpacket end="w"?-->
	</metadata>
<path d="M 0 0 H 1400 V 980 H 0 V 0 Z" class="st0" style="fill: rgb(180, 217, 243);"/>
<path class="st1" d="M1023,589L1023,589c0-15.5,12.6-28.1,28.1-28.1h89.3c12.8,0,23.1-10.3,23.1-23.1v0c0-12.8-10.3-23.1-23.1-23.1&#10;&#9;H935.2c-8.2,0-14.8-6.6-14.8-14.8v0c0-8.2,6.6-14.8,14.8-14.8h85.3c16.9,0,30.5-13.7,30.5-30.5v0c0-16.9-13.7-30.5-30.5-30.5H907.6&#10;&#9;c-14.5,0-26.3-11.8-26.3-26.3v0c0-14.5,11.8-26.3,26.3-26.3h24.8c18.4,0,33.3-14.9,33.3-33.3v0c0-18.4-14.9-33.3-33.3-33.3H487&#10;&#9;c-18.4,0-33.3,14.9-33.3,33.3v0c0,18.4,14.9,33.3,33.3,33.3h31.6c14.5,0,26.3,11.8,26.3,26.3v0c0,14.5-11.8,26.3-26.3,26.3H375.5&#10;&#9;c-16.9,0-30.5,13.7-30.5,30.5v0c0,16.9,13.7,30.5,30.5,30.5h61.6c8.2,0,14.8,6.6,14.8,14.8v0c0,8.2-6.6,14.8-14.8,14.8H278.9&#10;&#9;c-12.8,0-23.1,10.3-23.1,23.1v0c0,12.8,10.3,23.1,23.1,23.1h72.2c15.5,0,28.1,12.6,28.1,28.1v0c0,15.5-12.6,28.1-28.1,28.1h-62.3&#10;&#9;c-30.4,0-55,24.6-55,55l0,0H1199l0,0c0-30.4-24.6-55-55-55h-92.9C1035.6,617.1,1023,604.6,1023,589z" style="fill: rgb(133, 189, 225);"/>
<g>
	<path class="st2" d="M269.4,604.2c-1.6,0-2.9-1.3-2.9-2.9v-50.4c0-0.8,0.3-1.6,0.9-2.1c0.6-0.5,1.3-0.8,2.1-0.8l261.1,11.5&#10;&#9;&#9;c1.6,0.1,2.9,1.4,2.8,3c-0.1,1.6-1.4,2.8-3,2.8L272.4,554v47.3C272.4,602.9,271,604.2,269.4,604.2z" style="fill: rgb(47, 48, 104);"/>
	<g>
		<path class="st3" d="M559,644.6c-4.9,0-8.8-3.9-8.8-8.8v-48.5c0-10.8-8.8-19.7-19.7-19.7s-19.7,8.8-19.7,19.7v48.5&#10;&#9;&#9;&#9;c0,4.9-3.9,8.8-8.8,8.8s-8.8-3.9-8.8-8.8v-48.5c0-20.6,16.7-37.3,37.3-37.3c20.6,0,37.3,16.7,37.3,37.3v48.5&#10;&#9;&#9;&#9;C567.9,640.6,563.9,644.6,559,644.6z" style="fill: rgb(232, 229, 226);"/>
		<path class="st2" d="M559,647.5c-6.5,0-11.7-5.3-11.7-11.7v-48.5c0-9.2-7.5-16.7-16.7-16.7s-16.7,7.5-16.7,16.7v48.5&#10;&#9;&#9;&#9;c0,6.5-5.3,11.7-11.7,11.7c-6.5,0-11.7-5.3-11.7-11.7v-48.5c0-22.2,18-40.2,40.2-40.2s40.2,18,40.2,40.2v48.5&#10;&#9;&#9;&#9;C570.8,642.2,565.5,647.5,559,647.5z M530.6,564.7c12.4,0,22.6,10.1,22.6,22.6v48.5c0,3.3,2.7,5.9,5.9,5.9s5.9-2.7,5.9-5.9v-48.5&#10;&#9;&#9;&#9;c0-19-15.4-34.4-34.4-34.4c-19,0-34.4,15.4-34.4,34.4v48.5c0,3.3,2.7,5.9,5.9,5.9s5.9-2.7,5.9-5.9v-48.5&#10;&#9;&#9;&#9;C508,574.8,518.1,564.7,530.6,564.7z" style="fill: rgb(47, 48, 104);"/>
	</g>
	<g>
		<path d="M 251.600006 601.299988 H 811.699982 V 671.899986 H 251.600006 V 601.299988 Z" class="st4" style="fill: rgb(255, 215, 160);"/>
		<path class="st5" d="M811.7,612.3c-21.7,21.3-329.5,45.6-559.6,45.6c0,14.2,0,14.2,0,14.2h559.6V612.3z" style="opacity: 0.56; fill: rgb(221, 173, 115);"/>
		<g>
			<path class="st6" d="M342.6,625.9c-31.5,0-61.2-2.3-90.7-6.8c-1.6-0.2-2.7-1.7-2.4-3.3c0.2-1.6,1.7-2.7,3.3-2.4&#10;&#9;&#9;&#9;&#9;c47.1,7.3,94.7,8.6,149.8,4.2c49.4-3.9,94.6-10.3,147.2-18.7c1.6-0.3,3.1,0.8,3.3,2.4c0.3,1.6-0.8,3.1-2.4,3.3&#10;&#9;&#9;&#9;&#9;c-52.8,8.4-98.1,14.8-147.7,18.8C381.9,625,361.9,625.9,342.6,625.9z" style="fill: rgb(221, 173, 115);"/>
			<path class="st6" d="M623.7,653.5c-31.1,0-61.7-1.3-90.6-2.9c-18.1-1-36.5-2.2-54.3-3.4c-74.3-4.9-151.2-9.9-226.1-3.1&#10;&#9;&#9;&#9;&#9;c-1.6,0.2-3-1-3.2-2.6c-0.1-1.6,1-3,2.6-3.2c75.4-6.9,152.5-1.8,227.1,3c17.8,1.2,36.2,2.4,54.3,3.4c91.3,5.2,188,6.4,277-19.5&#10;&#9;&#9;&#9;&#9;c1.5-0.5,3.2,0.4,3.6,2c0.4,1.5-0.4,3.2-2,3.6C751.8,648.3,686.5,653.5,623.7,653.5z" style="fill: rgb(221, 173, 115);"/>
			<path class="st6" d="M617.9,633.5c-15.7,0-31.3-0.5-46.9-1.5c-4-0.3-7.6-0.6-11-2c-4.7-2-7.3-6-6.4-9.8c1-4.1,5.4-6.3,9.6-7.8&#10;&#9;&#9;&#9;&#9;c16.7-6.2,34.3-10.8,52.5-13.6c1.6-0.2,3.1,0.8,3.3,2.4c0.2,1.6-0.8,3.1-2.4,3.3c-17.8,2.8-35.1,7.2-51.4,13.3&#10;&#9;&#9;&#9;&#9;c-4.6,1.7-5.8,3-6,3.8c-0.2,0.8,1.1,2.2,3,3.1c2.7,1.1,6.2,1.4,9.1,1.5c79.8,5.1,161.7-3,237.1-23.6c1.5-0.4,3.2,0.5,3.6,2&#10;&#9;&#9;&#9;&#9;c0.4,1.6-0.5,3.2-2,3.6C748.7,625,683.1,633.5,617.9,633.5z" style="fill: rgb(221, 173, 115);"/>
			<path class="st6" d="M484.2,673.3c-0.2,0-0.4,0-0.6-0.1C409,658.8,329.6,657,253.9,668c-1.6,0.2-3.1-0.9-3.3-2.5&#10;&#9;&#9;&#9;&#9;c-0.2-1.6,0.9-3.1,2.5-3.3c76.3-11.1,156.4-9.3,231.6,5.2c1.6,0.3,2.6,1.8,2.3,3.4C486.8,672.3,485.6,673.3,484.2,673.3z" style="fill: rgb(221, 173, 115);"/>
		</g>
		<path class="st2" d="M811.7,674.8H251.6c-1.6,0-2.9-1.3-2.9-2.9v-70.6c0-1.6,1.3-2.9,2.9-2.9h560.1c1.6,0,2.9,1.3,2.9,2.9v70.6&#10;&#9;&#9;&#9;C814.6,673.5,813.3,674.8,811.7,674.8z M254.5,669h554.3v-64.7H254.5V669z" style="fill: rgb(47, 48, 104);"/>
	</g>
	<g>
		<g>
			<path class="st3" d="M529.9,590.9c-0.2,0-0.5,0-0.7,0L280.6,565c-3.9-0.4-6.7-3.9-6.3-7.8c0.4-3.9,3.9-6.7,7.8-6.3l248.5,25.8&#10;&#9;&#9;&#9;&#9;c3.9,0.4,6.7,3.9,6.3,7.8C536.5,588.2,533.5,590.9,529.9,590.9z" style="fill: rgb(232, 229, 226);"/>
			<path class="st2" d="M529.9,593.8c-0.3,0-0.7,0-1-0.1l-248.5-25.8c-2.7-0.3-5-1.6-6.7-3.6c-1.7-2.1-2.5-4.7-2.2-7.3&#10;&#9;&#9;&#9;&#9;c0.6-5.5,5.5-9.5,11-8.9l248.5,25.8c5.5,0.6,9.5,5.5,8.9,11C539.3,590,535,593.8,529.9,593.8z M281.3,553.9&#10;&#9;&#9;&#9;&#9;c-2.1,0-3.9,1.6-4.1,3.7c-0.1,1.1,0.2,2.2,0.9,3c0.7,0.9,1.7,1.4,2.8,1.5L529.5,588c2.4,0.2,4.3-1.4,4.6-3.7&#10;&#9;&#9;&#9;&#9;c0.2-2.3-1.4-4.3-3.7-4.6l-248.5-25.8C281.6,553.9,281.5,553.9,281.3,553.9z" style="fill: rgb(47, 48, 104);"/>
		</g>
		<path class="st2" d="M529.9,593.8c-0.3,0-0.7,0-1-0.1l-248.5-25.8c-2.7-0.3-5-1.6-6.7-3.6c-1.7-2.1-2.5-4.7-2.2-7.3&#10;&#9;&#9;&#9;c0.6-5.5,5.5-9.5,11-8.9l248.5,25.8c5.5,0.6,9.5,5.5,8.9,11C539.3,590,535,593.8,529.9,593.8z M281.3,553.9&#10;&#9;&#9;&#9;c-2.1,0-3.9,1.6-4.1,3.7c-0.1,1.1,0.2,2.2,0.9,3c0.7,0.9,1.7,1.4,2.8,1.5L529.5,588c2.4,0.2,4.3-1.4,4.6-3.7&#10;&#9;&#9;&#9;c0.2-2.3-1.4-4.3-3.7-4.6l-248.5-25.8C281.6,553.9,281.5,553.9,281.3,553.9z" style="fill: rgb(47, 48, 104);"/>
	</g>
	<g>
		<path class="st2" d="M612.2,594.3H572c-1.6,0-2.9-1.3-2.9-2.9c0-1.6,1.3-2.9,2.9-2.9h39l11.2-11.2c0.5-0.5,1.3-0.9,2.1-0.9h155.4&#10;&#9;&#9;&#9;c1.6,0,2.9,1.3,2.9,2.9s-1.3,2.9-2.9,2.9H625.4l-11.2,11.2C613.7,594,613,594.3,612.2,594.3z" style="fill: rgb(47, 48, 104);"/>
		<g>
			<path class="st7" d="M771.4,512.8v-17.1h-72.7c0,7.3-5.9,13.1-13.1,13.1s-13.1-5.9-13.1-13.1h-41.4v83.6h64.3&#10;&#9;&#9;&#9;&#9;c0.3-9.2,7.8-16.5,17-16.5c9.2,0,16.7,7.3,17,16.5h42v-38.2c-7.8,0-14.2-6.4-14.2-14.2C757.2,519.2,763.5,512.8,771.4,512.8z" style="fill: rgb(255, 239, 188);"/>
			<path class="st8" d="M771.4,541.2c-5.8,0-10.8-3.5-13-8.5c-24.6,16.4-67.3,32.8-127.3,38.7v8h64.3c0.3-9.2,7.8-16.5,17-16.5&#10;&#9;&#9;&#9;&#9;c9.2,0,16.7,7.3,17,16.5h42V541.2z" style="fill: rgb(234, 214, 157);"/>
			<g>
				<g>
					<g>
						<path class="st9" d="M771.4,542.5v-1.3c-0.1,0-0.1,0-0.2,0C771.2,541.7,771.3,542.1,771.4,542.5z" style="fill: rgb(255, 250, 236);"/>
					</g>
					<g>
						<path class="st9" d="M672.8,502.9c0,8.4,6.8,15.2,15.2,15.2s15.2-6.8,15.2-15.2h68.1v-7.2h-72.7c0,7.3-5.9,13.1-13.1,13.1&#10;&#9;&#9;&#9;&#9;&#9;&#9;&#9;s-13.1-5.9-13.1-13.1h-41.4v7.2H672.8z" style="fill: rgb(255, 250, 236);"/>
					</g>
				</g>
			</g>
			<path class="st2" d="M771.4,582.3h-42c-1.6,0-2.9-1.2-2.9-2.8c-0.3-7.7-6.5-13.7-14.1-13.7c-7.7,0-13.9,6-14.1,13.7&#10;&#9;&#9;&#9;&#9;c-0.1,1.6-1.3,2.8-2.9,2.8h-64.3c-1.6,0-2.9-1.3-2.9-2.9v-83.6c0-1.6,1.3-2.9,2.9-2.9h41.4c1.6,0,2.9,1.3,2.9,2.9&#10;&#9;&#9;&#9;&#9;c0,5.6,4.6,10.2,10.2,10.2s10.2-4.6,10.2-10.2c0-1.6,1.3-2.9,2.9-2.9h72.7c1.6,0,2.9,1.3,2.9,2.9v17.1c0,1.6-1.3,2.9-2.9,2.9&#10;&#9;&#9;&#9;&#9;c-6.2,0-11.3,5.1-11.3,11.3c0,6.2,5.1,11.3,11.3,11.3c1.6,0,2.9,1.3,2.9,2.9v38.2C774.3,581,773,582.3,771.4,582.3z M732.1,576.5&#10;&#9;&#9;&#9;&#9;h36.4v-32.6c-8.1-1.4-14.2-8.4-14.2-16.9c0-8.5,6.2-15.5,14.2-16.9v-11.5h-67.1c-1.4,7.5-7.9,13.1-15.8,13.1s-14.4-5.7-15.8-13.1&#10;&#9;&#9;&#9;&#9;H634v77.8h58.8c1.6-9.4,9.8-16.5,19.6-16.5C722.3,560,730.4,567,732.1,576.5z" style="fill: rgb(47, 48, 104);"/>
			<path d="M 682.599988 543.200012 A 15.8 15.8 0 0 1 666.799988 559.000012 A 15.8 15.8 0 0 1 650.999988 543.200012 A 15.8 15.8 0 0 1 666.799988 527.400012 A 15.8 15.8 0 0 1 682.599988 543.200012 Z" class="st9" style="fill: rgb(255, 250, 236);"/>
			<path d="M 673.699976 542.299988 A 12.1 12.1 0 0 1 661.599976 554.399988 A 12.1 12.1 0 0 1 649.499975 542.299988 A 12.1 12.1 0 0 1 661.599976 530.199987 A 12.1 12.1 0 0 1 673.699976 542.299988 Z" class="st10" style="fill: rgb(204, 176, 113);"/>
			<path class="st2" d="M661.6,557.3c-8.3,0-15-6.7-15-15c0-8.3,6.7-15,15-15c8.3,0,15,6.7,15,15&#10;&#9;&#9;&#9;&#9;C676.6,550.5,669.9,557.3,661.6,557.3z M661.6,533.1c-5.1,0-9.2,4.1-9.2,9.2c0,5.1,4.1,9.2,9.2,9.2s9.2-4.1,9.2-9.2&#10;&#9;&#9;&#9;&#9;C670.8,537.2,666.7,533.1,661.6,533.1z" style="fill: rgb(47, 48, 104);"/>
			<path d="M 744.600025 526.099976 A 16.200001 16.200001 0 0 1 728.400024 542.299976 A 16.200001 16.200001 0 0 1 712.200024 526.099976 A 16.200001 16.200001 0 0 1 728.400024 509.899975 A 16.200001 16.200001 0 0 1 744.600025 526.099976 Z" class="st9" style="fill: rgb(255, 250, 236);"/>
			<path d="M 736.2 525.099976 A 13.7 13.7 0 0 1 722.5 538.799975 A 13.7 13.7 0 0 1 708.8 525.099976 A 13.7 13.7 0 0 1 722.5 511.399976 A 13.7 13.7 0 0 1 736.2 525.099976 Z" class="st10" style="fill: rgb(204, 176, 113);"/>
			<path class="st2" d="M722.5,541.8c-9.2,0-16.6-7.5-16.6-16.6c0-9.2,7.5-16.6,16.6-16.6c9.2,0,16.6,7.5,16.6,16.6&#10;&#9;&#9;&#9;&#9;C739.2,534.3,731.7,541.8,722.5,541.8z M722.5,514.3c-6,0-10.8,4.9-10.8,10.8c0,6,4.9,10.8,10.8,10.8c6,0,10.8-4.9,10.8-10.8&#10;&#9;&#9;&#9;&#9;C733.4,519.1,728.5,514.3,722.5,514.3z" style="fill: rgb(47, 48, 104);"/>
		</g>
	</g>
	<path class="st2" d="M284.2,604.2c-1.6,0-2.9-1.3-2.9-2.9v-9.8h-29.2c-1.6,0-2.9-1.3-2.9-2.9s1.3-2.9,2.9-2.9h32.1&#10;&#9;&#9;c1.6,0,2.9,1.3,2.9,2.9v12.7C287.1,602.9,285.8,604.2,284.2,604.2z" style="fill: rgb(47, 48, 104);"/>
</g>
<g>
	<path class="st2" d="M987.9,631.1c0,0-0.8,0.1-2.2,0.2c-0.4,0-0.8,0.1-1.2,0.1c-0.2,0-0.5,0-0.7,0.1c-0.3,0-0.6,0-0.9,0.1&#10;&#9;&#9;c-1.2,0.1-2.7,0.2-4.3,0.2c-3,0-6.7-0.1-10.8-0.7c-4.1-0.5-8.7-1.4-13.5-2.8c-9.6-2.7-20.2-7.3-30.6-13.4c-1.3-0.8-2.6-1.5-3.9-2.3&#10;&#9;&#9;c-1.3-0.8-2.5-1.5-3.8-2.4c-2.6-1.7-5.2-3.3-7.8-5c-5.1-3.4-10.2-6.8-15.4-10.3c-5.1-3.4-10.2-6.7-15.4-9.6&#10;&#9;&#9;c-5.2-3-10.3-5.6-15.5-7.8c-5-2.1-10.2-3.8-15.1-5c-4.9-1.2-9.7-1.8-14.1-2.1c-2.2-0.2-4.3-0.1-6.3-0.1c-2,0.2-3.9,0.2-5.6,0.5&#10;&#9;&#9;c-3.5,0.4-6.5,1.3-9,2c-2.4,0.8-4.3,1.5-5.5,2.2c-1.2,0.6-1.9,0.9-1.9,0.9l-0.2,0.1c-1.5,0.7-3.2,0-3.9-1.4&#10;&#9;&#9;c-0.7-1.4-0.1-3.1,1.3-3.8c0,0,0.7-0.4,2.1-1.1c1.3-0.8,3.4-1.7,6.1-2.8c2.7-1,6-2.1,9.9-2.8c2-0.4,4.1-0.6,6.3-0.9&#10;&#9;&#9;c2.2-0.2,4.6-0.3,7-0.3c4.9,0,10.1,0.5,15.6,1.5c5.5,1,11.1,2.5,16.9,4.6c5.6,2,11.3,4.6,16.9,7.4c5.6,2.8,11.1,5.9,16.4,9.1&#10;&#9;&#9;c5.3,3.2,10.6,6.3,15.9,9.5c2.6,1.5,5.2,3,7.7,4.4c1.2,0.7,2.6,1.4,3.9,2.1c1.2,0.7,2.5,1.3,3.7,2c10,5.1,19.7,8.7,28,10.6&#10;&#9;&#9;c4.2,1,8,1.5,11.4,1.7c3.4,0.3,6.3,0.2,8.7,0.1c1.1-0.1,2.1-0.2,2.9-0.3c0.2,0,0.4,0,0.6-0.1c0.2,0,0.5-0.1,0.7-0.1&#10;&#9;&#9;c0.4-0.1,0.8-0.1,1.2-0.2c1.4-0.2,2.2-0.4,2.2-0.4c4.4-0.7,8.6,2.3,9.4,6.7c0.7,4.4-2.3,8.6-6.7,9.4&#10;&#9;&#9;C988.2,631.1,988,631.1,987.9,631.1z" style="fill: rgb(47, 48, 104);"/>
	<path class="st11" d="M1076.1,646.5h-7.1c15.4-32.8,5.3-44.9-8-48.5c5.8-25.6-0.2-48.8-9.4-67.1c-2.9-5.8-6.2-11.1-9.5-15.8&#10;&#9;&#9;c4.1-5.8,6.6-12.9,6.6-20.6c0-19.6-15.9-35.4-35.4-35.4c-18,0-32.9,13.5-35.1,30.9c-27.2,6.4-49.3,25.8-59.6,51.2&#10;&#9;&#9;c12.9,13.7,30.3,23.2,49.8,26.1c-12.2,16.2-16,30-15.9,40.9c-40.9,5.6-49.4,38.3-49.4,38.3h-7c-9.2,0-16.6,7.4-16.6,16.6v9h52.2v0&#10;&#9;&#9;c8.7-13.4,22.9-24,39.8-29.6c8.8-2.9,19.2-4.5,31.8-4.5c13,0,21,4.2,25.9,9.6c6.1,6.6,7.6,15.2,7.9,20.2v4.3h55.7v-9&#10;&#9;&#9;C1092.7,653.9,1085.3,646.5,1076.1,646.5z" style="fill: rgb(200, 162, 125);"/>
	<path class="st12" d="M903,646.5h-7c-9.2,0-16.6,7.4-16.6,16.6v9h8.2v-11.7c0-4.2,3.4-7.6,7.6-7.6h13.6c0,0,10-36.8,39.1-44&#10;&#9;&#9;C910.9,616.1,903,646.5,903,646.5z" style="fill: rgb(220, 187, 157);"/>
	<path class="st13" d="M931.6,672.1c8.7-13.4,22.9-24,39.8-29.6c8.8-2.9,19.2-4.5,31.8-4.5c13,0,21,4.2,25.9,9.6&#10;&#9;&#9;c6.1,6.6,7.6,15.2,7.9,20.2v4.3h55.7v-7.6h-48.4c0,0,3.5-35-44.3-35c-47.8,0-63.5,32.1-72,42.5L931.6,672.1L931.6,672.1z" style="fill: rgb(165, 122, 86);"/>
	<path class="st2" d="M1092.7,675h-55.7c-1.6,0-2.9-1.3-2.9-2.9v-4.2c-0.3-4.3-1.6-12.3-7.1-18.3c-5.2-5.8-13.3-8.7-23.8-8.7&#10;&#9;&#9;c-11.9,0-22,1.4-30.9,4.4c-16.4,5.4-29.9,15.5-38.3,28.3c-0.5,0.8-1.4,1.4-2.5,1.4h-52.2c-1.6,0-2.9-1.3-2.9-2.9v-9&#10;&#9;&#9;c0-10.8,8.8-19.5,19.5-19.5h4.9c2.8-7.5,14.4-32.2,48.6-37.9c0.5-11.7,5.1-23.9,13.7-36.3c-17.8-3.6-34.3-12.8-46.8-26.1&#10;&#9;&#9;c-0.8-0.8-1-2-0.6-3.1c10.5-25.9,32.8-45.4,59.7-52.4c3.3-18.1,19.1-31.4,37.7-31.4c21.1,0,38.3,17.2,38.3,38.3&#10;&#9;&#9;c0,7.3-2.1,14.4-6,20.5c3.2,4.7,6.1,9.6,8.6,14.5c11,21.7,14.5,44.6,10.2,66.4c6.2,2.2,10.6,6.1,13,11.4c4,8.6,2.6,20.7-3.9,36.1&#10;&#9;&#9;h2.6c10.8,0,19.5,8.8,19.5,19.5v9C1095.6,673.7,1094.3,675,1092.7,675z M1040,669.2h49.8v-6.1c0-7.6-6.1-13.7-13.7-13.7h-7.1&#10;&#9;&#9;c-1,0-1.9-0.5-2.5-1.4c-0.5-0.8-0.6-1.9-0.2-2.8c7.4-15.8,9.4-27.7,5.8-35.4c-2.1-4.4-6.1-7.5-11.9-9.1c-1.5-0.4-2.4-1.9-2.1-3.5&#10;&#9;&#9;c6.1-26.9-1.6-50.2-9.2-65.1c-2.7-5.3-5.8-10.5-9.3-15.4c-0.7-1-0.7-2.4,0-3.4c4-5.5,6-12.1,6-18.9c0-17.9-14.6-32.5-32.5-32.5&#10;&#9;&#9;c-16.3,0-30.1,12.2-32.2,28.3c-0.2,1.2-1,2.2-2.2,2.5c-25.4,6-46.5,23.8-56.9,47.7c12.6,12.8,29.1,21.2,46.8,23.8&#10;&#9;&#9;c1,0.2,1.9,0.8,2.3,1.8c0.4,1,0.2,2-0.4,2.9c-10.3,13.6-15.4,26.7-15.3,39.1c0,1.5-1.1,2.7-2.5,2.9c-38.5,5.2-46.9,35.8-47,36.1&#10;&#9;&#9;c-0.3,1.3-1.5,2.2-2.8,2.2h-7c-7.6,0-13.7,6.1-13.7,13.7v6.1h47.7c9.1-13.3,23.4-23.8,40.5-29.4c9.4-3.1,20.1-4.6,32.7-4.6&#10;&#9;&#9;c12.3,0,21.7,3.6,28.1,10.6c6.4,7,8.2,15.8,8.6,22c0,0.1,0,0.1,0,0.2V669.2z" style="fill: rgb(47, 48, 104);"/>
	<path d="M 976.500024 517.200012 A 7.6 7.6 0 0 1 968.900024 524.800012 A 7.6 7.6 0 0 1 961.300025 517.200012 A 7.6 7.6 0 0 1 968.900024 509.600012 A 7.6 7.6 0 0 1 976.500024 517.200012 Z" class="st2" style="fill: rgb(47, 48, 104);"/>
	<path class="st2" d="M1035.2,525.3c-0.9,0-1.7-0.4-2.3-1.1c-1-1.3-0.8-3.1,0.5-4.1c7.9-6.2,12.4-15.5,12.4-25.5&#10;&#9;&#9;c0-17.9-14.6-32.5-32.5-32.5s-32.5,14.6-32.5,32.5c0,2.2,0.2,4.4,0.7,6.6c0.3,1.6-0.7,3.1-2.3,3.4c-1.6,0.3-3.1-0.7-3.4-2.3&#10;&#9;&#9;c-0.5-2.5-0.8-5.1-0.8-7.7c0-21.1,17.2-38.3,38.3-38.3s38.3,17.2,38.3,38.3c0,11.8-5.3,22.8-14.6,30.1&#10;&#9;&#9;C1036.4,525.1,1035.8,525.3,1035.2,525.3z" style="fill: rgb(47, 48, 104);"/>
	<path d="M 1035.599987 494.600006 A 22.299999 22.299999 0 0 1 1013.299988 516.900005 A 22.299999 22.299999 0 0 1 990.999989 494.600006 A 22.299999 22.299999 0 0 1 1013.299988 472.300007 A 22.299999 22.299999 0 0 1 1035.599987 494.600006 Z" class="st14" style="fill: rgb(245, 216, 188);"/>
	<path class="st15" d="M1013.3,472.2c-0.1,0-0.2,0-0.3,0c7.4,3.6,12.6,11.2,12.6,20.1c0,12.2-9.8,22.2-22,22.3&#10;&#9;&#9;c3,1.4,6.3,2.3,9.8,2.3c12.3,0,22.3-10,22.3-22.3S1025.6,472.2,1013.3,472.2z" style="fill: rgb(224, 191, 164);"/>
	<path class="st2" d="M1013.3,519.8c-1.6,0-2.9-1.3-2.9-2.9s1.3-2.9,2.9-2.9c10.7,0,19.4-8.7,19.4-19.4s-8.7-19.4-19.4-19.4&#10;&#9;&#9;c-10.7,0-19.4,8.7-19.4,19.4c0,1.6-1.3,2.9-2.9,2.9s-2.9-1.3-2.9-2.9c0-13.9,11.3-25.2,25.2-25.2c13.9,0,25.2,11.3,25.2,25.2&#10;&#9;&#9;S1027.2,519.8,1013.3,519.8z" style="fill: rgb(47, 48, 104);"/>
	<path class="st14" d="M1010.6,553.4c-18.2-1-33.9,16.3-35.1,38.7c-1.2,22.3,11.8,30.6,29.9,31.6c18.2,1,34.6-5.7,35.8-28&#10;&#9;&#9;C1042.5,573.3,1028.7,554.4,1010.6,553.4z" style="fill: rgb(245, 216, 188);"/>
	<g>
		<path class="st11" d="M1042.4,565.3c-8.4,7.4-15.1,16.8-19.4,27.2c-1.6,3.8-2.7,8.4-0.2,11.7c2.6,3.3,7.6,3.3,11.7,2.1&#10;&#9;&#9;&#9;c10.6-3,19.4-11.9,22.4-22.5L1042.4,565.3z" style="fill: rgb(200, 162, 125);"/>
		<path class="st13" d="M1031.4,598.9c-11.2-3.1,9.9-31.4,9.9-31.4s-0.3-0.1-0.8-0.4c-7.5,7.1-13.5,15.8-17.5,25.3&#10;&#9;&#9;&#9;c-1.6,3.8-2.7,8.4-0.2,11.7c2.6,3.3,7.6,3.3,11.7,2.1c10-2.9,18.4-10.9,21.8-20.8C1050.8,591.6,1042.6,602,1031.4,598.9z" style="fill: rgb(165, 122, 86);"/>
		<path class="st11" d="M976.3,575c7.2,7.2,12.6,16.2,15.5,25.9c0.9,2.9,1.4,6.5-0.8,8.7c-1.8,1.8-4.6,1.8-7.1,1.5&#10;&#9;&#9;&#9;c-9.1-1.2-17.7-6-23.6-13.1L976.3,575z" style="fill: rgb(200, 162, 125);"/>
		<path class="st13" d="M985.8,587.3c1.3,8.4-0.2,14.7-3.3,15.8c-3.4,1.2-11.8,0.6-18-0.9c5.4,4.8,12.3,7.9,19.5,8.9&#10;&#9;&#9;&#9;c2.5,0.3,5.4,0.3,7.1-1.5c2.1-2.2,1.6-5.8,0.8-8.7C990.3,596.1,988.3,591.5,985.8,587.3z" style="fill: rgb(165, 122, 86);"/>
	</g>
	<g>
		<path class="st2" d="M1029.7,609.9c-3.9,0-7.1-1.4-9.2-4c-2.7-3.5-2.7-8.4-0.2-14.6c4.5-10.8,11.4-20.5,20.2-28.2&#10;&#9;&#9;&#9;c1.2-1.1,3-1,4.1,0.3c1.1,1.2,1,3-0.3,4.1c-8.1,7.1-14.5,16.1-18.6,26.1c-1.7,4.1-1.9,7.1-0.6,8.8c1.7,2.1,5.5,2,8.5,1.1&#10;&#9;&#9;&#9;c9.7-2.8,17.6-10.8,20.4-20.5c0.4-1.5,2-2.5,3.6-2c1.5,0.4,2.5,2,2,3.6c-3.2,11.6-12.8,21.2-24.4,24.5&#10;&#9;&#9;&#9;C1033.3,609.6,1031.4,609.9,1029.7,609.9z" style="fill: rgb(47, 48, 104);"/>
		<path class="st2" d="M986.1,614.2c-0.8,0-1.7-0.1-2.6-0.2c-9.9-1.3-19.1-6.5-25.4-14.2c-1-1.2-0.8-3.1,0.4-4.1&#10;&#9;&#9;&#9;c1.2-1,3.1-0.8,4.1,0.4c5.4,6.6,13.3,11,21.7,12.1c2.3,0.3,4,0.1,4.7-0.7c0.9-0.9,0.9-3,0-5.8c-2.8-9.3-7.9-17.8-14.7-24.7&#10;&#9;&#9;&#9;c-1.1-1.1-1.1-3,0-4.1c1.1-1.1,3-1.1,4.1,0c7.5,7.5,13.1,16.9,16.2,27.1c1.5,5.1,1.1,9-1.5,11.6&#10;&#9;&#9;&#9;C991.4,613.3,989.1,614.2,986.1,614.2z" style="fill: rgb(47, 48, 104);"/>
	</g>
	<g>
		<path class="st2" d="M940.1,486.7c-1.1,0-2.1-0.6-2.6-1.6l-8.1-16.8c-0.7-1.4-0.1-3.2,1.3-3.9c1.4-0.7,3.2-0.1,3.9,1.3l8.1,16.8&#10;&#9;&#9;&#9;c0.7,1.4,0.1,3.2-1.3,3.9C941,486.6,940.6,486.7,940.1,486.7z" style="fill: rgb(47, 48, 104);"/>
		<g>
			<path class="st2" d="M953.3,485c-0.4,0-0.7-0.1-1.1-0.2c-1.5-0.6-2.2-2.3-1.6-3.8l7-17.3c0.6-1.5,2.3-2.2,3.8-1.6&#10;&#9;&#9;&#9;&#9;c1.5,0.6,2.2,2.3,1.6,3.8l-7,17.3C955.5,484.3,954.4,485,953.3,485z" style="fill: rgb(47, 48, 104);"/>
			<path class="st2" d="M930.7,495.9c-0.3,0-0.5,0-0.8-0.1l-17.9-5.2c-1.5-0.4-2.4-2.1-2-3.6c0.4-1.5,2.1-2.4,3.6-2l17.9,5.2&#10;&#9;&#9;&#9;&#9;c1.5,0.4,2.4,2.1,2,3.6C933.2,495.1,932,495.9,930.7,495.9z" style="fill: rgb(47, 48, 104);"/>
		</g>
	</g>
	<path class="st2" d="M1052.4,601.8c-0.9,0-1.8-0.4-2.4-1.2c-0.9-1.3-0.6-3.1,0.7-4.1c4-2.9,8.1-2.4,10.2-1.8c1.6,0.4,2.5,2,2,3.6&#10;&#9;&#9;c-0.4,1.6-2,2.5-3.6,2c-1.3-0.4-3.3-0.5-5.3,0.9C1053.6,601.6,1053,601.8,1052.4,601.8z" style="fill: rgb(47, 48, 104);"/>
	<path class="st2" d="M963.1,611.8c-0.4,0-0.8-0.1-1.3-0.3c-2.5-1.2-5.3-1.3-8.7-0.5c-1.6,0.4-3.1-0.6-3.5-2.1&#10;&#9;&#9;c-0.4-1.6,0.6-3.1,2.1-3.5c4.7-1.2,8.9-0.9,12.6,0.9c1.5,0.7,2.1,2.4,1.4,3.9C965.2,611.2,964.1,611.8,963.1,611.8z" style="fill: rgb(47, 48, 104);"/>
	<path d="M 928.100012 535.900024 A 8.9 8.9 0 0 1 919.200012 544.800024 A 8.9 8.9 0 0 1 910.300013 535.900024 A 8.9 8.9 0 0 1 919.200012 527.000025 A 8.9 8.9 0 0 1 928.100012 535.900024 Z" class="st2" style="fill: rgb(47, 48, 104);"/>
</g>
<path class="st2" d="M1292.1,675H107.9c-1.6,0-2.9-1.3-2.9-2.9c0-1.6,1.3-2.9,2.9-2.9h1184.2c1.6,0,2.9,1.3,2.9,2.9&#10;&#9;C1295,673.7,1293.7,675,1292.1,675z" style="fill: rgb(47, 48, 104);"/>
</svg>