<?xml version="1.0" encoding="utf-8"?>
<!-- Generator: Adobe Illustrator 15.0.0, SVG Export Plug-In . SVG Version: 6.00 Build 0)  -->
<!DOCTYPE svg PUBLIC "-//W3C//DTD SVG 1.0//EN" "http://www.w3.org/TR/2001/REC-SVG-20010904/DTD/svg10.dtd">
<svg version="1.0" xmlns="http://www.w3.org/2000/svg" xmlns:xlink="http://www.w3.org/1999/xlink" x="0px" y="0px" width="1400px"
	 height="980px" viewBox="0 0 1400 980" enable-background="new 0 0 1400 980" xml:space="preserve">
<g id="background">
	<rect fill="#FBD4DA" width="1400" height="980"/>
</g>
<g id="icons">
	<g>
		<ellipse opacity="0.1" cx="520.005" cy="287.079" rx="132.013" ry="19.336"/>
		<g>
			<g>
				
					<path fill="#FFD27C" stroke="#000000" stroke-width="8" stroke-linecap="round" stroke-linejoin="round" stroke-miterlimit="10" d="
					M456.904,276.95l-43.905-112.434c0,0,12.024-89.113,110.921-89.113c98.893,0,110.916,89.113,110.916,89.113L591.499,276.95
					H456.904z"/>
				<g>
					
						<path fill="#ED1C24" stroke="#000000" stroke-width="8" stroke-linecap="round" stroke-linejoin="round" stroke-miterlimit="10" d="
						M593.484,280.128c7.905-5.646,44.986-73.977,44.986-117.445c-6.56,1.848-12.304,12.271-20.848,13.656
						c-7.164,1.162-16.11-6.791-24.304-5.949c-7.436,0.76-14.483,10.395-22.503,10.889c-7.594,0.471-15.805-8.202-23.707-7.971
						c-7.707,0.227-15.381,9.375-23.186,9.371c-7.805,0-15.478-9.145-23.186-9.371c-7.904-0.231-16.117,8.441-23.708,7.971
						c-8.021-0.494-15.072-10.129-22.506-10.889c-8.197-0.842-17.145,7.111-24.309,5.949c-8.545-1.385-14.291-11.809-20.854-13.656
						c0,43.469,37.083,111.799,44.989,117.445c0,0,17.756,5.648,69.566,5.648S593.484,280.128,593.484,280.128z"/>
					
						<path fill="#C4161C" stroke="#000000" stroke-width="8" stroke-linecap="round" stroke-linejoin="round" stroke-miterlimit="10" d="
						M409.362,162.683c0,43.469,37.083,111.799,44.989,117.445c0,0,3.141,0.998,10.63,2.156l-34.766-105.945
						C421.671,174.954,415.925,164.53,409.362,162.683z M454.524,170.39l27.923,113.889c3.485,0.287,7.339,0.551,11.582,0.775
						L477.03,181.278C469.009,180.784,461.958,171.149,454.524,170.39z M547.109,173.308l-5.766,112.24
						c3.841-0.107,7.435-0.248,10.791-0.41l18.682-103.859C563.223,181.749,555.012,173.076,547.109,173.308z M593.319,170.39
						l-23.028,113.449c4.064-0.398,7.522-0.82,10.434-1.236l36.898-106.264C610.459,177.501,601.513,169.548,593.319,170.39z
						 M511.338,285.659c3.431,0.066,7.037,0.107,10.834,0.117l1.752-103.098c-7.805,0-15.478-9.145-23.186-9.371L511.338,285.659z"
						/>
				</g>
				<g>
					
						<path fill="#A1DBE4" stroke="#000000" stroke-width="8" stroke-linecap="round" stroke-linejoin="round" stroke-miterlimit="10" d="
						M523.92,75.403c-65.528,0-92.914,39.119-103.938,65.523c0.024,0,0.046,0,0.066,0.002c11.161,1.145,21.744,15.605,33.783,16.35
						c11.401,0.709,23.731-12.314,35.595-11.969c11.572,0.34,23.091,14.072,34.808,14.072s23.237-13.732,34.808-14.072
						c11.863-0.35,24.188,12.674,35.587,11.967c11.85-0.732,22.291-14.744,33.258-16.275
						C616.884,114.599,589.506,75.403,523.92,75.403z"/>
					
						<path fill="#16BECF" stroke="#000000" stroke-width="8" stroke-linecap="round" stroke-linejoin="round" stroke-miterlimit="10" d="
						M523.92,75.403c-41.428,0-67.609,15.635-84.051,33.809c4.508,2.982,9.118,5.506,13.962,5.805
						c11.401,0.705,23.731-12.318,35.595-11.967c11.572,0.338,23.091,14.066,34.808,14.066
						c11.717,0.004,23.237-13.729,34.808-14.066c11.863-0.352,24.188,12.672,35.587,11.967c4.706-0.293,9.188-2.68,13.57-5.549
						C591.771,91.185,565.539,75.403,523.92,75.403z"/>
				</g>
			</g>
		</g>
	</g>
	<g>
		<ellipse opacity="0.1" cx="862.628" cy="287.079" rx="132.014" ry="19.336"/>
		<g>
			<g>
				<g>
					
						<path fill="#FAA74A" stroke="#000000" stroke-width="8" stroke-linecap="round" stroke-linejoin="round" stroke-miterlimit="10" d="
						M862.628,59.769c-62.408,0-113.004,50.596-113.004,113.006c0,62.412,50.596,113.002,113.004,113.002
						c62.412,0,113.004-50.59,113.004-113.002C975.632,110.364,925.04,59.769,862.628,59.769z M862.628,206.011
						c-18.354,0-33.236-14.881-33.236-33.236c0-18.357,14.883-33.239,33.236-33.239c18.354,0,33.236,14.882,33.236,33.239
						C895.864,191.13,880.982,206.011,862.628,206.011z"/>
					
						<path fill="#F287B7" stroke="#000000" stroke-width="8" stroke-linecap="round" stroke-linejoin="round" stroke-miterlimit="10" d="
						M949.568,134.91c-6.536-15.778,2.551-25.093-10.954-39.835c-14.429-12.514-25.747-4.129-41.371-10.602
						c-15.625-6.469-15.467-19.479-34.518-20.834c-19.975,0.879-21.711,14.539-37.495,21.08
						c-15.783,6.535-25.094-2.553-39.839,10.953c-14.094,15.082-3.475,27.326-10.603,41.373
						c-6.47,15.623-19.478,15.463-20.179,36.094c0.878,19.975,14.541,21.713,20.425,35.918c6.535,15.783-2.55,25.094,10.953,39.838
						c15.084,14.096,25.75,4.131,41.374,10.597c15.622,6.474,14.54,21.714,35.169,22.417c19.977-0.879,21.06-16.119,36.841-22.658
						c15.784-6.537,25.749,4.129,40.495-9.375c12.514-14.432,3.474-27.324,10.601-41.371c5.815-17.205,19.48-15.465,20.178-36.098
						C969.769,152.433,956.106,150.694,949.568,134.91z M862.628,206.011c-18.354,0-33.236-14.881-33.236-33.236
						c0-18.357,14.883-33.239,33.236-33.239c18.354,0,33.236,14.882,33.236,33.239C895.864,191.13,880.982,206.011,862.628,206.011z
						"/>
				</g>
				<g>
					<g>
						
							<line fill="#FAA74A" stroke="#000000" stroke-width="8" stroke-linecap="round" stroke-linejoin="round" stroke-miterlimit="10" x1="855.548" y1="117.218" x2="879.471" y2="117.218"/>
						
							<line fill="#FAA74A" stroke="#000000" stroke-width="8" stroke-linecap="round" stroke-linejoin="round" stroke-miterlimit="10" x1="935.402" y1="213.587" x2="935.402" y2="237.515"/>
						
							<line fill="#FAA74A" stroke="#000000" stroke-width="8" stroke-linecap="round" stroke-linejoin="round" stroke-miterlimit="10" x1="910.749" y1="154.169" x2="910.749" y2="178.089"/>
						
							<line fill="#FAA74A" stroke="#000000" stroke-width="8" stroke-linecap="round" stroke-linejoin="round" stroke-miterlimit="10" x1="924.522" y1="93.29" x2="924.522" y2="117.218"/>
						
							<line fill="#FAA74A" stroke="#000000" stroke-width="8" stroke-linecap="round" stroke-linejoin="round" stroke-miterlimit="10" x1="942.144" y1="144.753" x2="918.218" y2="144.753"/>
						
							<line fill="#FAA74A" stroke="#000000" stroke-width="8" stroke-linecap="round" stroke-linejoin="round" stroke-miterlimit="10" x1="903.276" y1="240.294" x2="886.358" y2="223.378"/>
						
							<line fill="#FAA74A" stroke="#000000" stroke-width="8" stroke-linecap="round" stroke-linejoin="round" stroke-miterlimit="10" x1="887.637" y1="135.837" x2="904.553" y2="118.919"/>
						
							<line fill="#FAA74A" stroke="#000000" stroke-width="8" stroke-linecap="round" stroke-linejoin="round" stroke-miterlimit="10" x1="816.774" y1="135.53" x2="799.858" y2="152.444"/>
						
							<line fill="#FAA74A" stroke="#000000" stroke-width="8" stroke-linecap="round" stroke-linejoin="round" stroke-miterlimit="10" x1="938.296" y1="167.786" x2="955.212" y2="184.7"/>
						
							<line fill="#FAA74A" stroke="#000000" stroke-width="8" stroke-linecap="round" stroke-linejoin="round" stroke-miterlimit="10" x1="866.322" y1="80.981" x2="883.239" y2="97.899"/>
					</g>
				</g>
			</g>
			<g>
				<g>
					<g>
						
							<line fill="#FAA74A" stroke="#000000" stroke-width="8" stroke-linecap="round" stroke-linejoin="round" stroke-miterlimit="10" x1="869.708" y1="228.325" x2="845.784" y2="228.325"/>
						
							<line fill="#FAA74A" stroke="#000000" stroke-width="8" stroke-linecap="round" stroke-linejoin="round" stroke-miterlimit="10" x1="789.854" y1="131.956" x2="789.854" y2="108.03"/>
						
							<line fill="#FAA74A" stroke="#000000" stroke-width="8" stroke-linecap="round" stroke-linejoin="round" stroke-miterlimit="10" x1="814.506" y1="191.376" x2="814.506" y2="167.454"/>
						
							<line fill="#FAA74A" stroke="#000000" stroke-width="8" stroke-linecap="round" stroke-linejoin="round" stroke-miterlimit="10" x1="800.734" y1="252.253" x2="800.734" y2="228.325"/>
						
							<line fill="#FAA74A" stroke="#000000" stroke-width="8" stroke-linecap="round" stroke-linejoin="round" stroke-miterlimit="10" x1="783.112" y1="200.792" x2="807.037" y2="200.792"/>
						
							<line fill="#FAA74A" stroke="#000000" stroke-width="8" stroke-linecap="round" stroke-linejoin="round" stroke-miterlimit="10" x1="821.979" y1="105.251" x2="838.897" y2="122.167"/>
						
							<line fill="#FAA74A" stroke="#000000" stroke-width="8" stroke-linecap="round" stroke-linejoin="round" stroke-miterlimit="10" x1="837.619" y1="209.708" x2="820.703" y2="226.626"/>
						
							<line fill="#FAA74A" stroke="#000000" stroke-width="8" stroke-linecap="round" stroke-linejoin="round" stroke-miterlimit="10" x1="908.482" y1="210.015" x2="925.398" y2="193.099"/>
						
							<line fill="#FAA74A" stroke="#000000" stroke-width="8" stroke-linecap="round" stroke-linejoin="round" stroke-miterlimit="10" x1="786.96" y1="177.759" x2="770.044" y2="160.843"/>
						
							<line fill="#FAA74A" stroke="#000000" stroke-width="8" stroke-linecap="round" stroke-linejoin="round" stroke-miterlimit="10" x1="858.935" y1="264.563" x2="842.018" y2="247.646"/>
					</g>
				</g>
			</g>
		</g>
	</g>
	<g>
		<ellipse opacity="0.1" cx="190.665" cy="287.078" rx="114.496" ry="19.336"/>
		<g>
			
				<path fill="#BA9765" stroke="#000000" stroke-width="8" stroke-linecap="round" stroke-linejoin="round" stroke-miterlimit="10" d="
				M296.336,183.428c6.275-1.535,10.945-7.16,10.941-13.911c0.004-6.745-4.664-12.372-10.941-13.913
				c5.662-3.107,8.718-9.749,6.966-16.27c-1.739-6.518-7.708-10.743-14.171-10.604c4.67-4.47,5.9-11.675,2.521-17.521
				c-3.369-5.844-10.227-8.381-16.432-6.576c3.351-5.525,2.674-12.803-2.102-17.574c-4.765-4.773-12.048-5.45-17.572-2.101
				c1.805-6.202-0.731-13.058-6.578-16.431c-5.842-3.377-13.051-2.146-17.52,2.521c0.141-6.46-4.084-12.425-10.607-14.169
				c-6.516-1.752-13.162,1.305-16.271,6.971c-1.537-6.273-7.16-10.945-13.91-10.945c-6.748,0-12.371,4.673-13.908,10.947
				c-3.114-5.662-9.752-8.721-16.271-6.975c-6.52,1.748-10.742,7.717-10.607,14.177c-4.47-4.664-11.672-5.899-17.52-2.526
				c-5.848,3.376-8.379,10.234-6.574,16.438c-5.523-3.348-12.801-2.676-17.576,2.097c-4.775,4.773-5.447,12.052-2.096,17.579
				c-6.201-1.807-13.061,0.726-16.438,6.573c-3.377,5.849-2.143,13.052,2.527,17.522c-6.457-0.14-12.426,4.08-14.176,10.604
				c-1.748,6.521,1.309,13.162,6.977,16.271c-6.275,1.535-10.947,7.156-10.947,13.911c-0.004,6.752,4.67,12.374,10.947,13.911
				c-5.662,3.108-8.723,9.746-6.973,16.27c1.742,6.522,7.711,10.745,14.174,10.605c-4.666,4.469-5.902,11.672-2.523,17.521
				c3.371,5.848,10.23,8.379,16.438,6.573c-3.352,5.522-2.68,12.802,2.094,17.577c4.771,4.774,12.051,5.447,17.578,2.096
				c-1.809,6.201,0.725,13.06,6.572,16.438c5.847,3.377,13.053,2.142,17.521-2.527c-0.141,6.459,4.082,12.426,10.604,14.177
				c6.523,1.749,13.166-1.31,16.275-6.978c1.531,6.275,7.154,10.948,13.908,10.951c6.75,0.002,12.373-4.672,13.91-10.949
				c3.109,5.664,9.75,8.721,16.271,6.975c6.52-1.745,10.744-7.715,10.607-14.176c4.466,4.666,11.672,5.898,17.52,2.523
				c5.848-3.371,8.379-10.229,6.578-16.434c5.519,3.349,12.799,2.674,17.572-2.099c4.775-4.769,5.449-12.052,2.1-17.577
				c6.201,1.809,13.059-0.728,16.434-6.575c3.373-5.841,2.143-13.05-2.521-17.521c6.457,0.142,12.424-4.083,14.17-10.604
				C305.054,193.184,302.002,186.539,296.336,183.428z"/>
			
				<path fill="#977348" stroke="#000000" stroke-width="8" stroke-linecap="round" stroke-linejoin="round" stroke-miterlimit="10" d="
				M199.674,111.197c0,4.979-4.037,9.014-9.014,9.014c-4.975,0-9.012-4.035-9.012-9.014c0-4.977,4.037-9.013,9.012-9.013
				C195.637,102.185,199.674,106.221,199.674,111.197z"/>
			
				<circle fill="#977348" stroke="#000000" stroke-width="8" stroke-linecap="round" stroke-linejoin="round" stroke-miterlimit="10" cx="140.153" cy="140.358" r="9.013"/>
			
				<path fill="#977348" stroke="#000000" stroke-width="8" stroke-linecap="round" stroke-linejoin="round" stroke-miterlimit="10" d="
				M135.647,190.876c4.311-2.489,9.822-1.013,12.312,3.296c2.486,4.314,1.014,9.826-3.301,12.316
				c-4.311,2.488-9.818,1.008-12.311-3.301C129.858,198.877,131.336,193.364,135.647,190.876z"/>
			
				<path fill="#977348" stroke="#000000" stroke-width="8" stroke-linecap="round" stroke-linejoin="round" stroke-miterlimit="10" d="
				M181.651,227.843c-0.002-4.978,4.035-9.013,9.01-9.018c4.977,0.006,9.018,4.037,9.018,9.018c0,4.978-4.041,9.009-9.018,9.012
				C185.686,236.855,181.649,232.82,181.651,227.843z"/>
			
				<path fill="#977348" stroke="#000000" stroke-width="8" stroke-linecap="round" stroke-linejoin="round" stroke-miterlimit="10" d="
				M236.667,206.484c-4.312-2.486-5.789-8-3.305-12.312c2.492-4.306,8.004-5.788,12.318-3.299c4.311,2.49,5.779,8.004,3.295,12.314
				C246.488,207.498,240.977,208.977,236.667,206.484z"/>
			
				<path fill="#977348" stroke="#000000" stroke-width="8" stroke-linecap="round" stroke-linejoin="round" stroke-miterlimit="10" d="
				M245.676,148.162c-4.307,2.489-9.822,1.013-12.314-3.297c-2.484-4.309-1.012-9.826,3.301-12.315s9.82-1.004,12.312,3.304
				C251.465,140.16,249.991,145.674,245.676,148.162z"/>
			
				<path fill="#977348" stroke="#000000" stroke-width="8" stroke-linecap="round" stroke-linejoin="round" stroke-miterlimit="10" d="
				M199.674,169.52c0,4.978-4.037,9.014-9.014,9.014c-4.975,0-9.012-4.036-9.012-9.014s4.037-9.014,9.012-9.014
				C195.637,160.506,199.674,164.542,199.674,169.52z"/>
		</g>
	</g>
	<g>
		<ellipse opacity="0.1" cx="862.628" cy="601.684" rx="109.718" ry="19.336"/>
		<g>
			
				<circle fill="#977348" stroke="#000000" stroke-width="8" stroke-linecap="round" stroke-linejoin="round" stroke-miterlimit="10" cx="906.437" cy="430.153" r="61.275"/>
			<g>
				<path fill="#FFD27C" d="M810.005,603.898c-4.242,3.652-6.859,2.141-5.817-3.358l29.587-156.147
					c1.042-5.499,5.86-7.709,10.707-4.911l84.855,48.991c4.847,2.798,5.342,8.077,1.102,11.728L810.005,603.898z"/>
				
					<path fill="none" stroke="#000000" stroke-width="8" stroke-linecap="round" stroke-linejoin="round" stroke-miterlimit="10" d="
					M810.005,603.898c-4.242,3.652-6.859,2.141-5.817-3.358l29.587-156.147c1.042-5.499,5.86-7.709,10.707-4.911l84.855,48.991
					c4.847,2.798,5.342,8.077,1.102,11.728L810.005,603.898z"/>
			</g>
			<g>
				
					<line fill="none" stroke="#000000" stroke-width="8" stroke-linecap="round" stroke-linejoin="round" stroke-miterlimit="10" x1="832.462" y1="584.556" x2="858.425" y2="447.535"/>
			</g>
			<g>
				
					<line fill="none" stroke="#000000" stroke-width="8" stroke-linecap="round" stroke-linejoin="round" stroke-miterlimit="10" x1="862.628" y1="558.584" x2="881.181" y2="460.675"/>
			</g>
			<g>
				
					<line fill="none" stroke="#000000" stroke-width="8" stroke-linecap="round" stroke-linejoin="round" stroke-miterlimit="10" x1="892.795" y1="532.617" x2="903.938" y2="473.811"/>
			</g>
			<g>
				
					<path fill="none" stroke="#000000" stroke-width="8" stroke-linecap="round" stroke-linejoin="round" stroke-miterlimit="10" d="
					M804.188,600.54c-1.042,5.499,1.576,7.011,5.817,3.358l120.434-103.697c4.241-3.651,3.746-8.93-1.102-11.728l-84.855-48.991
					c-4.847-2.798-9.666-0.588-10.707,4.911L804.188,600.54z"/>
			</g>
			<g>
				
					<line fill="none" stroke="#000000" stroke-width="8" stroke-linecap="round" stroke-linejoin="round" stroke-miterlimit="10" x1="824.122" y1="559.009" x2="885.435" y2="506.218"/>
			</g>
			<g>
				
					<line fill="none" stroke="#000000" stroke-width="8" stroke-linecap="round" stroke-linejoin="round" stroke-miterlimit="10" x1="832.412" y1="519.141" x2="858.163" y2="496.968"/>
			</g>
			<g>
				
					<line fill="none" stroke="#000000" stroke-width="8" stroke-linecap="round" stroke-linejoin="round" stroke-miterlimit="10" x1="824.524" y1="493.2" x2="840.573" y2="479.381"/>
			</g>
			
				<path fill="#977348" stroke="#000000" stroke-width="8" stroke-linecap="round" stroke-linejoin="round" stroke-miterlimit="10" d="
				M914.125,479.691l-12.729,22.048c-2.522,4.367-8.106,5.865-12.475,3.342c-4.368-2.521-5.864-8.106-3.342-12.475l3.503-6.067
				c1.628-2.819,0.663-6.425-2.158-8.053c-2.82-1.628-6.425-0.662-8.053,2.157l-13.405,23.218c-2.937,5.086-9.441,6.83-14.527,3.893
				c-5.086-2.937-6.829-9.441-3.893-14.528l22.631-39.198L914.125,479.691z"/>
		</g>
	</g>
	<g>
		<ellipse opacity="0.1" cx="193.609" cy="601.685" rx="114.496" ry="19.335"/>
		<g>
			
				<rect x="120.168" y="374.026" transform="matrix(-0.7071 -0.7071 0.7071 -0.7071 -12.397 950.5358)" fill="#BA9765" stroke="#000000" stroke-width="8" stroke-linecap="round" stroke-linejoin="round" stroke-miterlimit="10" width="140.993" height="207.619"/>
			
				<rect x="196.397" y="378.858" transform="matrix(0.7071 0.7071 -0.7071 0.7071 343.2407 -33.4621)" fill="#9A7E53" stroke="#000000" stroke-width="8" stroke-linecap="round" stroke-linejoin="round" stroke-miterlimit="10" width="31.231" height="37.477"/>
			
				<rect x="225.842" y="408.303" transform="matrix(0.7071 0.7071 -0.7071 0.7071 372.6909 -45.6573)" fill="#9A7E53" stroke="#000000" stroke-width="8" stroke-linecap="round" stroke-linejoin="round" stroke-miterlimit="10" width="31.231" height="37.478"/>
			
				<rect x="255.287" y="437.747" transform="matrix(0.7071 0.7071 -0.7071 0.7071 402.1305 -57.8553)" fill="#9A7E53" stroke="#000000" stroke-width="8" stroke-linecap="round" stroke-linejoin="round" stroke-miterlimit="10" width="31.231" height="37.479"/>
			
				<rect x="162.534" y="412.721" transform="matrix(0.7071 0.7071 -0.7071 0.7071 357.2625 0.3986)" fill="#9A7E53" stroke="#000000" stroke-width="8" stroke-linecap="round" stroke-linejoin="round" stroke-miterlimit="10" width="31.232" height="37.478"/>
			
				<rect x="191.979" y="442.167" transform="matrix(0.7071 0.7071 -0.7071 0.7071 386.7128 -11.7958)" fill="#9A7E53" stroke="#000000" stroke-width="8" stroke-linecap="round" stroke-linejoin="round" stroke-miterlimit="10" width="31.231" height="37.477"/>
			
				<rect x="221.425" y="471.611" transform="matrix(0.7071 0.7071 -0.7071 0.7071 416.1403 -23.9985)" fill="#9A7E53" stroke="#000000" stroke-width="8" stroke-linecap="round" stroke-linejoin="round" stroke-miterlimit="10" width="31.231" height="37.478"/>
			
				<rect x="128.673" y="446.583" transform="matrix(0.7071 0.7071 -0.7071 0.7071 371.2932 34.2624)" fill="#9A7E53" stroke="#000000" stroke-width="8" stroke-linecap="round" stroke-linejoin="round" stroke-miterlimit="10" width="31.231" height="37.477"/>
			
				<rect x="158.118" y="476.029" transform="matrix(0.7071 0.7071 -0.7071 0.7071 400.7437 22.0684)" fill="#9A7E53" stroke="#000000" stroke-width="8" stroke-linecap="round" stroke-linejoin="round" stroke-miterlimit="10" width="31.231" height="37.477"/>
			
				<rect x="187.563" y="505.473" transform="matrix(0.7071 0.7071 -0.7071 0.7071 430.1717 9.8641)" fill="#9A7E53" stroke="#000000" stroke-width="8" stroke-linecap="round" stroke-linejoin="round" stroke-miterlimit="10" width="31.231" height="37.478"/>
			
				<rect x="94.811" y="480.445" transform="matrix(0.7071 0.7071 -0.7071 0.7071 385.3189 68.124)" fill="#9A7E53" stroke="#000000" stroke-width="8" stroke-linecap="round" stroke-linejoin="round" stroke-miterlimit="10" width="31.231" height="37.477"/>
			
				<rect x="124.256" y="509.89" transform="matrix(0.7071 0.7071 -0.7071 0.7071 414.7694 55.9306)" fill="#9A7E53" stroke="#000000" stroke-width="8" stroke-linecap="round" stroke-linejoin="round" stroke-miterlimit="10" width="31.231" height="37.477"/>
			
				<rect x="153.701" y="539.335" transform="matrix(0.7071 0.7071 -0.7071 0.7071 444.2094 43.7311)" fill="#9A7E53" stroke="#000000" stroke-width="8" stroke-linecap="round" stroke-linejoin="round" stroke-miterlimit="10" width="31.231" height="37.477"/>
			<g>
				<g>
					
						<polyline fill="none" stroke="#000000" stroke-width="8" stroke-linecap="round" stroke-linejoin="round" stroke-miterlimit="10" points="
						202.442,399.805 214.221,388.028 221.582,395.389 					"/>
				</g>
				<g>
					
						<polyline fill="none" stroke="#000000" stroke-width="8" stroke-linecap="round" stroke-linejoin="round" stroke-miterlimit="10" points="
						231.888,429.25 243.666,417.473 251.027,424.834 					"/>
				</g>
				<g>
					
						<polyline fill="none" stroke="#000000" stroke-width="8" stroke-linecap="round" stroke-linejoin="round" stroke-miterlimit="10" points="
						261.333,458.696 273.111,446.918 280.472,454.28 					"/>
				</g>
				<g>
					
						<polyline fill="none" stroke="#000000" stroke-width="8" stroke-linecap="round" stroke-linejoin="round" stroke-miterlimit="10" points="
						168.581,433.668 180.358,421.889 187.72,429.25 					"/>
				</g>
				<g>
					
						<polyline fill="none" stroke="#000000" stroke-width="8" stroke-linecap="round" stroke-linejoin="round" stroke-miterlimit="10" points="
						198.026,463.114 209.804,451.336 217.165,458.697 					"/>
				</g>
				<g>
					
						<polyline fill="none" stroke="#000000" stroke-width="8" stroke-linecap="round" stroke-linejoin="round" stroke-miterlimit="10" points="
						227.471,492.559 239.249,480.78 246.61,488.141 					"/>
				</g>
				<g>
					
						<polyline fill="none" stroke="#000000" stroke-width="8" stroke-linecap="round" stroke-linejoin="round" stroke-miterlimit="10" points="
						134.719,467.53 146.497,455.752 153.857,463.114 					"/>
				</g>
				<g>
					
						<polyline fill="none" stroke="#000000" stroke-width="8" stroke-linecap="round" stroke-linejoin="round" stroke-miterlimit="10" points="
						164.164,496.975 175.942,485.198 183.303,492.559 					"/>
				</g>
				<g>
					
						<polyline fill="none" stroke="#000000" stroke-width="8" stroke-linecap="round" stroke-linejoin="round" stroke-miterlimit="10" points="
						193.608,526.42 205.387,514.642 212.748,522.002 					"/>
				</g>
				<g>
					
						<polyline fill="none" stroke="#000000" stroke-width="8" stroke-linecap="round" stroke-linejoin="round" stroke-miterlimit="10" points="
						100.856,501.391 112.634,489.614 119.996,496.975 					"/>
				</g>
				<g>
					
						<polyline fill="none" stroke="#000000" stroke-width="8" stroke-linecap="round" stroke-linejoin="round" stroke-miterlimit="10" points="
						130.302,530.836 142.08,519.059 149.441,526.42 					"/>
				</g>
				<g>
					
						<polyline fill="none" stroke="#000000" stroke-width="8" stroke-linecap="round" stroke-linejoin="round" stroke-miterlimit="10" points="
						159.747,560.282 171.524,548.503 178.886,555.865 					"/>
				</g>
			</g>
		</g>
	</g>
	<g>
		<ellipse opacity="0.1" cx="520.005" cy="917.516" rx="139.684" ry="19.336"/>
		<g>
			
				<path fill="#FFD27C" stroke="#000000" stroke-width="8" stroke-linecap="round" stroke-linejoin="round" stroke-miterlimit="10" d="
				M414.795,718.583l52.104,194.452l194.452-52.104C632.574,753.539,522.188,689.806,414.795,718.583z"/>
			
				<path fill="#ED1C24" stroke="#000000" stroke-width="8" stroke-linecap="round" stroke-linejoin="round" stroke-miterlimit="10" d="
				M442.219,734.992c0.861,1.547,1.712,3.473,2.367,5.918c1.067,3.98,1.542,6.021,2.001,7.996c0.446,1.922,0.868,3.736,1.86,7.439
				c1.425,5.314,1.131,8.632,0.915,11.053c-0.154,1.739-0.239,2.697,0.395,5.064c0.627,2.34,1.148,3.072,2.188,4.53
				c1.419,1.993,3.363,4.726,4.795,10.067c1.303,4.859,1.354,7.717,1.397,10.012c0.033,1.766,0.057,3.043,0.813,5.867
				c1.021,3.809,1.546,5.707,2.071,7.607c0.535,1.934,1.07,3.867,2.109,7.744c1.057,3.943,1.544,5.961,2.017,7.912
				c0.468,1.936,0.909,3.764,1.911,7.503c0.986,3.681,1.535,5.448,2.116,7.321c0.604,1.949,1.229,3.963,2.302,7.967
				c1.16,4.328,1.508,6.696,1.813,8.785c0.273,1.861,0.51,3.469,1.409,6.826c0.523,1.955,1.081,2.758,2.004,4.088
				c2.129,3.068,4.062,6.352,4.331,12.75c0.134,3.207-0.177,5.792-0.444,7.75c1.938-1.33,4.72-3.1,8.661-4.156
				c3.121-0.836,4.438-1.447,6.105-2.222c2.034-0.944,4.34-2.013,8.903-3.235c4.084-1.096,6.193-1.529,8.233-1.95
				c1.879-0.388,3.654-0.753,7.252-1.718c3.299-0.883,4.775-1.494,6.486-2.201c1.981-0.818,4.226-1.746,8.61-2.922
				c4.583-1.227,7.128-1.442,9.374-1.633c1.822-0.152,3.262-0.273,6.362-1.105c4.209-1.127,6.498-1.529,8.517-1.883
				c1.909-0.335,3.559-0.625,7.033-1.557c3.493-0.936,5.152-1.531,6.908-2.164c1.92-0.69,4.095-1.473,8.283-2.596
				c3.321-0.889,4.811-1.496,6.535-2.198c1.975-0.805,4.213-1.716,8.576-2.886c4.308-1.154,6.662-1.512,8.739-1.826
				c1.869-0.283,3.483-0.527,6.861-1.434c4.461-1.194,6.921-1.476,9.093-1.723c1.804-0.207,3.361-0.385,6.587-1.25
				c2.088-0.559,3.674-0.916,4.947-1.203c0.668-0.15,1.251-0.279,1.796-0.42c-0.642-2.479-1.223-4.647-2.136-6.725
				c-1.176-2.676-2.758-5.342-4.434-8.164c-0.981-1.654-1.996-3.363-2.961-5.134c-1.188-2.179-2.863-4.345-4.638-6.64
				c-1.387-1.795-2.82-3.649-4.173-5.693c-1.751-2.65-2.948-5.43-4.004-7.881c-0.977-2.268-1.898-4.41-2.982-5.78
				c-1.502-1.899-3.523-3.736-5.663-5.681c-1.725-1.566-3.506-3.186-5.224-5.016c-1.803-1.921-3.34-3.899-4.827-5.812
				c-1.724-2.218-3.352-4.312-5.056-5.846c-1.824-1.643-4.141-3.14-6.593-4.725c-1.938-1.254-3.943-2.549-5.919-4.047
				c-2.648-2.01-5.589-3.807-8.701-5.709c-1.355-0.828-2.711-1.656-4.05-2.506c-1.035-0.656-2.066-1.322-3.097-1.988
				c-3.368-2.174-6.55-4.227-9.825-5.94c-2.697-1.411-5.677-2.567-8.832-3.792c-1.677-0.651-3.411-1.324-5.152-2.057
				c-2.523-1.062-5.344-1.834-8.33-2.65c-1.977-0.542-4.021-1.102-6.106-1.779c-4.847-1.576-9.599-3.084-14.44-4.219
				c-3.059-0.715-5.812-1.898-8.243-2.941c-2.28-0.98-4.435-1.904-6.203-2.164l-0.53-0.078c-4.845-0.709-9.854-1.443-14.615-1.732
				c-2.419-0.146-5.149,0.128-8.041,0.418c-2.306,0.231-4.689,0.471-7.188,0.532c-5.065,0.124-10.397,0.71-15.102,1.228
				C445.741,734.57,443.999,734.769,442.219,734.992z"/>
			
				<path fill="#F1C161" stroke="#000000" stroke-width="8" stroke-linecap="round" stroke-linejoin="round" stroke-miterlimit="10" d="
				M378.66,723.796l88.242,189.238l-18.193-207.954C423.72,707.267,400.149,713.775,378.66,723.796z"/>
		</g>
	</g>
	<g>
		<ellipse opacity="0.1" cx="517.01" cy="601.685" rx="112.523" ry="19.335"/>
		<g>
			<g>
				
					<path fill="#9A7E53" stroke="#000000" stroke-width="8" stroke-linecap="round" stroke-linejoin="round" stroke-miterlimit="10" d="
					M424.509,577.431l42.49-42.49l17.555,17.555l-42.49,42.49c-4.848,4.847-12.707,4.847-17.555,0l-11.373-11.373L424.509,577.431z"
					/>
				<g>
					
						<path fill="#9CB227" stroke="#000000" stroke-width="8" stroke-linecap="round" stroke-linejoin="round" stroke-miterlimit="10" d="
						M522.636,571.625c-5.211,5.213-13.741,5.214-18.953,0l-53.493-53.493c-5.212-5.213-5.212-13.743-0.001-18.955l108.979-108.978
						c5.212-5.213,13.743-5.213,18.955,0l53.494,53.493c5.212,5.213,5.212,13.742,0,18.953L522.636,571.625z"/>
				</g>
				<g>
					
						<path fill="#BFD730" stroke="#000000" stroke-width="8" stroke-linecap="round" stroke-linejoin="round" stroke-miterlimit="10" d="
						M505.366,554.355c-5.212,5.211-13.74,5.211-18.953,0l-53.494-53.495c-5.212-5.211-5.212-13.742,0-18.953l108.979-108.979
						c5.212-5.212,13.742-5.212,18.954,0l53.494,53.494c5.212,5.212,5.211,13.741-0.001,18.954L505.366,554.355z"/>
				</g>
				
					<path fill="#BA9765" stroke="#000000" stroke-width="8" stroke-linecap="round" stroke-linejoin="round" stroke-miterlimit="10" d="
					M455.627,523.569l-42.49,42.49c-4.848,4.848-4.847,12.708,0,17.555c4.848,4.848,12.708,4.848,17.555,0l42.49-42.49
					L455.627,523.569z"/>
			</g>
		</g>
	</g>
	<g>
		<ellipse opacity="0.1" cx="190.665" cy="917.516" rx="112.523" ry="19.336"/>
		<g>
			
				<path fill="#FFCD67" stroke="#000000" stroke-width="8" stroke-linecap="round" stroke-linejoin="round" stroke-miterlimit="10" d="
				M272.997,719.662H108.333c-9.128,0-16.597,7.469-16.597,16.597V900.92c0,9.129,7.468,16.597,16.597,16.597h164.663
				c9.128,0,16.597-7.468,16.597-16.597V736.258C289.593,727.13,282.125,719.662,272.997,719.662z"/>
			<g>
				
					<path fill="#DDB35A" stroke="#000000" stroke-width="8" stroke-linecap="round" stroke-linejoin="round" stroke-miterlimit="10" d="
					M138.358,755.01c0,6.086-4.979,11.064-11.064,11.064h-10.662c-6.086,0-11.065-4.979-11.065-11.064v-10.661
					c0-6.086,4.979-11.064,11.065-11.064h10.662c6.085,0,11.064,4.979,11.064,11.064V755.01z"/>
				
					<path fill="#DDB35A" stroke="#000000" stroke-width="8" stroke-linecap="round" stroke-linejoin="round" stroke-miterlimit="10" d="
					M275.763,755.01c0,6.086-4.979,11.064-11.064,11.064h-10.662c-6.085,0-11.064-4.979-11.064-11.064v-10.661
					c0-6.086,4.979-11.064,11.064-11.064h10.662c6.085,0,11.064,4.979,11.064,11.064V755.01z"/>
				
					<path fill="#DDB35A" stroke="#000000" stroke-width="8" stroke-linecap="round" stroke-linejoin="round" stroke-miterlimit="10" d="
					M229.961,755.01c0,6.086-4.979,11.064-11.064,11.064h-10.662c-6.085,0-11.064-4.979-11.064-11.064v-10.661
					c0-6.086,4.979-11.064,11.064-11.064h10.662c6.085,0,11.064,4.979,11.064,11.064V755.01z"/>
				
					<path fill="#DDB35A" stroke="#000000" stroke-width="8" stroke-linecap="round" stroke-linejoin="round" stroke-miterlimit="10" d="
					M184.16,755.01c0,6.086-4.979,11.064-11.064,11.064h-10.661c-6.085,0-11.065-4.979-11.065-11.064v-10.661
					c0-6.086,4.979-11.064,11.065-11.064h10.661c6.085,0,11.064,4.979,11.064,11.064V755.01z"/>
			</g>
			<g>
				
					<path fill="#DDB35A" stroke="#000000" stroke-width="8" stroke-linecap="round" stroke-linejoin="round" stroke-miterlimit="10" d="
					M138.358,800.813c0,6.084-4.979,11.063-11.064,11.063h-10.662c-6.086,0-11.065-4.979-11.065-11.063v-10.662
					c0-6.086,4.979-11.064,11.065-11.064h10.662c6.085,0,11.064,4.979,11.064,11.064V800.813z"/>
				
					<path fill="#DDB35A" stroke="#000000" stroke-width="8" stroke-linecap="round" stroke-linejoin="round" stroke-miterlimit="10" d="
					M138.358,846.613c0,6.085-4.979,11.064-11.064,11.064h-10.662c-6.086,0-11.065-4.979-11.065-11.064v-10.662
					c0-6.086,4.979-11.064,11.065-11.064h10.662c6.085,0,11.064,4.979,11.064,11.064V846.613z"/>
				
					<path fill="#DDB35A" stroke="#000000" stroke-width="8" stroke-linecap="round" stroke-linejoin="round" stroke-miterlimit="10" d="
					M275.763,800.813c0,6.084-4.979,11.063-11.064,11.063h-10.662c-6.085,0-11.064-4.979-11.064-11.063v-10.662
					c0-6.086,4.979-11.064,11.064-11.064h10.662c6.085,0,11.064,4.979,11.064,11.064V800.813z"/>
				
					<path fill="#DDB35A" stroke="#000000" stroke-width="8" stroke-linecap="round" stroke-linejoin="round" stroke-miterlimit="10" d="
					M229.961,800.813c0,6.084-4.979,11.063-11.064,11.063h-10.662c-6.085,0-11.064-4.979-11.064-11.063v-10.662
					c0-6.086,4.979-11.064,11.064-11.064h10.662c6.085,0,11.064,4.979,11.064,11.064V800.813z"/>
				
					<path fill="#DDB35A" stroke="#000000" stroke-width="8" stroke-linecap="round" stroke-linejoin="round" stroke-miterlimit="10" d="
					M184.16,800.813c0,6.084-4.979,11.063-11.064,11.063h-10.661c-6.085,0-11.065-4.979-11.065-11.063v-10.662
					c0-6.086,4.979-11.064,11.065-11.064h10.661c6.085,0,11.064,4.979,11.064,11.064V800.813z"/>
			</g>
			<g>
				
					<path fill="#DDB35A" stroke="#000000" stroke-width="8" stroke-linecap="round" stroke-linejoin="round" stroke-miterlimit="10" d="
					M275.763,846.613c0,6.086-4.979,11.065-11.064,11.065h-10.662c-6.085,0-11.064-4.979-11.064-11.065v-10.661
					c0-6.086,4.979-11.065,11.064-11.065h10.662c6.085,0,11.064,4.979,11.064,11.065V846.613z"/>
				
					<path fill="#DDB35A" stroke="#000000" stroke-width="8" stroke-linecap="round" stroke-linejoin="round" stroke-miterlimit="10" d="
					M229.961,846.613c0,6.086-4.979,11.065-11.064,11.065h-10.662c-6.085,0-11.064-4.979-11.064-11.065v-10.661
					c0-6.086,4.979-11.065,11.064-11.065h10.662c6.085,0,11.064,4.979,11.064,11.065V846.613z"/>
				
					<path fill="#DDB35A" stroke="#000000" stroke-width="8" stroke-linecap="round" stroke-linejoin="round" stroke-miterlimit="10" d="
					M184.16,846.613c0,6.086-4.979,11.065-11.064,11.065h-10.661c-6.085,0-11.065-4.979-11.065-11.065v-10.661
					c0-6.086,4.979-11.065,11.065-11.065h10.661c6.085,0,11.064,4.979,11.064,11.065V846.613z"/>
			</g>
			<g>
				
					<path fill="#DDB35A" stroke="#000000" stroke-width="8" stroke-linecap="round" stroke-linejoin="round" stroke-miterlimit="10" d="
					M138.358,892.415c0,6.086-4.979,11.064-11.064,11.064h-10.662c-6.086,0-11.065-4.979-11.065-11.064v-10.662
					c0-6.085,4.979-11.064,11.065-11.064h10.662c6.085,0,11.064,4.979,11.064,11.064V892.415z"/>
				
					<path fill="#DDB35A" stroke="#000000" stroke-width="8" stroke-linecap="round" stroke-linejoin="round" stroke-miterlimit="10" d="
					M275.763,892.415c0,6.086-4.979,11.064-11.064,11.064h-10.662c-6.085,0-11.064-4.979-11.064-11.064v-10.662
					c0-6.085,4.979-11.064,11.064-11.064h10.662c6.085,0,11.064,4.979,11.064,11.064V892.415z"/>
				
					<path fill="#DDB35A" stroke="#000000" stroke-width="8" stroke-linecap="round" stroke-linejoin="round" stroke-miterlimit="10" d="
					M229.961,892.415c0,6.086-4.979,11.064-11.064,11.064h-10.662c-6.085,0-11.064-4.979-11.064-11.064v-10.662
					c0-6.085,4.979-11.064,11.064-11.064h10.662c6.085,0,11.064,4.979,11.064,11.064V892.415z"/>
				
					<path fill="#DDB35A" stroke="#000000" stroke-width="8" stroke-linecap="round" stroke-linejoin="round" stroke-miterlimit="10" d="
					M184.16,892.415c0,6.086-4.979,11.064-11.064,11.064h-10.661c-6.085,0-11.065-4.979-11.065-11.064v-10.662
					c0-6.085,4.979-11.064,11.065-11.064h10.661c6.085,0,11.064,4.979,11.064,11.064V892.415z"/>
			</g>
		</g>
	</g>
	<g>
		<ellipse opacity="0.1" cx="862.627" cy="917.517" rx="112.523" ry="19.335"/>
		<g>
			
				<circle fill="#C7A151" stroke="#000000" stroke-width="8" stroke-linecap="round" stroke-linejoin="round" stroke-miterlimit="10" cx="862.628" cy="793.007" r="123.487"/>
			
				<circle fill="#F1C161" stroke="#000000" stroke-width="8" stroke-linecap="round" stroke-linejoin="round" stroke-miterlimit="10" cx="862.628" cy="793.007" r="108.262"/>
			
				<path fill="#FFF56D" stroke="#000000" stroke-width="8" stroke-linecap="round" stroke-linejoin="round" stroke-miterlimit="10" d="
				M896.825,783.758c5.088,5.087,5.088,13.411,0,18.498l-24.949,24.95c-5.087,5.086-13.41,5.087-18.498,0l-24.949-24.95
				c-5.088-5.087-5.087-13.411,0-18.497l24.949-24.95c5.088-5.087,13.411-5.087,18.498-0.001L896.825,783.758z"/>
		</g>
	</g>
	<g>
		<ellipse opacity="0.1" cx="1211.906" cy="917.516" rx="155.798" ry="19.336"/>
		<g>
			
				<rect x="1077.83" y="799.167" fill="#F1C161" stroke="#000000" stroke-width="8" stroke-linecap="round" stroke-linejoin="round" stroke-miterlimit="10" width="268.154" height="118.352"/>
			
				<rect x="1077.83" y="826.371" fill="#A154A1" stroke="#000000" stroke-width="8" stroke-linecap="round" stroke-linejoin="round" stroke-miterlimit="10" width="268.154" height="18.371"/>
			
				<rect x="1077.83" y="871.947" fill="#A154A1" stroke="#000000" stroke-width="8" stroke-linecap="round" stroke-linejoin="round" stroke-miterlimit="10" width="268.154" height="18.367"/>
			
				<polygon fill="#F287B7" stroke="#000000" stroke-width="8" stroke-linecap="round" stroke-linejoin="round" stroke-miterlimit="10" points="
				1263.99,743.433 1077.83,799.167 1345.983,799.167 			"/>
			
				<polygon fill="#F287B7" stroke="#000000" stroke-width="8" stroke-linecap="round" stroke-linejoin="round" stroke-miterlimit="10" points="
				1077.83,799.167 1077.83,809.212 1334.888,809.212 1334.888,917.518 1345.983,917.518 1345.983,799.167 			"/>
		</g>
	</g>
	<g>
		<ellipse opacity="0.1" cx="1212.583" cy="601.685" rx="132.014" ry="19.336"/>
		<g>
			
				<polygon fill="#C7A151" stroke="#000000" stroke-width="8" stroke-linecap="round" stroke-linejoin="round" stroke-miterlimit="10" points="
				1312.705,602.073 1109.483,602.073 1084.822,532.721 1337.366,532.721 			"/>
			
				<path fill="#F1C161" stroke="#000000" stroke-width="8" stroke-linecap="round" stroke-linejoin="round" stroke-miterlimit="10" d="
				M1089.081,532.721c0-13.701,49.18-54.401,122.012-54.401c72.835,0,122.015,40.701,122.015,54.401H1089.081z"/>
			<g>
				
					<circle fill="#F1C161" stroke="#000000" stroke-width="8" stroke-linecap="round" stroke-linejoin="round" stroke-miterlimit="10" cx="1098.055" cy="532.719" r="18.839"/>
				
					<circle fill="#F1C161" stroke="#000000" stroke-width="8" stroke-linecap="round" stroke-linejoin="round" stroke-miterlimit="10" cx="1135.734" cy="532.719" r="18.841"/>
				
					<path fill="#F1C161" stroke="#000000" stroke-width="8" stroke-linecap="round" stroke-linejoin="round" stroke-miterlimit="10" d="
					M1192.255,532.719c0,10.407-8.434,18.84-18.842,18.84c-10.404,0-18.838-8.434-18.838-18.84c0-10.403,8.434-18.837,18.838-18.837
					C1183.821,513.881,1192.255,522.315,1192.255,532.719z"/>
				
					<circle fill="#F1C161" stroke="#000000" stroke-width="8" stroke-linecap="round" stroke-linejoin="round" stroke-miterlimit="10" cx="1211.094" cy="532.719" r="18.839"/>
				
					<circle fill="#F1C161" stroke="#000000" stroke-width="8" stroke-linecap="round" stroke-linejoin="round" stroke-miterlimit="10" cx="1248.773" cy="532.719" r="18.84"/>
				
					<circle fill="#F1C161" stroke="#000000" stroke-width="8" stroke-linecap="round" stroke-linejoin="round" stroke-miterlimit="10" cx="1286.453" cy="532.719" r="18.839"/>
				
					<circle fill="#F1C161" stroke="#000000" stroke-width="8" stroke-linecap="round" stroke-linejoin="round" stroke-miterlimit="10" cx="1324.132" cy="532.719" r="18.84"/>
			</g>
			
				<line fill="#F1C161" stroke="#000000" stroke-width="8" stroke-linecap="round" stroke-linejoin="round" stroke-miterlimit="10" x1="1211.093" y1="487.662" x2="1211.093" y2="503.113"/>
			
				<line fill="#F1C161" stroke="#000000" stroke-width="8" stroke-linecap="round" stroke-linejoin="round" stroke-miterlimit="10" x1="1223.75" y1="486.045" x2="1233.553" y2="495.85"/>
			
				<line fill="#F1C161" stroke="#000000" stroke-width="8" stroke-linecap="round" stroke-linejoin="round" stroke-miterlimit="10" x1="1198.436" y1="486.042" x2="1188.633" y2="495.854"/>
		</g>
	</g>
	<g>
		<ellipse opacity="0.1" cx="1211.906" cy="287.079" rx="132.014" ry="19.336"/>
		<g>
			<g>
				
					<rect x="1138.441" y="163.035" fill="#A1DBE4" stroke="#000000" stroke-width="8" stroke-linecap="round" stroke-linejoin="round" stroke-miterlimit="10" width="15.023" height="124.046"/>
				
					<path fill="#ED1C24" stroke="#000000" stroke-width="8" stroke-linecap="round" stroke-linejoin="round" stroke-miterlimit="10" d="
					M1209.161,97.692c0-17.455-14.149-31.605-31.606-31.605c-17.414,0-31.536,14.085-31.602,31.484
					c-0.067-17.399-14.189-31.484-31.603-31.484c-17.454,0-31.606,14.15-31.606,31.605c0,46.787,62.912,82.635,63.206,82.803
					C1145.95,180.495,1209.161,144.49,1209.161,97.692z"/>
			</g>
			<g>
				
					<rect x="1275.255" y="163.035" fill="#A1DBE4" stroke="#000000" stroke-width="8" stroke-linecap="round" stroke-linejoin="round" stroke-miterlimit="10" width="15.024" height="124.046"/>
				
					<circle fill="#ED1C24" stroke="#000000" stroke-width="8" stroke-linecap="round" stroke-linejoin="round" stroke-miterlimit="10" cx="1282.767" cy="117.898" r="51.812"/>
				
					<path fill="#ED1C24" stroke="#000000" stroke-width="8" stroke-linecap="round" stroke-linejoin="round" stroke-miterlimit="10" d="
					M1235.276,128.708c-5.97,0-10.81-4.839-10.81-10.809s4.839-10.809,10.81-10.809h94.983c5.97,0,10.809,4.839,10.809,10.809
					s-4.839,10.809-10.809,10.809H1235.276z"/>
			</g>
		</g>
	</g>
</g>
</svg>
