<svg xmlns="http://www.w3.org/2000/svg" xmlns:xlink="http://www.w3.org/1999/xlink" xmlns:fi="http://pattern.flaticon.com/" x="0" y="0" width="1600" height="800" viewBox="0 0 2800 1400"><rect x="0px" y="0px" width="100%" height="100%" opacity="1" fill="#673ab7"/><defs><path d="M451.991,103.982h-32c-4.418,0-8,3.582-8,8v8c0-4.418-3.582-8-8-8h-24c-4.22-0.009-7.721,3.261-8,7.472l-0.552,8.528    h-15.448v-16c0-4.418-3.582-8-8-8h-32c-4.418,0-8,3.582-8,8v48c0,4.418,3.582,8,8,8h32c4.418,0,8-3.582,8-8v-16h14.4    l-4.368,65.448c-0.716,8.265-7.656,14.596-15.952,14.552h-50.08v-3.432c-0.012-3.081-1.792-5.881-4.576-7.2    c-10.834-5.061-22.321-8.588-34.128-10.48c-1.282-0.184-2.589-0.052-3.808,0.384c-4.404-1.342-8.917-2.295-13.488-2.848v-21.824    c2.372-1.213,4.67-2.568,6.88-4.056c26.88-18.808,49.12-37.696,49.12-78.344v-8.2c-0.039-24.325-10.108-47.556-27.832-64.216    c-31.185-28.994-78.562-31.77-112.92-6.616c-34.748-6.252-67.986,16.849-74.238,51.598c-0.667,3.708-1.005,7.467-1.01,11.234v120    c0,4.418,3.582,8,8,8c30.589,0.052,60.015-11.72,82.128-32.856c1.897,1.251,3.857,2.404,5.872,3.456v21.824    c-4.572,0.542-9.088,1.484-13.496,2.816c-1.216-0.435-2.521-0.567-3.8-0.384c-11.807,1.892-23.294,5.419-34.128,10.48    c-2.784,1.319-4.564,4.119-4.576,7.2v0.264c-30.253,33.984-47.288,77.707-48,123.2c0,21.944,1.048,47.2,7.544,64H67.991v-16    c0-4.418-3.582-8-8-8h-32c-4.418,0-8,3.582-8,8v48c0,4.418,3.582,8,8,8h32c4.418,0,8-3.582,8-8v-16h45.736    c-8.973,17.306-13.682,36.506-13.736,56h16c0.041-13.763,2.758-27.386,8-40.112v0.112c0,4.418,3.582,8,8,8h32c4.418,0,8-3.582,8-8    v-32h100.16l4.608,5.76c15.014,18.816,23.204,42.168,23.232,66.24h16c-0.035-27.704-9.463-54.578-26.744-76.232l-6.12-7.648    l-3.072-9.216c-7.446-22.371-6.735-46.655,2.008-68.552l0.448-1.12c9.928-3.11,16.89-12.045,17.48-22.432v-0.328l86.712-18.576    c14.717-3.225,25.225-16.23,25.288-31.296v-84.6c0,4.418,3.582,8,8,8h32c4.418,0,8-3.582,8-8v-48    C459.991,107.564,456.409,103.982,451.991,103.982z M339.991,151.982h-16v-32h16V151.982z M51.991,431.982h-16v-32h16V431.982z     M113.983,404.606l0.56,3.4h-13.28c-4.568-6.36-9.272-22.888-9.272-64.024c0.663-35.237,11.803-69.478,32-98.36    c0,0,0,48.584,0,48.584C113.439,318.11,109.935,380.302,113.983,404.606z M207.191,16.134    c37.941-2.556,71.313,24.867,76.16,62.584l-43.784-21.896c-1.534-0.771-3.278-1.024-4.968-0.72l-92.944,16.4    C148.23,41.048,175.108,17.93,207.191,16.134z M99.991,191.678V79.982c0.032-24.777,18.899-45.466,43.568-47.776    c-12.758,15.78-19.671,35.484-19.568,55.776v8.2c0,34.32,15.88,53.112,36.992,69.464    C144.094,180.835,122.643,189.991,99.991,191.678z M139.991,96.182v-7.136l94.792-16.728l49.168,24.584    c-0.232,29.792-13.84,44.624-42.248,64.52c-17.857,12.433-41.567,12.433-59.424,0C153.631,141.358,139.991,126.486,139.991,96.182    z M171.991,218.15c5.214-1.429,10.594-2.158,16-2.168c4.418,0,8-3.582,8-8v-23.336c10.484,2.79,21.516,2.79,32,0v23.336    c0,4.418,3.582,8,8,8c5.406,0.01,10.786,0.739,16,2.168v12.8l-40,8.6l-40-8.6V218.15z M128.463,384.886    c-0.491-23.92,1.577-47.824,6.168-71.304c2.084,1.442,4.328,2.636,6.688,3.56c8.065,21.493,8.413,45.119,0.984,66.84h-10.312    C130.76,384.001,129.551,384.311,128.463,384.886z M155.991,431.982h-16v-32h16V431.982z M171.991,391.982c0-4.418-3.582-8-8-8    h-4.8c6.055-20.904,6.055-43.096,0-64h105.28c-7.512,23.435-7.369,48.652,0.408,72H171.991z M283.991,294.782    c0,4.344-6.84,9.2-16,9.2h-112c-9.16,0-16-4.856-16-9.2v-69.024c5.193-2.144,10.542-3.89,16-5.224v16.904    c-0.001,3.772,2.632,7.032,6.32,7.824l48,10.328c1.107,0.242,2.253,0.242,3.36,0l48-10.328c3.688-0.792,6.321-4.052,6.32-7.824    v-16.912c5.458,1.334,10.807,3.08,16,5.224V294.782z M383.343,260.23l-83.352,17.856v-38.104h50.08    c16.645,0.051,30.531-12.706,31.888-29.296l5.52-82.704h8.512v116.6h0C395.962,252.117,390.705,258.622,383.343,260.23z     M443.991,151.982h-16v-32h16V151.982z" transform="matrix(0.1291481168163506 0.05842414621533066 -0.05842414621533066 0.1291481168163506 283.998199494907 124.98638124277556)" id="L1_0"/><g transform="matrix(0.11490485466850446 -0.08249578895745145 0.08249578895745145 0.11490485466850446 92.62384552977058 326.2218242293473)" id="L1_1"><rect x="32px" y="464px" width="88px" height="16px"/><rect x="360px" y="464px" width="88px" height="16px"/><path d="M451.16,339.999L424.376,98.935l53.28-53.28c3.123-3.124,3.123-8.188,0-11.312l-32-32c-3.124-3.123-8.188-3.123-11.312,0    l-96,96c-1.5,1.5-2.344,3.534-2.344,5.656H160c-4.418,0-8,3.582-8,8v24c0,4.418,3.582,8,8,8h208.968l25.6,198.136l-59.848,9.976    c-3.87,0.627-6.716,3.967-6.72,7.888v8.392L15.6,383.999c-4.261,0.213-7.605,3.733-7.6,8v16c-4.418,0-8,3.582-8,8v32    c0,4.418,3.582,8,8,8h464c4.418,0,8-3.582,8-8v-64C479.983,364.905,468.662,347.632,451.16,339.999z M200,127.999h-32v-8h32    V127.999z M216,127.999v-8h132.688l8,8H216z M357.656,106.343l-2.344-2.344L440,19.311l20.688,20.688l-50.344,50.344L376,124.687    L357.656,106.343z M384.44,138.871l25.448-25.448l24.744,222.712c-0.872-0.048-1.744-0.136-2.632-0.136    c-0.442,0-0.884,0.037-1.32,0.112l-20.36,3.392L384.44,138.871z M24,399.607l304-15.2v23.592H24V399.607z M464,439.999H16v-16h448    V439.999z M464,407.999H344v-41.224l88.624-14.776c17.429,0.34,31.379,14.568,31.376,32V407.999z"/><rect x="337px" y="48px" width="45px" height="16px" transform="matrix(0.7071 -0.7071 0.7071 0.7071 65.8368 270.9609)"/><rect x="0px" y="280px" width="16px" height="16px"/><rect x="32px" y="280px" width="56px" height="16px"/><rect x="48px" y="328px" width="16px" height="16px"/><rect x="80px" y="328px" width="64px" height="16px"/><rect x="160px" y="328px" width="144px" height="16px"/></g><g transform="matrix(0.11490498291744167 0.05303306950953423 -0.05303306950953423 0.11490498291744167 8.150737445105731 274.69489412179956)" id="L1_2"><path d="M303.999,335.432L296.551,440H175.999v16h120.552c8.382-0.023,15.333-6.497,15.952-14.856l7.496-104.576L303.999,335.432z    "/><path d="M465.759,246.824l6.24-62.024c0.439-4.396-2.768-8.317-7.165-8.756c-1.504-0.15-3.019,0.128-4.371,0.804l-32,16    c-1.805,0.903-3.203,2.454-3.912,4.344l-14.864,39.656c-16.13,7.732-26.809,23.594-27.904,41.448l-3.36,57.088    c-1.123,19.295-15.899,35.019-35.088,37.336L359.439,152h8.56c8.837,0,16-7.163,16-16v-16c-0.048-44.163-35.837-79.951-80-80h-8    V24c0-13.255-10.745-24-24-24h-64c-13.255,0-24,10.745-24,24v16h-8c-44.163,0.049-79.951,35.837-80,80v16c0,8.837,7.163,16,16,16    h8.56l6.4,88H7.999c-4.418,0.002-7.999,3.585-7.997,8.003c0,0.282,0.015,0.564,0.045,0.845l24,224    c0.433,4.066,3.863,7.151,7.952,7.152h96c4.089-0.002,7.519-3.086,7.952-7.152l4.8-44.864l2.176,29.768    c0.959,12.525,11.383,22.21,23.944,22.248h146.256c3.806-0.029,7.55-0.975,10.912-2.76l8.992,2.472    c0.694,0.19,1.409,0.286,2.128,0.288c79.994-0.004,144.84-64.854,144.84-144.848v-53.976    C479.965,268.296,474.846,255.95,465.759,246.824z M231.999,16h16v24h-16V16z M199.999,24c0-4.418,3.582-8,8-8h8v32    c0,4.418,3.582,8,8,8h32c4.418,0,8-3.582,8-8V16h8c4.418,0,8,3.582,8,8v40c0,4.418-3.582,8-8,8h-64c-4.418,0-8-3.582-8-8V24z     M175.999,56h8v8c0,13.255,10.745,24,24,24h64c13.255,0,24-10.745,24-24v-8h8c32.239,0.04,59.432,24.019,63.504,56h-255    C116.573,80.022,143.762,56.044,175.999,56z M120.799,464h-81.6L20.335,288h91.664v-16H18.622l-1.712-16h111.256l6.056,82.76    L120.799,464z M135.999,143.416c-0.307-4.189-3.8-7.427-8-7.416h-16v-8h256v8h-216v16H343.39l-2.344,32H138.942L135.999,143.416z     M321.111,456.584c-0.306,4.183-3.79,7.419-7.984,7.416H166.871c-4.2,0.011-7.693-3.227-8-7.416L140.119,200h199.76    L321.111,456.584z M463.999,335.152c0.002,70.75-57.044,128.268-127.792,128.848l-0.512-0.144    c0.726-1.965,1.186-4.017,1.368-6.104l5.032-68.8l2.896-0.344c26.973-3.148,47.787-25.217,49.352-52.328l3.36-57.088    c0.801-12.943,9.051-24.241,21.136-28.944c2.122-0.825,3.793-2.516,4.592-4.648l14.96-39.888l16.2-8.104l-5.152,51.528    c-0.261,2.612,0.776,5.187,2.776,6.888c7.43,6.248,11.739,15.445,11.784,25.152V335.152z"/><rect x="159px" y="208px" width="16px" height="16px"/><rect x="191px" y="240px" width="16px" height="16px"/><rect x="231px" y="216px" width="16px" height="16px"/><rect x="279px" y="224px" width="16px" height="16px"/><rect x="167px" y="280px" width="16px" height="16px"/></g><g transform="matrix(0.12501128017902374 0 0 0.12501128017902374 114 83)" id="L1_5"><path d="m198.839844 399.25-18.039063 1.390625c-10.855469.789063-20.898437-5.785156-24.519531-16.046875-11.257812-32.410156-28.28125-81.375-28.28125-136.671875 0-56.800781 17.496094-102.34375 30.273438-135.585937 8.621093-22.445313 14.863281-38.664063 13.101562-51.078126-.472656-2.148437-.191406-4.394531.800781-6.359374l15.761719-25.695313c1.652344-2.71875 1.539062-6.15625-.289062-8.757813-1.824219-2.601562-5.019532-3.875-8.136719-3.242187l-19.375 3.957031c-7.398438 1.484375-15.066407-.570312-20.738281-5.550781l-14.796876-13.121094c-2.078124-1.835937-4.957031-2.4687498-7.609374-1.671875-2.65625.800782-4.707032 2.914063-5.425782 5.59375l-9.476562 35.382813c-.546875 2.347656-2.171875 4.300781-4.386719 5.257812-61.183594 23.207031-97.703125 98.300781-97.703125 200.871094 0 127.703125 58.472656 224 136 224 5.339844.105469 10.667969-.539063 15.832031-1.914063 1.277344-.347656 2.625-.347656 3.902344 0l25.097656 6.722657c.671875.1875 1.367188.28125 2.0625.277343 2.402344.003907 4.679688-1.078124 6.199219-2.9375 1.519531-1.863281 2.121094-4.308593 1.640625-6.660156l-3.957031-19.382812c-1.5-7.398438.554687-15.070313 5.550781-20.730469l13.121094-14.800781c2.160156-2.4375 2.625-5.945313 1.175781-8.863282-1.441406-2.929687-4.535156-4.671874-7.785156-4.382812zm-18.480469 17.472656c-8.328125 9.425782-11.753906 22.214844-9.253906 34.542969l1.367187 6.703125-12.601562-3.375c-2.03125-.539062-4.121094-.808594-6.222656-.800781-2.097657 0-4.183594.292969-6.199219.863281-3.742188.9375-7.59375 1.359375-11.449219 1.265625-68.414062 0-120-89.425781-120-208 0-95.65625 32.664062-165.160156 87.382812-185.921875 7.019532-2.777344 12.28125-8.75 14.152344-16.0625l6.144532-22.902344 5.121093 4.527344c9.425781 8.335938 22.21875 11.761719 34.550781 9.253906l1.320313-.261718-6.128906 9.984374c-2.988281 5.117188-4.058594 11.132813-3.015625 16.964844 1.175781 8.296875-5.023438 24.425782-12.191406 43.089844-13.222657 34.414062-31.335938 81.535156-31.335938 141.328125 0 57.992187 17.550781 108.496094 29.167969 141.917969 5.585937 16.085937 20.742187 26.875 37.769531 26.882812h1.445312zm0 0"/><path d="m119.367188 81.609375c-1.566407-4.128906-6.183594-6.203125-10.3125-4.640625-47.535157 18.03125-77.054688 83.535156-77.054688 170.953125 0 4.417969 3.582031 8 8 8s8-3.582031 8-8c0-80.601563 25.601562-140.375 66.726562-156 4.128907-1.570313 6.207032-6.183594 4.640626-10.3125zm0 0"/><path d="m477.945312 429.59375-13.144531-14.808594c-5.011719-5.652344-7.082031-13.324218-5.601562-20.726562l4-19.378906c.65625-3.195313-.691407-6.46875-3.410157-8.273438s-6.257812-1.777344-8.949218.066406l-14.902344 10.25c-8.984375 6.167969-20.992188 5.507813-29.25-1.601562-25.96875-22.449219-65.199219-56.367188-92.800781-104.222656-28.40625-49.199219-36-97.386719-41.597657-132.5625-3.753906-23.75-6.457031-40.910157-14.183593-50.78125-1.484375-1.628907-2.355469-3.714844-2.472657-5.914063l.800782-30.136719c.082031-3.1875-1.734375-6.121094-4.625-7.464844s-6.304688-.84375-8.6875 1.273438l-14.808594 13.082031c-5.675781 4.972657-13.347656 7.019531-20.746094 5.527344l-19.375-4c-2.714844-.554687-5.523437.335937-7.421875 2.351563-1.898437 2.019531-2.621093 4.875-1.90625 7.550781l9.488281 35.417969c.6875 2.300781.253907 4.792968-1.175781 6.726562-41.367187 50.6875-35.457031 133.992188 15.824219 222.816406 49.945312 86.503906 121.246094 138.472656 182.078125 138.472656 16.730469.148438 33.195313-4.15625 47.707031-12.480468 4.679688-2.585938 8.976563-5.820313 12.757813-9.601563.941406-.925781 2.113281-1.582031 3.394531-1.902343l25.09375-6.726563c2.675781-.71875 4.789062-2.773437 5.585938-5.425781.796874-2.65625.164062-5.535156-1.671876-7.609375zm-33.144531 4.304688c-4.085937 1.066406-7.804687 3.222656-10.761719 6.238281-2.757812 2.695312-5.871093 5-9.253906 6.847656-59.242187 34.199219-148.625-17.460937-207.929687-120.136719-47.824219-82.839844-54.289063-159.367187-17.289063-204.703125 4.699219-5.910156 6.277344-13.71875 4.242188-20.992187l-6.136719-22.902344 6.6875 1.367188c12.335937 2.488281 25.125-.9375 34.570313-9.253907l1-.898437-.3125 11.703125c-.027344 5.929687 2.054687 11.675781 5.878906 16.210937 5.160156 6.597656 7.855468 23.65625 10.976562 43.40625 5.75 36.417969 13.640625 86.335938 43.527344 138.0625 28.976562 50.195313 69.449219 85.179688 96.214844 108.328125 13.292968 11.46875 32.5 12.945313 47.386718 3.640625-2.492187 12.335938.9375 25.125 9.261719 34.5625l4.535157 5.109375zm0 0"/><path d="m224.359375 142.386719c2.023437-2.183594 2.667969-5.308594 1.671875-8.113281-.992188-2.804688-3.464844-4.828126-6.410156-5.246094-2.945313-.421875-5.882813.832031-7.621094 3.246094-32.136719 39.382812-24.953125 110.878906 18.753906 186.574218 2.222656 3.796875 7.089844 5.082032 10.898438 2.882813s5.128906-7.058594 2.957031-10.882813c-40.335937-69.796875-48.082031-134.351562-20.25-168.460937zm0 0"/></g><g transform="matrix(0.1219639691111232 -0.056291063166304785 0.056291063166304785 0.1219639691111232 244.56088970431728 21.426336189155336)" id="L1_6"><path d="m400.21875 181.890625-6.113281-22.398437c-12.101563-44.320313-35.542969-84.71875-68.007813-117.222657l-39.945312-39.929687c-2.667969-2.664063-6.832032-3.105469-10-1.054688l-272 176c-.257813.207032-.507813.433594-.742188.671875-.285156.21875-.554687.464844-.800781.726563-.441406.503906-.816406 1.058594-1.121094 1.65625-.144531.226562-.277343.460937-.398437.703125-.363282.898437-.566406 1.855469-.59375 2.824219v177.488281c.003906 2.363281 1.046875 4.605469 2.855468 6.125 1.808594 1.519531 4.195313 2.160156 6.523438 1.753906 4.828125-.832031 9.722656-1.246094 14.621094-1.238281 28.289062 0 48 12.648437 48 24 0 11.351562-19.710938 24-48 24-4.898438.007812-9.792969-.40625-14.621094-1.242188-2.328125-.40625-4.714844.238282-6.523438 1.757813-1.808593 1.519531-2.851562 3.761719-2.855468 6.125v49.359375c0 4.417968 3.582031 8 8 8h384c4.421875 0 8-3.582032 8-8v-288c-.042969-.707032-.136719-1.410156-.277344-2.105469zm-120.808594-163.664063 35.359375 35.371094c30.503907 30.527344 52.523438 68.480469 63.894531 110.109375l3.355469 12.289063h-346.402343zm105.085938 445.769532h-368v-32.3125c2.640625.207031 5.3125.3125 8 .3125 35.890625 0 64-17.601563 64-40 0-22.398438-28.109375-40-64-40-2.6875 0-5.359375.105468-8 .3125v-160.3125h368zm0 0"/><path d="m272.496094 47.996094c-17.671875 0-32 14.328125-32 32s14.328125 32 32 32c17.675781 0 32-14.328125 32-32s-14.324219-32-32-32zm0 48c-8.835938 0-16-7.164063-16-16 0-8.835938 7.164062-16 16-16 8.839844 0 16 7.164062 16 16 0 8.835937-7.160156 16-16 16zm0 0"/><path d="m112.496094 287.996094c17.675781 0 32-14.328125 32-32s-14.324219-32-32-32c-17.671875 0-32 14.328125-32 32s14.328125 32 32 32zm0-48c8.839844 0 16 7.164062 16 16 0 8.835937-7.160156 16-16 16-8.835938 0-16-7.164063-16-16 0-8.835938 7.164062-16 16-16zm0 0"/><path d="m320.496094 351.996094c17.675781 0 32-14.328125 32-32s-14.324219-32-32-32c-17.671875 0-32 14.328125-32 32s14.328125 32 32 32zm0-48c8.839844 0 16 7.164062 16 16 0 8.835937-7.160156 16-16 16-8.835938 0-16-7.164063-16-16 0-8.835938 7.164062-16 16-16zm0 0"/><path d="m200.496094 431.996094c17.675781 0 32-14.328125 32-32s-14.324219-32-32-32c-17.671875 0-32 14.328125-32 32s14.328125 32 32 32zm0-48c8.839844 0 16 7.164062 16 16 0 8.835937-7.160156 16-16 16-8.835938 0-16-7.164063-16-16 0-8.835938 7.164062-16 16-16zm0 0"/></g><g transform="matrix(0.09972018901837071 0.06043647842664706 -0.06043647842664706 0.09972018901837071 169.792480397007 184.50820849333618)" id="L1_7"><path d="m437.875 290.679688-11.769531-11.769532c16.640625-22.28125 14.421875-53.394531-5.207031-73.09375l-158.398438-158.398437c-19.707031-19.609375-50.800781-21.8125-73.074219-5.1875l-11.757812-11.765625c-40.617188-40.617188-106.46875-40.621094-147.085938-.003906-40.617187 40.613281-40.617187 106.464843-.003906 147.082031l11.769531 11.769531c-16.640625 22.28125-14.421875 53.398438 5.207032 73.09375l158.398437 158.402344c19.683594 19.667968 50.828125 21.886718 73.097656 5.207031l11.757813 11.769531c40.625 40.609375 106.476562 40.601563 147.085937-.019531 40.609375-40.625 40.601563-106.476563-.019531-147.085937zm-186.671875-231.925782 158.398437 158.398438c13.421876 13.453125 15.546876 34.480468 5.089844 50.34375l-213.832031-213.832032c15.863281-10.453124 36.890625-8.328124 50.34375 5.089844zm-33.953125 350.71875-158.398438-158.402344c-13.421874-13.449218-15.546874-34.476562-5.089843-50.34375l213.839843 213.832032c-15.867187 10.457031-36.894531 8.332031-50.351562-5.085938zm209.3125 16.976563c-34.367188 34.367187-90.089844 34.367187-124.457031 0l-260.214844-260.21875c-34.367187-34.367188-34.367187-90.085938 0-124.453125 34.367187-34.367188 90.089844-34.367188 124.457031 0l260.214844 260.214844c34.371094 34.367187 34.371094 90.089843 0 124.457031zm0 0"/><path d="m377.828125 368.296875c-5.675781-38.378906-35.808594-68.511719-74.1875-74.183594-32.027344-4.390625-57.210937-29.574219-61.597656-61.601562-2.46875-18.769531-11.207031-36.152344-24.800781-49.328125-13.175782-13.59375-30.5625-22.335938-49.335938-24.800782-15.683594-1.8125-30.242188-9.039062-41.167969-20.4375-11.390625-10.921874-18.617187-25.476562-20.433593-41.152343-2.464844-18.769531-11.203126-36.15625-24.796876-49.328125-3.140624-3.03125-8.128906-2.988282-11.214843.097656-3.085938 3.085938-3.128907 8.074219-.097657 11.214844 11.390626 10.917968 18.617188 25.472656 20.421876 41.152344 2.46875 18.765624 11.207031 36.152343 24.800781 49.328124 13.175781 13.59375 30.5625 22.332032 49.335937 24.796876 15.683594 1.8125 30.242188 9.042968 41.167969 20.441406 11.390625 10.921875 18.617187 25.476562 20.433594 41.152344 5.65625 38.371093 35.785156 68.503906 74.160156 74.160156 32.015625 4.410156 57.1875 29.582031 61.597656 61.597656 2.46875 18.777344 11.207031 36.167969 24.800781 49.355469 3.140626 3.03125 8.128907 2.988281 11.214844-.097657 3.085938-3.085937 3.128906-8.078124.097656-11.214843-11.378906-10.925781-18.59375-25.480469-20.398437-41.152344zm0 0"/></g><g transform="matrix(0.1355288038488865 -0.017677669964510333 0.017677669964510333 0.1355288038488865 229.65471036393302 253.968419160123)" id="L1_8"><path d="m464.046875 289.144531c15.992187-25.410156 17.164063-57.433593 3.066406-83.945312-14.09375-26.507813-41.296875-43.445313-71.304687-44.398438-1.335938-10.652343-4.785156-20.933593-10.152344-30.234375-10.914062-18.828125-28.8125-32.59375-49.816406-38.300781.082031-1.394531.160156-2.785156.160156-4.265625 0-48.519531-43.0625-88-96-88s-96 39.480469-96 88c0 1.480469.078125 2.871094.160156 4.273438-26.25 6.828124-47.296875 26.414062-56 52.101562-49.089844 3.703125-88.160156 41.898438-88.160156 87.625.0546875 20.007812 7.371094 39.3125 20.585938 54.335938-9.496094 4.863281-20.585938 13.121093-20.585938 25.664062 0 67.289062 105.425781 120 240 120s240-52.710938 240-120c-.835938-9.925781-6.921875-18.648438-15.953125-22.855469zm-12.253906-78.585937c12.375 22.445312 11.5625 49.84375-2.121094 71.511718-2.398437-.941406-4.917969-1.855468-7.601563-2.757812 12.917969-19.375 14.015626-44.316406 2.859376-64.753906-12.574219-20.425782-35.582032-32.027344-59.480469-29.992188-11.226563.601563-22.175781 3.6875-32.066407 9.035156-.757812.34375-1.460937.726563-2.839843 1.511719-12.109375 6.925781-22.128907 16.984375-29.015625 29.117188-5.746094 9.941406-8.859375 21.183593-9.046875 32.664062 0 .945313.078125 1.914063.113281 2.867188-2.65625-.152344-5.320312-.3125-8-.441407-.253906-6.992187.554688-13.980468 2.398438-20.726562 2.375-8.796875 6.234374-17.121094 11.40625-24.617188 6.414062-9.285156 14.597656-17.210937 24.082031-23.320312 1.304687-.863281 2.679687-1.65625 4-2.398438 6.386719-3.699218 13.226562-6.542968 20.351562-8.464843 7.066407-2.089844 14.390625-3.191407 21.761719-3.28125 25.703125-1.050781 49.933594 12.003906 63.199219 34.046875zm-98.457031 52.363281c-1.359376-4.925781-1.011719-10.164063.984374-14.867187 4.125-9.675782 12.011719-17.257813 21.847657-20.992188 13.601562-5.277344 28.625-1.972656 34.105469 7.496094 5.832031 10.113281.199218 25.25-12.195313 34.289062-13.757813-2.351562-28.765625-4.335937-44.742187-5.925781zm70.792968-36.371094c-9.480468-16.390625-32.570312-22.582031-53.769531-14.398437-14 5.355468-25.1875 16.226562-30.933594 30.070312-2.449219 6.085938-3.375 12.675782-2.699219 19.203125-2.671874-.226562-5.390624-.433593-8.101562-.640625-.089844-1.21875-.167969-2.402344-.144531-3.648437.152343-8.808594 2.558593-17.433594 6.984375-25.046875 5.453125-9.601563 13.378906-17.566406 22.960937-23.058594l.710938-.390625c.425781-.261719.863281-.492187 1.320312-.695313 7.953125-4.351562 16.777344-6.867187 25.832031-7.371093 17.886719-1.734375 35.226563 6.773437 44.800782 21.984375 8.820312 16.867187 6.765625 37.363281-5.234375 52.136718-2.765625-.6875-5.472657-1.390624-8.40625-2.046874 11.605469-12.476563 14.265625-30.839844 6.679687-46.097657zm-236.6875-95.613281c.335938.140625.683594.265625 1.039063.367188 4.539062 1.300781 8.890625 3.183593 12.953125 5.597656 4.785156 2.769531 9.1875 6.148437 13.101562 10.050781.640625.613281 1.25 1.40625 1.878906 2.085937-1.238281 2.761719-2.335937 5.582032-3.277343 8.457032-.160157-.207032-.28125-.433594-.457031-.640625-4.246094-5.226563-9.410157-9.628907-15.238282-13-5.3125-3.121094-11.132812-5.289063-17.195312-6.398438-16.109375-4.105469-33.105469 1.890625-43.070313 15.199219-2.527343-1.105469-5.070312-2.128906-7.679687-3.007812 7.007812-11.199219 18.625-18.710938 31.710937-20.503907 8.769531-1.367187 17.730469-.753906 26.234375 1.792969zm-3.304687-41.464844c0-.519531-.136719-.9375-.136719-1.472656 0-26.472656 25.121094-48 56-48s56 21.527344 56 48c0 .535156-.113281.953125-.136719 1.472656-2.710937.375-5.414062.855469-8.09375 1.464844.085938-.976562.230469-1.953125.230469-2.9375 0-21.679688-21.984375-40-48-40s-48 18.320312-48 40c0 .984375.144531 1.953125.230469 2.9375-2.6875-.609375-5.382813-1.089844-8.09375-1.464844zm26.625 7.597656c-1.714844-2.722656-2.667969-5.855468-2.761719-9.070312 0-12.800781 14.953125-24 32-24s32 11.199219 32 24c-.09375 3.214844-1.046875 6.347656-2.761719 9.070312-3.652343 1.574219-7.21875 3.335938-10.6875 5.28125-4.660156 2.695313-9.09375 5.769532-13.253906 9.191407-3.523437.460937-7.085937.460937-10.609375 0-4.171875-3.429688-8.617188-6.511719-13.296875-9.214844-3.445313-1.941406-6.996094-3.695313-10.628906-5.257813zm1.597656 113.53125c.867187 2.691407 1.882813 5.335938 3.039063 7.917969-6.871094 5.289063-15.054688 8.605469-23.671876 9.601563-.085937-2.691406-.304687-5.378906-.664062-8.050782 7.878906-.988281 15.292969-4.285156 21.304688-9.46875zm-21.320313 33.734376c11.667969-.953126 22.859376-5.054688 32.375-11.871094 1.601563 2.214844 3.203126 4.367187 4.929688 6.398437-11.457031 8.136719-24.992188 12.851563-39.023438 13.601563.71875-2.679688 1.292969-5.390625 1.726563-8.128906zm-13.695312-91.097657c4.261719.773438 8.355469 2.292969 12.089844 4.488281 4.148437 2.398438 7.824218 5.535157 10.847656 9.257813 7.148438 7.304687 9.085938 18.246094 4.878906 27.558594-4.074218 6.046875-10.835937 9.734375-18.128906 9.882812-6.722656-18.226562-19.21875-33.753906-35.582031-44.21875 6.785156-6.746093 16.636719-9.398437 25.894531-6.96875zm62.65625 96.867188c3.703125 2.871093 7.644531 5.425781 11.777344 7.636719-7.847656-.070313-15.679688-.09375-23.5625 0 4.136718-2.207032 8.082031-4.761719 11.785156-7.636719zm51.511719-118.800781c.335937-.097657.664062-.214844.984375-.351563 8.511718-2.546875 17.484375-3.15625 26.265625-1.785156 13.464843 1.8125 25.363281 9.6875 32.292969 21.375 2.8125 4.90625 4.59375 10.328125 5.242187 15.945312-2.617187.894531-5.226563 1.816407-7.808594 2.960938-.28125-5.246094-1.78125-10.351563-4.382812-14.914063-9.570313-14.558594-27.34375-21.417968-44.210938-17.054687-6.113281 1.097656-11.988281 3.261719-17.351562 6.398437-5.8125 3.375-10.960938 7.777344-15.199219 12.992188-11.429688 12.417968-13.949219 30.625-6.328125 45.679687 7.503906 11.761719 20.714844 18.621094 34.648437 17.992188.304688 0 .609376-.039063.910157-.039063-1.167969 2.617188-2.207031 5.289063-3.125 8-16.027344-.027344-30.910157-8.3125-39.378907-21.917968-6.199218-11.070313-7.339843-24.273438-3.132812-36.242188 2.914062-8.898438 7.945312-16.960938 14.664062-23.488281 3.886719-3.863281 8.261719-7.207031 13.015626-9.945313 4.042968-2.414062 8.378906-4.300781 12.902343-5.605468zm15.511719 71.269531c-13.128907 4.3125-26.984376 1.027343-32.191407-8.039063-4.207031-9.3125-2.269531-20.253906 4.878907-27.558594 3.023437-3.714843 6.691406-6.847656 10.832031-9.25 3.789062-2.210937 7.9375-3.742187 12.257812-4.519531 10.203125-2.894531 21.132813.820313 27.457031 9.335938 2.636719 5.132812 2.980469 11.144531.949219 16.546875-9.316406 6.417968-17.488281 14.359375-24.175781 23.484375zm64.800781-64c4.027343 6.929687 6.742187 14.542969 8 22.457031-2.6875.273438-5.359375.671875-8 1.175781-1.054688-6.898437-3.367188-13.542969-6.824219-19.605469-9.375-15.816406-25.394531-26.546874-43.585938-29.210937-11.46875-1.8125-23.199218-.960937-34.285156 2.496094-.238281.074219-.476562.160156-.703125.257812-5.539062 1.660157-10.855469 3.992188-15.824219 6.945313-5.914062 3.394531-11.359374 7.542968-16.203124 12.34375-2.324219 2.246094-4.488282 4.652344-6.476563 7.199218-5.421875 6.800782-9.566406 14.53125-12.226563 22.816407-5.605468 16.269531-3.957031 34.164062 4.527344 49.136719 10.585938 17.371093 29.019532 28.449218 49.328125 29.644531-.421875 2.722656-.71875 5.441406-.871093 8.144531-16.070313-1.1875-31.277344-7.71875-43.199219-18.558594-4.949219-4.601562-9.164063-9.933594-12.503907-15.808594-.144531-.265624-.296874-.503906-.679687-1.304687-7.929687-15.101563-9.894531-32.632813-5.511719-49.117187 1.433594-5.808594 3.585938-11.417969 6.398438-16.699219.585937-1.304688 1.257812-2.570313 2.007812-3.789063 3.066406-5.21875 6.703125-10.082031 10.839844-14.496094 2.355469-2.632812 4.921875-5.0625 7.671875-7.273437 3.980469-3.4375 8.289063-6.480469 12.855469-9.089844 3.691406-2.097656 7.519531-3.945312 11.457031-5.535156 8.246094-3.363281 16.972656-5.386719 25.855469-6 7.296875-.574219 14.640625-.078125 21.792968 1.472656 19.359376 3.566407 36.207032 15.394531 46.136719 32.390625zm-131.824219-122.574219c44.113281 0 80 32.304688 80 72 0 .375 0 .710938-.039062 1.089844-2.648438-.304688-5.3125-.480469-8-.546875 0-.183594 0-.359375 0-.542969 0-35.289062-32.304688-64-72-64-39.695313 0-72 28.710938-72 64v.550781c-2.679688.066407-5.335938.242188-8 .539063 0-.371094 0-.707032 0-1.089844.039062-39.695312 35.925781-72 80.039062-72zm-85.503906 90.144531c7.144531-1.535156 14.476562-2.023437 21.761718-1.449219 8.855469.621094 17.558594 2.648438 25.78125 6 3.917969 1.582032 7.726563 3.425782 11.402344 5.511719 4.65625 2.660157 9.046875 5.765625 13.101563 9.273438.9375.800781 1.769531 1.535156 2.625 2.304687-1.703125 2.144532-3.273438 4.335938-4.800781 6.589844-4.507813-4.339844-9.519532-8.128906-14.925782-11.285156-4.96875-2.945313-10.277344-5.277344-15.808594-6.9375-.242187-.105469-.488281-.191406-.738281-.273438-11.09375-3.457031-22.835937-4.308594-34.308593-2.488281-18.175782 2.660156-34.179688 13.382813-43.554688 29.175781-.582031 1.019532-1.070312 2.058594-1.597656 3.082032-2.714844-.464844-5.433594-.863282-8.226563-1.105469.90625-2.007813 1.832031-4 2.960938-5.992188 9.972656-17.046875 26.894531-28.882812 46.328125-32.40625zm-60.496094 53.855469h2c6.914062-.035156 13.808594.769531 20.527344 2.398438 7.144531 1.640624 14.035156 4.242187 20.480468 7.730468 17.789063 9.238282 31.011719 25.363282 36.59375 44.613282 1.617188 5.609374 2.425782 11.421874 2.398438 17.257812 0 1.457031-.070312 2.832031-.152344 4.183594-.441406 7.316406-2.132812 14.503906-5.007812 21.25-.296875.726562-.679688 1.398437-1 2.109375-3.160156.191406-6.207032.425781-9.320313.640625.183594-.34375.449219-.65625.632813-1.007813 4.484375-8.355469 6.835937-17.691406 6.847656-27.175781-1.035156-29.210938-21.457031-54.125-49.894531-60.871094-7.179688-2.097656-14.625-3.152344-22.105469-3.128906-1.652344-.003906-3.300781.078125-4.945312.246094-37.597657 2.152344-67.054688 30.152344-67.054688 63.753906.234375 17.335938 7.871094 33.742188 20.984375 45.078125-3.074219.890625-5.914063 1.808594-8.632813 2.746094-12.90625-12.578125-20.238281-29.800781-20.351562-47.824219 0-38.832031 35.0625-71.136719 78-72zm2 96c-17.046875 0-32-11.199219-32-24s14.953125-24 32-24 32 11.199219 32 24-14.953125 24-32 24zm48-24c0-21.679688-21.984375-40-48-40s-48 18.320312-48 40c1.304688 17.847656 13.863281 32.867188 31.199219 37.3125-4.800781.855469-9.359375 1.765625-13.75 2.703125-15.109375-7.738281-24.847657-23.050781-25.449219-40.015625 0-25.105469 22.832031-46.089844 52.359375-47.808594 7.183594-.644531 14.417969.140625 21.296875 2.304688 21.578125 4.84375 37.265625 23.496094 38.34375 45.582031-.023438 6.847656-1.738281 13.585937-4.992188 19.609375-1.980468 3.613281-4.398437 6.964844-7.199218 9.984375-4.71875.40625-9.332032.839844-13.839844 1.304687 10.789062-6.683593 17.546875-18.292968 18.03125-30.976562zm96 184c-121.425781 0-224-47.625-224-104 0-1.71875 1.527344-7.929688 21.191406-15.496094 9.335938-3.425781 18.902344-6.171875 28.632813-8.214844 25.890625-5.398437 52.109375-9.054687 78.488281-10.953124 10.101562-.800782 20.535156-1.511719 31.128906-2.152344 21.101563-1.054688 42.75-1.597656 64.277344-1.597656 19.203125 0 38.402344.421874 56.9375 1.277343 8.265625.402344 16.367188.800781 24.375 1.34375 8.898438.640625 17.601562 1.351563 26.066406 2.144531 18.664063 1.746094 36 4 51.550782 6.792969 10.304687 1.871094 19.832031 4 28.261718 6.238281 7.742188 2.023438 15.296875 4.699219 22.585938 8 9.078125 4.273438 14.503906 8.976563 14.503906 12.617188 0 56.375-102.574219 104-224 104zm0 0"/><path d="m88 224h16v16h-16zm0 0"/><path d="m232 80h16v16h-16zm0 0"/><path d="m371.613281 247.605469 13.855469-8 8 13.855469-13.855469 8.003906zm0 0"/></g><g transform="matrix(0.12461657903001792 0.02236707730737002 -0.02236707730737002 0.12461657903001792 48.27677615987885 180.03401073119005)" id="L1_9"><path d="m389.863281 386.648438-10.320312-33.222657c-1.945313-6.308593-2.757813-12.910156-2.398438-19.496093l6.855469-133.929688c0-115.886719-77.382812-200-184-200-110.40625.125-199.875 89.59375-200 200 .175781 154.566406 125.433594 279.824219 280 280h41.105469c22.878906 0 44.398437-10.875 57.96875-29.300781 13.570312-18.421875 17.574219-42.199219 10.789062-64.050781zm-23.671875 54.558593c-10.496094 14.398438-27.269531 22.878907-45.085937 22.792969h-41.105469c-145.734375-.167969-263.832031-118.265625-264-264 .113281-101.574219 82.425781-183.886719 184-184 97.34375 0 168 77.382812 168 183.59375l-6.878906 133.511719c-.449219 8.472656.613281 16.960937 3.136718 25.0625l10.316407 33.222656c5.371093 16.988281 2.253906 35.523437-8.382813 49.816406zm0 0"/><path d="m341.34375 365.304688c-3.359375-10.808594-4.777344-22.128907-4.183594-33.433594l6.839844-132.894532c-.425781-78.976562-50.023438-158.976562-144-158.976562-88.324219.101562-159.898438 71.675781-160 160 .148438 132.484375 107.515625 239.851562 240 240h41.105469c10.167969 0 19.734375-4.835938 25.765625-13.023438 6.03125-8.191406 7.8125-18.757812 4.792968-28.472656zm-7.351562 52.183593c-2.960938 4.160157-7.78125 6.597657-12.886719 6.511719h-41.105469c-123.652344-.140625-223.859375-100.347656-224-224 .09375-79.492188 64.507812-143.90625 144-144 83.527344 0 127.617188 72 128 142.609375l-6.832031 132.4375c-.6875 13.1875.96875 26.390625 4.886719 39l10.320312 33.210937c1.605469 4.84375.710938 10.171876-2.382812 14.230469zm0 0"/><path d="m168 96c-30.929688 0-56 25.070312-56 56s25.070312 56 56 56 56-25.070312 56-56c-.035156-30.914062-25.085938-55.964844-56-56zm0 96c-22.089844 0-40-17.910156-40-40s17.910156-40 40-40 40 17.910156 40 40c-.027344 22.082031-17.917969 39.972656-40 40zm0 0"/></g><g transform="matrix(0.125 0 0 0.125 14 48)" id="L1_10"><path d="m409.703125 86.296875c-56.457031-56.457031-115.136719-86.296875-169.703125-86.296875-50.289062 0-93.769531 55.886719-132.136719 105.199219-11.675781 15.726562-24.230469 30.78125-37.597656 45.097656-10.640625 10.625-22.984375 19.390625-36.523437 25.933594-21.542969 11.363281-33.742188 19.929687-33.742188 63.769531 0 132.546875 107.453125 240 240 240 34.230469 0 65.929688-23.953125 93.878906-45.078125 10.777344-8.136719 20.953125-15.824219 30.535156-21.648437 71.363282-43.335938 115.585938-87.441407 115.585938-173.273438 0-73.304688-33.785156-117.191406-70.296875-153.703125zm-53.597656 313.304687c-10.28125 6.238282-20.800781 14.167969-31.875 22.558594-25.941407 19.609375-55.359375 41.839844-84.230469 41.839844-123.710938 0-224-100.289062-224-224 0-36.320312 7.382812-40.207031 25.230469-49.601562 14.960937-7.296876 28.601562-17.027344 40.371093-28.796876 13.835938-14.777343 26.820313-30.332031 38.886719-46.585937 34.335938-44.105469 77.046875-99.015625 119.511719-99.015625 63.464844 0 121.160156 44.375 158.398438 81.601562 46.59375 46.605469 65.601562 87.863282 65.601562 142.398438 0 78.679688-39.558594 118.097656-107.886719 159.601562zm0 0"/><path d="m240 136c-57.4375 0-104 46.5625-104 104s46.5625 104 104 104 104-46.5625 104-104c-.066406-57.410156-46.589844-103.933594-104-104zm0 192c-48.601562 0-88-39.398438-88-88s39.398438-88 88-88 88 39.398438 88 88c-.058594 48.578125-39.421875 87.941406-88 88zm0 0"/><path d="m240 168c-39.746094.046875-71.953125 32.253906-72 72 0 4.417969 3.582031 8 8 8s8-3.582031 8-8c.035156-30.914062 25.085938-55.964844 56-56 4.417969 0 8-3.582031 8-8s-3.582031-8-8-8zm0 0"/></g><g transform="matrix(0.056274441017174534 -0.06812168806342024 0.06812168806342024 0.056274441017174534 183.062324992692 90.73990677354128)" id="L1_11"><path d="m440.367188 92.671875c-1.199219-32.367187-20.09375-61.449219-49.175782-75.699219-29.085937-14.253906-63.648437-11.363281-89.960937 7.523438-33.953125-32.660156-87.644531-32.660156-121.597657 0-26.3125-18.886719-60.875-21.777344-89.957031-7.523438-29.085937 14.25-47.980469 43.332032-49.179687 75.699219-28.382813 11.484375-44.65625 41.464844-38.824219 71.519531 5.835937 30.058594 32.140625 51.773438 62.761719 51.808594 3.339844-.003906 6.675781-.285156 9.972656-.839844 7.210938 14.582032 21.773438 24.09375 38.027344 24.839844 14.203125-.515625 27.25-7.964844 34.910156-19.9375l24.230469 46.695312c13.511719 25.992188 19.203125 55.339844 16.386719 84.496094l-11.527344 119.945313c-.230469 2.257812.511718 4.503906 2.039062 6.179687 1.523438 1.679688 3.691406 2.632813 5.960938 2.621094h112c2.257812.007812 4.417968-.9375 5.941406-2.605469s2.273438-3.90625 2.058594-6.15625l-11.539063-120.40625c-2.8125-29.203125 2.910157-58.59375 16.472657-84.609375l20.945312-40.253906c7.609375 8.714844 18.550781 13.8125 30.121094 14.03125 16.851562-.921875 31.820312-11.078125 38.902344-26.402344 5.558593 1.59375 11.3125 2.398438 17.097656 2.402344 30.617187-.035156 56.925781-21.75 62.757812-51.808594 5.835938-30.054687-10.441406-60.035156-38.824218-71.519531zm-23.933594 107.328125c-6.253906-.03125-12.441406-1.296875-18.203125-3.730469-1.96875-.8125-4.179688-.804687-6.140625.019531-1.964844.820313-3.519532 2.394532-4.320313 4.367188-5.867187 14.398438-16.335937 23.34375-27.335937 23.34375-10.605469-.882812-19.90625-7.421875-24.320313-17.105469-1.527343-2.460937-4.207031-3.972656-7.105469-4-2.929687.058594-5.59375 1.710938-6.945312 4.3125l-26.894531 51.664063c-14.980469 28.757812-21.304688 61.242187-18.199219 93.519531l10.664062 111.609375h-94.402343l10.65625-111.199219c3.105469-32.234375-3.1875-64.675781-18.117188-93.410156l-31.203125-60.101563c-1.441406-2.789062-4.382812-4.476562-7.519531-4.3125-3.136719.164063-5.886719 2.148438-7.03125 5.070313-5.792969 14.777344-16.382813 23.953125-27.582031 23.953125-10.488282 0-20.371094-7.953125-26.402344-21.273438-1.613281-3.550781-5.554688-5.421874-9.328125-4.421874-3.996094 1.101562-8.125 1.671874-12.269531 1.695312-23.824219-.042969-44.011719-17.550781-47.421875-41.128906-3.410157-23.578125 10.984375-46.089844 33.820312-52.878906 3.484375-1.03125 5.835938-4.28125 5.726563-7.914063l-.125-2.078125c-.027344-28.105469 16.320312-53.652344 41.851562-65.40625s55.570313-7.5625 76.90625 10.734375c3.324219 2.835937 8.3125 2.480469 11.199219-.800781 13.628906-15.585938 33.320313-24.527344 54.023437-24.527344 20.703126 0 40.398438 8.941406 54.027344 24.527344 2.886719 3.28125 7.875 3.636718 11.199219.800781 21.4375-18.4375 51.691406-22.597656 77.3125-10.632813 25.621094 11.964844 41.851563 37.832032 41.480469 66.105469l-.074219 1.308594c-.109375 3.632813 2.242187 6.882813 5.726563 7.914063 22.789062 6.835937 37.132812 29.332031 33.710937 52.878906-3.421875 23.542968-23.574219 41.03125-47.363281 41.097656zm0 0"/><path d="m200.824219 189.75c-2.222657-3.792969-7.09375-5.078125-10.902344-2.882812-3.808594 2.199218-5.128906 7.0625-2.953125 10.882812l32 55.425781c1.417969 2.496094 4.066406 4.039063 6.9375 4.046875 2.871094.003906 5.523438-1.527344 6.953125-4.015625 1.429687-2.492187 1.417969-5.554687-.035156-8.03125zm0 0"/><path d="m290.96875 186.824219c-3.828125-2.210938-8.71875-.898438-10.929688 2.925781l-32 55.425781c-1.449218 2.476563-1.464843 5.539063-.035156 8.03125 1.429688 2.488281 4.085938 4.019531 6.953125 4.015625 2.871094-.007812 5.519531-1.550781 6.9375-4.046875l32-55.425781c2.210938-3.824219.898438-8.71875-2.925781-10.925781zm0 0"/></g><path d="m352.496094.257812c-2.207032-.1679682-4.382813.613282-5.976563 2.148438-1.609375 1.515625-2.519531 3.625-2.519531 5.832031v87.761719h-16v-88c0-4.417969-3.582031-8-8-8h-64c-4.417969 0-8 3.582031-8 8v88h-16v-88c0-4.417969-3.582031-8-8-8h-64c-4.417969 0-8 3.582031-8 8v88h-16v-87.761719c0-2.207031-.910156-4.316406-2.519531-5.832031-1.601563-1.523438-3.769531-2.304688-5.976563-2.148438-71.714844 4.402344-127.5937498 63.894532-127.503906 135.742188.046875 39.746094 32.253906 71.953125 72 72h336c19.101562.027344 37.433594-7.550781 50.941406-21.058594 13.507813-13.507812 21.085938-31.839844 21.058594-50.941406-.089844-71.777344-55.871094-131.164062-127.503906-135.742188zm95.152344 175.351563c-10.515626 10.507813-24.78125 16.40625-39.648438 16.390625h-336c-30.914062-.035156-55.964844-25.085938-56-56-.082031-60.125 44.402344-111 104-118.945312v86.945312c0 4.417969 3.582031 8 8 8h32c4.417969 0 8-3.582031 8-8v-88h48v88c0 4.417969 3.582031 8 8 8h32c4.417969 0 8-3.582031 8-8v-88h48v88c0 4.417969 3.582031 8 8 8h32c4.417969 0 8-3.582031 8-8v-86.953125c59.515625 8.101563 103.921875 58.886719 104 118.953125.023438 14.851562-5.859375 29.097656-16.351562 39.609375zm0 0" transform="matrix(0.09438361878800802 0.02359590464588426 -0.02359590464588426 0.09438361878800802 27.813205478119507 135.031783381662)" id="L1_12"/></defs><g fi:class="KUsePattern"><pattern id="pattern_L1_0" width="350" height="350" patternUnits="userSpaceOnUse"><use xlink:href="#L1_0" x="-350" y="-350"/><use xlink:href="#L1_0" x="0" y="-350"/><use xlink:href="#L1_0" x="350" y="-350"/><use xlink:href="#L1_0" x="-350" y="0"/><use xlink:href="#L1_0" x="0" y="0"/><use xlink:href="#L1_0" x="350" y="0"/><use xlink:href="#L1_0" x="-350" y="350"/><use xlink:href="#L1_0" x="0" y="350"/><use xlink:href="#L1_0" x="350" y="350"/></pattern><rect x="0" y="0" width="100%" height="100%" fill="url(#pattern_L1_0)"/></g><g fi:class="KUsePattern"><pattern id="pattern_L1_1" width="350" height="350" patternUnits="userSpaceOnUse"><use xlink:href="#L1_1" x="-350" y="-350"/><use xlink:href="#L1_1" x="0" y="-350"/><use xlink:href="#L1_1" x="350" y="-350"/><use xlink:href="#L1_1" x="-350" y="0"/><use xlink:href="#L1_1" x="0" y="0"/><use xlink:href="#L1_1" x="350" y="0"/><use xlink:href="#L1_1" x="-350" y="350"/><use xlink:href="#L1_1" x="0" y="350"/><use xlink:href="#L1_1" x="350" y="350"/></pattern><rect x="0" y="0" width="100%" height="100%" fill="url(#pattern_L1_1)"/></g><g fi:class="KUsePattern"><pattern id="pattern_L1_2" width="350" height="350" patternUnits="userSpaceOnUse"><use xlink:href="#L1_2" x="-350" y="-350"/><use xlink:href="#L1_2" x="0" y="-350"/><use xlink:href="#L1_2" x="350" y="-350"/><use xlink:href="#L1_2" x="-350" y="0"/><use xlink:href="#L1_2" x="0" y="0"/><use xlink:href="#L1_2" x="350" y="0"/><use xlink:href="#L1_2" x="-350" y="350"/><use xlink:href="#L1_2" x="0" y="350"/><use xlink:href="#L1_2" x="350" y="350"/></pattern><rect x="0" y="0" width="100%" height="100%" fill="url(#pattern_L1_2)"/></g><g fi:class="KUsePattern"><pattern id="pattern_L1_5" width="350" height="350" patternUnits="userSpaceOnUse"><use xlink:href="#L1_5" x="-350" y="-350"/><use xlink:href="#L1_5" x="0" y="-350"/><use xlink:href="#L1_5" x="350" y="-350"/><use xlink:href="#L1_5" x="-350" y="0"/><use xlink:href="#L1_5" x="0" y="0"/><use xlink:href="#L1_5" x="350" y="0"/><use xlink:href="#L1_5" x="-350" y="350"/><use xlink:href="#L1_5" x="0" y="350"/><use xlink:href="#L1_5" x="350" y="350"/></pattern><rect x="0" y="0" width="100%" height="100%" fill="url(#pattern_L1_5)"/></g><g fi:class="KUsePattern"><pattern id="pattern_L1_6" width="350" height="350" patternUnits="userSpaceOnUse"><use xlink:href="#L1_6" x="-350" y="-350"/><use xlink:href="#L1_6" x="0" y="-350"/><use xlink:href="#L1_6" x="350" y="-350"/><use xlink:href="#L1_6" x="-350" y="0"/><use xlink:href="#L1_6" x="0" y="0"/><use xlink:href="#L1_6" x="350" y="0"/><use xlink:href="#L1_6" x="-350" y="350"/><use xlink:href="#L1_6" x="0" y="350"/><use xlink:href="#L1_6" x="350" y="350"/></pattern><rect x="0" y="0" width="100%" height="100%" fill="url(#pattern_L1_6)"/></g><g fi:class="KUsePattern"><pattern id="pattern_L1_7" width="350" height="350" patternUnits="userSpaceOnUse"><use xlink:href="#L1_7" x="-350" y="-350"/><use xlink:href="#L1_7" x="0" y="-350"/><use xlink:href="#L1_7" x="350" y="-350"/><use xlink:href="#L1_7" x="-350" y="0"/><use xlink:href="#L1_7" x="0" y="0"/><use xlink:href="#L1_7" x="350" y="0"/><use xlink:href="#L1_7" x="-350" y="350"/><use xlink:href="#L1_7" x="0" y="350"/><use xlink:href="#L1_7" x="350" y="350"/></pattern><rect x="0" y="0" width="100%" height="100%" fill="url(#pattern_L1_7)"/></g><g fi:class="KUsePattern"><pattern id="pattern_L1_8" width="350" height="350" patternUnits="userSpaceOnUse"><use xlink:href="#L1_8" x="-350" y="-350"/><use xlink:href="#L1_8" x="0" y="-350"/><use xlink:href="#L1_8" x="350" y="-350"/><use xlink:href="#L1_8" x="-350" y="0"/><use xlink:href="#L1_8" x="0" y="0"/><use xlink:href="#L1_8" x="350" y="0"/><use xlink:href="#L1_8" x="-350" y="350"/><use xlink:href="#L1_8" x="0" y="350"/><use xlink:href="#L1_8" x="350" y="350"/></pattern><rect x="0" y="0" width="100%" height="100%" fill="url(#pattern_L1_8)"/></g><g fi:class="KUsePattern"><pattern id="pattern_L1_9" width="350" height="350" patternUnits="userSpaceOnUse"><use xlink:href="#L1_9" x="-350" y="-350"/><use xlink:href="#L1_9" x="0" y="-350"/><use xlink:href="#L1_9" x="350" y="-350"/><use xlink:href="#L1_9" x="-350" y="0"/><use xlink:href="#L1_9" x="0" y="0"/><use xlink:href="#L1_9" x="350" y="0"/><use xlink:href="#L1_9" x="-350" y="350"/><use xlink:href="#L1_9" x="0" y="350"/><use xlink:href="#L1_9" x="350" y="350"/></pattern><rect x="0" y="0" width="100%" height="100%" fill="url(#pattern_L1_9)"/></g><g fi:class="KUsePattern"><pattern id="pattern_L1_10" width="350" height="350" patternUnits="userSpaceOnUse"><use xlink:href="#L1_10" x="-350" y="-350"/><use xlink:href="#L1_10" x="0" y="-350"/><use xlink:href="#L1_10" x="350" y="-350"/><use xlink:href="#L1_10" x="-350" y="0"/><use xlink:href="#L1_10" x="0" y="0"/><use xlink:href="#L1_10" x="350" y="0"/><use xlink:href="#L1_10" x="-350" y="350"/><use xlink:href="#L1_10" x="0" y="350"/><use xlink:href="#L1_10" x="350" y="350"/></pattern><rect x="0" y="0" width="100%" height="100%" fill="url(#pattern_L1_10)"/></g><g fi:class="KUsePattern"><pattern id="pattern_L1_11" width="350" height="350" patternUnits="userSpaceOnUse"><use xlink:href="#L1_11" x="-350" y="-350"/><use xlink:href="#L1_11" x="0" y="-350"/><use xlink:href="#L1_11" x="350" y="-350"/><use xlink:href="#L1_11" x="-350" y="0"/><use xlink:href="#L1_11" x="0" y="0"/><use xlink:href="#L1_11" x="350" y="0"/><use xlink:href="#L1_11" x="-350" y="350"/><use xlink:href="#L1_11" x="0" y="350"/><use xlink:href="#L1_11" x="350" y="350"/></pattern><rect x="0" y="0" width="100%" height="100%" fill="url(#pattern_L1_11)"/></g><g fi:class="KUsePattern"><pattern id="pattern_L1_12" width="350" height="350" patternUnits="userSpaceOnUse"><use xlink:href="#L1_12" x="-350" y="-350"/><use xlink:href="#L1_12" x="0" y="-350"/><use xlink:href="#L1_12" x="350" y="-350"/><use xlink:href="#L1_12" x="-350" y="0"/><use xlink:href="#L1_12" x="0" y="0"/><use xlink:href="#L1_12" x="350" y="0"/><use xlink:href="#L1_12" x="-350" y="350"/><use xlink:href="#L1_12" x="0" y="350"/><use xlink:href="#L1_12" x="350" y="350"/></pattern><rect x="0" y="0" width="100%" height="100%" fill="url(#pattern_L1_12)"/></g></svg>