<?xml version="1.0" encoding="utf-8"?>
<svg id="master-artboard" viewBox="0 0 1400 980" version="1.1" xmlns="http://www.w3.org/2000/svg" x="0px" y="0px" style="enable-background:new 0 0 1400 980;" width="1400px" height="980px">

<path d="M -18 -16.299999 H 1418 V 1003.700001 H -18 V -16.299999 Z" class="st0" style="fill: rgb(255, 237, 205);" transform="matrix(1, 0, 0, 1, -2.842170943040401e-14, 0)"/>
<g transform="matrix(1, 0, 0, 1, -2.842170943040401e-14, 0)">
		<path class="st1" d="M744.6,211.6c0.2-3.8-4.1-3.3-8.7-3.6c-106.2-2.3-212.6-6.5-318.8-1.9c-1.6-0.2-3.2,0.3-4.2,1.6&#10;&#9;&#9;&#9;c-0.1,0.1-0.2,0.3-0.3,0.4c-0.1,0.2-0.3,0.4-0.4,0.6c-0.7,1.4-0.7,3.1-0.1,4.5c2.8,43.6,12.3,85.4,40.5,120&#10;&#9;&#9;&#9;c30.2,37,76.1,40.9,120.5,43.3c94.2,5,171-68.6,171.4-162.2C744.9,213.4,744.9,212.5,744.6,211.6z M735.1,217.4&#10;&#9;&#9;&#9;C735.1,217.4,735.1,217.4,735.1,217.4c-7.2-0.1-14.4-0.3-21.5-0.5c9.9,74.1-53.2,136.7-126.7,137.4c-21.7,0.2-50.6-2.2-74.5-11.2&#10;&#9;&#9;&#9;c24,9,52.9,11.4,74.5,11.2c73.5-0.8,136.7-63.3,126.7-137.4C720.7,217.1,727.9,217.3,735.1,217.4z M515.4,255.6&#10;&#9;&#9;&#9;c1.4-4.9,4.3-9.1,7.7-12.7c0,0,0,0,0,0C519.7,246.6,516.8,250.8,515.4,255.6c-1.2,4.2-1.7,12.3,2.6,14.2&#10;&#9;&#9;&#9;C513.7,268,514.2,259.8,515.4,255.6z M519,279.2c9.4,1.3,16.1-5.3,19.4-13.4c4.5-11-3.6-22.7-9.4-31.2c-0.6-0.9-1.3-1.4-2.1-1.8&#10;&#9;&#9;&#9;c0.8,0.3,1.5,0.9,2.1,1.8c5.8,8.6,14,20.3,9.4,31.2C535.1,273.9,528.4,280.5,519,279.2c-1.7-0.2-3.2-0.6-4.5-1.1&#10;&#9;&#9;&#9;C515.8,278.6,517.3,278.9,519,279.2z M636.2,257.2c-1.1,4.4-2.1,12.6,3.1,14.5C634.1,269.9,635.1,261.6,636.2,257.2&#10;&#9;&#9;&#9;c1-4.3,3.2-8.2,5.8-11.6c0,0,0,0,0,0C639.4,249,637.3,252.9,636.2,257.2z M642,281.6c9.2,1.2,16.2-8.2,17.1-16.4&#10;&#9;&#9;&#9;c1.4-11.6-5.6-20.8-12.6-29.2c-0.6-0.7-1.2-1.1-1.9-1.3c-0.4-0.3-0.9-0.6-1.4-0.7c0.5,0.2,1,0.4,1.4,0.8c0.7,0.2,1.3,0.6,1.9,1.3&#10;&#9;&#9;&#9;c7,8.5,14,17.6,12.6,29.2C658.2,273.4,651.2,282.8,642,281.6c-2.4-0.3-4.5-0.8-6.3-1.6C637.5,280.8,639.6,281.3,642,281.6z&#10;&#9;&#9;&#9; M596.7,299.7c-1,7.6-5.5,18.2-15.1,17.2c-1.7-0.2-3.3-0.5-4.8-1.1c1.5,0.5,3.1,0.9,4.8,1.1C591.2,317.9,595.7,307.4,596.7,299.7&#10;&#9;&#9;&#9;c1.3-10.9-4.8-22.3-11.6-30.1c-0.6-0.7-1.2-1.1-1.8-1.3c0.7,0.2,1.3,0.7,1.9,1.3C592,277.5,598.1,288.9,596.7,299.7z M575.5,291.7&#10;&#9;&#9;&#9;c-1.2,4.1-2,13.6,3.3,15.4C573.5,305.3,574.3,295.8,575.5,291.7c1.1-3.9,3.6-7.4,6.1-10.9c0,0,0,0,0,0&#10;&#9;&#9;&#9;C579.2,284.3,576.7,287.8,575.5,291.7z M704.3,216.7C704.3,216.7,704.3,216.7,704.3,216.7c-85.5-2-171.2-4.5-256.7-2.1&#10;&#9;&#9;&#9;c2.1,33.2,13.7,78.5,39.6,101.7c8.3,7.5,19.2,13.4,31.2,17.9c-12-4.5-22.9-10.4-31.2-17.9c-25.9-23.3-37.5-68.5-39.6-101.7&#10;&#9;&#9;&#9;C533.1,212.2,618.7,214.7,704.3,216.7z M421.9,215.4c5.4-0.2,10.7-0.3,16.1-0.5c0,0,0,0,0,0C432.7,215,427.3,215.2,421.9,215.4&#10;&#9;&#9;&#9;c2.9,41.2,11.8,86.4,42.4,116.4c11.8,11.6,25.4,19.5,39.9,24.9c-14.5-5.4-28.1-13.4-39.9-24.9&#10;&#9;&#9;&#9;C433.7,301.8,424.8,256.5,421.9,215.4z" style="fill: rgb(255, 220, 161);"/>
		<path class="st1" d="M316.1,192.9c-25.3-16-57-1.6-77.8,16.4c-0.7-28.8-8.2-64.5-43.6-64.5c-6.1,0-6.1,9.5,0,9.5&#10;&#9;&#9;&#9;c27.5,0,33.1,27.4,34,50.3c-17.7-17.6-43.9-26.4-68.4-15.7c-33.8,14.7-48.8,50.1-52.8,85c-6.8,60,48.1,177.7,122.3,130.2&#10;&#9;&#9;&#9;c30.3,13.5,58.5,9.4,80.6-16c26.3-30.3,43.9-62.9,45.1-103.5C356.5,249.1,347.4,212.7,316.1,192.9z M323.9,285.6&#10;&#9;&#9;&#9;c-1.2,2.4-3.4,2.9-5.3,2.1C320.5,288.5,322.8,288,323.9,285.6c11.7-24.4-3.4-60.5-25.1-74.1c-0.3-0.2-0.6-0.4-1-0.5&#10;&#9;&#9;&#9;c0.3,0.1,0.7,0.3,1,0.5C320.6,225.1,335.7,261.2,323.9,285.6z M238.7,221.8c19.1-19.2,45.2-31.6,69.6-21.4&#10;&#9;&#9;&#9;C284,190.2,257.8,202.6,238.7,221.8c-1.4,1.5-3.1,1.7-4.6,1.2C235.6,223.5,237.3,223.3,238.7,221.8z M240,398&#10;&#9;&#9;&#9;c-2.2-0.8-4.5-1.7-6.8-2.8c0,0,0,0,0,0C235.5,396.2,237.8,397.2,240,398z M233.5,222.7c-0.5,0-1-0.1-1.5-0.3&#10;&#9;&#9;&#9;C232.5,222.6,233,222.7,233.5,222.7C233.5,222.7,233.5,222.7,233.5,222.7z M117.1,296.5c-2.9-26.1,3.9-51.7,17.4-73.9&#10;&#9;&#9;&#9;c15.3-25.1,43.5-33,67.3-24.2c-23.8-8.8-52-0.9-67.2,24.2C121,244.8,114.2,270.4,117.1,296.5c4,35.2,26.7,92.5,62.5,106&#10;&#9;&#9;&#9;C143.8,388.9,121,331.7,117.1,296.5z M230.9,393.8c0.7,0.2,1.3,0.7,1.8,1.2c0,0,0,0,0,0C232.2,394.5,231.6,394.1,230.9,393.8z" style="fill: rgb(255, 220, 161);"/>
		<path class="st1" d="M360.9,111.2c-49.6-16.1-117.5-2.4-121.2,60c-0.1,1.1,0.3,1.9,0.7,2.6c-0.4,2.6,1.1,5.6,4.5,5.7&#10;&#9;&#9;&#9;c45,1.4,112.5-9,119.5-63.8C364.7,113.6,362.7,111.8,360.9,111.2z M292.5,149.1C292.5,149.1,292.5,149.1,292.5,149.1&#10;&#9;&#9;&#9;c11.8-5.5,24.2-10,36.6-14.3c4.7-1.6,3.9-8,0.4-9.3c3.6,1.2,4.3,7.6-0.3,9.3C316.7,139.1,304.3,143.6,292.5,149.1z M277.7,132.8&#10;&#9;&#9;&#9;c2.1,0.8,3.6,2.8,2.7,5.5c-0.9,2.5-1.7,5-2.6,7.6c0,0,0,0,0,0c0.9-2.5,1.7-5.1,2.6-7.6C281.3,135.5,279.8,133.5,277.7,132.8z&#10;&#9;&#9;&#9; M343.9,116.1c1,0.2,1.9,0.5,2.7,0.8C345.8,116.6,344.9,116.3,343.9,116.1c-11.1-2.2-23-2.7-34.4-1.4c0,0,0,0,0,0&#10;&#9;&#9;&#9;C320.9,113.4,332.8,113.9,343.9,116.1z M313.1,121.9c1.4-3.2-0.7-6-3.1-7C312.5,115.8,314.5,118.7,313.1,121.9&#10;&#9;&#9;&#9;c-1.4,3.4-2.9,6.8-4.4,10.2c0,0,0,0,0,0C310.2,128.7,311.7,125.3,313.1,121.9z M306.8,115C306.7,115.1,306.7,115.1,306.8,115&#10;&#9;&#9;&#9;c-27.7,4.1-52.3,19.7-56.8,50.2c0,0,0,0,0,0C254.4,134.7,279,119.1,306.8,115z M280.5,155.3c6.4,2.3,12.9,4.1,19.5,5.5&#10;&#9;&#9;&#9;c5.6,1.1,8.2-6.9,3.6-8.9c4.7,2,2.1,10-3.5,8.9C293.4,159.4,286.9,157.6,280.5,155.3c-7.5,4.3-14.8,9-21.5,14.8c0,0,0,0,0,0&#10;&#9;&#9;&#9;C265.7,164.3,272.9,159.5,280.5,155.3z" style="fill: rgb(255, 220, 161);"/>
		<path class="st1" d="M1017,650.5c-0.8-0.9-1.9-1.4-3.4-1.4c-95.1,0.8-190.2,1.6-285.2,2.4c-0.2,0-0.3,0.1-0.4,0.1&#10;&#9;&#9;&#9;c-2.6-0.5-5.9,0.9-6.1,4.4c-5.2,80.5,50.9,138.6,129,146.4c39.3,4,88.3-2.8,119.7-28.8c36.2-30,41.2-74.1,49-117.9&#10;&#9;&#9;&#9;C1020,653.3,1018.7,651.5,1017,650.5z M1009.5,658.7C1009.5,658.7,1009.5,658.7,1009.5,658.7c-7.1,0.1-14.1,0.1-21.2,0.2&#10;&#9;&#9;&#9;c10.8,13.4,8.6,33.9,3.1,49.4c-5.8,16.3-21.4,26.2-37.7,29.2c1.6,29.5-46.1,46.8-72.7,37c26.6,9.8,74.3-7.5,72.7-37&#10;&#9;&#9;&#9;c16.3-3,31.9-12.9,37.7-29.2c5.5-15.5,7.8-36-3.1-49.4C995.3,658.8,1002.4,658.7,1009.5,658.7z M883.7,765.5&#10;&#9;&#9;&#9;c-2.1-0.8-3.9-1.9-5.4-3.2c-0.4-0.4-0.8-0.6-1.3-0.8c0.4,0.2,0.9,0.4,1.3,0.8C879.8,763.6,881.6,764.7,883.7,765.5z M976,658.9&#10;&#9;&#9;&#9;C976,658.9,976,658.9,976,658.9c-31.2,0.3-62.4,0.5-93.6,0.8c11.6,11.2,22.5,23,33,35.4c11.1,13,22.2,25.3,37.8,32.9&#10;&#9;&#9;&#9;c0,0,0.1,0,0.1,0.1c0,0,0,0,0,0c0,0-0.1-0.1-0.1-0.1c-15.6-7.6-26.7-19.9-37.8-32.9c-10.5-12.3-21.4-24.1-33-35.4&#10;&#9;&#9;&#9;C913.6,659.5,944.8,659.2,976,658.9z M874.6,665.4c1.7,31.7,1.9,63.4,0.4,95.1c0.2,0.2,0.5,0.4,0.7,0.7c0,0,0,0,0,0&#10;&#9;&#9;&#9;c-0.2-0.3-0.5-0.5-0.7-0.7C876.5,728.8,876.3,697.1,874.6,665.4C874.6,665.4,874.6,665.4,874.6,665.4z M872.3,769.6&#10;&#9;&#9;&#9;c-16.7,9.4-36.6,10.7-52.8,4.4C835.7,780.3,855.5,779,872.3,769.6C872.3,769.6,872.3,769.6,872.3,769.6z M789.9,736.2&#10;&#9;&#9;&#9;c-5.4-0.4-10.9-1.4-16-3.3C778.9,734.8,784.4,735.8,789.9,736.2C789.9,736.2,789.9,736.2,789.9,736.2z M865.1,667.1&#10;&#9;&#9;&#9;c-22.1,21.5-44.2,43-66.3,64.6c1.1,17.6,11,28.7,24,33.6c-13-5-22.9-16-24-33.7C820.9,710.2,843,688.6,865.1,667.1&#10;&#9;&#9;&#9;C865.1,667.1,865.1,667.1,865.1,667.1z M759.6,661.5c0.1-0.3,0-0.5,0.1-0.7c33-0.3,66.1-0.6,99.1-0.8c0,0,0,0,0,0&#10;&#9;&#9;&#9;c-33,0.3-66,0.6-99.1,0.8C759.7,661,759.7,661.3,759.6,661.5c-4.2,13.8-2.5,27.2,0.8,41c2.7,11.4,8.3,18,16.7,21.4&#10;&#9;&#9;&#9;c-8.4-3.4-14.1-10-16.7-21.4C757.2,688.7,755.4,675.3,759.6,661.5z M731.2,661c6.3-0.1,12.5-0.1,18.8-0.2c0,0,0,0,0,0&#10;&#9;&#9;&#9;C743.7,660.9,737.5,661,731.2,661c-1.8,58.7,31.6,104.5,81.3,123.3C762.8,765.5,729.4,719.7,731.2,661z" style="fill: rgb(255, 220, 161);"/>
		<path class="st1" d="M1025.5,162.9c-14.5,6.1-29,12.3-43.5,18.4c1.6-16.7,2.3-33.5,2.1-50.4c-0.1-4.2-5.1-6.2-8.1-3.4&#10;&#9;&#9;&#9;c-12,11.2-25.1,21.8-33.9,35.7c-5.1-11.8-10.8-23.3-17-34.7c-1.9-3.4-6.2-2.7-8.2,0c-9.9,13.2-14.8,31.3-18.2,49.2&#10;&#9;&#9;&#9;c-12.3-11.1-23.7-23-34.3-35.9c-2.7-3.3-8.2-0.5-8.1,3.4c0.2,12.8,1.1,25.5,2.5,38.1c-7.6-1.3-16.4-6.1-23.1-8.4&#10;&#9;&#9;&#9;c-9-3.2-18.1-6.3-27.1-9.5c-3.2-1.1-7.2,2.5-5.9,5.9c9,22.7,26.8,40.9,33.8,64.5c-16.6,20.2-26.5,48.8-24.6,74.1&#10;&#9;&#9;&#9;c1.8,23.9,18.6,56.5,33,75c13.9,17.9,42.3,53.1,68.4,52.3c29.4-0.9,47.4-22.9,65.2-44.1c19.4-23.1,39.9-51.7,45.5-81.8&#10;&#9;&#9;&#9;c4.8-25.9-7.2-50.1-26.2-68.8c0.8-0.5,1.6-1.3,2-2.4c5.7-13.8,11.6-27.5,18.2-40.9c5.1-10.2,12.5-19.5,14.3-30.9&#10;&#9;&#9;&#9;C1033.2,163.9,1029.5,161.2,1025.5,162.9z M980.9,192c13.2-5.6,26.4-11.2,39.6-16.8c0,0,0,0,0,0&#10;&#9;&#9;&#9;C1007.3,180.9,994.1,186.5,980.9,192c-1.3,11-3,22-5.1,32.9c5.4,3.4,10.6,7.2,15.5,11.4c0,0,0,0,0,0c-4.9-4.2-10.1-8-15.5-11.4&#10;&#9;&#9;&#9;C977.9,214,979.6,203,980.9,192z M899.9,309.4h0.8c5.2,0,9.5-4.3,9.5-9.5c0-3.9-2.4-7.3-5.8-8.8c3.4,1.5,5.9,4.9,5.9,8.8&#10;&#9;&#9;&#9;c0,5.2-4.3,9.5-9.5,9.5L899.9,309.4c-1.3,0-2.5-0.3-3.7-0.7C897.4,309.2,898.6,309.4,899.9,309.4z M915.8,417.4&#10;&#9;&#9;&#9;c11.1,0,12.2-15.6,3.2-18.6C928,401.8,926.9,417.4,915.8,417.4c-1.1,0-2.2-0.2-3.1-0.5C913.6,417.2,914.6,417.4,915.8,417.4z&#10;&#9;&#9;&#9; M923.8,343.1c0.9,0.3,2,0.5,3.1,0.5c11.1,0,12.2-15.6,3.2-18.6c9,2.9,8,18.6-3.1,18.6C925.7,343.6,924.7,343.4,923.8,343.1z&#10;&#9;&#9;&#9; M919.8,264.2c-1.2,0-2.2-0.2-3.2-0.5C917.5,264,918.6,264.2,919.8,264.2c11.1,0,12.1-15.6,3.1-18.6&#10;&#9;&#9;&#9;C931.9,248.5,930.9,264.2,919.8,264.2z M906.2,378.4h0.8c5.2,0,9.5-4.3,9.5-9.5c0-3.9-2.4-7.3-5.8-8.8c3.4,1.5,5.9,4.9,5.9,8.8&#10;&#9;&#9;&#9;c0,5.2-4.3,9.5-9.5,9.5L906.2,378.4c-1.3,0-2.5-0.3-3.7-0.7C903.6,378.2,904.9,378.4,906.2,378.4z M987.2,329.3&#10;&#9;&#9;&#9;c11.1,0,12.2-15.6,3.2-18.6C999.4,313.6,998.4,329.3,987.2,329.3c-1.5,0-2.9-0.3-4-0.8C984.4,329,985.7,329.3,987.2,329.3z&#10;&#9;&#9;&#9; M961,269.7c10.8,0,12.1-14.6,4-18.2C973.2,255.1,971.8,269.7,961,269.7c-1.5,0-2.9-0.3-4-0.8C958.2,269.4,959.5,269.7,961,269.7z&#10;&#9;&#9;&#9; M954.7,303.1h0.8c5.2,0,9.5-4.3,9.5-9.5c0-3.9-2.4-7.3-5.8-8.8c3.4,1.5,5.9,4.9,5.9,8.8c0,5.2-4.3,9.5-9.5,9.5L954.7,303.1&#10;&#9;&#9;&#9;c-1.3,0-2.5-0.3-3.7-0.7C952.2,302.8,953.4,303.1,954.7,303.1z M962.6,382.5c11.1,0,12.2-15.6,3.2-18.6&#10;&#9;&#9;&#9;C974.8,366.8,973.8,382.5,962.6,382.5c-1.1,0-2.2-0.2-3.1-0.5C960.4,382.3,961.5,382.5,962.6,382.5z M974.6,141.7&#10;&#9;&#9;&#9;C974.6,141.7,974.6,141.7,974.6,141.7c-10.7,9.7-21.4,19.7-27.9,32.7c5.6,13.8,10.4,27.8,14.6,42.2c0.1,0.2,0,0.3,0,0.5&#10;&#9;&#9;&#9;c1.9,0.9,3.8,1.9,5.7,2.9l0,0c-1.9-1-3.8-2-5.7-2.9c0-0.2,0-0.3,0-0.5c-4.1-14.4-9-28.4-14.6-42.2&#10;&#9;&#9;&#9;C953.2,161.3,963.9,151.4,974.6,141.7z M920.6,140.4C920.6,140.4,920.6,140.4,920.6,140.4c-10.5,19.1-13.7,45.9-17.4,66.9&#10;&#9;&#9;&#9;c0,0,0,0,0,0C906.9,186.2,910,159.5,920.6,140.4z M866.3,158.7c0.9,17.9,2.9,35.6,6.2,53.3c0,0,0,0,0,0&#10;&#9;&#9;&#9;C869.3,194.3,867.2,176.6,866.3,158.7C866.3,158.7,866.3,158.7,866.3,158.7z M860,193C860,193,860,193,860,193&#10;&#9;&#9;&#9;c-3.8-0.4-7.6-1.6-11.4-3.1C852.4,191.4,856.2,192.6,860,193z M816.3,178.1l21.4,7.5c0.9,0.3,1.7,0.6,2.6,1&#10;&#9;&#9;&#9;c-0.9-0.3-1.8-0.7-2.6-1L816.3,178.1c8.7,16.9,20.9,31.8,27.6,49.7c0,0,0,0,0,0C837.1,210,825,195,816.3,178.1z M856.5,384.2&#10;&#9;&#9;&#9;c-15.8-18-26.2-45-33.4-67.3c-8.2-25.6,7.2-59.5,23.6-78.9c18.5-21.9,53.4-21.4,79.3-21.7c0.1,0,0.2,0,0.3-0.1&#10;&#9;&#9;&#9;c0.3,0.1,0.6,0.3,0.9,0.3c8,0.9,16,2.9,23.8,5.9c-7.8-3-15.8-5.1-23.7-5.9c-0.4,0-0.6-0.2-0.9-0.3c-0.1,0-0.2,0.1-0.3,0.1&#10;&#9;&#9;&#9;c-25.9,0.3-60.8-0.2-79.3,21.7c-16.4,19.4-31.8,53.3-23.6,78.9C830.3,339.2,840.7,366.3,856.5,384.2c10.4,11.8,29,34.3,45.5,40.8&#10;&#9;&#9;&#9;C885.5,418.5,866.9,396,856.5,384.2z M853,303.9c11.1,0,12.2-15.6,3.2-18.6C865.3,288.2,864.2,303.9,853,303.9&#10;&#9;&#9;&#9;c-1.1,0-2.2-0.2-3.1-0.5C850.8,303.7,851.9,303.9,853,303.9z M863.4,353.9c11.1,0,12.2-15.6,3.2-18.6&#10;&#9;&#9;&#9;C875.6,338.3,874.5,353.9,863.4,353.9c-1.1,0-2.2-0.2-3.1-0.5C861.2,353.7,862.2,353.9,863.4,353.9z M870,263.4&#10;&#9;&#9;&#9;c1.1,0.5,2.4,0.7,3.7,0.7h0.8c5.2,0,9.5-4.3,9.5-9.5c0-3.9-2.4-7.3-5.8-8.8c3.4,1.5,5.9,4.9,5.9,8.8c0,5.2-4.3,9.5-9.5,9.5h-0.8&#10;&#9;&#9;&#9;C872.4,264.2,871.2,263.9,870,263.4z" style="fill: rgb(255, 220, 161);"/>
		<path class="st1" d="M1161.3,433.8c13.9,9,33,22.2,50,16.3c15.5-5.4,29.4-7,43.9-15.2c17.3-9.9,32.3-23.6,44.9-38.9&#10;&#9;&#9;&#9;c26.7-32.4,31.2-76.4,25.4-116.7c-7.1-49.4-32.5-91.2-45.2-138.9c-8.1-30.5-29.7-67.3-66.6-54c-0.5,0.2-0.9,0.4-1.2,0.7&#10;&#9;&#9;&#9;c-0.1-0.1-0.2-0.1-0.3-0.3c-1.6-1.7-3.5-1.8-5.1-1.1c-30.2-10.5-49,29.6-61.7,50.9c-11.4,19.3-25.3,34.4-33.6,55.6&#10;&#9;&#9;&#9;c-9.3,23.7-14.5,51.4-17.7,76.6c-5.5,42.2,2.7,92.3,26.4,128.3C1130.6,412.5,1146,423.9,1161.3,433.8z M1211.2,323&#10;&#9;&#9;&#9;c5.6,1.9,13-1,13-8.6c0-4.6-2.7-7.5-6-8.6c3.4,1.2,6,4,6,8.6C1224.3,322,1216.8,324.9,1211.2,323z M1214.7,424.7&#10;&#9;&#9;&#9;c0.1-11.9,0.2-23.8,0.3-35.7c0-2.3-1.3-3.7-3-4.3c1.7,0.6,3,2,3,4.3C1214.9,400.9,1214.8,412.8,1214.7,424.7&#10;&#9;&#9;&#9;c0,3.9-3.7,5.3-6.5,4.3C1210.9,430,1214.7,428.5,1214.7,424.7z M1212,377.8c5.6,1.9,13-1,13-8.6c0-4.6-2.7-7.5-6-8.6&#10;&#9;&#9;&#9;c3.4,1.2,6,4,6,8.6C1225.1,376.8,1217.6,379.7,1212,377.8z M1216.3,351.7c-1.3,0-2.5-0.3-3.7-0.8&#10;&#9;&#9;&#9;C1213.8,351.4,1215,351.7,1216.3,351.7c5.2,0,9.5-4.3,9.5-9.5v-0.8c0-3.9-2.4-7.3-5.8-8.8c3.4,1.5,5.9,4.9,5.9,8.8v0.8&#10;&#9;&#9;&#9;C1225.9,347.3,1221.5,351.7,1216.3,351.7z M1213.6,293.6c5.6,1.9,13-1,13-8.6c0-4.6-2.7-7.5-6-8.6c3.4,1.2,6,4,6,8.6&#10;&#9;&#9;&#9;C1226.7,292.7,1219.2,295.5,1213.6,293.6z M1194.1,285.8h-0.8c-1.3,0-2.5-0.3-3.7-0.8c1.1,0.5,2.4,0.7,3.7,0.7L1194.1,285.8&#10;&#9;&#9;&#9;c5.2,0,9.5-4.3,9.5-9.5c0-3.9-2.4-7.3-5.8-8.8c3.4,1.5,5.9,4.9,5.9,8.8C1203.6,281.4,1199.3,285.8,1194.1,285.8z M1205.2,305.6&#10;&#9;&#9;&#9;c0-4.6-2.7-7.5-6-8.6C1202.5,298.1,1205.2,301,1205.2,305.6c0,7.7-7.4,10.6-13,8.6C1197.7,316.2,1205.2,313.3,1205.2,305.6z&#10;&#9;&#9;&#9; M1248.1,363.6c0-4.6-2.7-7.5-6-8.6C1245.4,356.1,1248.1,359,1248.1,363.6c0,7.7-7.4,10.6-13,8.6&#10;&#9;&#9;&#9;C1240.6,374.1,1248.1,371.3,1248.1,363.6z M1236.6,348.4c5.6,1.9,13-1,13-8.6c0-4.6-2.7-7.5-6-8.6c3.4,1.2,6,4,6,8.6&#10;&#9;&#9;&#9;C1249.7,347.5,1242.2,350.3,1236.6,348.4z M1240.6,317.4c5.6,1.9,13-1,13-8.6c0-4.6-2.7-7.5-6-8.6c3.4,1.2,6,4,6,8.6&#10;&#9;&#9;&#9;C1253.6,316.5,1246.2,319.4,1240.6,317.4z M1271.9,327.8c0-4.6-2.7-7.5-6-8.6C1269.2,320.4,1271.9,323.2,1271.9,327.8&#10;&#9;&#9;&#9;c0,7.7-7.4,10.6-13,8.6C1264.4,338.4,1271.9,335.5,1271.9,327.8z M1262,307.1c5.6,1.9,13-1,13-8.6c0-4.6-2.7-7.5-6-8.6&#10;&#9;&#9;&#9;c3.4,1.2,6,4,6,8.6C1275.1,306.2,1267.6,309,1262,307.1z M1271.9,265.9c0,5.2-4.3,9.5-9.5,9.5c-1.3,0-2.5-0.3-3.7-0.8&#10;&#9;&#9;&#9;c1.1,0.5,2.4,0.7,3.7,0.7C1267.6,275.4,1271.9,271.1,1271.9,265.9l0-0.8c0-3.9-2.4-7.3-5.8-8.8c3.4,1.5,5.9,4.9,5.9,8.8V265.9z&#10;&#9;&#9;&#9; M1253.6,279.4c0,7.7-7.5,10.6-13.1,8.6C1246.2,290,1253.6,287.1,1253.6,279.4c0-4.6-2.7-7.5-6-8.6&#10;&#9;&#9;&#9;C1251,271.9,1253.6,274.8,1253.6,279.4z M1237.4,255.5c5.6,1.9,13-1,13-8.6c0-4.6-2.7-7.5-6-8.6c3.4,1.2,6,4,6,8.6&#10;&#9;&#9;&#9;C1250.5,254.6,1243,257.4,1237.4,255.5z M1247.3,219.9v0.8c0,5.2-4.3,9.5-9.5,9.5c-1.3,0-2.5-0.3-3.7-0.8c1.1,0.5,2.4,0.7,3.7,0.7&#10;&#9;&#9;&#9;c5.2,0,9.5-4.3,9.5-9.5L1247.3,219.9c0-3.9-2.5-7.3-5.9-8.8C1244.8,212.5,1247.3,216,1247.3,219.9z M1229,260.4&#10;&#9;&#9;&#9;c0,7.7-7.5,10.6-13.1,8.6C1221.6,270.9,1229,268,1229,260.4c0-4.6-2.7-7.5-6-8.6C1226.4,252.9,1229,255.8,1229,260.4z&#10;&#9;&#9;&#9; M1211.2,245.2c5.6,1.9,13-1,13-8.6c0-4.6-2.7-7.5-6-8.6c3.4,1.2,6,4,6,8.6C1224.3,244.2,1216.8,247.1,1211.2,245.2z M1208,218.2&#10;&#9;&#9;&#9;c5.6,1.9,13-1,13-8.6c0-4.6-2.7-7.5-6-8.6c3.4,1.2,6,4,6,8.6C1221.1,217.2,1213.6,220.1,1208,218.2z M1216.7,180.9&#10;&#9;&#9;&#9;c-0.2,3.8-4.1,5.3-6.8,4.3C1212.6,186.2,1216.5,184.7,1216.7,180.9c1.5-25.7,2.2-51.3,2-77c0-2.3-1.4-3.7-3-4.3&#10;&#9;&#9;&#9;c1.7,0.6,3,2,3.1,4.3C1219,129.6,1218.3,155.3,1216.7,180.9z M1202.8,253.2c0,7.7-7.5,10.6-13.1,8.6&#10;&#9;&#9;&#9;C1195.4,263.8,1202.8,260.9,1202.8,253.2c0-4.6-2.7-7.5-6-8.6C1200.2,245.7,1202.8,248.6,1202.8,253.2z M1195.3,228.2l-0.8,0.8&#10;&#9;&#9;&#9;c-2.8,2.8-6.9,3.4-10.3,2.1c3.4,1.4,7.6,0.7,10.3-2.1L1195.3,228.2c3.6-3.7,3.6-9.8,0-13.5c-0.9-0.9-2-1.6-3.1-2.1&#10;&#9;&#9;&#9;c1.2,0.5,2.2,1.1,3.2,2.1C1198.9,218.4,1198.9,224.5,1195.3,228.2z M1179,263.5c0,7.7-7.5,10.6-13.1,8.6&#10;&#9;&#9;&#9;C1171.5,274.1,1179,271.2,1179,263.5c0-4.6-2.7-7.5-6-8.6C1176.3,256,1179,258.9,1179,263.5z M1177.4,290.5c0-4.6-2.7-7.5-6-8.6&#10;&#9;&#9;&#9;C1174.7,283,1177.4,285.9,1177.4,290.5c0,7.7-7.4,10.6-13,8.6C1170,301.1,1177.4,298.2,1177.4,290.5z M1179.8,315.1&#10;&#9;&#9;&#9;c0-4.6-2.7-7.5-6-8.6C1177.1,307.7,1179.8,310.5,1179.8,315.1c0,7.7-7.4,10.6-13,8.6C1172.3,325.7,1179.8,322.8,1179.8,315.1z&#10;&#9;&#9;&#9; M1194.9,332.6c0-4.6-2.7-7.5-6-8.6C1192.2,325.1,1194.9,328,1194.9,332.6c0,7.7-7.4,10.6-13,8.6&#10;&#9;&#9;&#9;C1187.4,343.2,1194.9,340.3,1194.9,332.6z M1204.4,362.8c0-4.6-2.7-7.5-6-8.6C1201.7,355.3,1204.4,358.2,1204.4,362.8&#10;&#9;&#9;&#9;c0,7.7-7.4,10.6-13,8.6C1197,373.3,1204.4,370.5,1204.4,362.8z M1209.5,96.1c2.9,0.9,6.2,0.5,8.8-1.2c8.5-2.7,15.7-2.4,21.9,0.1&#10;&#9;&#9;&#9;c-6.1-2.4-13.3-2.7-21.8-0.1C1215.7,96.7,1212.5,97.1,1209.5,96.1c-0.7,0.1-1.4,0.1-2.2-0.1C1208.1,96.3,1208.8,96.3,1209.5,96.1z&#10;&#9;&#9;&#9; M1101.6,287.4c0.7-36.3,11.9-81.6,29.1-113.6c7.4-13.7,18.7-25.4,26.7-38.8c8.8-14.9,23.7-49,46.8-40.3&#10;&#9;&#9;&#9;c-23.1-8.7-38,25.4-46.8,40.3c-8,13.5-19.3,25.1-26.7,38.8C1113.5,205.8,1102.3,251.1,1101.6,287.4c-0.6,32.6,6.6,78.4,27.1,104.9&#10;&#9;&#9;&#9;c11.9,15.5,26.9,27.7,44,37.2c5.3,2.9,12.8,8,19.5,10.8c0,0,0,0,0,0c-6.7-2.8-14.2-7.8-19.6-10.8c-17.1-9.4-32.1-21.7-44-37.2&#10;&#9;&#9;&#9;C1108.2,365.8,1101,320,1101.6,287.4z" style="fill: rgb(255, 220, 161);"/>
		<path class="st1" d="M658.6,551.9c-1.4-1.4-3.4-2.1-5.7-1.1c-9.4,4.1-19.3,10-29.7,10.4c-6.4,0.3-1.5-10.3-0.7-13&#10;&#9;&#9;&#9;c1.3-4.4,2.8-8.6,4.3-12.9c1-2.6-0.5-4.5-2.4-5.3c-2-1.9-5.6-2.3-7.4,0.8c-5.4,9.3-12.8,16.4-22.2,21.6c-2.3,1.3-4.7,2.2-7.1,3.1&#10;&#9;&#9;&#9;c1.5-0.5,0.6-4.9,0.6-6.1c0-6.5,0.5-12.9,1.3-19.4c0.4-3.3-2.3-4.8-4.9-4.4c-2.1-0.3-4.5,0.6-5.5,3.1c-5.3,13-13,24.2-27.2,25.9&#10;&#9;&#9;&#9;c10.8-27.9,7.4-61.4-22.5-75.9c-5.5-2.7-10.3,5.5-4.8,8.2c26.5,12.9,28.1,43,17.2,67.2c-11.5-2.7-20.1-12.1-22.4-23.9&#10;&#9;&#9;&#9;c-0.6-3.2-3.4-3.9-5.8-3.1c-3-0.5-6.6,1.9-5.6,5.8c1.7,7,1.4,13.5-0.7,20.1c-6.7-0.6-11.9-5.3-17-9.7c-5.8-5-11.4-10.4-14-17.9&#10;&#9;&#9;&#9;c-1.6-4.5-7.6-3.9-9.1-0.6c-0.5,0.6-0.9,1.2-1.1,2.2c-1.9,12.6,4.6,21.8,8.8,33.1c1.4,3.8-4.7,1.4-6.9,0.9&#10;&#9;&#9;&#9;c-3.9-1-7.5-3.6-10.9-5.8c-4.7-3.1-9.1-6.6-13.6-10c-0.7-2.2-2.7-3.3-4.8-3.2c-3.8-1-6.7,4.4-4.3,7.9&#10;&#9;&#9;&#9;c1.6,20.9,12.7,45.8,31.3,56.3c-2.2,6-2.3,12.8-0.5,19c-15.9-0.5-28.5,13-30.7,29.1c-1.5,11.2,2.5,28.7,12.5,35.6&#10;&#9;&#9;&#9;c-10,14.7,1.2,42.9,19.6,46.2c-3.7,10.2-3.1,23.3,1.1,31.8c7,14.3,21.9,18.7,35.8,14.2c-0.7,12,5.2,23.3,16.6,28.9&#10;&#9;&#9;&#9;c13.4,6.7,25.9,0.9,35.8-8c8.6,11.6,26.2,10.2,38.1,1.9c7-4.9,11-12,12.2-20.4c0.3-2.5,0.7-5.8,0.5-9c23.9,0.7,42-33.1,26.6-50.6&#10;&#9;&#9;&#9;c11.2-4.7,19.5-14.1,23-26.1c3.5-11.9-1.5-24.6-11.8-29.5c8.8-9.3,12.1-21.6,8.3-34.8c-4.5-15.5-17.1-19.4-30.7-18.5&#10;&#9;&#9;&#9;c-0.8-7.1-3.6-13.3-8.2-18.2c19.3-8.2,35.2-21.6,46.4-39.5C662.4,555.6,660.9,553,658.6,551.9z M643.4,565.7&#10;&#9;&#9;&#9;C643.4,565.8,643.4,565.8,643.4,565.7c-8.9,4-18.5,6.9-26.8,3.5C624.9,572.7,634.5,569.7,643.4,565.7z M636.2,676.8&#10;&#9;&#9;&#9;c1.8,0.1,3.3,0.4,4.7,0.9C639.6,677.2,638,676.8,636.2,676.8c-0.6,0-1.1-0.1-1.6-0.3C635.1,676.6,635.6,676.7,636.2,676.8z&#10;&#9;&#9;&#9; M572.3,751.8c-3.2-0.2-6.2-0.9-8.9-1.9C566.1,750.9,569.1,751.6,572.3,751.8c18.7,1.3,31-17.6,29.2-34.4c-0.2-2.1-1.5-3.4-3-4.1&#10;&#9;&#9;&#9;c1.6,0.7,2.8,2,3.1,4.1C603.3,734.2,591,753.1,572.3,751.8z M499.9,701.5c-6.3-2.4-11.1-8.5-9.3-17.9c0.6-2.8-1.2-4.9-3.3-5.6&#10;&#9;&#9;&#9;c2.1,0.8,3.8,2.8,3.3,5.6C488.8,692.9,493.6,699.1,499.9,701.5z M605.8,591.5c-1.3-0.7-2.7-1.3-4.1-1.8&#10;&#9;&#9;&#9;C603.1,590.2,604.5,590.8,605.8,591.5C605.8,591.5,605.8,591.5,605.8,591.5z M521.6,604.8c0.9,4-3,6.4-6,5.8&#10;&#9;&#9;&#9;c-0.5,0-1.1-0.1-1.6-0.3c0.5,0.2,1,0.3,1.5,0.3C518.6,611.3,522.5,608.9,521.6,604.8c-3.4-15,14.2-18.3,25-16.2&#10;&#9;&#9;&#9;c1.8,0.4,3.5,0.8,5.1,1.5c-1.6-0.6-3.3-1.1-5.1-1.5C535.9,586.6,518.2,589.9,521.6,604.8z M555.9,722.3c0.5-2.8-1.3-4.9-3.4-5.6&#10;&#9;&#9;&#9;C554.7,717.4,556.4,719.5,555.9,722.3c-1.4,8.3,3.6,16.4,11,19.2C559.5,738.8,554.5,730.6,555.9,722.3z M554.9,634.8&#10;&#9;&#9;&#9;c-0.2-2.1-1.5-3.4-3-4.1C553.5,631.3,554.7,632.7,554.9,634.8c0.9,8.4,5.8,14.1,11.9,16.7C560.7,648.9,555.8,643.2,554.9,634.8z&#10;&#9;&#9;&#9; M555.4,581.6c7.1,2.9,13.1,7.7,16.8,14.7c0,0,0,0,0,0C568.4,589.2,562.5,584.4,555.4,581.6z M512.8,595.7&#10;&#9;&#9;&#9;c-2.9-2.4-6.1-4.2-9.5-5.4C506.7,591.5,509.9,593.3,512.8,595.7C512.8,595.7,512.8,595.7,512.8,595.7z M502.7,712.5&#10;&#9;&#9;&#9;c-1.9-0.3-3.8-0.8-5.5-1.4C498.9,711.7,500.7,712.2,502.7,712.5c15.9,2.4,28.6-11,28.6-26.3c0-2.3-1.3-3.7-3-4.3&#10;&#9;&#9;&#9;c1.7,0.6,3,2,3,4.3C531.3,701.6,518.6,715,502.7,712.5z M601.4,646.7c-8.2,15-23.9,18.7-36.6,13.8&#10;&#9;&#9;&#9;C577.4,665.3,593.1,661.6,601.4,646.7c1.6-3-0.2-5.9-2.7-6.8C601.1,640.8,603,643.6,601.4,646.7z M597.7,598.3&#10;&#9;&#9;&#9;c-8.5-1.8-19.1,0.2-21.3,9.9c-0.7,3.2-3.6,4-6,3.1c2.4,0.9,5.3,0.1,6-3.1C578.5,598.5,589.2,596.6,597.7,598.3&#10;&#9;&#9;&#9;c1.2,0.2,2.3,0.6,3.3,1C600,598.9,598.9,598.6,597.7,598.3z M590.3,564.7c6.8-1,14.7-6.7,19.8-11c0.2-0.2,0.4-0.4,0.7-0.6&#10;&#9;&#9;&#9;c0,0,0,0,0,0c-0.2,0.2-0.4,0.4-0.6,0.6C605,558,597.1,563.7,590.3,564.7c-2.3,0.4-4.3,0.1-5.8-0.5&#10;&#9;&#9;&#9;C586,564.8,587.9,565,590.3,564.7z M549.1,564.4c12.8,0.9,22.2-5.6,29.1-14.7c0,0,0,0,0,0C571.3,558.9,561.9,565.3,549.1,564.4&#10;&#9;&#9;&#9;c-5.5-0.4-10.7-1.6-15.5-3.5C538.4,562.8,543.6,564,549.1,564.4z M510.9,562.5c2.3-0.3,3.7-1.3,4.6-3.5c1.2-3.1,2.1-6.2,2.6-9.3&#10;&#9;&#9;&#9;c0,0,0,0,0,0c-0.5,3.1-1.4,6.2-2.6,9.3C514.7,561.2,513.3,562.2,510.9,562.5c-3.7,0.5-7.2,0-10.5-1.2&#10;&#9;&#9;&#9;C503.7,562.5,507.2,563,510.9,562.5z M478.4,570.8c4.9-0.7,7.9-5.8,6.6-10.4c-1.5-5.2-4.4-10.3-6.6-15.5c0,0,0,0,0,0&#10;&#9;&#9;&#9;c2.3,5.2,5.1,10.3,6.6,15.5C486.3,565.1,483.3,570.2,478.4,570.8c-5.5,0.8-10.7,0-15.5-1.8C467.7,570.8,472.8,571.6,478.4,570.8z&#10;&#9;&#9;&#9; M445.5,558.7C445.5,558.7,445.5,558.7,445.5,558.7c3.4,15.6,12.3,31.7,25.4,39.3c0,0,0,0,0,0&#10;&#9;&#9;&#9;C457.8,590.3,448.9,574.2,445.5,558.7z M444.5,653.5c1.7-12.9,14.2-21.8,26.7-17.7c3.6,1.2,6-1.9,5.8-4.9c0.5-1.2,0.5-2.5-0.4-3.9&#10;&#9;&#9;&#9;c-6-10.2-2.6-21.2,7.4-27.1c5.3-3.1,11.1-2.9,16.3-0.8c-5.2-2.1-11-2.3-16.3,0.8c-10,5.8-13.5,16.9-7.4,27.1&#10;&#9;&#9;&#9;c0.8,1.4,0.8,2.8,0.4,3.9c0.1,3-2.2,6.1-5.8,4.9C458.7,631.7,446.3,640.6,444.5,653.5c-0.8,6.2,0.3,25.8,9.2,29.2&#10;&#9;&#9;&#9;C444.7,679.3,443.6,659.7,444.5,653.5z M480,724.5C480,724.5,480,724.5,480,724.5c-0.3-0.3-0.7-0.5-1.1-0.7&#10;&#9;&#9;&#9;C479.3,723.9,479.7,724.2,480,724.5z M457.7,692.8c1.3-0.1,2.6-0.3,4-0.7c4.9-1.4,4-7.9,0-9.1c-0.4-0.3-0.8-0.5-1.2-0.7&#10;&#9;&#9;&#9;c0.5,0.2,0.9,0.4,1.3,0.7c3.9,1.2,4.9,7.8,0,9.1C460.4,692.5,459,692.7,457.7,692.8c-9.4,6.5-3.7,28.2,7.9,33&#10;&#9;&#9;&#9;C454,721,448.2,699.3,457.7,692.8z M475.8,761.2c-2.1-6.2-2.5-19.3,1.8-26c1.5-0.5,2.9-1.1,4.4-2c4.1-2.3,2.2-7.5-1.2-8.6&#10;&#9;&#9;&#9;c3.5,1,5.4,6.3,1.3,8.6c-1.5,0.8-3,1.5-4.4,2C473.3,741.9,473.7,755,475.8,761.2c2.1,6.2,6.1,10.1,11,12&#10;&#9;&#9;&#9;C481.9,771.3,477.8,767.4,475.8,761.2z M508.7,770.9c0.3,0.1,0.7,0.3,1,0.5c0,0,0,0,0,0C509.4,771.2,509.1,771.1,508.7,770.9z&#10;&#9;&#9;&#9; M514.3,777.2c0.8-2.6-0.6-4.5-2.5-5.4C513.7,772.7,515.1,774.6,514.3,777.2c-2.8,9.5,0.5,21.5,10.3,25.4&#10;&#9;&#9;&#9;C514.8,798.7,511.4,786.7,514.3,777.2z M562.1,793.9c-0.1-0.2-0.2-0.3-0.3-0.5c-0.1-0.2-0.2-0.4-0.3-0.6c-0.2-0.3-0.4-0.6-0.6-0.8&#10;&#9;&#9;&#9;c-0.5-0.6-1.2-1-1.8-1.3c0.7,0.3,1.3,0.8,1.9,1.4c0.2,0.2,0.4,0.5,0.6,0.8c0.1,0.2,0.2,0.4,0.3,0.6&#10;&#9;&#9;&#9;C561.9,793.6,562,793.7,562.1,793.9c1.3,3.9,3.8,6.2,6.9,7.4C565.9,800.2,563.4,797.8,562.1,793.9z M601.2,764.1&#10;&#9;&#9;&#9;C601.2,764.1,601.2,764.1,601.2,764.1c0.5,0.2,0.9,0.6,1.3,0.8c0,0,0,0,0,0C602.1,764.7,601.7,764.3,601.2,764.1z M617.8,626.2&#10;&#9;&#9;&#9;c6.2-1.1,11.8-1.4,16.5,0.3C629.6,624.8,623.9,625.1,617.8,626.2c-0.9,0.2-1.8,0.1-2.6-0.2C616,626.3,616.8,626.4,617.8,626.2z" style="fill: rgb(255, 220, 161);"/>
		<path class="st1" d="M1267.4,706.5c13.6-41.6-10.1-94.5-54.4-101.7c4.2-29.4-2.5-58.5-28-76.2c-5.1-3.5-9.8,4.7-4.8,8.2&#10;&#9;&#9;&#9;c22.2,15.5,27.3,41.9,23.4,67.2c-46.6-0.1-69.6,57.6-66.4,97.5c-33.9,16-54.3,57-48.1,93.7c8.7,51.6,74.9,65.6,116.8,73.4&#10;&#9;&#9;&#9;c21.4,4,47-7.7,65.9-16.4c16.5-7.6,31-24.7,37.3-41.5C1324.6,769.4,1306.8,725.9,1267.4,706.5z M1260.3,713.3&#10;&#9;&#9;&#9;c-0.3-0.1-0.6-0.1-0.9-0.3C1259.7,713.2,1260,713.2,1260.3,713.3C1260.3,713.3,1260.3,713.3,1260.3,713.3z M1247.4,673.1&#10;&#9;&#9;&#9;c-1.8-11.2-6.1-20.6-14.8-28.1c-0.4-0.4-0.9-0.7-1.3-0.8c0.5,0.2,0.9,0.5,1.4,0.9C1241.3,652.4,1245.6,661.8,1247.4,673.1&#10;&#9;&#9;&#9;c1.8,11.4,4.2,23.1-0.5,34c-1.1,2.5-3.2,2.9-5.1,2.2c1.9,0.7,4,0.3,5.1-2.2C1251.5,696.1,1249.2,684.5,1247.4,673.1z&#10;&#9;&#9;&#9; M1105.1,810.1c-21.9-33.3,3-85.1,36.6-100.3c1.6-0.1,3.2-0.8,4.2-2.2c1.9-1.8,1.9-4.8,0.7-6.7c-3.8-35.6,13.2-74.8,49.4-85.9&#10;&#9;&#9;&#9;c10.2-3.1,19.3-2.6,27.3,0.4c-8-3-17.1-3.5-27.3-0.4c-36.2,11.1-53.2,50.3-49.4,85.9c1.3,1.9,1.2,4.9-0.7,6.7&#10;&#9;&#9;&#9;c-1,1.4-2.7,2.1-4.2,2.2C1108.1,725,1083.2,776.9,1105.1,810.1c11.7,17.8,29.3,28.6,48.6,35.9&#10;&#9;&#9;&#9;C1134.3,838.7,1116.8,827.9,1105.1,810.1z" style="fill: rgb(255, 220, 161);"/>
		<path class="st1" d="M1352,476.8c-0.5-1.1-1.5-2-3-2.4c-29.8-7.4-59.1-5.5-87.2,7.1c-26.8,12.1-37.7,43.2-48.2,68.4&#10;&#9;&#9;&#9;c-0.6,1.4-0.5,2.6,0.1,3.5c0.3,2.1,1.7,4.1,4.5,4.2c62.8,1.6,117.9-9.2,134.6-77C1353.1,479.1,1352.7,477.8,1352,476.8z&#10;&#9;&#9;&#9; M1266.6,489.8c22.4-12.6,51.2-12.5,75.8-7.1c0,0,0,0,0,0C1317.8,477.3,1289,477.2,1266.6,489.8c-20.4,11.5-30.4,31.1-39.1,51.6&#10;&#9;&#9;&#9;c0,0,0,0,0,0C1236.1,520.9,1246.1,501.3,1266.6,489.8z M1273.7,508.5c1.5-3.1-0.5-6-2.9-6.9&#10;&#9;&#9;&#9;C1273.3,502.5,1275.2,505.4,1273.7,508.5c-1.8,3.9-3.6,7.7-5.4,11.6c0,0,0,0,0,0C1270.1,516.2,1271.9,512.3,1273.7,508.5z&#10;&#9;&#9;&#9; M1296.3,525.8c4.9,3,1,10.4-3.8,8.7C1297.3,536.2,1301.2,528.7,1296.3,525.8c-2.7-1.6-5.5-3.2-8.3-4.6&#10;&#9;&#9;&#9;c11.2-5.3,22.5-10.4,33.9-15.3c4.2-1.8,2.6-6.8-0.9-8.3c3.5,1.4,5.2,6.5,0.9,8.3c-11.4,4.8-22.7,10-33.9,15.3&#10;&#9;&#9;&#9;C1290.8,522.6,1293.6,524.1,1296.3,525.8z M1307.1,496.4c-2.1,2.6-4,5.3-5.6,8.2c0,0,0,0,0,0&#10;&#9;&#9;&#9;C1303.1,501.7,1305,498.9,1307.1,496.4c2.5-3.1,0.5-7.1-2.3-8.1C1307.6,489.3,1309.7,493.3,1307.1,496.4z M1277,526.3&#10;&#9;&#9;&#9;C1277.1,526.3,1277.1,526.3,1277,526.3c-14.4,7.1-28.6,14.5-42.7,22.2c0,0,0,0,0,0C1248.4,540.8,1262.6,533.4,1277,526.3z" style="fill: rgb(255, 220, 161);"/>
		<path class="st1" d="M294.3,630.9c21.7-25.5,31.3-57.5,39.9-89.6c0.9-3.4-2.3-7-5.9-5.9c-11.2,3.6-22.2,7.5-33.2,11.5&#10;&#9;&#9;&#9;c-0.9-21,0.1-44-6.2-63.9c-1-3.2-5.5-4.9-8-2.1c-9.9,11.2-18.9,23.1-27.1,35.7c-2.3-4.3-4.6-8.4-6.9-12.4&#10;&#9;&#9;&#9;c-0.4-0.7-0.9-1.2-1.4-1.6c-1.9-2.6-6.7-2.2-8.3,1.2c-0.7,0.3-1.3,0.8-1.8,1.5c-2.4,3.2-4.7,6.5-7,9.8l-17.9-21.5&#10;&#9;&#9;&#9;c-5-5.9-6.6-13.5-14.4-15.9c-2.6-0.8-5,0.9-5.9,3.3c-6.9,19.9-10.5,40.2-11.1,61.1c-8.4-3.8-16.9-7.5-25.3-11.3&#10;&#9;&#9;&#9;c-3.5-1.6-8.3,1-7,5.4c9.2,29.8,16.3,72.2,41.1,93.5c0.2,0.2,0.4,0.2,0.6,0.4c0.1,0.6,0.2,1.1,0.3,1.7&#10;&#9;&#9;&#9;C134.8,697,121,855.5,235.5,861.9c47.4,2.7,79.3-36.1,92.4-77.2c1.2-1.2,1.9-3,1.4-4.8c1-3.6,1.9-7.1,2.6-10.7&#10;&#9;&#9;&#9;C342,718.6,334.8,665.8,294.3,630.9z M318.1,788.2c-2.6,2.6-5.1,5.3-7.5,8.1c-1.4,1.6-3,1.9-4.5,1.3c1.5,0.5,3.1,0.3,4.5-1.4&#10;&#9;&#9;&#9;C313,793.4,315.5,790.7,318.1,788.2C318.1,788.1,318.1,788.1,318.1,788.2z M202.2,724.6c4.1-5.3,8.4-10.4,12.7-15.5c0,0,0,0,0,0&#10;&#9;&#9;&#9;C210.6,714.2,206.3,719.4,202.2,724.6c-1.3,1.7-2.9,2-4.4,1.4C199.3,726.6,200.9,726.3,202.2,724.6z M225.2,762.6&#10;&#9;&#9;&#9;c1.3-1.5,13.5-17.2,14.6-16.1c0,0,0,0,0,0C238.6,745.7,226.5,761.1,225.2,762.6c-1.3,1.6-3,1.9-4.5,1.4&#10;&#9;&#9;&#9;C222.2,764.5,223.9,764.2,225.2,762.6z M258.2,725c-1.4,1.6-3.2,1.8-4.7,1.2C255,726.8,256.7,726.5,258.2,725&#10;&#9;&#9;&#9;c4.5-4.9,9-9.8,13.6-14.7c0,0,0,0,0,0C267.2,715.3,262.7,720.1,258.2,725z M275.7,763.6c1.5,0.5,3.1,0.3,4.5-1.3&#10;&#9;&#9;&#9;c2.5-3,5.1-6.1,7.6-9.1c1.9-2.3,3.9-5.3,6.1-7.6c0,0,0,0,0,0c-2.2,2.3-4.2,5.3-6.1,7.6c-2.5,3-5.1,6.1-7.6,9.1&#10;&#9;&#9;&#9;C278.9,763.9,277.2,764.1,275.7,763.6z M257.3,750.9c2.4,2.5,5.4,4.7,5.4,8.4c0,2.5-2.2,4.8-4.8,4.8c-0.2,0-0.4,0-0.6,0&#10;&#9;&#9;&#9;c-0.6,0-1.3-0.2-1.8-0.4c0.6,0.2,1.2,0.4,1.8,0.4c0.2,0,0.4,0,0.6,0c2.6,0.1,4.8-2.2,4.8-4.8C262.6,755.6,259.6,753.4,257.3,750.9&#10;&#9;&#9;&#9;c-4-4.2-8.3-10.5-13.3-13.4c-0.5-0.3-0.9-0.5-1.4-0.7c0.5,0.2,1,0.4,1.4,0.7C249,740.5,253.3,746.7,257.3,750.9z M200.4,746&#10;&#9;&#9;&#9;c3.6,4.2,6.9,8.5,10,13c2.8,4.2-2.1,8.1-5.9,6.7c3.8,1.4,8.7-2.5,5.9-6.7C207.3,754.5,204,750.1,200.4,746&#10;&#9;&#9;&#9;c-2.8-3.2-7.4-9.5-11.8-11.2C193,736.4,197.7,742.8,200.4,746z M221.2,774.2c5.3,6.5,11.2,12.3,17.9,17.4c4.4,3.3,0.9,10.4-3.5,9&#10;&#9;&#9;&#9;c4.3,1.5,7.8-5.7,3.4-9C232.3,786.5,226.5,780.7,221.2,774.2c-0.4-0.5-1-0.9-1.5-1.1C220.2,773.4,220.7,773.7,221.2,774.2z&#10;&#9;&#9;&#9; M288.3,800.4c4,1.7,9.3-2.3,6.2-6.4c-3.2-4.2-6.4-8.4-9.6-12.6c-1.4-1.8-3.3-4.9-5.8-5.9c2.5,0.9,4.5,4.1,5.8,5.9&#10;&#9;&#9;&#9;c3.2,4.2,6.4,8.4,9.6,12.6C297.7,798.2,292.3,802.2,288.3,800.4z M285.9,688.8c2.1-3.8,4.7-7.2,7.7-10.4c0,0,0,0,0,0&#10;&#9;&#9;&#9;C290.7,681.6,288.1,685,285.9,688.8c-1.3,2.4-3.6,2.8-5.5,2C282.3,691.6,284.6,691.2,285.9,688.8z M310.3,684.9&#10;&#9;&#9;&#9;c-2.4-3.4-4.9-6.8-7.5-10.1c-1.9-2.4-3.9-5.7-6.9-6.9c3,1.2,5,4.5,6.9,6.9C305.4,678.1,307.9,681.5,310.3,684.9&#10;&#9;&#9;&#9;c2.9,4.1-2,8-5.8,6.6C308.3,692.9,313.2,689,310.3,684.9z M291.3,720c3,4-2,7.9-5.8,6.6C289.4,727.9,294.3,724,291.3,720&#10;&#9;&#9;&#9;c-5.2-6.9-10.5-13.7-16-20.3c-0.4-0.5-0.9-0.8-1.5-1.1c0.6,0.2,1.1,0.6,1.5,1.1C280.9,706.4,286.2,713.1,291.3,720z M241.3,678.4&#10;&#9;&#9;&#9;C241.3,678.4,241.3,678.4,241.3,678.4c-5.9,1.8-10.2,10.1-12.9,14.7c-1.4,2.3-3.7,2.7-5.7,1.9c1.9,0.7,4.3,0.4,5.6-2&#10;&#9;&#9;&#9;C231.1,688.5,235.4,680.2,241.3,678.4z M233.1,718.2c3.1,4.1-2.3,8.2-6.2,6.4C230.8,726.3,236.1,722.3,233.1,718.2&#10;&#9;&#9;&#9;c-4.8-6.3-9.4-12.8-13.8-19.4c-0.6-0.9-1.5-1.6-2.5-2c1,0.4,1.9,1.1,2.5,2C223.7,705.4,228.3,711.8,233.1,718.2z M209.1,692.7&#10;&#9;&#9;&#9;c4.1,1.6,8.8-4.1,5-7.9c-3.7-3.8-7.5-7.7-11.2-11.5c-1.8-1.8-3.6-4.1-5.9-5.1c2.3,1,4.1,3.3,5.9,5.1c3.7,3.8,7.5,7.7,11.2,11.5&#10;&#9;&#9;&#9;C217.9,688.6,213.2,694.3,209.1,692.7z M184.5,689.7c1.8-2.9,5.6-9.6,9.5-12c0,0,0,0,0,0C190.1,680.1,186.4,686.8,184.5,689.7&#10;&#9;&#9;&#9;c-1.4,2.3-3.7,2.7-5.7,1.9C180.8,692.4,183.2,692,184.5,689.7z M172.7,760.1c2.4-3.3,4.9-6.5,7.4-9.7c1.6-2,3.4-6.1,5.5-5.5&#10;&#9;&#9;&#9;c-2.2-0.6-3.9,3.5-5.5,5.5C177.6,753.6,175.2,756.9,172.7,760.1c-1.6,2.2-4,2.4-6,1.7C168.7,762.6,171.2,762.3,172.7,760.1z&#10;&#9;&#9;&#9; M222,833.8c5.3-5,10.8-9.8,16.4-14.5c0.6-0.4,1.1-0.7,1.4-0.9c0,0,0,0,0,0c-0.4,0.3-0.8,0.5-1.4,0.9&#10;&#9;&#9;&#9;C232.8,824,227.4,828.8,222,833.8c-1.5,1.5-3.3,1.6-4.9,1C218.7,835.4,220.5,835.2,222,833.8z M260.6,828.8c-2.9-4-5.9-8-9.1-11.8&#10;&#9;&#9;&#9;c-2.1-2.5-5.5-7.8-9.1-9.1c3.7,1.3,7.1,6.6,9.2,9.1C254.7,820.9,257.7,824.8,260.6,828.8c2.9,4.1-2,8-5.8,6.6&#10;&#9;&#9;&#9;C258.6,836.8,263.5,832.9,260.6,828.8z M259.4,798.6c-1.6,1.3-3.5,1.3-5.1,0.7C255.9,799.9,257.7,799.8,259.4,798.6&#10;&#9;&#9;&#9;c4.6-3.6,9.3-7.2,13.9-10.9c1.6-1.3,2.6-1.5,3.5-1.2c-0.8-0.4-1.8-0.1-3.4,1.2C268.7,791.3,264.1,794.9,259.4,798.6z M283.8,831.2&#10;&#9;&#9;&#9;c4.9-4.9,10.3-11,16.2-15c0,0,0,0,0,0C294.1,820.3,288.7,826.3,283.8,831.2c-1.5,1.5-3.2,1.7-4.8,1.1&#10;&#9;&#9;&#9;C280.6,832.9,282.3,832.8,283.8,831.2z M250.2,674.3c3.2,4.4,6.2,8.9,8.9,13.6c2.5,4.3-2.4,8.3-6,6.8c3.6,1.5,8.6-2.5,6-6.8&#10;&#9;&#9;&#9;C256.3,683.2,253.4,678.7,250.2,674.3c17.1-5,33.5-18.8,38.9-35.3c0,0,0,0,0,0C283.7,655.5,267.3,669.4,250.2,674.3z M229.6,675.6&#10;&#9;&#9;&#9;c-3.7-0.6-7.1-1.5-10.2-2.7C222.5,674.1,225.9,675,229.6,675.6C229.6,675.6,229.6,675.6,229.6,675.6z M185.1,718.3&#10;&#9;&#9;&#9;c2.5,4.3-2.5,8.3-6.1,6.8C182.7,726.6,187.6,722.7,185.1,718.3c-4.1-7-8.6-13.6-13.7-19.9c-0.4-0.5-0.9-0.8-1.5-1&#10;&#9;&#9;&#9;c0.6,0.2,1.1,0.6,1.5,1.1C176.5,704.8,181.1,711.3,185.1,718.3z M166.2,771.1c5.4,6.6,11.3,12.7,17.8,18.3&#10;&#9;&#9;&#9;c4.3,3.6-0.9,9.5-5.4,7.6c4.5,1.9,9.6-4,5.4-7.6C177.5,783.8,171.5,777.8,166.2,771.1c-0.4-0.5-0.9-0.8-1.4-1.1&#10;&#9;&#9;&#9;C165.3,770.3,165.8,770.6,166.2,771.1z M207.5,827.8c-7-6.1-13.6-12.7-19.8-19.7c-0.4-0.5-0.9-0.8-1.5-1.1&#10;&#9;&#9;&#9;c0.6,0.2,1.1,0.6,1.5,1.1C193.9,815.1,200.5,821.7,207.5,827.8c4.2,3.7-0.9,9.5-5.4,7.6C206.6,837.3,211.7,831.5,207.5,827.8z&#10;&#9;&#9;&#9; M202.8,797.9c-1.6,1.4-3.4,1.6-4.9,1C199.4,799.5,201.2,799.3,202.8,797.9c4.9-4.5,9.7-9,14.6-13.5c0,0,0,0,0,0&#10;&#9;&#9;&#9;C212.6,788.9,207.7,793.4,202.8,797.9z M305.9,762.5c3.3,1.2,7.8-2.7,6-7.1c-1.7-4-3.9-7.8-6.7-11.2c-1.9-2.3-5.2-6.9-8.5-8.3&#10;&#9;&#9;&#9;c3.3,1.5,6.6,6,8.5,8.3c2.8,3.4,4.9,7.2,6.7,11.2C313.8,759.7,309.2,763.7,305.9,762.5z M322.7,547.5&#10;&#9;&#9;&#9;C322.7,547.5,322.7,547.5,322.7,547.5c-15.4,5.2-30.6,10.7-45.7,16.7c7.5,18.5,12.9,37.5,13.9,55.9c0,0,0,0,0,0&#10;&#9;&#9;&#9;c-1-18.4-6.4-37.4-13.9-55.9C292,558.2,307.3,552.6,322.7,547.5z M259.3,525.8c6.9-11,14.5-21.4,22.7-31.3c0,0,0,0,0,0&#10;&#9;&#9;&#9;C273.8,504.4,266.2,514.8,259.3,525.8c-0.1,0.2-0.2,0.2-0.3,0.4c5,9.4,9.8,19.2,14.3,29.3c0,0,0,0,0,0&#10;&#9;&#9;&#9;c-4.4-10.1-9.3-19.9-14.3-29.3C259,526,259.2,525.9,259.3,525.8z M243.2,647.3c-1.8-42.3-1.1-84.5,2-126.7c0,0,0,0,0,0&#10;&#9;&#9;&#9;C242.1,562.8,241.4,605,243.2,647.3c0.2,3.9-3.5,5.3-6.3,4.3C239.7,652.6,243.3,651.1,243.2,647.3z M235.6,521.4&#10;&#9;&#9;&#9;C235.6,521.4,235.6,521.4,235.6,521.4c-8.8,12.2-17.4,25-24,38.5c-0.1,0.8-0.5,1.5-1,2.2c-3.7,7.8-6.7,15.8-8.8,24.1&#10;&#9;&#9;&#9;c-5.8,24-5.7,69.6,19.4,79.5c-25.1-10-25.2-55.6-19.4-79.6c2-8.3,5.1-16.3,8.8-24.1c0.5-0.7,0.9-1.4,1-2.2&#10;&#9;&#9;&#9;C218.2,546.3,226.8,533.5,235.6,521.4z M197.4,490.1C197.4,490.1,197.4,490.1,197.4,490.1c-5.6,18.3-8.5,37-8.7,56.3&#10;&#9;&#9;&#9;c5.4,2.4,10.9,4.8,16.3,7.3c0,0,0,0,0,0c-5.4-2.4-10.9-4.8-16.3-7.3C188.8,527.1,191.7,508.4,197.4,490.1z M158.8,543.5&#10;&#9;&#9;&#9;C158.9,543.5,158.9,543.5,158.8,543.5c6.7,24,13.5,53.7,29.1,72.6c0,0,0,0,0,0C172.3,597.2,165.5,567.5,158.8,543.5z M191.7,643.4&#10;&#9;&#9;&#9;C191.7,643.5,191.7,643.5,191.7,643.4c-12.9,16.7-22.3,35.9-27.9,56.1c0,0,0,0,0,0.1C169.4,679.4,178.8,660.2,191.7,643.4z&#10;&#9;&#9;&#9; M157.9,755.6c-0.7-11.5-0.2-23,1.4-34.3c0.7-0.4,1.4-0.9,2-1.8c2.1-3.3,4.4-6.6,6.8-9.8c0,0,0,0,0,0c-2.3,3.2-4.6,6.4-6.8,9.7&#10;&#9;&#9;&#9;c-0.5,0.9-1.2,1.4-2,1.8C157.7,732.6,157.2,744.1,157.9,755.6c0.3,5.1,0.9,10.2,1.7,15.4c0,0,0,0,0,0&#10;&#9;&#9;&#9;C158.8,765.8,158.2,760.6,157.9,755.6z M162.7,786l1.4-2.9c0,0,0,0,0,0L162.7,786c2.7,10.4,6.5,20.4,11.5,29.5c0,0,0,0,0,0&#10;&#9;&#9;&#9;C169.2,806.4,165.4,796.3,162.7,786z M179.4,823.8c1.7-1.8,3.3-3.6,5-5.4c0,0,0,0,0,0C182.7,820.3,181.1,822,179.4,823.8&#10;&#9;&#9;&#9;c7.7,10.9,17.5,19.7,29.8,24.6C196.8,843.5,187,834.8,179.4,823.8z M302.7,806.5c1.7,0.7,3.2,2.2,4.5,3.8c0,0,0,0,0,0&#10;&#9;&#9;&#9;C305.8,808.7,304.4,807.2,302.7,806.5z M323.5,708.8c-4.2,4.7-8.2,9.5-11.9,14.6c-1.5,2.2-4,2.5-6,1.7c2,0.8,4.4,0.4,6-1.7&#10;&#9;&#9;&#9;C315.2,718.3,319.2,713.5,323.5,708.8C323.4,708.8,323.4,708.8,323.5,708.8z" style="fill: rgb(255, 220, 161);"/>
	</g><g transform="matrix(1, 0, 0, 1, -5.684341886080802e-14, 0)">
			<path class="st2" d="M619.6,289.2c6.5-0.2,9.2-7.8,7.5-13.4c-1.5-5-4.3-9.1-7.4-13.1c-2.7,3.4-4.8,7.3-5.9,11.6&#10;&#9;&#9;&#9;&#9;C612.6,279.4,611.4,289.4,619.6,289.2z" style="fill: rgb(102, 0, 0);"/>
			<path class="st2" d="M559.1,324.5c6.9-0.6,6.1-11,4.9-15.5c-1.1-4.1-2.7-7.7-4.8-11c-2.5,3.4-5,7-6.1,10.9&#10;&#9;&#9;&#9;&#9;C551.7,313.5,550.8,325.3,559.1,324.5z" style="fill: rgb(102, 0, 0);"/>
			<path class="st2" d="M500.3,286.8c12.9-4.3,5.8-18.2,0.3-26.8c-3.4,3.7-6.3,7.9-7.7,12.7C491.5,278.1,491,289.9,500.3,286.8z" style="fill: rgb(102, 0, 0);"/>
			<path class="st3" d="M464.7,333.4c22.2,19.9,63,28.9,92.4,28.6c68.9-0.7,135.3-52.4,124.7-126.6c-0.1-0.6,0-1.1,0.1-1.6&#10;&#9;&#9;&#9;&#9;c-85.5-2-171.2-4.5-256.7-2.1C427.2,264.9,438.9,310.2,464.7,333.4z M616.3,252.2c1.9-1.9,4.3-1.6,6-0.4c0.7,0.2,1.3,0.6,1.9,1.3&#10;&#9;&#9;&#9;&#9;c7,8.5,14,17.6,12.6,29.3c-1,8.1-7.9,17.5-17.1,16.4C593.9,295.5,603.8,264.7,616.3,252.2z M554.6,288.1c0.6-0.9,1.3-1.4,2.1-1.7&#10;&#9;&#9;&#9;&#9;c1.7-1.4,4.1-1.7,6,0.4c6.9,7.8,13,19.3,11.6,30.1c-1,7.6-5.5,18.2-15.1,17.2c-8.8-0.9-16.3-7.3-16.7-16.7&#10;&#9;&#9;&#9;&#9;C541.9,305.8,548.5,297.2,554.6,288.1z M496,251.1c1.4-1.3,3-1.5,4.4-1.1c2-0.8,4.5-0.6,6.1,1.7c5.8,8.6,14,20.3,9.4,31.2&#10;&#9;&#9;&#9;&#9;c-3.3,8.1-10,14.6-19.4,13.4C471.8,292.9,484.6,261.9,496,251.1z" style="fill: rgb(237, 28, 36);"/>
			<path class="st4" d="M564.4,371.5c-33,0.3-82.8-5.4-106.4-31.3c-26.3-28.8-39.9-69.7-42.3-108.2c-5.4,0.2-10.7,0.3-16.1,0.5&#10;&#9;&#9;&#9;&#9;c2.8,41.2,11.8,86.4,42.4,116.3c31.6,30.9,75.2,36.1,117.8,35.4c84.7-1.3,151-65.2,153-149.7c-7.2-0.2-14.4-0.3-21.6-0.5&#10;&#9;&#9;&#9;&#9;C701,308.2,637.9,370.7,564.4,371.5z" style="fill: rgb(141, 198, 63);"/>
			<path class="st5" d="M713.5,225c-106.2-2.3-212.6-6.5-318.8-1.9c-1.6-0.2-3.2,0.3-4.2,1.6c-0.1,0.1-0.2,0.3-0.3,0.4&#10;&#9;&#9;&#9;&#9;c-0.1,0.2-0.3,0.4-0.4,0.6c-0.7,1.4-0.7,3.1-0.1,4.5c2.8,43.6,12.3,85.4,40.5,120c30.2,37,76.1,40.9,120.5,43.3&#10;&#9;&#9;&#9;&#9;c94.2,5,171-68.6,171.4-162.2c0.2-0.9,0.2-1.8,0-2.7C722.4,224.9,718.1,225.4,713.5,225z M681.9,233.8c-0.1,0.5-0.2,1-0.1,1.6&#10;&#9;&#9;&#9;&#9;c10.7,74.2-55.7,125.8-124.7,126.6c-29.4,0.3-70.2-8.7-92.4-28.6c-25.9-23.3-37.5-68.5-39.6-101.7&#10;&#9;&#9;&#9;&#9;C510.6,229.3,596.3,231.8,681.9,233.8z M559.7,384.3c-42.6,0.7-86.2-4.6-117.8-35.4c-30.6-29.9-39.5-75.2-42.4-116.3&#10;&#9;&#9;&#9;&#9;c5.4-0.2,10.7-0.3,16.1-0.5c2.5,38.5,16.1,79.3,42.3,108.2c23.6,25.9,73.4,31.7,106.4,31.3c73.5-0.8,136.7-63.3,126.7-137.4&#10;&#9;&#9;&#9;&#9;c7.2,0.2,14.4,0.3,21.6,0.5C710.7,319,644.4,382.9,559.7,384.3z" style="fill: rgb(30, 64, 0);"/>
			<path class="st3" d="M496.6,296.3c9.4,1.3,16.1-5.3,19.4-13.4c4.5-11-3.6-22.7-9.4-31.2c-1.5-2.3-4.1-2.6-6.1-1.7&#10;&#9;&#9;&#9;&#9;c-1.4-0.4-3-0.2-4.4,1.1C484.6,261.9,471.7,292.9,496.6,296.3z M493,272.8c1.4-4.9,4.3-9.1,7.7-12.7c5.5,8.6,12.6,22.4-0.3,26.8&#10;&#9;&#9;&#9;&#9;C491,289.9,491.4,278.1,493,272.8z" style="fill: rgb(237, 28, 36);"/>
			<path class="st3" d="M559.1,334c9.6,1,14.2-9.5,15.1-17.2c1.4-10.8-4.8-22.3-11.6-30.1c-1.9-2.1-4.3-1.8-6-0.4&#10;&#9;&#9;&#9;&#9;c-0.8,0.3-1.5,0.9-2.1,1.7c-6.2,9.1-12.7,17.7-12.2,29.3C542.8,326.7,550.3,333.1,559.1,334z M553.1,308.8&#10;&#9;&#9;&#9;&#9;c1.2-3.8,3.6-7.4,6.1-10.9c2.2,3.4,3.8,7,4.8,11c1.2,4.5,2,14.9-4.9,15.5C550.8,325.3,551.7,313.5,553.1,308.8z" style="fill: rgb(237, 28, 36);"/>
			<path class="st3" d="M619.6,298.7c9.2,1.2,16.2-8.2,17.1-16.4c1.4-11.6-5.6-20.8-12.6-29.2c-0.6-0.7-1.2-1.1-1.9-1.3&#10;&#9;&#9;&#9;&#9;c-1.7-1.3-4.1-1.6-6,0.4C603.8,264.7,593.9,295.5,619.6,298.7z M613.8,274.3c1-4.3,3.2-8.2,5.9-11.6c3.2,4,5.9,8.1,7.4,13.1&#10;&#9;&#9;&#9;&#9;c1.7,5.5-1,13.2-7.5,13.4C611.3,289.4,612.6,279.4,613.8,274.3z" style="fill: rgb(237, 28, 36);"/>
		</g><path class="st4" d="M286.3,149.2c5.9-2.2,11.9-4.4,17.9-6.5c5.8-2,8.3,7.2,2.5,9.2c-12.4,4.3-24.9,8.8-36.7,14.3&#10;&#9;&#9;&#9;&#9;c3.3,0.9,6.7,1.7,10.1,2.4c6,1.2,3.5,10.4-2.5,9.2c-6.7-1.3-13.2-3.2-19.5-5.5c-7.6,4.2-14.8,9-21.5,14.8&#10;&#9;&#9;&#9;&#9;c17.3-0.4,34.6-2.6,50.9-8.4c11.5-4.1,24.6-9.4,32.7-19.1c6.7-8,17.4-23.2,1.4-26.5c-11.1-2.3-23-2.7-34.4-1.4&#10;&#9;&#9;&#9;&#9;c2.7,0.7,5.1,3.8,3.7,7.1C289.3,142.4,287.8,145.8,286.3,149.2z" style="fill: rgb(141, 198, 63);" transform="matrix(1, 0, 0, 1, -8.526512829121202e-14, 0)"/><path class="st4" d="M243.9,167.1c1.6-4.8,3.2-9.5,4.8-14.3c2-5.8,11.2-3.3,9.2,2.5c-0.9,2.5-1.7,5.1-2.6,7.6&#10;&#9;&#9;&#9;&#9;c6-3.2,12.2-6.1,18.5-8.8c0,0,0,0,0,0c2.9-6.6,5.7-13.3,8.6-19.9c0.4-1,1.1-1.6,1.9-2c-27.7,4.1-52.4,19.7-56.9,50.3&#10;&#9;&#9;&#9;&#9;c5.2-4.7,10.7-8.9,16.4-12.7C243.7,169,243.6,168.1,243.9,167.1z" style="fill: rgb(141, 198, 63);" transform="matrix(1, 0, 0, 1, -8.526512829121202e-14, 0)"/><path class="st3" d="M210.3,412.2c0.2,0.1,0.3,0,0.5,0.1c37.2,17.3,62.9-1.2,84.2-31.3c14.8-21,27.5-44.1,28.3-70.5&#10;&#9;&#9;&#9;&#9;c0.8-28-0.1-65.4-24-84.9c-27.8-22.6-60.3-9.5-82.9,13.3c-1.6,1.7-3.6,1.7-5.2,0.9c-1.4-0.1-2.8-0.7-3.7-2.1&#10;&#9;&#9;&#9;&#9;c-23.4-34.7-73-34.6-95.2,2c-13.5,22.2-20.3,47.8-17.4,73.9c5.5,49,47.4,140.6,110.1,98C206.9,410.1,209,410.7,210.3,412.2z&#10;&#9;&#9;&#9;&#9; M276.4,228.7c21.7,13.6,36.8,49.7,25.1,74.1c-2.7,5.5-10.9,0.7-8.2-4.8c4.8-9.9,1.5-26.4-2.2-36.1c-4-10.5-9.8-18.9-19.5-24.9&#10;&#9;&#9;&#9;&#9;C266.4,233.6,271.2,225.4,276.4,228.7z" style="fill: rgb(237, 28, 36);" transform="matrix(1, 0, 0, 1, -8.526512829121202e-14, 0)"/><path class="st2" d="M287.9,405.1c26.3-30.3,43.9-62.9,45.1-103.5c1.1-35.4-8-71.9-39.4-91.7c-25.3-16-57-1.6-77.8,16.4&#10;&#9;&#9;&#9;&#9;c-0.7-28.8-8.2-64.5-43.6-64.5c-6.1,0-6.1,9.5,0,9.5c27.5,0,33.1,27.4,34,50.3c-17.7-17.6-43.9-26.4-68.4-15.7&#10;&#9;&#9;&#9;&#9;c-33.8,14.7-48.8,50.1-52.8,85c-6.8,60,48.1,177.7,122.3,130.2C237.7,434.7,265.8,430.6,287.9,405.1z M94.7,313.6&#10;&#9;&#9;&#9;&#9;c-2.9-26.1,3.9-51.7,17.4-73.9c22.2-36.5,71.8-36.6,95.2-2c1,1.4,2.4,2.1,3.7,2.1c1.6,0.8,3.6,0.8,5.2-0.9&#10;&#9;&#9;&#9;&#9;c22.6-22.8,55.1-35.9,82.9-13.3c23.9,19.5,24.8,56.9,24,84.9c-0.8,26.4-13.4,49.5-28.3,70.5c-21.3,30.1-47.1,48.5-84.2,31.3&#10;&#9;&#9;&#9;&#9;c-0.2-0.1-0.3-0.1-0.5-0.1c-1.3-1.4-3.4-2.1-5.5-0.6C142.1,454.2,100.1,362.6,94.7,313.6z" style="fill: rgb(102, 0, 0);" transform="matrix(1, 0, 0, 1, -8.526512829121202e-14, 0)"/><path class="st2" d="M271.6,236.9c9.7,6.1,15.5,14.4,19.5,24.9c3.7,9.7,7,26.2,2.2,36.1c-2.6,5.5,5.6,10.3,8.2,4.8&#10;&#9;&#9;&#9;&#9;c11.7-24.4-3.4-60.5-25.1-74.1C271.2,225.4,266.4,233.6,271.6,236.9z" style="fill: rgb(102, 0, 0);" transform="matrix(1, 0, 0, 1, -8.526512829121202e-14, 0)"/><path class="st2" d="M222.5,196.7c45,1.4,112.5-9,119.5-63.8c0.3-2.1-1.7-4-3.5-4.6c-49.6-16.1-117.5-2.4-121.2,60&#10;&#9;&#9;&#9;&#9;c-0.1,1.1,0.3,1.9,0.7,2.6C217.6,193.6,219.1,196.6,222.5,196.7z M287,131.9c11.4-1.4,23.3-0.9,34.4,1.4&#10;&#9;&#9;&#9;&#9;c16.1,3.3,5.3,18.5-1.4,26.5c-8.1,9.7-21.2,15-32.7,19.1c-16.3,5.8-33.6,8-50.9,8.4c6.7-5.7,14-10.5,21.5-14.8&#10;&#9;&#9;&#9;&#9;c6.4,2.3,12.9,4.1,19.5,5.5c6,1.2,8.6-8,2.5-9.2c-3.4-0.7-6.8-1.5-10.1-2.4c11.8-5.5,24.2-10,36.7-14.3c5.8-2,3.3-11.2-2.5-9.2&#10;&#9;&#9;&#9;&#9;c-6,2.1-12,4.2-17.9,6.5c1.5-3.4,2.9-6.8,4.4-10.2C292.1,135.6,289.7,132.6,287,131.9z M284.3,132.2c-0.7,0.4-1.4,1-1.9,2&#10;&#9;&#9;&#9;&#9;c-2.9,6.6-5.7,13.3-8.6,19.9c0,0,0,0,0,0c-6.3,2.7-12.5,5.6-18.5,8.8c0.9-2.5,1.7-5.1,2.6-7.6c2-5.8-7.2-8.3-9.2-2.5&#10;&#9;&#9;&#9;&#9;c-1.6,4.8-3.2,9.5-4.8,14.3c-0.3,1-0.3,1.9,0,2.7c-5.8,3.8-11.3,7.9-16.4,12.7C232,151.9,256.6,136.3,284.3,132.2z" style="fill: rgb(102, 0, 0);" transform="matrix(1, 0, 0, 1, -8.526512829121202e-14, 0)"/><path class="st6" d="M968.9,725.4c-5.8,16.3-21.4,26.2-37.7,29.2c1.8,33.1-58.6,50.8-81.4,32.1c-32.5,18.2-76.8,6.1-82.4-33.4&#10;&#9;&#9;&#9;&#9;c-14.5-1.1-29.5-6.6-35.7-20.5c-7.1-15.8-8.7-37.9-4.1-54.8c-6.3,0.1-12.5,0.1-18.8,0.2c-2.5,78.2,57.7,133.7,135.8,132.6&#10;&#9;&#9;&#9;&#9;c37.3-0.5,81.7-7,108-36.6c24.2-27.3,28.6-63.6,34.5-98.3c-7.1,0.1-14.1,0.1-21.2,0.2C976.7,689.4,974.4,709.8,968.9,725.4z" style="fill: rgb(247, 146, 30);" transform="matrix(1, 0, 0, 1, -8.526512829121202e-14, 0)"/><path class="st7" d="M843,779.6c1.5-31.8,1.4-63.6-0.3-95.4c-22.1,21.5-44.2,43.1-66.3,64.6C778.6,784.1,815.9,793.1,843,779.6z" style="fill: rgb(254, 188, 17);" transform="matrix(1, 0, 0, 1, -8.526512829121202e-14, 0)"/><path class="st7" d="M767.9,743.8c22.8-22.3,45.7-44.5,68.5-66.7c-33,0.3-66.1,0.6-99.1,0.8c0,0.2,0,0.5-0.1,0.7&#10;&#9;&#9;&#9;&#9;c-4.2,13.8-2.5,27.2,0.8,41C741.9,736.2,752.1,742.7,767.9,743.8z" style="fill: rgb(254, 188, 17);" transform="matrix(1, 0, 0, 1, -8.526512829121202e-14, 0)"/><path class="st7" d="M852.6,777.6c0.2,0.2,0.5,0.4,0.7,0.7c0.9,0.1,1.8,0.4,2.6,1.1c15.8,14,71.2-0.9,65.7-26.6&#10;&#9;&#9;&#9;&#9;c-0.1-0.7-0.1-1.3,0-1.9c-14-8-24.7-19.6-35.2-31.9c-10.8-12.8-22.1-24.9-34.2-36.5C853.9,714.2,854.1,745.9,852.6,777.6z" style="fill: rgb(254, 188, 17);" transform="matrix(1, 0, 0, 1, -8.526512829121202e-14, 0)"/><path class="st7" d="M930.9,745.1C930.9,745.1,930.9,745.2,930.9,745.1c13.6-2.6,27-12.3,30.3-26.3c3.2-13.6,6-30.2-6.1-40.4&#10;&#9;&#9;&#9;&#9;c-0.9-0.7-1.2-1.6-1.4-2.4c-31.2,0.3-62.4,0.5-93.6,0.8c11.6,11.2,22.5,23,33,35.4C904.2,725.2,915.3,737.5,930.9,745.1z" style="fill: rgb(254, 188, 17);" transform="matrix(1, 0, 0, 1, -8.526512829121202e-14, 0)"/><path class="st8" d="M994.6,667.6c-0.8-0.9-1.9-1.4-3.4-1.4c-95.1,0.8-190.2,1.6-285.2,2.4c-0.2,0-0.3,0.1-0.4,0.1&#10;&#9;&#9;&#9;&#9;c-2.6-0.5-5.9,0.9-6.1,4.4c-5.2,80.5,50.9,138.6,129,146.4c39.3,4,88.3-2.8,119.7-28.8c36.2-30,41.2-74.1,49-117.9&#10;&#9;&#9;&#9;&#9;C997.6,670.4,996.3,668.6,994.6,667.6z M953.6,676.1c0.2,0.8,0.5,1.7,1.4,2.4c12.1,10.2,9.3,26.7,6.1,40.4&#10;&#9;&#9;&#9;&#9;c-3.3,14-16.7,23.7-30.2,26.4c0,0-0.1-0.1-0.1-0.1c-15.6-7.6-26.7-19.9-37.8-32.9c-10.5-12.3-21.4-24.1-33-35.4&#10;&#9;&#9;&#9;&#9;C891.2,676.6,922.4,676.3,953.6,676.1z M886.3,719c10.5,12.3,21.2,23.9,35.2,31.9c-0.1,0.6-0.1,1.2,0,1.9&#10;&#9;&#9;&#9;&#9;c5.5,25.7-49.9,40.6-65.7,26.6c-0.8-0.7-1.7-1-2.6-1.1c-0.2-0.3-0.5-0.5-0.7-0.7c1.5-31.7,1.3-63.4-0.4-95.1&#10;&#9;&#9;&#9;&#9;C864.2,694.1,875.5,706.2,886.3,719z M843,779.6c-27,13.4-64.4,4.4-66.6-30.8c22.1-21.5,44.2-43.1,66.3-64.6&#10;&#9;&#9;&#9;&#9;C844.4,716,844.5,747.8,843,779.6z M737.2,678.6c0.1-0.3,0-0.5,0.1-0.7c33-0.3,66.1-0.6,99.1-0.8c-22.8,22.3-45.7,44.5-68.5,66.7&#10;&#9;&#9;&#9;&#9;c-15.8-1.1-25.9-7.6-29.9-24.1C734.7,705.8,733,692.4,737.2,678.6z M952.6,774.1c-26.3,29.7-70.7,36.1-108,36.6&#10;&#9;&#9;&#9;&#9;c-78,1.1-138.2-54.4-135.8-132.6c6.3-0.1,12.5-0.1,18.8-0.2c-4.6,16.9-3,39,4.1,54.8c6.3,13.9,21.3,19.5,35.7,20.5&#10;&#9;&#9;&#9;&#9;c5.6,39.5,50,51.6,82.4,33.4c22.8,18.7,83.2,1,81.4-32.1c16.3-3,31.9-12.9,37.7-29.2c5.5-15.5,7.8-36-3.1-49.4&#10;&#9;&#9;&#9;&#9;c7.1-0.1,14.1-0.1,21.2-0.2C981.1,710.4,976.7,746.8,952.6,774.1z" style="fill: rgb(125, 47, 0);" transform="matrix(1, 0, 0, 1, -8.526512829121202e-14, 0)"/><path class="st4" d="M823.1,243.4c5.3-4.8,11.4-8.4,18-11.1c-1.4-7.4-2.5-14.7-3.5-22.1c-7.5-0.8-15.4-5-22.3-7.4l-21.4-7.5&#10;&#9;&#9;&#9;&#9;c8.7,16.9,20.9,31.8,27.6,49.7C822,244.5,822.5,243.9,823.1,243.4z" style="fill: rgb(141, 198, 63);" transform="matrix(1, 0, 0, 1, -8.526512829121202e-14, 0)"/><path class="st4" d="M871,225.3c1.1-6.1,2.2-12.6,3.3-19.4c-10.8-9.4-20.9-19.4-30.4-30.1c0.9,17.9,2.9,35.6,6.2,53.3&#10;&#9;&#9;&#9;&#9;C856.9,227.2,863.9,226,871,225.3z" style="fill: rgb(141, 198, 63);" transform="matrix(1, 0, 0, 1, -8.526512829121202e-14, 0)"/><path class="st3" d="M824.4,255.1c-16.4,19.4-31.8,53.3-23.6,78.9c7.1,22.3,17.6,49.4,33.4,67.3c11.4,13,33,39,50.6,42.2&#10;&#9;&#9;&#9;&#9;c43.7,7.9,87.2-63.6,101.8-97.6c22.9-53.2-30.7-106.8-81.6-112.4c-0.4,0-0.6-0.2-0.9-0.3c-0.1,0-0.2,0.1-0.3,0.1&#10;&#9;&#9;&#9;&#9;C877.8,233.7,842.9,233.2,824.4,255.1z M874.2,386c0-5.2,4.3-9.5,9.5-9.5h0.8c5.2,0,9.5,4.3,9.5,9.5c0,5.2-4.3,9.5-9.5,9.5h-0.8&#10;&#9;&#9;&#9;&#9;C878.6,395.6,874.2,391.2,874.2,386z M893.4,434.6c-12.3,0-12.3-19.1,0-19.1C905.7,415.5,905.7,434.6,893.4,434.6z M964.8,327.4&#10;&#9;&#9;&#9;&#9;c12.3,0,12.3,19.1,0,19.1C952.5,346.4,952.5,327.4,964.8,327.4z M940.2,399.6c-12.3,0-12.3-19.1,0-19.1&#10;&#9;&#9;&#9;&#9;C952.5,380.6,952.5,399.6,940.2,399.6z M938.6,267.8c12.3,0,12.3,19.1,0,19.1C926.3,286.9,926.3,267.8,938.6,267.8z M932.3,301.2&#10;&#9;&#9;&#9;&#9;h0.8c5.2,0,9.5,4.3,9.5,9.5s-4.3,9.5-9.5,9.5h-0.8c-5.2,0-9.5-4.3-9.5-9.5S927.1,301.2,932.3,301.2z M904.5,360.7&#10;&#9;&#9;&#9;&#9;c-12.3,0-12.3-19.1,0-19.1C916.8,341.7,916.8,360.7,904.5,360.7z M897.3,262.3c12.3,0,12.3,19.1,0,19.1&#10;&#9;&#9;&#9;&#9;C885,281.3,885,262.3,897.3,262.3z M877.5,307.5h0.8c5.2,0,9.5,4.3,9.5,9.5c0,5.2-4.3,9.5-9.5,9.5h-0.8c-5.2,0-9.5-4.3-9.5-9.5&#10;&#9;&#9;&#9;&#9;C868,311.8,872.3,307.5,877.5,307.5z M851.3,262.3h0.8c5.2,0,9.5,4.3,9.5,9.5c0,5.2-4.3,9.5-9.5,9.5h-0.8c-5.2,0-9.5-4.3-9.5-9.5&#10;&#9;&#9;&#9;&#9;C841.8,266.6,846.1,262.3,851.3,262.3z M841,371c-12.3,0-12.3-19.1,0-19.1C853.2,352,853.2,371,841,371z M830.6,321&#10;&#9;&#9;&#9;&#9;c-12.3,0-12.3-19.1,0-19.1C842.9,302,842.9,321,830.6,321z" style="fill: rgb(237, 28, 36);" transform="matrix(1, 0, 0, 1, -8.526512829121202e-14, 0)"/><path class="st4" d="M905.1,224.1c7.3,0.8,14.9,2.7,22.6,5.4c-7.6-24.9-17.4-48.9-29.5-72c-10.6,19.1-13.7,45.9-17.4,66.9&#10;&#9;&#9;&#9;&#9;c7.9-0.4,15.6-0.5,22.9-0.6C904.2,223.9,904.6,224,905.1,224.1z" style="fill: rgb(141, 198, 63);" transform="matrix(1, 0, 0, 1, -8.526512829121202e-14, 0)"/><path class="st4" d="M983.1,220.7c4.3-9.1,11.1-18.5,15-28.3c-13.2,5.6-26.4,11.2-39.6,16.8c-1.3,11-3,22-5.1,32.9&#10;&#9;&#9;&#9;&#9;c5.4,3.4,10.6,7.2,15.5,11.4C973.4,242.5,977.9,231.4,983.1,220.7z" style="fill: rgb(141, 198, 63);" transform="matrix(1, 0, 0, 1, -8.526512829121202e-14, 0)"/><path class="st4" d="M938.9,234.2c1.9,0.9,3.8,1.9,5.7,2.9c4.9-25.9,7.4-51.9,7.6-78.2c-10.7,9.7-21.4,19.6-27.9,32.7&#10;&#9;&#9;&#9;&#9;c5.6,13.8,10.4,27.8,14.6,42.2C938.9,233.8,938.9,234,938.9,234.2z" style="fill: rgb(141, 198, 63);" transform="matrix(1, 0, 0, 1, -8.526512829121202e-14, 0)"/><path class="st9" d="M814.1,252.9c-16.6,20.2-26.5,48.8-24.6,74.1c1.8,23.9,18.6,56.5,33,75c13.9,17.9,42.3,53.1,68.4,52.3&#10;&#9;&#9;&#9;&#9;c29.4-0.9,47.4-22.9,65.2-44.1c19.4-23.1,39.9-51.7,45.5-81.8c4.8-25.9-7.2-50.1-26.2-68.8c0.8-0.5,1.6-1.3,2-2.4&#10;&#9;&#9;&#9;&#9;c5.7-13.8,11.6-27.5,18.2-40.9c5.1-10.2,12.5-19.5,14.3-30.9c0.7-4.4-3-7.1-7-5.4c-14.5,6.1-29,12.3-43.5,18.4&#10;&#9;&#9;&#9;&#9;c1.6-16.7,2.3-33.5,2.1-50.4c-0.1-4.2-5.1-6.2-8.1-3.4c-12,11.2-25.1,21.8-33.9,35.7c-5.1-11.8-10.8-23.3-17-34.7&#10;&#9;&#9;&#9;&#9;c-1.9-3.4-6.2-2.7-8.2,0c-9.9,13.2-14.8,31.3-18.2,49.2c-12.3-11.1-23.7-23-34.3-35.9c-2.7-3.3-8.2-0.5-8.1,3.4&#10;&#9;&#9;&#9;&#9;c0.2,12.8,1.1,25.5,2.5,38.1c-7.6-1.3-16.4-6.1-23.1-8.4c-9-3.2-18.1-6.3-27.1-9.5c-3.2-1.1-7.2,2.5-5.9,5.9&#10;&#9;&#9;&#9;&#9;C789.3,211.1,807.1,229.3,814.1,252.9z M958.5,209.2c13.2-5.6,26.4-11.2,39.6-16.8c-4,9.7-10.7,19.2-15,28.3&#10;&#9;&#9;&#9;&#9;c-5.1,10.7-9.6,21.8-14.2,32.8c-4.9-4.2-10.1-8-15.5-11.4C955.4,231.1,957.1,220.2,958.5,209.2z M952.2,158.8&#10;&#9;&#9;&#9;&#9;c-0.2,26.3-2.7,52.3-7.6,78.2c-1.9-1-3.8-2-5.7-2.9c0-0.2,0-0.3,0-0.5c-4.1-14.4-9-28.4-14.6-42.2&#10;&#9;&#9;&#9;&#9;C930.7,178.4,941.5,168.5,952.2,158.8z M898.1,157.5c12.1,23.1,21.9,47.1,29.5,72c-7.7-2.7-15.3-4.6-22.6-5.4&#10;&#9;&#9;&#9;&#9;c-0.4-0.1-0.9-0.3-1.4-0.3c-7.3,0.1-15,0.2-22.9,0.6C884.4,203.4,887.6,176.6,898.1,157.5z M874.2,205.9&#10;&#9;&#9;&#9;&#9;c-1.1,6.7-2.2,13.3-3.3,19.4c-7.1,0.7-14.1,2-20.9,3.9c-3.3-17.7-5.3-35.4-6.2-53.3C853.3,186.5,863.4,196.5,874.2,205.9z&#10;&#9;&#9;&#9;&#9; M903.6,233.4c0.1,0,0.2,0,0.3-0.1c0.3,0.1,0.6,0.3,0.9,0.3c50.9,5.5,104.5,59.1,81.6,112.4c-14.6,34-58.1,105.5-101.8,97.6&#10;&#9;&#9;&#9;&#9;c-17.6-3.2-39.1-29.3-50.6-42.2c-15.8-18-26.2-45-33.4-67.3c-8.2-25.6,7.2-59.5,23.6-78.9C842.9,233.2,877.7,233.7,903.6,233.4z&#10;&#9;&#9;&#9;&#9; M815.3,202.7c6.9,2.4,14.7,6.6,22.3,7.4c1,7.4,2.1,14.8,3.5,22.1c-6.6,2.7-12.7,6.3-18,11.1c-0.5,0.5-1.1,1-1.6,1.6&#10;&#9;&#9;&#9;&#9;c-6.7-17.9-18.9-32.8-27.6-49.7L815.3,202.7z" style="fill: rgb(103, 0, 0);" transform="matrix(1, 0, 0, 1, -8.526512829121202e-14, 0)"/><path class="st10" d="M897.3,281.3c12.3,0,12.3-19.1,0-19.1C885,262.2,885,281.3,897.3,281.3z" style="fill: rgb(246, 139, 31);" transform="matrix(1, 0, 0, 1, -8.526512829121202e-14, 0)"/><path class="st10" d="M851.3,281.3h0.8c5.2,0,9.5-4.3,9.5-9.5c0-5.2-4.3-9.5-9.5-9.5h-0.8c-5.2,0-9.5,4.3-9.5,9.5&#10;&#9;&#9;&#9;&#9;C841.7,277,846.1,281.3,851.3,281.3z" style="fill: rgb(246, 139, 31);" transform="matrix(1, 0, 0, 1, -8.526512829121202e-14, 0)"/><path class="st10" d="M830.6,321c12.3,0,12.3-19.1,0-19.1C818.3,301.9,818.3,321,830.6,321z" style="fill: rgb(246, 139, 31);" transform="matrix(1, 0, 0, 1, -8.526512829121202e-14, 0)"/><path class="st10" d="M877.5,326.6h0.8c5.2,0,9.5-4.3,9.5-9.5c0-5.2-4.3-9.5-9.5-9.5h-0.8c-5.2,0-9.5,4.3-9.5,9.5&#10;&#9;&#9;&#9;&#9;C867.9,322.2,872.3,326.6,877.5,326.6z" style="fill: rgb(246, 139, 31);" transform="matrix(1, 0, 0, 1, -8.526512829121202e-14, 0)"/><path class="st10" d="M938.6,286.9c12.3,0,12.3-19.1,0-19.1S926.3,286.9,938.6,286.9z" style="fill: rgb(246, 139, 31);" transform="matrix(1, 0, 0, 1, -8.526512829121202e-14, 0)"/><path class="st10" d="M932.2,320.2h0.8c5.2,0,9.5-4.3,9.5-9.5c0-5.2-4.3-9.5-9.5-9.5h-0.8c-5.2,0-9.5,4.3-9.5,9.5&#10;&#9;&#9;&#9;&#9;C922.7,315.9,927,320.2,932.2,320.2z" style="fill: rgb(246, 139, 31);" transform="matrix(1, 0, 0, 1, -8.526512829121202e-14, 0)"/><path class="st10" d="M964.8,346.4c12.3,0,12.3-19.1,0-19.1C952.5,327.4,952.5,346.4,964.8,346.4z" style="fill: rgb(246, 139, 31);" transform="matrix(1, 0, 0, 1, -8.526512829121202e-14, 0)"/><path class="st10" d="M904.5,360.7c12.3,0,12.3-19.1,0-19.1S892.2,360.7,904.5,360.7z" style="fill: rgb(246, 139, 31);" transform="matrix(1, 0, 0, 1, -8.526512829121202e-14, 0)"/><path class="st10" d="M840.9,371c12.3,0,12.3-19.1,0-19.1C828.6,352,828.6,371,840.9,371z" style="fill: rgb(246, 139, 31);" transform="matrix(1, 0, 0, 1, -8.526512829121202e-14, 0)"/><path class="st10" d="M894,386c0-5.2-4.3-9.5-9.5-9.5h-0.8c-5.2,0-9.5,4.3-9.5,9.5c0,5.2,4.3,9.5,9.5,9.5h0.8&#10;&#9;&#9;&#9;&#9;C889.7,395.6,894,391.2,894,386z" style="fill: rgb(246, 139, 31);" transform="matrix(1, 0, 0, 1, -8.526512829121202e-14, 0)"/><path class="st10" d="M940.2,380.6c-12.3,0-12.3,19.1,0,19.1C952.5,399.6,952.5,380.6,940.2,380.6z" style="fill: rgb(246, 139, 31);" transform="matrix(1, 0, 0, 1, -8.526512829121202e-14, 0)"/><path class="st10" d="M893.3,415.5c-12.3,0-12.3,19.1,0,19.1C905.6,434.5,905.6,415.5,893.3,415.5z" style="fill: rgb(246, 139, 31);" transform="matrix(1, 0, 0, 1, -8.526512829121202e-14, 0)"/><path class="st11" d="M1150.3,446.6c5.4,2.9,12.9,8,19.6,10.8c1-0.8,2.3-1.3,3.9-1.1c5.1,0.7,10.2,0.4,15.1-0.7&#10;&#9;&#9;&#9;&#9;c0.1-0.8,0.6-1.5,2.3-1.8c16.1-3.6,28.7-4,43.1-13.8c15.2-10.4,30.1-22.8,40.3-38.4c21.7-33.1,25.1-72.7,18.1-111.2&#10;&#9;&#9;&#9;&#9;c-6-33.5-20.4-62.2-32.5-93.6c-11.2-28.9-18.7-98.8-64.2-84.6c-2.7,1.7-5.9,2.1-8.8,1.2c-0.9,0.2-2,0.1-3-0.4&#10;&#9;&#9;&#9;&#9;c-24.4-11.9-40,23.9-49.1,39.3c-8,13.5-19.3,25.1-26.7,38.8c-17.2,32-28.4,77.3-29.1,113.6c-0.6,32.6,6.6,78.4,27,104.9&#10;&#9;&#9;&#9;&#9;C1118.2,424.9,1133.2,437.2,1150.3,446.6z M1138.3,332.3c0-12.3,19.1-12.3,19.1,0S1138.3,344.6,1138.3,332.3z M1153.4,349.7&#10;&#9;&#9;&#9;&#9;c0-12.3,19.1-12.3,19.1,0C1172.5,362,1153.4,362,1153.4,349.7z M1163.7,322.7c0-12.3,19.1-12.3,19.1,0S1163.7,335,1163.7,322.7z&#10;&#9;&#9;&#9;&#9; M1201.8,331.5c0,12.3-19.1,12.3-19.1,0C1182.8,319.2,1201.8,319.2,1201.8,331.5z M1171.7,302.9h-0.8c-5.2,0-9.5-4.3-9.5-9.5&#10;&#9;&#9;&#9;&#9;c0-5.2,4.3-9.5,9.5-9.5h0.8c5.2,0,9.5,4.3,9.5,9.5C1181.2,298.6,1176.9,302.9,1171.7,302.9z M1162.9,379.9&#10;&#9;&#9;&#9;&#9;c0-12.3,19.1-12.3,19.1,0C1182,392.2,1162.9,392.2,1162.9,379.9z M1192.3,441.8c0,6.1-9.6,6.1-9.5,0c0.1-11.9,0.2-23.8,0.3-35.7&#10;&#9;&#9;&#9;&#9;c0-6.1,9.6-6.1,9.5,0C1192.5,418,1192.4,429.9,1192.3,441.8z M1183.6,386.3c0-12.3,19.1-12.3,19.1,0&#10;&#9;&#9;&#9;&#9;C1202.6,398.6,1183.6,398.6,1183.6,386.3z M1203.4,359.3c0,5.2-4.3,9.5-9.5,9.5s-9.5-4.3-9.5-9.5v-0.8c0-5.2,4.3-9.5,9.5-9.5&#10;&#9;&#9;&#9;&#9;s9.5,4.3,9.5,9.5V359.3z M1185.2,302.1c0-12.3,19.1-12.3,19.1,0C1204.2,314.4,1185.2,314.4,1185.2,302.1z M1206.6,380.7&#10;&#9;&#9;&#9;&#9;c0-12.3,19.1-12.3,19.1,0C1225.7,393,1206.6,393,1206.6,380.7z M1208.2,356.9c0-12.3,19.1-12.3,19.1,0&#10;&#9;&#9;&#9;&#9;C1227.2,369.2,1208.2,369.2,1208.2,356.9z M1212.2,325.9c0-12.3,19.1-12.3,19.1,0C1231.2,338.2,1212.2,338.2,1212.2,325.9z&#10;&#9;&#9;&#9;&#9; M1230.4,345c0-12.3,19.1-12.3,19.1,0C1249.5,357.3,1230.4,357.3,1230.4,345z M1252.7,315.6c0,12.3-19.1,12.3-19.1,0&#10;&#9;&#9;&#9;&#9;C1233.6,303.3,1252.7,303.3,1252.7,315.6z M1230.4,282.3c0-5.2,4.3-9.5,9.5-9.5s9.5,4.3,9.5,9.5v0.8c0,5.2-4.3,9.5-9.5,9.5&#10;&#9;&#9;&#9;&#9;s-9.5-4.3-9.5-9.5V282.3z M1231.2,296.5c0,12.3-19.1,12.3-19.1,0C1212.2,284.3,1231.2,284.3,1231.2,296.5z M1228,264&#10;&#9;&#9;&#9;&#9;c0,12.3-19.1,12.3-19.1,0C1209,251.7,1228,251.7,1228,264z M1205.8,237c0-5.2,4.3-9.5,9.5-9.5s9.5,4.3,9.5,9.5v0.8&#10;&#9;&#9;&#9;&#9;c0,5.2-4.3,9.5-9.5,9.5s-9.5-4.3-9.5-9.5V237z M1206.6,277.5c0,12.3-19.1,12.3-19.1,0S1206.6,265.2,1206.6,277.5z M1201.8,253.7&#10;&#9;&#9;&#9;&#9;c0,12.3-19.1,12.3-19.1,0C1182.8,241.4,1201.8,241.4,1201.8,253.7z M1186.8,121.1c0-6.1,9.5-6.1,9.5,0c0.2,25.7-0.5,51.3-2.1,77&#10;&#9;&#9;&#9;&#9;c-0.4,6.1-9.9,6.1-9.5,0C1186.3,172.4,1187,146.8,1186.8,121.1z M1198.7,226.7c0,12.3-19.1,12.3-19.1,0&#10;&#9;&#9;&#9;&#9;C1179.6,214.4,1198.7,214.4,1198.7,226.7z M1180.4,270.3c0,12.3-19.1,12.3-19.1,0C1161.3,258.1,1180.4,258.1,1180.4,270.3z&#10;&#9;&#9;&#9;&#9; M1158.6,232.6c0.3-0.3,0.5-0.5,0.8-0.8c3.7-3.7,9.8-3.7,13.5,0c3.7,3.7,3.7,9.8,0,13.5l-0.8,0.8c-3.7,3.7-9.8,3.7-13.5,0&#10;&#9;&#9;&#9;&#9;C1154.9,242.4,1154.9,236.3,1158.6,232.6z M1156.6,280.7c0,12.3-19.1,12.3-19.1,0C1137.5,268.4,1156.6,268.4,1156.6,280.7z&#10;&#9;&#9;&#9;&#9; M1155,307.7c0,12.3-19.1,12.3-19.1,0C1135.9,295.4,1155,295.4,1155,307.7z" style="fill: rgb(247, 148, 30);" transform="matrix(1, 0, 0, 1, -8.526512829121202e-14, 0)"/><path class="st12" d="M1138.9,450.9c13.9,9,33,22.2,50,16.3c15.5-5.4,29.5-7,43.9-15.2c17.3-9.9,32.3-23.6,44.9-38.9&#10;&#9;&#9;&#9;&#9;c26.7-32.4,31.2-76.4,25.4-116.7c-7.1-49.4-32.5-91.2-45.2-138.9c-8.1-30.5-29.7-67.3-66.6-54c-0.5,0.2-0.9,0.4-1.2,0.7&#10;&#9;&#9;&#9;&#9;c-0.1-0.1-0.2-0.1-0.3-0.3c-1.6-1.7-3.5-1.8-5.1-1.1c-30.2-10.5-49,29.6-61.7,50.9c-11.4,19.3-25.3,34.4-33.6,55.6&#10;&#9;&#9;&#9;&#9;c-9.3,23.7-14.5,51.4-17.7,76.6c-5.5,42.2,2.7,92.3,26.4,128.3C1108.1,429.7,1123.6,441.1,1138.9,450.9z M1079.2,304.5&#10;&#9;&#9;&#9;&#9;c0.7-36.3,11.9-81.6,29.1-113.6c7.4-13.7,18.7-25.4,26.7-38.8c9.1-15.4,24.7-51.2,49.1-39.3c1.1,0.5,2.1,0.6,3,0.4&#10;&#9;&#9;&#9;&#9;c2.9,0.9,6.2,0.5,8.8-1.2c45.5-14.1,53,55.7,64.2,84.6c12.1,31.4,26.5,60.1,32.5,93.6c6.9,38.5,3.6,78.1-18.1,111.2&#10;&#9;&#9;&#9;&#9;c-10.2,15.6-25.2,28-40.3,38.4c-14.4,9.9-27,10.2-43.1,13.8c-1.7,0.4-2.2,1.1-2.3,1.8c-4.9,1.1-10,1.5-15.1,0.7&#10;&#9;&#9;&#9;&#9;c-1.6-0.2-2.9,0.2-3.9,1.1c-6.7-2.8-14.2-7.8-19.6-10.8c-17.1-9.4-32.1-21.7-44-37.2C1085.7,382.9,1078.6,337.1,1079.2,304.5z" style="fill: rgb(102, 57, 0);" transform="matrix(1, 0, 0, 1, -8.526512829121202e-14, 0)"/><path class="st12" d="M1183,406.1c-0.1,11.9-0.2,23.8-0.3,35.7c0,6.1,9.5,6.1,9.5,0c0.1-11.9,0.2-23.8,0.3-35.7&#10;&#9;&#9;&#9;&#9;C1192.6,400,1183,400,1183,406.1z" style="fill: rgb(102, 57, 0);" transform="matrix(1, 0, 0, 1, -8.526512829121202e-14, 0)"/><path class="st12" d="M1194.3,198c1.6-25.6,2.2-51.3,2.1-77c0-6.1-9.6-6.1-9.5,0c0.2,25.7-0.5,51.3-2.1,77&#10;&#9;&#9;&#9;&#9;C1184.4,204.2,1193.9,204.2,1194.3,198z" style="fill: rgb(102, 57, 0);" transform="matrix(1, 0, 0, 1, -8.526512829121202e-14, 0)"/><path class="st12" d="M1172,246.1l0.8-0.8c3.7-3.7,3.7-9.8,0-13.5c-3.7-3.7-9.8-3.7-13.5,0c-0.3,0.3-0.5,0.5-0.8,0.8&#10;&#9;&#9;&#9;&#9;c-3.7,3.7-3.7,9.8,0,13.5C1162.2,249.8,1168.4,249.8,1172,246.1z" style="fill: rgb(102, 57, 0);" transform="matrix(1, 0, 0, 1, -8.526512829121202e-14, 0)"/><path class="st12" d="M1198.6,226.7c0-12.3-19.1-12.3-19.1,0C1179.6,238.9,1198.6,238.9,1198.6,226.7z" style="fill: rgb(102, 57, 0);" transform="matrix(1, 0, 0, 1, -8.526512829121202e-14, 0)"/><path class="st12" d="M1182.8,253.7c0,12.3,19.1,12.3,19.1,0C1201.8,241.4,1182.8,241.4,1182.8,253.7z" style="fill: rgb(102, 57, 0);" transform="matrix(1, 0, 0, 1, -8.526512829121202e-14, 0)"/><path class="st12" d="M1161.3,270.3c0,12.3,19.1,12.3,19.1,0S1161.3,258,1161.3,270.3z" style="fill: rgb(102, 57, 0);" transform="matrix(1, 0, 0, 1, -8.526512829121202e-14, 0)"/><path class="st12" d="M1171.6,283.8h-0.8c-5.2,0-9.5,4.3-9.5,9.5c0,5.2,4.3,9.5,9.5,9.5h0.8c5.2,0,9.5-4.3,9.5-9.5&#10;&#9;&#9;&#9;&#9;C1181.2,288.2,1176.8,283.8,1171.6,283.8z" style="fill: rgb(102, 57, 0);" transform="matrix(1, 0, 0, 1, -8.526512829121202e-14, 0)"/><path class="st12" d="M1156.6,280.7c0-12.3-19.1-12.3-19.1,0C1137.5,292.9,1156.6,292.9,1156.6,280.7z" style="fill: rgb(102, 57, 0);" transform="matrix(1, 0, 0, 1, -8.526512829121202e-14, 0)"/><path class="st12" d="M1155,307.7c0-12.3-19.1-12.3-19.1,0C1135.9,319.9,1155,319.9,1155,307.7z" style="fill: rgb(102, 57, 0);" transform="matrix(1, 0, 0, 1, -8.526512829121202e-14, 0)"/><path class="st12" d="M1157.3,332.3c0-12.3-19.1-12.3-19.1,0C1138.3,344.6,1157.3,344.6,1157.3,332.3z" style="fill: rgb(102, 57, 0);" transform="matrix(1, 0, 0, 1, -8.526512829121202e-14, 0)"/><path class="st12" d="M1172.4,349.7c0-12.3-19.1-12.3-19.1,0C1153.4,362,1172.4,362,1172.4,349.7z" style="fill: rgb(102, 57, 0);" transform="matrix(1, 0, 0, 1, -8.526512829121202e-14, 0)"/><path class="st12" d="M1162.9,379.9c0,12.3,19.1,12.3,19.1,0S1162.9,367.6,1162.9,379.9z" style="fill: rgb(102, 57, 0);" transform="matrix(1, 0, 0, 1, -8.526512829121202e-14, 0)"/><path class="st12" d="M1183.5,386.3c0,12.3,19.1,12.3,19.1,0C1202.6,374,1183.5,374,1183.5,386.3z" style="fill: rgb(102, 57, 0);" transform="matrix(1, 0, 0, 1, -8.526512829121202e-14, 0)"/><path class="st12" d="M1193.9,348.9c-5.2,0-9.5,4.3-9.5,9.5v0.8c0,5.2,4.3,9.5,9.5,9.5c5.2,0,9.5-4.3,9.5-9.5v-0.8&#10;&#9;&#9;&#9;&#9;C1203.4,353.3,1199.1,348.9,1193.9,348.9z" style="fill: rgb(102, 57, 0);" transform="matrix(1, 0, 0, 1, -8.526512829121202e-14, 0)"/><path class="st12" d="M1201.8,331.5c0-12.3-19.1-12.3-19.1,0C1182.8,343.8,1201.8,343.8,1201.8,331.5z" style="fill: rgb(102, 57, 0);" transform="matrix(1, 0, 0, 1, -8.526512829121202e-14, 0)"/><path class="st12" d="M1163.7,322.7c0,12.3,19.1,12.3,19.1,0C1182.8,310.4,1163.7,310.4,1163.7,322.7z" style="fill: rgb(102, 57, 0);" transform="matrix(1, 0, 0, 1, -8.526512829121202e-14, 0)"/><path class="st12" d="M1185.1,302.1c0,12.3,19.1,12.3,19.1,0C1204.2,289.8,1185.1,289.8,1185.1,302.1z" style="fill: rgb(102, 57, 0);" transform="matrix(1, 0, 0, 1, -8.526512829121202e-14, 0)"/><path class="st12" d="M1187.5,277.5c0,12.3,19.1,12.3,19.1,0C1206.6,265.2,1187.5,265.2,1187.5,277.5z" style="fill: rgb(102, 57, 0);" transform="matrix(1, 0, 0, 1, -8.526512829121202e-14, 0)"/><path class="st12" d="M1209,264c0,12.3,19.1,12.3,19.1,0C1228,251.7,1209,251.7,1209,264z" style="fill: rgb(102, 57, 0);" transform="matrix(1, 0, 0, 1, -8.526512829121202e-14, 0)"/><path class="st12" d="M1215.3,247.3c5.2,0,9.5-4.3,9.5-9.5V237c0-5.2-4.3-9.5-9.5-9.5s-9.5,4.3-9.5,9.5v0.8&#10;&#9;&#9;&#9;&#9;C1205.8,243,1210.1,247.3,1215.3,247.3z" style="fill: rgb(102, 57, 0);" transform="matrix(1, 0, 0, 1, -8.526512829121202e-14, 0)"/><path class="st12" d="M1239.9,292.6c5.2,0,9.5-4.3,9.5-9.5v-0.8c0-5.2-4.3-9.5-9.5-9.5s-9.5,4.3-9.5,9.5v0.8&#10;&#9;&#9;&#9;&#9;C1230.4,288.2,1234.7,292.6,1239.9,292.6z" style="fill: rgb(102, 57, 0);" transform="matrix(1, 0, 0, 1, -8.526512829121202e-14, 0)"/><path class="st12" d="M1212.1,296.5c0,12.3,19.1,12.3,19.1,0C1231.2,284.2,1212.1,284.2,1212.1,296.5z" style="fill: rgb(102, 57, 0);" transform="matrix(1, 0, 0, 1, -8.526512829121202e-14, 0)"/><path class="st12" d="M1212.1,325.9c0,12.3,19.1,12.3,19.1,0C1231.2,313.6,1212.1,313.6,1212.1,325.9z" style="fill: rgb(102, 57, 0);" transform="matrix(1, 0, 0, 1, -8.526512829121202e-14, 0)"/><path class="st12" d="M1233.6,315.6c0,12.3,19.1,12.3,19.1,0S1233.6,303.3,1233.6,315.6z" style="fill: rgb(102, 57, 0);" transform="matrix(1, 0, 0, 1, -8.526512829121202e-14, 0)"/><path class="st12" d="M1230.4,345c0,12.3,19.1,12.3,19.1,0C1249.5,332.7,1230.4,332.7,1230.4,345z" style="fill: rgb(102, 57, 0);" transform="matrix(1, 0, 0, 1, -8.526512829121202e-14, 0)"/><path class="st12" d="M1208.2,356.9c0,12.3,19.1,12.3,19.1,0C1227.2,344.6,1208.2,344.6,1208.2,356.9z" style="fill: rgb(102, 57, 0);" transform="matrix(1, 0, 0, 1, -8.526512829121202e-14, 0)"/><path class="st12" d="M1206.6,380.7c0,12.3,19.1,12.3,19.1,0C1225.6,368.4,1206.6,368.4,1206.6,380.7z" style="fill: rgb(102, 57, 0);" transform="matrix(1, 0, 0, 1, -8.526512829121202e-14, 0)"/><path class="st13" d="M590.7,635.2c-0.7-8.9-6-17.8-15.4-19.8c-8.5-1.8-19.1,0.2-21.3,9.9c-1.1,5.1-7.9,4-9.1-0.1&#10;&#9;&#9;&#9;&#9;c-0.6-0.5-1.2-1.2-1.4-2.2c-2.6-9.5-9.6-15.4-19.2-17.2c-10.8-2.1-28.4,1.2-25.1,16.2c0.9,4-3,6.4-6,5.8c-1.4,0-2.8-0.7-3.8-2.1&#10;&#9;&#9;&#9;&#9;c-5.8-8.6-17.8-14.3-27.7-8.5c-10,5.8-13.5,16.9-7.4,27.1c0.8,1.4,0.8,2.8,0.4,3.9c0.1,3-2.2,6.1-5.8,4.9&#10;&#9;&#9;&#9;&#9;c-12.5-4.1-24.9,4.8-26.7,17.7c-0.9,6.6,0.4,28.4,11.1,29.7c0.7-0.3,1.5-0.6,2.3-0.9c1.6-0.5,2.9-0.1,4,0.7&#10;&#9;&#9;&#9;&#9;c3.9,1.2,4.9,7.8,0,9.1c-1.4,0.4-2.7,0.6-4,0.7c-11.2,7.7-1.1,36.8,14.9,33.8c0.7-0.8,1.5-1.5,2.4-2.2c1.9-1.4,3.7-1.1,5,0.1&#10;&#9;&#9;&#9;&#9;c3.9,0.5,6.4,6.3,2,8.7c-1.5,0.8-3,1.5-4.4,2c-4.3,6.7-3.9,19.9-1.8,26c4.4,13.2,17.8,16.2,29.4,10.1c1.7-0.9,3.3-0.6,4.5,0.1&#10;&#9;&#9;&#9;&#9;c2.8,0.1,5.6,2.3,4.6,5.8c-3,10.1,1,23.1,12.3,26c12,3.1,19.8-3.1,27.6-11.5c2.2-2.3,5-1.6,6.7,0.2c0.2,0.2,0.4,0.5,0.6,0.8&#10;&#9;&#9;&#9;&#9;c0.1,0.2,0.2,0.4,0.3,0.6c0.1,0.2,0.2,0.3,0.3,0.5c4.1,12.4,20.9,9.2,28.4,2c3.1-3,5.8-6.4,6.5-10.8c0.2-1.2,1.4-9.4,0.1-12&#10;&#9;&#9;&#9;&#9;c-0.5-0.3-0.9-0.7-1.2-1.1c-4.6-2.8,0-10.2,5.3-7.9c0.5,0.2,0.9,0.6,1.3,0.8c20.5,5.8,39.2-27.4,18.5-37.7&#10;&#9;&#9;&#9;&#9;c-3.7-1.8-2.7-6-0.1-7.8c0.3-0.3,0.7-0.5,1.1-0.6c0,0,0,0,0,0c0.3-0.2,0.6-0.4,1-0.4c9-1.7,17.7-6.7,21.9-15.2&#10;&#9;&#9;&#9;&#9;c4.5-9.1,5.7-25.8-8.6-26.3c-4.7-0.2-5.8-5.8-3.2-8.3c0.3-0.9,0.9-1.8,1.8-2.5c8.7-6.5,13.5-18.3,9.2-28.8&#10;&#9;&#9;&#9;&#9;c-5-12.4-14.7-13-26.2-10.9C590.3,644.2,587.7,637.9,590.7,635.2z M480.3,729.6c-15.5-2.4-24.2-16.5-21.2-31.5&#10;&#9;&#9;&#9;&#9;c1.2-6,10.4-3.5,9.2,2.5c-4.6,23.1,31.1,26.6,31.2,2.7c0-6.1,9.5-6.1,9.5,0C508.8,718.7,496.2,732.1,480.3,729.6z M549.9,768.9&#10;&#9;&#9;&#9;&#9;c-17-1.2-28.5-15-25.5-32c1.1-6,10.2-3.5,9.2,2.5c-2,11.5,8.6,22.8,20.5,19.6c11.6-3.1,16.7-13,15.5-24.5c-0.6-6.1,8.9-6,9.5,0&#10;&#9;&#9;&#9;&#9;C580.9,751.3,568.5,770.2,549.9,768.9z M578.9,663.8c-14.6,26.7-52.9,17.6-55.9-11.9c-0.6-6.1,8.9-6,9.5,0&#10;&#9;&#9;&#9;&#9;c2.2,20.7,28.5,24.7,38.2,7.1C573.6,653.6,581.9,658.4,578.9,663.8z" style="fill: rgb(178, 32, 65);" transform="matrix(1, 0, 0, 1, -8.526512829121202e-14, 0)"/><path class="st4" d="M592.5,585.6c-5.1-2.7-5.5-8.8-4.2-15.3c-0.2,0.2-0.4,0.4-0.7,0.6c-5.1,4.3-13,10-19.8,11&#10;&#9;&#9;&#9;&#9;c-9.5,1.4-11.9-6.2-12.1-15c-6.9,9.1-16.3,15.6-29.1,14.7c-12.6-0.9-23.7-5.9-31-14.7c-0.5,3.1-1.4,6.2-2.6,9.3&#10;&#9;&#9;&#9;&#9;c-0.9,2.2-2.3,3.2-4.6,3.5c-10,1.3-18.1-4.5-25.3-10.8c-2.5-2.2-5-4.4-7.2-6.7c2.3,5.2,5.1,10.3,6.6,15.5&#10;&#9;&#9;&#9;&#9;c1.3,4.6-1.7,9.7-6.6,10.4c-12.7,1.8-23.1-4.8-32.9-12.2c3.4,15.6,12.3,31.7,25.4,39.3c2.2-2.5,5-4.7,8.3-6.2&#10;&#9;&#9;&#9;&#9;c12-5.4,24.3-3.6,33.6,4c3-10.1,12.9-17.6,24.4-17.5c14.6,0.1,28.3,5.6,34.9,18c6.7-7.3,18.3-10.2,28-7.1c2,0.6,3.8,1.4,5.6,2.4&#10;&#9;&#9;&#9;&#9;c0.4-0.3,0.8-0.7,1.4-0.9c14.2-5.3,26.5-13.8,36.2-24.9C611.5,587.1,601.2,590.2,592.5,585.6z" style="fill: rgb(141, 198, 63);" transform="matrix(1, 0, 0, 1, -8.526512829121202e-14, 0)"/><path class="st14" d="M636.2,569c-1.4-1.4-3.4-2.1-5.7-1.1c-9.4,4.1-19.3,10-29.7,10.4c-6.4,0.3-1.5-10.3-0.7-13&#10;&#9;&#9;&#9;&#9;c1.3-4.4,2.8-8.6,4.3-12.9c1-2.6-0.5-4.5-2.4-5.3c-2-1.9-5.6-2.3-7.4,0.8c-5.4,9.3-12.8,16.4-22.2,21.6c-2.3,1.3-4.7,2.2-7.1,3.1&#10;&#9;&#9;&#9;&#9;c1.5-0.5,0.6-4.9,0.6-6.1c0-6.5,0.5-12.9,1.3-19.4c0.4-3.3-2.3-4.8-4.9-4.4c-2.1-0.3-4.5,0.6-5.5,3.1c-5.3,13-13,24.2-27.2,25.9&#10;&#9;&#9;&#9;&#9;c10.8-27.9,7.4-61.4-22.5-75.9c-5.5-2.7-10.3,5.5-4.8,8.2c26.5,12.9,28.1,43,17.2,67.2c-11.5-2.7-20.1-12.1-22.4-23.9&#10;&#9;&#9;&#9;&#9;c-0.6-3.2-3.4-3.9-5.8-3.1c-3-0.5-6.6,1.9-5.6,5.8c1.7,7,1.4,13.5-0.7,20.1c-6.7-0.6-11.9-5.3-17-9.7c-5.8-5-11.4-10.4-14-17.9&#10;&#9;&#9;&#9;&#9;c-1.6-4.5-7.6-3.9-9.1-0.6c-0.5,0.6-0.9,1.2-1.1,2.2c-1.9,12.6,4.6,21.8,8.8,33.1c1.4,3.8-4.7,1.4-6.9,0.9&#10;&#9;&#9;&#9;&#9;c-3.9-1-7.5-3.6-10.9-5.8c-4.7-3.1-9.1-6.6-13.6-10c-0.7-2.2-2.7-3.3-4.8-3.2c-3.8-1-6.7,4.4-4.3,7.9&#10;&#9;&#9;&#9;&#9;c1.6,20.9,12.7,45.8,31.3,56.3c-2.2,6-2.3,12.8-0.5,19c-15.9-0.5-28.5,13-30.7,29.1c-1.5,11.2,2.5,28.7,12.5,35.6&#10;&#9;&#9;&#9;&#9;c-10,14.7,1.2,42.9,19.6,46.2c-3.7,10.2-3.1,23.3,1.1,31.8c7,14.3,21.9,18.7,35.8,14.2c-0.7,12,5.2,23.3,16.6,28.9&#10;&#9;&#9;&#9;&#9;c13.4,6.7,25.9,0.9,35.8-8c8.6,11.6,26.2,10.2,38.1,1.9c7-4.9,11-12,12.2-20.4c0.3-2.5,0.7-5.8,0.5-9c23.9,0.7,42-33.1,26.6-50.6&#10;&#9;&#9;&#9;&#9;c11.2-4.7,19.5-14.1,23-26.1c3.5-11.9-1.5-24.6-11.8-29.5c8.8-9.3,12.1-21.6,8.3-34.8c-4.5-15.5-17.1-19.4-30.7-18.5&#10;&#9;&#9;&#9;&#9;c-0.8-7.1-3.6-13.3-8.2-18.2c19.3-8.2,35.2-21.6,46.4-39.5C640,572.7,638.4,570.1,636.2,569z M595.3,643.3&#10;&#9;&#9;&#9;&#9;c11.6-2.1,21.3-1.4,26.2,10.9c4.2,10.6-0.5,22.3-9.2,28.8c-0.9,0.7-1.5,1.6-1.8,2.5c-2.5,2.5-1.5,8.1,3.2,8.3&#10;&#9;&#9;&#9;&#9;c14.3,0.6,13.2,17.2,8.6,26.3c-4.2,8.5-12.9,13.5-21.9,15.2c-0.4,0.1-0.7,0.3-1,0.4c0,0,0,0,0,0c-0.4,0.2-0.8,0.4-1.1,0.6&#10;&#9;&#9;&#9;&#9;c-2.6,1.9-3.5,6,0.1,7.8c20.8,10.3,2.1,43.5-18.5,37.7c-0.4-0.3-0.8-0.6-1.3-0.8c-5.4-2.3-10,5.1-5.3,7.9&#10;&#9;&#9;&#9;&#9;c0.3,0.4,0.7,0.8,1.2,1.1c1.3,2.6,0.1,10.9-0.1,12c-0.6,4.4-3.4,7.8-6.5,10.8c-7.5,7.2-24.3,10.4-28.4-2&#10;&#9;&#9;&#9;&#9;c-0.1-0.2-0.2-0.3-0.3-0.5c-0.1-0.2-0.2-0.4-0.3-0.6c-0.2-0.3-0.4-0.6-0.6-0.8c-1.7-1.9-4.5-2.6-6.7-0.2&#10;&#9;&#9;&#9;&#9;c-7.8,8.4-15.6,14.6-27.6,11.5c-11.4-3-15.3-15.9-12.3-26c1-3.5-1.7-5.7-4.6-5.8c-1.3-0.8-2.9-1-4.5-0.1&#10;&#9;&#9;&#9;&#9;c-11.6,6.1-25,3.1-29.4-10.1c-2.1-6.2-2.5-19.3,1.8-26c1.5-0.5,2.9-1.1,4.4-2c4.4-2.4,2-8.3-2-8.7c-1.3-1.1-3.1-1.5-5-0.1&#10;&#9;&#9;&#9;&#9;c-0.9,0.6-1.6,1.4-2.4,2.2c-16,3-26.1-26.1-14.9-33.8c1.3-0.1,2.6-0.3,4-0.7c4.9-1.4,4-7.9,0-9.1c-1-0.8-2.3-1.2-4-0.7&#10;&#9;&#9;&#9;&#9;c-0.8,0.3-1.6,0.6-2.3,0.9c-10.7-1.2-12-23.1-11.1-29.7c1.7-12.9,14.2-21.8,26.7-17.7c3.6,1.2,6-1.9,5.8-4.9&#10;&#9;&#9;&#9;&#9;c0.5-1.2,0.5-2.5-0.4-3.9c-6-10.2-2.6-21.2,7.4-27.1c9.9-5.8,21.9-0.1,27.7,8.5c1,1.5,2.4,2.1,3.8,2.1c3,0.7,6.9-1.7,6-5.8&#10;&#9;&#9;&#9;&#9;c-3.4-15,14.3-18.3,25.1-16.2c9.6,1.9,16.7,7.7,19.2,17.2c0.3,1,0.8,1.7,1.4,2.2c1.2,4.1,8,5.2,9.1,0.1&#10;&#9;&#9;&#9;&#9;c2.1-9.7,12.8-11.7,21.3-9.9c9.4,1.9,14.7,10.8,15.4,19.8C587.7,637.9,590.3,644.2,595.3,643.3z M584.7,607.8&#10;&#9;&#9;&#9;&#9;c-0.6,0.2-1,0.5-1.4,0.9c-1.8-0.9-3.6-1.7-5.6-2.4c-9.7-3.1-21.3-0.2-28,7.1c-6.7-12.4-20.3-18-34.9-18&#10;&#9;&#9;&#9;&#9;c-11.5-0.1-21.4,7.4-24.4,17.5c-9.3-7.6-21.6-9.4-33.6-4c-3.3,1.5-6.1,3.7-8.3,6.2c-13.1-7.6-22-23.7-25.4-39.3&#10;&#9;&#9;&#9;&#9;c9.7,7.4,20.1,14,32.9,12.2c4.9-0.7,7.9-5.8,6.6-10.4c-1.5-5.2-4.4-10.3-6.6-15.5c2.3,2.3,4.7,4.5,7.2,6.7&#10;&#9;&#9;&#9;&#9;c7.2,6.2,15.3,12.1,25.3,10.8c2.3-0.3,3.7-1.3,4.6-3.5c1.2-3.1,2.1-6.2,2.6-9.3c7.2,8.9,18.4,13.8,31,14.7&#10;&#9;&#9;&#9;&#9;c12.8,0.9,22.2-5.6,29.1-14.7c0.1,8.8,2.6,16.4,12.1,15c6.8-1,14.7-6.7,19.8-11c0.2-0.2,0.4-0.4,0.7-0.6&#10;&#9;&#9;&#9;&#9;c-1.3,6.5-0.9,12.6,4.2,15.3c8.7,4.6,19,1.5,28.5-2.7C611.2,594,598.9,602.5,584.7,607.8z" style="fill: rgb(87, 0, 17);" transform="matrix(1, 0, 0, 1, -8.526512829121202e-14, 0)"/><path class="st14" d="M570.7,659c-9.7,17.6-36,13.6-38.2-7.1c-0.6-6-10.2-6.1-9.5,0c3.1,29.5,41.3,38.6,55.9,11.9&#10;&#9;&#9;&#9;&#9;C581.8,658.4,573.6,653.6,570.7,659z" style="fill: rgb(87, 0, 17);" transform="matrix(1, 0, 0, 1, -8.526512829121202e-14, 0)"/><path class="st14" d="M499.3,703.4c-0.1,23.8-35.7,20.4-31.2-2.7c1.2-6-8-8.6-9.2-2.5c-3,15,5.8,29.1,21.2,31.5&#10;&#9;&#9;&#9;&#9;c15.9,2.5,28.6-11,28.6-26.2C508.9,697.3,499.3,697.3,499.3,703.4z" style="fill: rgb(87, 0, 17);" transform="matrix(1, 0, 0, 1, -8.526512829121202e-14, 0)"/><path class="st14" d="M569.5,734.5c1.2,11.5-4,21.4-15.5,24.5c-12,3.3-22.5-8.1-20.5-19.6c1-6-8.1-8.6-9.2-2.5&#10;&#9;&#9;&#9;&#9;c-3,17,8.5,30.8,25.5,32c18.7,1.3,31-17.6,29.2-34.4C578.4,728.4,568.9,728.4,569.5,734.5z" style="fill: rgb(87, 0, 17);" transform="matrix(1, 0, 0, 1, -8.526512829121202e-14, 0)"/><path class="st15" d="M1238.5,730.9c-0.3-0.1-0.4-0.3-0.6-0.5c-2.5-0.5-4.5-2.5-3.4-5.6c14.4-36.8-11-108-60.9-92.7&#10;&#9;&#9;&#9;&#9;c-36.2,11.1-53.2,50.3-49.4,85.9c1.3,1.9,1.2,4.9-0.7,6.7c-1,1.4-2.7,2.1-4.2,2.2c-33.6,15.2-58.6,67.1-36.6,100.3&#10;&#9;&#9;&#9;&#9;c20.8,31.6,60.1,41.3,95,47.8c37.9,7.1,91.2-16.7,102.2-56C1290.2,782.2,1272.9,747,1238.5,730.9z M1224.5,724.2&#10;&#9;&#9;&#9;&#9;c-2.4,5.6-10.6,0.8-8.2-4.8c3.6-8.3,0.8-21.5-1.1-29.9c-1.9-8.4-5.2-15-11.8-20.6c-4.7-4,2.1-10.7,6.7-6.7&#10;&#9;&#9;&#9;&#9;c8.7,7.5,13,16.9,14.8,28.1C1226.8,701.6,1229.1,713.2,1224.5,724.2z" style="fill: rgb(246, 221, 72);" transform="matrix(1, 0, 0, 1, -8.526512829121202e-14, 0)"/><path class="st4" d="M1244.2,507c-20.4,11.5-30.4,31.1-39.2,51.7c9.1-5.1,18.3-9.9,27.5-14.7c0.1-0.5,0.1-1,0.4-1.5&#10;&#9;&#9;&#9;&#9;c3.4-7.2,6.8-14.5,10.2-21.7c2.6-5.6,10.8-0.7,8.2,4.8c-1.8,3.9-3.6,7.7-5.5,11.6c6.6-3.3,13.2-6.4,19.9-9.5&#10;&#9;&#9;&#9;&#9;c2.9-7.7,7-14.6,12.2-21c3.9-4.8,10.6,2,6.7,6.7c-2.1,2.6-4,5.3-5.6,8.2c5.2-2.3,10.4-4.7,15.7-6.9c5.6-2.4,10.5,5.8,4.8,8.2&#10;&#9;&#9;&#9;&#9;c-11.4,4.8-22.7,10-33.9,15.3c2.8,1.5,5.6,3,8.3,4.6c5.3,3.2,0.5,11.4-4.8,8.2c-4.7-2.8-9.5-5.4-14.4-7.7&#10;&#9;&#9;&#9;&#9;c-14.4,7.1-28.7,14.5-42.8,22.2c23.7,0.4,48.7-0.6,69.2-12.2c22.2-12.6,32.5-30.3,38.9-53.7&#10;&#9;&#9;&#9;&#9;C1295.4,494.4,1266.6,494.4,1244.2,507z" style="fill: rgb(141, 198, 63);" transform="matrix(1, 0, 0, 1, -8.526512829121202e-14, 0)"/><path class="st16" d="M1245,723.6c13.6-41.6-10.1-94.5-54.4-101.7c4.2-29.4-2.5-58.5-28-76.2c-5.1-3.5-9.8,4.7-4.8,8.2&#10;&#9;&#9;&#9;&#9;c22.2,15.5,27.3,41.9,23.4,67.2c-46.6-0.1-69.6,57.6-66.4,97.5c-33.9,16-54.3,57-48.1,93.7c8.7,51.6,74.9,65.6,116.8,73.4&#10;&#9;&#9;&#9;&#9;c21.4,4,47-7.7,65.9-16.4c16.5-7.6,31-24.7,37.3-41.5C1302.2,786.5,1284.3,743,1245,723.6z M1279.8,819.1&#10;&#9;&#9;&#9;&#9;c-11,39.3-64.3,63-102.2,56c-34.9-6.5-74.2-16.2-95-47.8c-21.9-33.3,3-85.1,36.6-100.3c1.6-0.1,3.2-0.8,4.2-2.2&#10;&#9;&#9;&#9;&#9;c1.9-1.8,1.9-4.8,0.7-6.7c-3.8-35.6,13.2-74.8,49.4-85.9c50-15.3,75.3,55.9,60.9,92.7c-1.2,3,0.9,5.1,3.4,5.6&#10;&#9;&#9;&#9;&#9;c0.2,0.2,0.4,0.3,0.6,0.5C1272.9,747,1290.2,782.2,1279.8,819.1z" style="fill: rgb(78, 71, 5);" transform="matrix(1, 0, 0, 1, -8.526512829121202e-14, 0)"/><path class="st16" d="M1326.5,491.6c-29.8-7.4-59.1-5.5-87.2,7.1c-26.8,12.1-37.7,43.2-48.2,68.4c-0.6,1.4-0.5,2.6,0.1,3.5&#10;&#9;&#9;&#9;&#9;c0.3,2.1,1.7,4.1,4.5,4.2c62.8,1.6,117.9-9.2,134.6-77c0.4-1.6,0-2.9-0.8-3.9C1329,492.9,1328.1,492,1326.5,491.6z M1281,553.5&#10;&#9;&#9;&#9;&#9;c-20.5,11.6-45.5,12.6-69.2,12.2c14.1-7.8,28.3-15.2,42.8-22.2c4.9,2.3,9.7,4.8,14.4,7.7c5.3,3.2,10.1-5.1,4.8-8.2&#10;&#9;&#9;&#9;&#9;c-2.7-1.6-5.5-3.2-8.3-4.6c11.2-5.3,22.5-10.4,33.9-15.3c5.6-2.4,0.8-10.6-4.8-8.2c-5.3,2.2-10.4,4.6-15.7,6.9&#10;&#9;&#9;&#9;&#9;c1.7-2.9,3.5-5.6,5.6-8.2c3.9-4.7-2.8-11.5-6.7-6.7c-5.2,6.4-9.2,13.3-12.2,21c-6.7,3.1-13.3,6.2-19.9,9.5&#10;&#9;&#9;&#9;&#9;c1.8-3.9,3.6-7.7,5.5-11.6c2.6-5.5-5.6-10.4-8.2-4.8c-3.4,7.2-6.8,14.5-10.2,21.7c-0.2,0.5-0.3,1-0.4,1.5&#10;&#9;&#9;&#9;&#9;c-9.2,4.8-18.4,9.6-27.5,14.7c8.8-20.5,18.7-40.2,39.2-51.7c22.4-12.6,51.2-12.5,75.8-7.1C1313.5,523.3,1303.3,541,1281,553.5z" style="fill: rgb(78, 71, 5);" transform="matrix(1, 0, 0, 1, -8.526512829121202e-14, 0)"/><path class="st16" d="M1210.1,662.1c-4.6-4-11.4,2.7-6.7,6.7c6.6,5.7,9.9,12.2,11.8,20.6c1.9,8.4,4.6,21.6,1.1,29.9&#10;&#9;&#9;&#9;&#9;c-2.4,5.6,5.8,10.4,8.2,4.8c4.6-10.9,2.3-22.6,0.5-34C1223.2,678.9,1218.8,669.5,1210.1,662.1z" style="fill: rgb(78, 71, 5);" transform="matrix(1, 0, 0, 1, -8.526512829121202e-14, 0)"/><path class="st4" d="M136.4,560.6c6.7,24,13.5,53.7,29.1,72.6c0.7-19.4,5.5-37.1,12.9-53.9C164.5,573.1,150.4,566.9,136.4,560.6z&#10;&#9;&#9;&#9;&#9;" style="fill: rgb(141, 198, 63);" transform="matrix(1, 0, 0, 1, -8.526512829121202e-14, 0)"/><path class="st17" d="M297.9,715.2c0.5-0.5,1.1-0.9,1.7-1.1c-5.9-22.7-16.9-43.3-32.9-57.9c-5.4,16.5-21.8,30.3-38.9,35.3&#10;&#9;&#9;&#9;&#9;c3.2,4.4,6.2,8.9,8.9,13.6c3.1,5.3-5.1,10.1-8.2,4.8c-2.7-4.6-5.7-10.2-9.5-14.3c-5.9,1.8-10.2,10.1-13,14.7&#10;&#9;&#9;&#9;&#9;c-3.1,5.3-11.4,0.5-8.2-4.8c2.8-4.7,5.7-9.1,9.4-12.8c-19.5-3-32.1-15.3-37.9-32.1c-12.9,16.7-22.3,35.9-27.9,56.2&#10;&#9;&#9;&#9;&#9;c0.3-0.4,0.6-0.8,0.9-1.2c1.5-1.9,5.2-1.9,6.7,0c5.1,6.3,9.6,12.9,13.7,19.9c3.1,5.3-5.2,10.1-8.2,4.8c-2.7-4.7-5.7-9.1-8.8-13.4&#10;&#9;&#9;&#9;&#9;c-2.3,3.2-4.6,6.4-6.8,9.8c-0.5,0.9-1.2,1.4-2,1.8c-1.6,11.3-2.1,22.8-1.4,34.3c0.3,5.1,0.9,10.2,1.7,15.4&#10;&#9;&#9;&#9;&#9;c1.8-1.6,5.1-1.7,6.6,0.2c5.4,6.6,11.3,12.7,17.8,18.3c4.7,4-2.1,10.7-6.7,6.7c-4.7-4-9.1-8.4-13.2-13.1l-1.4,2.9&#10;&#9;&#9;&#9;&#9;c2.7,10.4,6.5,20.4,11.5,29.5c2.3-2.4,4.5-4.9,6.8-7.4c1.7-1.8,5.1-1.9,6.7,0c6.1,7,12.7,13.6,19.8,19.7c4.6,4-2.1,10.8-6.7,6.7&#10;&#9;&#9;&#9;&#9;c-5.8-5-11.2-10.5-16.4-16.1c-1.7,1.8-3.3,3.6-5,5.4c13.6,19.4,34.1,32,63.3,28.3c25.4-3.2,45-15.9,58.8-33.7&#10;&#9;&#9;&#9;&#9;c-0.4-0.7-0.9-1.5-1.4-2.2c-6,4-11.4,10.1-16.2,15c-4.3,4.4-11.1-2.4-6.7-6.7c3.2-3.2,6.4-6.3,9.7-9.3c3-2.7,6.3-6.2,9.8-8.1&#10;&#9;&#9;&#9;&#9;c4.7-2.6,7.9-0.1,10.5,3.3c4.4-6.9,8-14.4,10.9-22.3c-2.6,2.6-5.2,5.3-7.5,8.2c-3.9,4.7-10.6-2-6.7-6.7&#10;&#9;&#9;&#9;&#9;c4.8-5.7,10.1-10.9,15.9-15.6c1-0.8,2-1.1,3-1.2c4.8-20,5.5-41.7,2.1-62.3c0,0,0,0,0,0c-0.5-0.5-1-1.1-1.5-1.6&#10;&#9;&#9;&#9;&#9;c-4.2,4.7-8.2,9.5-11.9,14.6c-3.5,5-11.8,0.2-8.2-4.8C286.1,728.5,291.7,721.6,297.9,715.2z M229,735.4&#10;&#9;&#9;&#9;&#9;c5.7-6.2,11.5-12.3,17.2-18.5c1.7-1.8,5.1-1.9,6.7,0c5.5,6.6,10.8,13.4,16,20.3c3.7,4.9-4.6,9.7-8.2,4.8&#10;&#9;&#9;&#9;&#9;c-3.7-4.9-7.5-9.7-11.3-14.5c-4.5,4.9-9.1,9.8-13.6,14.6C231.6,746.6,224.8,739.9,229,735.4z M221.6,754.7&#10;&#9;&#9;&#9;&#9;c5,2.9,9.3,9.2,13.3,13.4c2.4,2.5,5.4,4.7,5.4,8.4c0,2.5-2.2,4.8-4.8,4.8c-0.2,0-0.4,0-0.6,0c-2.6-0.1-4.8-2.1-4.8-4.8&#10;&#9;&#9;&#9;&#9;c0-0.1,0-0.1,0-0.2c-1.4-1-5.2-4.7-5.6-5.2c-2.4-2.5-4.6-5.1-7.1-7.4c-1.1-1-13.3,14.6-14.6,16.1c-3.9,4.7-10.6-2.1-6.7-6.7&#10;&#9;&#9;&#9;&#9;c4.7-5.6,9.2-11.5,14.2-16.9C213.3,752.9,217.9,752.5,221.6,754.7z M196.9,715.9c4.4,6.6,9,13.1,13.7,19.4&#10;&#9;&#9;&#9;&#9;c3.7,4.9-4.6,9.7-8.2,4.8c-3.4-4.6-6.7-9.2-10-13.9c-4.3,5.1-8.6,10.3-12.7,15.5c-3.8,4.9-10.5-1.9-6.7-6.7&#10;&#9;&#9;&#9;&#9;c5.3-6.8,10.7-13.5,16.4-20.1C191.5,712.5,195.3,713.5,196.9,715.9z M162.1,706.9c-3.2,5.2-11.4,0.5-8.2-4.8&#10;&#9;&#9;&#9;&#9;c3.6-5.9,9.8-16.1,17.2-17.2c4.1-0.6,6.8,2.9,9.4,5.6c3.7,3.8,7.5,7.7,11.2,11.5c4.3,4.4-2.4,11.1-6.7,6.7&#10;&#9;&#9;&#9;&#9;c-4.3-4.4-8.5-9.9-13.4-13.8C167.7,697.2,163.9,703.9,162.1,706.9z M164.1,762.6c-2.6-2.4-4.7,2.6-6.5,4.9&#10;&#9;&#9;&#9;&#9;c-2.5,3.2-4.9,6.5-7.4,9.7c-3.6,4.9-11.9,0.1-8.2-4.8c3.9-5.4,8-10.7,12.2-15.8c3.3-4,5.8-6.1,11-4.9c4.7,1,9.8,8.1,12.7,11.4&#10;&#9;&#9;&#9;&#9;c3.6,4.2,6.9,8.5,10,13c3.5,5.1-4.8,9.9-8.2,4.8C175.2,774.3,170.1,768,164.1,762.6z M180.4,815c-4.5,4.2-11.3-2.6-6.7-6.7&#10;&#9;&#9;&#9;&#9;c6.1-5.6,12.3-11.3,18.4-16.9c1.8-1.6,5-2.1,6.7,0c5.3,6.5,11.2,12.3,17.9,17.4c4.8,3.7,0.1,11.9-4.8,8.2&#10;&#9;&#9;&#9;&#9;c-6.1-4.6-11.7-9.7-16.8-15.4C190.1,806,185.2,810.5,180.4,815z M230,850.8c-2.9-4.1-6-8.1-9.4-11.9c-1-1.2-2.1-2.3-3.1-3.4&#10;&#9;&#9;&#9;&#9;c-0.4,0.3-0.8,0.6-1.4,0.9c-5.6,4.7-11.1,9.5-16.4,14.5c-4.5,4.2-11.2-2.5-6.7-6.7c4.7-4.4,9.4-8.7,14.3-12.8&#10;&#9;&#9;&#9;&#9;c3.5-2.9,6.4-6.6,11.2-6.6c4.3,0,8.3,6.5,10.8,9.4c3.2,3.8,6.2,7.7,9.1,11.8C241.8,851,233.5,855.7,230,850.8z M263.9,815.9&#10;&#9;&#9;&#9;&#9;c-2.1-2.8-4.2-5.6-6.4-8.4c-2.5-3.2-2.9-5.6-6.6-2.7c-4.7,3.6-9.3,7.2-14,10.8c-4.8,3.7-11.6-3-6.7-6.7l14-10.8&#10;&#9;&#9;&#9;&#9;c3.6-2.8,6.2-5.2,10.8-5.7c3.4-0.4,6,3.9,7.6,6.1c3.2,4.2,6.4,8.4,9.6,12.6C275.9,816,267.6,820.8,263.9,815.9z M282.8,761.3&#10;&#9;&#9;&#9;&#9;c2.8,3.4,4.9,7.2,6.7,11.2c2.4,5.6-5.8,10.4-8.2,4.8c-1.3-3-2.8-6-4.7-8.7c-1-1.3-3-4.3-5-6c-2.2,2.3-4.2,5.3-6.1,7.6&#10;&#9;&#9;&#9;&#9;c-2.5,3-5.1,6.1-7.6,9.1c-3.9,4.7-10.7-2.1-6.7-6.7c4.1-4.8,8.1-9.7,12.2-14.5c2.9-3.5,4.9-6.3,9.7-5.6&#10;&#9;&#9;&#9;&#9;C276.7,753.1,280.6,758.6,282.8,761.3z M279.7,706.8c-1.8-2.6-3.7-5.1-5.6-7.6c-0.9-1.2-1.8-2.3-2.8-3.5&#10;&#9;&#9;&#9;&#9;c-0.1-0.1-0.1-0.1-0.1-0.1c-3,3.2-5.6,6.5-7.7,10.4c-3,5.4-11.2,0.6-8.2-4.8c2.1-3.7,4.5-7.3,7.3-10.5c2.2-2.5,5-6,8.7-6&#10;&#9;&#9;&#9;&#9;c4.3,0,6.8,4.3,9.1,7.3c2.6,3.3,5.1,6.7,7.5,10.1C291.5,707.1,283.2,711.8,279.7,706.8z" style="fill: rgb(255, 242, 0);" transform="matrix(1, 0, 0, 1, -8.526512829121202e-14, 0)"/><path class="st4" d="M263.4,567.8c-1-18.1-0.1-38.1-3.8-56.2c-8.3,9.9-15.8,20.3-22.7,31.3c-0.1,0.1-0.2,0.2-0.3,0.3&#10;&#9;&#9;&#9;&#9;c5,9.4,9.9,19.2,14.3,29.3C255,570.9,259.2,569.4,263.4,567.8z" style="fill: rgb(141, 198, 63);" transform="matrix(1, 0, 0, 1, -8.526512829121202e-14, 0)"/><path class="st4" d="M268.5,637.2c16.3-21.2,24.7-46.8,31.8-72.6c-15.4,5.1-30.6,10.7-45.7,16.6&#10;&#9;&#9;&#9;&#9;C262,599.8,267.5,618.8,268.5,637.2z" style="fill: rgb(141, 198, 63);" transform="matrix(1, 0, 0, 1, -8.526512829121202e-14, 0)"/><path class="st4" d="M200.5,540.3c-5.3-6.4-10.7-12.8-16-19.2c-2-2.4-6-9.6-9.5-13.9c-5.6,18.3-8.6,37-8.8,56.3&#10;&#9;&#9;&#9;&#9;c5.4,2.4,10.9,4.8,16.3,7.3C187.7,560.3,193.8,550.2,200.5,540.3z" style="fill: rgb(141, 198, 63);" transform="matrix(1, 0, 0, 1, -8.526512829121202e-14, 0)"/><path class="st4" d="M188.1,579.1c-3.7,7.8-6.7,15.8-8.8,24.1c-7.3,30.1-5.3,94.2,43.7,79.3c64.1-19.5,24.2-100.3-0.3-144.8&#10;&#9;&#9;&#9;&#9;c-3.1,42.2-3.8,84.4-2,126.7c0.3,6.1-9.3,6.1-9.5,0c-1.8-42-1.2-84,1.9-125.9c-8.8,12.2-17.4,24.9-24,38.4&#10;&#9;&#9;&#9;&#9;C189,577.7,188.6,578.5,188.1,579.1z" style="fill: rgb(141, 198, 63);" transform="matrix(1, 0, 0, 1, -8.526512829121202e-14, 0)"/><path class="st18" d="M271.9,648c21.7-25.5,31.3-57.5,39.9-89.6c0.9-3.4-2.3-7-5.9-5.9c-11.2,3.6-22.2,7.5-33.2,11.5&#10;&#9;&#9;&#9;&#9;c-0.9-21,0.1-44-6.2-63.9c-1-3.2-5.5-4.9-8-2.1c-9.9,11.2-18.9,23.1-27.1,35.7c-2.3-4.3-4.6-8.4-6.9-12.4&#10;&#9;&#9;&#9;&#9;c-0.4-0.7-0.9-1.2-1.4-1.6c-1.9-2.6-6.7-2.2-8.3,1.2c-0.7,0.3-1.3,0.8-1.8,1.5c-2.4,3.2-4.7,6.5-7,9.8l-17.9-21.5&#10;&#9;&#9;&#9;&#9;c-5-5.9-6.6-13.5-14.4-15.9c-2.6-0.8-5,0.9-5.9,3.3c-6.9,19.9-10.5,40.2-11.1,61.1c-8.4-3.8-16.9-7.5-25.3-11.3&#10;&#9;&#9;&#9;&#9;c-3.5-1.6-8.3,1-7,5.4c9.2,29.8,16.3,72.2,41.1,93.5c0.2,0.2,0.4,0.2,0.6,0.4c0.1,0.6,0.2,1.1,0.3,1.7&#10;&#9;&#9;&#9;&#9;c-54.1,65.1-67.9,223.6,46.6,230.1c47.4,2.7,79.3-36.1,92.4-77.2c1.2-1.2,1.9-3,1.4-4.8c1-3.6,1.9-7.1,2.6-10.7&#10;&#9;&#9;&#9;&#9;C319.6,735.7,312.3,682.9,271.9,648z M300.2,564.6c-7.2,25.8-15.5,51.4-31.8,72.6c-1-18.4-6.4-37.4-13.9-55.9&#10;&#9;&#9;&#9;&#9;C269.6,575.3,284.9,569.8,300.2,564.6z M236.8,542.9c6.9-11,14.5-21.4,22.7-31.3c3.7,18,2.8,38.1,3.8,56.2&#10;&#9;&#9;&#9;&#9;c-4.2,1.6-8.4,3.1-12.6,4.8c-4.4-10.1-9.3-19.9-14.3-29.3C236.6,543.1,236.7,543,236.8,542.9z M213.2,538.5&#10;&#9;&#9;&#9;&#9;c-3.1,41.9-3.7,83.9-1.9,125.9c0.3,6.1,9.8,6.1,9.5,0c-1.8-42.3-1.1-84.5,2-126.7c24.5,44.6,64.4,125.3,0.3,144.8&#10;&#9;&#9;&#9;&#9;c-49,14.9-51-49.2-43.7-79.3c2-8.3,5.1-16.3,8.8-24.1c0.5-0.7,0.9-1.4,1-2.2C195.8,563.4,204.4,550.7,213.2,538.5z M174.9,507.2&#10;&#9;&#9;&#9;&#9;c3.6,4.3,7.6,11.5,9.5,13.9c5.3,6.4,10.7,12.8,16,19.2c-6.7,9.9-12.8,20-18,30.4c-5.4-2.4-10.9-4.8-16.3-7.3&#10;&#9;&#9;&#9;&#9;C166.4,544.2,169.3,525.5,174.9,507.2z M165.5,633.2c-15.7-18.9-22.5-48.6-29.1-72.6c14,6.2,28,12.5,42,18.7&#10;&#9;&#9;&#9;&#9;C171.1,596.1,166.3,613.8,165.5,633.2z M289.1,740.5c3.7-5.1,7.7-9.9,11.9-14.6c0.5,0.5,0.9,1.1,1.5,1.6c0,0,0,0,0,0&#10;&#9;&#9;&#9;&#9;c3.4,20.6,2.7,42.3-2.1,62.3c-1,0.1-2,0.5-3,1.2c-5.9,4.6-11.2,9.8-15.9,15.6c-3.9,4.7,2.8,11.5,6.7,6.7c2.4-2.9,4.9-5.6,7.5-8.2&#10;&#9;&#9;&#9;&#9;c-2.9,7.9-6.6,15.4-10.9,22.3c-2.7-3.4-5.8-5.9-10.5-3.3c-3.5,1.9-6.8,5.5-9.8,8.1c-3.4,3-6.6,6.1-9.7,9.3&#10;&#9;&#9;&#9;&#9;c-4.3,4.4,2.4,11.1,6.7,6.7c4.9-4.9,10.3-11,16.2-15c0.5,0.7,1,1.5,1.4,2.2c-13.9,17.8-33.4,30.5-58.8,33.7&#10;&#9;&#9;&#9;&#9;c-29.2,3.7-49.7-8.9-63.3-28.3c1.7-1.8,3.3-3.6,5-5.4c5.2,5.7,10.6,11.1,16.4,16.1c4.6,4,11.4-2.7,6.7-6.7&#10;&#9;&#9;&#9;&#9;c-7-6.1-13.6-12.7-19.8-19.7c-1.7-1.9-5.1-1.8-6.7,0c-2.3,2.5-4.5,4.9-6.8,7.4c-5-9.1-8.8-19.1-11.5-29.5l1.4-2.9&#10;&#9;&#9;&#9;&#9;c4.1,4.6,8.4,9,13.2,13.1c4.7,4,11.4-2.8,6.7-6.7c-6.5-5.5-12.4-11.6-17.8-18.3c-1.5-1.9-4.8-1.8-6.6-0.2&#10;&#9;&#9;&#9;&#9;c-0.8-5.2-1.4-10.3-1.7-15.4c-0.7-11.5-0.2-23,1.4-34.3c0.7-0.4,1.4-0.9,2-1.8c2.1-3.3,4.4-6.6,6.8-9.8c3.2,4.3,6.2,8.8,8.8,13.4&#10;&#9;&#9;&#9;&#9;c3.1,5.3,11.3,0.5,8.2-4.8c-4-7-8.6-13.6-13.7-19.9c-1.5-1.9-5.2-1.9-6.7,0c-0.3,0.4-0.6,0.8-0.9,1.2c5.6-20.3,15-39.5,27.9-56.2&#10;&#9;&#9;&#9;&#9;c5.8,16.8,18.3,29.1,37.9,32.1c-3.7,3.6-6.7,8.1-9.4,12.8c-3.1,5.3,5.1,10.1,8.2,4.8c2.7-4.6,7.1-12.9,13-14.7&#10;&#9;&#9;&#9;&#9;c3.9,4,6.8,9.7,9.5,14.3c3.1,5.3,11.4,0.5,8.2-4.8c-2.8-4.7-5.8-9.2-8.9-13.6c17.1-5,33.5-18.8,38.9-35.3&#10;&#9;&#9;&#9;&#9;c16.1,14.6,27.1,35.3,32.9,57.9c-0.6,0.2-1.2,0.6-1.7,1.1c-6.2,6.4-11.8,13.3-17,20.5C277.3,740.7,285.6,745.5,289.1,740.5z" style="fill: rgb(130, 55, 0);" transform="matrix(1, 0, 0, 1, -8.526512829121202e-14, 0)"/><path class="st18" d="M189.4,714.9c-5.6,6.6-11.1,13.3-16.4,20.1c-3.7,4.8,3,11.6,6.7,6.7c4.1-5.3,8.4-10.4,12.7-15.5&#10;&#9;&#9;&#9;&#9;c3.2,4.7,6.5,9.3,10,13.9c3.6,4.8,11.9,0.1,8.2-4.8c-4.8-6.3-9.3-12.8-13.7-19.4C195.3,713.5,191.5,712.5,189.4,714.9z" style="fill: rgb(130, 55, 0);" transform="matrix(1, 0, 0, 1, -8.526512829121202e-14, 0)"/><path class="st18" d="M235.7,742.1c4.5-4.9,9.1-9.8,13.6-14.6c3.9,4.8,7.7,9.6,11.3,14.5c3.6,4.9,11.9,0.1,8.2-4.8&#10;&#9;&#9;&#9;&#9;c-5.1-6.9-10.4-13.7-16-20.3c-1.6-1.9-5.1-1.8-6.7,0c-5.7,6.2-11.5,12.3-17.2,18.5C224.8,739.9,231.5,746.6,235.7,742.1z" style="fill: rgb(130, 55, 0);" transform="matrix(1, 0, 0, 1, -8.526512829121202e-14, 0)"/><path class="st18" d="M187.9,776.2c-3.1-4.6-6.4-8.9-10-13c-2.9-3.4-8-10.4-12.7-11.4c-5.2-1.1-7.7,0.9-11,4.9&#10;&#9;&#9;&#9;&#9;c-4.2,5.2-8.2,10.5-12.2,15.8c-3.6,5,4.6,9.7,8.2,4.8c2.4-3.3,4.9-6.5,7.4-9.7c1.8-2.3,3.9-7.3,6.5-4.9&#10;&#9;&#9;&#9;&#9;c6,5.4,11.1,11.7,15.6,18.4C183.1,786,191.4,781.3,187.9,776.2z" style="fill: rgb(130, 55, 0);" transform="matrix(1, 0, 0, 1, -8.526512829121202e-14, 0)"/><path class="st18" d="M196.1,773c-3.9,4.7,2.8,11.5,6.7,6.7c1.3-1.5,13.5-17.2,14.6-16.1c2.5,2.3,4.8,5,7.1,7.4&#10;&#9;&#9;&#9;&#9;c0.4,0.4,4.2,4.2,5.6,5.2c0,0.1,0,0.1,0,0.2c0,2.6,2.2,4.7,4.8,4.8c0.2,0,0.4,0,0.6,0c2.6,0.1,4.8-2.2,4.8-4.8&#10;&#9;&#9;&#9;&#9;c0-3.7-3-5.9-5.4-8.4c-4-4.2-8.2-10.4-13.3-13.4c-3.7-2.1-8.3-1.8-11.3,1.4C205.3,761.5,200.8,767.4,196.1,773z" style="fill: rgb(130, 55, 0);" transform="matrix(1, 0, 0, 1, -8.526512829121202e-14, 0)"/><path class="st18" d="M272.9,752.5c-4.8-0.7-6.8,2.1-9.7,5.6c-4.1,4.8-8.1,9.7-12.2,14.5c-3.9,4.7,2.8,11.5,6.7,6.7&#10;&#9;&#9;&#9;&#9;c2.5-3,5.1-6.1,7.6-9.1c1.9-2.3,3.9-5.3,6.1-7.6c2,1.6,4,4.7,5,6c2,2.7,3.4,5.6,4.7,8.7c2.4,5.6,10.6,0.8,8.2-4.8&#10;&#9;&#9;&#9;&#9;c-1.7-4-3.9-7.8-6.7-11.2C280.6,758.6,276.6,753.1,272.9,752.5z" style="fill: rgb(130, 55, 0);" transform="matrix(1, 0, 0, 1, -8.526512829121202e-14, 0)"/><path class="st18" d="M211.8,816.9c4.9,3.7,9.6-4.6,4.8-8.2c-6.7-5.1-12.6-10.9-17.9-17.4c-1.7-2.1-5-1.6-6.7,0&#10;&#9;&#9;&#9;&#9;c-6.1,5.6-12.3,11.3-18.4,16.9c-4.5,4.2,2.2,10.9,6.7,6.7c4.9-4.5,9.8-9,14.7-13.5C200.1,807.2,205.7,812.3,211.8,816.9z" style="fill: rgb(130, 55, 0);" transform="matrix(1, 0, 0, 1, -8.526512829121202e-14, 0)"/><path class="st18" d="M262.6,798.5c-1.7-2.2-4.2-6.5-7.6-6.1c-4.6,0.5-7.1,2.9-10.8,5.7l-14,10.8c-4.8,3.8,1.9,10.5,6.7,6.7&#10;&#9;&#9;&#9;&#9;c4.7-3.6,9.3-7.2,14-10.8c3.7-2.9,4.2-0.6,6.6,2.7c2.1,2.8,4.2,5.6,6.4,8.4c3.7,4.8,11.9,0.1,8.2-4.8&#10;&#9;&#9;&#9;&#9;C268.9,806.9,265.8,802.7,262.6,798.5z" style="fill: rgb(130, 55, 0);" transform="matrix(1, 0, 0, 1, -8.526512829121202e-14, 0)"/><path class="st18" d="M229.1,834.2c-2.4-2.9-6.5-9.4-10.8-9.4c-4.8,0-7.7,3.7-11.2,6.6c-4.9,4.1-9.6,8.4-14.3,12.8&#10;&#9;&#9;&#9;&#9;c-4.5,4.2,2.3,10.9,6.7,6.7c5.3-5,10.8-9.8,16.4-14.5c0.6-0.4,1.1-0.7,1.4-0.9c1.1,1.1,2.1,2.2,3.1,3.4c3.4,3.8,6.5,7.8,9.4,11.9&#10;&#9;&#9;&#9;&#9;c3.5,5,11.8,0.2,8.2-4.8C235.3,841.9,232.3,838,229.1,834.2z" style="fill: rgb(130, 55, 0);" transform="matrix(1, 0, 0, 1, -8.526512829121202e-14, 0)"/><path class="st18" d="M287.9,702c-2.4-3.4-4.9-6.8-7.5-10.1c-2.3-3-4.8-7.3-9.1-7.3c-3.7,0-6.4,3.5-8.7,6&#10;&#9;&#9;&#9;&#9;c-2.9,3.2-5.3,6.8-7.3,10.5c-3,5.4,5.2,10.2,8.2,4.8c2.1-3.8,4.7-7.2,7.7-10.4c0.1,0.1,0.1,0.1,0.1,0.1c0.9,1.2,1.8,2.3,2.8,3.5&#10;&#9;&#9;&#9;&#9;c1.9,2.5,3.8,5,5.6,7.6C283.2,711.8,291.5,707,287.9,702z" style="fill: rgb(130, 55, 0);" transform="matrix(1, 0, 0, 1, -8.526512829121202e-14, 0)"/><path class="st18" d="M171.6,694.8c4.9,3.9,9.1,9.4,13.4,13.8c4.3,4.4,11-2.3,6.7-6.7c-3.7-3.8-7.5-7.7-11.2-11.5&#10;&#9;&#9;&#9;&#9;c-2.6-2.7-5.2-6.2-9.4-5.6c-7.4,1.1-13.7,11.4-17.2,17.2c-3.2,5.3,5.1,10.1,8.2,4.8C163.9,703.9,167.7,697.2,171.6,694.8z" style="fill: rgb(130, 55, 0);" transform="matrix(1, 0, 0, 1, -8.526512829121202e-14, 0)"/>

</svg>