<?xml version="1.0" encoding="utf-8"?>
<svg id="master-artboard" viewBox="0 0 1400 980" version="1.1" xmlns="http://www.w3.org/2000/svg" x="0px" y="0px" width="1400px" height="980px" enable-background="new 0 0 1400 980"><rect id="ee-background" x="0" y="0" width="1400" height="980" style="fill: white; fill-opacity: 0; pointer-events: none;"/>
<path d="M 0 0 H 1400 V 980 H 0 V 0 Z" fill="#F9EDCF"/>
<g opacity="0.06">
	<path d="M699.717,215h-28.936h-13.563h-0.013c0.001-0.332,0.013-1,0.013-1H199.427c0,0,0.011,0.668,0.013,1h-0.013h-13.563h-28.936&#10;&#9;&#9;c0,148,121.747,271.396,271.395,271.396C577.969,486.396,699.717,363,699.717,215z"/>
	<path d="M674.846,741.168c-1.188,0-2.363,0.054-3.532,0.131l-60.837-193.565c1.177-4.445,1.731-9.051,1.587-13.674&#10;&#9;&#9;c-0.005-0.237,0.001-0.474-0.009-0.711c-14.524-7.479-32.526-7.235-47.264,2.224c-14.734,9.462-22.45,25.729-21.698,42.048&#10;&#9;&#9;c0.211,0.107,0.427,0.197,0.641,0.304c14.413,7.149,32.099,6.795,46.623-2.53c0.639-0.41,1.247-0.848,1.859-1.283L539.66,741.328&#10;&#9;&#9;c-1.297-0.095-2.604-0.16-3.925-0.16c-29.166,0-52.811,23.645-52.811,52.811s23.645,52.811,52.811,52.811&#10;&#9;&#9;c29.167,0,52.811-23.645,52.811-52.811c0-25.957-18.734-47.525-43.416-51.96l54.989-174.96c2.975-3.339,5.404-7.049,7.29-10.99&#10;&#9;&#9;l58.421,185.882c-24.869,4.28-43.795,25.938-43.795,52.028c0,29.166,23.645,52.811,52.811,52.811&#10;&#9;&#9;c29.167,0,52.811-23.645,52.811-52.811S704.013,741.168,674.846,741.168z"/>
	<path d="M807.9,363.439c0,61.427,49.795,111.222,111.222,111.222c61.426,0,111.222-49.795,111.222-111.222&#10;&#9;&#9;c0-59.79-47.182-108.554-106.344-111.108v-25.295c0-1.207-2.003-2.185-4-2.185s-4,0.978-4,2.185v25.228&#10;&#9;&#9;c-0.336,0.009-0.67,0.026-1.006,0.038c-5.277-12.93-16.178-23.418-30.633-27.604c-16.82-4.87-34.146,0.025-45.938,11.332&#10;&#9;&#9;c0.058,0.229,0.133,0.452,0.192,0.682c3.43,13.009,12.331,24.268,24.844,30.42C830.244,286.371,807.9,322.294,807.9,363.439z"/>
	<path d="M1144,266.905v35.149c-25,20.386-41.457,51.64-41.457,86.705c0,61.426,49.865,111.222,111.291,111.222&#10;&#9;&#9;s111.394-49.795,111.394-111.222c0-35.89-17.228-67.789-43.228-88.125v-33.728c0-36.876-30.048-65.905-66.924-65.905H1215v-31.834&#10;&#9;&#9;c0-1.207-1.503-2.186-3.5-2.186c-1.998,0-3.5,0.979-3.5,2.186v30.705c-4.2-15.381-16.038-28.284-32.475-33.043&#10;&#9;&#9;c-16.82-4.869-34.145,0.026-45.938,11.333c0.057,0.228,0.134,0.452,0.193,0.681c4.101,15.557,16.006,28.641,32.584,33.44&#10;&#9;&#9;c2.864,0.829,5.741,1.356,8.604,1.635C1154.615,225.842,1144,244.987,1144,266.905z"/>
	<path d="M1255.269,637.635c-3.293-10.716-12.771-18.398-24.269-19.488v-32.003c0-1.208-1.503-2.187-3.5-2.187s-3.5,0.979-3.5,2.187&#10;&#9;&#9;v29.722c-4.429-14.946-16.113-27.402-32.197-32.061c-16.82-4.869-34.146,0.026-45.938,11.332c0.058,0.229,0.133,0.452,0.193,0.683&#10;&#9;&#9;c4.101,15.557,16.006,28.64,32.585,33.439c8.66,2.508,17.444,2.401,25.545,0.187c-1.895,2.58-3.368,5.497-4.285,8.682&#10;&#9;&#9;c-40.555,12.245-70.093,49.697-70.093,94.248c0,44.598,29.604,82.856,70.226,95.06c3.568,11.564,14.34,20.565,27.078,20.565h1.072&#10;&#9;&#9;c12.549,0,23.173-8.85,26.899-20.15c41.533-11.627,72.007-50.412,72.007-95.659&#10;&#9;&#9;C1327.092,687.014,1296.709,649.321,1255.269,637.635z"/>
	<path d="M943,624.61v-30.871c0-1.207-1.002-2.186-3-2.186s-3,0.979-3,2.186v30.628c-0.098-0.002-0.195-0.003-0.293-0.004&#10;&#9;&#9;c-4.22-15.345-16.046-28.212-32.452-32.963c-16.82-4.869-34.146,0.026-45.938,11.333c0.057,0.229,0.133,0.451,0.193,0.681&#10;&#9;&#9;c3.75,14.227,14.04,26.364,28.448,32.01c-37.158,18.007-62.782,56.082-62.782,100.145c0,61.426,49.797,111.221,111.222,111.221&#10;&#9;&#9;c61.427,0,111.222-49.795,111.222-111.221C1046.619,676.697,1000.88,628.519,943,624.61z"/>
	<path d="M387.393,770.865c-0.867-1.915-3.12-2.764-5.036-1.898l-8.898,4.027c-10.587,2.604-21.645,4.01-33.035,4.01&#10;&#9;&#9;c-76.252,0-138.066-61.813-138.066-138.066c0-33.055,11.635-63.377,31.013-87.141l19.742-12.228&#10;&#9;&#9;c6.176-3.826,7.936-12.167,4.11-18.344c-3.824-6.177-12.077-8.315-18.252-4.491l-18.3,11.333&#10;&#9;&#9;c-54.502,23.914-92.572,78.349-92.572,141.681c0,85.414,69.242,154.655,154.656,154.655c36.628,0,70.276-12.739,96.769-34.022&#10;&#9;&#9;c0.528,0.002,1.064-0.098,1.576-0.33l8.962-4.054c1.915-0.865,2.765-3.118,1.899-5.034L387.393,770.865z"/>
</g>
<g>
	<g>
		<g>
			<path fill="#EE4230" d="M185.427,186.008c0,125.652,102.48,228.896,228.896,228.896S643.217,311.66,643.217,186.008"/>
			<path fill="#9ABC3C" d="M414.322,458.396C264.675,458.396,142.928,335,142.928,187h84.999c0,103,83.616,186.397,186.396,186.397&#10;&#9;&#9;&#9;&#9;C517.102,373.397,600.718,290,600.718,187h84.999C685.717,335,563.969,458.396,414.322,458.396z"/>
		</g>
		<g>
			<path fill="#EE4230" d="M185.427,186.008c0,125.652,102.48,228.896,228.896,228.896S643.217,311.66,643.217,186.008"/>
			<path fill="#FFDAD7" d="M414.322,429.459C280.63,429.459,171.863,321,171.863,187h27.127c0,117,96.597,215.333,215.332,215.333&#10;&#9;&#9;&#9;&#9;S629.654,304,629.654,187h27.127C656.781,321,548.015,429.459,414.322,429.459z"/>
		</g>
		<g>
			<path fill="#EE4230" d="M185.427,187c0,124,102.48,228.896,228.896,228.896S643.217,311,643.217,187H185.427z"/>
		</g>
	</g>
	<g>
		<g>
			<g>
				<g>
					<path d="M 360.051991 267.235992 A 13.062 13.062 0 0 1 346.98999 280.297993 A 13.062 13.062 0 0 1 333.92799 267.235992 A 13.062 13.062 0 0 1 346.98999 254.173992 A 13.062 13.062 0 0 1 360.051991 267.235992 Z" fill="#2E1F1C"/>
				</g>
				<g>
					<path d="M 494.714992 267.235992 A 13.061 13.061 0 0 1 481.653992 280.296992 A 13.061 13.061 0 0 1 468.592992 267.235992 A 13.061 13.061 0 0 1 481.653992 254.174993 A 13.061 13.061 0 0 1 494.714992 267.235992 Z" fill="#2E1F1C"/>
				</g>
			</g>
			<g>
				<path fill="#2E1F1C" d="M443.858,298.143c0,15.935-12.92,28.856-28.856,28.856l0,0c-15.938,0-28.858-12.921-28.858-28.856"/>
			</g>
		</g>
		<g>
			<g>
				<path d="M 512.34201 306.388 A 22.444 12.365 0 0 1 489.89801 318.753 A 22.444 12.365 0 0 1 467.45401 306.388 A 22.444 12.365 0 0 1 489.89801 294.023001 A 22.444 12.365 0 0 1 512.34201 306.388 Z" fill="#FF665A"/>
			</g>
			<g>
				<path d="M 361.188995 306.388 A 22.444 12.365 0 0 1 338.744995 318.753 A 22.444 12.365 0 0 1 316.300995 306.388 A 22.444 12.365 0 0 1 338.744995 294.023001 A 22.444 12.365 0 0 1 361.188995 306.388 Z" fill="#FF665A"/>
			</g>
		</g>
	</g>
</g>
<g>
	<g>
		<g>
			<g>
				<path d="M 574.545986 765.979004 A 52.811001 52.811001 0 0 1 521.734985 818.790005 A 52.811001 52.811001 0 0 1 468.923985 765.979004 A 52.811001 52.811001 0 0 1 521.734985 713.168003 A 52.811001 52.811001 0 0 1 574.545986 765.979004 Z" fill="#E8291A"/>
			</g>
			<g>
				<g>
					<g>
						<g>
							<path d="M 499.127013 767.049011 A 5.47 5.47 0 0 1 493.657013 772.519011 A 5.47 5.47 0 0 1 488.187013 767.049011 A 5.47 5.47 0 0 1 493.657013 761.579011 A 5.47 5.47 0 0 1 499.127013 767.049011 Z" fill="#2E1F1C"/>
						</g>
						<g>
							<path d="M 555.529021 767.049011 A 5.47 5.47 0 0 1 550.059021 772.519011 A 5.47 5.47 0 0 1 544.589021 767.049011 A 5.47 5.47 0 0 1 550.059021 761.579011 A 5.47 5.47 0 0 1 555.529021 767.049011 Z" fill="#2E1F1C"/>
						</g>
					</g>
					<g>
						<path fill="#2E1F1C" d="M534.229,779.993c0,6.675-5.412,12.086-12.087,12.086l0,0c-6.674,0-12.085-5.411-12.085-12.086"/>
					</g>
				</g>
				<g>
					<g>
						<path d="M 562.912024 783.445984 A 9.4 5.182 0 0 1 553.512024 788.627984 A 9.4 5.182 0 0 1 544.112024 783.445984 A 9.4 5.182 0 0 1 553.512024 778.263984 A 9.4 5.182 0 0 1 562.912024 783.445984 Z" fill="#FF665A"/>
					</g>
					<g>
						<path d="M 499.604986 783.445984 A 9.4 5.182 0 0 1 490.204987 788.627984 A 9.4 5.182 0 0 1 480.804987 783.445984 A 9.4 5.182 0 0 1 490.204987 778.263984 A 9.4 5.182 0 0 1 499.604986 783.445984 Z" fill="#FF665A"/>
					</g>
				</g>
			</g>
		</g>
		<g>
			<g>
				<path d="M 713.657009 765.979004 A 52.811001 52.811001 0 0 1 660.846008 818.790005 A 52.811001 52.811001 0 0 1 608.035007 765.979004 A 52.811001 52.811001 0 0 1 660.846008 713.168003 A 52.811001 52.811001 0 0 1 713.657009 765.979004 Z" fill="#E8291A"/>
			</g>
			<g>
				<g>
					<g>
						<g>
							<path d="M 638.379973 767.049011 A 5.47 5.47 0 0 1 632.909973 772.519011 A 5.47 5.47 0 0 1 627.439973 767.049011 A 5.47 5.47 0 0 1 632.909973 761.579011 A 5.47 5.47 0 0 1 638.379973 767.049011 Z" fill="#2E1F1C"/>
						</g>
						<g>
							<path d="M 694.783988 767.049011 A 5.471 5.471 0 0 1 689.312988 772.520011 A 5.471 5.471 0 0 1 683.841988 767.049011 A 5.471 5.471 0 0 1 689.312988 761.578011 A 5.471 5.471 0 0 1 694.783988 767.049011 Z" fill="#2E1F1C"/>
						</g>
					</g>
					<g>
						<path fill="#2E1F1C" d="M673.482,779.993c0,6.675-5.412,12.086-12.086,12.086l0,0c-6.674,0-12.086-5.411-12.086-12.086"/>
					</g>
				</g>
				<g>
					<g>
						<path d="M 702.165014 783.445984 A 9.4 5.182 0 0 1 692.765015 788.627984 A 9.4 5.182 0 0 1 683.365015 783.445984 A 9.4 5.182 0 0 1 692.765015 778.263984 A 9.4 5.182 0 0 1 702.165014 783.445984 Z" fill="#FF665A"/>
					</g>
					<g>
						<path d="M 638.858007 783.445984 A 9.4 5.182 0 0 1 629.458008 788.627984 A 9.4 5.182 0 0 1 620.058008 783.445984 A 9.4 5.182 0 0 1 629.458008 778.263984 A 9.4 5.182 0 0 1 638.858007 783.445984 Z" fill="#FF665A"/>
					</g>
				</g>
			</g>
		</g>
	</g>
	<g>
		<path d="M 528.5670166015625 722.1729736328125 L 523.3909912109375 720.5469970703125 L 591.4910278320312 503.87200927734375 L 659.1900024414062 719.2689819335938 L 654.0130004882812 720.89501953125 L 591.4910278320312 521.9660034179688 Z" fill="#2E1F1C"/>
	</g>
	<g>
		<g>
			<path fill="#3EBA79" d="M576.357,547.394c14.524-9.323,22.208-25.256,21.707-41.334l-68.33,43.864&#10;&#9;&#9;&#9;&#9;C544.147,557.073,561.833,556.719,576.357,547.394z"/>
		</g>
		<g>
			<path fill="#30A565" d="M529.093,549.62c0.211,0.107,0.427,0.197,0.641,0.304l68.33-43.864c-0.005-0.237,0.001-0.474-0.009-0.711&#10;&#9;&#9;&#9;&#9;c-14.524-7.479-32.526-7.235-47.264,2.224C536.056,517.034,528.34,533.301,529.093,549.62z"/>
		</g>
	</g>
</g>
<g>
	<g>
		<path d="M 1016.344009 335.438995 A 111.222 111.222 0 0 1 905.122009 446.660995 A 111.222 111.222 0 0 1 793.900009 335.438995 A 111.222 111.222 0 0 1 905.122009 224.216995 A 111.222 111.222 0 0 1 1016.344009 335.438995 Z" fill="#9ABC3C"/>
	</g>
	<g>
		<g>
			<g>
				<g>
					<g>
						<path d="M 869.896026 355.25 A 8.595 8.595 0 0 1 861.301025 363.845 A 8.595 8.595 0 0 1 852.706025 355.25 A 8.595 8.595 0 0 1 861.301025 346.655 A 8.595 8.595 0 0 1 869.896026 355.25 Z" fill="#2E1F1C"/>
					</g>
					<g>
						<path d="M 958.511016 355.25 A 8.595 8.595 0 0 1 949.916016 363.845 A 8.595 8.595 0 0 1 941.321015 355.25 A 8.595 8.595 0 0 1 949.916016 346.655 A 8.595 8.595 0 0 1 958.511016 355.25 Z" fill="#2E1F1C"/>
					</g>
				</g>
				<g>
					<path fill="#2E1F1C" d="M925.045,375.589c0,10.486-8.502,18.988-18.988,18.988l0,0c-10.488,0-18.99-8.502-18.99-18.988"/>
				</g>
			</g>
			<g>
				<g>
					<path d="M 970.110003 381.014008 A 14.769 8.138 0 0 1 955.341003 389.152007 A 14.769 8.138 0 0 1 940.572003 381.014008 A 14.769 8.138 0 0 1 955.341003 372.876008 A 14.769 8.138 0 0 1 970.110003 381.014008 Z" fill="#FF665A"/>
				</g>
				<g>
					<path d="M 870.644 381.014008 A 14.769 8.138 0 0 1 855.875 389.152007 A 14.769 8.138 0 0 1 841.106 381.014008 A 14.769 8.138 0 0 1 855.875 372.876008 A 14.769 8.138 0 0 1 870.644 381.014008 Z" fill="#FF665A"/>
				</g>
			</g>
		</g>
		<g>
			<g>
				<path d="M 970.110003 381.014008 A 14.769 8.138 0 0 1 955.341003 389.152007 A 14.769 8.138 0 0 1 940.572003 381.014008 A 14.769 8.138 0 0 1 955.341003 372.876008 A 14.769 8.138 0 0 1 970.110003 381.014008 Z" fill="#FF9A55"/>
			</g>
			<g>
				<path d="M 870.644 381.014008 A 14.769 8.138 0 0 1 855.875 389.152007 A 14.769 8.138 0 0 1 841.106 381.014008 A 14.769 8.138 0 0 1 855.875 372.876008 A 14.769 8.138 0 0 1 870.644 381.014008 Z" fill="#FF9A55"/>
			</g>
		</g>
	</g>
	<g>
		<g>
			<path fill="#3EBA79" d="M857.2,242.152c16.579,4.8,33.634,0.102,45.41-10.857l-77.995-22.583&#10;&#9;&#9;&#9;&#9;C828.717,224.269,840.622,237.353,857.2,242.152z"/>
		</g>
		<g>
			<path fill="#30A565" d="M824.423,208.031c0.058,0.229,0.133,0.452,0.192,0.682l77.995,22.583c0.175-0.161,0.357-0.31,0.528-0.474&#10;&#9;&#9;&#9;&#9;c-3.928-15.857-15.957-29.251-32.777-34.122C853.541,191.829,836.216,196.724,824.423,208.031z"/>
		</g>
	</g>
	<g>
		<path fill="#2E1F1C" d="M902,232v-32.963c0-1.207,2.003-2.185,4-2.185l0,0c1.997,0,4,0.978,4,2.185V232"/>
	</g>
	<g opacity="0.3">
		<path d="M 967.699013 278.834991 A 18.084999 18.084999 0 0 1 949.614014 296.919991 A 18.084999 18.084999 0 0 1 931.529015 278.834991 A 18.084999 18.084999 0 0 1 949.614014 260.749992 A 18.084999 18.084999 0 0 1 967.699013 278.834991 Z" fill="#FFFFFF"/>
	</g>
</g>
<g>
	<g>
		<path fill="#F9B03A" d="M1268,272.633v-33.728c0-36.876-30.048-65.905-66.924-65.905h-4.153&#10;&#9;&#9;&#9;c-36.878,0-66.923,29.029-66.923,65.905v35.149c-25,20.386-41.457,51.64-41.457,86.705c0,61.426,49.865,111.221,111.291,111.221&#10;&#9;&#9;&#9;s111.394-49.795,111.394-111.221C1311.228,324.869,1294,292.97,1268,272.633z"/>
	</g>
	<g>
		<g>
			<g>
				<g>
					<g>
						<path d="M 1164.678008 364.291992 A 8.595 8.595 0 0 1 1156.083008 372.886992 A 8.595 8.595 0 0 1 1147.488008 364.291992 A 8.595 8.595 0 0 1 1156.083008 355.696992 A 8.595 8.595 0 0 1 1164.678008 364.291992 Z" fill="#2E1F1C"/>
					</g>
					<g>
						<path d="M 1253.291998 364.291992 A 8.594 8.594 0 0 1 1244.697998 372.885992 A 8.594 8.594 0 0 1 1236.103998 364.291992 A 8.594 8.594 0 0 1 1244.697998 355.697992 A 8.594 8.594 0 0 1 1253.291998 364.291992 Z" fill="#2E1F1C"/>
					</g>
				</g>
				<g>
					<path fill="#2E1F1C" d="M1219.827,384.631c0,10.487-8.502,18.989-18.989,18.989l0,0c-10.487,0-18.989-8.502-18.989-18.989"/>
				</g>
			</g>
			<g>
				<g>
					<path d="M 1264.892047 390.057007 A 14.769 8.138 0 0 1 1250.123047 398.195006 A 14.769 8.138 0 0 1 1235.354047 390.057007 A 14.769 8.138 0 0 1 1250.123047 381.919007 A 14.769 8.138 0 0 1 1264.892047 390.057007 Z" fill="#FF665A"/>
				</g>
				<g>
					<path d="M 1165.426959 390.057007 A 14.769 8.138 0 0 1 1150.657959 398.195006 A 14.769 8.138 0 0 1 1135.888959 390.057007 A 14.769 8.138 0 0 1 1150.657959 381.919007 A 14.769 8.138 0 0 1 1165.426959 390.057007 Z" fill="#FF665A"/>
				</g>
			</g>
		</g>
		<g>
			<g>
				<path d="M 1264.892047 390.057007 A 14.769 8.138 0 0 1 1250.123047 398.195006 A 14.769 8.138 0 0 1 1235.354047 390.057007 A 14.769 8.138 0 0 1 1250.123047 381.919007 A 14.769 8.138 0 0 1 1264.892047 390.057007 Z" fill="#FF9A55"/>
			</g>
			<g>
				<path d="M 1165.426959 390.057007 A 14.769 8.138 0 0 1 1150.657959 398.195006 A 14.769 8.138 0 0 1 1135.888959 390.057007 A 14.769 8.138 0 0 1 1150.657959 381.919007 A 14.769 8.138 0 0 1 1165.426959 390.057007 Z" fill="#FF9A55"/>
			</g>
		</g>
	</g>
	<g>
		<g>
			<path fill="#3EBA79" d="M1148.365,184.281c16.578,4.8,33.634,0.101,45.411-10.857l-77.995-22.583&#10;&#9;&#9;&#9;&#9;C1119.882,166.398,1131.787,179.481,1148.365,184.281z"/>
		</g>
		<g>
			<path fill="#30A565" d="M1115.588,150.16c0.057,0.228,0.134,0.452,0.193,0.681l77.995,22.583c0.173-0.161,0.355-0.31,0.528-0.474&#10;&#9;&#9;&#9;&#9;c-3.929-15.858-15.957-29.252-32.779-34.123C1144.705,133.958,1127.381,138.853,1115.588,150.16z"/>
		</g>
	</g>
	<g>
		<path fill="#2E1F1C" d="M1194,174v-32.834c0-1.207,1.502-2.186,3.5-2.186l0,0c1.997,0,3.5,0.979,3.5,2.186V174"/>
	</g>
	<g opacity="0.3">
		<path d="M 1242.587051 230.005997 A 18.084 18.084 0 0 1 1224.503052 248.089996 A 18.084 18.084 0 0 1 1206.419052 230.005997 A 18.084 18.084 0 0 1 1224.503052 211.921997 A 18.084 18.084 0 0 1 1242.587051 230.005997 Z" fill="#FFFFFF"/>
	</g>
</g>
<g>
	<g>
		<path fill="#FFCA36" d="M1313.092,704.19c0-45.177-30.383-82.869-71.823-94.556c-3.559-11.58-14.335-19.635-27.083-19.635h-1.072&#10;&#9;&#9;&#9;c-12.926,0-23.807,8.298-27.211,20.127c-40.555,12.245-70.093,49.697-70.093,94.248c0,44.598,29.604,82.856,70.226,95.06&#10;&#9;&#9;&#9;c3.568,11.564,14.34,20.565,27.078,20.565h1.072c12.549,0,23.173-8.85,26.899-20.15&#10;&#9;&#9;&#9;C1282.618,788.223,1313.092,749.438,1313.092,704.19z"/>
	</g>
	<g>
		<g>
			<g>
				<g>
					<g>
						<path d="M 1179.144049 712.547974 A 8.594 8.594 0 0 1 1170.550049 721.141973 A 8.594 8.594 0 0 1 1161.956049 712.547974 A 8.594 8.594 0 0 1 1170.550049 703.953974 A 8.594 8.594 0 0 1 1179.144049 712.547974 Z" fill="#2E1F1C"/>
					</g>
					<g>
						<path d="M 1267.760015 712.547974 A 8.594 8.594 0 0 1 1259.166016 721.141973 A 8.594 8.594 0 0 1 1250.572016 712.547974 A 8.594 8.594 0 0 1 1259.166016 703.953974 A 8.594 8.594 0 0 1 1267.760015 712.547974 Z" fill="#2E1F1C"/>
					</g>
				</g>
				<g>
					<path fill="#2E1F1C" d="M1234.295,732.887c0,10.486-8.502,18.988-18.99,18.988l0,0c-10.486,0-18.988-8.502-18.988-18.988"/>
				</g>
			</g>
			<g>
				<g>
					<path d="M 1279.359942 738.312012 A 14.769 8.139 0 0 1 1264.590942 746.451012 A 14.769 8.139 0 0 1 1249.821942 738.312012 A 14.769 8.139 0 0 1 1264.590942 730.173012 A 14.769 8.139 0 0 1 1279.359942 738.312012 Z" fill="#FF665A"/>
				</g>
				<g>
					<path d="M 1179.894 738.312012 A 14.769 8.139 0 0 1 1165.125 746.451012 A 14.769 8.139 0 0 1 1150.356 738.312012 A 14.769 8.139 0 0 1 1165.125 730.173012 A 14.769 8.139 0 0 1 1179.894 738.312012 Z" fill="#FF665A"/>
				</g>
			</g>
		</g>
		<g>
			<g>
				<path d="M 1279.359942 738.312012 A 14.769 8.139 0 0 1 1264.590942 746.451012 A 14.769 8.139 0 0 1 1249.821942 738.312012 A 14.769 8.139 0 0 1 1264.590942 730.173012 A 14.769 8.139 0 0 1 1279.359942 738.312012 Z" fill="#FF9A55"/>
			</g>
			<g>
				<path d="M 1179.894 738.312012 A 14.769 8.139 0 0 1 1165.125 746.451012 A 14.769 8.139 0 0 1 1150.356 738.312012 A 14.769 8.139 0 0 1 1165.125 730.173012 A 14.769 8.139 0 0 1 1179.894 738.312012 Z" fill="#FF9A55"/>
			</g>
		</g>
	</g>
	<g>
		<g>
			<path fill="#3EBA79" d="M1164.643,601.259c16.577,4.8,33.633,0.102,45.408-10.857l-77.993-22.582&#10;&#9;&#9;&#9;&#9;C1136.158,583.376,1148.063,596.459,1164.643,601.259z"/>
		</g>
		<g>
			<path fill="#30A565" d="M1131.864,567.137c0.058,0.229,0.133,0.452,0.193,0.683l77.993,22.582&#10;&#9;&#9;&#9;&#9;c0.176-0.161,0.357-0.31,0.531-0.475c-3.929-15.857-15.959-29.251-32.779-34.122&#10;&#9;&#9;&#9;&#9;C1160.982,550.936,1143.657,555.831,1131.864,567.137z"/>
		</g>
	</g>
	<g>
		<path fill="#2E1F1C" d="M1210,592v-33.856c0-1.208,1.503-2.187,3.5-2.187l0,0c1.997,0,3.5,0.979,3.5,2.187V592"/>
	</g>
	<g opacity="0.3">
		<path d="M 1271.522964 654.218018 A 18.084 18.084 0 0 1 1253.438965 672.302017 A 18.084 18.084 0 0 1 1235.354965 654.218018 A 18.084 18.084 0 0 1 1253.438965 636.134018 A 18.084 18.084 0 0 1 1271.522964 654.218018 Z" fill="#FFFFFF"/>
	</g>
</g>
<g>
	<g>
		<g>
			<path d="M 1032.618973 707.567993 A 111.222 111.222 0 0 1 921.396973 818.789993 A 111.222 111.222 0 0 1 810.174973 707.567993 A 111.222 111.222 0 0 1 921.396973 596.345993 A 111.222 111.222 0 0 1 1032.618973 707.567993 Z" fill="#F27E30"/>
		</g>
		<g>
			<g>
				<g>
					<g>
						<g>
							<path d="M 886.173003 712.909973 A 8.595 8.595 0 0 1 877.578003 721.504973 A 8.595 8.595 0 0 1 868.983003 712.909973 A 8.595 8.595 0 0 1 877.578003 704.314973 A 8.595 8.595 0 0 1 886.173003 712.909973 Z" fill="#2E1F1C"/>
						</g>
						<g>
							<path d="M 974.787993 712.909973 A 8.595 8.595 0 0 1 966.192993 721.504973 A 8.595 8.595 0 0 1 957.597993 712.909973 A 8.595 8.595 0 0 1 966.192993 704.314973 A 8.595 8.595 0 0 1 974.787993 712.909973 Z" fill="#2E1F1C"/>
						</g>
					</g>
					<g>
						<path fill="#2E1F1C" d="M941.321,733.248c0,10.488-8.502,18.99-18.989,18.99l0,0c-10.486,0-18.988-8.502-18.988-18.99"/>
					</g>
				</g>
				<g>
					<g>
						<path d="M 986.387981 738.674011 A 14.77 8.138 0 0 1 971.617981 746.812011 A 14.77 8.138 0 0 1 956.84798 738.674011 A 14.77 8.138 0 0 1 971.617981 730.536012 A 14.77 8.138 0 0 1 986.387981 738.674011 Z" fill="#FF665A"/>
					</g>
					<g>
						<path d="M 886.921978 738.674011 A 14.77 8.138 0 0 1 872.151978 746.812011 A 14.77 8.138 0 0 1 857.381977 738.674011 A 14.77 8.138 0 0 1 872.151978 730.536012 A 14.77 8.138 0 0 1 886.921978 738.674011 Z" fill="#FF665A"/>
					</g>
				</g>
			</g>
			<g>
				<g>
					<path d="M 986.387981 738.674011 A 14.77 8.138 0 0 1 971.617981 746.812011 A 14.77 8.138 0 0 1 956.84798 738.674011 A 14.77 8.138 0 0 1 971.617981 730.536012 A 14.77 8.138 0 0 1 986.387981 738.674011 Z" fill="#FF9A55"/>
				</g>
				<g>
					<path d="M 886.921978 738.674011 A 14.77 8.138 0 0 1 872.151978 746.812011 A 14.77 8.138 0 0 1 857.381977 738.674011 A 14.77 8.138 0 0 1 872.151978 730.536012 A 14.77 8.138 0 0 1 886.921978 738.674011 Z" fill="#FF9A55"/>
				</g>
			</g>
		</g>
		<g>
			<g>
				<path fill="#3EBA79" d="M877.094,608.854c16.578,4.8,33.634,0.102,45.41-10.856l-77.994-22.584&#10;&#9;&#9;&#9;&#9;&#9;C848.61,590.971,860.516,604.056,877.094,608.854z"/>
			</g>
			<g>
				<path fill="#30A565" d="M844.316,574.733c0.057,0.229,0.133,0.451,0.193,0.681l77.994,22.584&#10;&#9;&#9;&#9;&#9;&#9;c0.174-0.162,0.356-0.311,0.53-0.475c-3.929-15.857-15.959-29.252-32.779-34.123&#10;&#9;&#9;&#9;&#9;&#9;C873.435,558.531,856.109,563.427,844.316,574.733z"/>
			</g>
		</g>
		<g>
			<path fill="#2E1F1C" d="M923,598v-32.261c0-1.207,1.002-2.186,3-2.186l0,0c1.998,0,3,0.979,3,2.186V598"/>
		</g>
	</g>
	<g opacity="0.3">
		<path d="M 983.974991 649.153992 A 18.084 18.084 0 0 1 965.890991 667.237991 A 18.084 18.084 0 0 1 947.806992 649.153992 A 18.084 18.084 0 0 1 965.890991 631.069992 A 18.084 18.084 0 0 1 983.974991 649.153992 Z" fill="#FFFFFF"/>
	</g>
</g>
<g>
	<g>
		<g>
			<path fill="#FFCA36" d="M367.929,742.643c-13.101,4.126-27.041,6.361-41.505,6.361c-76.252,0-138.066-61.813-138.066-138.066&#10;&#9;&#9;&#9;&#9;c0-41.345,18.19-78.428,46.987-103.729c-3.5-6.175-7.423-10.518-11.328-13.538c-63.6,19.187-109.919,78.22-109.919,148.077&#10;&#9;&#9;&#9;&#9;c0,85.414,69.242,154.655,154.656,154.655c39.195,0,74.979-14.584,102.233-38.618C371.436,752.5,370.116,747.355,367.929,742.643&#10;&#9;&#9;&#9;&#9;z"/>
		</g>
	</g>
	<g>
		<path fill="#2E1F1C" d="M203.915,501.774l21.056-13.041c6.175-3.824,14.428-1.685,18.252,4.492l0,0&#10;&#9;&#9;&#9;c3.826,6.177,2.065,14.518-4.11,18.344l-21.055,13.041"/>
	</g>
	<g>
		<path fill="#2E1F1C" d="M368.357,740.967c1.916-0.865,4.169-0.017,5.036,1.898l4.567,10.098c0.866,1.916,0.016,4.169-1.899,5.034&#10;&#9;&#9;&#9;l-8.962,4.054c-1.914,0.866-4.168,0.017-5.035-1.897l-4.565-10.098c-0.868-1.915-0.018-4.168,1.898-5.033L368.357,740.967z"/>
	</g>
	<g>
		<g>
			<g>
				<g>
					<g>
						<path d="M 152.850002 693.703003 A 5.464 5.464 0 0 1 147.386002 699.167003 A 5.464 5.464 0 0 1 141.922001 693.703003 A 5.464 5.464 0 0 1 147.386002 688.239003 A 5.464 5.464 0 0 1 152.850002 693.703003 Z" fill="#2E1F1C"/>
					</g>
					<g>
						<path d="M 209.191005 693.703003 A 5.464 5.464 0 0 1 203.727005 699.167003 A 5.464 5.464 0 0 1 198.263005 693.703003 A 5.464 5.464 0 0 1 203.727005 688.239003 A 5.464 5.464 0 0 1 209.191005 693.703003 Z" fill="#2E1F1C"/>
					</g>
				</g>
				<g>
					<path fill="#2E1F1C" d="M187.915,706.635c0,6.667-5.406,12.073-12.073,12.073l0,0c-6.668,0-12.073-5.406-12.073-12.073"/>
				</g>
			</g>
			<g>
				<g>
					<path d="M 216.567002 710.083984 A 9.39 5.173 0 0 1 207.177002 715.256984 A 9.39 5.173 0 0 1 197.787002 710.083984 A 9.39 5.173 0 0 1 207.177002 704.910985 A 9.39 5.173 0 0 1 216.567002 710.083984 Z" fill="#FF665A"/>
				</g>
				<g>
					<path d="M 153.326997 710.083984 A 9.39 5.173 0 0 1 143.936996 715.256984 A 9.39 5.173 0 0 1 134.546996 710.083984 A 9.39 5.173 0 0 1 143.936996 704.910985 A 9.39 5.173 0 0 1 153.326997 710.083984 Z" fill="#FF665A"/>
				</g>
			</g>
		</g>
		<g>
			<g>
				<path d="M 216.567002 710.083984 A 9.39 5.173 0 0 1 207.177002 715.256984 A 9.39 5.173 0 0 1 197.787002 710.083984 A 9.39 5.173 0 0 1 207.177002 704.910985 A 9.39 5.173 0 0 1 216.567002 710.083984 Z" fill="#FF9A55"/>
			</g>
			<g>
				<path d="M 153.326997 710.083984 A 9.39 5.173 0 0 1 143.936996 715.256984 A 9.39 5.173 0 0 1 134.546996 710.083984 A 9.39 5.173 0 0 1 143.936996 704.910985 A 9.39 5.173 0 0 1 153.326997 710.083984 Z" fill="#FF9A55"/>
			</g>
		</g>
	</g>
	<g opacity="0.3">
		<path d="M 163.279004 653.307007 A 15.8 15.8 0 0 1 147.479004 669.107007 A 15.8 15.8 0 0 1 131.679004 653.307007 A 15.8 15.8 0 0 1 147.479004 637.507007 A 15.8 15.8 0 0 1 163.279004 653.307007 Z" fill="#FFFFFF"/>
	</g>
</g>
</svg>