<?xml version="1.0" encoding="utf-8"?>
<svg id="master-artboard" viewBox="0 0 1400 980" version="1.1" xmlns="http://www.w3.org/2000/svg" x="0px" y="0px" style="enable-background:new 0 0 1400 980;" width="1400px" height="980px"><rect id="ee-background" x="0" y="0" width="1400" height="980" style="fill: white; fill-opacity: 0; pointer-events: none;"/>

<path d="M -23.299999 -38.200001 H 1479.899952 V 1011.899975 H -23.299999 V -38.200001 Z" class="st0" style="fill: rgb(198, 242, 244);"/>
<path class="st1" d="M461.2,410c-3.8-2.4-8.4-3.7-13-3c-6.2,0.9-11.2,4.2-14.8,8.7c-9.9,3.9-20,7.3-30.1,10.3&#10;&#9;c-2.8-1.4-5.9-2.2-9-2.3c-7.9-0.2-14,3.5-17.7,9.1c-9.3,2-18.7,3.7-28.1,5c-7.7-5.3-17.6-4.6-23.7,2.5c-12.1,0.9-24.3,1.2-36.5,0.9&#10;&#9;c-3.5-3-7.8-5.1-12.9-5.9c-6.4-1-11.6,0.7-15.6,4.1c-11.9-1.2-23.8-2.9-35.5-5.3c-4.1-5.8-9.9-10.4-17-11.3&#10;&#9;c-5.6-0.7-10.4,0.8-14.4,3.7c-12-3.5-23.8-7.5-35.5-12.2c-2.4-6.1-6.9-11-14.2-12.7c-10.8-2.4-20.9,3.2-26.5,11.9&#10;&#9;c-8.5,3.5-15.8,9.5-20.6,17.7l0,0c-11.5,19.9,0.7,48.4,28.6,59.7c110.6,44.9,234.5,44.9,345,0c27.9-11.3,40.1-39.8,28.6-59.7l0,0&#10;&#9;C490.5,418.1,476.3,410.8,461.2,410z M144.9,765.8c-1.2-0.1-2.4-0.1-3.6-0.1c-45.9,0-83.1,37.2-83.1,83.1&#10;&#9;c0,45.9,37.2,83.1,83.1,83.1c1.2,0,2.4,0,3.6-0.1c44.2-1.9,79.5-38.3,79.5-83S189.1,767.7,144.9,765.8z M498.2,266.9L498.2,266.9&#10;&#9;c-7.7-13.3-21.9-20.6-37-21.4c-3.8-2.4-8.4-3.7-13-3c-6.2,0.9-11.2,4.2-14.8,8.7c-9.9,3.9-20,7.3-30.1,10.3c-2.8-1.4-5.9-2.2-9-2.3&#10;&#9;c-7.9-0.2-14,3.5-17.7,9.1c-9.3,2-18.7,3.7-28.1,5c-7.7-5.3-17.6-4.6-23.7,2.5c-12.1,0.9-24.3,1.2-36.5,0.9c-3.5-3-7.8-5.1-12.9-5.9&#10;&#9;c-6.4-1-11.6,0.7-15.6,4.1c-11.9-1.2-23.8-2.9-35.5-5.3c-4.1-5.8-9.9-10.4-17-11.3c-5.6-0.7-10.4,0.8-14.4,3.7&#10;&#9;c-12-3.5-23.8-7.5-35.5-12.2c-2.4-6.1-6.9-11-14.2-12.7c-10.8-2.4-20.9,3.2-26.5,11.9c-8.5,3.5-15.8,9.5-20.6,17.7l0,0&#10;&#9;c-11.5,19.9,0.7,48.4,28.6,59.7c110.6,44.9,234.5,44.9,345,0C497.6,315.3,509.8,286.8,498.2,266.9z M969.2,552.5h28.1&#10;&#9;c54.7,0,99-44.3,99-99V161.6c0-54.7-44.3-99-99-99h-28.1c-54.7,0-99,44.3-99,99v291.9C870.2,508.2,914.5,552.5,969.2,552.5z&#10;&#9; M328.1,782.5h-0.3c-36.5,0.2-66,29.8-66,66.3c0,36.5,29.5,66.2,66,66.3h0.3c36.6,0,66.3-29.7,66.3-66.3S364.7,782.5,328.1,782.5z&#10;&#9; M70.6,118.4c1.9,0.8,3.9,1.5,5.8,2c-3.6,3.1-7.1,7.3-5.4,11.8c2.5,6.8,10.2,3.9,14.9,2c2.3-0.9,4.5-1.8,6.8-2.7&#10;&#9;c2.6,14.9,14.1,29.7,32.3,37.1c110.6,44.9,234.5,44.9,345,0c19.3-7.8,31.1-23.9,32.7-39.6c2.4,0.2,4.8,0.1,7.3-0.2&#10;&#9;c5.7-0.7,13.6-2.8,15.3-9.3c1.3-4.9-0.5-7.8-3.7-9.5c1.8-2.3,2.5-5,0.9-8.1c-3.1-5.5-10.6-4.5-15.9-3.6c-0.2,0-0.4,0.1-0.6,0.1&#10;&#9;c2.3-4.9,3.5-10.4,3.4-16c-0.1-3.1-3.9-6.1-6.9-3.9c-6.6,5-11.7,11.1-15.1,18.1c-13.3-9.8-32.3-11.8-48.8-5.2&#10;&#9;C348.4,128,247,128,156.5,91.3c-18.5-7.4-40-4.1-53.3,9c-2.2-3.8-4.4-7.6-7.1-11c-3.3-4.2-8.7-5.5-13-2c-4.5,3.6-5.2,9.7-2.5,14.6&#10;&#9;c0.7,1.2,1.6,2.3,2.6,3.3c-4.8,0.6-9.5,2.7-13.5,6C67.6,113,68.1,117.3,70.6,118.4z M87,123.9c1.4-0.9,2.8-1.6,4.3-2.2&#10;&#9;c0.4,0,0.8-0.1,1.2-0.2c0,0.1,0,0.2,0,0.4c-2,0.8-3.9,1.6-5.9,2.3C86.7,124.1,86.9,124,87,123.9z M1255.4,862.6&#10;&#9;c-3.6-3.2-9.7-3.2-13.2,0.1c4.2-5.1,8.4-10.4,10.2-16.8c1.8-6.3,0.6-14-4.8-18c-6.4-4.7-14.1-2.3-20.7,2.5c-0.1-0.3-0.3-0.6-0.4-0.9&#10;&#9;c0,0,0,0,0,0c-7.4-16.4-19.9-29.9-35.5-38.7c0,0,0,0,0,0c-3.2-1.8-6.5-3.4-10-4.8h0c-9.6-3.8-20.1-5.9-31-5.9H805.5&#10;&#9;c-11.2,0-21.9,2.2-31.7,6.2c-1.4,0.6-2.8,1.2-4.2,1.9c-1.4,0.7-2.8,1.4-4.1,2.1c0,0,0,0,0,0c-7.1,3.9-13.6,8.7-19.3,14.4&#10;&#9;c-3.2,3.2-6.1,6.7-8.8,10.3c0,0,0,0,0,0c-1.9,2.6-3.6,5.3-5.1,8.1c-1.9,3.4-3.6,7-5.1,10.7c-7.2-6.9-17-11.6-24.7-5.9&#10;&#9;c-5.3,3.9-6.6,11.6-4.8,18c1.8,6.3,6.1,11.7,10.2,16.8c-3.5-3.3-9.6-3.3-13.2-0.1c-1.2,1.1-2.1,2.6-2.6,4.2c-0.9,3-0.5,6.4,1.4,9&#10;&#9;c2.1,2.8,5.8,4.2,9.3,3.7c-3.6,2.2-5.9,6.5-5.6,10.7c0.3,5.6,4.6,10.5,9.8,12.4c5.2,1.9,11.2,1.2,16.3-1.3c2-0.9,3.8-2.1,5.5-3.5&#10;&#9;c0.9,2,1.9,4.1,2.9,6c4.6,8.5,10.5,16.1,17.6,22.5c2.3,2.1,4.7,4,7.2,5.8c10.7,7.8,23.3,13,37,15c0.8,0.1,1.7,0.2,2.6,0.3&#10;&#9;c3.2,0.4,6.4,0.6,9.7,0.6H1150c1.2,0,2.3,0,3.5-0.1c1.9-0.1,3.9-0.2,5.8-0.4c1.8-0.2,3.7-0.5,5.5-0.8c13.9-2.5,26.6-8.3,37.2-16.7&#10;&#9;c0,0,0,0,0,0c2.4-1.9,4.7-3.9,6.8-6c0.2-0.2,0.4-0.4,0.6-0.6c6.6-6.6,12.1-14.3,16.2-22.8c0.4,0.2,0.8,0.4,1.2,0.6&#10;&#9;c5,2.4,11,3.2,16.3,1.3c5.2-1.9,9.5-6.8,9.9-12.4c0.3-4.2-2.1-8.5-5.6-10.7c3.4,0.4,7.2-0.9,9.3-3.7c1.9-2.5,2.3-6,1.4-9&#10;&#9;C1257.6,865.2,1256.7,863.8,1255.4,862.6z M1313.4,670.8c2.5-1,5.1-2.1,7.1-3.9c1.7-1.5,3-3.5,3.5-5.7c0.2-0.8,0.2-1.7,0-2.6&#10;&#9;c-0.8-4.4-5.9-7-10.3-6.6c-3.5,0.3-6.7,1.9-9.7,3.8c3.5-2.3,6.8-4.9,8.9-8.4c2.6-4.4,2.6-10.8-1.4-13.9c-5.8-4.7-13.1-0.1-18.5,5.4&#10;&#9;c-6.4-22.5-27.1-39-51.7-39h-107.8c-27.4,0-50,20.5-53.3,47h-7.7c-3.3-26.5-25.9-47-53.3-47H911.5c-27.4,0-50,20.5-53.3,47h-3.9&#10;&#9;c-3.3-26.5-25.9-47-53.3-47H693.2c-21.1,0-39.4,12.2-48.2,29.9c-3.7-3.2-8.3-5.5-13.2-6.4c-23.4-4.1-5.3,16.2-3.9,25.3&#10;&#9;c-3.4-2.5-8.2-3.2-11.8-0.6c-3.5,2.6-4.7,7.9-2.6,11.7c0.3,0.5,0.6,0.9,0.9,1.3c2.4,2.9,6.8,4.2,10.4,2.8c-3.7,1.6-7.5,3.4-10,6.6&#10;&#9;c-4.5,6-0.8,11.9,5.9,12.4c5.5,0.4,14-5.5,18.9-9c2.6,27.2,25.5,48.5,53.4,48.5H801c29.7,0,53.7-24,53.7-53.7h3.1&#10;&#9;c0,29.7,24,53.7,53.7,53.7h107.8c29.7,0,53.7-24,53.7-53.7h6.9c0,29.7,24,53.7,53.7,53.7h107.8c25.7,0,47.1-18,52.4-42&#10;&#9;c2.3,3,4.9,5.6,8.2,7.6c4.4,2.6,10.1,3.7,14.8,1.7c4.8-1.9,8.3-7.2,7.3-12.3C1323.1,673,1317.8,669.5,1313.4,670.8z M1274.2,62.6&#10;&#9;h-28.1c-54.7,0-99,44.3-99,99v291.9c0,54.7,44.3,99,99,99h16.1v0.1c1.1,0,2.3-0.1,3.4-0.1h8.6c54.7,0,99-44.3,99-99V161.6&#10;&#9;C1373.2,106.9,1328.9,62.6,1274.2,62.6z M482.8,799.1c-27.5,0-49.8,22.3-49.8,49.8c0,27.5,22.3,49.8,49.8,49.8&#10;&#9;c27.5,0,49.8-22.3,49.8-49.8C532.6,821.3,510.3,799.1,482.8,799.1z M706.3,552.5c0.7,0,1.3,0,2,0c61.5-1.1,111-51.3,111-113V175.7&#10;&#9;c0-31.2-12.7-59.5-33.1-80c-20-20-47.5-32.6-77.9-33.1c-0.7,0-1.3,0-2,0c-62.4,0-113.1,50.6-113.1,113.1v263.7&#10;&#9;C593.2,501.9,643.9,552.5,706.3,552.5z M441.8,643.3c-0.6-42.6-19-76.8-41.7-76.8H205.1c-21.8,0-41.6,8.8-55.9,23.1&#10;&#9;c-6,6-11.1,13.1-14.9,20.8c-2.3-4.3-4.6-8.8-8.6-12.2c-7.2-6.1-18.2-8.7-26.1-3.6c-8.1,5.3-10.1,16.9-7,26.1&#10;&#9;c2.9,8.7,9.3,15.8,15.6,22.6h-0.6c-4.5-2.6-10.4-2.5-14.9,0c-1,0.6-2,1.3-2.9,2.1c-5,4.9-5.7,13.6-1.5,19.2&#10;&#9;c3.3,4.4,9.2,6.5,14.6,5.5c-6.2,3.1-10.5,9.9-10.3,16.8c0.2,8.5,7.1,16.4,15.5,17.6c7.8,1.2,15.5-2.7,21.7-7.6&#10;&#9;c3.3-2.5,6.3-5.4,9-8.4c14.1,21.6,38.5,35.8,66.1,35.8h195.1c23,0,41.7-35.4,41.7-79C441.8,644.8,441.8,644.1,441.8,643.3z" style="opacity: 0.22; fill: rgb(44, 40, 93);"/>
<g>
	<path class="st2" d="M506.6,88.4c1.8-2.3,2.5-5,0.9-8.1c-3.1-5.5-10.6-4.5-15.9-3.6c-0.2,0-0.4,0.1-0.6,0.1&#10;&#9;&#9;c2.3-4.9,3.5-10.4,3.4-16c-0.1-3.1-3.9-6.1-6.9-3.9c-10.1,7.6-16.6,17.9-19.1,30c-0.9,1.2-1,2.6-0.6,3.8c0,0.2-0.1,0.3-0.1,0.5&#10;&#9;&#9;c-0.4,3.7,3.1,5,6,4c0,0.1,0,0.1,0,0.2c-3.1,1.4-4.5,6.1-0.6,7.9c6.9,3.3,14.2,4.8,21.9,3.8c5.7-0.7,13.6-2.8,15.3-9.3&#10;&#9;&#9;C511.5,93,509.8,90,506.6,88.4z M95.9,92.9c-2.7,1.1-5.4,2.1-8,3.2c0.3-0.4,0.5-0.9,0.7-1.4c3.2,0.3,6.7-3.1,4.6-6.8&#10;&#9;&#9;c-3.9-6.6-7.5-14.1-12.2-20.1c-3.3-4.2-8.7-5.5-13-2c-4.5,3.6-5.2,9.7-2.5,14.6c0.7,1.2,1.6,2.3,2.6,3.3c-4.8,0.6-9.5,2.7-13.5,6&#10;&#9;&#9;c-2.1,1.7-1.7,6.1,0.9,7.2c1.9,0.8,3.9,1.5,5.8,2c-3.6,3.1-7.1,7.3-5.4,11.8c2.5,6.8,10.2,3.9,14.9,2c9.2-3.6,18.4-7.3,27.6-10.9&#10;&#9;&#9;C103.8,99.5,101.4,90.7,95.9,92.9z M71.4,102.6c0.1-0.1,0.3-0.2,0.4-0.3c1.4-0.9,2.8-1.6,4.3-2.2c0.8-0.1,1.7-0.2,2.5-0.4&#10;&#9;&#9;C76.2,100.7,73.8,101.7,71.4,102.6z" style="fill: rgb(179, 48, 38);"/>
	<path class="st3" d="M141.3,69.7c90.5,36.7,191.9,36.7,282.4,0c22-8.8,48.4-2.4,59.9,17.6l0,0c11.5,19.9-0.7,48.4-28.6,59.7&#10;&#9;&#9;c-110.6,44.9-234.5,44.9-345,0C82,135.7,69.9,107.2,81.4,87.3l0,0C92.9,67.3,119.3,60.9,141.3,69.7z" style="fill: rgb(255, 97, 50);"/>
	<g>
		<path class="st4" d="M139.6,84.2c-12.9,12.5-18.1,30.7-14.1,48.1c1.3,5.7,10.1,3.3,8.8-2.4c-3.3-14.3,1.3-29,11.8-39.2&#10;&#9;&#9;&#9;C150.3,86.5,143.8,80.1,139.6,84.2z" style="fill: rgb(116, 16, 18);"/>
		<path class="st4" d="M170.7,95.8c-13.7,11.4-19.7,29.5-16.1,46.9c1.2,5.8,10,3.3,8.8-2.4c-2.9-14.3,2.6-28.7,13.8-38&#10;&#9;&#9;&#9;C181.6,98.5,175.2,92.1,170.7,95.8z" style="fill: rgb(116, 16, 18);"/>
		<path class="st4" d="M211.7,104.9c-13.1,12.9-16.4,32.6-8.8,49.2c2.4,5.3,10.3,0.7,7.9-4.6c-5.9-12.9-2.6-28.3,7.4-38.2&#10;&#9;&#9;&#9;C222.4,107.3,215.9,100.8,211.7,104.9z" style="fill: rgb(116, 16, 18);"/>
		<path class="st4" d="M246.3,109.8c-11.9,13.2-14.1,32.8-4.9,48.1c3,5,10.9,0.5,7.9-4.6c-7-11.7-5.7-26.8,3.5-37&#10;&#9;&#9;&#9;C256.7,111.9,250.2,105.4,246.3,109.8z" style="fill: rgb(116, 16, 18);"/>
		<path class="st4" d="M294.9,154.5c-8.5-12.6-8.6-28.7-0.1-41.3c3.3-4.9-4.6-9.5-7.9-4.6c-10.2,15.1-10.1,35.5,0.1,50.5&#10;&#9;&#9;&#9;C290.3,163.9,298.2,159.3,294.9,154.5z" style="fill: rgb(116, 16, 18);"/>
		<path class="st4" d="M333,153c-8.7-11.4-9.7-26.7-2-39c3.1-5-4.8-9.6-7.9-4.6c-9.2,14.7-8.6,34.3,2,48.2&#10;&#9;&#9;&#9;C328.6,162.3,336.5,157.7,333,153z" style="fill: rgb(116, 16, 18);"/>
		<path class="st4" d="M383.4,138.6c-7.7-9.3-11.3-21.6-9.7-33.6c0.8-5.7-8-8.2-8.8-2.4c-2.1,15.6,2,30.4,12,42.5&#10;&#9;&#9;&#9;C380.7,149.6,387.1,143.1,383.4,138.6z" style="fill: rgb(116, 16, 18);"/>
		<path class="st4" d="M425,131.3c-11.1-8.8-15.8-23.1-11.6-36.7c1.7-5.6-7.1-8-8.8-2.4c-5,16.4,0.5,34.9,14,45.6&#10;&#9;&#9;&#9;C423.1,141.4,429.6,135,425,131.3z" style="fill: rgb(116, 16, 18);"/>
		<path class="st4" d="M454.6,117.7c-9.5-9.5-13.7-22.3-12-35.7c0.7-5.8-8.4-5.8-9.1,0c-1.9,15.6,3.6,31.1,14.7,42.1&#10;&#9;&#9;&#9;C452.3,128.4,458.8,121.9,454.6,117.7z" style="fill: rgb(116, 16, 18);"/>
	</g>
</g>
<g>
	<path class="st3" d="M140.7,227.7c90.5,36.7,191.9,36.7,282.4,0c22-8.8,48.4-2.4,59.9,17.6l0,0c11.5,19.9-0.7,48.4-28.6,59.7&#10;&#9;&#9;c-110.6,44.9-234.5,44.9-345,0c-27.9-11.3-40.1-39.8-28.6-59.7l0,0C92.4,225.3,118.7,218.9,140.7,227.7z" style="fill: rgb(255, 97, 50);"/>
	<g>
		<path class="st4" d="M139,242.2c-12.9,12.5-18.1,30.7-14.1,48.1c1.3,5.7,10.1,3.3,8.8-2.4c-3.3-14.3,1.3-29,11.8-39.2&#10;&#9;&#9;&#9;C149.7,244.5,143.2,238.1,139,242.2z" style="fill: rgb(116, 16, 18);"/>
		<path class="st4" d="M170.1,253.8c-13.7,11.4-19.7,29.5-16.1,46.9c1.2,5.8,10,3.3,8.8-2.4c-2.9-14.3,2.6-28.7,13.8-38&#10;&#9;&#9;&#9;C181.1,256.5,174.6,250.1,170.1,253.8z" style="fill: rgb(116, 16, 18);"/>
		<path class="st4" d="M211.1,262.9c-13.1,12.9-16.4,32.6-8.8,49.2c2.4,5.3,10.3,0.7,7.9-4.6c-5.9-12.9-2.6-28.3,7.4-38.2&#10;&#9;&#9;&#9;C221.8,265.2,215.3,258.8,211.1,262.9z" style="fill: rgb(116, 16, 18);"/>
		<path class="st4" d="M245.7,267.8c-11.9,13.2-14.1,32.8-4.9,48.1c3,5,10.9,0.5,7.9-4.6c-7-11.7-5.7-26.8,3.5-37&#10;&#9;&#9;&#9;C256.1,269.9,249.7,263.4,245.7,267.8z" style="fill: rgb(116, 16, 18);"/>
		<path class="st4" d="M294.3,312.4c-8.5-12.6-8.6-28.7-0.1-41.3c3.3-4.9-4.6-9.5-7.9-4.6c-10.2,15.1-10.1,35.5,0.1,50.5&#10;&#9;&#9;&#9;C289.7,321.9,297.6,317.3,294.3,312.4z" style="fill: rgb(116, 16, 18);"/>
		<path class="st4" d="M332.4,311c-8.7-11.4-9.7-26.7-2-39c3.1-5-4.8-9.6-7.9-4.6c-9.2,14.7-8.6,34.3,2,48.2&#10;&#9;&#9;&#9;C328,320.3,336,315.7,332.4,311z" style="fill: rgb(116, 16, 18);"/>
		<path class="st4" d="M382.9,296.6c-7.7-9.3-11.3-21.6-9.7-33.6c0.8-5.7-8-8.2-8.8-2.4c-2.1,15.6,2,30.4,12,42.5&#10;&#9;&#9;&#9;C380.1,307.6,386.6,301.1,382.9,296.6z" style="fill: rgb(116, 16, 18);"/>
		<path class="st4" d="M424.5,289.3c-11.1-8.8-15.8-23.1-11.6-36.7c1.7-5.6-7.1-8-8.8-2.4c-5,16.4,0.5,34.9,14,45.6&#10;&#9;&#9;&#9;C422.6,299.4,429.1,293,424.5,289.3z" style="fill: rgb(116, 16, 18);"/>
		<path class="st4" d="M454.1,275.7c-9.5-9.5-13.7-22.3-12-35.7c0.7-5.8-8.4-5.8-9.1,0c-1.9,15.6,3.6,31.1,14.7,42.1&#10;&#9;&#9;&#9;C451.8,286.3,458.2,279.9,454.1,275.7z" style="fill: rgb(116, 16, 18);"/>
	</g>
	<path class="st5" d="M433,220.9c-14.9,2.2-22.3,17.9-22.3,31.5c0,4.3,0.6,8.6,1.4,12.9c0.7,4,2.6,8.8,2.2,12.9&#10;&#9;&#9;c-0.5,5-5.3,5.4-8.6,2.4c-3.2-2.9-3.9-7.9-4.3-12c-0.8-7.7-0.8-15.7-5.6-22.2c-3.8-5.2-10.2-8.6-16.7-8.8&#10;&#9;&#9;c-15.7-0.5-24.2,14.9-21,28.8c1.7,7.4,6.6,14.4,6.5,22.1c-0.1,5.5-3.4,14.7-10.3,9.7c-6.8-5-7.1-16.4-8.5-23.9&#10;&#9;&#9;c-1.4-7.2-3.7-13.9-8.7-19.4c-9-9.8-23.9-9.2-30.1,3.2c-2.9,5.7-3.5,12.2-2.7,18.5c1,8.1,4.9,17.9,1.4,25.8c-1.3,3-4,6.2-7.3,6.9&#10;&#9;&#9;c-4.7,1-7-3.9-8.2-7.6c-2.3-7.6-2.5-15.8-4.2-23.6c-3-13.4-11.1-26.6-25.7-28.9c-14.4-2.3-23.1,9.5-24.3,22.6&#10;&#9;&#9;c-0.8,8.6,1.9,17,1.7,25.6c-0.1,6.1-4.8,19.3-13.6,15.3c-7.7-3.5-7.7-17.2-7.7-24.3c0-8.3,0.7-16.6-0.8-24.8&#10;&#9;&#9;c-2.2-11.8-10.6-25.1-23.5-26.8c-14.5-1.9-23.8,11.5-27.3,23.8c-2.3,8.2-2.8,17.7-7.6,25c-4,6.1-12.9,11.3-18.8,4.4&#10;&#9;&#9;c-10.8-12.7,3.2-31.2,5.3-44.5c2-12.3-2.2-26.8-15.8-29.9c-13.3-3-25.6,6.2-29.6,18.6c-2.2,6.8-1.9,14-0.6,21&#10;&#9;&#9;c1.1,5.8,9.9,3.3,8.8-2.4c-1.4-7-1.1-14.9,2.9-21.1c3.9-5.9,12.4-9.7,19.1-6.2c14.7,7.6,2,30.5-1.1,41c-3.3,11.1-2.8,25.3,7.5,32.7&#10;&#9;&#9;c11.2,8.1,25.1,0.4,31.1-10.3c6.9-12.2,4.1-34.6,18.3-41.8c14.1-7.2,22.4,13.5,23,24.1c0.8,14.5-3.1,32.7,6.9,45.1&#10;&#9;&#9;c8.7,10.7,23.2,6,29.3-4.8c7.9-14-1.9-29.5,2.4-44c2.1-7.2,8.1-11,15.4-8.5c7.8,2.7,12.3,9.6,14.6,17.2&#10;&#9;&#9;c3.6,12.1,1.3,31.1,12.5,39.6c10.3,7.8,22.9-1,26.4-11.6c4.5-13.7-7.6-30.6,1.1-43.1c4.9-7.1,12.7-2.8,16.6,2.9&#10;&#9;&#9;c4.7,6.8,4.7,15.7,6.4,23.5c2.4,10.7,11,26.2,24.4,20.5c10.5-4.5,11.9-18.7,9-28.3c-2.5-8.1-9.2-18.3-4.3-26.7&#10;&#9;&#9;c5-8.5,17.6-7.8,21.8,1.1c3.5,7.5,1.6,16.6,4.3,24.5c2.2,6.6,7.1,12,14.2,13.1c6.5,1,12.7-2.4,14.6-8.9c2.3-8.3-2.2-17.7-2.8-25.9&#10;&#9;&#9;c-0.7-8.9,0.9-19.4,9-24.7c6.8-4.4,19-0.1,16.2,9.3c-1.7,5.6,7.1,8.1,8.8,2.4C457.8,231.2,445.5,219.1,433,220.9z" style="fill: rgb(255, 215, 46);"/>
</g>
<g>
	<path class="st6" d="M140.7,392.2c90.5,36.7,191.9,36.7,282.4,0c22-8.8,48.4-2.4,59.9,17.6l0,0c11.5,19.9-0.7,48.4-28.6,59.7&#10;&#9;&#9;c-110.6,44.9-234.5,44.9-345,0c-27.9-11.3-40.1-39.8-28.6-59.7l0,0C92.4,389.8,118.7,383.3,140.7,392.2z" style="fill: rgb(244, 124, 108);"/>
	<g>
		<path class="st7" d="M139,406.6c-12.9,12.5-18.1,30.7-14.1,48.1c1.3,5.7,10.1,3.3,8.8-2.4c-3.3-14.3,1.3-29,11.8-39.2&#10;&#9;&#9;&#9;C149.7,409,143.2,402.5,139,406.6z" style="fill: rgb(162, 39, 41);"/>
		<path class="st7" d="M170.1,418.3c-13.7,11.4-19.7,29.5-16.1,46.9c1.2,5.8,10,3.3,8.8-2.4c-2.9-14.3,2.6-28.7,13.8-38&#10;&#9;&#9;&#9;C181.1,421,174.6,414.6,170.1,418.3z" style="fill: rgb(162, 39, 41);"/>
		<path class="st7" d="M211.1,427.4c-13.1,12.9-16.4,32.6-8.8,49.2c2.4,5.3,10.3,0.7,7.9-4.6c-5.9-12.9-2.6-28.3,7.4-38.2&#10;&#9;&#9;&#9;C221.8,429.7,215.3,423.3,211.1,427.4z" style="fill: rgb(162, 39, 41);"/>
		<path class="st7" d="M245.7,432.3c-11.9,13.2-14.1,32.8-4.9,48.1c3,5,10.9,0.5,7.9-4.6c-7-11.7-5.7-26.8,3.5-37&#10;&#9;&#9;&#9;C256.1,434.4,249.7,427.9,245.7,432.3z" style="fill: rgb(162, 39, 41);"/>
		<path class="st7" d="M294.3,476.9c-8.5-12.6-8.6-28.7-0.1-41.3c3.3-4.9-4.6-9.5-7.9-4.6c-10.2,15.1-10.1,35.5,0.1,50.5&#10;&#9;&#9;&#9;C289.7,486.4,297.6,481.8,294.3,476.9z" style="fill: rgb(162, 39, 41);"/>
		<path class="st7" d="M332.4,475.5c-8.7-11.4-9.7-26.7-2-39c3.1-5-4.8-9.6-7.9-4.6c-9.2,14.7-8.6,34.3,2,48.2&#10;&#9;&#9;&#9;C328,484.7,336,480.2,332.4,475.5z" style="fill: rgb(162, 39, 41);"/>
		<path class="st7" d="M382.9,461.1c-7.7-9.3-11.3-21.6-9.7-33.6c0.8-5.7-8-8.2-8.8-2.4c-2.1,15.6,2,30.4,12,42.5&#10;&#9;&#9;&#9;C380.1,472.1,386.6,465.6,382.9,461.1z" style="fill: rgb(162, 39, 41);"/>
		<path class="st7" d="M424.5,453.8c-11.1-8.8-15.8-23.1-11.6-36.7c1.7-5.6-7.1-8-8.8-2.4c-5,16.4,0.5,34.9,14,45.6&#10;&#9;&#9;&#9;C422.6,463.9,429.1,457.5,424.5,453.8z" style="fill: rgb(162, 39, 41);"/>
		<path class="st7" d="M454.1,440.2c-9.5-9.5-13.7-22.3-12-35.7c0.7-5.8-8.4-5.8-9.1,0c-1.9,15.6,3.6,31.1,14.7,42.1&#10;&#9;&#9;&#9;C451.8,450.8,458.2,444.4,454.1,440.2z" style="fill: rgb(162, 39, 41);"/>
	</g>
	<path class="st8" d="M433,385.4c-14.9,2.2-22.3,17.9-22.3,31.5c0,4.3,0.6,8.6,1.4,12.9c0.7,4,2.6,8.8,2.2,12.9&#10;&#9;&#9;c-0.5,5-5.3,5.4-8.6,2.4c-3.2-2.9-3.9-7.9-4.3-12c-0.8-7.7-0.8-15.7-5.6-22.2c-3.8-5.2-10.2-8.6-16.7-8.8&#10;&#9;&#9;c-15.7-0.5-24.2,14.9-21,28.8c1.7,7.4,6.6,14.4,6.5,22.1c-0.1,5.5-3.4,14.7-10.3,9.7c-6.8-5-7.1-16.4-8.5-23.9&#10;&#9;&#9;c-1.4-7.2-3.7-13.9-8.7-19.4c-9-9.8-23.9-9.2-30.1,3.2c-2.9,5.7-3.5,12.2-2.7,18.5c1,8.1,4.9,17.9,1.4,25.8c-1.3,3-4,6.2-7.3,6.9&#10;&#9;&#9;c-4.7,1-7-3.9-8.2-7.6c-2.3-7.6-2.5-15.8-4.2-23.6c-3-13.4-11.1-26.6-25.7-28.9c-14.4-2.3-23.1,9.5-24.3,22.6&#10;&#9;&#9;c-0.8,8.6,1.9,17,1.7,25.6c-0.1,6.1-4.8,19.3-13.6,15.3c-7.7-3.5-7.7-17.2-7.7-24.3c0-8.3,0.7-16.6-0.8-24.8&#10;&#9;&#9;c-2.2-11.8-10.6-25.1-23.5-26.8c-14.5-1.9-23.8,11.5-27.3,23.8c-2.3,8.2-2.8,17.7-7.6,25c-4,6.1-12.9,11.3-18.8,4.4&#10;&#9;&#9;c-10.8-12.7,3.2-31.2,5.3-44.5c2-12.3-2.2-26.8-15.8-29.9c-13.3-3-25.6,6.2-29.6,18.6c-2.2,6.8-1.9,14-0.6,21&#10;&#9;&#9;c1.1,5.8,9.9,3.3,8.8-2.4c-1.4-7-1.1-14.9,2.9-21.1c3.9-5.9,12.4-9.7,19.1-6.2c14.7,7.6,2,30.5-1.1,41c-3.3,11.1-2.8,25.3,7.5,32.7&#10;&#9;&#9;c11.2,8.1,25.1,0.4,31.1-10.3c6.9-12.2,4.1-34.6,18.3-41.8c14.1-7.2,22.4,13.5,23,24.1c0.8,14.5-3.1,32.7,6.9,45.1&#10;&#9;&#9;c8.7,10.7,23.2,6,29.3-4.8c7.9-14-1.9-29.5,2.4-44c2.1-7.2,8.1-11,15.4-8.5c7.8,2.7,12.3,9.6,14.6,17.2&#10;&#9;&#9;c3.6,12.1,1.3,31.1,12.5,39.6c10.3,7.8,22.9-1,26.4-11.6c4.5-13.7-7.6-30.6,1.1-43.1c4.9-7.1,12.7-2.8,16.6,2.9&#10;&#9;&#9;c4.7,6.8,4.7,15.7,6.4,23.5c2.4,10.7,11,26.2,24.4,20.5c10.5-4.5,11.9-18.7,9-28.3c-2.5-8.1-9.2-18.3-4.3-26.7&#10;&#9;&#9;c5-8.5,17.6-7.8,21.8,1.1c3.5,7.5,1.6,16.6,4.3,24.5c2.2,6.6,7.1,12,14.2,13.1c6.5,1,12.7-2.4,14.6-8.9c2.3-8.3-2.2-17.7-2.8-25.9&#10;&#9;&#9;c-0.7-8.9,0.9-19.4,9-24.7c6.8-4.4,19-0.1,16.2,9.3c-1.7,5.6,7.1,8.1,8.8,2.4C457.8,395.6,445.5,383.6,433,385.4z" style="fill: rgb(247, 28, 28);"/>
</g>
<g>
	<g>
		<path class="st9" d="M804.1,154.1v263.7c0,61.8-49.5,112-111,113c-0.7,0-1.3,0-2,0c-62.4,0-113.1-50.6-113.1-113.1V154.1&#10;&#9;&#9;&#9;C578,91.6,628.6,41,691.1,41c0.7,0,1.3,0,2,0c30.4,0.5,57.9,13.1,77.9,33.1C791.5,94.6,804.1,122.9,804.1,154.1z" style="fill: rgb(243, 177, 117);"/>
		<path class="st10" d="M691.1,509.4c-29.3,0-53.1-23.8-53.1-53.1V115.9c0-29.3,23.8-53.1,53.1-53.1s53.1,23.8,53.1,53.1v340.3&#10;&#9;&#9;&#9;C744.2,485.5,720.4,509.4,691.1,509.4z" style="opacity: 0.81; fill: rgb(206, 119, 48);"/>
		<path class="st3" d="M649.4,461.4V110.8c0-20.2,16.3-36.5,36.5-36.5h10.4c20.2,0,36.5,16.3,36.5,36.5v350.7&#10;&#9;&#9;&#9;c0,20.2-16.3,36.5-36.5,36.5h-10.4C665.7,497.9,649.4,481.6,649.4,461.4z" style="fill: rgb(255, 97, 50);"/>
		<path class="st5" d="M644.7,390.7c11.3-6.8,24.7-11,36.8-16c13.7-5.7,27.5-11.5,41.2-17.2c10.8-4.5,23.6-8.3,31.9-17.1&#10;&#9;&#9;&#9;c6.5-6.9,10-18,5-26.8c-5-8.9-15.7-10.9-25.1-10.2c-24.6,1.7-49.3,11.6-70.3,24.2c-5.3,3.2-10.7,6.9-16.9,8.1&#10;&#9;&#9;&#9;c-6,1.1-14-0.4-15.5-7.3c-3-13.4,14.7-20.6,23.9-25.2c25.4-12.9,51.3-25.1,76.4-38.8c10-5.5,19.5-12.7,23.4-23.9&#10;&#9;&#9;&#9;c3.2-9.3,1.4-19.9-6.2-26.5c-16.3-14.2-44.7-5.3-62.6,0.6c-12.3,4.1-24.2,9.3-35.4,15.8c-8.8,5.1-23.5,18.8-34.3,11.7&#10;&#9;&#9;&#9;c-12.1-7.9,2.1-22.8,9.3-27.9c9.7-6.9,20.9-11.2,32.3-14.3c22.4-6.2,45.9-8.5,67.6-17.4c10.2-4.2,20.5-9.8,26.8-19.2&#10;&#9;&#9;&#9;c5.6-8.4,7.1-20.1,1.5-28.9c-11.3-17.7-37.9-13.7-55.2-10.7c-13.7,2.4-27.2,6-40.3,10.9c-2.8,1.1-10.8,4.8-13.5,2&#10;&#9;&#9;&#9;c-3.2-3.3,5.2-14.1,7.3-16.8c12.3-15.8,32.3-25.2,52.2-25.8c9.7-0.3,19.3,1.5,28,5.6c5.3,2.5,9.9-5.4,4.6-7.9&#10;&#9;&#9;&#9;c-18.9-8.8-40.7-8.9-60.1-1.1c-9.5,3.8-18.3,9.4-25.7,16.5c-6.7,6.5-15.6,17-16.2,26.8c-0.7,12.1,12.1,13.7,21,11.1&#10;&#9;&#9;&#9;c13.7-4.1,26.7-9.1,40.9-11.8c11.8-2.3,25.1-4.8,37-1.7c12.5,3.2,18.3,14.9,11,26.4c-7,11.1-21.6,16.3-33.5,20&#10;&#9;&#9;&#9;c-12,3.7-24.4,6-36.8,8.6c-22.5,4.8-49.4,11-64.8,29.6c-6.7,8-9.8,20-3.2,29.1c6.6,9.1,19.2,9,28.6,4.9&#10;&#9;&#9;&#9;c6.2-2.7,11.7-6.8,17.5-10.3c6.1-3.7,12.4-7,18.9-9.9c13.2-5.9,27.3-10.2,41.5-12.8c9.6-1.7,24-3.2,31.1,5.3&#10;&#9;&#9;&#9;c10.1,12.1-4.2,26.4-14.1,32.3c-12.7,7.6-26.5,13.7-39.7,20.4c-14,7.1-27.9,14.2-41.9,21.2c-10.5,5.3-22.1,11.3-25.7,23.4&#10;&#9;&#9;&#9;c-3.2,10.7,2.2,21.3,12.9,24.5c12.6,3.8,23.9-3.6,34.2-9.7c12.3-7.3,25.4-13,39.1-17c6.7-1.9,13.6-3.5,20.5-4.5&#10;&#9;&#9;&#9;c5.3-0.8,11.8-1.4,16.9,1c6.2,2.9,6.8,9.7,4.2,15.4c-2.9,6.2-9.1,9.7-15,12.5c-13.9,6.6-28.6,12.1-42.8,18&#10;&#9;&#9;&#9;c-14.3,6-28.6,11.9-42.8,17.9c-10.1,4.3-20.9,9.8-24.3,21.2c-3,9.9,1.6,20.6,12.1,23.2c11.6,2.9,21.4-4.5,29.7-11.4&#10;&#9;&#9;&#9;c10.9-9.1,23-16.4,36.4-21c9.6-3.3,31.7-10.6,31.4,6.5c-0.2,13.7-16.1,20.2-26.4,25.6c-13.8,7.2-27.7,14.4-41.5,21.6&#10;&#9;&#9;&#9;c-6.7,3.5-13.5,6.9-20.2,10.5c-4.9,2.7-9.8,5.9-12.8,10.8c-5,8.2-3.3,18.7,1.9,26.4c6,8.9,15.4,13.8,26,14.1&#10;&#9;&#9;&#9;c12.9,0.4,25.6-5.5,36.1-12.5c8-5.3,17.8-14.3,13.9-25c-3.1-8.4-13.7-12.9-20.7-6.5c-4.3,4,2.1,10.4,6.5,6.5&#10;&#9;&#9;&#9;c1.7-1.6,4.4,0.8,5.3,2.4c1.4,2.6,0.1,5.4-1.5,7.7c-3.5,4.9-9.6,8.2-14.7,11.1c-10.4,5.7-24.7,10.8-35.9,4.3&#10;&#9;&#9;&#9;c-7.5-4.4-14.3-15.4-9.1-23.8c3.2-5.1,9.7-7.7,14.8-10.3c6.9-3.6,13.8-7.2,20.8-10.8c12.5-6.5,25.1-13,37.6-19.5&#10;&#9;&#9;&#9;c10-5.2,21.3-10.9,26.4-21.6c3.6-7.7,3.6-17.9-2.1-24.6c-7.8-9.1-20.8-6.6-30.9-3.9c-12,3.2-23.6,8.4-34,15.1&#10;&#9;&#9;&#9;c-4.9,3.2-9.5,6.8-13.9,10.5c-4.6,3.8-9.5,8.3-15.7,9.2c-5.7,0.9-11.3-1.8-11.5-8.1C634.4,398.8,639.4,393.9,644.7,390.7z" style="fill: rgb(255, 215, 46);"/>
	</g>
	<path class="st11" d="M804.1,154.1v263.7c0,61.8-49.5,112-111,113V41c30.4,0.5,57.9,13.1,77.9,33.1&#10;&#9;&#9;C791.5,94.6,804.1,122.9,804.1,154.1z" style="opacity: 0.43; fill: rgb(179, 48, 38);"/>
</g>
<g>
	<g>
		<g>
			<path class="st9" d="M1259,530.8h-28.1c-54.7,0-99-44.3-99-99V140c0-54.7,44.3-99,99-99h28.1c54.7,0,99,44.3,99,99v291.9&#10;&#9;&#9;&#9;&#9;C1358,486.5,1313.7,530.8,1259,530.8z" style="fill: rgb(243, 177, 117);"/>
			<path class="st10" d="M1244.9,509.3c-29.3,0-53.1-23.8-53.1-53.1V115.9c0-29.3,23.8-53.1,53.1-53.1s53.1,23.8,53.1,53.1v340.3&#10;&#9;&#9;&#9;&#9;C1298,485.5,1274.2,509.3,1244.9,509.3z" style="opacity: 0.81; fill: rgb(206, 119, 48);"/>
			<path class="st3" d="M1203.3,461.4V110.7c0-20.2,16.3-36.5,36.5-36.5h10.4c20.2,0,36.5,16.3,36.5,36.5v350.7&#10;&#9;&#9;&#9;&#9;c0,20.2-16.3,36.5-36.5,36.5h-10.4C1219.6,497.9,1203.3,481.5,1203.3,461.4z" style="fill: rgb(255, 97, 50);"/>
			<path class="st5" d="M1198.5,390.7c11.3-6.8,24.7-11,36.8-16c13.7-5.7,27.5-11.5,41.2-17.2c10.8-4.5,23.6-8.3,31.9-17.1&#10;&#9;&#9;&#9;&#9;c6.5-6.9,10-18,5-26.8c-5-8.9-15.7-10.9-25.1-10.2c-24.6,1.7-49.3,11.6-70.3,24.2c-5.3,3.2-10.7,6.9-16.9,8.1&#10;&#9;&#9;&#9;&#9;c-6,1.1-14-0.4-15.5-7.3c-3-13.4,14.7-20.6,23.9-25.2c25.4-12.9,51.3-25.1,76.4-38.8c10-5.5,19.5-12.7,23.4-23.9&#10;&#9;&#9;&#9;&#9;c3.2-9.3,1.4-19.9-6.2-26.5c-16.3-14.2-44.7-5.3-62.6,0.6c-12.3,4.1-24.2,9.3-35.4,15.8c-8.8,5.1-23.5,18.8-34.3,11.7&#10;&#9;&#9;&#9;&#9;c-12.1-7.9,2.1-22.8,9.3-27.9c9.7-6.9,20.9-11.2,32.3-14.3c22.4-6.2,45.9-8.5,67.6-17.4c10.2-4.2,20.5-9.8,26.8-19.2&#10;&#9;&#9;&#9;&#9;c5.6-8.4,7.1-20.1,1.5-28.9c-11.3-17.7-37.9-13.7-55.2-10.7c-13.7,2.4-27.2,6-40.3,10.9c-2.8,1.1-10.8,4.8-13.5,2&#10;&#9;&#9;&#9;&#9;c-3.2-3.3,5.2-14.1,7.3-16.8c12.3-15.8,32.3-25.2,52.2-25.8c9.7-0.3,19.3,1.5,28,5.6c5.3,2.5,9.9-5.4,4.6-7.9&#10;&#9;&#9;&#9;&#9;c-18.9-8.8-40.7-8.9-60.1-1.1c-9.5,3.8-18.3,9.4-25.7,16.5c-6.7,6.5-15.6,17-16.2,26.8c-0.7,12.1,12.1,13.7,21,11.1&#10;&#9;&#9;&#9;&#9;c13.7-4.1,26.7-9.1,40.9-11.8c11.8-2.3,25.1-4.8,37-1.7c12.5,3.2,18.3,14.9,11,26.4c-7,11.1-21.6,16.3-33.5,20&#10;&#9;&#9;&#9;&#9;c-12,3.7-24.4,6-36.8,8.6c-22.5,4.8-49.4,11-64.8,29.6c-6.7,8-9.8,20-3.2,29.1c6.6,9.1,19.2,9,28.6,4.9&#10;&#9;&#9;&#9;&#9;c6.2-2.7,11.7-6.8,17.5-10.3c6.1-3.7,12.4-7,18.9-9.9c13.2-5.9,27.3-10.2,41.5-12.8c9.6-1.7,24-3.2,31.1,5.3&#10;&#9;&#9;&#9;&#9;c10.1,12.1-4.2,26.4-14.1,32.3c-12.7,7.6-26.5,13.7-39.7,20.4c-14,7.1-27.9,14.2-41.9,21.2c-10.5,5.3-22.1,11.3-25.7,23.4&#10;&#9;&#9;&#9;&#9;c-3.2,10.7,2.2,21.3,12.9,24.5c12.6,3.8,23.9-3.6,34.2-9.7c12.3-7.3,25.4-13,39.1-17c6.7-1.9,13.6-3.5,20.5-4.5&#10;&#9;&#9;&#9;&#9;c5.3-0.8,11.8-1.4,16.9,1c6.2,2.9,6.8,9.7,4.2,15.4c-2.9,6.2-9.1,9.7-15,12.5c-13.9,6.6-28.6,12.1-42.8,18&#10;&#9;&#9;&#9;&#9;c-14.3,6-28.6,11.9-42.8,17.9c-10.1,4.3-20.9,9.8-24.3,21.2c-3,9.9,1.6,20.6,12.1,23.2c11.6,2.9,21.4-4.5,29.7-11.4&#10;&#9;&#9;&#9;&#9;c10.9-9.1,23-16.4,36.4-21c9.6-3.3,31.7-10.6,31.4,6.5c-0.2,13.7-16.1,20.2-26.4,25.6c-13.8,7.2-27.7,14.4-41.5,21.6&#10;&#9;&#9;&#9;&#9;c-6.7,3.5-13.5,6.9-20.2,10.5c-4.9,2.7-9.8,5.9-12.8,10.8c-5,8.2-3.3,18.7,1.9,26.4c6,8.9,15.4,13.8,26,14.1&#10;&#9;&#9;&#9;&#9;c12.9,0.4,25.6-5.5,36.1-12.5c8-5.3,17.8-14.3,13.9-25c-3.1-8.4-13.7-12.9-20.7-6.5c-4.3,4,2.1,10.4,6.5,6.5&#10;&#9;&#9;&#9;&#9;c1.7-1.6,4.4,0.8,5.3,2.4c1.4,2.6,0.1,5.4-1.5,7.7c-3.5,4.9-9.6,8.2-14.7,11.1c-10.4,5.7-24.7,10.8-35.9,4.3&#10;&#9;&#9;&#9;&#9;c-7.5-4.4-14.3-15.4-9.1-23.8c3.2-5.1,9.7-7.7,14.8-10.3c6.9-3.6,13.8-7.2,20.8-10.8c12.5-6.5,25.1-13,37.6-19.5&#10;&#9;&#9;&#9;&#9;c10-5.2,21.3-10.9,26.4-21.6c3.6-7.7,3.6-17.9-2.1-24.6c-7.8-9.1-20.8-6.6-30.9-3.9c-12,3.2-23.6,8.4-34,15.1&#10;&#9;&#9;&#9;&#9;c-4.9,3.2-9.5,6.8-13.9,10.5c-4.6,3.8-9.5,8.3-15.7,9.2c-5.7,0.9-11.3-1.8-11.5-8.1C1188.3,398.7,1193.2,393.9,1198.5,390.7z" style="fill: rgb(255, 215, 46);"/>
		</g>
		
			<path d="M 1194.900024 116.800003 H 1211.700024 V 133.600002 H 1194.900024 V 116.800003 Z" transform="matrix(0.7071 0.7071 -0.7071 0.7071 440.9431 -814.1687)" class="st12" style="fill: rgb(255, 251, 204);"/>
		
			<path d="M 1248.400024 116.800003 H 1265.200024 V 133.600002 H 1248.400024 V 116.800003 Z" transform="matrix(0.7071 0.7071 -0.7071 0.7071 456.6333 -852.0483)" class="st12" style="fill: rgb(255, 251, 204);"/>
		
			<path d="M 1266.300049 173.899994 H 1283.100048 V 190.699993 H 1266.300049 V 173.899994 Z" transform="matrix(0.7071 0.7071 -0.7071 0.7071 502.2541 -847.9874)" class="st12" style="fill: rgb(255, 251, 204);"/>
		
			<path d="M 1212.5 193.5 H 1229.299999 V 210.299999 H 1212.5 V 193.5 Z" transform="matrix(0.7071 0.7071 -0.7071 0.7071 500.3253 -804.1497)" class="st12" style="fill: rgb(255, 251, 204);"/>
		
			<path d="M 1252.199951 217.199997 H 1268.99995 V 233.999996 H 1252.199951 V 217.199997 Z" transform="matrix(0.7071 0.7071 -0.7071 0.7071 528.7692 -825.271)" class="st12" style="fill: rgb(255, 251, 204);"/>
		
			<path d="M 1212.5 286.5 H 1229.299999 V 303.299999 H 1212.5 V 286.5 Z" transform="matrix(0.7071 0.7071 -0.7071 0.7071 566.1252 -776.8945)" class="st12" style="fill: rgb(255, 251, 204);"/>
		
			<path d="M 1254.400024 261.600006 H 1271.200024 V 278.400005 H 1254.400024 V 261.600006 Z" transform="matrix(0.7071 0.7071 -0.7071 0.7071 560.801 -813.8889)" class="st12" style="fill: rgb(255, 251, 204);"/>
		
			<path d="M 1258 310.299988 H 1274.799999 V 327.099987 H 1258 V 310.299988 Z" transform="matrix(0.7071 0.7071 -0.7071 0.7071 596.2873 -802.1635)" class="st12" style="fill: rgb(255, 251, 204);"/>
		
			<path d="M 1200.599976 327.200012 H 1217.399975 V 344.000011 H 1200.599976 V 327.200012 Z" transform="matrix(0.7071 0.7071 -0.7071 0.7071 591.4263 -756.5668)" class="st12" style="fill: rgb(255, 251, 204);"/>
		
			<path d="M 1258 414.200012 H 1274.799999 V 431.000011 H 1258 V 414.200012 Z" transform="matrix(0.7071 0.7071 -0.7071 0.7071 669.7864 -771.7192)" class="st12" style="fill: rgb(255, 251, 204);"/>
		
			<path d="M 1206.699951 237.199997 H 1223.49995 V 253.999996 H 1206.699951 V 237.199997 Z" transform="matrix(0.7071 0.7071 -0.7071 0.7071 529.5677 -787.3068)" class="st12" style="fill: rgb(255, 251, 204);"/>
		
			<path d="M 1258 351 H 1274.799999 V 367.799999 H 1258 V 351 Z" transform="matrix(0.7071 0.7071 -0.7071 0.7071 625.0699 -790.2413)" class="st12" style="fill: rgb(255, 251, 204);"/>
		
			<path d="M 1224.300049 389.700012 H 1241.100048 V 406.500011 H 1224.300049 V 389.700012 Z" transform="matrix(0.7071 0.7071 -0.7071 0.7071 642.5737 -755.0761)" class="st12" style="fill: rgb(255, 251, 204);"/>
		
			<path d="M 1236.5 80.699997 H 1253.299999 V 97.499996 H 1236.5 V 80.699997 Z" transform="matrix(0.7071 0.7071 -0.7071 0.7071 427.6262 -854.2158)" class="st12" style="fill: rgb(255, 251, 204);"/>
		
			<path d="M 1212.5 443.5 H 1229.299999 V 460.299999 H 1212.5 V 443.5 Z" transform="matrix(0.7071 0.7071 -0.7071 0.7071 677.1053 -730.925)" class="st12" style="fill: rgb(255, 251, 204);"/>
	</g>
	<path class="st11" d="M1358,154.2v263.7c0,61.8-49.5,112-111,113V41.1c30.4,0.5,57.9,13.1,77.9,33.1&#10;&#9;&#9;C1345.3,94.7,1358,122.9,1358,154.2z" style="opacity: 0.43; fill: rgb(179, 48, 38);"/>
</g>
<g>
	<path class="st13" d="M982.1,530.9H954c-54.7,0-99-44.3-99-99V140c0-54.7,44.3-99,99-99h28.1c54.7,0,99,44.3,99,99v291.9&#10;&#9;&#9;C1081.1,486.6,1036.7,530.9,982.1,530.9z" style="fill: rgb(255, 152, 57);"/>
	<path class="st10" d="M968,509.4c-29.3,0-53.1-23.8-53.1-53.1V115.9c0-29.3,23.8-53.1,53.1-53.1c29.3,0,53.1,23.8,53.1,53.1v340.3&#10;&#9;&#9;C1021.1,485.5,997.3,509.4,968,509.4z" style="opacity: 0.81; fill: rgb(206, 119, 48);"/>
	<path class="st3" d="M926.3,461.4V110.8c0-20.2,16.3-36.5,36.5-36.5h10.4c20.2,0,36.5,16.3,36.5,36.5v350.7&#10;&#9;&#9;c0,20.2-16.3,36.5-36.5,36.5h-10.4C942.7,497.9,926.3,481.6,926.3,461.4z" style="fill: rgb(255, 97, 50);"/>
	<path class="st8" d="M921.6,390.7c11.3-6.8,24.7-11,36.8-16c13.7-5.7,27.5-11.5,41.2-17.2c10.8-4.5,23.6-8.3,31.9-17.1&#10;&#9;&#9;c6.5-6.9,10-18,5-26.8c-5-8.9-15.7-10.9-25.1-10.2c-24.6,1.7-49.3,11.6-70.3,24.2c-5.3,3.2-10.7,6.9-16.9,8.1&#10;&#9;&#9;c-6,1.1-14-0.4-15.5-7.3c-3-13.4,14.7-20.6,23.9-25.2c25.4-12.9,51.3-25.1,76.4-38.8c10-5.5,19.5-12.7,23.4-23.9&#10;&#9;&#9;c3.2-9.3,1.4-19.9-6.2-26.5c-16.3-14.2-44.7-5.3-62.6,0.6c-12.3,4.1-24.2,9.3-35.4,15.8c-8.8,5.1-23.5,18.8-34.3,11.7&#10;&#9;&#9;c-12.1-7.9,2.1-22.8,9.3-27.9c9.7-6.9,20.9-11.2,32.3-14.3c22.4-6.2,45.9-8.5,67.6-17.4c10.2-4.2,20.5-9.8,26.8-19.2&#10;&#9;&#9;c5.6-8.4,7.1-20.1,1.5-28.9c-11.3-17.7-37.9-13.7-55.2-10.7c-13.7,2.4-27.2,6-40.3,10.9c-2.8,1.1-10.8,4.8-13.5,2&#10;&#9;&#9;c-3.2-3.3,5.2-14.1,7.3-16.8c12.3-15.8,32.3-25.2,52.2-25.8c9.7-0.3,19.3,1.5,28,5.6c5.3,2.5,9.9-5.4,4.6-7.9&#10;&#9;&#9;c-18.9-8.8-40.7-8.9-60.1-1.1c-9.5,3.8-18.3,9.4-25.7,16.5c-6.7,6.5-15.6,17-16.2,26.8c-0.7,12.1,12.1,13.7,21,11.1&#10;&#9;&#9;c13.7-4.1,26.7-9.1,40.9-11.8c11.8-2.3,25.1-4.8,37-1.7c12.5,3.2,18.3,14.9,11,26.4c-7,11.1-21.6,16.3-33.5,20&#10;&#9;&#9;c-12,3.7-24.4,6-36.8,8.6c-22.5,4.8-49.4,11-64.8,29.6c-6.7,8-9.8,20-3.2,29.1c6.6,9.1,19.2,9,28.6,4.9c6.2-2.7,11.7-6.8,17.5-10.3&#10;&#9;&#9;c6.1-3.7,12.4-7,18.9-9.9c13.2-5.9,27.3-10.2,41.5-12.8c9.6-1.7,24-3.2,31.1,5.3c10.1,12.1-4.2,26.4-14.1,32.3&#10;&#9;&#9;c-12.7,7.6-26.5,13.7-39.7,20.4c-14,7.1-27.9,14.2-41.9,21.2c-10.5,5.3-22.1,11.3-25.7,23.4c-3.2,10.7,2.2,21.3,12.9,24.5&#10;&#9;&#9;c12.6,3.8,23.9-3.6,34.2-9.7c12.3-7.3,25.4-13,39.1-17c6.7-1.9,13.6-3.5,20.5-4.5c5.3-0.8,11.8-1.4,16.9,1&#10;&#9;&#9;c6.2,2.9,6.8,9.7,4.2,15.4c-2.9,6.2-9.1,9.7-15,12.5c-13.9,6.6-28.6,12.1-42.8,18c-14.3,6-28.6,11.9-42.8,17.9&#10;&#9;&#9;c-10.1,4.3-20.9,9.8-24.3,21.2c-3,9.9,1.6,20.6,12.1,23.2c11.6,2.9,21.4-4.5,29.7-11.4c10.9-9.1,23-16.4,36.4-21&#10;&#9;&#9;c9.6-3.3,31.7-10.6,31.4,6.5c-0.2,13.7-16.1,20.2-26.4,25.6c-13.8,7.2-27.7,14.4-41.5,21.6c-6.7,3.5-13.5,6.9-20.2,10.5&#10;&#9;&#9;c-4.9,2.7-9.8,5.9-12.8,10.8c-5,8.2-3.3,18.7,1.9,26.4c6,8.9,15.4,13.8,26,14.1c12.9,0.4,25.6-5.5,36.1-12.5&#10;&#9;&#9;c8-5.3,17.8-14.3,13.9-25c-3.1-8.4-13.7-12.9-20.7-6.5c-4.3,4,2.1,10.4,6.5,6.5c1.7-1.6,4.4,0.8,5.3,2.4c1.4,2.6,0.1,5.4-1.5,7.7&#10;&#9;&#9;c-3.5,4.9-9.6,8.2-14.7,11.1c-10.4,5.7-24.7,10.8-35.9,4.3c-7.5-4.4-14.3-15.4-9.1-23.8c3.2-5.1,9.7-7.7,14.8-10.3&#10;&#9;&#9;c6.9-3.6,13.8-7.2,20.8-10.8c12.5-6.5,25.1-13,37.6-19.5c10-5.2,21.3-10.9,26.4-21.6c3.6-7.7,3.6-17.9-2.1-24.6&#10;&#9;&#9;c-7.8-9.1-20.8-6.6-30.9-3.9c-12,3.2-23.6,8.4-34,15.1c-4.9,3.2-9.5,6.8-13.9,10.5c-4.6,3.8-9.5,8.3-15.7,9.2&#10;&#9;&#9;c-5.7,0.9-11.3-1.8-11.5-8.1C911.4,398.8,916.3,393.9,921.6,390.7z" style="fill: rgb(247, 28, 28);"/>
	<path class="st11" d="M1081.1,154.1v263.7c0,61.8-49.5,112-111,113V41c30.4,0.5,57.9,13.1,77.9,33.1&#10;&#9;&#9;C1068.4,94.6,1081.1,122.8,1081.1,154.1z" style="opacity: 0.43; fill: rgb(179, 48, 38);"/>
</g>
<g>
	<g>
		<path class="st6" d="M384.9,544.9v158H189.8c-27.7,0-52-14.2-66.1-35.8c-8.1-12.4-12.8-27.2-12.8-43.2c0-0.7,0-1.5,0-2.2&#10;&#9;&#9;&#9;c0.3-11.8,3.2-22.9,8.2-32.9c3.8-7.7,8.9-14.8,14.9-20.8c14.3-14.3,34-23.1,55.9-23.1H384.9z" style="fill: rgb(244, 124, 108);"/>
		<path class="st6" d="M142,621.7c0.1,3.3-0.3,6.6-0.8,9.8c-2.3,13.2-8.5,25.6-17.5,35.6c-2.8,3.1-5.8,5.9-9,8.4&#10;&#9;&#9;&#9;c-6.2,4.9-13.9,8.8-21.7,7.6c-8.4-1.3-15.3-9.1-15.5-17.6c-0.2-7,4.2-13.7,10.3-16.8c-5.4,0.9-11.3-1.1-14.6-5.5&#10;&#9;&#9;&#9;c-4.2-5.6-3.6-14.3,1.5-19.2c0.9-0.8,1.8-1.6,2.9-2.1c4.5-2.5,10.4-2.6,14.9,0c0.5,0.3,1.1,0.7,1.6,1c-0.3-0.3-0.7-0.7-1-1&#10;&#9;&#9;&#9;c-6.4-6.7-12.7-13.8-15.6-22.6c-3-9.2-1.1-20.8,7-26.1c7.9-5.1,18.9-2.5,26.1,3.6c4,3.4,6.3,7.8,8.6,12.2c1.8,3.4,3.7,6.7,6.3,9.4&#10;&#9;&#9;&#9;c5.3,5.4,11.9,5.3,15,14C141.5,615.3,142,618.5,142,621.7z" style="fill: rgb(244, 124, 108);"/>
		<path class="st14" d="M426.6,623.9c0,43.6-18.7,79-41.7,79c-23,0-41.7-35.4-41.7-79c0-0.7,0-1.5,0-2.2c0.6-42.6,19-76.8,41.7-76.8&#10;&#9;&#9;&#9;s41.1,34.2,41.7,76.8C426.6,622.5,426.6,623.2,426.6,623.9z" style="fill: rgb(245, 170, 149);"/>
		
			<path d="M 365.899994 567 H 378.599994 V 579.7 H 365.899994 V 567 Z" transform="matrix(0.7071 0.7071 -0.7071 0.7071 514.3901 -95.2579)" class="st3" style="fill: rgb(255, 97, 50);"/>
		
			<path d="M 406.799988 633.299988 H 419.499988 V 645.999988 H 406.799988 V 633.299988 Z" transform="matrix(0.7071 0.7071 -0.7071 0.7071 573.2611 -104.7526)" class="st3" style="fill: rgb(255, 97, 50);"/>
		
			<path d="M 397.799988 583.5 H 410.499988 V 596.2 H 397.799988 V 583.5 Z" transform="matrix(0.2198 0.9756 -0.9756 0.2198 890.6979 65.9298)" class="st3" style="fill: rgb(255, 97, 50);"/>
		
			<path d="M 358.100006 624.299988 H 370.800006 V 636.999988 H 358.100006 V 624.299988 Z" transform="matrix(0.7071 0.7071 -0.7071 0.7071 552.6829 -72.9656)" class="st3" style="fill: rgb(255, 97, 50);"/>
		
			<path d="M 365.899994 670.900024 H 378.599994 V 683.600024 H 365.899994 V 670.900024 Z" transform="matrix(0.7071 0.7071 -0.7071 0.7071 587.9011 -64.8086)" class="st3" style="fill: rgb(255, 97, 50);"/>
		<path d="M 396.899994 564.299988 A 6 6 0 0 1 390.899994 570.299988 A 6 6 0 0 1 384.899994 564.299988 A 6 6 0 0 1 390.899994 558.299988 A 6 6 0 0 1 396.899994 564.299988 Z" class="st15" style="fill: rgb(255, 255, 255);"/>
		<path d="M 373.899994 602.400024 A 5 5 0 0 1 368.899994 607.400024 A 5 5 0 0 1 363.899994 602.400024 A 5 5 0 0 1 368.899994 597.400024 A 5 5 0 0 1 373.899994 602.400024 Z" class="st15" style="fill: rgb(255, 255, 255);"/>
		<path d="M 399.200006 614.599976 A 7.1 7.1 0 0 1 392.100006 621.699975 A 7.1 7.1 0 0 1 385.000006 614.599976 A 7.1 7.1 0 0 1 392.100006 607.499976 A 7.1 7.1 0 0 1 399.200006 614.599976 Z" class="st15" style="fill: rgb(255, 255, 255);"/>
		<path d="M 392.100006 654 A 5.5 5.5 0 0 1 386.600006 659.5 A 5.5 5.5 0 0 1 381.100006 654 A 5.5 5.5 0 0 1 386.600006 648.5 A 5.5 5.5 0 0 1 392.100006 654 Z" class="st15" style="fill: rgb(255, 255, 255);"/>
		<path d="M 399.899994 681.700012 A 4.5 4.5 0 0 1 395.399994 686.200012 A 4.5 4.5 0 0 1 390.899994 681.700012 A 4.5 4.5 0 0 1 395.399994 677.200012 A 4.5 4.5 0 0 1 399.899994 681.700012 Z" class="st15" style="fill: rgb(255, 255, 255);"/>
		<path d="M 412.300012 658.099976 A 4.1 4.1 0 0 1 408.200012 662.199975 A 4.1 4.1 0 0 1 404.100012 658.099976 A 4.1 4.1 0 0 1 408.200012 653.999976 A 4.1 4.1 0 0 1 412.300012 658.099976 Z" class="st15" style="fill: rgb(255, 255, 255);"/>
		<path d="M 363.299994 657.900024 A 3.9 3.9 0 0 1 359.399994 661.800025 A 3.9 3.9 0 0 1 355.499994 657.900024 A 3.9 3.9 0 0 1 359.399994 654.000024 A 3.9 3.9 0 0 1 363.299994 657.900024 Z" class="st15" style="fill: rgb(255, 255, 255);"/>
	</g>
	<path class="st16" d="M426.6,623.9c0,43.6-18.7,79-41.7,79H189.8c-27.7,0-52-14.2-66.1-35.8c-2.8,3.1-5.8,5.9-9,8.4&#10;&#9;&#9;c-6.2,4.9-13.9,8.8-21.7,7.6c-8.4-1.3-15.3-9.1-15.5-17.6c-0.2-7,4.2-13.7,10.3-16.8c-5.4,0.9-11.3-1.1-14.6-5.5&#10;&#9;&#9;c-4.2-5.6-3.6-14.3,1.5-19.2c0.9-0.8,1.8-1.6,2.9-2.1h349.1C426.6,622.5,426.6,623.2,426.6,623.9z" style="opacity: 0.26; fill: rgb(179, 48, 38);"/>
</g>
<g>
	<g>
		<path class="st3" d="M839.5,632v15.2c0,29.7-24,53.7-53.7,53.7H678c-27.9,0-50.9-21.3-53.4-48.5c-0.2-1.7-0.2-3.4-0.2-5.2V632&#10;&#9;&#9;&#9;c0-8.5,2-16.6,5.5-23.8c8.8-17.7,27-29.9,48.2-29.9h107.8c27.4,0,50,20.5,53.3,47C839.3,627.4,839.5,629.7,839.5,632z" style="fill: rgb(255, 97, 50);"/>
		<path class="st3" d="M1057.8,632v15.2c0,29.7-24.1,53.7-53.7,53.7H896.2c-29.7,0-53.7-24-53.7-53.7V632c0-2.3,0.1-4.5,0.4-6.8&#10;&#9;&#9;&#9;c3.3-26.5,25.9-47,53.3-47H1004c27.4,0,50,20.5,53.3,47C1057.6,627.4,1057.8,629.7,1057.8,632z" style="fill: rgb(255, 97, 50);"/>
		<path d="M 818.099976 625.200012 H 869.899975 V 647.200012 H 818.099976 V 625.200012 Z" class="st3" style="fill: rgb(255, 97, 50);"/>
		<path class="st3" d="M636.7,639.6c-2.4,4.6-6.2,8.5-10.9,11.8c-0.4,0.3-0.8,0.6-1.3,0.9c-5,3.5-13.4,9.4-18.9,9&#10;&#9;&#9;&#9;c-6.7-0.5-10.4-6.3-5.9-12.4c2.4-3.2,6.3-5,10-6.6c-3.6,1.4-7.9,0.1-10.4-2.8c-0.3-0.4-0.7-0.9-0.9-1.3c-2.1-3.8-0.9-9.1,2.6-11.7&#10;&#9;&#9;&#9;c3.6-2.6,8.4-1.9,11.8,0.6c-1.5-9.1-19.6-29.4,3.9-25.3c4.9,0.9,9.5,3.1,13.2,6.4c4.2,3.7,7.4,8.6,8.8,14&#10;&#9;&#9;&#9;C640.3,628.7,639.4,634.5,636.7,639.6z" style="fill: rgb(255, 97, 50);"/>
		<g>
			<path class="st3" d="M1279.8,632v15.2c0,4-0.4,7.9-1.3,11.7c-5.3,24-26.8,42-52.4,42h-107.8c-29.7,0-53.7-24-53.7-53.7V632&#10;&#9;&#9;&#9;&#9;c0-2.3,0.1-4.5,0.4-6.8c3.3-26.5,25.9-47,53.3-47h107.8c24.6,0,45.3,16.5,51.7,39C1279.1,622,1279.8,626.9,1279.8,632z" style="fill: rgb(255, 97, 50);"/>
			<path d="M 1040.199951 625.200012 H 1091.99995 V 647.200012 H 1040.199951 V 625.200012 Z" class="st3" style="fill: rgb(255, 97, 50);"/>
			<path class="st3" d="M1301.5,668.2c-4.8,1.9-10.4,0.9-14.8-1.7c-3.2-1.9-5.9-4.6-8.2-7.6c-0.9-1.1-1.7-2.3-2.5-3.5&#10;&#9;&#9;&#9;&#9;c-3.2-4.9-5.9-10.3-6.9-15.8c-0.9-4.8-0.3-9.7,2.4-14.3c1.3-2.2,3.5-5.2,6.2-8c5.4-5.5,12.6-10.1,18.5-5.4c4,3.2,4,9.5,1.4,13.9&#10;&#9;&#9;&#9;&#9;c-2.1,3.6-5.4,6.1-8.9,8.4c3-1.9,6.2-3.5,9.7-3.8c4.5-0.4,9.5,2.1,10.3,6.6c0.2,0.9,0.1,1.8,0,2.6c-0.4,2.2-1.8,4.2-3.5,5.7&#10;&#9;&#9;&#9;&#9;c-2.1,1.8-4.6,2.9-7.1,3.9c4.4-1.3,9.7,2.1,10.6,6.8C1309.8,661,1306.3,666.3,1301.5,668.2z" style="fill: rgb(255, 97, 50);"/>
		</g>
		<g>
			<path class="st14" d="M792.4,602H671.3c-3.5,0-6.3-2.8-6.3-6.3v-1.8c0-3.5,2.8-6.3,6.3-6.3h121.1c3.5,0,6.3,2.8,6.3,6.3v1.8&#10;&#9;&#9;&#9;&#9;C798.7,599.2,795.9,602,792.4,602z" style="fill: rgb(245, 170, 149);"/>
			<path class="st14" d="M1010.7,602H889.6c-3.5,0-6.3-2.8-6.3-6.3v-1.8c0-3.5,2.8-6.3,6.3-6.3h121.1c3.5,0,6.3,2.8,6.3,6.3v1.8&#10;&#9;&#9;&#9;&#9;C1017,599.2,1014.2,602,1010.7,602z" style="fill: rgb(245, 170, 149);"/>
			<path class="st14" d="M1232.7,602h-121.1c-3.5,0-6.3-2.8-6.3-6.3v-1.8c0-3.5,2.8-6.3,6.3-6.3h121.1c3.5,0,6.3,2.8,6.3,6.3v1.8&#10;&#9;&#9;&#9;&#9;C1239.1,599.2,1236.2,602,1232.7,602z" style="fill: rgb(245, 170, 149);"/>
		</g>
	</g>
	<path class="st16" d="M1301.5,668.2c-4.8,1.9-10.4,0.9-14.8-1.7c-3.2-1.9-5.9-4.6-8.2-7.6c-5.3,24-26.8,42-52.4,42h-107.8&#10;&#9;&#9;c-29.7,0-53.7-24-53.7-53.7h-6.9c0,29.7-24.1,53.7-53.7,53.7H896.2c-29.7,0-53.7-24-53.7-53.7h-3.1c0,29.7-24,53.7-53.7,53.7H678&#10;&#9;&#9;c-27.9,0-50.9-21.3-53.4-48.5c-5,3.5-13.4,9.4-18.9,9c-6.7-0.5-10.4-6.3-5.9-12.4c2.4-3.2,6.3-5,10-6.6c-3.6,1.4-7.9,0.1-10.4-2.8&#10;&#9;&#9;h709.5c-0.4,2.2-1.8,4.2-3.5,5.7c-2.1,1.8-4.6,2.9-7.1,3.9c4.4-1.3,9.7,2.1,10.6,6.8C1309.8,661,1306.3,666.3,1301.5,668.2z" style="opacity: 0.26; fill: rgb(179, 48, 38);"/>
</g>
<g>
	<g>
		<g>
			<path class="st6" d="M725.3,845.2c0,2.6-0.1,5.1-0.4,7.6c-0.5,3.9-1.3,7.6-2.6,10.9c-0.2,0.6-0.5,1.3-0.8,1.9&#10;&#9;&#9;&#9;&#9;c-0.3,0.7-0.6,1.3-1,1.9c-1.8,3.3-4.3,6.3-7.2,8.7c-1.7,1.4-3.5,2.5-5.5,3.5c-5,2.4-11,3.2-16.3,1.3c-5.2-1.9-9.5-6.8-9.8-12.4&#10;&#9;&#9;&#9;&#9;c-0.3-4.2,2-8.5,5.6-10.7c-3.4,0.4-7.2-0.9-9.3-3.7c-1.9-2.5-2.3-6-1.4-9c0.5-1.6,1.4-3.1,2.6-4.2c3.6-3.2,9.7-3.2,13.2,0.1&#10;&#9;&#9;&#9;&#9;c-4.2-5.1-8.4-10.4-10.2-16.8c-1.8-6.3-0.5-14,4.8-18c7.8-5.8,17.5-1,24.7,5.9c3.6,3.4,6.6,7.3,8.4,10.7c0.1,0.2,0.2,0.4,0.3,0.6&#10;&#9;&#9;&#9;&#9;c1.2,2.5,2.3,5.3,3,8.3C724.6,836.1,725.2,840.6,725.3,845.2z" style="fill: rgb(244, 124, 108);"/>
			<path class="st6" d="M1241.5,854.2c-2.1,2.8-5.8,4.2-9.3,3.7c3.6,2.2,5.9,6.5,5.6,10.7c-0.4,5.6-4.6,10.5-9.9,12.4&#10;&#9;&#9;&#9;&#9;c-5.2,1.9-11.2,1.2-16.3-1.3c-0.4-0.2-0.8-0.4-1.2-0.6c-1.5-0.8-2.9-1.8-4.2-2.8c-2.4-1.9-4.4-4.2-6.1-6.8&#10;&#9;&#9;&#9;&#9;c-0.4-0.6-0.8-1.2-1.1-1.9c-2.7-4.9-4.2-11.1-4.6-17.7c-0.1-1.5-0.1-3.1-0.1-4.7c0-3.1,0.3-6.2,0.8-9.1c0.5-3.2,1.3-6.3,2.4-9.1&#10;&#9;&#9;&#9;&#9;c0.4-1.2,0.9-2.3,1.5-3.4c2.3-4.7,7.1-10.6,12.7-14.7c6.6-4.8,14.3-7.2,20.7-2.5c5.3,3.9,6.6,11.6,4.8,18&#10;&#9;&#9;&#9;&#9;c-1.8,6.3-6.1,11.7-10.2,16.8c3.6-3.3,9.6-3.3,13.2-0.1c1.2,1.1,2.1,2.6,2.6,4.2C1243.8,848.2,1243.4,851.7,1241.5,854.2z" style="fill: rgb(244, 124, 108);"/>
			<path class="st14" d="M1218.8,842.5c0,0.9,0,1.8-0.1,2.7c-0.1,3.9-0.5,7.7-1.1,11.4c0,0,0,0,0,0c-0.4,2.2-0.8,4.3-1.4,6.4&#10;&#9;&#9;&#9;&#9;c-0.6,2.5-1.4,5-2.2,7.4c-0.4,1-0.7,2-1.1,3c-0.8,1.9-1.6,3.8-2.5,5.6c-4.1,8.5-9.6,16.2-16.2,22.8c-0.2,0.2-0.4,0.4-0.6,0.6&#10;&#9;&#9;&#9;&#9;c-2.2,2.1-4.5,4.1-6.8,6c0,0,0,0,0,0c-10.6,8.4-23.3,14.2-37.2,16.7c-1.8,0.3-3.7,0.6-5.5,0.8c-1.9,0.2-3.8,0.3-5.8,0.4&#10;&#9;&#9;&#9;&#9;c-1.2,0.1-2.3,0.1-3.5,0.1H790.3c-3.3,0-6.5-0.2-9.7-0.6c-0.9-0.1-1.7-0.2-2.6-0.3c-13.7-2-26.3-7.3-37-15&#10;&#9;&#9;&#9;&#9;c-2.5-1.8-4.9-3.7-7.2-5.8c-7.1-6.4-13.1-14-17.6-22.5c-1.1-2-2.1-4-2.9-6c-0.4-0.8-0.7-1.7-1.1-2.6c-3.5-8.8-5.6-18.3-5.9-28.3&#10;&#9;&#9;&#9;&#9;v-0.2c0-0.9,0-1.8,0-2.6c0-3.1,0.2-6.1,0.5-9c0.1-0.6,0.1-1.2,0.2-1.8c0.9-6.8,2.5-13.3,4.9-19.5c1.4-3.7,3.1-7.3,5.1-10.7&#10;&#9;&#9;&#9;&#9;c1.5-2.8,3.3-5.5,5.1-8.1c0,0,0,0,0,0c2.6-3.7,5.6-7.1,8.8-10.3c5.7-5.7,12.2-10.5,19.3-14.4c0,0,0,0,0,0&#10;&#9;&#9;&#9;&#9;c1.4-0.7,2.7-1.4,4.1-2.1c1.4-0.7,2.8-1.3,4.2-1.9c9.8-4,20.5-6.2,31.7-6.2h344.6c10.9,0,21.4,2.1,31,5.9h0c3.4,1.4,6.8,3,10,4.8&#10;&#9;&#9;&#9;&#9;c0,0,0,0,0,0c15.6,8.8,28.1,22.3,35.5,38.7c0,0,0,0,0,0c0.1,0.3,0.3,0.6,0.4,0.9c0.2,0.4,0.4,0.8,0.5,1.2&#10;&#9;&#9;&#9;&#9;c0.9,2.1,1.7,4.3,2.4,6.5c0,0,0,0,0,0C1217.4,824.7,1218.8,833.5,1218.8,842.5z" style="fill: rgb(245, 170, 149);"/>
			<path class="st6" d="M1213.5,859.6c-3.7-4.8-7.5-9.6-11.2-14.3c-2.4-3-4.8-6.1-7.2-9.1c-1.3-1.7-2.7-3.4-4-5.1&#10;&#9;&#9;&#9;&#9;c2.1-1.3,4.3-2.7,6.4-4c3.1-2,6.3-3.9,9.4-5.8c2.6-1.5,5.1-3.1,7.7-4.6c0,0,0,0,0,0c-0.7-2.2-1.5-4.4-2.4-6.5&#10;&#9;&#9;&#9;&#9;c-0.2-0.4-0.3-0.8-0.5-1.2c-0.1-0.3-0.3-0.6-0.4-0.9c-8.7,5.2-17.3,10.5-25.9,15.8c-10.8-13.8-21.6-27.5-32.3-41.3&#10;&#9;&#9;&#9;&#9;c7.5-4.5,15.1-8.9,22.7-13.2c0,0,0,0,0,0c-3.2-1.8-6.5-3.4-10-4.8h0c-6.1,3.6-12.3,7.1-18.4,10.8c-4.4-5.6-8.7-11.1-13.1-16.7&#10;&#9;&#9;&#9;&#9;h-11.5c5.6,7.1,11.2,14.2,16.7,21.4c-12,7.2-23.9,14.5-35.7,21.9c-8.3-9.9-16.6-19.8-24.8-29.8c6.8-4.8,13.8-9.4,21-13.5h-16.8&#10;&#9;&#9;&#9;&#9;c-3.3,2.2-6.6,4.4-9.8,6.6c-1.8-2.2-3.6-4.4-5.4-6.6h-11.7c3.2,3.9,6.4,7.9,9.6,11.8c-11.9,8.1-23.8,16.3-35.6,24.6&#10;&#9;&#9;&#9;&#9;c-7.6-8.3-15.2-16.6-22.8-24.9c6.2-3.9,12.4-7.7,18.7-11.5h-17.5c-2.5,1.5-5,3.1-7.5,4.6l-4.2-4.6h-12.4c2.9,3.2,5.8,6.4,8.8,9.6&#10;&#9;&#9;&#9;&#9;c-9,5.7-18,11.5-27,17.3c-0.8-1-1.6-2.1-2.5-3.1c-6.2-7.9-12.3-15.8-18.4-23.8h-22c-10.2,6.7-20.3,13.4-30.3,20.3&#10;&#9;&#9;&#9;&#9;c-0.5-0.7-1-1.3-1.6-1.9c-4.6-5.8-9.2-11.6-13.8-17.5c0.5-0.3,1-0.6,1.4-0.9h-16.6c-12,7.9-23.8,16.1-35.5,24.4&#10;&#9;&#9;&#9;&#9;c-5.4-6.5-10.7-13-15.9-19.6c2.1-1.6,4.1-3.2,6.2-4.8h-21.5c0.8,1.1,1.7,2.2,2.5,3.3c0,0,0,0,0,0c-8.7,6.8-17.4,13.6-26.2,20.4&#10;&#9;&#9;&#9;&#9;c-4.7-5.8-9.3-11.6-13.9-17.5c0,0,0,0,0,0c-1.4,0.6-2.8,1.2-4.2,1.9c-1.4,0.7-2.8,1.4-4.1,2.1c5,6.4,10,12.8,15.1,19.1&#10;&#9;&#9;&#9;&#9;c0,0,0,0,0,0c-9.8,7.6-19.6,15.3-29.4,22.9c-4.6-5.7-9.3-11.5-13.8-17.3c0,0,0,0,0,0c-1.9,2.6-3.6,5.3-5.1,8.1&#10;&#9;&#9;&#9;&#9;c3.9,4.9,7.9,9.9,11.8,14.8c0,0,0,0,0,0c-2.9,2.2-5.7,4.4-8.5,6.7c-4.1,3.2-8.3,6.5-12.4,9.7c-0.3-0.3-0.6-0.6-0.8-1&#10;&#9;&#9;&#9;&#9;c-0.1,0.6-0.2,1.2-0.2,1.8c-0.3,3-0.5,6-0.5,9c0,0.9,0,1.8,0,2.6v0.2c0,0,0.1,0,0.1-0.1c5.2,6.2,10.5,12.4,15.9,18.5&#10;&#9;&#9;&#9;&#9;c0.2,0.2,0.4,0.4,0.6,0.7c-0.5,0.4-0.9,0.8-1.4,1.2c-3.1,2.6-6.2,5.3-9.2,8c0.3,0.9,0.7,1.7,1.1,2.6c0.9,2,1.9,4.1,2.9,6&#10;&#9;&#9;&#9;&#9;c4.2-3.7,8.4-7.4,12.6-11c6.3,7.1,12.6,14,19.1,21c-4.7,4.2-9.4,8.4-14.1,12.6c2.3,2.1,4.7,4,7.2,5.8c4.4-3.9,8.7-7.8,13.1-11.7&#10;&#9;&#9;&#9;&#9;c8.2,8.7,16.5,17.2,25,25.7c-0.4,0.3-0.8,0.7-1.2,1c0.8,0.1,1.7,0.2,2.6,0.3c3.2,0.4,6.4,0.6,9.7,0.6h3.9&#10;&#9;&#9;&#9;&#9;c-0.5-0.4-0.9-0.9-1.4-1.4c6-5,12.1-10,18.2-14.9c5.2,5.5,10.4,10.9,15.6,16.3h12.8c-7.2-7.3-14.3-14.6-21.3-22&#10;&#9;&#9;&#9;&#9;c9.4-7.6,19-15.1,28.5-22.5c0,0,0,0,0,0c8.8,9.4,17.6,18.8,26.6,28.1c-0.1,0.1-0.1,0.1-0.2,0.2c-7,5.4-14,10.9-21,16.3h14.8&#10;&#9;&#9;&#9;&#9;c4.3-3.3,8.5-6.6,12.8-9.9c3.3,3.3,6.6,6.6,9.8,9.9h12.9c-5.2-5.2-10.3-10.3-15.5-15.5c9.4-7.2,18.9-14.4,28.4-21.5&#10;&#9;&#9;&#9;&#9;c3.5,3.3,7,6.5,10.5,9.8c5.7,5.2,11.6,10.4,17.4,15.5c-5,3.9-10,7.9-15,11.8h14.7c2.5-1.9,4.9-3.9,7.3-5.8&#10;&#9;&#9;&#9;&#9;c2.3,1.9,4.5,3.9,6.8,5.8h14.2c-4.6-3.8-9.1-7.6-13.6-11.5c8.6-6.6,17.2-13.2,26-19.7c5.5,5.7,11,11.5,16.6,17.1&#10;&#9;&#9;&#9;&#9;c4.7,4.7,9.3,9.4,14,14h13.1c-12.3-12-24.4-24.2-36.3-36.7c1.2-0.9,2.5-1.8,3.7-2.7c6.8-5,13.7-10,20.6-14.9&#10;&#9;&#9;&#9;&#9;c2.2-1.6,4.4-3.2,6.6-4.7c1.1,1.3,2.2,2.5,3.2,3.8c3.8,4.4,7.6,8.9,11.4,13.3c6.6,7.7,13.3,15.3,20,22.9c0.8,0.9,1.6,1.8,2.4,2.7&#10;&#9;&#9;&#9;&#9;c-3.1,2.3-6.1,4.6-9.2,6.9c-4.1,3.1-8.2,6.3-12.3,9.4h15c4.2-3.2,8.4-6.4,12.6-9.5c2.8,3.2,5.7,6.3,8.6,9.5h12.3&#10;&#9;&#9;&#9;&#9;c-4.5-5-9-10-13.5-15c10.4-7.7,20.9-15.2,31.4-22.7c10.2,11.1,20.4,22.3,30.6,33.4c-1.6,1.4-3.3,2.8-4.9,4.3h5.2&#10;&#9;&#9;&#9;&#9;c1.2,0,2.3,0,3.5-0.1c1.9-0.1,3.9-0.2,5.8-0.4c1.8-0.2,3.7-0.5,5.5-0.8c-0.7-0.7-1.3-1.5-2-2.2c9.8-8.3,19.8-16.5,29.8-24.5&#10;&#9;&#9;&#9;&#9;c3.1,3.4,6.2,6.7,9.4,10c2.4-1.9,4.7-3.9,6.8-6c0,0,0,0,0,0c-3-3.2-6-6.4-9-9.7c7.2-5.6,14.4-11.1,21.7-16.6&#10;&#9;&#9;&#9;&#9;c1.8-1.4,3.7-2.8,5.6-4.1c0.4,0.5,0.7,0.9,1.1,1.4c0.4-1,0.8-2,1.1-3c0.8-2.4,1.6-4.9,2.2-7.4c0.6-2.1,1-4.3,1.4-6.4&#10;&#9;&#9;&#9;&#9;C1216.3,857.6,1214.9,858.6,1213.5,859.6z M1145.3,787.1c10.8,13.8,21.7,27.7,32.5,41.5c-8.7,5.5-17.3,11-25.9,16.6&#10;&#9;&#9;&#9;&#9;c-2.2,1.4-4.4,2.9-6.5,4.3c-1.3-1.4-2.5-2.9-3.8-4.3c-10.7-12-21.2-24.2-31.6-36.4C1121.6,801.4,1133.4,794.2,1145.3,787.1z&#10;&#9;&#9;&#9;&#9; M1061.4,784.4c3.4-2.3,6.8-4.7,10.2-7.2c8.1,9.9,16.3,19.7,24.5,29.4c-11.6,7.4-23.1,14.8-34.5,22.4c-0.3-0.3-0.5-0.6-0.8-0.9&#10;&#9;&#9;&#9;&#9;c-8.1-8.9-16.2-17.7-24.3-26.6c0.4-0.3,0.8-0.6,1.3-0.9C1045.7,795.3,1053.6,789.8,1061.4,784.4z M984.5,784.6&#10;&#9;&#9;&#9;&#9;c5.1-3.3,10.1-6.5,15.2-9.7c7,7.6,13.9,15.2,20.9,22.8c0.7,0.8,1.5,1.6,2.2,2.4c-5.9,4.1-11.8,8.3-17.7,12.5&#10;&#9;&#9;&#9;&#9;c-1.1,0.7-2.1,1.5-3.2,2.2c-2.5,1.8-5,3.6-7.5,5.3c-2.1-2.5-4.1-5.1-6.2-7.6c-4-4.9-8-9.9-11.9-14.9c-1.4-1.7-2.8-3.5-4.1-5.2&#10;&#9;&#9;&#9;&#9;C976.3,789.9,980.3,787.2,984.5,784.6z M964.5,797.6C964.5,797.6,964.5,797.6,964.5,797.6c0.1,0,0.1,0.1,0.2,0.2&#10;&#9;&#9;&#9;&#9;c3.9,5,7.9,9.9,11.9,14.9c3.5,4.3,6.9,8.6,10.4,12.9c-9.1,6.5-18.2,13.1-27.3,19.7c-2,1.5-4,3-6.1,4.4c-1.3-1.5-2.7-3-4-4.4&#10;&#9;&#9;&#9;&#9;c-7-7.8-13.9-15.7-20.7-23.6c4.4-3,8.8-6,13.2-9c7.4-5,14.8-10,22.2-14.9C964.4,797.7,964.5,797.6,964.5,797.6z M946.2,855.1&#10;&#9;&#9;&#9;&#9;c-7.7,5.7-15.4,11.4-23.1,17.1c-2.4,1.8-4.7,3.5-7.1,5.3c-1.8-1.8-3.7-3.5-5.5-5.3c-7.4-7.1-14.8-14.4-22-21.8&#10;&#9;&#9;&#9;&#9;c2.4-1.8,4.8-3.5,7.2-5.2c8.5-6.2,17.1-12.3,25.8-18.3c0,0,0,0,0,0c5.3,6.1,10.6,12.3,16,18.3&#10;&#9;&#9;&#9;&#9;C940.3,848.5,943.3,851.8,946.2,855.1z M902.3,783.7c11.2-7.6,22.5-15.1,33.9-22.5l0,0c7.5,9.8,15.1,19.5,22.7,29.2c0,0,0,0,0,0&#10;&#9;&#9;&#9;&#9;c-3.7,2.4-7.3,4.9-11,7.3c-7.3,4.9-14.6,9.9-21.9,14.9c-1,0.7-2,1.4-3,2.1c-0.6-0.7-1.2-1.4-1.8-2.1c-4.2-4.9-8.3-9.9-12.5-14.9&#10;&#9;&#9;&#9;&#9;c-3.3-3.9-6.5-7.9-9.7-11.8C900.1,785.2,901.2,784.4,902.3,783.7z M891.5,791.1c1.8,2.3,3.7,4.5,5.5,6.8c4,4.9,8.1,9.9,12.2,14.8&#10;&#9;&#9;&#9;&#9;c2,2.4,4.1,4.9,6.2,7.3c0,0,0,0,0,0c-11.2,7.9-22.4,15.8-33.5,24c-0.5-0.5-1-1-1.4-1.5c-5.8-6.1-11.6-12.2-17.3-18.4&#10;&#9;&#9;&#9;&#9;c-2.3-2.5-4.6-5.1-7-7.6C867.9,807.8,879.7,799.3,891.5,791.1C891.5,791.1,891.5,791.1,891.5,791.1z M870.3,764.4L870.3,764.4&#10;&#9;&#9;&#9;&#9;c5.1,6.6,10.3,13.1,15.5,19.6h0c-12,8.3-23.9,16.9-35.6,25.6c-5.8-6.5-11.4-13.1-17.1-19.7C845.4,781.2,857.8,772.7,870.3,764.4z&#10;&#9;&#9;&#9;&#9; M825.8,795.2c5.6,6.7,11.4,13.3,17.2,19.8c0,0,0,0,0,0c-8.8,6.6-17.5,13.3-26.2,20.1c-5.9-6.8-11.7-13.6-17.5-20.4&#10;&#9;&#9;&#9;&#9;C808,808.1,816.8,801.6,825.8,795.2C825.8,795.2,825.8,795.2,825.8,795.2z M762.8,843.1c9.6-7.8,19.3-15.4,29.1-22.9h0&#10;&#9;&#9;&#9;&#9;c5.8,6.9,11.7,13.7,17.6,20.5c0,0,0,0,0,0c-1.9,1.5-3.8,3-5.6,4.5c-7.7,6.2-15.3,12.4-22.9,18.7c-5.5-6.2-10.9-12.4-16.3-18.7&#10;&#9;&#9;&#9;&#9;C764.1,844.5,763.5,843.8,762.8,843.1z M804.2,768.9C804.2,768.9,804.2,768.9,804.2,768.9c5.2,6.5,10.4,12.9,15.7,19.2&#10;&#9;&#9;&#9;&#9;c0,0,0,0,0,0c-8.9,6.4-17.8,12.9-26.5,19.5c-5.1-6.1-10.2-12.3-15.2-18.5C786.8,782.5,795.5,775.7,804.2,768.9z M771,794.8&#10;&#9;&#9;&#9;&#9;L771,794.8c5,6.2,10,12.3,15.1,18.4c0,0,0,0,0,0c-9.8,7.5-19.5,15.1-29.2,22.9c-5.1-6.1-10.2-12.2-15.3-18.4&#10;&#9;&#9;&#9;&#9;C751.4,810.1,761.2,802.5,771,794.8z M724.9,852.8c-2.2-2.5-4.4-5.1-6.6-7.6c-1.6-1.8-3.2-3.7-4.7-5.6c3.3-2.6,6.6-5.2,10-7.8&#10;&#9;&#9;&#9;&#9;c3.7-2.8,7.3-5.7,10.9-8.5c5.1,6.2,10.2,12.4,15.4,18.5l-4.1,3.4c-5.3,4.4-10.7,8.8-15.9,13.3&#10;&#9;&#9;&#9;&#9;C728.2,856.6,726.5,854.8,724.9,852.8z M754.8,886.2c-6.4-6.9-12.7-13.8-19-20.8c6.6-5.6,13.2-11.1,19.9-16.6c0,0,0,0,0,0&#10;&#9;&#9;&#9;&#9;c6,7,12.1,14,18.2,21v0c-6.3,5.3-12.6,10.7-18.8,16.1C755.1,886,755,886.1,754.8,886.2z M786.3,918.7&#10;&#9;&#9;&#9;&#9;c-8.5-8.5-16.9-17.1-25.2-25.8c6.3-5.5,12.6-10.9,19-16.3c8.1,9.1,16.3,18,24.6,26.9C798.5,908.6,792.4,913.6,786.3,918.7z&#10;&#9;&#9;&#9;&#9; M812.7,897.1c-0.3,0.2-0.6,0.5-0.9,0.7c-8.3-8.9-16.6-17.9-24.7-27c9.4-7.9,18.9-15.6,28.5-23.2c0,0,0,0,0,0&#10;&#9;&#9;&#9;&#9;c8.2,9.3,16.5,18.5,24.8,27.7C831.1,882.4,821.9,889.7,812.7,897.1z M825.6,845.2c-1-1.1-1.9-2.2-2.9-3.3&#10;&#9;&#9;&#9;&#9;c8.7-6.8,17.4-13.5,26.3-20.1c4,4.5,8.1,8.9,12.2,13.3c3.2,3.4,6.3,6.8,9.6,10.1c1.3,1.4,2.6,2.7,3.9,4.1c0,0,0,0,0,0&#10;&#9;&#9;&#9;&#9;c-4,3-8.1,6-12.1,9c-5,3.7-9.9,7.5-14.9,11.3C840.2,861.6,832.9,853.4,825.6,845.2z M880.5,904.4c-9-9.3-17.9-18.6-26.7-28.1&#10;&#9;&#9;&#9;&#9;c4.1-3.1,8.1-6.2,12.2-9.3c5-3.8,9.9-7.5,14.9-11.1c0,0,0,0,0,0c1.3,1.3,2.6,2.7,3.9,4c3.5,3.5,6.9,7,10.4,10.4&#10;&#9;&#9;&#9;&#9;c4.4,4.3,8.8,8.5,13.2,12.8c-1.8,1.3-3.5,2.7-5.3,4C895.7,892.8,888.1,898.6,880.5,904.4z M977.2,888.7c-8.7,6.5-17.4,13-26,19.7&#10;&#9;&#9;&#9;&#9;c-0.2,0.2-0.5,0.4-0.7,0.6c-8.2-7.2-16.3-14.4-24.3-21.8c-1.2-1.1-2.4-2.2-3.5-3.3c5.2-3.9,10.4-7.8,15.6-11.6&#10;&#9;&#9;&#9;&#9;c4.7-3.5,9.3-6.9,14-10.3c3.1,3.5,6.3,6.9,9.5,10.3c4.6,5,9.2,10,13.9,14.9C976.2,887.6,976.7,888.2,977.2,888.7z M999.6,872.2&#10;&#9;&#9;&#9;&#9;c-5,3.6-10,7.3-15,11c-3.5-3.7-6.9-7.3-10.3-11c-4.9-5.2-9.7-10.5-14.5-15.8c5.1-3.8,10.3-7.5,15.4-11.2&#10;&#9;&#9;&#9;&#9;c5.9-4.2,11.7-8.5,17.6-12.7c3.5,4.2,7,8.5,10.5,12.7c4.2,5.1,8.5,10.2,12.8,15.3C1010.5,864.4,1005.1,868.3,999.6,872.2z&#10;&#9;&#9;&#9;&#9; M1023.5,855.2c-2.8-3.3-5.6-6.7-8.4-10c-5-6-10-12-14.9-18c6.9-4.9,13.7-9.8,20.6-14.6c2.7-1.9,5.5-3.8,8.2-5.8&#10;&#9;&#9;&#9;&#9;c8.3,9.1,16.7,18.2,25,27.4c-3.9,2.6-7.8,5.3-11.7,7.9c-1.5,1-2.9,2-4.4,3C1033.1,848.5,1028.3,851.9,1023.5,855.2z&#10;&#9;&#9;&#9;&#9; M1066.4,904.7c-7.2-8.1-14.4-16.3-21.5-24.5c-4-4.6-7.9-9.2-11.9-13.8c-1.2-1.4-2.4-2.8-3.6-4.2c3.6-2.5,7.3-5.1,10.9-7.6&#10;&#9;&#9;&#9;&#9;c4.6-3.2,9.1-6.3,13.7-9.4c2.1-1.4,4.1-2.8,6.2-4.2c0.5,0.6,1.1,1.2,1.6,1.8c0.7,0.8,1.5,1.6,2.2,2.4&#10;&#9;&#9;&#9;&#9;c11.2,12.3,22.5,24.5,33.7,36.8C1087.2,889.5,1076.8,897,1066.4,904.7z M1076.4,845.2c-2.8-3.1-5.7-6.2-8.5-9.3&#10;&#9;&#9;&#9;&#9;c11.3-7.5,22.7-14.9,34.2-22.2c9,10.6,18.1,21.1,27.3,31.5c2.8,3.1,5.5,6.3,8.3,9.4c-10.9,7.3-21.7,14.7-32.4,22.2&#10;&#9;&#9;&#9;&#9;C1095.6,866.3,1086,855.7,1076.4,845.2z M1141.4,916.3c-10-10.9-20-21.8-30-32.8c10.7-7.5,21.5-14.8,32.3-22&#10;&#9;&#9;&#9;&#9;c9.1,10.2,18.2,20.3,27.4,30.3C1161.1,899.8,1151.2,908,1141.4,916.3z M1178.4,886.1c-9-9.8-18-19.7-27-29.7&#10;&#9;&#9;&#9;&#9;c5.7-3.8,11.4-7.5,17.2-11.2c4.9-3.2,9.9-6.3,14.8-9.4c2.5,3.1,4.9,6.3,7.4,9.4c1.2,1.5,2.4,3.1,3.6,4.7c3.9,5,7.9,10,11.8,15.1&#10;&#9;&#9;&#9;&#9;c-2,1.5-4,3-6.1,4.5C1192.8,874.9,1185.6,880.5,1178.4,886.1z" style="fill: rgb(244, 124, 108);"/>
		</g>
		<g>
			<path class="st17" d="M1022.7,887.1H900.2c-21.6,0-39.1-17.5-39.1-39.1v-11.1c0-21.6,17.5-39.1,39.1-39.1h122.5&#10;&#9;&#9;&#9;&#9;c21.6,0,39.1,17.5,39.1,39.1V848C1061.8,869.6,1044.3,887.1,1022.7,887.1z" style="fill: rgb(133, 162, 192);"/>
			<path class="st18" d="M903.4,872.2c-12.6,0-22.8-13.4-22.8-29.8s10.2-29.8,22.8-29.8h116.1c12.6,0,22.8,13.4,22.8,29.8&#10;&#9;&#9;&#9;&#9;s-10.2,29.8-22.8,29.8H903.4z" style="fill: rgb(195, 213, 227);"/>
		</g>
	</g>
	<path class="st16" d="M1241.5,854.2c-2.1,2.8-5.8,4.2-9.3,3.7c3.6,2.2,5.9,6.5,5.6,10.7c-0.4,5.6-4.6,10.5-9.9,12.4&#10;&#9;&#9;c-5.2,1.9-11.2,1.2-16.3-1.3c-0.4-0.2-0.8-0.4-1.2-0.6c-4.1,8.5-9.6,16.2-16.2,22.8c-0.2,0.2-0.4,0.4-0.6,0.6&#10;&#9;&#9;c-2.2,2.1-4.5,4.1-6.8,6c0,0,0,0,0,0c-10.6,8.4-23.3,14.2-37.2,16.7c-1.8,0.3-3.7,0.6-5.5,0.8c-1.9,0.2-3.8,0.3-5.8,0.4&#10;&#9;&#9;c-1.2,0.1-2.3,0.1-3.5,0.1H790.3c-3.3,0-6.5-0.2-9.7-0.6c-0.9-0.1-1.7-0.2-2.6-0.3c-13.7-2-26.3-7.3-37-15&#10;&#9;&#9;c-2.5-1.8-4.9-3.7-7.2-5.8c-7.1-6.4-13.1-14-17.6-22.5c-1.1-2-2.1-4-2.9-6c-1.7,1.4-3.5,2.5-5.5,3.5c-5,2.4-11,3.2-16.3,1.3&#10;&#9;&#9;c-5.2-1.9-9.5-6.8-9.8-12.4c-0.3-4.2,2-8.5,5.6-10.7c-3.4,0.4-7.2-0.9-9.3-3.7c-1.9-2.5-2.3-6-1.4-9h566.1&#10;&#9;&#9;C1243.8,848.2,1243.4,851.7,1241.5,854.2z" style="opacity: 0.26; fill: rgb(179, 48, 38);"/>
</g>
<g>
	<g>
		<path class="st6" d="M209.2,827.2c0,44.7-35.3,81.1-79.5,83c-1.2,0-2.4,0.1-3.6,0.1c-45.9,0-83.1-37.2-83.1-83.1&#10;&#9;&#9;&#9;c0-45.9,37.2-83.1,83.1-83.1c1.2,0,2.4,0,3.6,0.1C173.9,746.1,209.2,782.5,209.2,827.2z" style="fill: rgb(244, 124, 108);"/>
		<path d="M 196.5 827.200012 A 70.400002 70.400002 0 0 1 126.099998 897.600014 A 70.400002 70.400002 0 0 1 55.699997 827.200012 A 70.400002 70.400002 0 0 1 126.099998 756.800011 A 70.400002 70.400002 0 0 1 196.5 827.200012 Z" class="st14" style="fill: rgb(245, 170, 149);"/>
		
			<path d="M 106.800003 771.900024 H 119.500003 V 784.600024 H 106.800003 V 771.900024 Z" transform="matrix(0.7071 0.7071 -0.7071 0.7071 583.4357 147.9424)" class="st3" style="fill: rgb(255, 97, 50);"/>
		
			<path d="M 130.5 796 H 143.2 V 808.7 H 130.5 V 796 Z" transform="matrix(0.7071 0.7071 -0.7071 0.7071 607.4016 138.2236)" class="st3" style="fill: rgb(255, 97, 50);"/>
		
			<path d="M 166.199997 820.900024 H 178.899997 V 833.600024 H 166.199997 V 820.900024 Z" transform="matrix(0.2198 0.9756 -0.9756 0.2198 941.5803 477.123)" class="st3" style="fill: rgb(255, 97, 50);"/>
		
			<path d="M 71.099998 796 H 83.799998 V 808.7 H 71.099998 V 796 Z" transform="matrix(0.7071 0.7071 -0.7071 0.7071 590.0059 180.2208)" class="st3" style="fill: rgb(255, 97, 50);"/>
		
			<path d="M 94 831.099976 H 106.7 V 843.799975 H 94 V 831.099976 Z" transform="matrix(0.7071 0.7071 -0.7071 0.7071 621.5172 174.3432)" class="st3" style="fill: rgb(255, 97, 50);"/>
		<path d="M 137.899994 769.299988 A 6 6 0 0 1 131.899994 775.299988 A 6 6 0 0 1 125.899994 769.299988 A 6 6 0 0 1 131.899994 763.299988 A 6 6 0 0 1 137.899994 769.299988 Z" class="st15" style="fill: rgb(255, 255, 255);"/>
		<path d="M 114.800003 807.299988 A 5 5 0 0 1 109.800003 812.299988 A 5 5 0 0 1 104.800003 807.299988 A 5 5 0 0 1 109.800003 802.299988 A 5 5 0 0 1 114.800003 807.299988 Z" class="st15" style="fill: rgb(255, 255, 255);"/>
		<path d="M 136.799997 837.400024 A 7.1 7.1 0 0 1 129.699997 844.500024 A 7.1 7.1 0 0 1 122.599997 837.400024 A 7.1 7.1 0 0 1 129.699997 830.300025 A 7.1 7.1 0 0 1 136.799997 837.400024 Z" class="st15" style="fill: rgb(255, 255, 255);"/>
		<path d="M 74 837.400024 A 5.5 5.5 0 0 1 68.5 842.900024 A 5.5 5.5 0 0 1 63 837.400024 A 5.5 5.5 0 0 1 68.5 831.900024 A 5.5 5.5 0 0 1 74 837.400024 Z" class="st15" style="fill: rgb(255, 255, 255);"/>
		<path d="M 168.100006 793.400024 A 4.5 4.5 0 0 1 163.600006 797.900024 A 4.5 4.5 0 0 1 159.100006 793.400024 A 4.5 4.5 0 0 1 163.600006 788.900024 A 4.5 4.5 0 0 1 168.100006 793.400024 Z" class="st15" style="fill: rgb(255, 255, 255);"/>
		<path d="M 190.999994 819.5 A 4.1 4.1 0 0 1 186.899994 823.6 A 4.1 4.1 0 0 1 182.799994 819.5 A 4.1 4.1 0 0 1 186.899994 815.4 A 4.1 4.1 0 0 1 190.999994 819.5 Z" class="st15" style="fill: rgb(255, 255, 255);"/>
		<path d="M 104.200003 862.900024 A 3.9 3.9 0 0 1 100.300003 866.800025 A 3.9 3.9 0 0 1 96.400003 862.900024 A 3.9 3.9 0 0 1 100.300003 859.000024 A 3.9 3.9 0 0 1 104.200003 862.900024 Z" class="st15" style="fill: rgb(255, 255, 255);"/>
		
			<path d="M 152.800003 852.700012 H 165.500003 V 865.400012 H 152.800003 V 852.700012 Z" transform="matrix(0.2198 0.9756 -0.9756 0.2198 962.121 514.9788)" class="st3" style="fill: rgb(255, 97, 50);"/>
		
			<path d="M 121.599998 868 H 134.299998 V 880.7 H 121.599998 V 868 Z" transform="matrix(0.2198 0.9756 -0.9756 0.2198 952.7221 557.3797)" class="st3" style="fill: rgb(255, 97, 50);"/>
	</g>
	<path class="st16" d="M209.2,827.2c0,44.7-35.3,81.1-79.5,83v-166C173.9,746.1,209.2,782.5,209.2,827.2z" style="opacity: 0.26; fill: rgb(179, 48, 38);"/>
</g>
<g>
	<g>
		<path class="st3" d="M379.2,827.2c0,36.6-29.7,66.3-66.3,66.3h-0.3c-36.5-0.2-66-29.8-66-66.3c0-36.5,29.5-66.2,66-66.3h0.3&#10;&#9;&#9;&#9;C349.5,760.9,379.2,790.6,379.2,827.2z" style="fill: rgb(255, 97, 50);"/>
		<path d="M 362.699993 827.200012 A 49.799999 49.799999 0 0 1 312.899994 877.000011 A 49.799999 49.799999 0 0 1 263.099995 827.200012 A 49.799999 49.799999 0 0 1 312.899994 777.400013 A 49.799999 49.799999 0 0 1 362.699993 827.200012 Z" class="st6" style="fill: rgb(244, 124, 108);"/>
	</g>
	<path class="st16" d="M379.2,827.2c0,36.6-29.7,66.3-66.3,66.3h-0.3V760.9h0.3C349.5,760.9,379.2,790.6,379.2,827.2z" style="opacity: 0.26; fill: rgb(179, 48, 38);"/>
</g>
<g>
	<path class="st3" d="M517.3,827.2c0,27.5-22.3,49.8-49.8,49.8c-27.5,0-49.8-22.3-49.8-49.8c0-27.5,22.3-49.8,49.8-49.8&#10;&#9;&#9;C495.1,777.4,517.3,799.7,517.3,827.2z" style="fill: rgb(255, 97, 50);"/>
	<path class="st16" d="M517.3,827.2c0,27.5-22.3,49.8-49.8,49.8v-99.5C495.1,777.4,517.3,799.7,517.3,827.2z" style="opacity: 0.26; fill: rgb(179, 48, 38);"/>
</g>
</svg>