<?xml version="1.0" encoding="iso-8859-1"?>
<!-- Generator: Adobe Illustrator 19.0.0, SVG Export Plug-In . SVG Version: 6.00 Build 0)  -->
<svg xmlns="http://www.w3.org/2000/svg" xmlns:xlink="http://www.w3.org/1999/xlink" version="1.1" id="Layer_1" x="0px" y="0px" viewBox="0 0 505.127 505.127" style="enable-background:new 0 0 505.127 505.127;" xml:space="preserve" width="512" height="512">
<g>
	<g>
		<path style="fill:#E4E4EF;" d="M282.158,497.627c-36.943,0-75.791-6.726-109.389-18.94    c-38.638-14.046-69.797-34.969-90.112-60.507c-25.514-32.075-33.936-70.969-24.354-112.477    c17.989-77.924,58.314-152.355,113.55-209.581C226.214,39.801,288.776,7.5,343.496,7.5c17.185,0,33.491,3.134,48.463,9.314    c36.348,15.004,55.776,38.654,57.742,70.292c1.543,24.825-7.968,49.58-18.038,75.789c-14.418,37.526-28.036,72.97-10.387,106.284    c28.977,54.696,36.583,102.21,22.607,141.221c-11.418,31.866-36.491,56.076-74.527,71.957    C345.431,492.347,315.278,497.627,282.158,497.627z"/>
		<path style="fill:#F95C5C;" d="M381.756,41.531c107.835,44.514-35.238,143.658,15.891,240.166    c27.014,50.989,55.62,136.646-38.594,175.984S52.782,448.502,84.358,311.718C125.222,134.699,283.581,1.005,381.756,41.531z"/>
		<circle style="fill:#E4E4EF;" cx="317.926" cy="129.153" r="40.31"/>
	</g>
	<g>
		<path d="M317.926,81.343c-26.362,0-47.81,21.447-47.81,47.81s21.447,47.81,47.81,47.81s47.81-21.447,47.81-47.81    S344.288,81.343,317.926,81.343z M317.926,161.963c-18.091,0-32.81-14.719-32.81-32.81s14.719-32.81,32.81-32.81    s32.81,14.719,32.81,32.81S336.016,161.963,317.926,161.963z"/>
		<path d="M427.903,265.667c-16.051-30.297-3.027-64.193,10.762-100.082c1.094-2.846,2.181-5.676,3.248-8.49    c1.469-3.873-0.48-8.204-4.354-9.672c-3.867-1.468-8.202,0.479-9.672,4.353c-1.06,2.794-2.139,5.603-3.226,8.433    c-14.385,37.439-29.26,76.153-10.013,112.481c27.949,52.756,35.409,98.237,22.173,135.18    c-10.677,29.799-34.348,52.532-70.355,67.565c-23.018,9.611-52.171,14.691-84.309,14.691c-36.091,0-74.029-6.566-106.827-18.489    c-37.335-13.572-67.352-33.672-86.805-58.127c-24.041-30.224-31.965-66.919-22.916-106.121    c17.688-76.619,57.335-149.799,111.639-206.06C230.204,46.466,290.799,15,343.496,15c16.198,0,31.541,2.943,45.603,8.747    c33.474,13.818,51.345,35.292,53.118,63.825c0.688,11.074-0.939,22.974-5.122,37.449c-1.15,3.979,1.144,8.137,5.123,9.287    c3.978,1.151,8.137-1.144,9.287-5.123c4.676-16.18,6.481-29.699,5.683-42.544c-2.158-34.742-23.142-60.568-62.366-76.759    C378.936,3.325,361.668,0,343.496,0c-56.745,0-121.273,33.137-177.04,90.913c-56.166,58.19-97.17,133.871-115.461,213.103    C40.881,347.829,49.8,388.92,76.787,422.849c21.177,26.622,53.481,48.368,93.419,62.887    c34.398,12.505,74.157,19.392,111.952,19.392c34.104,0,65.257-5.481,90.088-15.85c40.062-16.726,66.539-42.413,78.697-76.348    C465.661,371.852,457.91,322.305,427.903,265.667z"/>
		<path d="M430.499,88.3c-1.492-24.007-16.501-41.573-45.882-53.701c-33.729-13.924-74.555-9.421-118.059,13.02    c-7.781,4.014-15.563,8.585-23.293,13.659l-0.01-0.015c-0.435,0.275-0.855,0.564-1.264,0.863    c-32.311,21.458-63.668,51.731-90.245,87.445c-35.711,47.987-61.541,103.474-74.695,160.461    c-9.918,42.964,2.285,81.61,35.291,111.76c3.058,2.793,7.802,2.579,10.596-0.479c2.793-3.058,2.579-7.802-0.479-10.596    c-11.753-10.737-20.448-22.461-26.076-35.111c7.242,4.197,15.534,6.326,24.735,6.325c9.305-0.001,19.54-2.171,30.541-6.561    c29.581-11.803,64.444-40.419,90.985-74.682c12.745-16.453,22.674-33.067,28.715-48.047c0.622-1.542,1.187-3.055,1.724-4.554    c23.962,75.268,46.46,158.242,21.701,194.499c-8.164,11.954-21.175,18.331-39.751,19.502c-0.72-0.068-1.44-0.133-2.161-0.206    c-41.088-4.175-79.708-16.535-108.744-34.804c-3.507-2.207-8.137-1.151-10.342,2.354c-2.206,3.506-1.152,8.136,2.354,10.342    c30.955,19.476,71.873,32.627,115.216,37.031c10.297,1.046,20.516,1.561,30.5,1.561c30.335,0,58.499-4.75,80.088-13.764    c32.836-13.71,54.31-34.13,63.827-60.692c12.076-33.707,4.844-76.007-21.496-125.724c-21.747-41.049-5.898-82.299,9.429-122.191    C423,131.797,431.782,108.942,430.499,88.3z M230.785,291.502c-24.997,32.269-57.446,59.067-84.686,69.936    c-9.101,3.631-17.311,5.444-24.619,5.443c-0.516,0-1.027-0.009-1.534-0.027c-18.387-0.659-32.289-16.859-31.038-35.216    c0.405-5.936,1.322-12.014,2.757-18.233c12.693-54.985,37.629-108.542,72.114-154.88c20.247-27.207,43.306-51.083,67.35-70.018    c-0.837,27.518,13.296,71.38,30.939,125.534C267.149,230.005,254.87,260.409,230.785,291.502z M391.02,285.208    c23.941,45.19,31.074,84.487,20.629,113.642c-8.035,22.427-26.703,39.892-55.485,51.91c-16.459,6.872-37.244,11.036-60.033,12.246    c4.208-3.395,7.904-7.371,11.039-11.962c32.429-47.487-0.722-149.224-29.971-238.985c-11.532-35.392-22.425-68.82-27.719-94.516    c-6.465-31.375-2.156-40.608,1.348-43.291c7.507-4.956,15.06-9.411,22.606-13.304c39.465-20.357,75.934-24.675,105.46-12.486    c16.294,6.726,35.183,17.438,36.633,40.767c1.081,17.381-7.132,38.755-15.826,61.384    C383.94,191.635,366.077,238.128,391.02,285.208z"/>
	</g>
</g>















</svg>
