<?xml version="1.0" encoding="utf-8"?>
<svg id="master-artboard" viewBox="0 0 1400 980" version="1.1" xmlns="http://www.w3.org/2000/svg" x="0px" y="0px" style="enable-background:new 0 0 1400 980;" width="1400px" height="980px" xmlns:xlink="http://www.w3.org/1999/xlink">

<path d="M 0.9 0 H 1399.999976 V 980 H 0.9 V 0 Z" class="st0" style="fill: rgb(224, 237, 231);" transform="matrix(1, 0, 0, 1, -2.842170943040401e-14, 0)"/><path d="M 130.199997 433.899994 H 378.199997 V 654 H 130.199997 V 433.899994 Z" class="st1" style="fill: rgb(102, 164, 136);" transform="matrix(1, 0, 0, 1, -2.842170943040401e-14, 0)"/><path class="st1" d="M1400,975.2c0-114.5,0-270.4,0-365.1c0-7.8,0-15.2,0-22.1c0-5.8,0-10.9,0-10.8c0-3.9,0-5.1,0-10.2&#10;&#9;&#9;c0-4.1,0-7.4,0-9.2c0-1.8,0,0.4,0-7.9c0-1.9,0-5.5,0-6.7c0-0.3,0-0.4,0-0.4c0-2,0-2.7,0-2.8c0-0.1,0-0.1,0-0.1c0-0.2,0-0.8,0-2.8&#10;&#9;&#9;c0-2.5,0,0.3,0-6.2c0,0,0,0,0,0c0-0.5,0-6.4,0-4.6c0-3.9-0.3,4.9-0.9,0.2c-0.6-3.8-1.5,5-2.8,0.7c-1.2,1.2-2.7-4.2-4.5,1.2&#10;&#9;&#9;c-1.8,0.1-3.9,1.8-6.3,1.6c-2.4-10-5-8.2-8,2c-1.5,0-3,2.9-4.6-3.7c-1.6,7.4-3.3-3.7-5,6c-1.7,4.8-3.6,5.1-5.4,3.4&#10;&#9;&#9;c-1.9,1.3-3.8-2.4-5.8-0.8c-2,3-4.1-3.6-6.2-0.2c-2.1-5.2-4.3-6.2-6.6,3.2c-2.3-2.1-4.6,2.2-7,5.9c-2.4-4.6-4.9-2.4-7.4-2.7&#10;&#9;&#9;c-2.5-1.5-5.1-4.8-7.8,2.8c-2.6,6.6-5.4,2.7-8.1,0.6c-2.8,2.5-5.6,5.6-8.5,7.7c-2.9,3.5-5.8-3.1-8.8-4c-3,5.1-6.1,7.3-9.2,11.1&#10;&#9;&#9;c-3.1-1-6.3-1.9-9.5-7.2c-3.2-4.8-6.5-11.2-9.9,0.4c-3.4,3.9-6.8,3.9-10.2,3.6c-3.5-6.9-7-0.7-10.6,0.7c-3.6,2.9-7.2,1-10.9,3.5&#10;&#9;&#9;c-3.7-6.5-7.4,8.7-11.2,7.5c-3.8,11.3-7.6,3.3-11.5-3.3c-3.9,5.7-7.8,4.5-11.8,4.1c-4,10.5-8,5.1-12.1,0.2&#10;&#9;&#9;c-4.1,4.4-8.2,6.9-12.4,2.9c-4.2-4.6-8.4-5.2-12.7,1.4c-4.3-6.3-8.6,0.8-13-0.7c-4.4,4.5-8.8,2.5-13.3,5.1c-4.5-0.9-9,3.1-13.6,2.4&#10;&#9;&#9;c-4.6,4.9-9.2,1.6-13.9,2c-4.7,1.4-9.4-3.7-14.1-0.6c-4.8,3-9.6,2.2-14.4,4.9c-4.8,7.2-9.7-1.8-14.6,0.6c-4.9-5.6-9.9,0.6-14.9,3.7&#10;&#9;&#9;c-5,4.8-10.1,4.2-15.1,6.1c-5.1-1.9-10.2-1.5-15.4-2c-5.2-0.5-10.4,0.2-15.6-2.7c-5.2-2-10.5,6-15.9,6.7c-5.3,1-10.7,3.9-16.1,1.9&#10;&#9;&#9;c-5.4,1.7-10.8,3.6-16.3,2c-5.5-4.2-11,9.5-16.5,6.6c-5.5-1.6-11.1,5.7-16.7-2.9c-5.6,4.4-11.3,0.3-16.9,5.3&#10;&#9;&#9;c-5.7-8.2-11.4-3.9-17.1-1.9c-5.7,9.1-11.5,6-17.3,7.4c-5.8,0.2-11.7-0.7-17.5-4.1c-5.9-4.5-11.8-3.4-17.7,0.2&#10;&#9;&#9;c-5.9-4.8-11.9,3.3-17.9,2.8c-6,7.2-12-3.4-18.1,0.8c-6.1,3.3-12.1-4.6-18.2,1.9c-6.1-5.2-12.2,3.8-18.4-0.2&#10;&#9;&#9;c-6.2,4.9-12.3,3.5-18.6,2.5c-4.1,2.7-8.3-4.9-12.5,1.2c-4.2,1.8-8.3-5.4-12.5,2.7c-4.2,8.1-8.4,5.1-12.6-1.9&#10;&#9;&#9;c-4.2,3.5-8.4-2.8-12.7,0.9c-4.2,1.5-8.5-2.9-12.7-0.9c-4.2-2.3-8.5-8.1-12.8,1.6c-4.3,5.3-8.6-3.8-12.8,1.8&#10;&#9;&#9;c-4.3,7.4-8.6,2.9-12.9,1.7c-4.3-1.8-8.6,2.5-13-2.3c-4.3,1.3-8.7-1.9-13,1.4c-4.3,7-8.7,7.9-13.1-0.6c-4.4-4.8-8.7-2.4-13.1-0.1&#10;&#9;&#9;c-4.4-4.5-8.8,5.8-13.2-0.5c-4.4-1.5-8.8,0.8-13.2-0.1c-4.4,7.5-8.8,4.6-13.3,0.8c-6.5,1.3-12.8,0.7-19.1,0.7&#10;&#9;&#9;c-6.3-6.9-12.5,1.1-18.7,1.3c-6.2,0.1-12.3-2.8-18.3-2.7c-6,7.7-12,0.2-17.9,3.1c-5.9-3.4-11.7-3.3-17.4-4.4&#10;&#9;&#9;c-5.7-8.7-11.4,4.4-17-0.6c-5.6,9.4-11.2,12.3-16.6,4.8c-5.5,5.3-10.9,3.6-16.2-0.8c-5.3-1.3-10.6,0.1-15.8-7&#10;&#9;&#9;c-5.2,1.6-10.4-2.5-15.4-0.1c-5.1,3.2-10.1,9.4-15-0.9c-4.9,3.4-9.8,6.1-14.7-2.9c-4.8-7.1-9.6-5-14.3,1c-4.7-3.1-9.3,5-13.9-1.9&#10;&#9;&#9;c-4.6-2.4-9.1,1.7-13.5-3.9c-4.4,6.1-8.8,8.4-13.2-1.8c-4.3-8.2-8.6,5-12.8,0.5c-4.2-5-8.4-10.6-12.4-4.2&#10;&#9;&#9;c-6.1-12.9-12.1-6.8-18-3.7c-5.9,5-11.6-17.4-17.2-2.5c-5.6-4.9-11.1-3.4-16.5-2.9c-5.4-12.7-10.6-6.8-15.7-3.8&#10;&#9;&#9;c-5.1,0.5-10.1-16.7-15-0.4c-4.9,0.7-9.6,8.1-14.3-6.7c-4.6-4.1-9.2-2.1-13.6-6.5c-4.4,6.9-8.7-5.6-12.9-1&#10;&#9;&#9;c-4.2,4.7-8.3-0.9-12.2,0.4c-4-1.2-7.8-6-11.6-8.1c-3.7-12.4-7.4-5.7-10.9-8c-3.5-2.1-7-8.2-10.3,0.2c-3.3-0.5-6.6-2-9.7-7.7&#10;&#9;&#9;c-3.1,0.8-6.2,2.3-9.1-0.1c-2.9,1.8-5.8,1.1-8.5-0.7c-2.8-1.8-5.4-4.6-8-7c-5.1-5.5-9.9-2.8-14.4-7.5c-4.4-14.4-8.5-6.8-12.3-7.2&#10;&#9;&#9;c-3.8,5.8-7.2-5.2-10.4-6.7c-3.2-8.3-6-2.4-8.6-6.2c-2.6,3.1-4.9-0.2-6.9-5.5c-2,0.4-3.8-5.8-5.4-4.8c-1.6,1-2.9-2.4-4-3.9&#10;&#9;&#9;c-1.1-5-2,1.5-2.7-2.9c-0.7,0.8-1.2,0.5-1.5-1.8c-0.3,2-0.5-1.7-0.5-0.6c0,1.9,0,2.4,0,2.7c0,3.6,0,0.6,0,7.7c0,0.7,0,7.3,0,12.4&#10;&#9;&#9;c0,3.2,0,10,0,16.6c0,9.1,0,13.7,0,20.4c0,7.4,0,15.3,0,23.7c0,99.5,0,267.6,0,388.5H1400z" style="fill: rgb(102, 164, 136);" transform="matrix(1, 0, 0, 1, -2.842170943040401e-14, 0)"/><path class="st2" d="M1400,975.2c0-90.1,0-233.9,0-321.1c0-4.5,0-8.8,0-13c0-4.2,0-8.2,0-12c0-2.5,0-5.7,0-10.7c0-0.6,0-7,0-9.4&#10;&#9;&#9;c0-0.2,0-0.4,0-0.6c0-1.1,0-3.7,0-7.3c0-0.8,0-6.6,0-8.3c0-0.3,0-0.5,0-0.5c0-2,0-6.8,0-9.4c0-1,0-1.7,0-1.7c0-4.4,0-8.4,0-1.8&#10;&#9;&#9;c0,0.1-1-1.4-2.8,0.5c-1.9-2.9-4.6,0.2-8.1,1.5c-1.8-4.8-3.7,6.6-5.9-2c-2.2,8.6-4.5-12.6-7,4.5c-2.5-1.6-5.2,9-8.1,5.2&#10;&#9;&#9;c-2.9-1.4-5.9,1.4-9-1.9c-3.2-9.8-6.5-0.1-10-2c-1.7-1.5-3.5-8.2-5.3-2c-1.8-6.5-3.6,7.3-5.5,8c-1.9,10.8-3.8,5.3-5.7,3.4&#10;&#9;&#9;c-1.9,0.1-3.9-7.4-5.9,2c-2-3.2-4,9.1-6.1,3.4c-2,4.2-4.1-2.6-6.2-4.2c-2.1,5.1-4.2,4.2-6.4,7.5c-2.2,3-4.3-9.2-6.5-1.2&#10;&#9;&#9;c-2.2-1.3-4.4-7.1-6.7-0.6c-2.3-1.1-4.5-8.5-6.8-0.5c-2.3,0.3-4.6,8.3-6.9,2.6c-2.3-1-4.7-1.4-7.1-0.1c-2.4,5-4.8,1.9-7.2,5.1&#10;&#9;&#9;c-2.4-2-4.8-3.1-7.3-2c-2.4-9-4.9-4.9-7.4-5.2c-2.5-3-5-2.1-7.4,0.5c-2.5-3.9-5,0.8-7.5,4.1c-2.5,4.6-5,8.9-7.6,6.7&#10;&#9;&#9;c-2.5,6.2-5.1-0.3-7.6,4.4c-2.6,0.8-5.1-3-7.7-6.6c-2.6-4.4-5.1-3.7-7.7,2.1c-2.6,3.5-5.2,5.6-7.8,6.4c-2.6-6.6-5.2-8.3-7.8-4.6&#10;&#9;&#9;c-2.6,0.6-5.2,8.9-7.8,5.8c-2.6-0.6-5.2,7.3-7.8,3.3c-2.6,0.8-5.2-0.8-7.8,1.9c-2.6,11.8-5.2,4-7.8,6.6c-2.6,3.6-5.2,1.7-7.8,0.8&#10;&#9;&#9;c-2.6,3.1-5.2,4.3-7.7,4c-2.6-1.2-5.1-7.4-7.7-4.7c-2.6,5.2-5.1,4.4-7.7,6c-2.5-2.3-5.1-1.2-7.6-6.1c-2.5,4.7-5,0-7.5,3.8&#10;&#9;&#9;c-2.5,0.9-5-2.2-7.5,2.9c-2.5,6.1-4.9,1.8-7.4,0.7c-2.4-0.9-4.9,1.1-7.3,2.3c-2.4,4.3-4.8,3.8-7.2,7.5c-2.4-6.2-4.7-1.5-7.1-3.8&#10;&#9;&#9;c-2.3,1.4-4.7,4.1-7,3.9c-2.3,3.6-4.6,1.8-6.9-2.8c-2.3,3-4.5,3.5-6.7,5.1c-2.2,0-4.4-4.8-6.6,0.2c-2.2,1.2-4.3-0.2-6.4,0.6&#10;&#9;&#9;c-2.1,2.2-4.2,1.4-6.3-2.1c-2.1,4.2-4.1,4.3-6.1,6c-2,0-4,1.9-5.9,1.7c-1.9,0.7-3.9,5.8-5.8,4.7c-1.9,2.6-3.7,1.7-5.6-1.2&#10;&#9;&#9;c-1.8-1.4-3.6-5.2-5.4-3.2c-1.8-1.8-3.5,0.7-5.2,5.5c-3.6-1.8-7.1,6.7-10.7,4.5c-3.6-7.2-7.1,8.1-10.7,1.4&#10;&#9;&#9;c-3.6,1.6-7.1,13.1-10.7,2.7c-3.6-4.2-7.1-10.3-10.7,2.7c-1.8,4.7-3.6,7.2-5.3,7.8c-1.8,0.7-3.6,0.4-5.3-2.8&#10;&#9;&#9;c-1.8,8.1-3.6,10.5-5.3,7.7c-1.8,0.3-3.6-5.3-5.3-7.7c-1.8,1.7-3.6,3-5.4,3.2c-1.8-0.8-3.6-0.9-5.4-3.6c-1.8,0.2-3.6,2.2-5.4,4.8&#10;&#9;&#9;c-1.8-0.1-3.6,2.1-5.4,0.1c-1.8,4.1-3.6,3.6-5.4,5.8c-1.8-1.6-3.6-2.8-5.4,1.2c-3.6-3.1-7.2-0.4-10.8-3.1&#10;&#9;&#9;c-3.6-4.9-7.2,3.5-10.8-1.2c-1.8-3.2-3.6-1.6-5.4-0.5c-1.8,2.3-3.6,2.7-5.4,4.9c-1.8-5.3-3.6-1.2-5.4-2.5c-1.8-0.7-3.6,2.8-5.5,5.5&#10;&#9;&#9;c-1.8,0.8-3.6-5.2-5.5-3.6c-1.8-3.1-3.7,2.4-5.5,3.1c-1.8-11.6-3.7-1.7-5.5-3.1c-1.8-0.9-3.7,5.3-5.5,3.8c-3.7-7.4-7.4-4-11.1,1.1&#10;&#9;&#9;c-3.7-8.1-7.4-5.8-11.1-2c-1.9-9.8-3.7,0.6-5.6,2.9c-1.9,0.1-3.7,5.4-5.6,0.1c-1.9,3.3-3.8,5.4-5.6,4.7c-1.9,2.8-3.8,3.7-5.7-1.9&#10;&#9;&#9;c-3.8,1.5-7.6,3.1-11.4-2.7c-3.8-2.2-7.6,2-11.5-4.2c-3.8-4.5-7.7,4.6-11.6,3.3c-3.9-8.7-7.8,2.4-11.7,0.2c-2,2.4-3.9-0.2-5.9-2.2&#10;&#9;&#9;c-2-10.4-3.9-2.5-5.9,0.2c-2-4.2-4-0.1-5.9,0.8c-2,8.4-4-5.2-6-1.5c-2-1.2-4,0.3-6-1.7c-2-2.8-4,2.6-6-0.6c-2,0-4-4.3-6.1-5.7&#10;&#9;&#9;c-2-1.4-4.1-1.4-6.1,2.2c-2-1.7-4.1-0.6-6.1-2.2c-2-6.2-4.1,1.6-6.2,1.5c-2.1,0.3-4.1-7.2-6.2-6.7c-2.1-2.3-4.1,4.3-6.2,0.8&#10;&#9;&#9;c-2.1-1.9-4.2,3.5-6.3-0.4c-2.1-0.6-4.2,6.2-6.3,0.9c-2.1-1.6-4.2-6.1-6.3-5.4c-2.1-1.1-4.2,2.2-6.4,1.4c-2.1-3.3-4.3-5.8-6.4-1.1&#10;&#9;&#9;c-2.1,3.8-4.3-2.2-6.4-1.6c-2.5,12.8-4.9,1.3-7.3,0.7c-2.4-6.5-4.7,0.3-7-6.1c-2.3,5.2-4.5,0.8-6.7-2c-2.2,0.5-4.4-1.8-6.5-0.9&#10;&#9;&#9;c-2.1,3.2-4.2,0.5-6.3-0.9c-2.1,2.9-4.1-3-6.1-1.9c-2-0.6-3.9,0.2-5.8-1.1c-1.9-2.7-3.8-1.6-5.7-3.9c-1.9,0-3.7-2.2-5.5-4.2&#10;&#9;&#9;c-1.8-2.1-3.6-4-5.3-3.5c-1.7-4.2-3.4-3.4-5.1-1.9c-1.7,1.5-3.3,4.4-5,2.3c-3.3-0.3-6.4,0.5-9.5-3.5c-3.1-8.9-6.1,6.1-9.1-3.1&#10;&#9;&#9;c-2.9,0.5-5.8-5.8-8.7-6.9c-2.8-1.4-5.6-3.6-8.3,1.1c-1.4,1.9-2.7,3.5-4.1,3.5c-1.4,0-2.7-1.6-4-6c-2.7,5.6-5.3-3.2-8-2.2&#10;&#9;&#9;c-2.6,0.1-5.3-10.4-7.9-5.6c-2.6-4.6-5.3,3.1-8,1.9c-1.3,1.2-2.7-2.9-4-4.2c-1.3-2.2-2.7-3-4.1,4.2c-2.7,2.9-5.5,4.2-8.3-2.5&#10;&#9;&#9;c-2.8,5.1-5.7,4.8-8.6,3.4c-2.9,2.4-5.9,7.1-9-4.5c-3.1-1.1-6.2,6.1-9.5,0.5c-3.2-6.9-6.6,6.8-10,0c-1.7-2.5-3.5-7.8-5.2-8.1&#10;&#9;&#9;c-1.8-5.1-3.6-3.3-5.4,3.4c-1.8,6-3.7,13.1-5.6,7.2c-1.9,2.4-3.8,0.2-5.8-0.3c-2-2.1-4-3.5-6,2.5c-2,3.3-4.1-7.4-6.2-1.6&#10;&#9;&#9;c-2.1,9.4-4.2,0-6.4,3c-2.2,7.2-4.4-6.5-6.7,0c-2.3-3.6-4.6-4.5-6.9-3.9c-2.3-3.3-4.7,6.5-7.2,7c-2.4-0.7-4.9,3.2-7.4,5.4&#10;&#9;&#9;c-2.5-0.9-5.1-1.2-7.7-2.7c-2.6,2.9-5.3,9.5-8,8.6c-2.7-6.3-5.5-2.2-8.3-2.7c-2.8-3.7-5.7-3.5-8.6-4.9c-2.9,6.8-5.9-1.9-8.9,6.8&#10;&#9;&#9;c-2.8-12.9-5.7-4-8.5-4.8c-2.8,2.8-5.7,5.3-8.5,7c-2.8,7-5.6,4.8-8.5,6.1c-2.8,1.2-5.6,8.8-8.4-2.1c-2.8-6.9-5.6,1.3-8.4,3.2&#10;&#9;&#9;c-2.8,5.1-5.6,0.4-8.4,1.5c-2.8-4-5.6-3-8.4-1.9c-2.8,4.9-5.6-6.1-8.3-0.5c-2.8,0.6-5.5-6.1-8.3-3.2c-2.8-5.7-5.5-2.6-8.2,3.3&#10;&#9;&#9;c-2.7,0.3-5.5-3.7-8.2,4.7c-2.7,5.7-5.4-3.1-8.1-5.9c-2.7,1.4-5.4-7.9-8.1,0.1c-2.7,1.7-5.3-3.5-8-1.7c-2.7-4.7-5.3,10.2-7.9-1.1&#10;&#9;&#9;c-2.6-6.1-5.2,1.2-7.9-1.3c-2.6-1.1-5.2,5.6-7.8-4.1c-2.6,2.3-5.1,1.2-7.7,2.9c-2.5,6.5-5.1,1.4-7.6-2.7c-2.5-0.8-5-8.3-7.5-2.3&#10;&#9;&#9;c-2.5-0.9-5-11.5-7.4-4.8c-2.5-3.1-4.9,5.9-7.3-0.9c-2.4,8.2-4.8,12.3-7.2,6.9c-2.4-17.3-4.7-14.6-7.1-9.3c-2.3-13.8-4.7-14-7-5.5&#10;&#9;&#9;c-2.3,4.5-4.6,2.5-6.9-2.1c-2.3-14-4.5-8.3-6.7-1.4c-2.2,9.8-4.4,3.4-6.6-0.5c-2.2-3-4.3,5.4-6.5,0.2c-2.1,5.7-4.2,6.3-6.3-2.9&#10;&#9;&#9;c-2.1-9.8-4.2-9.5-6.2-4.4c-2-4-4.1-0.9-6-3.3c-2-5.2-4,2.8-5.9-2.6c-1.9,0.9-3.9-10.5-5.7-5.2c-1.9-8.2-3.7-2.2-5.6-4.1&#10;&#9;&#9;c-1.8,6.6-3.6,5.3-5.4,1.2c-1.8,0.9-3.5,12.7-5.3-1.2c-1.7-4.3-3.4-0.8-5.1-3.3c-3.3-4.4-6.5-5.4-9.6-6c-3.1-10.3-6-12.7-8.9-2.8&#10;&#9;&#9;c-1.4-7.1-2.8-7.4-4.1-6.3c-1.3-0.4-2.7-4.4-3.9-0.6c-2.6-3.7-5-4.4-7.3-9.4c-2.3-1.7-4.4,10.4-6.4,0.9c-2,4.8-3.8,3.7-5.5-1.1&#10;&#9;&#9;c-1.7-3.1-3.2-7-4.6-5.6c-2.8,2.6-4.9-7.6-6.3-4.4c-1.4,3.4-2.2-1.4-2.2-1.6c0,1.1,0,2.3,0,3.2c0,2.2,0,3.8,0,3.9c0,2,0,4.3,0,5.4&#10;&#9;&#9;c0,4.8,0,6.2,0,7.5c0,0,0,0,0,0c0,0.3,0,5.9,0,7.2c0,0.2,0,0.3,0,0.3c0,0.6,0,2.8,0,10.2c0,3.8,0,5.4,0,7.5c0,0.5,0,0.9,0,1.5&#10;&#9;&#9;c0,2.2,0,6.3,0,8.2c0,0.2,0,0.3,0,0.5c0,1.4,0,5.9,0,8.4c0,4.5,0,4.3,0,6.6c0,4,0,5,0,5.2c0,0,0,0,0,0c0,0,0,0,0,0.1&#10;&#9;&#9;c0,0.8,0,2.1,0,8c0,4,0,5.4,0,6.3c0,2.6,0,5.5,0,7.5c0,5.8,0,10.3,0,12.9c0,4.4,0,8.9,0,13.4c0,89.6,0,208.3,0,286.3H1400z" style="fill: rgb(51, 134, 96);" transform="matrix(1, 0, 0, 1, -2.842170943040401e-14, 0)"/><path d="M 88 463.6000061035156 L 420.29998779296875 463.6000061035156 L 252 305.6000061035156 Z" class="st1" style="fill: rgb(102, 164, 136);" transform="matrix(1, 0, 0, 1, -2.842170943040401e-14, 0)"/><path d="M 1069.899994 449.600006 A 313.399994 313.399994 0 0 1 756.5 763 A 313.399994 313.399994 0 0 1 443.100006 449.600006 A 313.399994 313.399994 0 0 1 756.5 136.200012 A 313.399994 313.399994 0 0 1 1069.899994 449.600006 Z" class="st3" style="fill: rgb(255, 214, 0);" transform="matrix(1, 0, 0, 1, -2.842170943040401e-14, 0)"/><path class="st4" d="M1400,975.2c0,0,0-111.7,0-197.7c0-5.4,0-10.6,0-15.8c0-2.6,0-5.5,0-8.2c0-2.7,0-5.2,0-6.7c0-3.5,0-4.6,0-7.9&#10;&#9;&#9;c0-1.8,0-3.2,0-5.6c0-1.3,0-1.5,0-7.7c0-2.9,0-3.9,0-5.5c0-1.9,0-10.4,0-10.3c0,3.4,0-10.6,0-10.7c0-0.3,0-3.9,0-9.3&#10;&#9;&#9;c0-4.4,0-4.4,0-4.5c0,2.2,0-7.5,0-5c0,3.1-0.8-8.7-2.2,0.7c-1.5,7.3-3.6-8.7-6.4,1.8c-2.8-4.8-6.3,5.9-10.3,2.8&#10;&#9;&#9;c-2,11.2-4.2,8-6.5,3.2c-2.3-1.8-4.8-4.7-7.4,0.2c-1.3-2.9-2.6,1.7-4,2c-1.4,2.9-2.8,6-4.2-4.1c-1.4,6.3-2.9,0.8-4.4-1.4&#10;&#9;&#9;c-1.5,6.4-3-0.8-4.6,7.4c-1.6,8.7-3.2,9.9-4.8,11.2c-1.6,5.4-3.3,6.8-5,3.9c-1.7,1-3.4-3.9-5.2-0.4c-1.8-1.4-3.5-4.4-5.3-10.6&#10;&#9;&#9;c-1.8,0.9-3.6,1-5.5,5.8c-1.9-2.6-3.8-1.9-5.7-1.1c-1.9-9.4-3.9-4.8-5.8-2.3c-2-2.8-4,7.1-6,1.6c-2-5.7-4.1-5.3-6.1-0.9&#10;&#9;&#9;c-2.1,0-4.2,2.1-6.3,1.3c-2.1,8.9-4.3-1.5-6.4,2.8c-2.2,2.2-4.4,4.4-6.6,0.6c-2.2-2.4-4.5,4.1-6.7,4.4c-2.3,1.6-4.5,5.1-6.8,4.8&#10;&#9;&#9;c-2.3,0.9-4.6-3.3-7-3.4c-2.3-8.2-4.7-0.7-7.1-2.5c-2.4,3.5-4.8,0.9-7.2,3.2c-2.4,2.9-4.9,2.4-7.3,0.7c-2.5-2.8-4.9,3.7-7.4-0.6&#10;&#9;&#9;c-2.5,2.6-5-3-7.5-0.9c-2.5-4.2-5.1-2.3-7.6-1.6c-2.5,0.8-5.1,4.2-7.7,4.1c-2.6-2.8-5.2,0.1-7.8,4.6c-2.6,6.6-5.2,6.1-7.9-5.7&#10;&#9;&#9;c-2.6,4.1-5.3,5.1-7.9,2.5c-2.7,5.2-5.3-5.8-8-2.8c-2.7,0.4-5.4,5.8-8.1,5.1c-2.7-0.6-5.4-4.8-8.1-4.5c-2.7-2.2-5.5,7.4-8.2-2.7&#10;&#9;&#9;c-2.7-3.8-5.5,4.1-8.3-4.3c-2.8,0-5.5-3.3-8.3-0.1c-2.8,4.4-5.6,1.1-8.3,5.8c-2.8,9.1-5.6,0.3-8.4-2.8c-2.8-8.2-5.6-0.5-8.4,2.8&#10;&#9;&#9;c-2.8,9.6-5.6,3.3-8.5,1.2c-2.8,6.6-5.7,2.8-8.5-4.3c-2.8,6.8-5.7,3.6-8.5,3.3c-2.8-1.8-5.7-1.7-8.5-2.2c-2.8,3.2-5.7,0.6-8.5,1&#10;&#9;&#9;c-2.8-4.5-5.7-7.4-8.5-7.1c-1.9,10.1-3.8,14.2-5.7-8.1c-1.9,7-3.8,10.7-5.7-1.4c-1.9-6.1-3.8,22.3-5.7,2.7&#10;&#9;&#9;c-1.9-7.4-3.8-1.4-5.7-2.5c-1.9-30.4-3.8-7.4-5.7,4.7c-1.9,15-3.8-18.3-5.7-2.7c-2.2-1.8-4.3-7.2-6.5-3.8c-2.2-2.2-4.3,4.8-6.5-0.9&#10;&#9;&#9;c-2.2-5.8-4.3,5.2-6.5,1.5c-2.2-12.6-4.3-2.2-6.5-3.2c-2.2-18.2-4.3-28.1-6.5-4.8c-2.2-3-4.3-1.6-6.5-1.7&#10;&#9;&#9;c-2.2-19.2-4.3-2.3-6.5-1.9c-2.2,18.2-4.3-2-6.5,2c-2.2,16.3-4.3,0.5-6.5-0.4c-2.2,0.8-4.3,1-6.5-1.3c-4.3-1.5-8.6-3.6-13-4.6&#10;&#9;&#9;c-4.3-2.2-8.6-0.1-12.9-6.4c-4.3,1.3-8.6,1.5-12.9,0.2c-2.2,3.2-4.3-3.3-6.4-1.7c-2.1,2.6-4.3-4.7-6.4-0.2c-2.1-1-4.3,4.3-6.4-0.8&#10;&#9;&#9;c-2.1,3.8-4.3-1.4-6.4-3.3c-2.1,1.6-4.3-4.4-6.4-3.8c-2.1-1.9-4.3,3.8-6.4,0.5c-2.1-5.3-4.3,0.9-6.4-1.7c-2.1,4.8-4.3,1.5-6.4-0.8&#10;&#9;&#9;c-4.2,0.3-8.5,0.6-12.7,0.8c-2.1-0.6-4.2,1.2-6.3,1.5c-2.1,0.2-4.2-1.1-6.3-7.9c-2.1,4.3-4.2,2.5-6.3-3.5c-2.1,2.5-4.2-5.3-6.3,0.6&#10;&#9;&#9;c-2.1-3.2-4.2-4.7-6.3-6c-2.1-4.3-4.2-1-6.3,3.6c-2.1-3.2-4.2,4.8-6.2,2.8c-2.1,4.6-4.1,1.9-6.2-3.3c-2.1-0.7-4.1-2.9-6.2-3.6&#10;&#9;&#9;c-2.1,3.6-4.1,3.7-6.2-0.9c-2.1-3.6-4.1,1-6.2-3.8c-2,2.4-4.1-2-6.1-1.1c-4.1-1.1-8.2-0.6-12.2,0.4c-2,2.7-4,2.7-6.1,4.5&#10;&#9;&#9;c-2,2.2-4-0.2-6-0.6c-2,2.5-4,1.2-6,2.6c-2-2.2-4-6.9-6-10.4c-2-3.5-4,5-6,7.4c-2,8.6-4-4.1-5.9-3.5c-2-2.7-3.9-4.4-5.9-2.6&#10;&#9;&#9;c-2,3.7-3.9-5.6-5.9-4.9c-2-9.8-3.9-1-5.9,0.9c-1.9,8.4-3.9,0-5.8-5.1c-3.9,2.8-7.7,13.9-11.6,1.3c-3.8,1.7-7.6-2.4-11.4-1.3&#10;&#9;&#9;c-1.9,1.6-3.8,6.2-5.7,5.5c-1.9-3.6-3.8,0.6-5.6-6.5c-1.9-1.1-3.7,1.6-5.6-5c-1.9-2.9-3.7-0.8-5.6,4.2c-3.7,0.6-7.4-1-11-0.9&#10;&#9;&#9;c-3.7-1.9-7.3,5.1-10.9-0.4c-3.6,7.5-7.2-1.3-10.7-0.6c-1.8,4.8-3.5,3.2-5.3,3.8c-1.8,0.4-3.5,0.8-5.3-4.6c-3.5,3.5-7,2.1-10.4,0.6&#10;&#9;&#9;c-3.4,0.4-6.9-6.3-10.2,3.4c-3.4,1.5-6.7,7.5-10.1-2.8c-1.7,9.5-3.3-1.5-5,6.1c-1.6,5.9-3.3,1.4-4.9-4c-3.3,5.4-6.5,7.4-9.7-0.6&#10;&#9;&#9;c-3.2-5.9-6.4,6.7-9.5,2.2c-3.1,4.2-6.2-1.2-9.3,0.2c-3.1-3.2-6.1,6.6-9.1,4.4c-3,3.3-6,3.3-8.9-1.1c-2.7-8.1-5.3,0-8-2&#10;&#9;&#9;c-2.7-0.7-5.3-10-7.9,5.8c-1.3,1-2.6-8.1-3.9-3.9c-1.3,4.9-2.6-2.4-3.9,6.9c-2.6,0.3-5.2-0.5-7.8,1.2c-2.6,2.8-5.2-2.2-7.8,3.2&#10;&#9;&#9;c-2.6-9.1-5.2,2.3-7.8,1.4c-2.6,5.7-5.2-1.6-7.8-2.1c-1.3-14.8-2.6-4.6-3.9,3.6c-1.3,2.6-2.6,4.9-3.9,3.4c-2.6,6.5-5.3-0.4-7.9,2.8&#10;&#9;&#9;c-2.6,0.7-5.3,9.2-8,2.2c-2.7,1.8-5.3,4.1-8,3.1c-2.7,2.7-5.4,9.5-8.1,2.1c-1.4,3.8-2.7-0.1-4.1,6.3c-1.4-2.9-2.7,6-4.1,2.9&#10;&#9;&#9;c-2.8-10.9-5.5-1.9-8.3-4c-2.8,0.6-5.6-3.2-8.5,7.4c-2.9,5.7-5.7-3.1-8.6-2.3c-2.9,1.9-5.8,3.6-8.8,1.2c-3,2.6-6-1.1-9,3.8&#10;&#9;&#9;c-3-0.3-6.1,0.2-9.2,2.1c-3.1-0.1-6.2-4.1-9.4,2.7c-3.2-4.4-6.4-0.5-9.6,2.3c-1.6,2-3.3-4.1-4.9-2.5c-1.6,3.5-3.3,1.1-5,4.7&#10;&#9;&#9;c-3.3,5-6.7,0.9-10.1,3.2c-1.7-10.3-3.4-2.1-5.2-1.5c-1.7-0.1-3.5,6.5-5.2,2.4c-1.8-7.5-3.5-4.8-5.3-3.7c-1.8,1.7-3.6,4.6-5.4,3&#10;&#9;&#9;c-3.6,5.8-7.3,6.6-11,4.3c-3.7-1.3-7.5-6-11.3,1.4c-3.8,5.1-7.7,11.1-11.7,1.7c-3.9-8.2-7.9,0.4-12,1.8c-4.1-9.4-8.2-10.4-12.4,0.5&#10;&#9;&#9;c-4.2-6.7-8.4-5.1-12.8,0.1c-4.3-2.2-8.7,0.2-13.2,1.6c-4.5,3.5-9-0.2-13.6,2.1c-4.6,6.1-9.3-6.8-14-1.2&#10;&#9;&#9;c-4.7,13.7-9.6-3.4-14.4,2.9c-4.9,11.2-9.9-2.1-14.9-3c-5-8.1-10.2-7.8-15.4,2.1c-5.2,6.2-10.5,0-15.9-3.2&#10;&#9;&#9;c-5.4-0.3-10.8-4.8-16.4-0.6c-5.5-5.9-11.2,3.6-16.9-1.5c-3.8-22.6-7.7-11.2-11.6-6.8c-3.9,1-7.8-3.9-11.8-1.4&#10;&#9;&#9;c-4,6.5-8,7.9-12.1,4.9c-4.1,19.8-8.2,2.6-12.3-0.8c-4.1,9.2-8.3-10.2-12.6-5.5c-4.2-3.1-8.5,3.1-12.8,1.7&#10;&#9;&#9;c-4.3,16.7-8.7,10.8-13.1,0.1c-4.4,0.4-8.9,12.6-13.4,0.8c-4.5,5.4-9.1-4.6-13.6-6.9c0-10.5,0,7,0,5c0,7.5,0-3.2,0,6.7&#10;&#9;&#9;c0,2.4,0,5.6,0,7.2c0,17.1,0-8.6,0,10.4c0,8,0,10.6,0,10.7c0,7.9,0,8.9,0,13.3c0,1.1,0,5.5,0,13.4c0,4.8,0,9.8,0,15&#10;&#9;&#9;c0,5.1,0,10.4,0,15.8c0,86,0,197.7,0,197.7H1400" style="fill: rgb(0, 104, 56);" transform="matrix(1, 0, 0, 1, -2.842170943040401e-14, 0)"/><path d="M 1220.800049 479.799988 H 1252.300049 V 589.899986 H 1220.800049 V 479.799988 Z" class="st1" style="fill: rgb(102, 164, 136);" transform="matrix(1, 0, 0, 1, -5.684341886080802e-14, 0)"/><path class="st1" d="M504,585.4l-0.5-10c321-15.5,539.6-41,666.5-59.7c137.3-20.2,199.5-37,200.1-37.1l2.6,9.6&#10;&#9;&#9;&#9;&#9;c-0.6,0.2-63.4,17.1-201.3,37.4C1044.4,544.3,825.4,569.8,504,585.4z" style="fill: rgb(102, 164, 136);" transform="matrix(1, 0, 0, 1, -8.526512829121202e-14, 0)"/><path class="st1" d="M504,616.8l-0.5-10c320.7-15.5,539.3-41,666.2-59.7c137.5-20.2,199.9-37,200.5-37.2l2.6,9.6&#10;&#9;&#9;&#9;&#9;c-0.6,0.2-63.4,17.1-201.3,37.4C1044.4,575.7,825.4,601.3,504,616.8z" style="fill: rgb(102, 164, 136);" transform="matrix(1, 0, 0, 1, -8.526512829121202e-14, 0)"/><path d="M 776.799988 538.799988 H 808.299988 V 648.899986 H 776.799988 V 538.799988 Z" class="st1" style="fill: rgb(102, 164, 136);" transform="matrix(1, 0, 0, 1, -5.684341886080802e-14, 0)"/><path d="M 488 558.700012 H 519.5 V 668.800011 H 488 V 558.700012 Z" class="st1" style="fill: rgb(102, 164, 136);" transform="matrix(1, 0, 0, 1, -5.684341886080802e-14, 0)"/><path d="M 623.799988 558.700012 H 655.299988 V 668.800011 H 623.799988 V 558.700012 Z" class="st1" style="fill: rgb(102, 164, 136);" transform="matrix(1, 0, 0, 1, -5.684341886080802e-14, 0)"/><path d="M 913.299988 525.299988 H 944.799988 V 635.399986 H 913.299988 V 525.299988 Z" class="st1" style="fill: rgb(102, 164, 136);" transform="matrix(1, 0, 0, 1, -5.684341886080802e-14, 0)"/><path d="M 1055.800049 503.700012 H 1087.300049 V 613.800011 H 1055.800049 V 503.700012 Z" class="st1" style="fill: rgb(102, 164, 136);" transform="matrix(1, 0, 0, 1, -5.684341886080802e-14, 0)"/><path d="M 1355.800049 456.899994 H 1387.300049 V 566.999992 H 1355.800049 V 456.899994 Z" class="st1" style="fill: rgb(102, 164, 136);" transform="matrix(1, 0, 0, 1, -5.684341886080802e-14, 0)"/><path d="M 0.9 784.599976 H 1399.999976 V 979.999969 H 0.9 V 784.599976 Z" class="st5" style="fill: rgb(168, 124, 79);" transform="matrix(1, 0, 0, 1, -2.842170943040401e-14, 0)"/><path class="st6" d="M1115,842c0,11.6-10.3,21-23,21H308c-12.7,0-23-9.4-23-21l0,0c0-11.6,10.3-21,23-21h784&#10;&#9;&#9;C1104.7,821,1115,830.4,1115,842L1115,842z" style="fill: rgb(138, 93, 59);" transform="matrix(1, 0, 0, 1, -2.842170943040401e-14, 0)"/><path class="st7" d="M103.7,217.7c0-4.1,0.7-7.8,2.7-11.1c3.1-5,10.2-7.1,15.7-5.1c2.9,1.1,4.6,0.7,6.7-1.6&#10;&#9;&#9;c13.2-14,29.5-19,48.1-14.5c19.3,4.7,31.6,17.4,36.8,36.6c1.3,5,1.4,10.3,2.1,15.8c2.2-0.3,4.6-0.6,6.9-0.9&#10;&#9;&#9;c14.4-1.9,28.4,8.6,31,22.8c1.6,8.6-0.5,16.5-5.7,23c-5.7,7.1-13.5,10.7-22.9,10.7c-29.1-0.1-58.3-0.1-87.4-0.2&#10;&#9;&#9;c-11.4,0-22.9,0.1-34.3-0.1C85.2,293,69,278.1,67.2,260.1c-2.2-21.5,12-39.1,33.7-41.9C102.1,218.1,103.3,217.8,103.7,217.7z" style="fill-rule: evenodd; clip-rule: evenodd; fill: rgb(255, 255, 255);" transform="matrix(1, 0, 0, 1, -2.842170943040401e-14, 0)"/><path class="st7" d="M1040.2,192.6c13-6.1,25.2-6.1,35.6,4.2c10.5,10.4,10,22.8,4.6,36c3.1,0,5.6-0.1,8.1,0&#10;&#9;&#9;c9.2,0.4,16.1,6.2,17.8,14.8c1.6,7.8-2.7,16.2-10.6,19.8c-2.6,1.1-5.7,1.5-8.6,1.5c-25,0.1-49.9,0.1-74.9,0.1c-18.3,0-36.7,0-55,0&#10;&#9;&#9;c-15.8,0-28.6-12.7-28.6-28.2c-0.1-15.5,12.8-28.3,28.5-28.4c2.1,0,4.1,0,6.9,0c-4.7-14.6-3.9-28.1,5.5-40.1&#10;&#9;&#9;c5.9-7.7,13.8-12.5,23.2-14.5c11.4-2.3,21.9,0.3,31.3,6.9C1033.4,171.4,1037.7,181.3,1040.2,192.6z" style="fill-rule: evenodd; clip-rule: evenodd; fill: rgb(255, 255, 255);" transform="matrix(1, 0, 0, 1, -2.842170943040401e-14, 0)"/><path class="st7" d="M623.6,120.9c4.6,1.1,8.8,1.5,12.4,3.2c8,3.8,11.6,12.1,9.5,20.5c-1.9,7.8-9.1,13.3-17.6,13.5&#10;&#9;&#9;c-1.3,0-2.5,0-3.8,0c-42.5,0-85,0.1-127.4,0c-11.9,0-20.7-5.7-25.8-16.4c-5.1-10.7-3.3-20.8,4-30c3.2-4,7.4-6.9,12.3-8.5&#10;&#9;&#9;c1.9-0.6,2.5-1.7,2.5-3.7c0.7-26,18.4-46.6,43.9-49.8c23.7-3,45.5,10.9,53.4,33.6c1.7,5,1.7,5,6.9,4.6c15.6-1,29.4,11.7,29.8,27.3&#10;&#9;&#9;C623.7,117.3,623.6,119.4,623.6,120.9z" style="fill-rule: evenodd; clip-rule: evenodd; fill: rgb(255, 255, 255);" transform="matrix(1, 0, 0, 1, -2.842170943040401e-14, 0)"/><path class="st7" d="M1321.6,318.7c5.3-0.3,10.1-1.2,14.8-0.6c11.8,1.5,20.1,12.2,19.3,24c-0.8,11.6-10.4,21.1-22.1,21.4&#10;&#9;&#9;c-9.4,0.2-18.9,0.1-28.3,0.1c-23.7,0-47.4,0.1-71.1,0c-13.8,0-24.7-8.8-28-22.2c-4.3-17.9,10.8-35.7,29.2-34.4&#10;&#9;&#9;c4.5,0.3,4.5,0.3,5.8-4.1c4.8-16.7,19.5-28.6,36.9-29.9c16.3-1.2,32.6,8.5,39.6,23.7c2.7,5.8,3.7,12,3.8,18.3&#10;&#9;&#9;C1321.6,316.3,1321.6,317.7,1321.6,318.7z" style="fill-rule: evenodd; clip-rule: evenodd; fill: rgb(255, 255, 255);" transform="matrix(1, 0, 0, 1, -2.842170943040401e-14, 0)"/>
<path d="M 926.5 777.7000122070312 L 780.7000122070312 777.7000122070312 L 792.7999877929688 797.5 L 926.5 797.5 Z" class="st8" style="fill: rgb(2, 3, 0);" transform="matrix(1, 0, 0, 1, -2.842170943040401e-14, 0)"/><path d="M 550.0999755859375 797.5 L 365.6000061035156 797.5 L 353.6000061035156 777.7000122070312 L 564 777.7000122070312 Z" class="st8" style="fill: rgb(2, 3, 0);" transform="matrix(1, 0, 0, 1, -2.842170943040401e-14, 0)"/><path d="M 992.7000122070312 787.4000244140625 L 309 787.4000244140625 L 309 660.0999755859375 L 808.0999755859375 652.2000122070312 L 1083.199951171875 718.2000122070312 Z" class="st8" style="fill: rgb(2, 3, 0);" transform="matrix(1, 0, 0, 1, -2.842170943040401e-14, 0)"/><path class="st9" d="M1096.8,757.2v-63.5c0,0-2.4-30.4-13.6-46.7c-18.2-26.6-59.4-49.3-59.4-49.3L892.2,432.5l-15.9-17&#10;&#9;&#9;c-29.9-33.2-64.3-56.6-125.1-56.6H333.5c-18.8,0-34.1,15.3-34.1,34.1v17v50.3v318.6l75.1,0.2c4-43.5,40.5-77.5,85-77.5&#10;&#9;&#9;c44.6,0,81.2,34.2,85,77.8l322.8,0.6c3.6-44.3,40.7-79.2,85.9-79.2c37.2,0,68.8,23.5,80.9,56.5H1096.8z" style="fill: rgb(230, 231, 233);" transform="matrix(1, 0, 0, 1, -2.842170943040401e-14, 0)"/><defs>
			<path id="SVGID_1_" d="M1096.8,757.2v-63.5c0,0-2.4-30.4-13.6-46.7c-18.2-26.6-59.4-49.3-59.4-49.3L892.2,432.5l-15.9-17&#10;&#9;&#9;&#9;&#9;c-29.9-33.2-64.3-56.6-125.1-56.6H333.5c-18.8,0-34.1,15.3-34.1,34.1v17v50.3v318.6l75.1,0.2c4-43.5,40.5-77.5,85-77.5&#10;&#9;&#9;&#9;&#9;c44.6,0,81.2,34.2,85,77.8l322.8,0.6c3.6-44.3,40.7-79.2,85.9-79.2c37.2,0,68.8,23.5,80.9,56.5H1096.8z"/>
		</defs><clipPath id="SVGID_2_">
			<use style="overflow:visible;" xlink:href="#SVGID_1_"/>
		</clipPath><path class="st11" d="M856.5,669.9c-5-5.7-3-12.8-6.9-18.7c-6.5-9.8-19.4-3.4-26.8,1.1c-2.7,1.6-5.4,1.6-8.1,1.3&#10;&#9;&#9;&#9;&#9;c-0.8-0.2-1.7-0.4-2.6-0.4c-2.8-0.5-5.6-1.1-8.5-0.5c-1.6,0.3-3,1.2-4.2,2.3c-10.9,5.9-9.4,26.4-4.9,36c1.8,3.8,5.5,6,9.3,7.6&#10;&#9;&#9;&#9;&#9;c3.2,1.4,6.2,2.5,8.7,5c2.1,2.1,3.9,4.5,6.2,6.4c3.4,3,7.6,4.2,11.9,2.7c6.4-2.2,7.6-9,11.5-13.6c5.7-6.8,22.1-5.2,21.1-17.4&#10;&#9;&#9;&#9;&#9;C862.8,677.1,859.4,673.1,856.5,669.9z" style="fill: rgb(46, 42, 43); clip-path: url('#SVGID_2_');" transform="matrix(1, 0, 0, 1, -8.526512829121202e-14, 0)"/><path class="st11" d="M1082.7,605.7c-7.5-8.1-17.8-14.4-29.7-15.8c-12.5-1.5-19.9,2.1-30.3,7.7c-10.3,5.5-16.7,3.8-20.8,3.8&#10;&#9;&#9;&#9;&#9;&#9;c-12.1-0.1-24.2,0.2-36,2.9c-22.8,5.2-38.6,24-40.5,44.6c-1.8,19,7.5,41.5,29.2,48.2c12.7,4,25.5,3,38.5,1&#10;&#9;&#9;&#9;&#9;&#9;c6.9-1,13.8-2.5,20.8-3.3c8.6-1,16.2,0.5,24.6,1.7c26.5,3.6,50.8-10.2,59.2-33.1C1104.5,644.7,1096.1,620.3,1082.7,605.7z" style="fill: rgb(46, 42, 43); clip-path: url('#SVGID_2_');" transform="matrix(1, 0, 0, 1, -8.526512829121202e-14, 0)"/><path class="st11" d="M462.8,362.9c-19.4-12.4-46.1-21.4-69.8-17.8c-24.7-2-47.1,16-64.7,32.3c-20.4,18.8-49.8,48-51.9,77.2&#10;&#9;&#9;&#9;&#9;&#9;c-2.5,33.9,20.1,64.7,46.1,84.2c14.3,10.7,31.2,13.8,48.4,10.2c20.6-4.3,36.5-20.4,55.8-27.8c26.9-10.3,61.1-5.8,80.5-30.7&#10;&#9;&#9;&#9;&#9;&#9;c14.5-18.8,12.8-45.1,6.2-66.5C505,397.2,486,377.8,462.8,362.9z" style="fill: rgb(46, 42, 43); clip-path: url('#SVGID_2_');" transform="matrix(1, 0, 0, 1, -8.526512829121202e-14, 0)"/><path class="st11" d="M364.1,622.4c-15.4-0.5-25,2-33.8,8.5c-15.1,11.2-16.1,23.5-9.6,40.3c6.8,17.6-9.2,34.7,1.8,52.3&#10;&#9;&#9;&#9;&#9;&#9;c7,11.2,21.7,14,33.8,13.4c34.1-1.7,54.1-33.8,54.8-65.5C411.8,646.3,387.9,620.5,364.1,622.4z" style="fill: rgb(46, 42, 43); clip-path: url('#SVGID_2_');" transform="matrix(1, 0, 0, 1, -8.526512829121202e-14, 0)"/><path class="st11" d="M740.2,639.3c9.5-30.2-7.5-60.5-28-81.7c-24.3-25.1-50.7-25.9-81.8-9.4c-15.1,5.3-36.8,26-47.1,34.7&#10;&#9;&#9;&#9;&#9;&#9;c-11.2,9.4-19.3,21.6-24,35.3c-5.6,16.4,2.1,31.9,3.6,48.1c1.5,15.3-16.3,32.3-20.2,47.5c-3.9,15.7,4.4,32,13.2,44.5&#10;&#9;&#9;&#9;&#9;&#9;c18,25.5,51.4,44.2,82.5,33.1c27.3-9.7,38.5-40.8,49.6-64.6C702.4,695.7,729.7,672.6,740.2,639.3z" style="fill: rgb(46, 42, 43); clip-path: url('#SVGID_2_');" transform="matrix(1, 0, 0, 1, -8.526512829121202e-14, 0)"/><path class="st11" d="M900.2,398.1c-6.3-16.6-17.4-36.2-39.5-35.3c-27.2-0.8-46.8,10.9-62.1,28.9c-7.4,8.8-14.5,16.5-24.8,21.8&#10;&#9;&#9;&#9;&#9;&#9;c-8.6,4.4-17.8,7.5-26.5,11.9c-15.8,8-24.4,21.5-22.1,39.3c2.9,23,23.8,40.3,46.6,42c11.8,0.9,22.1-2.3,32.4-7.9&#10;&#9;&#9;&#9;&#9;&#9;c13.3-7.3,23.4-17.4,39.5-17.7c13.1-0.2,25.5,2.8,38.2-2.1c9.1-3.5,16-11.5,19.5-20.3C909,439.6,907.4,417,900.2,398.1z" style="fill: rgb(46, 42, 43); clip-path: url('#SVGID_2_');" transform="matrix(1, 0, 0, 1, -8.526512829121202e-14, 0)"/><path class="st11" d="M523.9,774.6c0,36-29.2,65.1-65.1,65.1c-36,0-65.1-29.2-65.1-65.1c0-36,29.2-65.1,65.1-65.1&#10;&#9;&#9;&#9;C494.8,709.5,523.9,738.6,523.9,774.6z" style="fill: rgb(46, 42, 43);" transform="matrix(1, 0, 0, 1, -5.684341886080802e-14, 0)"/><path class="st12" d="M498.2,774.6c0,21.8-17.6,39.4-39.4,39.4c-21.8,0-39.4-17.6-39.4-39.4c0-21.8,17.6-39.4,39.4-39.4&#10;&#9;&#9;&#9;C480.6,735.2,498.2,752.8,498.2,774.6z" style="fill: rgb(229, 225, 222); stroke: rgb(22, 20, 23); stroke-width: 3; stroke-miterlimit: 10;" transform="matrix(1, 0, 0, 1, -5.684341886080802e-14, 0)"/><path d="M 476.099987 774.599976 A 17.299999 17.299999 0 0 1 458.799988 791.899975 A 17.299999 17.299999 0 0 1 441.499989 774.599976 A 17.299999 17.299999 0 0 1 458.799988 757.299976 A 17.299999 17.299999 0 0 1 476.099987 774.599976 Z" class="st13" style="fill: rgb(22, 20, 23); stroke: rgb(109, 110, 112); stroke-width: 3; stroke-miterlimit: 10;" transform="matrix(1, 0, 0, 1, -5.684341886080802e-14, 0)"/><path class="st11" d="M1017.7,774.6c0,36-29.2,65.1-65.1,65.1c-36,0-65.1-29.2-65.1-65.1c0-36,29.2-65.1,65.1-65.1&#10;&#9;&#9;&#9;C988.5,709.5,1017.7,738.6,1017.7,774.6z" style="fill: rgb(46, 42, 43);" transform="matrix(1, 0, 0, 1, -5.684341886080802e-14, 0)"/><path d="M 992.799976 774.599976 A 40.200001 40.200001 0 0 1 952.599976 814.799976 A 40.200001 40.200001 0 0 1 912.399975 774.599976 A 40.200001 40.200001 0 0 1 952.599976 734.399975 A 40.200001 40.200001 0 0 1 992.799976 774.599976 Z" class="st12" style="fill: rgb(229, 225, 222); stroke: rgb(22, 20, 23); stroke-width: 3; stroke-miterlimit: 10;" transform="matrix(1, 0, 0, 1, -5.684341886080802e-14, 0)"/><path d="M 967.999975 774.599976 A 15.4 15.4 0 0 1 952.599976 789.999975 A 15.4 15.4 0 0 1 937.199976 774.599976 A 15.4 15.4 0 0 1 952.599976 759.199976 A 15.4 15.4 0 0 1 967.999975 774.599976 Z" class="st13" style="fill: rgb(22, 20, 23); stroke: rgb(109, 110, 112); stroke-width: 3; stroke-miterlimit: 10;" transform="matrix(1, 0, 0, 1, -5.684341886080802e-14, 0)"/><path class="st14" d="M1012.6,687.6c0,2.5-2,4.4-4.4,4.4h-10.4c-2.5,0-4.4-2-4.4-4.4v-3.5c0-2.5,2-4.4,4.4-4.4h10.4&#10;&#9;&#9;c2.5,0,4.4,2,4.4,4.4V687.6z" style="fill: rgb(246, 146, 30);" transform="matrix(1, 0, 0, 1, -2.842170943040401e-14, 0)"/><path class="st15" d="M364.1,769.8c7.9-45.1,47.3-79.4,94.7-79.4c50.7,0,92.2,39.2,95.9,88.9" style="fill: none; stroke: rgb(187, 189, 191); stroke-width: 4; stroke-linecap: round; stroke-linejoin: round; stroke-miterlimit: 10;" transform="matrix(1, 0, 0, 1, -2.842170943040401e-14, 0)"/><path class="st15" d="M856.7,779.2c3.7-49.7,45.2-88.9,95.9-88.9c39.6,0,73.7,24,88.4,58.2" style="fill: none; stroke: rgb(187, 189, 191); stroke-width: 4; stroke-linecap: round; stroke-linejoin: round; stroke-miterlimit: 10;" transform="matrix(1, 0, 0, 1, -2.842170943040401e-14, 0)"/><path d="M 706.200012 713.400024 H 741.600014 V 723.900024 H 706.200012 V 713.400024 Z" class="st16" style="fill: none; stroke: rgb(64, 64, 65); stroke-width: 4; stroke-linecap: round; stroke-linejoin: round; stroke-miterlimit: 10;" transform="matrix(1, 0, 0, 1, -2.842170943040401e-14, 0)"/><path d="M 706.200012 733 H 741.600014 V 743.5 H 706.200012 V 733 Z" class="st16" style="fill: none; stroke: rgb(64, 64, 65); stroke-width: 4; stroke-linecap: round; stroke-linejoin: round; stroke-miterlimit: 10;" transform="matrix(1, 0, 0, 1, -2.842170943040401e-14, 0)"/><path d="M 796.900024 626.900024 H 834.300026 V 636.600024 H 796.900024 V 626.900024 Z" class="st17" style="fill: rgb(64, 64, 65);" transform="matrix(1, 0, 0, 1, -2.842170943040401e-14, 0)"/><path class="st17" d="M1119.2,754c0,9.5-11.2,17.2-25,17.2h-46.1c-13.8,0-25-7.7-25-17.2v-25.2c0-9.5,11.2-17.2,25-17.2h46.1&#10;&#9;&#9;c13.8,0,25,7.7,25,17.2V754z" style="fill: rgb(64, 64, 65);" transform="matrix(1, 0, 0, 1, -2.842170943040401e-14, 0)"/><path class="st17" d="M277.5,775.4c0,9.5,5.9,17.2,19.7,17.2h63.1c13.8,0,25-7.7,25-17.2v-25.2c0-9.5-11.2-17.2-25-17.2h-63.1&#10;&#9;&#9;c-13.8,0-19.7,7.7-19.7,17.2V775.4z" style="fill: rgb(64, 64, 65);" transform="matrix(1, 0, 0, 1, -2.842170943040401e-14, 0)"/><path class="st18" d="M741.6,764.1c0,3.7-3,6.6-6.6,6.6H570.6c-3.7,0-6.6-3-6.6-6.6l0,0c0-3.7,3-6.6,6.6-6.6h164.3&#10;&#9;&#9;C738.6,757.5,741.6,760.5,741.6,764.1L741.6,764.1z" style="fill: rgb(45, 42, 51);" transform="matrix(1, 0, 0, 1, -2.842170943040401e-14, 0)"/><path class="st11" d="M390.1,772.6c0,3.7-3,6.6-6.6,6.6H275.8c-3.7,0-4.6-3-4.6-6.6l0,0c0-3.7,1-6.6,4.6-6.6h107.7&#10;&#9;&#9;C387.2,766,390.1,768.9,390.1,772.6L390.1,772.6z" style="fill: rgb(46, 42, 43);" transform="matrix(1, 0, 0, 1, -2.842170943040401e-14, 0)"/><path class="st11" d="M1123.2,750.1c0,3.7-0.3,6.6-4,6.6h-94.9c-3.7,0-6.6-3-6.6-6.6l0,0c0-3.7,3-6.6,6.6-6.6h94.9&#10;&#9;&#9;C1122.9,743.5,1123.2,746.5,1123.2,750.1L1123.2,750.1z" style="fill: rgb(46, 42, 43);" transform="matrix(1, 0, 0, 1, -2.842170943040401e-14, 0)"/><path class="st19" d="M1003,597.2l-58-81.4c0,0-3.1-4.3-9.4-7.6c-6.5-3.5-15.9-3.4-15.9-3.4H814.1c0,0-9.2-0.3-15.9,4.7&#10;&#9;&#9;c-6.6,5-7,13.7-7,13.7v57.5c0,0,0.2,9.9,5.6,13.7c6.3,4.5,18.7,2.8,18.7,2.8H1003z" style="fill: rgb(27, 59, 82);" transform="matrix(1, 0, 0, 1, -2.842170943040401e-14, 0)"/><path class="st15" d="M1003,597.2l-58-81.4c0,0-3.1-4.3-9.4-7.6c-6.5-3.5-15.9-3.4-15.9-3.4H814.1c0,0-9.2-0.3-15.9,4.7&#10;&#9;&#9;c-6.6,5-7,13.7-7,13.7v57.5c0,0,0.2,9.9,5.6,13.7c6.3,4.5,18.7,2.8,18.7,2.8H1003z" style="fill: none; stroke: rgb(187, 189, 191); stroke-width: 4; stroke-linecap: round; stroke-linejoin: round; stroke-miterlimit: 10;" transform="matrix(1, 0, 0, 1, -2.842170943040401e-14, 0)"/><path d="M 924.200012 504.799988 L 924.200012 597.200012" class="st15" style="fill: none; stroke: rgb(187, 189, 191); stroke-width: 4; stroke-linecap: round; stroke-linejoin: round; stroke-miterlimit: 10;" transform="matrix(1, 0, 0, 1, -2.842170943040401e-14, 0)"/><path class="st15" d="M828.2,597.2h-37c0,0-14.1,4-14.1,17.2v160.3" style="fill: none; stroke: rgb(187, 189, 191); stroke-width: 4; stroke-linecap: round; stroke-linejoin: round; stroke-miterlimit: 10;" transform="matrix(1, 0, 0, 1, -2.842170943040401e-14, 0)"/><path d="M 983.200012 569.400024 L 983.200012 694.200012" class="st15" style="fill: none; stroke: rgb(187, 189, 191); stroke-width: 4; stroke-linecap: round; stroke-linejoin: round; stroke-miterlimit: 10;" transform="matrix(1, 0, 0, 1, -2.842170943040401e-14, 0)"/><path class="st17" d="M958.6,560.1v54.2c10.4,0,18.7-8.4,18.7-18.7v-16.7C977.3,568.5,968.9,560.1,958.6,560.1z" style="fill: rgb(64, 64, 65);" transform="matrix(1, 0, 0, 1, -2.842170943040401e-14, 0)"/><path class="st20" d="M1096.8,693.6c0,0-0.7-9-3.2-19.8h-33.2c-7.3,0-11,5.9-8.4,13.2l2.7,7.3c2.7,7.3,10.8,13.2,18,13.2h24.1&#10;&#9;&#9;V693.6z" style="fill: rgb(241, 101, 34);" transform="matrix(1, 0, 0, 1, -2.842170943040401e-14, 0)"/><path d="M 356.299988 595.400024 H 681.399994 V 608.000025 H 356.299988 V 595.400024 Z" class="st21" style="opacity: 0.6; fill: rgb(35, 31, 32);" transform="matrix(1, 0, 0, 1, -2.842170943040401e-14, 0)"/><path d="M 363.399994 501.299988 H 483.499992 V 582.599991 H 363.399994 V 501.299988 Z" class="st19" style="fill: rgb(27, 59, 82);" transform="matrix(1, 0, 0, 1, -2.842170943040401e-14, 0)"/><path d="M 489.200012 501.299988 H 672.700012 V 582.599991 H 489.200012 V 501.299988 Z" class="st19" style="fill: rgb(27, 59, 82);" transform="matrix(1, 0, 0, 1, -2.842170943040401e-14, 0)"/><path d="M 363.399994 501.299988 H 366.899994 V 582.599991 H 363.399994 V 501.299988 Z" class="st22" style="fill: rgb(109, 118, 115);" transform="matrix(1, 0, 0, 1, -2.842170943040401e-14, 0)"/><path class="st21" d="M681.4,633.8c0,3.8-3.1,6.8-6.8,6.8H363.1c-3.8,0-6.8-3.1-6.8-6.8l0,0c0-3.8,3.1-6.8,6.8-6.8h311.4&#10;&#9;&#9;C678.3,626.9,681.4,630,681.4,633.8L681.4,633.8z" style="opacity: 0.6; fill: rgb(35, 31, 32);" transform="matrix(1, 0, 0, 1, -2.842170943040401e-14, 0)"/><path class="st21" d="M681.4,659c0,3.8-3.1,6.8-6.8,6.8H363.1c-3.8,0-6.8-3.1-6.8-6.8l0,0c0-3.8,3.1-6.8,6.8-6.8h311.4&#10;&#9;&#9;C678.3,652.2,681.4,655.3,681.4,659L681.4,659z" style="opacity: 0.6; fill: rgb(35, 31, 32);" transform="matrix(1, 0, 0, 1, -2.842170943040401e-14, 0)"/><g transform="matrix(1, 0, 0, 1, -5.684341886080802e-14, 0)">
			<path d="M 381.799988 583.099976 H 412.599987 V 595.999975 H 381.799988 V 583.099976 Z" class="st23" style="fill: rgb(53, 89, 126);"/>
			<path d="M 443 583.099976 H 473.799999 V 595.999975 H 443 V 583.099976 Z" class="st23" style="fill: rgb(53, 89, 126);"/>
			<path d="M 504.100006 583.099976 H 534.900005 V 595.999975 H 504.100006 V 583.099976 Z" class="st23" style="fill: rgb(53, 89, 126);"/>
			<path d="M 565.299988 583.099976 H 596.099987 V 595.999975 H 565.299988 V 583.099976 Z" class="st23" style="fill: rgb(53, 89, 126);"/>
			<path d="M 626.900024 583.099976 H 657.700024 V 595.999975 H 626.900024 V 583.099976 Z" class="st23" style="fill: rgb(53, 89, 126);"/>
		</g><path d="M 351.5 583.099976 H 382.299999 V 595.999975 H 351.5 V 583.099976 Z" class="st24" style="fill: rgb(143, 197, 218);" transform="matrix(1, 0, 0, 1, -8.526512829121202e-14, 0)"/><path d="M 412.600006 583.099976 H 443.400005 V 595.999975 H 412.600006 V 583.099976 Z" class="st24" style="fill: rgb(143, 197, 218);" transform="matrix(1, 0, 0, 1, -8.526512829121202e-14, 0)"/><path d="M 473.799988 583.099976 H 504.599987 V 595.999975 H 473.799988 V 583.099976 Z" class="st24" style="fill: rgb(143, 197, 218);" transform="matrix(1, 0, 0, 1, -8.526512829121202e-14, 0)"/><path d="M 534.900024 583.099976 H 565.700024 V 595.999975 H 534.900024 V 583.099976 Z" class="st24" style="fill: rgb(143, 197, 218);" transform="matrix(1, 0, 0, 1, -8.526512829121202e-14, 0)"/><path d="M 596.099976 583.099976 H 626.899975 V 595.999975 H 596.099976 V 583.099976 Z" class="st24" style="fill: rgb(143, 197, 218);" transform="matrix(1, 0, 0, 1, -8.526512829121202e-14, 0)"/><path d="M 657.200012 583.099976 H 688.000011 V 595.999975 H 657.200012 V 583.099976 Z" class="st24" style="fill: rgb(143, 197, 218);" transform="matrix(1, 0, 0, 1, -8.526512829121202e-14, 0)"/><defs>
			<path d="M 489.200012 501.299988 H 672.700012 V 582.599991 H 489.200012 V 501.299988 Z" id="SVGID_3_"/>
		</defs><clipPath id="SVGID_4_">
			<use style="overflow:visible;" xlink:href="#SVGID_3_"/>
		</clipPath><path d="M 520.9000244140625 593.2999877929688 L 420.29998779296875 593 L 545 486.5 L 645.7000122070312 486.79998779296875 Z" class="st26" style="fill: rgb(81, 120, 127); clip-path: url('#SVGID_4_');" transform="matrix(1, 0, 0, 1, -8.526512829121202e-14, 0)"/><path d="M 564 593.4000244140625 L 535.4000244140625 593.2999877929688 L 660.2000122070312 486.79998779296875 L 688.7999877929688 486.8999938964844 Z" class="st26" style="fill: rgb(81, 120, 127); clip-path: url('#SVGID_4_');" transform="matrix(1, 0, 0, 1, -8.526512829121202e-14, 0)"/><path d="M 664.400024 501.299988 H 672.700025 V 582.599991 H 664.400024 V 501.299988 Z" class="st17" style="fill: rgb(64, 64, 65);" transform="matrix(1, 0, 0, 1, -2.842170943040401e-14, 0)"/><path class="st11" d="M323,191.2c-1.9-1.9-1.2-5.9,1.6-8.6c3.4-3.3,8.7-2.7,11-1.1c2.3,1.6,82,69.1,82,69.1s0.9,0.6,2.2,2.2l0.1,0&#10;&#9;&#9;&#9;c0,0,3.3,0.1,3.6,1.1c0.1,0.6-0.8,1.3-1.6,1.9c0.1,0.1,0.2,0.3,0.2,0.4l0.1,0c0,0,3.6,0.2,3.8,1.2c0.1,0.6-1.2,1.5-2.2,2.1&#10;&#9;&#9;&#9;c0.1,0.2,0.2,0.4,0.2,0.5c1.1,0.1,2.9,0.5,3,1.1c0.1,0.6-0.9,1.3-1.8,1.9c0.1,0.3,0.2,0.5,0.3,0.8c1.1,0.2,2.4,0.5,2.5,1.1&#10;&#9;&#9;&#9;c0.1,0.5-0.8,1.2-1.7,1.8c0.1,0.3,0.2,0.6,0.2,0.9c1,0.2,2.4,0.5,2.5,1.1c0.1,0.6-0.9,1.3-1.8,1.8c0.1,0.3,0.1,0.6,0.2,0.8&#10;&#9;&#9;&#9;c1.1,0.2,2.5,0.5,2.7,1.1c0.1,0.6-1.1,1.5-2.1,2c0,0.2,0.1,0.4,0.1,0.6c1.1,0.1,2.9,0.4,3,1.1c0.1,0.7-1.6,1.8-2.5,2.3&#10;&#9;&#9;&#9;c0,0.1,0,0.2,0,0.3c0.7,0.1,2.4,0.7,2.6,1.5c0.2,1-2.1,2.2-2.2,2.3c0,0.1,0,0.1,0,0.2c2.2,26,12.1,77.7,12.3,79.3&#10;&#9;&#9;&#9;c0,1.2-15,3.3-15.8,0.9c-0.3-0.9-13.2-78.2-13.2-78.2c-1.1-0.2-3-0.7-3.1-1.5c-0.1-0.7,1.4-1.4,2.4-1.9l-0.1-0.4&#10;&#9;&#9;&#9;c-1-0.2-3.3-0.7-3.4-1.5c-0.1-0.7,1.6-1.6,2.6-2l0-0.2c-0.7-0.1-3.6-0.7-3.6-1.6c-0.1-0.8,2-1.7,2.8-2.1l0-0.1l-0.1,0&#10;&#9;&#9;&#9;c0,0-3.7-0.6-3.8-1.6c-0.1-0.8,2.4-1.9,3.1-2.2l0,0l-0.3,0c0,0-3.7-0.6-3.8-1.6c-0.1-0.7,1.8-1.6,2.7-2l-0.1-0.2&#10;&#9;&#9;&#9;c-0.6-0.1-3.6-0.7-3.7-1.6c-0.1-0.6,1-1.2,1.9-1.7l-0.4-0.8c-1.1-0.3-2.5-0.7-2.6-1.4c0-0.4,0.5-0.8,1.1-1.2l-0.3-0.6&#10;&#9;&#9;&#9;c-0.8-0.2-1.5-0.6-1.5-1c0-0.3,0.2-0.6,0.5-0.9l0,0L323,191.2z" style="fill: rgb(46, 42, 43);" transform="matrix(1, 0, 0, 1, -5.684341886080802e-14, 0)"/><path class="st27" d="M434.7,361.9c0.5-0.1,0.8-0.5,0.7-1l0,0l-13-77l1.9-3.2c0.1-0.2,0.1-0.5,0.1-0.7l0,0&#10;&#9;&#9;&#9;&#9;c-0.1-0.2-0.2-0.4-0.4-0.5l0,0l-2.7-1.4l1.1-2.1c0.2-0.4,0.1-0.9-0.4-1.2l0,0l-3-1.6l1.7-2.4c0.2-0.2,0.2-0.5,0.1-0.8l0,0&#10;&#9;&#9;&#9;&#9;c-0.1-0.3-0.3-0.5-0.6-0.6l0,0l-2.3-0.6l1.5-1.7c0.2-0.2,0.2-0.5,0.2-0.8l0,0c-0.1-0.3-0.3-0.5-0.6-0.6l0,0l-2.5-0.8l1-1.7&#10;&#9;&#9;&#9;&#9;c0.1-0.2,0.2-0.5,0.1-0.8l0,0c-0.1-0.2-0.3-0.4-0.5-0.5l0,0l-2.1-0.7l0.9-2c0.1-0.2,0.1-0.5,0-0.7l0,0c-0.1-0.2-0.3-0.4-0.5-0.5&#10;&#9;&#9;&#9;&#9;l0,0l-2.2-0.7L328,184c-0.4-0.3-0.9-0.3-1.2,0.1l0,0c-0.3,0.4-0.3,0.9,0.1,1.2l0,0l85.1,73.5l0.3,0.2l1.4,0.4l-0.9,2&#10;&#9;&#9;&#9;&#9;c-0.1,0.2-0.1,0.5,0,0.7l0,0c0.1,0.2,0.3,0.4,0.5,0.5l0,0l2,0.6l-1,1.7c-0.1,0.2-0.2,0.5-0.1,0.8l0,0c0.1,0.2,0.3,0.4,0.5,0.5&#10;&#9;&#9;&#9;&#9;l0,0l2.3,0.7l-1.5,1.8c-0.2,0.2-0.3,0.5-0.2,0.8l0,0c0.1,0.3,0.3,0.5,0.6,0.6l0,0l2.4,0.6l-1.6,2.1c-0.1,0.2-0.2,0.5-0.1,0.7l0,0&#10;&#9;&#9;&#9;&#9;c0.1,0.2,0.2,0.5,0.4,0.6l0,0l3.1,1.6l-1.1,2.1c-0.2,0.4-0.1,0.9,0.4,1.2l0,0l2.7,1.4l-1.6,2.7c-0.1,0.2-0.1,0.4-0.1,0.6l0,0&#10;&#9;&#9;&#9;&#9;l13,77.3c0.1,0.4,0.4,0.7,0.9,0.7l0,0C434.6,361.9,434.7,361.9,434.7,361.9L434.7,361.9z" style="fill: rgb(255, 255, 255);" transform="matrix(1, 0, 0, 1, -8.526512829121202e-14, 0)"/><path d="M 363.399994 501.299988 H 672.600006 V 504.799988 H 363.399994 V 501.299988 Z" class="st22" style="fill: rgb(109, 118, 115);" transform="matrix(1, 0, 0, 1, -2.842170943040401e-14, 0)"/><path class="st28" d="M415.8,438.9c-0.4,0-0.8,0-1.3,0c-1.7,0-3.9,0.3-6.5,0.9c-0.7,7.4-1.8,13.5-3.3,18.1&#10;&#9;&#9;&#9;c-2.6,6.4-5.3,10.6-8.2,12.6c-3.4,2-7,3-11,3h-1.6c-7.3,0-12.2-2.3-14.6-6.9c-1.5-2.2-2.3-4.3-2.3-6.4V459c0-4.8,2.5-8.9,7.5-12.6&#10;&#9;&#9;&#9;c2.3-0.9,4.7-1.4,7.1-1.4c5.3,0.6,8,2.4,8,5.5c0,1.4-0.9,2.1-2.7,2.1c-2.2-1.2-4.3-1.8-6.2-1.8c-3.2,0-5.6,1.8-7.1,5.5l-0.2,2.5&#10;&#9;&#9;&#9;c0,2,0.8,4.1,2.5,6.2c1.8,2,4.2,3,7.3,3c3.7,0,7-1,10.1-3c3.3-2.5,5.7-7.3,7.3-14.2c0.8-3.2,1.3-6.6,1.6-10.1&#10;&#9;&#9;&#9;c-3.6,0.8-7.3,1.4-11,2.1c-1.4-0.5-2.1-1.2-2.1-2.3V440c0-1.9,2.4-3.3,7.2-4c4.8-0.8,7.2-1.2,7.2-1.5c0-5.8,2.9-13,8.7-21.7&#10;&#9;&#9;&#9;l2.1-1.8h2.1c1.4,0.2,2.1,0.9,2.1,2.1c0,0.8-1.1,2.6-3.4,5.5c-3.8,5.5-5.9,10.6-6.4,15.3c2.8-0.7,5.1-1.1,6.8-1.1&#10;&#9;&#9;&#9;c0.5,0,1.1,0,1.5,0.1c1.7,0.3,2.8,1,3.2,2c0.1,0.4,0.2,0.8,0.2,1.1c0,0.6-0.2,1.2-0.6,1.7c-0.5,0.7-1.5,1.1-2.8,1.1&#10;&#9;&#9;&#9;C416.5,438.9,416.2,438.9,415.8,438.9z M438,398.7c1.5,0.6,2.3,1.5,2.3,2.7c0,1.7-1.8,3.5-5.5,5.3c-3.5,0.9-7.1,1.4-10.7,1.4&#10;&#9;&#9;&#9;l-15.3-0.2c-8.7,0-14.1,1.1-16.2,3.2c-1.4,1.4-2.1,3-2.1,5v1.1c0,1.4,0.9,2.1,2.7,2.1l4.3-0.2c0.6,0.2,1.1,0.6,1.4,1.1v1.8&#10;&#9;&#9;&#9;c0,1.8-2.5,2.7-7.5,2.7c-2.4-0.4-4.5-1.6-6.4-3.7c-0.8-1.8-1.1-3.3-1.1-4.6v-0.9c0-5.4,2.8-9.2,8.5-11.7c4.4-1.2,8.4-1.8,12.1-1.8&#10;&#9;&#9;&#9;h19c6.4,0,10.2-0.6,11.2-1.8C435.9,399.2,437,398.7,438,398.7z" style="fill: rgb(61, 142, 185);" transform="matrix(1, 0, 0, 1, -5.684341886080802e-14, 0)"/><path class="st28" d="M446,440.2c0,0.1,0,0.2,0,0.3c0,1-0.9,4.1-2.6,9.2c-1.9,5.7-3,9.6-3.3,11.5c-0.2,0.9-0.3,1.6-0.3,2.4&#10;&#9;&#9;&#9;c0,0.9,0.1,1.7,0.4,2.4c0.4,1.2,1.2,2,2.3,2.2c0.2,0.1,0.4,0.1,0.7,0.1c1,0,2.3-0.4,3.7-1.3c1.8-1.1,3.3-3,4.5-5.8&#10;&#9;&#9;&#9;c1.2-2.8,1.9-4.4,2.3-4.8c0.4-0.4,0.9-0.7,1.5-1c0.2-0.1,0.5-0.1,0.8-0.1c0.3,0,0.6,0.1,0.9,0.3c0.5,0.3,0.8,0.9,0.8,1.8v0.1&#10;&#9;&#9;&#9;c0,0.9-0.5,2.6-1.4,5c-0.9,2.6-2.3,4.8-4,6.6c-1.7,1.8-3.9,3.2-6.5,4c-0.9,0.3-1.7,0.5-2.6,0.5c-1.7,0-3.4-0.6-5-1.8&#10;&#9;&#9;&#9;c-2.4-1.7-3.7-4-3.8-6.8v-0.3c0-3,1.8-10.2,5.5-21.6l-7.5-1.6c-3.5,8.8-5.7,13.8-6.4,15.2c-0.7,1.4-1.3,2.1-1.7,2.3&#10;&#9;&#9;&#9;c-0.2,0.1-0.5,0.1-0.9,0.1c-0.2,0-0.5,0-0.8-0.1c-0.7-0.1-1.2-0.5-1.6-1.1c-0.2-0.3-0.3-0.7-0.3-1c0-0.3,0.1-0.5,0.2-0.8&#10;&#9;&#9;&#9;c0.2-0.6,0.5-1.3,1-2.2c0.4-0.9,1.7-4.1,3.9-9.6c2.2-5.5,3.4-8.3,3.8-8.4h0.1c0.8,0,5.5,0.9,14.4,2.7&#10;&#9;&#9;&#9;C445.2,439.1,445.8,439.6,446,440.2z" style="fill: rgb(61, 142, 185);" transform="matrix(1, 0, 0, 1, -5.684341886080802e-14, 0)"/><path class="st28" d="M457.7,460v0.8c0,2.4,0.3,4.1,0.8,4.8c0.6,0.9,1.6,1.5,3,1.8c0.5,0.1,1.2,0.2,1.9,0.2c1,0,2.2-0.1,3.6-0.4&#10;&#9;&#9;&#9;c2.3-0.4,4.4-1.3,6.3-2.7c1.9-1.4,3.5-2.9,5-4.5c1.4-1.6,2.6-2.8,3.3-3.5c0.7-0.7,1.6-1,2.6-1h0.1c1,0,1.7,0.6,1.9,1.7&#10;&#9;&#9;&#9;c0.1,0.3,0.1,0.5,0.1,0.8c0,0.8-0.3,1.6-0.8,2.3c-0.7,1-2.4,2.8-5,5.3c-2.6,2.5-5.5,4.5-8.6,5.8c-3.1,1.4-5.9,2.1-8.2,2.1&#10;&#9;&#9;&#9;c-0.3,0-0.5,0-0.8,0c-2,0-3.7-0.3-5.2-0.8c-1.6-0.6-2.9-1.8-4-3.5c-1.1-1.8-1.6-4.1-1.6-7.2v-0.4c0-2.9,0.3-5.7,0.9-8.6&#10;&#9;&#9;&#9;c0.6-3,1.8-6,3.4-8.8c1.7-2.8,3.5-4.8,5.3-5.8c1.9-1,3.3-1.7,4.3-1.9c1-0.2,2.2-0.4,3.7-0.4h0.3c1.3,0,2.6,0.2,3.8,0.6&#10;&#9;&#9;&#9;c1.2,0.5,2.2,1.3,2.9,2.6c0.7,1.2,1.1,2.5,1.3,3.7c0,0.4,0,0.8,0,1.2c0,1.1-0.1,2.4-0.4,3.9c-0.4,2.2-1.9,4.5-4.3,6.9&#10;&#9;&#9;&#9;C470.8,457.4,465.6,459.1,457.7,460z M466.6,452.9c1.7-0.5,3-1.3,3.9-2.2c0.9-0.9,1.6-1.9,2-2.9c0.3-0.8,0.5-1.5,0.5-2.2v-0.5&#10;&#9;&#9;&#9;c-0.1-0.8-0.5-1.5-1.1-2.2c-0.6-0.7-1.4-1.1-2.3-1.3H469c-0.9,0-1.8,0.2-2.9,0.6c-1.3,0.5-2.6,1.4-3.7,2.6&#10;&#9;&#9;&#9;c-1.1,1.2-2.5,4.3-4.2,9.2C462.1,453.8,464.9,453.4,466.6,452.9z" style="fill: rgb(61, 142, 185);" transform="matrix(1, 0, 0, 1, -5.684341886080802e-14, 0)"/><path class="st28" d="M496.7,435.3c0.5-0.3,1-0.5,1.5-0.5c0.2,0,0.5,0,0.7,0c0.8,0.2,1.2,0.7,1.5,1.6v0.3c0,0.9-0.7,2.4-2.1,4.6&#10;&#9;&#9;&#9;l3.4,6.1c3.2,6.6,4.8,11.6,4.8,15.1c0,0.8-0.1,1.4-0.2,2.1c2.8-3.1,4.6-5.5,5.3-7.1c0.8-1.6,1.6-2.3,2.5-2.3h0.1&#10;&#9;&#9;&#9;c0.9,0.1,1.6,0.5,1.9,1.3c0.2,0.4,0.2,0.8,0.2,1.2c0,0.5-0.1,0.9-0.3,1.4c-0.4,0.9-1.1,2.3-2.1,4c-1,1.7-2.8,3.9-5.5,6.4&#10;&#9;&#9;&#9;c-2.7,2.5-5.7,4-9.3,4.3c-0.7,0.1-1.4,0.1-2.1,0.1c-2.5,0-4.5-0.6-6-1.7c-1.9-1.4-3-2.8-3.2-4.2c-0.1-0.4-0.1-0.8-0.1-1.2&#10;&#9;&#9;&#9;c0-0.8,0.2-1.4,0.6-1.8c0.4-0.5,0.9-0.7,1.6-0.7c0.2,0,0.4,0,0.6,0c0.9,0.2,1.6,0.8,2,1.9c0.4,1,0.8,1.7,1.3,2&#10;&#9;&#9;&#9;c0.5,0.3,1.2,0.5,2.1,0.6c0.1,0,0.2,0,0.4,0c0.8,0,1.9-0.3,3.2-1c1.4-0.7,2.1-2.3,2.1-5v-0.8c-0.2-3.2-2.2-8.4-6.2-15.6&#10;&#9;&#9;&#9;c-5,7.1-8,11.2-8.8,12.2c-0.7,0.8-1.4,1.1-2.1,1.1c-0.2,0-0.4,0-0.6-0.1c-0.9-0.3-1.5-1-1.6-2.1c0-0.1,0-0.2,0-0.2&#10;&#9;&#9;&#9;c0-1.2,0.9-2.8,2.6-5c1.8-2.3,4.1-5.6,6.7-9.9C494.3,438.2,496,435.8,496.7,435.3z" style="fill: rgb(61, 142, 185);" transform="matrix(1, 0, 0, 1, -5.684341886080802e-14, 0)"/><path class="st28" d="M516.9,438.9c-2.7,0.6-4.8,1-6.4,1.4c-1.6,0.3-2.5,0.3-2.9-0.2c-0.4-0.4-0.6-1-0.6-1.7&#10;&#9;&#9;&#9;c0-0.7,0.5-1.3,1.6-1.6c1.1-0.4,1.9-0.7,2.6-1c0.6-0.3,2.9-1,6.8-2.2c5.5-16.2,8.7-25.1,9.6-26.6c0.9-1.5,1.8-2.7,2.9-3.5&#10;&#9;&#9;&#9;c1-0.8,2.4-1.3,4-1.6c0.7-0.1,1.4-0.2,2-0.2c0.8,0,1.5,0.1,2.1,0.3c1.1,0.4,1.9,1,2.6,1.8c0.6,0.8,0.9,2,1,3.7v0.2&#10;&#9;&#9;&#9;c0,1.6-0.4,3.7-1.1,6.4c-0.8,2.8-2.1,5.6-4,8.3c-1.8,2.7-4,5.4-6.5,8c-2.5,2.6-5.2,5.2-8.2,7.7l-1.7,7c4.6-4.9,7.8-7.6,9.4-8.1&#10;&#9;&#9;&#9;c1.6-0.5,3.1-0.7,4.4-0.7s2.4,0.3,3.5,1c1,0.7,1.7,2.1,2.1,4.2c0,0.3,0,0.7,0,1.1c0,2.2-0.8,5.5-2.3,10c-1.7,4.9-2.6,8.2-2.6,10&#10;&#9;&#9;&#9;v0.4c0.2,1.6,0.5,2.9,1,3.6c0.5,0.8,1.4,1.2,2.6,1.2h0c1.2,0,2.5-0.7,4.1-2c1.6-1.4,2.9-3,4-4.8c1.1-1.9,1.8-3.1,2.4-3.9&#10;&#9;&#9;&#9;c0.5-0.7,1.2-1.2,1.9-1.4c0.3-0.1,0.7-0.2,1-0.2c0.3,0,0.7,0.1,1,0.2c0.6,0.2,1,0.8,1.1,1.6c0,0.2,0,0.4,0,0.6&#10;&#9;&#9;&#9;c0,0.7-0.2,1.4-0.7,2.2c-0.6,1-2,3-4.3,5.9c-2.3,2.9-4.4,4.9-6.5,6.1c-1.7,1-3.4,1.5-5,1.5c-0.3,0-0.6,0-0.9,0&#10;&#9;&#9;&#9;c-1.9-0.2-3.3-0.8-4.2-1.7c-1-0.9-1.7-2.1-2.1-3.5c-0.4-1.4-0.7-3.1-0.7-5.1v-0.1c0-1.9,0.7-5.1,2.1-9.4c1.4-4.4,2.2-7,2.6-8&#10;&#9;&#9;&#9;c0.2-0.5,0.2-1.1,0.2-1.5c0-0.4-0.1-0.8-0.2-1.1c-0.3-0.7-1-1.1-2.1-1.2H532c-1.1,0-2.3,0.5-3.7,1.4c-1.5,1.1-4.6,4.1-9.1,9.1&#10;&#9;&#9;&#9;c-3.3,12.6-5.1,19.2-5.3,20c-0.2,0.8-0.9,1.2-1.8,1.2c-1,0-1.7-0.2-2.1-0.7c-0.3-0.4-0.4-0.9-0.4-1.6c0-0.2,0-0.4,0-0.6&#10;&#9;&#9;&#9;C509.7,469.8,512.1,459.2,516.9,438.9z M524.7,430.4c7.3-8.7,11.3-15.7,11.9-21.2v-0.2c-0.1-0.7-0.5-1.1-1.2-1.2h-0.3&#10;&#9;&#9;&#9;C531.8,407.9,528.4,415.4,524.7,430.4z" style="fill: rgb(61, 142, 185);" transform="matrix(1, 0, 0, 1, -5.684341886080802e-14, 0)"/><path class="st28" d="M584.4,438c0.5,0.1,1,0.1,1.5,0.1c2.2,0,4.1-0.7,5.5-2.1c1.7-1.6,3-3.3,3.7-5c0.7-1.7,1.2-3.3,1.6-4.7&#10;&#9;&#9;&#9;c0.3-1.4,0.7-2.5,1.1-3.2c0.4-0.7,1-1.2,1.8-1.3h0.5c0.6,0,1.2,0.2,1.7,0.6c0.4,0.3,0.6,0.9,0.6,1.7c0,0.6-0.1,1.4-0.3,2.4&#10;&#9;&#9;&#9;c-0.5,2.2-1.5,4.9-3,8.2c-1.5,3.2-3.4,5.6-5.6,7.1c-2.2,1.5-4,2.4-5.3,2.7c-0.6,0.2-1.2,0.2-2,0.2c-0.9,0-1.9-0.1-3-0.3&#10;&#9;&#9;&#9;c-2-0.4-3.8-1.1-5.2-2.1c-1.5-1.1-2.6-2.7-3.4-4.8c-0.8-2-1.1-4.5-1.1-7.6c0-0.2,0-0.4,0-0.5c0-3.3,0.9-7,2.5-11&#10;&#9;&#9;&#9;c1.6-4,3.8-7.3,6.6-9.6c2.7-2.4,5.2-4.2,7.5-5.6c2.3-1.3,4.6-2.2,7-2.6c1.6-0.2,3.3-0.4,4.8-0.4c0.7,0,1.4,0,2.1,0&#10;&#9;&#9;&#9;c2.2,0.2,4.3,0.9,6.4,2.2c2,1.3,3.6,3.3,4.6,6.1c1,2.6,1.5,6.9,1.5,12.9v1.1c3.9-9.4,7-15.3,9.2-17.6c2.2-2.3,4.3-3.6,6.2-3.9&#10;&#9;&#9;&#9;c0.9-0.2,1.9-0.2,2.7-0.2c0.9,0,1.8,0.1,2.6,0.2c1.6,0.3,3,1.2,4,2.5c1.1,1.3,1.8,3.3,2.3,5.9c0.2,1.5,0.4,3.7,0.4,6.4&#10;&#9;&#9;&#9;c0,2.1-0.1,4.7-0.2,7.6c4.4-9.2,7.9-15.1,10.4-17.8c2.5-2.7,4.9-4.2,7.1-4.6c0.6-0.1,1.2-0.1,1.7-0.1c1.6,0,3.3,0.4,5,1.3&#10;&#9;&#9;&#9;c2.3,1.2,3.7,3.2,4.4,6.2c0.4,1.9,0.6,4.1,0.6,6.4c0,1.2-0.1,2.6-0.2,3.9c-0.4,3.9-1.8,11.2-4.3,21.9c-2.5,10.6-3.8,16.9-4,18.8&#10;&#9;&#9;&#9;c-0.2,1.6-0.2,2.9-0.2,4v0.5c0,1.2,0.6,2,1.7,2.7c0.5,0.3,1.2,0.5,1.9,0.5c0.7,0,1.5-0.2,2.3-0.5c1.7-0.6,3.2-1.3,4.6-2.3&#10;&#9;&#9;&#9;c1.4-1,2.7-2.5,3.9-4.7c1.2-2.2,2.3-3.5,3.2-3.8c0.5-0.2,0.9-0.3,1.2-0.3c0.3,0,0.6,0.1,0.8,0.2c0.5,0.3,0.7,1.1,0.8,2.1v0.1&#10;&#9;&#9;&#9;c0,1.1-0.6,2.8-1.8,5.1c-1.2,2.4-3.3,4.7-6.2,6.7c-2.9,2.1-5.5,3.2-7.9,3.5c-1,0.1-1.8,0.1-2.6,0.1c-1.2,0-2.1-0.1-2.8-0.3&#10;&#9;&#9;&#9;c-1.2-0.4-2.2-1-2.9-1.9c-0.7-0.9-1.3-2.5-1.6-4.8c-0.2-1.1-0.2-2.3-0.2-3.6c0-1.3,0.1-2.6,0.2-4.1c0.3-2.9,1-6.4,2-10.5&#10;&#9;&#9;&#9;c1-4.2,2.1-9.9,3.5-17.1c1.4-7.3,2.1-12.8,2.3-16.5c0-0.3,0-0.7,0-1c0-3.2-0.9-5-2.6-5.6c-0.5-0.1-0.9-0.2-1.4-0.2&#10;&#9;&#9;&#9;c-1.5,0-3,0.7-4.7,2.1c-2.2,1.9-3.9,4.3-5.3,7c-1.4,2.7-2.8,6.3-4.4,10.7c-1.6,4.4-4.3,12.5-8.1,24.3c-3.8,11.8-5.9,18.2-6.2,19.3&#10;&#9;&#9;&#9;c-0.3,1-0.9,1.7-1.8,1.9c-0.6,0.2-1.1,0.3-1.4,0.3c-0.2,0-0.4,0-0.6-0.1c-0.4-0.2-0.8-0.6-1.2-1.2c-0.2-0.3-0.3-0.6-0.3-1.1&#10;&#9;&#9;&#9;c0-0.4,0.1-0.9,0.3-1.5c0.4-1.1,2-7.3,4.7-18.5c2.7-11.2,4.3-19.2,4.7-23.9c0.2-2.7,0.3-5.3,0.3-7.7c0-1.7,0-3.4-0.1-4.9&#10;&#9;&#9;&#9;c-0.3-3.6-1.3-5.8-3.2-6.5c-0.5-0.2-1-0.3-1.6-0.3c-1.3,0-2.5,0.6-3.7,1.9c-1.7,1.8-3.4,4.1-5.1,7c-1.7,2.9-3.3,6.6-4.8,11&#10;&#9;&#9;&#9;s-4.2,12.5-8.2,24.2c-4,11.7-6.2,18.1-6.7,18.9c-0.5,0.9-1.1,1.5-1.7,1.9c-0.5,0.3-1,0.5-1.5,0.5c-0.2,0-0.3,0-0.5-0.1&#10;&#9;&#9;&#9;c-0.7-0.1-1.1-0.5-1.2-1.1c-0.1-0.3-0.2-0.6-0.2-1c0-0.2,0-0.5,0.1-0.8c0.1-0.6,1.7-6.8,4.9-18.4c3.1-11.6,5-19.5,5.5-23.5&#10;&#9;&#9;&#9;c0.5-3.4,0.7-6.6,0.7-9.4v-1.4c-0.1-3.1-0.9-5.8-2.5-8c-1.5-2.1-3.8-3.2-7-3.2h-0.4c-3.4,0.1-6.5,0.9-9.2,2.4&#10;&#9;&#9;&#9;c-2.7,1.5-5,3.3-6.9,5.2c-1.9,2-3.4,4.5-4.6,7.7c-0.9,2.5-1.4,5.1-1.4,7.9c0,0.8,0,1.6,0.1,2.4C579.9,435.6,581.5,437.6,584.4,438&#10;&#9;&#9;&#9;z" style="fill: rgb(61, 142, 185);" transform="matrix(1, 0, 0, 1, -5.684341886080802e-14, 0)"/><path class="st28" d="M683.2,455.2c0.6-2,1.3-4.5,2.2-7.6l2-6.5c0.8-2.9,1.5-4.5,2.2-4.8c0.4-0.1,0.8-0.2,1.2-0.2&#10;&#9;&#9;&#9;c0.3,0,0.6,0,0.9,0.1c0.6,0.2,1,0.9,1,2.1v0c0,1.2-0.7,4.6-2.2,10.1c-1.5,5.6-2.5,9.6-2.9,12c-0.3,1.7-0.5,2.9-0.5,3.8&#10;&#9;&#9;&#9;c0,0.4,0,0.7,0.1,0.9c0.2,0.7,0.6,1.4,1.1,1.9c0.6,0.5,1.2,0.8,2,0.8c0.7,0,1.7-0.4,3-1.2c1.3-0.8,2.7-2.6,4.3-5.4&#10;&#9;&#9;&#9;c1.6-2.8,2.7-4.4,3.3-4.9c0.6-0.5,1.1-0.7,1.7-0.7c0.5,0,1,0.3,1.3,0.8c0.2,0.5,0.3,0.9,0.3,1.4v0.3c-0.1,0.6-0.2,1.2-0.4,1.8&#10;&#9;&#9;&#9;c-0.2,0.6-1.3,2.6-3.3,6c-2,3.4-3.9,5.5-5.7,6.4c-1.8,0.8-3.3,1.3-4.7,1.5c-0.2,0-0.5,0-0.7,0c-1.1,0-2.3-0.3-3.4-1.1&#10;&#9;&#9;&#9;c-1.4-0.8-2.4-2.1-3.1-3.7c-0.6-1.4-1-3.2-1-5.4c0-0.4,0-0.8,0-1.2C682.3,459.5,682.6,457.2,683.2,455.2z M698.7,415.9&#10;&#9;&#9;&#9;c0.9,0.9,1.4,2,1.4,3.3c0,1.3-0.5,2.4-1.4,3.3c-0.9,0.9-2,1.3-3.3,1.3c-1.3,0-2.4-0.4-3.3-1.3c-0.9-0.9-1.4-2-1.4-3.3&#10;&#9;&#9;&#9;c0-1.3,0.5-2.4,1.4-3.3c0.9-0.9,2-1.4,3.3-1.4C696.7,414.5,697.8,414.9,698.7,415.9z" style="fill: rgb(61, 142, 185);" transform="matrix(1, 0, 0, 1, -5.684341886080802e-14, 0)"/><path class="st28" d="M703.4,440c5.5-18.2,9-28.6,10.7-31.3c1.7-2.7,3-4.4,4-5.2c1-0.8,2.4-1.3,4-1.6c0.7-0.1,1.4-0.2,2-0.2&#10;&#9;&#9;&#9;c0.8,0,1.5,0.1,2.1,0.3c1.1,0.4,1.9,1,2.6,1.8c0.6,0.8,0.9,2,1,3.7v0.3c0,1.6-0.2,3.9-0.7,6.8c-0.5,3.1-1.5,6.3-3,9.7&#10;&#9;&#9;&#9;c-1.5,3.4-3.7,6.9-6.6,10.6c-2.9,3.7-6.7,7.1-11.6,10.1c-2.2,9.8-3.3,15.7-3.3,17.8v0.4c0.2,1.6,0.5,2.9,1,3.6&#10;&#9;&#9;&#9;c0.5,0.8,1.4,1.2,2.6,1.2h0c1.2,0,3-0.6,5.3-1.8c2.4-1.2,4.5-2.8,6.3-4.8c1.7-2,2.9-3.4,3.4-4.1c0.5-0.7,1.2-1.2,1.9-1.4&#10;&#9;&#9;&#9;c0.3-0.1,0.7-0.2,1-0.2c0.3,0,0.7,0.1,1,0.2c0.6,0.2,1,0.8,1.1,1.6c0,0.2,0,0.4,0,0.6c0,0.7-0.2,1.4-0.7,2.2&#10;&#9;&#9;&#9;c-0.6,1-2.1,2.9-4.6,5.7c-2.5,2.7-5.4,4.8-8.8,6.1c-2.9,1.2-5.3,1.7-7,1.7c-0.3,0-0.6,0-0.8,0c-1.9-0.2-3.3-0.8-4.2-1.7&#10;&#9;&#9;&#9;c-1-0.9-1.7-2.1-2.1-3.5c-0.4-1.4-0.7-3.1-0.7-5.1v0C699.2,461.2,700.6,453.4,703.4,440z M710.1,436.8&#10;&#9;&#9;&#9;c7.1-6.9,11.5-13.6,13.2-20.2c0.8-3.1,1.2-5.4,1.2-6.9c0-1.3-0.3-2-1-2c-0.2,0-0.3,0-0.5,0h-0.3&#10;&#9;&#9;&#9;C719.5,407.9,715.3,417.6,710.1,436.8z" style="fill: rgb(61, 142, 185);" transform="matrix(1, 0, 0, 1, -5.684341886080802e-14, 0)"/><path class="st28" d="M729.4,456.6c-1.9,8.9-3.1,13.9-3.7,14.9c-0.6,1-1.4,1.6-2.3,1.8c-0.5,0.1-0.9,0.2-1.2,0.2&#10;&#9;&#9;&#9;c-0.3,0-0.5,0-0.7-0.1c-0.4-0.2-0.6-0.5-0.7-1.1v0c0-1,1.2-7.6,3.7-20c2.6-12.8,4.9-22.6,6.9-29.4c2-6.8,3.9-11.6,5.6-14.6&#10;&#9;&#9;&#9;c1.7-2.9,3.2-4.9,4.5-6c1.4-1.1,2.9-1.7,4.5-1.9c0.4,0,0.7,0,1.1,0c1.2,0,2.3,0.2,3.4,0.7c1.4,0.6,2.4,1.7,2.8,3.2&#10;&#9;&#9;&#9;c0.2,0.9,0.4,1.9,0.4,3.1c0,0.9-0.1,1.8-0.2,2.8c-0.3,2.4-1.6,5.6-3.8,9.6c-2.2,4.1-4.5,7-6.9,8.9c-2.4,1.9-6,5.4-10.8,10.4&#10;&#9;&#9;&#9;c3.6-1.8,6.3-3,8-3.6c1.7-0.6,3.3-0.9,4.8-1h0.5c1.3,0,2.6,0.2,3.8,0.7c1.3,0.5,2.3,1.5,2.8,2.7c0.6,1.3,1,2.7,1.3,4.4&#10;&#9;&#9;&#9;c0.1,0.9,0.2,1.7,0.2,2.5c0,0.9-0.1,1.7-0.2,2.5c-0.3,1.7-1.1,3.4-2.4,4.9c-1.3,1.6-2.8,2.6-4.4,3.1c-1.7,0.5-4,1-6.9,1.6&#10;&#9;&#9;&#9;c-0.2,4.8,0.4,7.9,1.7,9.2c1.3,1.3,2.7,1.9,4.2,1.9c1.5,0,3.3-0.9,5.3-2.4c2.1-1.6,3.9-3.4,5.5-5.4c1.6-2.1,2.6-3.4,2.9-4&#10;&#9;&#9;&#9;c0.3-0.6,0.7-1.1,1.3-1.3c0.4-0.1,0.8-0.2,1.2-0.2c0.2,0,0.5,0,0.8,0c0.8,0.1,1.2,0.5,1.4,1.1c0.1,0.4,0.1,0.8,0.1,1.3&#10;&#9;&#9;&#9;c0,0.3,0,0.6,0,0.9c-0.1,0.9-1.3,2.7-3.6,5.6c-2.3,2.9-4.6,5.2-7,7c-2.4,1.8-4.4,2.8-6.2,3c-0.7,0.1-1.4,0.1-2.1,0.1&#10;&#9;&#9;&#9;c-1,0-1.9-0.1-2.7-0.3c-1.4-0.3-2.9-1.2-4.5-2.6c-1.6-1.4-2.6-3.6-3.2-6.5c-0.6-2.9-0.7-5.3-0.4-7.2L729.4,456.6z M730.6,451.4&#10;&#9;&#9;&#9;h0.7c1.4,0.1,2.7,0.1,3.9,0.1c8.2,0,12.5-2.1,12.8-6.2v-0.7c-0.1-2.3-1.6-3.9-4.5-4.6h-0.7C735.2,442.1,731.2,445.9,730.6,451.4z&#10;&#9;&#9;&#9; M732.9,432c8.7-8,13.8-15.8,15.3-23.4c0-2-0.5-3.1-1.4-3.1h-0.1C743,405.5,738.4,414.4,732.9,432z" style="fill: rgb(61, 142, 185);" transform="matrix(1, 0, 0, 1, -5.684341886080802e-14, 0)"/><path d="M 420.79998779296875 547.2999877929688 L 420.79998779296875 547.2999877929688 L 420.79998779296875 547.2999877929688 Z" class="st29" style="fill: rgb(209, 237, 251);" transform="matrix(1, 0, 0, 1, -5.684341886080802e-14, 0)"/><g transform="matrix(1, 0, 0, 1, -5.684341886080802e-14, 0)">
			<path class="st30" d="M421.3,553.3v3.1V583l2.3-1.4c0,0,0.2-28.2,0-28.4H421.3z" style="fill: rgb(139, 195, 220);"/>
		</g><path class="st29" d="M421.3,553.3h2.3c0,0-1.5-3.4-2.3-5.1c0,0,0,0.1,0,0.1V553.3z" style="fill: rgb(209, 237, 251);" transform="matrix(1, 0, 0, 1, -8.526512829121202e-14, 0)"/><path class="st27" d="M420.9,553.3h0.4v-5c0,0,0-0.1,0-0.1c0-0.4-0.2-0.7-0.4-0.9c0,0,0,0,0,0c-0.3-0.3-0.7-0.5-1.2-0.5H404&#10;&#9;&#9;&#9;&#9;c-0.9,0-1.6,0.7-1.6,1.6v5H420.9z" style="fill: rgb(255, 255, 255);" transform="matrix(1, 0, 0, 1, -8.526512829121202e-14, 0)"/><path class="st31" d="M421.3,553.3h-0.4h-18.5v3.1V583h18.9v-26.6V553.3z M411.9,575.3c-3.3,0-6-2.7-6-6c0-3.3,2.7-6,6-6&#10;&#9;&#9;&#9;&#9;c3.3,0,6,2.7,6,6C417.8,572.7,415.2,575.3,411.9,575.3z" style="fill: rgb(156, 219, 248);" transform="matrix(1, 0, 0, 1, -8.526512829121202e-14, 0)"/><path d="M 417.899994 569.400024 A 6 6 0 0 1 411.899994 575.400024 A 6 6 0 0 1 405.899994 569.400024 A 6 6 0 0 1 411.899994 563.400024 A 6 6 0 0 1 417.899994 569.400024 Z" class="st27" style="fill: rgb(255, 255, 255);" transform="matrix(1, 0, 0, 1, -8.526512829121202e-14, 0)"/><g transform="matrix(1, 0, 0, 1, -5.684341886080802e-14, 0)">
			<path class="st30" d="M655.3,553.3v3.1V583l2.3-1.4c0,0,0.2-28.2,0-28.4H655.3z" style="fill: rgb(139, 195, 220);"/>
		</g><path class="st29" d="M655.3,553.3h2.3c0,0-1.5-3.4-2.3-5.1c0,0,0,0.1,0,0.1V553.3z" style="fill: rgb(209, 237, 251);" transform="matrix(1, 0, 0, 1, -8.526512829121202e-14, 0)"/><path class="st27" d="M654.9,553.3h0.4v-5c0,0,0-0.1,0-0.1c0-0.4-0.2-0.7-0.4-0.9c0,0,0,0,0,0c-0.3-0.3-0.7-0.5-1.2-0.5H638&#10;&#9;&#9;&#9;&#9;c-0.9,0-1.6,0.7-1.6,1.6v5H654.9z" style="fill: rgb(255, 255, 255);" transform="matrix(1, 0, 0, 1, -8.526512829121202e-14, 0)"/><path class="st31" d="M655.3,553.3h-0.4h-18.5v3.1V583h18.9v-26.6V553.3z M645.8,575.3c-3.3,0-6-2.7-6-6c0-3.3,2.7-6,6-6&#10;&#9;&#9;&#9;&#9;c3.3,0,6,2.7,6,6C651.8,572.7,649.1,575.3,645.8,575.3z" style="fill: rgb(156, 219, 248);" transform="matrix(1, 0, 0, 1, -8.526512829121202e-14, 0)"/><path d="M 651.799988 569.400024 A 6 6 0 0 1 645.799988 575.400024 A 6 6 0 0 1 639.799988 569.400024 A 6 6 0 0 1 645.799988 563.400024 A 6 6 0 0 1 651.799988 569.400024 Z" class="st27" style="fill: rgb(255, 255, 255);" transform="matrix(1, 0, 0, 1, -8.526512829121202e-14, 0)"/><g transform="matrix(1, 0, 0, 1, -5.684341886080802e-14, 0)">
			<path class="st32" d="M383.7,582.2c-0.9,0-1.7-0.3-2.4-0.8c0,0.1,0,0.2,0,0.3c0,0.8,0.6,1.4,1.4,1.4H393c0.8,0,1.4-0.6,1.4-1.4&#10;&#9;&#9;&#9;&#9;c0-0.1,0-0.2,0-0.3c-0.7,0.5-1.5,0.8-2.4,0.8H383.7z" style="fill: rgb(247, 190, 215);"/>
		</g><path class="st33" d="M380.1,568.1c-0.2,0-0.4,0-0.7-0.1v9.9c0,1.4,0.7,2.7,1.8,3.5c0.7,0.5,1.5,0.8,2.4,0.8h8.2&#10;&#9;&#9;&#9;&#9;c0.9,0,1.7-0.3,2.4-0.8c1.1-0.8,1.8-2,1.8-3.5v-10c-0.3,0.1-0.7,0.2-1.1,0.2H380.1z" style="fill: rgb(240, 93, 109);" transform="matrix(1, 0, 0, 1, -8.526512829121202e-14, 0)"/><path class="st33" d="M387.7,554.6l-2.2-7.3l-1.4,0.5l2,6.9c0.5-0.1,1-0.1,1.5-0.1C387.6,554.6,387.7,554.6,387.7,554.6z" style="fill: rgb(240, 93, 109);" transform="matrix(1, 0, 0, 1, -8.526512829121202e-14, 0)"/><path class="st32" d="M395,561.7c0.3,0,0.6,0,0.9,0.1c-0.7-2.5-2.7-7.1-8.2-7.2c-0.1,0-0.1,0-0.2,0c-0.5,0-1,0-1.5,0.1&#10;&#9;&#9;&#9;&#9;c-4.5,0.7-6.3,4.8-7,7.1c0.3-0.1,0.7-0.2,1-0.2H395z" style="fill: rgb(247, 190, 215);" transform="matrix(1, 0, 0, 1, -8.526512829121202e-14, 0)"/><path class="st27" d="M395.9,561.8c-0.3-0.1-0.6-0.1-0.9-0.1h-15c-0.4,0-0.7,0.1-1,0.2c-1.3,0.4-2.2,1.6-2.2,3.1&#10;&#9;&#9;&#9;&#9;c0,1.5,1.1,2.8,2.6,3.2c0.2,0,0.4,0.1,0.7,0.1h15c0.4,0,0.8-0.1,1.1-0.2c1.2-0.5,2.1-1.6,2.1-3&#10;&#9;&#9;&#9;&#9;C398.3,563.4,397.3,562.2,395.9,561.8z" style="fill: rgb(255, 255, 255);" transform="matrix(1, 0, 0, 1, -8.526512829121202e-14, 0)"/>
</svg>