<?xml version="1.0" encoding="utf-8"?>
<svg id="master-artboard" viewBox="0 0 1400 980" version="1.1" xmlns="http://www.w3.org/2000/svg" x="0px" y="0px" enable-background="new 0 0 1400 980" width="1400px" height="980px"><rect id="ee-background" x="0" y="0" width="1400" height="980" style="fill: rgb(198, 255, 181); fill-opacity: 1; pointer-events: none;"/>
<path fill="#151D38" d="M764.2,142.4c1.5,1,3.3,0.7,5,1c13.8,2.3,25.1,8.8,34.4,19.1c0.7,0.8,1.3,2.3,2.4,2.1&#10;&#9;&#9;c1-0.2,0.9-1.9,1.3-2.9c0.9-2.8,1.7-5.6,2.6-8.4c0.2-0.6,0.4-1.2,0.6-1.7c0.3-0.9,0.7-1.7,1.8-1.8c1.1-0.1,1.6,0.6,2,1.5&#10;&#9;&#9;c0.9,2.1,1.9,4.3,2.7,6.4c1.2,3.1,1.3,2.5,3.4,0.8c1.7-1.5,3.4-2.9,5.1-4.4c0.8-0.7,1.7-1.2,2.8-0.6c1.1,0.6,0.9,1.7,0.7,2.7&#10;&#9;&#9;c-0.8,4-1.6,7.9-2.3,11.9c-0.4,2.2-0.3,2.3,1.9,1.8c8.4-1.7,16.9-2,25.3,0.1c13.6,3.4,23,11.8,29.1,24.2c4.1,8.5,6.2,17.5,7.3,26.8&#10;&#9;&#9;c0.6,4.4,0.7,8.9,1,13.3c0.1,2.1,0.2,2.1,2.3,1.9c20.5-2.3,39.4,12.3,42.2,32.6c2.9,20.6-10.9,39.6-31.2,43.2&#10;&#9;&#9;c-3.6,0.6-3.6,0.6-2.8,4.3c8,38.7,16.1,77.3,24.2,116c7.6,36.5,15.2,73,22.8,109.4c1.7,8,4.5,15.8,6.9,23.6&#10;&#9;&#9;c18.7,60.4,37.5,120.9,56.3,181.3c1.4,4.5,2.9,9.1,3.2,13.9c1.3,20.8-7.2,36.4-25,47.2c-1,0.6-2.9,0.9-2.7,1.9&#10;&#9;&#9;c0.2,0.9,2.1,0.3,3.3,0.3c14.6,0,29.2,0,43.8,0c0.7,0,1.4,0,2.1,0c1.4,0.1,1.9-0.5,2.1-1.9c0.3-3.8,0.7-7.7,1.1-11.5&#10;&#9;&#9;c1.8-18.5,3.6-37.1,5.4-55.7c0.2-2.2,0.1-4.5,0.2-6.7c0-8.7,0.2-17.4-0.1-26.1c-0.2-7.8,5.3-16,15.8-15.8c6.5,0.1,13,0,19.5,0&#10;&#9;&#9;c9.6,0.1,15.7,6.2,15.7,15.9c0,7.5,0.1,15,0,22.5c-0.2,8.4,0.8,16.8,1.6,25.2c0.9,9.4,1.8,18.8,2.8,28.1c0.8,8,1.6,15.9,2.3,23.9&#10;&#9;&#9;c0.1,1.7,0.8,2.3,2.4,2.2c1.3-0.1,2.7-0.3,3.8,0.7c0,0.8,0,1.6,0,2.4c-1.2,0.8-2.5,0.6-3.8,0.6c-23.1,0-46.2,0-69.3,0&#10;&#9;&#9;c-82.3,0-164.6,0-246.9,0c-0.7,0-1.4,0-2.1,0c-1.2-0.1-2.1,0.3-3,1.1c-5.8,4.9-12.2,4.8-18.2,0c-1.8-1.5-2.6-1.5-4.4,0.1&#10;&#9;&#9;c-1.6,1.4-3.4,2.5-5.5,3.1c-4.6,1.2-8.6,0.2-12.2-2.8c-2.5-2-2.8-2-5.4,0.1c-0.1,0.1-0.2,0.1-0.2,0.2c-5,4-11.9,4.1-16.8-0.1&#10;&#9;&#9;c-1.6-1.4-3.1-1.7-4.9-1.6c-68.9,0-137.8,0-206.7,0c-50,0-99.9,0-149.9,0c-21.4,0-42.8,0-64.1,0c-1.7,0-3.2-0.1-4.5-1.2&#10;&#9;&#9;c0-0.6,0-1.2,0-1.8c1.7-0.8,3.5-0.7,5.3-0.7c15.8,0,31.6,0,47.4,0c0.8,0,1.6,0,2.4,0c0.2,0,0.4-0.1,0.5-0.2&#10;&#9;&#9;c0.2-0.4-0.1-0.6-0.4-0.7c-0.7-0.3-1.5-0.6-2.3-0.9c-25.3-10.8-42-29.1-49-55.8c-1.4-5.5-2.1-11.1-2.2-16.8c0-3,0.3-3.3,3.2-3.4&#10;&#9;&#9;c1.8,0,3.7-0.1,5.5,0c1.3,0.1,2-0.5,2.4-1.7c0.4-1.2,1-2.5,1.6-3.6c12.2-24.6,31.8-39.5,58.9-43.2c25.9-3.5,47.8,5.5,65.7,24.3&#10;&#9;&#9;c0.8,0.8,1.3,2.5,2.6,2.1c0.9-0.3,0.8-1.9,1.1-3c2.5-9.2,5.4-18.3,9.2-27c3.6-8.4,7.8-16.5,13.9-23.4c0.9-1,0.9-1.5-0.3-2.3&#10;&#9;&#9;c-13.9-8.8-20.9-22.1-24.5-37.7c-0.4-1.6-0.6-3.2-0.8-4.8c-0.2-2,0.3-2.5,2.4-2.6c0.7-0.1,1.4,0,2.1,0c26.7,0,53.3,0,80,0&#10;&#9;&#9;c4.7,0,4.8,0.2,4,4.9c-1,6.1-2.8,12-5.5,17.6c-4.4,9.3-10.5,17-19.3,22.6c-0.7,0.4-1.9,0.6-0.8,1.9c11.1,12.9,16.7,28.6,21.5,44.5&#10;&#9;&#9;c4.9,16,8,32.4,10.5,49c0.7,4.4,1.3,8.8,1.8,13.2c0.2,1.8,1,2.1,2.5,2.1c4.1-0.1,8.1,0,12.2,0c11.6,0,23.1,0,34.7,0&#10;&#9;&#9;c3.6,0,4,0.5,3.2,3.9c-3.3,14-11.4,24.5-24.2,31c-2.2,1.1-3.1,2.3-2.8,4.6c0.2,1.2,0.1,2.4,0,3.6c-0.1,1.4,0.6,1.8,1.8,1.7&#10;&#9;&#9;c0.7,0,1.4,0,2.1,0c41.7,0,83.3,0,125,0c1,0,2-0.1,3-0.1c-0.7-1-1.9-0.9-2.9-1.2c-55.8-14.6-98.5-57.4-112.8-113.3&#10;&#9;&#9;c-3-11.8-4.6-23.9-4.7-36.1c0-4,0.1-4.1,4.1-4.1c41.1,0,82.1,0,123.2,0c3.9,0,3.9,0,4.4-3.9c0.5-4.6,1.7-8.9,3.7-13.1&#10;&#9;&#9;c5.5-11.6,5.3-23.3,0.1-34.9c-5.6-12.4-5.6-24.9,0-37.4c2.5-5.6,4-11.5,3.8-17.7c-0.1-2.6-2-4.6-4.7-4.3&#10;&#9;&#9;c-15.7,1.5-30.7-1.4-45.3-6.7c-2.2-0.8-2.2-0.8-3.3,1.4c-2.4,5-6.3,7.8-11.8,8.3c-2.8,0.3-5.6,0.5-8.5,0.8&#10;&#9;&#9;c-8.6,0.9-15.8-5.6-15.8-14.2c0-0.3,0-0.6,0-0.9c0.1-2.5,0.1-2.5-2.1-3.5c-5.6-2.6-8.6-6.9-8.8-13.1c-0.1-6.2,3.8-11.6,9.7-13.6&#10;&#9;&#9;c0.6-0.2,1.2-0.3,1.7-0.5c0.3-0.1,0.5-0.3,0.7-0.4c-0.2-0.2-0.4-0.5-0.7-0.6c-1.8-0.9-3.7-1.7-5.5-2.5c-3.9-1.8-7.1-4.3-9.6-7.7&#10;&#9;&#9;c-6.8-9.1-6.4-21.4,0.8-30.1c1.7-2.1,1.7-2.1-0.3-3.9c-30.9-26.8-61.9-53.7-92.8-80.5c-0.9-0.8-1.9-1.6-2.7-2.4&#10;&#9;&#9;c-1.4-1.4-1.5-3-0.4-4.4c1.1-1.4,2.9-1.5,4.6-0.3c0.7,0.5,1.4,1.2,2.1,1.8c31.4,27.2,62.8,54.4,94.1,81.7c1.8,1.5,3.2,2.2,5.5,1.1&#10;&#9;&#9;c3.3-1.5,7-1.9,10.7-1.6c0.4,0,1.1,0.5,1.3-0.2c0.1-0.3-0.3-0.7-0.6-1c-3.5-3.5-7.1-7-10.6-10.4c-29.3-28.5-58.5-57-87.8-85.5&#10;&#9;&#9;c-0.6-0.6-1.2-1.1-1.7-1.7c-1.2-1.4-1.1-3.2,0-4.4c1.2-1.2,2.8-1.2,4.4-0.1c0.5,0.4,0.9,0.8,1.3,1.2&#10;&#9;&#9;c38.7,37.7,77.4,75.4,116.1,113.1c0.3,0.3,0.6,0.6,0.9,0.9c0.8,0.8,1.4,1,2.1-0.2c2-3.6,4.1-7.2,6.2-10.8c0.4-0.7,0.3-1.3-0.2-1.9&#10;&#9;&#9;c-0.5-0.5-0.9-1.1-1.4-1.6c-12.9-15.1-25.4-30.5-36.8-46.9c-10.7-15.4-17.5-32.4-20.7-50.8c-1.3-7.7-1.6-15.5-0.7-23.3&#10;&#9;&#9;c0.1-0.6,0.5-1.3-0.1-1.7c-0.5-0.4-1.2,0.2-1.7,0.4c-7.9,4.1-15.8,8.2-23.7,12.3c-0.8,0.4-1.6,0.9-2.5,1.2&#10;&#9;&#9;c-1.7,0.5-2.7-0.7-2.3-2.4c0.2-0.8,0.6-1.5,0.9-2.2c4.7-10.2,9.4-20.4,14.1-30.6c0.2-0.4,0.3-0.7,0.5-1.1c1.5-3.2,1.5-3.3-2-3.3&#10;&#9;&#9;c-7.1-0.1-14.2-0.1-21.3-0.1c-3.6,0-7.3,0-10.9-0.1c-0.7,0-1.4,0-2.1-0.1c-1.4-0.3-2-1.4-1.3-2.8c0.3-0.7,0.9-1.4,1.3-2&#10;&#9;&#9;c5.8-8.3,11.5-16.7,17.3-25c0.3-0.5,0.7-1,1-1.5c1.1-1.7,1.1-1.9-0.9-2.3c-4.7-0.9-9.4-1.8-14-2.6c-7.8-1.5-15.5-2.9-23.3-4.4&#10;&#9;&#9;c-0.6-0.1-1.2-0.2-1.7-0.5c-1.3-0.6-1.5-2.1-0.4-3c0.9-0.7,2.1-1.2,3.2-1.8c50.3-26.4,100.7-52.7,151-79.1&#10;&#9;&#9;c15.1-7.9,30.2-15.8,45.2-23.7c9.4-5,19.5-7.9,30.1-9.2c0.9-0.1,1.8,0.1,2.6-0.6C756.9,142.4,760.5,142.4,764.2,142.4z" transform="matrix(1, 0, 0, 1, -2.842170943040401e-14, 0)"/><path fill="#FAE0D6" d="M852.1,611.9c2.5-0.1,6.4-0.2,10.4-0.7c3.9-0.4,7.8-1,11.7-1.7c16.2-3.2,31.2-9.5,44.2-19.8&#10;&#9;&#9;c13.5-10.8,22.8-24.3,26.6-41.3c0.3-1.4,0.3-2.8,0-4.2c-4.7-22.6-9.4-45.2-14.2-67.8C920,423.9,909,371.5,898.1,319&#10;&#9;&#9;c-0.5-2.2-0.9-4.4-1.3-6.5c-0.5-2.7,0-3.3,2.6-3.5c0.3,0,0.6,0,0.9-0.1c16.5-1.5,29.6-14.1,31.6-30.4c1.7-14.3-5.9-28.4-18.8-34.9&#10;&#9;&#9;c-13-6.5-28.7-4.2-39.2,5.8c-0.6,0.6-1.1,1.2-1.8,1.7c-0.8,0.6-1.8,0.6-2.5-0.1c-0.6-0.6-0.7-1.4-0.3-2.2c0.3-0.7,1.5-1.2,1.1-2&#10;&#9;&#9;c-0.4-0.8-1.3-1.3-2-1.9c-0.6-0.5-1.3-0.9-1.9-1.5c-1.1-1.2-2.3-1.2-3.8-0.7c-9.4,3-19,4.2-28.8,3.2c-15.7-1.5-28.7-8-38.7-20.3&#10;&#9;&#9;c-0.4-0.5-0.8-0.9-1.1-1.4c-0.5-0.8-1.2-1-2.1-0.5c-0.5,0.3-1.1,0.6-1.6,0.8c-63.1,32.8-126.2,65.6-189.3,98.3&#10;&#9;&#9;c-1.9,1-2.6,2.2-2.9,4.1c-1,6-1.2,12.1-0.5,18.2c2.1,18.5,8.1,35.7,18.2,51.4c4,6.2,8.3,12.2,12.8,18.1c17,22.3,35.4,43.3,54.2,64&#10;&#9;&#9;c5,5.6,10.1,11.1,15.2,16.6c1.2,1.3,1.3,1.3,2-0.2c1.2-2.8,2.5-5.5,3.2-8.5c2-8.8,1.7-17.5-2-25.9c-1.7-3.9-3.4-7.8-4.1-12.1&#10;&#9;&#9;c-1.4-9.3-0.7-18.4,3.5-27c2.7-5.7,3.9-11.7,3.8-18c-0.1-6-1.5-11.6-4-17c-3.8-8.1-4.6-16.7-3.4-25.5c0.6-4.4,2.1-8.4,4-12.4&#10;&#9;&#9;c2-4.3,3.1-8.8,3.4-13.5c0.1-1.4-0.2-2.3-1.8-2.4c-2-0.2-4-0.9-5.8-1.6c-2.3-0.9-3-1.8-2.4-3.1c0.5-1.2,1.5-1.4,3.7-0.5&#10;&#9;&#9;c14.7,5.9,34.2-1.8,41-16c0.1-0.3,0.2-0.6,0.4-0.8c0.5-1.1,1.3-1.9,2.6-1.4c1.1,0.4,1.4,1.6,0.7,3.1c-0.3,0.7-0.6,1.6-1.1,2.2&#10;&#9;&#9;c-3.2,3.4-3.3,7.6-3,11.9c0.1,0.8,0,1.6,0,2.4c0.5,8.4-1.1,16.3-4.8,23.9c-2.2,4.4-2.9,9.2-3.1,14.1c-0.2,6.5,1,12.7,3.8,18.6&#10;&#9;&#9;c2.7,5.8,4.1,11.8,4.1,18.2c0.1,6.9-1.2,13.5-4.2,19.7c-2.6,5.4-3.7,11.1-3.7,17.1c0,6.1,1.3,11.8,3.9,17.3&#10;&#9;&#9;c2.7,5.8,3.9,11.8,4,18.2c0.1,7.2-1.7,13.8-4.5,20.3c-4.7,10.7-4.6,21.4-0.1,32.1c0.8,2,1.8,3.9,2.4,5.9c0.6,1.8,1.5,3.2,2.8,4.6&#10;&#9;&#9;c19.3,19.8,38.6,39.7,57.8,59.5c1.1,1.1,2.3,1.9,3.7,2.6C816.7,608.3,833.3,611.6,852.1,611.9z" transform="matrix(1, 0, 0, 1, -2.842170943040401e-14, 0)"/><path fill="#EDCFE4" d="M903,810.1c20.8,0,41.6,0,62.3,0c3.1,0,6.1-0.2,9.1-0.8c26.9-5.1,42.9-31.9,34.8-58&#10;&#9;&#9;c-17.2-55.3-34.4-110.6-51.6-165.9c-2.9-9.4-5.8-18.8-8.7-28.1c-0.3-0.9-0.2-2.1-1.3-2.7c-0.3,0.8-0.7,1.6-1,2.5&#10;&#9;&#9;c-2.6,7.4-6.2,14.3-11,20.5c-9.4,12.4-21.5,21.5-35.7,27.6c-32,13.8-64.3,13.7-96.7,1c-0.7-0.3-1.3-0.6-2-0.8&#10;&#9;&#9;c-1.7-0.6-1.7-0.6-1.8,1.1c0,0.7,0,1.4,0,2.1c0,14.1,0,28.2,0,42.3c0,5-0.7,4.4,4.3,4.4c23.4,0,46.8,0,70.2,0c3.8,0,4,0.2,4,3.9&#10;&#9;&#9;c0,8.2-0.7,16.4-2.2,24.5c-4.6,26.5-15.3,50.2-32,71.3c-0.6,0.8-1.9,1.5-1.4,2.4c0.5,0.9,1.8,0.4,2.8,0.4c30.2,0,60.4,0,90.6,0&#10;&#9;&#9;c0.5,0,1,0,1.5,0c6.9-0.3,11.2-6.3,9.3-12.9c-0.3-0.9-0.6-1.7-0.8-2.6c-5.3-15.9-10.6-31.9-15.9-47.8c-0.9-2.6-0.7-3.8,0.7-4.1&#10;&#9;&#9;c1.3-0.4,2,0.3,2.8,2.8c1.7,5,3.3,10,5,15c3.9,11.7,7.9,23.4,11.7,35.2c2.7,8.3-1.8,16.2-10,18c-1.4,0.3-2.8,0.3-4.2,0.3&#10;&#9;&#9;c-31.3,0-62.6,0-94,0c-0.8,0-1.6,0-2.4,0c-3,0.2-4.2,1.5-4.2,4.4c0,13.8,0,27.6,0,41.4c0,2.7,0,2.7,2.6,2.7c0.7,0,1.4,0,2.1,0&#10;&#9;&#9;C861,810.1,882,810.1,903,810.1z" transform="matrix(1, 0, 0, 1, -2.842170943040401e-14, 0)"/><path fill="#151D38" d="M887.3,231.6c-0.3-6-1-11.9-2.1-17.8c-1.6-8.1-4.1-15.9-8.6-22.9c-4.6-7.2-10.8-12.6-18.8-15.7&#10;&#9;&#9;c-6.6-2.5-13.5-3.3-20.6-2.7c-4.2,0.3-8.2,1.1-12.2,2.2c-2.4,0.7-3.2-0.1-2.9-2.5c0.1-0.8,0.3-1.6,0.4-2.4c0.5-2.6,1-5.2,1.5-7.8&#10;&#9;&#9;c0.1-0.3,0.2-0.9-0.3-1c-0.2,0-0.6,0.2-0.8,0.3c-1.2,1-2.3,2-3.5,3c-2,1.6-2.9,1.4-3.9-0.8c-0.7-1.6-1.3-3.2-2-4.7&#10;&#9;&#9;c-0.2-0.4-0.4-0.8-0.8-0.7c-0.2,0-0.3,0.5-0.4,0.8c-1.1,3.5-2.1,7-3.3,10.4c-0.8,2.5-2.2,2.7-3.9,0.8c-1.8-2.2-3.5-4.4-5.5-6.5&#10;&#9;&#9;c-9.3-9.8-20.7-15.5-34.1-16.8c-15-1.4-29.2,1.8-42.6,8.7c-25.1,13-50.1,26.2-75.1,39.3c-38.8,20.3-77.5,40.6-116.3,60.9&#10;&#9;&#9;c-0.8,0.4-2.2,0.6-2.1,1.5c0.1,0.9,1.5,0.8,2.3,0.9c10.9,2.1,21.9,4.1,32.8,6.2c3.9,0.7,4.3,1.7,2.1,4.9c-0.3,0.5-0.7,1-1,1.5&#10;&#9;&#9;c-5.7,8.2-11.3,16.3-17,24.5c-0.4,0.5-1.2,1-0.7,1.8c0.4,0.6,1.1,0.4,1.7,0.4c5.9,0.1,11.8,0.1,17.6,0.2c5.4,0,10.7,0,16.1,0.1&#10;&#9;&#9;c2.3,0,2.9,1,2.2,3.1c-0.2,0.7-0.6,1.3-0.9,1.9c-4.5,9.8-9,19.5-13.5,29.3c-0.3,0.7-1.2,1.6-0.6,2.2c0.7,0.7,1.5-0.4,2.3-0.7&#10;&#9;&#9;c0.2-0.1,0.4-0.2,0.5-0.3c55-28.6,110-57.2,165-85.7c17.6-9.2,35.2-18.3,52.9-27.5c3.3-1.7,3.4-1.7,5.7,1.3c0.4,0.5,0.7,1,1.1,1.5&#10;&#9;&#9;c6,7.7,13.6,13.4,22.9,16.4c16.6,5.4,32.7,4,48.5-3.3c0.8-0.4,1.5-1,2.5-1.1c0.8-0.1,1.4,0.1,1.8,0.9c0.4,0.7,0.3,1.4-0.1,2&#10;&#9;&#9;c-0.4,0.5-0.9,0.8-1.4,1.1c-2.9,1.7-2.9,1.7-0.3,3.7c0.4,0.3,0.8,0.6,1.2,1c0.7,0.6,1.3,0.7,2.1,0.1c3.4-2.5,7.1-4.3,11.1-5.6&#10;&#9;&#9;c0.9-0.3,1.3-0.8,1.3-1.8C887.2,234.6,887.3,233.1,887.3,231.6z" transform="matrix(1, 0, 0, 1, -2.842170943040401e-14, 0)"/><path fill="#7DA4EC" d="M721.6,688.5c-48.6,0-97.3,0-145.9,0c-3.6,0-3.6,0-2.8,3.4c6.9,29.3,21.2,54.4,42.8,75.3&#10;&#9;&#9;c24.6,23.7,54,37.5,87.9,41.7c3.8,0.5,7.7,0.8,11.5,0.9c1.3,0,1.8-0.4,1.6-1.8c-0.2-1.1-0.4-2.2-0.4-3.3c0-7.7-0.1-15.4,0-23.1&#10;&#9;&#9;c0-3.1,0.4-6.3,1.5-9.2c4.6-12,18.1-17.7,30.1-12.8c1.3,0.5,2.4,1.2,4,0.4c6.5-3.1,13.1-3,19.7,0c1,0.5,1.8,0.5,2.8,0&#10;&#9;&#9;c3.5-1.8,7.3-2.3,11.2-2.3c15.9,0.1,31.8,0,47.7,0.1c2.4,0,3.9-0.7,5.4-2.5c15.4-18.6,26-39.5,31.6-63c1.1-4.4,1.3-3.9-3.1-3.9&#10;&#9;&#9;C818.7,688.5,770.1,688.5,721.6,688.5z" transform="matrix(1, 0, 0, 1, -2.842170943040401e-14, 0)"/><path fill="#FAE0D6" d="M470.3,809.5c14.1,0,28.2,0,42.2,0c5.1,0,5,0,5.1-5.2c0-2-0.5-3-2.4-3.9c-10.6-5.3-18.1-13.5-22.5-24.5&#10;&#9;&#9;c-1-2.5-1.9-5.1-2.3-7.9c-0.3-2.1,0.3-2.7,2.4-2.8c0.8,0,1.6,0,2.4,0c9,0,18,0,27.1,0c2.2,0,2.2-0.1,2-2.3&#10;&#9;&#9;c-2.1-16.5-4.9-32.8-8.9-49c-2.3-9.2-5-18.4-8.4-27.2c-1-2.6-1-2.6-3.9-2.7c-2.6,0-5.3,0-7.9,0c-15.6,0-31.2,0-46.8,0&#10;&#9;&#9;c-2.7,0-2.8,0-3.7,2.5c-3.4,8.7-6,17.6-8.3,26.6c-0.3,1.1-0.4,2.1,0.4,3.1c3.1,4.5,5.7,9.3,7.6,14.5c0.4,1.1,1.1,1.5,2.3,1.5&#10;&#9;&#9;c1.8-0.1,3.6,0,5.5,0c3,0,3.3,0.3,3.3,3.3c-0.1,8.8-1.7,17.3-4.7,25.6c-5,13.6-13.3,25-24.5,34.2c-1.6,1.3-2.5,2.7-2.5,4.9&#10;&#9;&#9;c0,2.2-0.2,4.5-0.3,6.7c-0.1,2.6-0.1,2.6,2.5,2.7c0.6,0,1.2,0,1.8,0C441.9,809.5,456.1,809.5,470.3,809.5z" transform="matrix(1, 0, 0, 1, -2.842170943040401e-14, 0)"/><path fill="#EBBE62" d="M374,753.7c-23.5,0-47,0-70.5,0c-4.5,0-4.6-0.7-2.9,4.2c12.7,37.4,52.9,59.9,91.3,50.3&#10;&#9;&#9;c27.6-6.9,46.5-24,56.1-51.1c1.2-3.4,1.1-3.4-2.5-3.4C421.6,753.7,397.8,753.7,374,753.7z" transform="matrix(1, 0, 0, 1, -2.842170943040401e-14, 0)"/><path fill="#7DA4EC" d="M721.6,659c-9.2,0-18.4,0-27.7,0c-40.2,0-80.5,0-120.7,0c-0.8,0-1.6,0-2.4,0c-1.4-0.1-2,0.5-1.9,2&#10;&#9;&#9;c0.2,3.4,0.4,6.9,0.6,10.3c0.3,4.6,0.3,4.6,4.8,4.6c98.2,0,196.4,0,294.6,0c0.6,0,1.2,0,1.8,0c2.5,0,2.6-0.1,2.8-2.5&#10;&#9;&#9;c0.3-3.3,0.6-6.7,0.7-10c0.2-4.9,0.8-4.4-4.3-4.4C820.5,659,771.1,659,721.6,659z" transform="matrix(1, 0, 0, 1, -2.842170943040401e-14, 0)"/><path fill="#FFFFFF" d="M763.2,655.3c9.6,0,19.2,0,28.9,0c0.7,0,1.4,0,2.1,0c1,0,1.5-0.4,1.5-1.4c0-0.6,0-1.2,0-1.8&#10;&#9;&#9;c0-15.7,0-31.4,0-47.1c0-1.7-0.5-3-1.7-4.3c-9.7-9.9-19.4-19.8-29.1-29.8c-8.1-8.4-16.2-16.7-24.3-25.1c-0.5-0.5-0.9-1.4-1.6-1.2&#10;&#9;&#9;c-0.8,0.3-0.4,1.2-0.3,1.9c0.4,7.5-1.2,14.6-4.3,21.5c-4.9,10.9-4.8,22-0.1,33c0.6,1.3,1.1,2.6,1.6,3.9c4,11,4,22-0.5,32.9&#10;&#9;&#9;c-0.8,1.9-1.6,3.7-2.3,5.6c-1.3,3.2-1.7,6.6-2.1,10.1c-0.1,1.3,0.3,1.9,1.6,1.8c0.7,0,1.4,0,2.1,0&#10;&#9;&#9;C744.1,655.3,753.7,655.3,763.2,655.3z" transform="matrix(1, 0, 0, 1, -2.842170943040401e-14, 0)"/><path fill="#FFFFFF" d="M374.1,732.3c21,0,41.9,0,62.9,0c3.9,0,4.2,0.6,2.3-3.6c-13.5-29.3-46.1-46.8-77.5-40.7&#10;&#9;&#9;c-24.5,4.8-42.2,18.7-53.1,41.2c-1.5,3.1-1.4,3.2,2.1,3.2C331.9,732.3,353,732.3,374.1,732.3z" transform="matrix(1, 0, 0, 1, -2.842170943040401e-14, 0)"/><path fill="#FFFFFF" d="M1070.6,810.2c8.6,0,17.2,0,25.8,0c2.7,0,2.7,0,2.5-2.6c-0.9-8.9-1.7-17.7-2.6-26.6&#10;&#9;&#9;c-1.2-12.6-2.4-25.2-3.7-37.8c-0.2-2.1-0.2-2.2-2.4-2.2c-13.1,0-26.1,0-39.2,0c-1.6,0-2.3,0.4-2.5,2.2c-0.6,7.3-1.4,14.5-2.2,21.8&#10;&#9;&#9;c-1.4,14.1-2.7,28.2-4.1,42.3c-0.3,2.9-0.3,3,2.8,3C1053.6,810.2,1062.1,810.2,1070.6,810.2z" transform="matrix(1, 0, 0, 1, -2.842170943040401e-14, 0)"/><path fill="#FAE0D6" d="M475.9,613.1c-12.6,0-25.1,0-37.7,0c-2.9,0-3,0-2.4,2.8c1.5,7.1,4,13.8,7.8,20c4.1,6.7,9.3,12.2,16.2,16.1&#10;&#9;&#9;c4.4,2.4,4.4,2.6,1,6.1c-3.4,3.5-6.1,7.6-8.5,11.8c-0.5,0.9-0.5,1.6,0.8,1.5c0.7,0,1.4,0,2.1,0c13.3,0,26.5,0,39.8,0&#10;&#9;&#9;c1.4,0,3.5,0.8,4.2-0.5c0.6-1.2-1.1-2.6-1.8-3.9c-2.2-3.6-4.8-7-7.8-10c-2-2-1.8-2.9,0.7-4.3c0.2-0.1,0.4-0.2,0.5-0.3&#10;&#9;&#9;c4.6-2.4,8.6-5.7,12-9.6c5.9-6.8,9.7-14.7,11.9-23.3c0.4-1.6,0.8-3.1,1.1-4.7c0.3-1.2-0.2-1.7-1.4-1.6c-0.7,0.1-1.4,0-2.1,0&#10;&#9;&#9;C500.2,613.1,488.1,613.1,475.9,613.1z" transform="matrix(1, 0, 0, 1, -2.842170943040401e-14, 0)"/><path fill="#FAE0D6" d="M806.1,761.6c-7.2,0-14.4,0-21.6,0c-0.2,0-0.4,0-0.6,0c-9.8,0.3-18,7.8-18.4,17.6c-0.4,8.9-0.3,17.8,0,26.7&#10;&#9;&#9;c0.2,5.9,5.8,9.9,11.5,8.6c4.2-0.9,7.2-4.6,7.2-9.3c0.1-7.6,0-15.2,0-22.8c0-0.8,0-1.6,0.1-2.4c0.1-1.1,0.9-1.6,1.9-1.6&#10;&#9;&#9;c0.9,0,1.5,0.6,1.7,1.5c0.1,0.7,0.1,1.4,0.1,2.1c0,2.6,0,5.3,0,7.9c0.1,11.4,8.6,20,19.9,20.2c7,0.1,14,0,21,0&#10;&#9;&#9;c2.4,0,2.5-0.1,2.5-2.6c0-14.5,0-29,0-43.5c0-2.5-0.1-2.5-2.6-2.5C821.3,761.5,813.7,761.6,806.1,761.6z" transform="matrix(1, 0, 0, 1, -2.842170943040401e-14, 0)"/><path fill="#FFFFFF" d="M535.8,768.9c-8.1,0-16.2,0-24.3,0c-5,0-9.9,0-14.9,0c-2,0-2.1,0.1-1.5,2.1c0.2,0.6,0.3,1.2,0.5,1.7&#10;&#9;&#9;c7.3,21.3,30.2,33.3,51.8,26.9c14.2-4.2,23.7-13.6,28.5-27.6c1.2-3.6,1.1-3.2-2.4-3.2c-0.3,0-0.6,0-0.9,0&#10;&#9;&#9;C560.3,768.9,548.1,768.9,535.8,768.9z" transform="matrix(1, 0, 0, 1, -2.842170943040401e-14, 0)"/><path fill="#FFFFFF" d="M721.6,679.5c-49.1,0-98.3,0-147.4,0c-3.7,0-4,0.5-3,4c0.3,1,0.8,1.3,1.7,1.3c0.9,0,1.8,0,2.7,0&#10;&#9;&#9;c97.4,0,194.7,0,292.1,0c0.9,0,1.8,0,2.7,0c0.5,0,1.1,0,1.3-0.6c0.6-1.3,1-2.8,0.5-4.1c-0.4-1.1-1.8-0.5-2.7-0.6&#10;&#9;&#9;c-0.8-0.1-1.6,0-2.4,0C818.6,679.5,770.1,679.5,721.6,679.5z" transform="matrix(1, 0, 0, 1, -2.842170943040401e-14, 0)"/><path fill="#CCD6DA" d="M1070.6,737.2c6.5,0,13,0,19.4,0c2.1,0,2.2-0.1,2.2-2.2c0-9.2,0.1-18.4,0-27.6c-0.1-6.6-4.5-11-11.2-11.1&#10;&#9;&#9;c-7-0.1-14-0.1-20.9,0c-6.5,0.1-11.1,4.5-11.2,11.1c-0.1,9.2-0.1,18.4,0,27.6c0,2.1,0.1,2.2,2.3,2.2&#10;&#9;&#9;C1057.6,737.2,1064.1,737.2,1070.6,737.2z" transform="matrix(1, 0, 0, 1, -2.842170943040401e-14, 0)"/><path fill="#FFF3A2" d="M734.9,331.1c0-2.4,0-4.3,0-6.2c0-0.8-0.3-1.2-1.1-0.7c-1.6,1.1-2.9,2.2-2.7,4.6c0.6,8.5-1.4,16.4-4.8,24.2&#10;&#9;&#9;c-4.4,10.1-4.2,20.5,0,30.7c0.8,2.1,1.9,4.1,2.5,6.2c3.5,10.7,3.3,21.3-1.1,31.8c-1.4,3.4-3,6.7-3.6,10.3c-1.5,8.7-1,17.1,2.8,25.3&#10;&#9;&#9;c5.9,12.8,5.9,25.7,0,38.5c-0.9,1.9-1.7,3.9-2.2,6c-2.2,9.3-2,18.5,2.1,27.3c4.4,9.3,5.4,19,3.4,29c-0.2,1.2,0,2.1,0.5,3.1&#10;&#9;&#9;c1.1,2,0.5,3.9-1.5,4.4c-1.6,0.4-2.1,1.4-2.6,2.6c-3.6,7.6-4,15.6-2.8,23.8c0.6,3.9,2.2,7.4,3.7,10.9c5,11.8,5,23.6,0,35.4&#10;&#9;&#9;c-0.9,2.1-1.8,4.1-2.5,6.2c-1.1,3-1.6,6.1-1.6,9.2c0,0.6-0.1,1.2,0.7,1.5c1.7,0.6,2.9-0.1,3.1-1.9c0.4-5.3,1.7-10.4,3.9-15.2&#10;&#9;&#9;c0.8-1.7,1.6-3.5,2.1-5.4c3-10,2.2-19.8-2.1-29.3c-5.6-12.5-5.6-25.1,0-37.7c5.2-11.5,5.2-22.9,0-34.4c-5.6-12.5-5.7-25.1,0-37.6&#10;&#9;&#9;c5.2-11.5,5.2-22.9,0-34.4c-5.7-12.5-5.7-25.1,0-37.6c5.2-11.6,5.2-23.1-0.1-34.7c-5.6-12.3-5.6-24.8-0.1-37.1&#10;&#9;&#9;C733.8,343.6,735.2,337.3,734.9,331.1z" transform="matrix(1, 0, 0, 1, -2.842170943040401e-14, 0)"/><path fill="#FAE0D6" d="M720.3,790.2c0.2,5.3-0.5,10.7,0,16c0.4,4.7,4.1,8.2,8.8,8.5c4.5,0.3,8.5-2.7,9.6-7.2&#10;&#9;&#9;c0.3-1.3,0.3-2.6,0.3-3.9c0-7.5,0.1-15,0-22.5c-0.1-6.3,1.9-11.7,6.2-16.3c1.3-1.4,1.6-1.7-0.7-2.5c-11.3-3.6-23.5,4.7-24.2,16.6&#10;&#9;&#9;C720.1,782.7,720.3,786.5,720.3,790.2z" transform="matrix(1, 0, 0, 1, -2.842170943040401e-14, 0)"/><path fill="#FAE0D6" d="M761.8,761.6c-10.1-0.1-18.6,7.9-18.9,18c-0.2,8.6-0.1,17.2-0.1,25.8c0,0.3,0,0.6,0,0.9&#10;&#9;&#9;c0.5,4.5,4,8,8.5,8.4c4.4,0.4,8.4-2.3,9.8-6.6c0.4-1.4,0.5-2.8,0.5-4.2c0-7.9,0-15.8,0-23.7c0-5.7,2-10.7,5.7-14.9&#10;&#9;&#9;c0.3-0.4,0.7-0.7,1-1.1c0.7-0.7,0.5-1.2-0.4-1.5C766,762,763.9,761.5,761.8,761.6z" transform="matrix(1, 0, 0, 1, -2.842170943040401e-14, 0)"/><path fill="#FAE0D6" d="M599.7,477c0.2,6.7,3.4,13.1,10.5,17c4.9,2.7,10,4.9,15.2,6.8c6.5,2.5,13.7-2.6,13.7-9.5c0-1-0.1-2-1-2.7&#10;&#9;&#9;c-6.3-5.2-11.8-11.4-20.1-13.7c-0.5-0.1-0.9-0.4-1.4-0.6c-1.9-1-2.2-1.7-0.9-3.5c0.6-0.8,0.5-1.1-0.1-1.7c-2.5-2.2-5-4.4-7.6-6.5&#10;&#9;&#9;c-1.7-1.5-1.7-1.4-3.3,0.3C601.4,466.6,599.8,470.9,599.7,477z" transform="matrix(1, 0, 0, 1, -2.842170943040401e-14, 0)"/><path fill="#FAE0D6" d="M689.2,540.5c1.9,0.3,4,0.1,6.1,0c0.4,0,1-0.1,1.1-0.3c0.3-0.5-0.2-0.9-0.6-1.2c-0.3-0.3-0.6-0.5-0.9-0.8&#10;&#9;&#9;c-16.7-14.5-33.4-29-50.1-43.4c-1.8-1.6-1.8-1.6-2.7,0.8c-0.3,0.9-0.7,1.7-1.1,2.5c-0.8,1.7-0.8,1.7,1.1,2.1&#10;&#9;&#9;c9,1.8,14.1,10.7,10.9,19.2c-0.7,1.8-2.5,3.3-2.7,5c-0.2,1.8,1.9,3.6,1.9,5.6c0,2.4,1.5,3,3.3,3.7&#10;&#9;&#9;C666.3,537.5,677.4,540.1,689.2,540.5z" transform="matrix(1, 0, 0, 1, -2.842170943040401e-14, 0)"/><path fill="#FFF3A2" d="M723.4,548.9c0,0.8,0.2,2.1,0,3.4c-0.3,2,0.9,3,2.2,3.9c0.6,0.4,0.9,0.1,1.1-0.5c0.2-0.6,0.3-1.2,0.3-1.8&#10;&#9;&#9;c0.7-7.9-0.1-15.5-3.5-22.8c-5.8-12.5-5.6-25.1,0-37.6c5.1-11.5,5.2-22.9,0-34.4c-1.3-3-2.6-6-3.2-9.2c-1.8-9.5-1.3-18.8,2.8-27.6&#10;&#9;&#9;c5.6-12,5.6-24,0.1-36.1c-0.9-1.9-1.7-3.9-2.2-6c-2.6-10.2-2.3-20.3,2.1-30c2.8-6,4.4-12.2,4.1-18.8c0-0.8,0.3-1.9-0.4-2.3&#10;&#9;&#9;c-1-0.5-1.9,0.4-2.8,0.9c-0.9,0.5-0.6,1.4-0.6,2.2c0.2,6.7-1.4,13-4.3,19.1c-1.1,2.3-2,4.6-2.6,7.1c-2,9.3-1.2,18.3,2.7,27&#10;&#9;&#9;c5.7,12.4,5.6,24.9,0.1,37.3c-5.2,11.7-5.2,23.3,0,35c5.5,12.3,5.5,24.7,0,37.1c-1.1,2.5-2.2,5-2.8,7.7c-1.9,8.8-1.6,17.5,2.2,25.8&#10;&#9;&#9;C721.8,534.8,723.8,541.3,723.4,548.9z" transform="matrix(1, 0, 0, 1, -2.842170943040401e-14, 0)"/><path fill="#FFF3A2" d="M708.1,512.7c-0.3,5.6,0.9,11.1,3.4,16.3c2.5,5.4,4.1,11,4.3,16.9c0,1.4,0.5,2.5,1.6,3.3&#10;&#9;&#9;c0.6,0.4,1,1.3,1.7,1.1c1-0.3,0.5-1.4,0.5-2.1c0.2-6.1-1.3-11.8-3.9-17.3c-2.4-5.1-3.7-10.4-4-16.1c-0.3-7.5,0.9-14.7,4.2-21.5&#10;&#9;&#9;c2.7-5.7,3.8-11.7,3.7-18c-0.1-5.9-1.5-11.4-4-16.7c-3.8-8.1-4.6-16.7-3.4-25.5c0.6-4.5,2.2-8.6,4.1-12.7&#10;&#9;&#9;c2.3-5.2,3.3-10.6,3.3-16.2c0-6.1-1.3-11.9-3.9-17.3c-4-8.4-4.8-17.3-3.4-26.4c0.6-4.3,2.2-8.2,4-12.1c2.1-4.6,3.2-9.4,3.3-14.4&#10;&#9;&#9;c0.1-2.1-0.2-2.2-2.3-1.8c-1.3,0.3-1.5,1.1-1.5,2.2c-0.2,6-1.8,11.6-4.2,17c-5.1,11.3-5,22.6,0,33.8c5.7,12.8,5.7,25.5,0,38.2&#10;&#9;&#9;c-5.1,11.3-5,22.6,0,33.8c1.3,3,2.6,6,3.2,9.1c1.9,9.6,1.4,19-2.7,27.9C709.5,500.1,707.7,506.1,708.1,512.7z" transform="matrix(1, 0, 0, 1, -2.842170943040401e-14, 0)"/><path fill="#FAE0D6" d="M619,526.5c3.7-0.3,7.7-0.6,11.6-0.9c0.9-0.1,1.8-0.2,2.7-0.3c2.8-0.3,5.7-0.4,8.4-0.9&#10;&#9;&#9;c5.2-0.9,8.8-5.7,8.3-11c-0.5-5.5-4.8-9.6-10.2-9.7c-2.3,0-4.6,0.2-6.9,0.9c-1.6,0.5-3.4,1-5.1,0.7c-3.7-0.7-7.3,0-10.9,0.5&#10;&#9;&#9;c-5.6,0.7-9.5,5.9-8.9,11.2C608.7,522.5,613.2,526.5,619,526.5z" transform="matrix(1, 0, 0, 1, -2.842170943040401e-14, 0)"/><path fill="#FFF3A2" d="M700.4,511.1c0,7,1,12.3,3.3,17.4c1.5,3.2,3,6.5,3.6,10c0.3,2.3,1.8,3.5,3.3,4.8c0.3,0.3,0.7,0.5,1.1,0.3&#10;&#9;&#9;c0.2-0.1,0.2-0.6,0.1-0.9c-0.1-0.6-0.2-1.2-0.3-1.8c-0.6-3.8-2-7.2-3.6-10.6c-3.1-6.8-4-13.9-3.6-21.3c0.3-5.7,1.9-10.9,4.3-16&#10;&#9;&#9;c3.8-8.1,4.2-16.6,2.7-25.3c-0.6-3.3-2-6.4-3.3-9.4c-3.1-6.8-4-13.9-3.6-21.3c0.3-6.1,2.4-11.6,4.7-17.2&#10;&#9;&#9;c4.3-10.2,4.2-20.5,0.1-30.8c-0.5-1.3-1.1-2.6-1.7-3.9c-3.5-8.2-3.9-16.7-2.6-25.3c0.6-3.8,2.1-7.4,3.6-10.9&#10;&#9;&#9;c1.9-4.3,3.3-8.7,3.4-13.5c0-0.9,0.4-2.1-1.3-2.1c-1.9,0-2.4,0.2-2.4,1.8c-0.2,6-2,11.6-4.5,16.9c-2.5,5.3-3.5,11-3.4,16.8&#10;&#9;&#9;c0,5.9,1.3,11.4,3.9,16.7c2.7,5.8,4,11.8,4.1,18.2c0.1,6.7-1.1,13.1-4,19.1c-2.7,5.7-4,11.7-3.9,17.9c0.1,5.9,1.3,11.4,3.8,16.7&#10;&#9;&#9;c2.7,5.8,4.1,11.8,4.1,18.2c0.1,6.8-1.2,13.3-4.1,19.4C701.6,500.7,700.3,506.5,700.4,511.1z" transform="matrix(1, 0, 0, 1, -2.842170943040401e-14, 0)"/><path fill="#EBBE62" d="M373.7,741c24.5,0,49.1,0,73.6,0c0.8,0,1.6,0,2.4,0c1.1,0,1.7-0.4,1.7-1.5c0-0.7,0-1.4,0.1-2.1&#10;&#9;&#9;c0-0.9-0.5-1.3-1.3-1.3c-0.5,0-1,0-1.5,0c-49.8,0-99.5,0-149.3,0c-2.9,0-3,0.1-2.6,2.9c0.2,2,0.2,2,2.4,2.1c0.7,0,1.4,0,2.1,0&#10;&#9;&#9;C325.5,741,349.6,741,373.7,741z" transform="matrix(1, 0, 0, 1, -2.842170943040401e-14, 0)"/><path fill="#EBBE62" d="M374.1,744.8c-24.5,0-49,0-73.6,0c-3.1,0-3.3,0.3-2.6,3.3c0.3,1.3,0.8,2,2.3,1.8c0.6-0.1,1.2,0,1.8,0&#10;&#9;&#9;c48.1,0,96.3,0,144.4,0c0.6,0,1.2,0,1.8,0c1.2,0.1,1.9-0.4,2.1-1.6c0.4-3.4,1.1-3.5-2.6-3.5c-0.6,0-1.2,0-1.8,0&#10;&#9;&#9;C421.9,744.8,398,744.8,374.1,744.8z" transform="matrix(1, 0, 0, 1, -2.842170943040401e-14, 0)"/><path fill="#FAE0D6" d="M655.7,489.9c2.9-0.1,6.1-1.7,8.1-5.1c2.4-3.9,4.5-7.9,6.8-11.9c0.6-1,0.5-1.8-0.3-2.7&#10;&#9;&#9;c-4-4.5-8.1-9.1-12-13.7c-1-1.2-1.6-0.8-2.2,0.3c-1.7,3.1-3.5,6.2-5.3,9.2c-1.7,3-3.6,5.9-5.1,9&#10;&#9;&#9;C642.4,481.9,647.2,489.8,655.7,489.9z" transform="matrix(1, 0, 0, 1, -2.842170943040401e-14, 0)"/><path fill="#FAE0D6" d="M663.6,491c-0.2,0.1-0.4,0.1-0.6,0.2c-2.4,1.6-5.1,2.4-8,2.7c-0.8,0.1-0.7,0.5-0.3,1&#10;&#9;&#9;c0.6,0.6,1.2,1.1,1.8,1.6c8.8,7.6,17.6,15.3,26.4,22.9c6,5.2,11.9,10.4,17.9,15.5c0.3,0.3,0.7,0.9,1.2,0.5c0.2-0.1,0-0.8-0.1-1.1&#10;&#9;&#9;c-1.1-2.6-2.3-5.2-3.2-7.9c-0.5-1.6-1.4-2.9-2.6-4c-5.1-4.9-10.2-9.9-15.2-14.8c-5.2-5-10.3-10-15.5-15.1&#10;&#9;&#9;C664.9,491.9,664.4,491.2,663.6,491z" transform="matrix(1, 0, 0, 1, -2.842170943040401e-14, 0)"/><path fill="#FAE0D6" d="M630.1,544c3.7-0.3,6.5-0.5,9.3-0.9c7.1-0.9,11.4-8.5,8.3-14.7c-0.6-1.2-1.1-1.8-2.5-1.1&#10;&#9;&#9;c-1.9,0.9-4.1,1.1-6.2,1.3c-5.8,0.4-11.5,0.9-17.2,1.4c-2.4,0.2-2.7,0.6-2.9,3c0,0.7,0,1.4,0.1,2.1&#10;&#9;&#9;C620,540.6,624.8,544.7,630.1,544z" transform="matrix(1, 0, 0, 1, -2.842170943040401e-14, 0)"/><path fill="#FFF3A2" d="M700.5,653.3c-0.1,1.8,0,1.8,1.7,2c1.7,0.2,2-0.8,2.1-2.2c0.2-5.7,2-10.9,4.2-16c4.8-11,4.8-22,0.1-33&#10;&#9;&#9;c-1-2.4-2.2-4.8-2.9-7.4c-2.6-10.1-2.3-20,1.9-29.7c1.6-3.7,3.1-7.4,3.9-11.5c0.4-2.1-0.3-3.5-1.9-4.6c-0.9-0.6-1.5-0.9-1.5,0.5&#10;&#9;&#9;c-0.2,6.2-2.2,11.9-4.7,17.5c-2.2,4.8-3.1,9.8-3.2,15c-0.1,6.3,1.1,12.3,3.8,18c2.7,5.7,4,11.6,4.1,17.9c0.1,6.9-1.2,13.5-4.2,19.7&#10;&#9;&#9;C702.1,643.9,700.8,648.4,700.5,653.3z" transform="matrix(1, 0, 0, 1, -2.842170943040401e-14, 0)"/><path fill="#FFF3A2" d="M719.7,620.3c0.2-5.9-1.4-11.7-3.9-17.3c-5.5-12.2-5.4-24.5-0.1-36.8c0.8-1.8,1.5-3.5,2.2-5.3&#10;&#9;&#9;c0.8-2.2,0.6-2.4-1.1-3.8c-0.9-0.8-1.5-0.6-1.6,0.5c-0.7,4-2.4,7.7-4,11.4c-3.3,7.4-3.6,15.1-2.5,22.9c0.5,3.9,2.1,7.4,3.7,10.9&#10;&#9;&#9;c4,8.9,4.5,18.2,2.6,27.6c-0.7,3.8-2.4,7.3-3.9,10.8c-1.7,3.9-2.7,8-2.9,12.3c0,1.1,0.3,1.7,1.5,1.7c1.1-0.1,2.2,0.2,2.3-1.6&#10;&#9;&#9;c0.1-6.1,2-11.7,4.6-17.2C718.8,631.4,719.8,626.1,719.7,620.3z" transform="matrix(1, 0, 0, 1, -2.842170943040401e-14, 0)"/><path fill="#FFF3A2" d="M715.7,653.3c-0.3,1.4,0.3,1.9,1.6,2c1.5,0.1,2.2-0.4,2.3-2c0.1-5.6,1.8-10.7,4.1-15.8&#10;&#9;&#9;c5.1-11.4,5-22.7-0.1-34.1c-1.3-3-2.6-6-3.2-9.2c-1.8-9.5-1.3-18.7,2.8-27.6c0.3-0.6,0.6-1.3,0.8-2c0.5-1.5-0.7-2.1-1.6-2.5&#10;&#9;&#9;c-1.1-0.5-1.1,0.8-1.3,1.4c-0.8,1.7-1.4,3.4-2.1,5c-2.4,5.2-3.3,10.6-3.3,16.2c0,6.1,1.3,11.8,4,17.3c4,8.4,4.7,17.3,3.3,26.4&#10;&#9;&#9;c-0.6,4.2-2.2,8-3.9,11.8C717.1,644.4,716,648.8,715.7,653.3z" transform="matrix(1, 0, 0, 1, -2.842170943040401e-14, 0)"/><path fill="#FAE0D6" d="M620.4,456c-2.4,0.1-4.8,0.3-7.1,1.1c-0.9,0.3-1.1,0.8-0.3,1.5c0.4,0.3,0.8,0.7,1.1,1&#10;&#9;&#9;c7.7,6.7,15.5,13.4,23.2,20.1c0.8,0.7,1.5,1.3,2.3,2c0.2,0.2,0.5,0.4,0.8,0.3c0.6-0.1,0.4-0.6,0.4-0.9c-0.2-3.1,0.4-6.1,2-8.7&#10;&#9;&#9;c0.7-1.2,0.2-1.9-0.6-2.6c-3.6-3.4-7.1-6.9-10.7-10.4c-0.4-0.4-0.9-0.9-1.4-1.1C627,457.2,623.9,455.8,620.4,456z" transform="matrix(1, 0, 0, 1, -2.842170943040401e-14, 0)"/><path fill="#FAE0D6" d="M697.2,505.1c0.4-1.6-0.9-1.8-1.9-2.1c-6.9-2.4-12.6-6.4-16.8-12.4c-0.5-0.7-0.9-1.3-1.3-2.1&#10;&#9;&#9;c-0.5-0.9-0.3-1.8,0.6-2.4c0.9-0.5,1.8-0.4,2.5,0.4c0.5,0.6,0.9,1.3,1.4,2c3.3,4.5,7.6,7.8,12.7,10c0.4,0.2,0.9,0.4,1.1,0.1&#10;&#9;&#9;c0.5-0.5-0.2-0.8-0.5-1.1c-2.9-3.2-5.9-6.4-8.8-9.6c-3.6-4-7.2-8-10.8-11.9c-1.3-1.4-1.4-1.4-2.3,0.3c-1.4,2.4-2.8,4.9-4.2,7.4&#10;&#9;&#9;c-1.1,2.1-1.1,2.1,0.6,3.8c4,3.9,8,7.8,12,11.6c4.6,4.4,9.1,8.9,13.7,13.3c0.3,0.3,0.6,0.6,1,0.5c0.5-0.1,0.4-0.6,0.4-1&#10;&#9;&#9;C696.7,509.7,696.6,507.4,697.2,505.1z" transform="matrix(1, 0, 0, 1, -2.842170943040401e-14, 0)"/><path fill="#E5384A" d="M475.6,680.2c8.4,0,16.8,0,25.2,0c0.8,0,1.6,0,2.4-0.1c0.5,0,0.7-0.3,0.7-0.8c-0.1-2.2-2-4.1-4.2-4.1&#10;&#9;&#9;c-4,0-8.1,0-12.1,0c-11.9,0-23.9,0-35.8,0c-0.9,0-1.9-0.3-2.4,0.7c-0.6,1.2-1.3,2.3-1.5,3.6c-0.1,0.5,0.4,0.6,0.9,0.6&#10;&#9;&#9;c0.7,0,1.4,0,2.1,0C459,680.2,467.3,680.2,475.6,680.2z" transform="matrix(1, 0, 0, 1, -2.842170943040401e-14, 0)"/><path fill="#FFFFFF" d="M535.8,810.2c3.1,0,6.3,0,9.4,0c5.5-0.1,4.7,0.9,4.8-4.8c0-2.3-0.1-2.4-2.4-1.8c-7.2,1.9-14.4,2.1-21.6,0.6&#10;&#9;&#9;c-1.4-0.3-3.2-1.6-4.2-0.6c-1,1.1-0.2,3.1-0.3,4.7c-0.1,1.4,0.5,2,1.9,1.9C527.5,810.2,531.6,810.2,535.8,810.2z" transform="matrix(1, 0, 0, 1, -2.842170943040401e-14, 0)"/><path fill="#FFFFFF" d="M409.9,810.1C409.9,810.1,409.9,810.1,409.9,810.1c1.7,0,3.4,0,5.1,0c4.2,0,4.2,0,4.5-4&#10;&#9;&#9;c0.1-1.3,0.3-2.6,0.3-3.9c0.1-1.7-0.2-1.9-1.6-1.1c-5.1,3.2-10.3,5.9-15.9,7.9c-0.2,0.1-0.4,0.1-0.5,0.3c-0.1,0.1-0.3,0.3-0.4,0.4&#10;&#9;&#9;c-0.1,0.5,0.4,0.4,0.6,0.4C404.7,810.1,407.3,810.1,409.9,810.1z" transform="matrix(1, 0, 0, 1, -2.842170943040401e-14, 0)"/><path fill="#151D38" d="M791,810.1c0.8-0.3,2.3,0.6,2.8-0.5c0.3-0.8-1.3-1.3-1.9-2c-0.3-0.4-0.7-0.7-1.1-1.1&#10;&#9;&#9;c-0.8-0.7-1.5-2.4-2.2-2.1c-1.1,0.4-0.5,2.1-0.7,3.2c-0.4,2.4-0.3,2.4,2,2.5C790.2,810.1,790.5,810.1,791,810.1z" transform="matrix(1, 0, 0, 1, -2.842170943040401e-14, 0)"/><path fill="#151D38" d="M362.2,837.6c-1.6-2.8-1.1-3.8,2-3.9c1,0,2,0,3,0c196.8,0,393.5,0,590.3,0c0.9,0,1.8,0,2.7,0&#10;&#9;&#9;c1,0,2.1,0,2.6,1.1c0.6,1.3-0.2,2.1-1,2.9C761.9,837.6,562,837.6,362.2,837.6z" transform="matrix(1, 0, 0, 1, -2.842170943040401e-14, 0)"/><path fill="#ACDCF6" d="M329.4,592.2c0-15.3-10.5-26.5-25.8-27.7c-1.6-0.1-3.2-0.2-4.8-0.3c-1.2-0.1-2.3-0.5-2.3-1.9&#10;&#9;&#9;c0-1.4,1-1.9,2.3-1.9c3,0,6.1-0.3,9-0.9c13-2.8,21.5-13.3,21.6-26.8c0-1.1-0.1-2.2,0.1-3.3c0.1-1.1,0.8-1.9,2-1.9&#10;&#9;&#9;c1.1,0,1.6,0.8,1.7,1.8c0.1,1,0.1,2,0.1,3c0.5,10.6,4.3,19.3,14.1,24.5c4.4,2.4,9.3,3.3,14.3,3.5c1,0,2,0,3,0.2&#10;&#9;&#9;c1,0.2,1.6,0.9,1.5,2c-0.1,0.9-0.7,1.5-1.6,1.6c-1.6,0.2-3.2,0.3-4.8,0.4c-3.9,0.3-7.6,1.1-11.2,2.7c-9.3,4.2-13.7,11.9-15.1,21.6&#10;&#9;&#9;c-0.2,1.5-0.4,3-0.2,4.5c0.1,0.7-0.1,1.4-0.2,2.1c-0.1,1-0.7,1.7-1.8,1.8c-1.2,0-1.9-0.8-2-1.9&#10;&#9;&#9;C329.4,594.2,329.4,593.2,329.4,592.2z M349.8,562.4c-0.3-0.6-0.9-0.8-1.4-1c-7.6-3.1-13-8.4-16.1-16c-0.1-0.3-0.3-0.5-0.4-0.8&#10;&#9;&#9;c-0.2-0.5-0.5-0.6-0.8-0.1c-0.3,0.5-0.5,1.1-0.8,1.6c-3.1,7.1-8.3,12.1-15.4,15.1c-0.5,0.2-0.9,0.4-1.4,0.6&#10;&#9;&#9;c-0.7,0.4-0.5,0.7,0.1,0.9c0.5,0.2,0.9,0.4,1.4,0.6c7,3,12.1,7.9,15.2,14.9c0.2,0.6,0.5,1.1,0.7,1.7c0.3,0.6,0.7,0.7,0.9-0.1&#10;&#9;&#9;c0.3-0.7,0.7-1.5,1-2.2c2.5-5.4,6.3-9.6,11.5-12.6c1.5-0.8,3.1-1.5,4.6-2.2C349.2,562.7,349.5,562.6,349.8,562.4z" transform="matrix(1, 0, 0, 1, -2.842170943040401e-14, 0)"/><path fill="#ACDCF6" d="M376,393.5c0.2,14.3,9.3,24.8,23.5,27c2,0.3,4,0.5,6,0.6c0.7,0,1.4,0,2.1,0.2c0.8,0.3,1.4,0.9,1.3,1.8&#10;&#9;&#9;c-0.1,0.9-0.6,1.5-1.5,1.6c-1.6,0.2-3.2,0.3-4.8,0.4c-2.1,0.1-4.2,0.5-6.3,1c-12.3,3.2-20.1,13.3-20.3,26.3c0,1.2,0,2.4-0.1,3.6&#10;&#9;&#9;c-0.1,1-0.7,1.7-1.8,1.8c-1.2,0-1.8-0.7-2-1.9c-0.1-0.8-0.1-1.6-0.1-2.4c0-3-0.4-5.8-1.2-8.7c-3.2-11.4-11.8-18.4-24-19.6&#10;&#9;&#9;c-1.6-0.2-3.2-0.3-4.8-0.4c-1.3-0.1-2.8,0-2.9-1.9c-0.1-1.3,0.9-1.9,3.2-2c2-0.1,4-0.2,6-0.5c14.3-2.2,23.2-12.3,23.7-26.8&#10;&#9;&#9;c0-1.1,0-2.2,0.1-3.3c0.1-1.2,0.6-2.2,2-2.2c1.4,0,1.8,1.1,1.9,2.3C376.1,391.5,376,392.5,376,393.5z M374.1,404.8&#10;&#9;&#9;c-0.6,0.2-0.7,0.7-0.8,1.1c-3.1,7.7-8.6,13.1-16.3,16.2c-0.5,0.2-1.1,0.3-1.2,0.8c0,0.5,0.7,0.6,1.1,0.8&#10;&#9;&#9;c7.8,3.1,13.2,8.5,16.3,16.2c0.2,0.4,0.3,1.1,0.8,1.1c0.3,0,0.6-0.7,0.8-1.2c3.1-7.5,8.3-12.8,15.8-15.9c0.6-0.2,1.6-0.2,1.5-1&#10;&#9;&#9;c0-0.6-0.9-0.7-1.5-0.9c-7.4-3.1-12.6-8.3-15.8-15.6c-0.2-0.4-0.3-0.7-0.5-1.1C374.4,405.2,374.2,405,374.1,404.8z" transform="matrix(1, 0, 0, 1, -2.842170943040401e-14, 0)"/><path fill="#ACDCF6" d="M457.8,479.9c1.1,0,1.7,0.5,2,1.5c0.2,0.8,0.2,1.6,0.2,2.4c0.6,9.4,6.1,14.8,15.5,15.4c0.7,0,1.4,0,2.1,0.1&#10;&#9;&#9;c0.9,0.1,1.5,0.7,1.6,1.5c0.1,1-0.4,1.8-1.4,2c-0.7,0.2-1.4,0.1-2.1,0.1c-9.2,0.3-15,5.9-15.7,15.1c-0.1,0.9-0.1,1.8-0.3,2.7&#10;&#9;&#9;c-0.2,0.9-0.7,1.5-1.7,1.5c-1.1,0.1-1.7-0.6-1.9-1.6c-0.2-0.9-0.2-1.8-0.2-2.7c-0.6-9.2-6.5-14.8-15.7-15.1c-0.8,0-1.6,0.1-2.4-0.3&#10;&#9;&#9;c-0.8-0.4-1.3-1.1-1.1-2c0.1-0.7,0.5-1.3,1.4-1.4c0.7-0.1,1.4-0.1,2.1-0.1c2.6-0.2,5.2-0.6,7.6-1.8c5.1-2.6,7.4-6.9,8-12.4&#10;&#9;&#9;c0.1-1.1,0.1-2.2,0.3-3.3C456.2,480.6,456.7,480,457.8,479.9z M458,509.6c0.2-0.2,0.4-0.3,0.5-0.5c1.7-3.2,4.1-5.7,7.4-7.4&#10;&#9;&#9;c0.5-0.3,0.7-0.7,0-1.1c-3.2-1.7-5.6-4.2-7.4-7.4c-0.3-0.6-0.7-0.6-1,0c-1.7,3.2-4.1,5.7-7.4,7.4c-0.7,0.4-0.5,0.8,0,1.1&#10;&#9;&#9;c3.2,1.7,5.6,4.2,7.4,7.4C457.5,509.3,457.8,509.4,458,509.6z" transform="matrix(1, 0, 0, 1, -2.842170943040401e-14, 0)"/><path fill="#151D38" d="M648.6,406.1c-11.8-0.3-21.2-9.9-21.1-21.5c0.2-11.9,10-21.4,21.7-21.2c11.7,0.2,21.2,9.9,21.1,21.5&#10;&#9;&#9;C670.1,396.8,660.3,406.3,648.6,406.1z" transform="matrix(1, 0, 0, 1, -2.842170943040401e-14, 0)"/><path fill="#E5384A" d="M666.4,384.7c0-9.7-7.8-17.5-17.6-17.5c-9.6,0-17.3,7.7-17.4,17.3c-0.1,9.7,7.7,17.6,17.4,17.6&#10;&#9;&#9;C658.6,402.3,666.4,394.5,666.4,384.7z" transform="matrix(1, 0, 0, 1, -2.842170943040401e-14, 0)"/><path fill="#151D38" d="M792.1,292.1c0-11.9,9.5-21.4,21.4-21.4c11.7,0,21.2,9.5,21.2,21.3c0,11.9-9.5,21.4-21.4,21.4&#10;&#9;&#9;C801.5,313.3,792.1,303.9,792.1,292.1z" transform="matrix(1, 0, 0, 1, -2.842170943040401e-14, 0)"/><path fill="#E5384A" d="M813.7,274.5c-9.6-0.2-17.7,7.8-17.8,17.4c-0.1,9.5,7.6,17.5,17.1,17.8c9.6,0.3,17.8-7.6,18-17.2&#10;&#9;&#9;C831.2,282.9,823.3,274.7,813.7,274.5z" transform="matrix(1, 0, 0, 1, -2.842170943040401e-14, 0)"/><path fill="#151D38" d="M785.5,273.1c-0.1,5.8-4.8,10.4-10.5,10.3c-5.7-0.1-10.4-4.9-10.3-10.6c0.1-5.8,4.8-10.3,10.6-10.3&#10;&#9;&#9;C781.2,262.6,785.6,267.2,785.5,273.1z" transform="matrix(1, 0, 0, 1, -2.842170943040401e-14, 0)"/><path fill="#151D38" d="M657.8,344.6c0,5.8-4.5,10.5-10.3,10.5c-5.7,0.1-10.5-4.6-10.5-10.3c-0.1-5.7,4.6-10.5,10.3-10.6&#10;&#9;&#9;C653.1,334.2,657.8,338.8,657.8,344.6z" transform="matrix(1, 0, 0, 1, -2.842170943040401e-14, 0)"/><path fill="#151D38" d="M897.9,257.9c-1.5-0.1-3.2,0.3-4.8,0.8c-0.6,0.2-1.1,0.4-1.7,0.6c-1,0.2-1.8-0.2-2.2-1.2&#10;&#9;&#9;c-0.4-1,0.1-1.9,1-2.3c1.2-0.6,2.4-1,3.7-1.3c10.6-2.4,21.2,4,24,14.4c2.8,10.6-3.3,21.5-13.9,24.5c-1.4,0.4-2.8,0.6-4.2,0.8&#10;&#9;&#9;c-1.3,0.2-2.5-0.1-2.8-1.6c-0.3-1.1,0.5-1.9,2.3-2.2c1.1-0.2,2.2-0.2,3.3-0.5c8.1-2.2,13.2-9.9,12-18.3&#10;&#9;&#9;C913.3,263.7,906.4,257.8,897.9,257.9z" transform="matrix(1, 0, 0, 1, -2.842170943040401e-14, 0)"/><path fill="#151D38" d="M703.6,311.6c-4.2-0.4-8-0.6-11.7-1c-3.1-0.3-3.6-1.4-2-3.9c2.3-3.6,4.6-7.2,6.9-10.7&#10;&#9;&#9;c0.2-0.3,0.4-0.7,0.7-1c0.7-0.8,1.6-1,2.5-0.4c0.9,0.6,1.1,1.4,0.7,2.4c-0.3,0.6-0.7,1.2-1.1,1.8c-1.4,2.1-2.8,4.2-4.1,6.4&#10;&#9;&#9;c-1.1,1.7-0.9,1.9,1.2,2.1c2.6,0.2,5.3,0.4,7.9,0.7c0.7,0.1,1.4,0.1,2.1,0.4c0.8,0.3,1.2,1.1,1,2c-0.1,0.8-0.6,1.3-1.4,1.4&#10;&#9;&#9;C705.1,311.6,704.1,311.6,703.6,311.6z" transform="matrix(1, 0, 0, 1, -2.842170943040401e-14, 0)"/><path fill="#151D38" d="M777.4,244.9c6.8,0.2,12.2,2.9,16,8.3c0.3,0.4,0.6,0.8,0.8,1.3c0.9,1.7,0.8,2.9-0.2,3.5&#10;&#9;&#9;c-1.1,0.6-2.1,0.2-3.1-1.6c-4.1-7-12.6-9.3-19.2-6.4c-0.3,0.1-0.6,0.2-0.8,0.3c-1.1,0.4-2,0.1-2.5-1c-0.4-1.1,0-2,1.1-2.5&#10;&#9;&#9;c1.5-0.7,3-1.2,4.6-1.5C775.2,245.1,776.4,245,777.4,244.9z" transform="matrix(1, 0, 0, 1, -2.842170943040401e-14, 0)"/><path fill="#151D38" d="M618.9,341.2c0.2-4.8,2.5-9.8,7.1-13.6c0.5-0.4,1.2-0.8,1.8-1.2c0.8-0.5,1.6-0.2,2.2,0.4&#10;&#9;&#9;c0.7,0.8,0.6,1.7-0.1,2.5c-0.5,0.5-1.1,0.9-1.6,1.4c-5.7,4.9-7.2,12.2-3.8,19c1.2,2.3,1.1,3.3-0.2,3.9c-1.2,0.5-2.1-0.1-3.2-2.1&#10;&#9;&#9;C619.6,348.8,618.9,345.6,618.9,341.2z" transform="matrix(1, 0, 0, 1, -2.842170943040401e-14, 0)"/><path fill="#151D38" d="M352.5,701.9c-1.7,0-3.2-0.5-4-2.1c-0.6-1.3-0.2-3,1.3-4.3c1.6-1.5,3.6-2.3,5.8-2.2c1.6,0,3,0.5,3.7,2.1&#10;&#9;&#9;c0.6,1.4,0.2,3-1.3,4.3C356.4,701,354.5,701.7,352.5,701.9z" transform="matrix(1, 0, 0, 1, -2.842170943040401e-14, 0)"/><path fill="#151D38" d="M347.3,705.5c2.3,0,3.6,0.8,4.2,2.3c0.6,1.7-0.2,3-1.3,4c-1.8,1.7-3.9,2.5-6.3,2.3&#10;&#9;&#9;c-1.5-0.1-2.7-0.8-3.3-2.3c-0.5-1.4,0-2.6,0.9-3.6C343.1,706.3,345.2,705.5,347.3,705.5z" transform="matrix(1, 0, 0, 1, -2.842170943040401e-14, 0)"/><path fill="#151D38" d="M341.2,725.2c-2.1,0-3.5-0.8-3.9-2.2c-0.5-1.8,0.1-3.2,1.5-4.3c1.6-1.4,3.4-2.1,5.5-2.1&#10;&#9;&#9;c1.6,0,3,0.5,3.7,2.1c0.6,1.4,0.1,3.1-1.3,4.4C345.4,724.3,343.2,725.2,341.2,725.2z" transform="matrix(1, 0, 0, 1, -2.842170943040401e-14, 0)"/><path fill="#151D38" d="M355.1,715.6c0.2-2.3,1-4.5,3-6.1c2.3-1.8,4.9-0.9,5.6,1.9c0.7,2.6-1,6.6-3.3,7.9&#10;&#9;&#9;C357.7,720.8,355.1,719.1,355.1,715.6z" transform="matrix(1, 0, 0, 1, -2.842170943040401e-14, 0)"/><path fill="#151D38" d="M339.2,706.1c-0.1,2.2-0.8,4.1-2.4,5.7c-1.1,1.2-2.5,1.7-4.1,1.1c-1.6-0.6-2.1-2-2.2-3.6&#10;&#9;&#9;c0-2.2,0.7-4.1,2.2-5.8c1.2-1.3,2.5-2,4.3-1.4C338.5,702.6,339.2,704,339.2,706.1z" transform="matrix(1, 0, 0, 1, -2.842170943040401e-14, 0)"/><path fill="#151D38" d="M333.6,719.6c0,0.8-0.3,1.6-0.7,2.3c-1.5,2.2-3.6,3.5-6.3,3.7c-3,0.2-4.7-2.4-3.3-5&#10;&#9;&#9;c1.4-2.7,3.8-4.1,6.8-4.2C332.2,716.3,333.6,717.6,333.6,719.6z" transform="matrix(1, 0, 0, 1, -2.842170943040401e-14, 0)"/><path fill="#151D38" d="M1075.4,708.7c-0.1,2.6-2.4,4.8-4.9,4.7c-2.6-0.1-4.7-2.3-4.7-5c0.1-2.7,2.2-4.7,4.9-4.7&#10;&#9;&#9;C1073.4,703.9,1075.5,706.1,1075.4,708.7z M1071.4,708.8c0.1-0.5,0-0.9-0.6-1c-0.4-0.1-0.8,0.2-0.9,0.5c-0.2,0.6,0.1,0.9,0.6,1.1&#10;&#9;&#9;C1070.9,709.5,1071.2,709.3,1071.4,708.8z" transform="matrix(1, 0, 0, 1, -2.842170943040401e-14, 0)"/><path fill="#151D38" d="M1070.6,725.2c-2.7,0-4.8-2.1-4.8-4.7c0-2.7,2.1-4.8,4.8-4.7c2.6,0,4.8,2.2,4.8,4.8&#10;&#9;&#9;C1075.4,723.1,1073.3,725.2,1070.6,725.2z M1070.8,721.3c0.5-0.1,0.7-0.5,0.7-0.8c0-0.5-0.3-0.9-1-0.8c-0.5,0.1-0.7,0.4-0.7,0.8&#10;&#9;&#9;C1069.8,720.9,1070.1,721.3,1070.8,721.3z" transform="matrix(1, 0, 0, 1, -2.842170943040401e-14, 0)"/><path fill="#151D38" d="M1082.6,713.4c-2.6,0.1-4.8-2.1-4.9-4.7c-0.1-2.7,2-4.8,4.7-4.9c2.7-0.1,4.8,2,4.8,4.7&#10;&#9;&#9;C1087.2,711.2,1085.2,713.4,1082.6,713.4z M1082.4,707.7c-0.5,0.2-0.9,0.4-0.8,1c0,0.4,0.3,0.7,0.7,0.7c0.5,0,0.9-0.2,1-0.8&#10;&#9;&#9;C1083.4,708,1082.9,707.8,1082.4,707.7z" transform="matrix(1, 0, 0, 1, -2.842170943040401e-14, 0)"/><path fill="#151D38" d="M1063.5,708.5c0,2.7-2,4.9-4.7,4.9c-2.6,0.1-4.8-2.1-4.9-4.8c0-2.7,2-4.8,4.7-4.9&#10;&#9;&#9;C1061.4,703.7,1063.5,705.8,1063.5,708.5z M1058.7,709.4c0.5-0.1,0.9-0.3,0.9-0.9c0-0.6-0.4-0.9-0.9-0.9c-0.4,0-0.7,0.3-0.8,0.7&#10;&#9;&#9;C1057.8,709,1058.1,709.3,1058.7,709.4z" transform="matrix(1, 0, 0, 1, -2.842170943040401e-14, 0)"/><path fill="#151D38" d="M1063.5,720.5c0,2.8-2.1,4.7-4.9,4.7c-2.6-0.1-4.6-2-4.6-4.6c0-2.7,2-4.8,4.8-4.9&#10;&#9;&#9;C1061.5,715.7,1063.6,717.7,1063.5,720.5z M1058.8,719.6c-0.4,0.1-0.8,0.2-0.8,0.7c-0.1,0.6,0.3,1,0.8,1c0.4,0,0.8-0.2,0.8-0.7&#10;&#9;&#9;C1059.7,719.9,1059.3,719.7,1058.8,719.6z" transform="matrix(1, 0, 0, 1, -2.842170943040401e-14, 0)"/><path fill="#151D38" d="M1087.2,720.5c0,2.8-2.1,4.7-4.9,4.7c-2.6-0.1-4.6-2-4.6-4.6c0-2.7,2-4.9,4.7-4.9&#10;&#9;&#9;C1085.2,715.7,1087.2,717.7,1087.2,720.5z M1083.3,720.3c-0.1-0.5-0.5-0.7-0.8-0.7c-0.6,0-0.9,0.4-0.8,1c0.1,0.5,0.4,0.7,0.8,0.7&#10;&#9;&#9;C1083,721.2,1083.4,720.9,1083.3,720.3z" transform="matrix(1, 0, 0, 1, -2.842170943040401e-14, 0)"/>
</svg>