<svg height="512pt" viewBox="-3 0 512 512" width="512pt" xmlns="http://www.w3.org/2000/svg"><g fill-rule="evenodd"><path d="m63.523438 278.460938c0-106.480469 86.320312-192.800782 192.804687-192.800782 81.257813 0 153.789063 50.945313 181.363281 127.378906l33.011719-8.84375c-8.976563-40.820312-29.71875-76.75-57.476563-105.222656 5.667969-5.667968 13.042969-9.089844 20.523438-9.59375-.464844-.503906-1.832031-2.015625-2.300781-2.511718-44.464844-47.316407-107.621094-76.867188-177.671875-76.867188-134.632813 0-243.777344 109.140625-243.777344 243.777344 0 65.980468 26.222656 125.824218 68.804688 169.714844l50.480468-.003907c-41.792968-36.605469-65.761718-89.464843-65.761718-145.027343zm0 0" fill="#fd4848"/><path d="m256.328125 85.660156c-106.484375 0-192.804687 86.320313-192.804687 192.800782 0 55.5625 23.96875 108.421874 65.761718 145.03125h11.613282c12.277343 25.558593 38.402343 43.203124 68.648437 43.203124 13.328125 0 25.855469-3.425781 36.75-9.445312l-35.820313-35.820312c-17.042968 0-30.859374-13.816407-30.859374-30.859376 0-17.042968 13.816406-30.859374 30.859374-30.859374 17.039063 0 30.855469 13.816406 30.855469 30.859374l35.542969 35.542969c.457031-.863281.898438-1.738281 1.320312-2.621093 4.785157-9.964844 7.46875-21.125 7.46875-32.914063v-136.800781l152.027344-40.738282c-27.574218-76.433593-100.105468-127.378906-181.363281-127.378906zm0 0" fill="#ff836c"/><path d="m241.332031 390.570312c0 17.042969-13.816406 30.855469-30.855469 30.855469-17.042968 0-30.859374-13.8125-30.859374-30.855469 0-17.042968 13.816406-30.859374 30.859374-30.859374 17.039063 0 30.855469 13.816406 30.855469 30.859374zm0 0" fill="#fd4848"/><path d="m241.332031 390.570312c0 17.039063-13.8125 30.855469-30.855469 30.855469l35.820313 35.824219c12.980469-7.171875 23.640625-18.019531 30.578125-31.136719zm0 0" fill="#ff836c"/><path d="m285.664062 253.777344v136.800781c18.101563 0 32.914063-14.8125 32.914063-32.914063v-78.632812l128.851563-34.523438c17.488281-4.6875 27.960937-22.828124 23.273437-40.3125l-33.011719 8.84375zm0 0" fill="#808080"/><path d="m413.226562 98.972656c27.757813 28.472656 48.503907 64.402344 57.476563 105.222656 16.484375-4.417968 30.988281-14.421874 23.96875-34.570312-8.71875-25.019531-21.15625-48.109375-36.589844-68.691406-6.492187-8.664063-15.484375-12.148438-24.328125-11.550782-7.484375.5-14.855468 3.921876-20.527344 9.589844zm0 0" fill="#808080"/></g><path d="m114.503906 63.683594c1.976563 0 3.96875-.585938 5.710938-1.800782l.382812-.265624c4.53125-3.160157 5.644532-9.390626 2.484375-13.921876-3.160156-4.53125-9.390625-5.640624-13.921875-2.484374l-.382812.269531c-4.53125 3.15625-5.640625 9.390625-2.484375 13.921875 1.945312 2.785156 5.054687 4.28125 8.210937 4.28125zm0 0"/><path d="m402.117188 246.296875-.261719.066406c-5.335938 1.421875-8.511719 6.902344-7.089844 12.238281 1.195313 4.472657 5.238281 7.425782 9.660156 7.425782.851563 0 1.714844-.109375 2.578125-.335938l.261719-.070312c5.335937-1.421875 8.511719-6.902344 7.089844-12.238282-1.425781-5.335937-6.90625-8.507812-12.238281-7.085937zm0 0"/><path d="m503.03125 193.570312c4.230469-7.988281 4.59375-17.152343 1.082031-27.234374-8.933593-25.632813-21.726562-49.65625-38.03125-71.402344-6.917969-9.230469-16.761719-14.742188-27.71875-15.523438-.070312-.003906-.140625-.007812-.210937-.011718-23.367188-24.703126-50.917969-44.164063-81.902344-57.855469-32.351562-14.296875-66.828125-21.542969-102.472656-21.542969-38.457032 0-75.398438 8.386719-109.808594 24.925781-4.976562 2.390625-7.074219 8.363281-4.679688 13.34375 2.390626 4.976563 8.367188 7.070313 13.34375 4.679688 31.683594-15.226563 65.714844-22.949219 101.144532-22.949219 61.015625 0 117.925781 22.929688 161.589844 64.828125-3.304688 1.902344-6.410157 4.273437-9.210938 7.074219-3.871094 3.871094-3.910156 10.132812-.089844 14.050781 25.394532 26.050781 43.453125 57.386719 52.59375 91.117187l-14.886718 3.988282c-14.726563-35.734375-39.085938-66.21875-70.882813-88.554688-34.320313-24.105468-74.625-36.84375-116.5625-36.84375-111.824219 0-202.800781 90.976563-202.800781 202.800782 0 50.09375 18.535156 98.089843 51.511718 135.03125h-21.949218c-40.71875-43.472657-63.089844-100.019532-63.089844-159.714844 0-66.824219 28.699219-130.597656 78.738281-174.972656 4.128907-3.664063 4.511719-9.984376.847657-14.117188-3.664063-4.128906-9.984376-4.511719-14.117188-.84375-54.316406 48.164062-85.46875 117.390625-85.46875 189.929688 0 66.324218 25.4375 129.070312 71.628906 176.679687 1.882813 1.941406 4.472656 3.039063 7.175782 3.039063h56.074218c15.25 26.4375 43.894532 43.199218 74.667969 43.199218 12.121094 0 23.90625-2.605468 34.675781-7.375l39.753906 39.753906c1.875 1.875 4.417969 2.929688 7.070313 2.929688h172.710937c3.574219 0 6.875-1.90625 8.660157-5 10.742187-18.605469 18.335937-38.816406 22.558593-59.746094.042969-.183594.082032-.363281.113282-.546875 2.507812-12.625 3.792968-25.511719 3.792968-38.464843 0-7.136719-.394531-14.359376-1.171874-21.457032-.554688-5.074218-4.835938-8.914062-9.941407-8.914062h-127.523437c-5.519532 0-10 4.476562-10 10v47.0625h-50.40625l-10.917969-10.917969c3.316406-7.847656 5.425781-16.046875 6.289063-24.507813 19.085937-4.351562 33.367187-21.460937 33.367187-41.84375v-70.960937l39.835937-10.671875c5.335938-1.429688 8.5-6.914062 7.070313-12.246094-1.429687-5.335937-6.914063-8.503906-12.246094-7.070312l-47.25 12.65625c-4.371093 1.171875-7.410156 5.136718-7.410156 9.660156v78.632812c0 9.050782-5.277344 16.894532-12.914063 20.613282v-116.828125l165.738282-44.410157c-.484375 2.464844-1.382813 4.863282-2.679688 7.109376-3.074218 5.324218-8.003906 9.125-13.878906 10.699218l-14.988281 4.015625c-5.335938 1.425781-8.5 6.910157-7.074219 12.246094 1.429688 5.335937 6.910156 8.5 12.25 7.070313l14.988281-4.015626c11.035157-2.957031 20.277344-10.066406 26.023438-20.015624 4.121093-7.136719 6.074219-15.101563 5.757812-23.105469 10.109375-4.0625 17.234375-9.917969 21.230469-17.472657zm-132.785156 261.363282h21.667968v37.066406h-21.667968zm63.339844 0v37.066406h-21.667969v-37.066406zm-21.667969-20v-37.0625h21.667969v37.0625zm45.960937 57.066406h-4.292968v-37.066406h19.015624c-3.496093 12.832031-8.417968 25.28125-14.722656 37.066406zm21.003906-83.757812c0 8.960937-.691406 17.882812-2.03125 26.691406h-23.265624v-37.066406h24.988281c.203125 3.460937.308593 6.929687.308593 10.375zm-108.636718-10.375h21.667968v37.066406h-21.667968zm-20 57.066406v37.066406h-55.054688l-33.214844-33.214844c6.246094-4.789062 11.855469-10.433594 16.625-16.800781l10.027344 10.023437c1.875 1.875 4.417969 2.929688 7.070313 2.929688h54.546875zm-160.628906-64.363282c0-11.503906 9.359374-20.859374 20.859374-20.859374s20.855469 9.355468 20.855469 20.855468v.003906c0 11.5-9.355469 20.855469-20.855469 20.855469 0 0 0 0-.003906 0-11.5 0-20.855468-9.355469-20.855468-20.855469zm56.863281 19.289063 17.796875 17.796875c-4.503906 6.609375-10.148438 12.292969-16.589844 16.839844l-17.921875-17.921875c7.078125-3.804688 12.910156-9.636719 16.714844-16.714844zm36.59375-165.742187c-4.371094 1.167968-7.410157 5.132812-7.410157 9.65625v136.804687c0 6.085937-.816406 12.027344-2.417968 17.761719l-22.152344-22.152344c-2.191406-20.476562-19.570312-36.476562-40.617188-36.476562-22.53125 0-40.859374 18.328124-40.859374 40.855468 0 21.050782 16 38.429688 36.476562 40.621094l22.621094 22.621094c-6.140625 1.875-12.589844 2.882812-19.167969 2.882812-25.273437 0-48.683594-14.730468-59.632813-37.53125-1.667968-3.464844-5.171874-5.667968-9.015624-5.667968h-7.773438c-37.917969-34.597657-59.601562-83.589844-59.601562-135.03125 0-100.796876 82.007812-182.804688 182.804687-182.804688 73.140625 0 139.300781 44.027344 167.945313 110.625zm202.28125-59.902344c-1.316407 2.488281-3.9375 4.769531-7.640625 6.710937-9.089844-32.976562-25.914063-63.796875-49.246094-90.222656 2.765625-1.0625 5.667969-1.542969 8.476562-1.34375 5.15625.367187 9.699219 2.984375 13.132813 7.570313 15.070313 20.097656 26.894531 42.296874 35.148437 65.984374 2.425782 6.964844.699219 10.226563.128907 11.300782zm0 0"/></svg>