<svg height="512pt" viewBox="-9 0 512 512" width="512pt" xmlns="http://www.w3.org/2000/svg"><path d="m146.019531 39.605469c-25.164062-46.457031-113.050781-44.960938-113.050781 30.945312 0 55.429688-25.46875 78.398438-25.46875 78.398438s10.832031 17.949219 44.152344 13.585937zm0 0" fill="#cd654e"/><path d="m475.027344 230.9375c0 8.539062-.476563 17.007812-1.398438 25.378906h-430.894531c-.917969-8.371094-1.398437-16.839844-1.398437-25.378906 0-18.976562 2.289062-37.59375 6.722656-55.519531l210.125-35.519531 210.125 35.519531c4.433594 17.925781 6.71875 36.542969 6.71875 55.519531zm0 0" fill="#cc8476"/><path d="m196.519531 413.613281 17.71875 45.445313-17.71875 45.441406h-42.15625c0-31.398438 14.582031-57.308594 26.597657-73.316406 8.410156-11.214844 15.558593-17.570313 15.558593-17.570313zm0 0" fill="#ffd2b0"/><path d="m319.84375 413.613281-17.71875 45.445313 17.71875 45.441406h42.15625c0-31.402344-14.582031-57.308594-26.59375-73.316406-8.410156-11.214844-15.5625-17.570313-15.5625-17.570313zm0 0" fill="#ffd2b0"/><path d="m196.519531 413.613281v90.886719h30.703125l30.960938-15.242188 30.960937 15.242188h30.699219v-90.886719zm0 0" fill="#7e7ce8"/><path d="m289.144531 422.410156c0 17.101563-13.863281 30.960938-30.960937 30.960938-17.101563 0-30.960938-13.859375-30.960938-30.960938 0-17.097656 13.859375-30.960937 30.960938-30.960937 17.097656 0 30.960937 13.863281 30.960937 30.960937zm0 0" fill="#ffd2b0"/><path d="m486.414062 261.589844c0 22.835937-18.511718 41.347656-41.351562 41.347656-22.835938 0-41.351562-18.511719-41.351562-41.347656 0-22.839844 18.515624-41.351563 41.351562-41.351563 22.839844 0 41.351562 18.511719 41.351562 41.351563zm0 0" fill="#ffc395"/><path d="m445.0625 230.9375c0-106.855469-83.667969-193.472656-186.878906-193.472656-103.210938 0-186.882813 86.617187-186.882813 193.472656 0 106.851562 83.671875 193.472656 186.882813 193.472656 103.210937 0 186.878906-86.621094 186.878906-193.472656zm0 0" fill="#ffd2b0"/><path d="m101.300781 230.933594c0-101.621094 75.683594-184.9375 171.882813-192.847656-4.949219-.410157-9.949219-.621094-15-.621094-99.746094 0-181.234375 80.902344-186.59375 182.777344-.097656 0-.191406-.003907-.289063-.003907-22.835937 0-41.351562 18.511719-41.351562 41.351563 0 22.835937 18.515625 41.351562 41.351562 41.351562 4.78125 0 8.925781-.824218 12.503907-2.3125 27.019531 72.410156 94.898437 123.78125 174.378906 123.78125 5.046875 0 10.050781-.214844 15-.621094-96.199219-7.914062-171.882813-91.230468-171.882813-192.855468zm0 0" fill="#ffc395"/><path d="m436.957031 104.378906-178.773437 35.519532-178.773438-35.519532c7.359375-10.996094 15.738282-21.394531 25.078125-31.0625 40.996094-42.445312 95.578125-65.816406 153.695313-65.816406 58.113281 0 112.695312 23.371094 153.691406 65.816406 9.339844 9.667969 17.71875 20.066406 25.082031 31.0625zm0 0" fill="#cc8476"/><path d="m362.003906 288.175781h-24.277344c-4.144531 0-7.5-3.355469-7.5-7.5 0-4.140625 3.355469-7.5 7.5-7.5h24.277344c4.144532 0 7.5 3.359375 7.5 7.5 0 4.144531-3.355468 7.5-7.5 7.5zm0 0" fill="#ff8892"/><path d="m178.640625 288.175781h-24.28125c-4.140625 0-7.5-3.355469-7.5-7.5 0-4.140625 3.359375-7.5 7.5-7.5h24.28125c4.140625 0 7.5 3.359375 7.5 7.5 0 4.144531-3.359375 7.5-7.5 7.5zm0 0" fill="#ff8892"/><path d="m468.304688 175.417969h-420.246094c6.261718-25.390625 16.847656-49.386719 31.351562-71.039063h357.546875c14.5 21.652344 25.085938 45.648438 31.347657 71.039063zm0 0" fill="#e5e8ec"/><path d="m276.988281 474.011719h-37.609375c-6.714844 0-12.15625 5.445312-12.15625 12.15625v18.332031h61.921875v-18.332031c0-6.710938-5.445312-12.15625-12.15625-12.15625zm0 0" fill="#e5e8ec"/><path d="m349.863281 261.976562c4.144531 0 7.5-3.359374 7.5-7.5v-16.730468c0-4.144532-3.355469-7.5-7.5-7.5-4.140625 0-7.5 3.355468-7.5 7.5v16.730468c0 4.140626 3.359375 7.5 7.5 7.5zm0 0"/><path d="m166.5 261.976562c4.140625 0 7.5-3.359374 7.5-7.5v-16.730468c0-4.144532-3.359375-7.5-7.5-7.5s-7.5 3.355468-7.5 7.5v16.730468c0 4.140626 3.359375 7.5 7.5 7.5zm0 0"/><path d="m279.515625 266.769531c-3.117187-2.726562-7.855469-2.410156-10.582031.710938-2.605469 2.980469-6.523438 4.691406-10.75 4.691406-4.230469 0-8.148438-1.710937-10.753906-4.691406-2.726563-3.121094-7.464844-3.4375-10.582032-.710938-3.121094 2.726563-3.4375 7.464844-.710937 10.582031 5.457031 6.242188 13.488281 9.820313 22.046875 9.820313 8.554687 0 16.589844-3.578125 22.042968-9.820313 2.726563-3.121093 2.410157-7.859374-.710937-10.582031zm0 0"/><path d="m362 512c4.144531 0 7.5-3.359375 7.5-7.5 0-33.371094-15.277344-60.738281-28.09375-77.816406-3.035156-4.046875-5.910156-7.480469-8.394531-10.273438 46.628906-20.183594 84.089843-58.632812 103.964843-106.648437 2.667969.445312 5.367188.679687 8.085938.679687 26.9375 0 48.851562-21.917968 48.851562-48.851562 0-11.910156-4.289062-22.832032-11.398437-31.320313-.050781-19.191406-2.375-38.25-6.929687-56.65625-13.222657-53.445312-45.628907-101.390625-90.582032-133.234375-3.382812-2.394531-8.0625-1.597656-10.457031 1.785156-2.394531 3.378907-1.59375 8.058594 1.785156 10.453126 17.25 12.222656 32.980469 27.371093 45.996094 44.261718h-239.667969c-4.140625 0-7.5 3.359375-7.5 7.5 0 4.019532 3.488282 7.5 7.5 7.5h250.25c11.183594 17.378906 19.769532 36.179688 25.605469 56.042969h-400.664063c.300782-1.03125.617188-2.058594.933594-3.085937.007813-.027344.023438-.054688.035156-.082032 5.8125-18.714844 14.089844-36.480468 24.636719-52.875h69.203125c4.140625 0 7.5-3.355468 7.5-7.5 0-4.140625-3.359375-7.5-7.5-7.5h-58.625c.007813-.011718.015625-.019531.023438-.03125 11.25-14.554687 24.3125-27.691406 38.863281-38.949218 35.742187-27.664063 80.046875-42.898438 125.261719-42.898438 32.609375 0 63.773437 7.460938 92.632812 22.171875 3.6875 1.882813 8.207032.417969 10.085938-3.273437 1.882812-3.691407.414062-8.207032-3.273438-10.089844-30.988281-15.796875-64.445312-23.808594-99.445312-23.808594-39.085938 0-76.617188 10.214844-109.75 29.40625-12.6875-17.535156-34.667969-28.527344-58.113282-28.527344-32.28125 0-64.851562 21.542969-64.851562 69.671875 0 50.925781-22.800781 72.648438-22.992188 72.832031-2.667968 2.40625-3.253906 6.367188-1.394531 9.445313 4.007813 6.636719 17.035157 17.863281 40.445313 17.890625-.25.964844-.507813 1.925781-.75 2.898438-4.550782 18.402343-6.875 37.460937-6.929688 56.652343-7.109375 8.484375-11.398437 19.410157-11.398437 31.320313 0 26.933594 21.917969 48.847656 48.855469 48.847656 2.71875 0 5.417968-.230469 8.082031-.675781 19.878906 48.015625 57.339843 86.464843 103.964843 106.648437-2.484374 2.792969-5.355468 6.226563-8.390624 10.269532-12.816407 17.082031-28.097657 44.445312-28.097657 77.820312 0 4.140625 3.359375 7.5 7.5 7.5zm-287.996094-216.667969c-.898437.070313-1.796875.109375-2.703125.109375-18.664062 0-33.851562-15.1875-33.851562-33.851562 0-9.390625 3.84375-17.890625 10.039062-24.027344 4.445313-4.40625 10.167969-7.59375 16.324219-8.992188-.070312 6.003907.121094 12.015626.574219 18 1.238281 16.65625 4.449219 32.980469 9.617187 48.761719zm164.191406 135.519531c13.945313 1.46875 28.035157 1.398438 41.960938-.222656-3.335938 8.894532-11.925781 15.242188-21.972656 15.242188-10.050782 0-18.644532-6.351563-21.980469-15.242188.664063.074219 1.328125.152344 1.992187.222656zm-51.234374 4.832032c.695312-.929688 1.386718-1.824219 2.058593-2.683594v64h-26.859375c2.054688-25.894531 14.34375-47.386719 24.800782-61.316406zm17.058593-11.695313c5.316407 1.59375 10.695313 2.945313 16.117188 4.0625 2.738281 18.542969 18.753906 32.820313 38.046875 32.820313 19.289062 0 35.304687-14.277344 38.042968-32.820313 5.421876-1.117187 10.796876-2.46875 16.117188-4.0625v73.011719h-15.703125v-10.828125c0-10.839844-8.816406-19.660156-19.65625-19.660156h-37.609375c-10.835938 0-19.652344 8.820312-19.652344 19.660156v10.828125h-15.703125zm30.703125 73.011719v-10.828125c0-2.570313 2.089844-4.660156 4.65625-4.660156h37.609375c2.566407 0 4.65625 2.089843 4.65625 4.660156v10.828125zm119.480469 0h-26.859375v-64c.675781.859375 1.363281 1.753906 2.0625 2.683594 10.453125 13.933594 22.742188 35.421875 24.796875 61.316406zm-64.140625-83.035156c-20.859375 3.894531-42.925781 4.386718-63.757812 0-76.34375-14.253906-136.0625-78.761719-146.035157-159.183594-2.933593-23.652344-1.421875-48.484375 4.582031-71.863281h346.660157c6.003906 23.363281 7.550781 47.925781 4.582031 71.863281-9.972656 80.421875-69.6875 144.929688-146.03125 159.183594zm155-118.527344c-.902344 0-1.804688-.035156-2.703125-.105469 5.167969-15.78125 8.378906-32.105469 9.617187-48.761719.4375-5.894531.640626-12.007812.574219-18 5.167969 1.171876 9.886719 3.527344 13.863281 6.769532.023438.019531.046876.035156.066407.054687 7.761719 6.484375 12.433593 16.042969 12.433593 26.195313 0 18.664062-15.183593 33.847656-33.851562 33.847656zm17.292969-112.519531c2.515625 11.488281 4.125 23.226562 4.800781 35.066406-4.574219-2.328125-9.5-3.898437-14.632812-4.679687-.019532 0-.492188-.082032-.710938-.109376-.007812-.078124-.015625-.15625-.023438-.234374-.738281-8.742188-2.0625-17.449219-3.917968-26.023438-.289063-1.339844-.589844-2.683594-.910156-4.019531zm-392.953125 0c-.035156.148437-.070313.296875-.101563.445312-2.308593 9.816407-3.890625 19.78125-4.746093 29.828125-.222657.03125-.695313.109375-.710938.113282-5.136719.78125-10.0625 2.351562-14.636719 4.679687.675781-11.84375 2.285157-23.578125 4.800781-35.070313h15.394532zm-28.933594-112.367188c0-25.222656 13.054688-54.671875 49.851562-54.671875 18.300782 0 35.390626 8.257813 45.371094 21.496094-13.222656 8.933594-25.511718 19.25-36.597656 30.730469-23.902344 24.75-42.175781 54.820312-53.074219 87.457031-1.507812.105469-2.984375.15625-4.421875.15625-12.484375 0-19.957031-3.839844-23.949218-6.9375 8.082031-10.359375 22.820312-35.15625 22.820312-78.230469zm0 0"/></svg>