<?xml version="1.0" encoding="iso-8859-1"?>
<!-- Generator: Adobe Illustrator 22.1.0, SVG Export Plug-In . SVG Version: 6.00 Build 0)  -->
<svg xmlns="http://www.w3.org/2000/svg" xmlns:xlink="http://www.w3.org/1999/xlink" version="1.1" id="Layer_1_1_" x="0px" y="0px" viewBox="0 0 64 64" style="enable-background:new 0 0 64 64;" xml:space="preserve" width="512" height="512">
<g>
	<g>
		<path style="fill:#FCD770;" d="M62,6v52c0,2.21-1.79,4-4,4H36c-1.1,0-2-0.9-2-2V27.86c7.88-0.99,14-7.72,14-15.86V4h12    C61.1,4,62,4.9,62,6z"/>
		<path style="fill:#FCD770;" d="M30,27.86V60c0,1.1-0.9,2-2,2H6c-2.21,0-4-1.79-4-4V6c0-1.1,0.9-2,2-2h12v8    C16,20.14,22.12,26.87,30,27.86z"/>
		<path style="fill:#CCD1D9;" d="M57.12,8.88C56.58,8.34,55.83,8,55,8s-1.58,0.34-2.12,0.88C52.34,9.42,52,10.17,52,11    c0,5.76-2.29,11.29-6.36,15.36l-1.28,1.28c-3.82,3.82-6.07,8.91-6.33,14.28C38.01,42.28,38,42.64,38,43v14c0,0.55,0.45,1,1,1h18    c0.55,0,1-0.45,1-1V42V17v-6C58,10.17,57.66,9.42,57.12,8.88z"/>
		<path style="fill:#CCD1D9;" d="M6,57V23V11c0-0.83,0.34-1.58,0.88-2.12S8.17,8,9,8s1.58,0.34,2.12,0.88S12,10.17,12,11    c0,5.76,2.29,11.29,6.36,15.36l1.28,1.28C23.71,31.71,26,37.24,26,43v14c0,0.55-0.45,1-1,1H7C6.45,58,6,57.55,6,57z"/>
		<path style="fill:#E6E9ED;" d="M48,4v8c0,8.14-6.12,14.87-14,15.86h-4C22.12,26.87,16,20.14,16,12V4c0-1.1,0.9-2,2-2h28    C47.1,2,48,2.9,48,4z"/>
		<path style="fill:#E6E9ED;" d="M44,6v6c0,1.71-0.36,3.34-1,4.82c-0.05-2.97-1.27-5.65-3.22-7.6C37.79,7.23,35.04,6,32,6H44z"/>
		<path style="fill:#E6E9ED;" d="M32,6c-3.04,0-5.79,1.23-7.78,3.22c-1.95,1.95-3.17,4.63-3.22,7.6c-0.64-1.48-1-3.11-1-4.82V6H32z"/>
		<path style="fill:#69D6F4;" d="M42.92,17c-1.22,2.65-3.37,4.78-6.03,5.96C36.42,20.7,34.41,19,32,19s-4.42,1.7-4.89,3.96    c-2.66-1.18-4.81-3.31-6.03-5.96c-0.02-0.06-0.05-0.12-0.08-0.18c0.05-2.97,1.27-5.65,3.22-7.6C26.21,7.23,28.96,6,32,6    s5.79,1.23,7.78,3.22c1.95,1.95,3.17,4.63,3.22,7.6C42.97,16.88,42.94,16.94,42.92,17z"/>
		<path style="fill:#FCD770;" d="M32,19c2.41,0,4.42,1.7,4.89,3.96C35.4,23.63,33.74,24,32,24c-1.74,0-3.4-0.37-4.89-1.04    C27.58,20.7,29.59,19,32,19z"/>
	</g>
	<g>
		<path d="M60,3H48.829C48.416,1.836,47.304,1,46,1H18c-1.304,0-2.416,0.836-2.829,2H4C2.346,3,1,4.346,1,6v52c0,2.757,2.243,5,5,5    h22c1.654,0,3-1.346,3-3V26.979l-0.875-0.11C22.643,25.93,17,19.538,17,12V4c0-0.551,0.449-1,1-1h28c0.551,0,1,0.449,1,1v8    c0,7.538-5.643,13.93-13.125,14.869L33,26.979V60c0,1.654,1.346,3,3,3h22c2.757,0,5-2.243,5-5V6C63,4.346,61.654,3,60,3z     M29,28.721V60c0,0.551-0.449,1-1,1H6c-1.654,0-3-1.346-3-3V6c0-0.551,0.449-1,1-1h11v7C15,20.247,20.959,27.284,29,28.721z     M61,58c0,1.654-1.346,3-3,3H36c-0.551,0-1-0.449-1-1V28.721C43.041,27.284,49,20.247,49,12V5h11c0.551,0,1,0.449,1,1V58z"/>
		<path d="M9,7c-2.206,0-4,1.794-4,4v10h2V11c0-1.103,0.897-2,2-2s2,0.897,2,2c0,6.071,2.364,11.778,6.657,16.071l1.272,1.272    C22.844,32.258,25,37.463,25,43v14H7V23H5v34c0,1.103,0.897,2,2,2h18c1.103,0,2-0.897,2-2V43c0-6.071-2.364-11.778-6.657-16.071    l-1.272-1.272C15.156,21.742,13,16.537,13,11C13,8.794,11.206,7,9,7z"/>
		<path d="M55,7c-2.206,0-4,1.794-4,4c0,5.537-2.156,10.742-6.071,14.657l-1.272,1.272C39.364,31.222,37,36.929,37,43v14    c0,1.103,0.897,2,2,2h18c1.103,0,2-0.897,2-2V17h-2v40H39V43c0-5.537,2.156-10.742,6.071-14.657l1.272-1.272    C50.636,22.778,53,17.071,53,11c0-1.103,0.897-2,2-2s2,0.897,2,2v4h2v-4C59,8.794,57.206,7,55,7z"/>
		<rect x="9" y="53" width="14" height="2"/>
		<rect x="9" y="49" width="14" height="2"/>
		<rect x="9" y="45" width="14" height="2"/>
		<rect x="9" y="41" width="14" height="2"/>
		<rect x="9" y="37" width="14" height="2"/>
		<rect x="9" y="33" width="12" height="2"/>
		<rect x="9" y="29" width="9" height="2"/>
		<rect x="9" y="25" width="5" height="2"/>
		<rect x="41" y="53" width="14" height="2"/>
		<rect x="41" y="49" width="14" height="2"/>
		<rect x="41" y="45" width="14" height="2"/>
		<rect x="41" y="41" width="14" height="2"/>
		<rect x="41" y="37" width="14" height="2"/>
		<rect x="43" y="33" width="12" height="2"/>
		<rect x="46" y="29" width="9" height="2"/>
		<rect x="50" y="25" width="5" height="2"/>
		<path d="M20.003,17c1.963,4.693,6.6,8,11.997,8s10.034-3.307,11.997-8H44c0-0.002,0-0.005,0-0.007c0.643-1.538,1-3.224,1-4.993V5    H19v7c0,1.769,0.358,3.455,1,4.993c0,0.002,0,0.005,0,0.007H20.003z M28.36,22.368C28.993,20.96,30.404,20,32,20    s3.007,0.96,3.64,2.368C34.499,22.77,33.277,23,32,23S29.501,22.77,28.36,22.368z M37.454,21.54    c-0.818-1.806-2.485-3.117-4.454-3.452V14h-2v4.088c-1.969,0.335-3.635,1.646-4.454,3.452c-1.513-0.869-2.801-2.083-3.754-3.54H25    v-2h-2.949c0.2-2.008,0.998-3.842,2.211-5.324l2.082,2.082l1.414-1.414l-2.082-2.082C27.158,8.048,28.992,7.251,31,7.051V10h2    V7.051c2.008,0.2,3.842,0.998,5.324,2.211l-2.082,2.082l1.414,1.414l2.082-2.082c1.213,1.482,2.011,3.316,2.211,5.324H39v2h2.208    C40.255,19.457,38.967,20.671,37.454,21.54z M43,7v5c0,0.067-0.009,0.131-0.01,0.198C42.058,10.074,40.532,8.271,38.619,7H43z     M21,12V7h4.381c-1.913,1.271-3.44,3.074-4.371,5.198C21.009,12.131,21,12.067,21,12z"/>
	</g>
</g>
</svg>
