<?xml version="1.0"?>
<svg xmlns="http://www.w3.org/2000/svg" viewBox="0 0 64 64" width="512" height="512"><g id="Filled_outline" data-name="Filled outline"><path d="M47,33.839A3.114,3.114,0,0,0,43.83,31H42a3,3,0,0,0,3-3.161A3.114,3.114,0,0,0,41.83,25H40a2,2,0,0,1-2-2V9c0,4.152-5,7-10,8-5.091.7-9,4.094-9,8h-.83A3.114,3.114,0,0,0,15,27.839,3,3,0,0,0,18,31h2a3,3,0,0,0,0,6H44A3,3,0,0,0,47,33.839Z" style="fill:#f98c96"/><polygon points="50 61 14 61 12 43 52 43 50 61" style="fill:#f29657"/><path d="M52,43H12V41a4,4,0,0,1,4-4H48a4,4,0,0,1,4,4Z" style="fill:#dd3e46"/><rect x="31" y="30" width="12" height="2" style="fill:#fff"/><rect x="27" y="30" width="2" height="2" style="fill:#fff"/><circle cx="25" cy="26" r="2" style="fill:#fff"/><circle cx="32" cy="23" r="2" style="fill:#fff"/><path d="M21,3h2a6,6,0,0,1,6,6V9a0,0,0,0,1,0,0H27a6,6,0,0,1-6-6V3A0,0,0,0,1,21,3Z" style="fill:#3e8051"/><path d="M35,3h2a0,0,0,0,1,0,0V3a6,6,0,0,1-6,6H29a0,0,0,0,1,0,0V9A6,6,0,0,1,35,3Z" transform="translate(66 12) rotate(-180)" style="fill:#3e8051"/><circle cx="29" cy="13" r="4" style="fill:#dd3e46"/><polygon points="28 61 22 61 20 43 27 43 28 61" style="fill:#ffd782"/><polygon points="36 61 42 61 44 43 37 43 36 61" style="fill:#ffd782"/><path d="M53,41a5.006,5.006,0,0,0-5-5h-.542A3.976,3.976,0,0,0,48,33.785a4.077,4.077,0,0,0-2.7-3.52,3.97,3.97,0,0,0,.7-2.48A4.151,4.151,0,0,0,41.83,24H40a1,1,0,0,1-1-1V9a1,1,0,0,0-2,0c0,2.043-1.514,3.572-3.061,4.6A4.76,4.76,0,0,0,34,13a4.954,4.954,0,0,0-1.222-3.238A7.006,7.006,0,0,0,38,3V2H35a7,7,0,0,0-6,3.413A7,7,0,0,0,23,2H20V3a7.006,7.006,0,0,0,5.222,6.762,4.944,4.944,0,0,0,.264,6.788c-4,1.262-6.916,4.146-7.411,7.451A4.149,4.149,0,0,0,14,27.788,3.967,3.967,0,0,0,15.1,30.752a4.023,4.023,0,0,0,1.583,1.022A3.937,3.937,0,0,0,16.556,36H16a5.006,5.006,0,0,0-5,5v2a.578.578,0,0,0,.012.057c0,.018-.008.035-.006.053l2,18A1,1,0,0,0,14,62H50a1,1,0,0,0,.994-.89l2-18c0-.018-.007-.035-.006-.053A.578.578,0,0,0,53,43ZM26,13a3,3,0,1,1,3,3A3,3,0,0,1,26,13Zm9-9h.9A5.008,5.008,0,0,1,31,8h-.9A5.008,5.008,0,0,1,35,4ZM22.1,4H23a5.008,5.008,0,0,1,4.9,4H27A5.008,5.008,0,0,1,22.1,4ZM18,34a2,2,0,0,1,2-2,1,1,0,0,0,0-2H18A2,2,0,0,1,16,27.9,2.127,2.127,0,0,1,18.17,26H19a1,1,0,0,0,1-1c0-3.358,3.5-6.371,8.2-7.02.062-.012.121-.029.18-.043a4.549,4.549,0,0,0,3.943-1.226A13.613,13.613,0,0,0,37,13.643V23a3,3,0,0,0,3,3h1.83A2.127,2.127,0,0,1,44,27.892,2,2,0,0,1,42,30H31v2H43.83A2.127,2.127,0,0,1,46,33.892,2,2,0,0,1,44,36H20A2,2,0,0,1,18,34Zm-5,7a3,3,0,0,1,3-3H48a3,3,0,0,1,3,3v1H13Zm22.943,3-.889,16H28.946l-.889-16ZM13.117,44h5.988l1.778,16H14.9ZM22.9,60,21.117,44h4.937l.889,16Zm14.162,0,.889-16h4.937L41.105,60Zm12.048,0H43.117L44.9,44h5.988Z"/><rect x="27" y="30" width="2" height="2"/><path d="M28,26a3,3,0,1,0-3,3A3,3,0,0,0,28,26Zm-3,1a1,1,0,1,1,1-1A1,1,0,0,1,25,27Z"/><path d="M35,23a3,3,0,1,0-3,3A3,3,0,0,0,35,23Zm-4,0a1,1,0,1,1,1,1A1,1,0,0,1,31,23Z"/></g></svg>
