<?xml version="1.0" encoding="iso-8859-1"?>
<!-- Generator: Adobe Illustrator 19.0.0, SVG Export Plug-In . SVG Version: 6.00 Build 0)  -->
<svg xmlns="http://www.w3.org/2000/svg" xmlns:xlink="http://www.w3.org/1999/xlink" version="1.1" id="Layer_1" x="0px" y="0px" viewBox="0 0 512 512" style="enable-background:new 0 0 512 512;" xml:space="preserve" width="512" height="512">
<g id="XMLID_696_">
	<path id="XMLID_697_" style="fill:#EB5163;" d="M301.56,109.46c-1.88,7.11-6.83,13.81-15.91,19.74   c-22.66,14.81-62.45,19.17-74.67,0.46c-3.67-5.62-4.44-12.68-3.1-20.2c3.12-17.54,17.66-37.63,33.51-47.99   c22.67-14.81,39.44-4.13,51.66,14.58C300.38,87.26,304.4,98.81,301.56,109.46z"/>
	<path id="XMLID_698_" style="fill:#D63249;" d="M301.56,109.46c-1.88,7.11-6.83,13.81-15.91,19.74   c-22.66,14.81-62.45,19.17-74.67,0.46c-3.67-5.62-4.44-12.68-3.1-20.2H301.56z"/>
	<path id="XMLID_699_" style="fill:#EFA66F;" d="M463.09,378.851H48.91l5.75-23.02l34.17-136.86l3.9-15.62l16.66-66.74   c2.23-8.91,10.23-15.15,19.41-15.15h254.4c9.18,0,17.18,6.24,19.41,15.15l11.39,45.63l3.79,15.16l12.67,50.75L463.09,378.851z"/>
	<path id="XMLID_700_" style="fill:#E88F52;" d="M463.09,378.85H48.91l5.75-23.02H361.1c-0.02-0.18-0.06-0.36-0.08-0.55   c-4.16-32.79,5.02-62.34,25.86-83.17c11.78-11.78,26.78-19.95,43.58-23.96L463.09,378.85z"/>
	<path id="XMLID_701_" style="fill:#E88F52;" d="M417.79,197.401c-0.65,0.73-1.32,1.45-2.02,2.14   c-10.04,10.05-23.39,15.58-37.58,15.58c-12.09,0-22.75,7.27-27.16,18.52l-4.17,10.63c-2.92,7.44-7.94,13.74-14.52,18.23   c-6.6,4.5-14.3,6.87-22.27,6.87c-16.92,0-31.95-10.76-37.41-26.77l-3.41-10.01c-2-5.87-5.72-10.87-10.77-14.48   c-5.04-3.61-10.98-5.52-17.19-5.52c-16.28,0-29.53,13.25-29.53,29.54v53.35c0,9.23-3.6,17.92-10.14,24.45   c-6.53,6.54-15.22,10.14-24.45,10.14c-19.07,0-34.59-15.52-34.59-34.59v-39.82c0-13.41-10.98-24.32-24.48-24.32h-0.88   c-10.96,0-21.18-4.62-28.39-12.37l3.9-15.62l16.66-66.74c2.23-8.91,10.23-15.15,19.41-15.15h254.4c9.18,0,17.18,6.24,19.41,15.15   l11.39,45.63L417.79,197.401z"/>
	<path id="XMLID_702_" style="fill:#915040;" d="M414,182.24c-1.83,3.24-4.1,6.21-6.71,8.82c-7.45,7.45-17.73,12.06-29.1,12.06   c-16.94,0-32.15,10.37-38.33,26.14l-4.17,10.63c-2.07,5.27-5.64,9.65-10.11,12.7c-4.48,3.05-9.85,4.78-15.51,4.78   c-11.78,0-22.25-7.49-26.05-18.64l-3.41-10.01c-2.87-8.41-8.25-15.44-15.15-20.37c-6.88-4.93-15.28-7.76-24.17-7.76   c-22.94,0-41.53,18.6-41.53,41.54v53.35c0,6.24-2.53,11.88-6.62,15.97s-9.74,6.62-15.97,6.62c-12.48,0-22.59-10.11-22.59-22.59   v-39.82c0-20.06-16.26-36.32-36.48-36.32h-0.88c-11.1,0-20.4-6.68-24.49-15.99l16.66-66.74c2.23-8.91,10.23-15.15,19.41-15.15   h254.4c9.18,0,17.18,6.24,19.41,15.15L414,182.24z"/>
	<g id="XMLID_703_">
		<path id="XMLID_1415_" style="fill:#00DF97;" d="M372.928,353.786c0.6,4.78,1.52,9.58,2.76,14.38c0.89,3.46,3.62,6.18,7.08,7.07    c32.77,8.41,65.6,2.27,87.56-19.69c0.58-0.58,1.15-1.17,1.7-1.76c20.56-21.93,26.18-53.88,17.99-85.8    c-0.89-3.46-3.62-6.19-7.08-7.08c-32.78-8.42-65.61-2.27-87.57,19.69C376.628,299.326,369.398,325.996,372.928,353.786z"/>
		<path id="XMLID_1414_" style="fill:#00B579;" d="M372.928,353.786c0.6,4.78,1.52,9.58,2.76,14.38c0.89,3.46,3.62,6.18,7.08,7.07    c32.77,8.41,65.6,2.27,87.56-19.69c0.58-0.58,1.15-1.17,1.7-1.76H372.928z"/>
	</g>
	<g id="XMLID_704_">
		<path id="XMLID_1412_" style="fill:#77DFFF;" d="M402.446,457.474H109.554c-29.909,0-54.156-24.246-54.156-54.156v0h401.204v0    C456.602,433.228,432.355,457.474,402.446,457.474z"/>
		<path id="XMLID_1411_" style="fill:#B7F1FF;" d="M34.317,424.326h443.365c14.811,0,26.817-12.007,26.817-26.817v-21.63    c0-4.443-3.602-8.045-8.045-8.045H15.545c-4.443,0-8.045,3.602-8.045,8.045v21.63C7.5,412.32,19.507,424.326,34.317,424.326z"/>
		<path id="XMLID_705_" d="M496.455,360.334h-20.333c22.516-22.916,30.432-58.067,21.157-94.211    c-1.572-6.123-6.351-10.904-12.473-12.478c-15.793-4.062-31.399-4.834-45.881-2.541l-29.043-116.312    c-3.063-12.269-14.034-20.838-26.681-20.838h-75.207c3.491-9.972,3.177-23.882-8.668-42.011    c-16.914-25.889-38.944-31.837-62.035-16.753c-18.021,11.775-36.342,36.508-37.457,58.764h-71.037    c-12.646,0-23.618,8.569-26.681,20.838L64.216,286.579c-1.004,4.019,1.44,8.09,5.459,9.093c0.61,0.152,1.222,0.226,1.823,0.226    c3.361,0,6.42-2.276,7.271-5.685l17.594-70.459c5.87,4.514,13.145,7.085,20.857,7.085h0.88c15.979,0,28.98,12.929,28.98,28.82    v39.82c0,16.592,13.498,30.09,30.09,30.09c8.033,0,15.588-3.131,21.272-8.816c5.687-5.685,8.817-13.24,8.817-21.274v-53.35    c0-18.77,15.266-34.04,34.03-34.04c7.151,0,13.998,2.198,19.81,6.363c5.812,4.152,10.104,9.923,12.411,16.686l3.41,10.012    c4.836,14.188,18.158,23.72,33.149,23.72c7.064,0,13.888-2.103,19.737-6.085c5.826-3.976,10.274-9.562,12.863-16.156l4.173-10.633    c5.088-12.986,17.393-21.376,31.346-21.376c11.953,0,23.245-4.296,32.135-12.142l14.01,56.107    c-13.033,4.212-24.735,11.17-34.269,20.703c-21.136,21.137-29.592,51.799-23.732,85.046h-46.073c-4.143,0-7.5,3.358-7.5,7.5    s3.357,7.5,7.5,7.5h176.193c0.301,0,0.545,0.245,0.545,0.545v21.63c0,10.652-8.666,19.317-19.317,19.317H34.317    c-10.651,0-19.317-8.666-19.317-19.317v-21.63c0-0.3,0.244-0.545,0.545-0.545h270.193c4.143,0,7.5-3.358,7.5-7.5    s-3.357-7.5-7.5-7.5H61.26l8.888-35.598c1.004-4.019-1.44-8.09-5.46-9.094c-4.016-1-8.09,1.441-9.093,5.46L45.8,360.334H15.545    C6.974,360.334,0,367.308,0,375.879v21.63c0,18.923,15.395,34.317,34.317,34.317h20.558c10.68,20.452,31.603,33.148,54.678,33.148    h216.185c4.143,0,7.5-3.358,7.5-7.5s-3.357-7.5-7.5-7.5H109.554c-14.671,0-28.176-6.799-36.919-18.148h366.758    c-8.737,11.361-22.249,18.148-36.947,18.148h-42.184c-4.143,0-7.5,3.358-7.5,7.5s3.357,7.5,7.5,7.5h42.184    c23.106,0,43.993-12.687,54.673-33.148h20.564c18.923,0,34.317-15.395,34.317-34.317v-21.63    C512,367.308,505.026,360.334,496.455,360.334z M245.497,67.748c10.823-7.071,25.296-12.054,41.273,12.399    c13.338,20.416,7.029,30.291,4.52,33.807h-76.431C216.046,98.735,229.467,78.222,245.497,67.748z M401.986,185.757    c-6.36,6.36-14.812,9.863-23.797,9.863c-20.17,0-37.955,12.13-45.311,30.901l-4.171,10.628c-1.482,3.777-4.026,6.974-7.349,9.241    c-3.344,2.277-7.248,3.48-11.289,3.48c-8.571,0-16.188-5.449-18.951-13.558l-3.411-10.014c-3.327-9.75-9.513-18.066-17.879-24.044    c-8.366-5.995-18.235-9.164-28.539-9.164c-27.035,0-49.03,21.999-49.03,49.04v53.35c0,4.026-1.571,7.814-4.424,10.667    c-2.852,2.852-6.64,4.423-10.666,4.423c-8.32,0-15.09-6.769-15.09-15.09v-39.82c0-24.163-19.729-43.82-43.98-43.82h-0.88    c-6.836,0-13.07-3.578-16.533-9.404l15.983-64.009c1.393-5.577,6.38-9.472,12.128-9.472h254.404    c5.748,0,10.735,3.895,12.128,9.472l10.622,42.538C404.782,182.672,403.457,184.285,401.986,185.757z M400.674,285.895    c19.409-19.409,48.714-25.867,80.398-17.722c0.811,0.208,1.47,0.868,1.678,1.679c8.132,31.689,1.67,60.99-17.73,80.39    c-3.725,3.726-7.888,7.025-12.371,9.806c-0.144,0.089-0.278,0.189-0.413,0.286h-51.047l15.542-15.542    c5.482,1.347,11.069,2.033,16.712,2.033c2.604,0,5.221-0.144,7.843-0.433c4.117-0.453,7.088-4.158,6.635-8.275    c-0.454-4.117-4.158-7.091-8.275-6.635c-3.292,0.363-6.572,0.433-9.823,0.219l8.039-8.039c5.483,1.347,11.07,2.034,16.713,2.034    c2.604,0,5.22-0.144,7.842-0.433c4.117-0.453,7.088-4.158,6.635-8.275c-0.454-4.117-4.146-7.087-8.275-6.635    c-3.293,0.362-6.572,0.431-9.822,0.217l10.236-10.236c2.929-2.929,2.929-7.678,0-10.606c-2.93-2.929-7.678-2.929-10.607,0    l-10.235,10.235c-0.214-3.25-0.145-6.529,0.217-9.823c0.452-4.118-2.519-7.822-6.636-8.274c-4.117-0.451-7.822,2.519-8.274,6.636    c-0.912,8.303-0.358,16.536,1.61,24.545l-8.046,8.046c-0.214-3.25-0.145-6.529,0.217-9.822c0.453-4.117-2.518-7.822-6.635-8.275    c-4.127-0.451-7.822,2.519-8.275,6.635c-0.913,8.301-0.359,16.535,1.609,24.546l-24.804,24.804    C375.912,330.136,382.828,303.74,400.674,285.895z"/>
	</g>
</g>















</svg>
