<?xml version="1.0" encoding="utf-8"?>
<svg id="master-artboard" viewBox="0 0 1400 980" version="1.0" xmlns="http://www.w3.org/2000/svg" x="0px" y="0px" width="1400px" height="980px" enable-background="new 0 0 1400 980"><rect id="ee-background" x="0" y="0" width="1400" height="980" style="fill: white; fill-opacity: 0; pointer-events: none;"/>
<metadata>
	<sfw xmlns="&amp;ns_sfw;">
		<slices xmlns="http://www.w3.org/2000/svg"/>
		<slicesourcebounds xmlns="http://www.w3.org/2000/svg" y="-980" x="0" width="1400" height="980" bottomleftorigin="true"/>
	</sfw>
</metadata>
<path d="M 0 0 H 1400 V 980 H 0 V 0 Z" fill="#F3E8E8"/>
<g>
	<path fill="#F3BEBD" stroke="#7D1416" stroke-width="4" stroke-linecap="round" stroke-miterlimit="10" d="M1064.1,812.2&#10;&#9;&#9;c0,0-51-121.9-55.7-134.8c-6.8-18.5-19.4-17-19.4-17l-268.4-21.4l-12-1l-268.4-21.4c0,0-10.5-3.5-21.8,13.7&#10;&#9;&#9;c-7.5,11.5-76.4,124.3-76.4,124.3s-3,24.8,23.8,29c23.7,3.7,277.3,22.5,335.2,26.8c57.8,4.9,311.2,26.5,335.2,26.6&#10;&#9;&#9;C1063.1,837.2,1064.1,812.2,1064.1,812.2z"/>
	<path fill="#F2E5C0" stroke="#7D1416" stroke-width="4" stroke-linecap="round" stroke-miterlimit="10" d="M1064.1,812.2&#10;&#9;&#9;c0,0-2.1-5.5-5.6-14.2c-3,7.1-9.9,15.8-25.8,15.7c-24-0.1-277.4-21.7-335.2-26.6c-57.8-4.3-311.5-23.1-335.2-26.8&#10;&#9;&#9;c-9-1.4-14.6-5.1-18.2-9.5c-1.5,2.5-2.3,3.8-2.3,3.8s-3,24.8,23.8,29c23.7,3.7,277.3,22.5,335.2,26.8&#10;&#9;&#9;c57.8,4.9,311.2,26.5,335.2,26.6C1063.1,837.2,1064.1,812.2,1064.1,812.2z"/>
	
		<path d="M 418.299988 630.400024 L 1006.599976 677.299988" fill="none" stroke="#7D1416" stroke-width="4" stroke-linecap="round" stroke-miterlimit="10"/>
	
		<path d="M 1016.400024 697.400024 L 407 648.900024" fill="none" stroke="#7D1416" stroke-width="4" stroke-linecap="round" stroke-miterlimit="10"/>
	
		<path d="M 395.799988 671.400024 L 1024.900024 721.5" fill="none" stroke="#7D1416" stroke-width="4" stroke-linecap="round" stroke-miterlimit="10"/>
	
		<path d="M 376.399994 698.299988 L 1036.699951 750.799988" fill="none" stroke="#7D1416" stroke-width="4" stroke-linecap="round" stroke-miterlimit="10"/>
	
		<path d="M 363 725 L 1050.5 779.700012" fill="none" stroke="#7D1416" stroke-width="4" stroke-linecap="round" stroke-miterlimit="10"/>
	
		<path d="M 697.5 787.099976 L 709.400024 638.200012" fill="none" stroke="#7D1416" stroke-width="4" stroke-linecap="round" stroke-miterlimit="10"/>
	<g>
		
			<path d="M 641.799988 780.599976 L 678.700012 635.700012" fill="none" stroke="#7D1416" stroke-width="4" stroke-linecap="round" stroke-miterlimit="10"/>
		
			<path d="M 587.799988 778.900024 L 638.299988 633.299988" fill="none" stroke="#7D1416" stroke-width="4" stroke-linecap="round" stroke-miterlimit="10"/>
		
			<path d="M 541.200012 774.700012 L 602.900024 630.5" fill="none" stroke="#7D1416" stroke-width="4" stroke-linecap="round" stroke-miterlimit="10"/>
		
			<path d="M 486.399994 771.099976 L 559.400024 626.200012" fill="none" stroke="#7D1416" stroke-width="4" stroke-linecap="round" stroke-miterlimit="10"/>
		
			<path d="M 438.399994 766.5 L 515.799988 622.799988" fill="none" stroke="#7D1416" stroke-width="4" stroke-linecap="round" stroke-miterlimit="10"/>
		
			<path d="M 382.799988 762 L 470.700012 619" fill="none" stroke="#7D1416" stroke-width="4" stroke-linecap="round" stroke-miterlimit="10"/>
	</g>
	<g>
		
			<path d="M 760.700012 790 L 747.099976 641.200012" fill="none" stroke="#7D1416" stroke-width="4" stroke-linecap="round" stroke-miterlimit="10"/>
		
			<path d="M 814.299988 796.900024 L 787.5 645.200012" fill="none" stroke="#7D1416" stroke-width="4" stroke-linecap="round" stroke-miterlimit="10"/>
		
			<path d="M 860.900024 800.099976 L 822.900024 648" fill="none" stroke="#7D1416" stroke-width="4" stroke-linecap="round" stroke-miterlimit="10"/>
		
			<path d="M 915.599976 805.299988 L 866.5 650.700012" fill="none" stroke="#7D1416" stroke-width="4" stroke-linecap="round" stroke-miterlimit="10"/>
		
			<path d="M 963.700012 808.299988 L 910 654.099976" fill="none" stroke="#7D1416" stroke-width="4" stroke-linecap="round" stroke-miterlimit="10"/>
		
			<path d="M 1019.299988 812.700012 L 955.200012 657.599976" fill="none" stroke="#7D1416" stroke-width="4" stroke-linecap="round" stroke-miterlimit="10"/>
	</g>
</g>
<path d="M 828.299973 689.5 A 124.199997 35.299999 0 0 1 704.099976 724.799999 A 124.199997 35.299999 0 0 1 579.899979 689.5 A 124.199997 35.299999 0 0 1 704.099976 654.200001 A 124.199997 35.299999 0 0 1 828.299973 689.5 Z" transform="matrix(0.9886 0.1507 -0.1507 0.9886 111.9513 -98.2369)" fill="#EDA6A6"/>
<path d="M 653.999977 744.299988 A 45.900002 13.1 0 0 1 608.099976 757.399988 A 45.900002 13.1 0 0 1 562.199974 744.299988 A 45.900002 13.1 0 0 1 608.099976 731.199987 A 45.900002 13.1 0 0 1 653.999977 744.299988 Z" fill="#EDA6A6"/>
<g>
	<g>
		<g>
			
				<path fill="#96CD7E" stroke="#7D1416" stroke-width="2" stroke-linecap="round" stroke-linejoin="round" stroke-miterlimit="10" d="&#10;&#9;&#9;&#9;&#9;M650.4,489.8c0,0-5.3-8.1-11.9-8c-6.6,0.1-16.6,2.3-18.2,0.3c-1.6-2,1.6-3.3,0.3-3.1c-1.3,0.2-9.2-1.7-9.3-3.6&#10;&#9;&#9;&#9;&#9;c-0.1-1.8,4.2-1.8,3.2-2.3c-1-0.4-4.6-1.2-4.1-2.6c0.5-1.4,2.7-0.4,2.1-1c-0.6-0.6-1.3-1.9-0.2-2.1c1.1-0.2,2.2-0.6,7.9,2.6&#10;&#9;&#9;&#9;&#9;c5.7,3.2,4.3,3.4,7.4,3.5c3.1,0.1,4.7,1.8,4,0.6c-0.8-1.2-4.1-3.2-7.3-4c-3.1-0.8-8.9-3.7-10.9-6.5c-2-2.8-0.5-5.1,1-4.7&#10;&#9;&#9;&#9;&#9;c1.5,0.4,1.3,0.6,2.3,0c1-0.6,1.7-0.4,2.8,0.1c1.1,0.5,6.6,3.4,6.2,1.5c-0.4-1.9-8.9-4.3-8.9-5.1c0-0.8,0.9-0.9,0.1-1.7&#10;&#9;&#9;&#9;&#9;c-0.7-0.8-1.8-1.9-0.6-3c1.2-1.1,1.6-1.9,2.9-1.1c1.3,0.8,4.1,1.7,3.2,0.5c-0.9-1.1-4.9-5-3.7-5.6c1.2-0.7,2-0.8,1.5-1.8&#10;&#9;&#9;&#9;&#9;c-0.5-1-2.4-5.7-0.1-5.8c2.3-0.1,2.9,1.6,4,1.2c1.1-0.4,0.7-0.5,1.4,1c0.7,1.5,1.9,6,2.1,5.1c0.2-0.9-1.4-7.5,0.4-6.6&#10;&#9;&#9;&#9;&#9;c1.8,0.9,3.9,2.7,3.9,4.3c0,1.6-0.9,9.5,0.6,8.5c1.4-1,3.2-12,4.2-11.4c1,0.5-0.4,9.9-0.5,13.9c-0.1,4-1.3,12.2,1.1,12.2&#10;&#9;&#9;&#9;&#9;c2.3,0,3.3-0.8,3.2-5.5c0-4.7,0.3-11.8,1.3-11.6c1,0.2,2,1.2,1.9-0.3c-0.1-1.5-0.4-5.3,1.1-5.2c1.5,0.1,2.7-3.2,3.4-2.3&#10;&#9;&#9;&#9;&#9;c0.6,0.9,2.9,3.9,3.4,5.9c0.5,2-1,3.5-0.9,5.3c0.1,1.7,2.4,0.3,2.2,2.3c-0.2,2-3.2,3.7-2.9,5.2c0.2,1.5,1.9,2.3,0.8,3.8&#10;&#9;&#9;&#9;&#9;c-1.1,1.4-8.2,4.3-8.4,9.2c-0.2,4.9,3.1,11.9,10.5,15.5C660.6,491,654.7,494.2,650.4,489.8z"/>
		</g>
	</g>
	<g>
		<g>
			
				<path fill="#96CD7E" stroke="#7D1416" stroke-width="3" stroke-linecap="round" stroke-linejoin="round" stroke-miterlimit="10" d="&#10;&#9;&#9;&#9;&#9;M650.4,489.8c0,0-5.3-8.1-11.9-8c-6.6,0.1-16.6,2.3-18.2,0.3c-1.6-2,1.6-3.3,0.3-3.1c-1.3,0.2-9.2-1.7-9.3-3.6&#10;&#9;&#9;&#9;&#9;c-0.1-1.8,4.2-1.8,3.2-2.3c-1-0.4-4.6-1.2-4.1-2.6c0.5-1.4,2.7-0.4,2.1-1c-0.6-0.6-1.3-1.9-0.2-2.1c1.1-0.2,2.2-0.6,7.9,2.6&#10;&#9;&#9;&#9;&#9;c5.7,3.2,4.3,3.4,7.4,3.5c3.1,0.1,4.7,1.8,4,0.6c-0.8-1.2-4.1-3.2-7.3-4c-3.1-0.8-8.9-3.7-10.9-6.5c-2-2.8-0.5-5.1,1-4.7&#10;&#9;&#9;&#9;&#9;c1.5,0.4,1.3,0.6,2.3,0c1-0.6,1.7-0.4,2.8,0.1c1.1,0.5,6.6,3.4,6.2,1.5c-0.4-1.9-8.9-4.3-8.9-5.1c0-0.8,0.9-0.9,0.1-1.7&#10;&#9;&#9;&#9;&#9;c-0.7-0.8-1.8-1.9-0.6-3c1.2-1.1,1.6-1.9,2.9-1.1c1.3,0.8,4.1,1.7,3.2,0.5c-0.9-1.1-4.9-5-3.7-5.6c1.2-0.7,2-0.8,1.5-1.8&#10;&#9;&#9;&#9;&#9;c-0.5-1-2.4-5.7-0.1-5.8c2.3-0.1,2.9,1.6,4,1.2c1.1-0.4,0.7-0.5,1.4,1c0.7,1.5,1.9,6,2.1,5.1c0.2-0.9-1.4-7.5,0.4-6.6&#10;&#9;&#9;&#9;&#9;c1.8,0.9,3.9,2.7,3.9,4.3c0,1.6-0.9,9.5,0.6,8.5c1.4-1,3.2-12,4.2-11.4c1,0.5-0.4,9.9-0.5,13.9c-0.1,4-1.3,12.2,1.1,12.2&#10;&#9;&#9;&#9;&#9;c2.3,0,3.3-0.8,3.2-5.5c0-4.7,0.3-11.8,1.3-11.6c1,0.2,2,1.2,1.9-0.3c-0.1-1.5-0.4-5.3,1.1-5.2c1.5,0.1,2.7-3.2,3.4-2.3&#10;&#9;&#9;&#9;&#9;c0.6,0.9,2.9,3.9,3.4,5.9c0.5,2-1,3.5-0.9,5.3c0.1,1.7,2.4,0.3,2.2,2.3c-0.2,2-3.2,3.7-2.9,5.2c0.2,1.5,1.9,2.3,0.8,3.8&#10;&#9;&#9;&#9;&#9;c-1.1,1.4-8.2,4.3-8.4,9.2c-0.2,4.9,3.1,11.9,10.5,15.5C660.6,491,654.7,494.2,650.4,489.8z"/>
		</g>
	</g>
</g>
<path fill="#51C1B5" stroke="#7D1416" stroke-width="4" stroke-miterlimit="10" d="M689.7,580.9l-150.2-43.6&#10;&#9;c12.3,154.6,150.2,154.6,150.2,154.6s133.6,0,150.2-154.6L689.7,580.9z"/>
<path fill="#51C1B5" d="M741.2,675.9c0,0-117.8,0-145.3-122.3l-56.3-16.4&#10;&#9;c12.3,154.6,150.2,154.6,150.2,154.6s30.8,0,64.6-17.1C746.2,675.9,741.2,675.9,741.2,675.9z"/>
<g>
	<path fill="none" stroke="#7D1416" stroke-width="4" stroke-linecap="round" stroke-linejoin="round" stroke-miterlimit="10" d="&#10;&#9;&#9;M708,604.8c8.2-0.6,16.7-1.5,25.6-2.6"/>
	<path fill="none" stroke="#7D1416" stroke-width="4" stroke-linecap="round" stroke-linejoin="round" stroke-miterlimit="10" d="&#10;&#9;&#9;M545,568.1c0,0,28.9,41.2,139.4,37.9"/>
	<path fill="none" stroke="#7D1416" stroke-width="4" stroke-linecap="round" stroke-linejoin="round" stroke-miterlimit="10" d="&#10;&#9;&#9;M835.9,573.5c0,0-22.8,19.6-64.9,26.1"/>
	<path fill="none" stroke="#7D1416" stroke-width="4" stroke-linecap="round" stroke-linejoin="round" stroke-miterlimit="10" d="&#10;&#9;&#9;M593.7,615.8c36.5,10.9,97.7,20.3,177.3,0.3"/>
	<path fill="none" stroke="#7D1416" stroke-width="4" stroke-linecap="round" stroke-linejoin="round" stroke-miterlimit="10" d="&#10;&#9;&#9;M555.6,600.3c0,0,8.6,5.2,24.9,11.1"/>
</g>
<path d="M 841.300018 530.099976 A 151.600006 52.5 0 0 1 689.700012 582.599976 A 151.600006 52.5 0 0 1 538.100006 530.099976 A 151.600006 52.5 0 0 1 689.700012 477.599976 A 151.600006 52.5 0 0 1 841.300018 530.099976 Z" fill="none" stroke="#7D1416" stroke-width="4" stroke-miterlimit="10"/>
<path d="M 841.300018 530.099976 A 151.600006 52.5 0 0 1 689.700012 582.599976 A 151.600006 52.5 0 0 1 538.100006 530.099976 A 151.600006 52.5 0 0 1 689.700012 477.599976 A 151.600006 52.5 0 0 1 841.300018 530.099976 Z" fill="#F4C6C6" stroke="#7D1416" stroke-width="4" stroke-miterlimit="10"/>
<path d="M 827.500015 528.299988 A 137.800003 44.200001 0 0 1 689.700012 572.499989 A 137.800003 44.200001 0 0 1 551.900009 528.299988 A 137.800003 44.200001 0 0 1 689.700012 484.099987 A 137.800003 44.200001 0 0 1 827.500015 528.299988 Z" fill="none" stroke="#7D1416" stroke-width="4" stroke-miterlimit="10"/>
<path d="M 827.500015 528.299988 A 137.800003 44.200001 0 0 1 689.700012 572.499989 A 137.800003 44.200001 0 0 1 551.900009 528.299988 A 137.800003 44.200001 0 0 1 689.700012 484.099987 A 137.800003 44.200001 0 0 1 827.500015 528.299988 Z" fill="#FFCE81" stroke="#7D1416" stroke-width="4" stroke-miterlimit="10"/>
<g>
	
		<path fill="#FFF6EA" stroke="#7D1416" stroke-width="4" stroke-linecap="round" stroke-linejoin="round" stroke-miterlimit="10" d="&#10;&#9;&#9;M890,562.6c0,0-0.6-15.4-2.5-27c-1.9-11.6-7.3-32.6-7-49.8c0.3-17.2,6.7-31.3,14.9-30.4c8.3,0.9,21.1,12.7,29.8,36.5&#10;&#9;&#9;c8.7,23.8,13.7,54.9,9.3,78.7c0,0-0.3,2.5-8.6,3s-13.7-0.8-16.1-0.2s-6.3,2.3-7.8,5.9c-1.5,3.6-7.7,2.8-9.6-0.6&#10;&#9;&#9;C890.6,575.4,890,562.6,890,562.6z"/>
	
		<path fill="#FFE586" stroke="#7D1416" stroke-width="4" stroke-linecap="round" stroke-linejoin="round" stroke-miterlimit="10" d="&#10;&#9;&#9;M810.6,691.5c0,0-3.6,0.9-3.8-4c-0.1-4.9-0.5-7.2,3-7.2c3.5,0.1,14.7-0.1,19.4-7.1c4.8-7,1.1-15,12.2-29.6&#10;&#9;&#9;c11.2-14.6,36.9-40.7,42.5-57.6s-4.5-24.3-4.5-24.3s0.9-2.9,10.4,1.6c9.5,4.5,9.7,18.4,9.7,18.4s4.2-7.5,11.1-5.2&#10;&#9;&#9;c6.9,2.3,13.1,22.7,15.9,30.1c0,0-9.5,30.2-32.2,54.9c-22.7,24.7-43.4,26.4-53.4,23.1C841,684.6,822.7,693.5,810.6,691.5z"/>
	
		<path fill="#FBE4C5" stroke="#7D1416" stroke-width="4" stroke-linecap="round" stroke-linejoin="round" stroke-miterlimit="10" d="&#10;&#9;&#9;M889.5,554.5c0,0-12.1-13.1-32-8.9c-19.9,4.2-28.8,19.2-34.5,38.8s1.4,39.8,3.7,42.7c2.3,2.9,1.4,0.6,3.9,3.5c2.4,2.9,4,3,5.4-1.6&#10;&#9;&#9;s0.1-14.7,3.3-26.6c3.1-11.9,11.2-28.9,21.1-35.3c9.9-6.4,12.4-4.6,19.2-5.3c6.8-0.7,10.4,1.6,10.4,1.6S891.6,556.4,889.5,554.5z"/>
	
		<path fill="#FBE4C5" stroke="#7D1416" stroke-width="4" stroke-linecap="round" stroke-linejoin="round" stroke-miterlimit="10" d="&#10;&#9;&#9;M902.7,578.1c0,0,2.8-4.9,8.7-4.7c5.8,0.3,9.6,2.2,15.5-0.1c6-2.2,10-4.3,14.8-2.5c4.8,1.8,15.3,19.8,16.3,41.6&#10;&#9;&#9;c1,21.8-11.1,49-25.8,62.4c-14.7,13.4-19,11.9-22.9,12.2c-3.9,0.3-6.5,0.6-4.9-2c1.6-2.6,16.3-17.9,21.8-34.3c5.4-16.4,4.2-30,0-43&#10;&#9;&#9;S914,573,902.7,578.1z"/>
	
		<path fill="#FFE586" stroke="#7D1416" stroke-width="4" stroke-linecap="round" stroke-linejoin="round" stroke-miterlimit="10" d="&#10;&#9;&#9;M934.7,570.6c0,0,0.8,0.1,1.1-8.9s1.1-14,1.1-14s6.8-2.6,11.1,0.6c4.3,3.2,3.6,3.5,6.3,5.2c2.7,1.7,15.5,8.8,17.3,21.8&#10;&#9;&#9;c1.8,13-2.2,49.2,0.1,57.6s3.8,11.3,2.2,12.1c-1.6,0.8-9.6-4.7-9.6-17.7c0-13,1.1-39.6-6.4-51.2c-7.5-11.6-11.2-12.4-13.4-12&#10;&#9;&#9;S934.7,570.6,934.7,570.6z"/>
	
		<path fill="#FBE4C5" stroke="#7D1416" stroke-width="4" stroke-linecap="round" stroke-linejoin="round" stroke-miterlimit="10" d="&#10;&#9;&#9;M969.6,568.5c-4.2-8.8-13.1-13.7-15.3-15.1c-2.7-1.7-2.1-1.9-6.3-5.2c-4.3-3.2-11.1-0.6-11.1-0.6s-0.8,4.9-1.1,14&#10;&#9;&#9;c-0.1,2.9-0.3,4.9-0.4,6.2c0.3-0.3,0.6-0.6,0.9-0.9c7-7.4,13.6-8.8,20.8-6.2C964.3,563.3,969.6,568.5,969.6,568.5L969.6,568.5z"/>
	<path fill="none" stroke="#7D1416" stroke-width="4" stroke-linecap="round" stroke-linejoin="round" stroke-miterlimit="10" d="&#10;&#9;&#9;M899.6,581.7c0,0-8.1,29.8-27.6,50.3s-27.9,28.5-32.8,37.7"/>
	
		<path fill="#85B27B" stroke="#7D1416" stroke-width="4" stroke-linecap="round" stroke-linejoin="round" stroke-miterlimit="10" d="&#10;&#9;&#9;M839,680.9c-2.2,0-2.3-1-2.9-3.5c-0.6-2.6,0.1-3.4-1.7-3.4c-1.8,0-4.9-1.1-4.9-1.1c-0.1,0.1-0.2,0.3-0.3,0.4&#10;&#9;&#9;c-4.8,7-16,7.2-19.4,7.1c-3.5-0.1-3.1,2.2-3,7.2c0.1,4.9,3.8,4,3.8,4c12.1,2,30.4-6.9,30.4-6.9C840.4,683.1,841.1,680.8,839,680.9z&#10;&#9;&#9;"/>
	<path fill="none" stroke="#7D1416" stroke-width="4" stroke-linecap="round" stroke-linejoin="round" stroke-miterlimit="10" d="&#10;&#9;&#9;M921.8,598.4c-3.7,10.3-9.7,20.2-14.6,30c-5.7,11.6-13.4,20.5-21.3,30.5"/>
	<path fill="none" stroke="#7D1416" stroke-width="4" stroke-linecap="round" stroke-linejoin="round" stroke-miterlimit="10" d="&#10;&#9;&#9;M878.5,665.6c0,1-0.5,2-1.5,2.6"/>
	<path fill="none" stroke="#7D1416" stroke-width="4" stroke-linecap="round" stroke-linejoin="round" stroke-miterlimit="10" d="&#10;&#9;&#9;M861,675.7c-1.7,1.5-4.6,3.6-6.8,3.3"/>
	<path fill="none" stroke="#7D1416" stroke-width="4" stroke-linecap="round" stroke-linejoin="round" stroke-miterlimit="10" d="&#10;&#9;&#9;M906.9,600.5c-4.3,10.6-9,21.2-15.6,30.7c-3.1,4.4-6.3,8.8-9.9,12.9c-1.9,2.2-4.6,6.3-7.2,7.5"/>
	<path fill="none" stroke="#7D1416" stroke-width="4" stroke-linecap="round" stroke-linejoin="round" stroke-miterlimit="10" d="&#10;&#9;&#9;M857.5,664.8c-0.3,0.7-0.7,1.4-1.2,2"/>
	<path fill="none" stroke="#7D1416" stroke-width="4" stroke-linecap="round" stroke-linejoin="round" stroke-miterlimit="10" d="&#10;&#9;&#9;M923.6,544.2c0.2,4,0.3,8.2,0.2,12.5"/>
	<path fill="none" stroke="#7D1416" stroke-width="4" stroke-linecap="round" stroke-linejoin="round" stroke-miterlimit="10" d="&#10;&#9;&#9;M898,461.9c0,0,19.8,22.3,24.7,70.6"/>
	<path fill="none" stroke="#7D1416" stroke-width="4" stroke-linecap="round" stroke-linejoin="round" stroke-miterlimit="10" d="&#10;&#9;&#9;M907.5,522.8c-0.8-3.9-1.8-7.7-3-11.4"/>
	<path fill="none" stroke="#7D1416" stroke-width="4" stroke-linecap="round" stroke-linejoin="round" stroke-miterlimit="10" d="&#10;&#9;&#9;M909.5,571.4c0,0,2.1-19-0.5-39.5"/>
</g>
<g>
	
		<path d="M 609.200001 706.900024 A 51.700001 27.299999 0 0 1 557.5 734.200024 A 51.700001 27.299999 0 0 1 505.799999 706.900024 A 51.700001 27.299999 0 0 1 557.5 679.600025 A 51.700001 27.299999 0 0 1 609.200001 706.900024 Z" transform="matrix(0.9968 -8.030292e-02 8.030292e-02 0.9968 -54.9622 47.0525)" fill="#FFF6EA" stroke="#7D1416" stroke-width="4" stroke-linecap="round" stroke-linejoin="round" stroke-miterlimit="10"/>
	
		<path fill="#FFE586" stroke="#7D1416" stroke-width="4" stroke-linecap="round" stroke-linejoin="round" stroke-miterlimit="10" d="&#10;&#9;&#9;M609,702.4c0,0.1,0,0.2,0,0.3c1.2,15-20.9,29.1-49.4,31.3c-28.5,2.3-52.5-8-53.7-23l1.8,23c1.2,15,25.3,25.3,53.7,23&#10;&#9;&#9;c27.7-2.2,47.5-14.3,47.6-28.8l0,0L609,702.4C609,702.4,610.3,702.6,609,702.4z"/>
	<path fill="#7D1416" d="M534.1,703.5c0,0,8.3,2.2,12.7,0.9s3.8-5.5,3.8-5.5s1.7,2.9,4.3,1.6c2.6-1.3,4.7-5.6,4.7-5.6&#10;&#9;&#9;s-2.8,9.3,1.3,11.1c4.1,1.8,9.4,2.5,9.4,2.5s-13.1,1.4-14.1,3.9c-1,2.5-0.7,5.9-0.7,5.9s-1.7-7.2-3.9-5.5c-2.2,1.7-6.6,9.8-6.6,9.8&#10;&#9;&#9;s2.1-9.7,1.4-11.1C545.6,710,540.1,705.7,534.1,703.5z"/>
	
		<path d="M 540.200012 720.400024 A 1.5 1.5 0 0 1 538.700012 721.900024 A 1.5 1.5 0 0 1 537.200012 720.400024 A 1.5 1.5 0 0 1 538.700012 718.900024 A 1.5 1.5 0 0 1 540.200012 720.400024 Z" transform="matrix(0.8482 -0.5297 0.5297 0.8482 -299.8099 394.7043)" fill="#7D1416"/>
	
		<path d="M 571.199975 719.200012 A 3.1 2.4 0 0 1 568.099976 721.600012 A 3.1 2.4 0 0 1 564.999976 719.200012 A 3.1 2.4 0 0 1 568.099976 716.800012 A 3.1 2.4 0 0 1 571.199975 719.200012 Z" transform="matrix(0.8481 -0.5299 0.5299 0.8481 -294.7807 410.3016)" fill="#7D1416"/>
	
		<path d="M 591.699988 708.5 A 1.9 1.5 0 0 1 589.799988 710 A 1.9 1.5 0 0 1 587.899988 708.5 A 1.9 1.5 0 0 1 589.799988 707 A 1.9 1.5 0 0 1 591.699988 708.5 Z" transform="matrix(0.8482 -0.5297 0.5297 0.8482 -285.7576 419.9797)" fill="#7D1416"/>
	
		<path d="M 593 696.299988 A 2.5 1.8 0 0 1 590.5 698.099988 A 2.5 1.8 0 0 1 588 696.299988 A 2.5 1.8 0 0 1 590.5 694.499988 A 2.5 1.8 0 0 1 593 696.299988 Z" transform="matrix(0.8482 -0.5297 0.5297 0.8482 -279.1567 418.4785)" fill="#7D1416"/>
	<path d="M 547.900012 689 A 1.7 1.4 0 0 1 546.200012 690.4 A 1.7 1.4 0 0 1 544.500012 689 A 1.7 1.4 0 0 1 546.200012 687.6 A 1.7 1.4 0 0 1 547.900012 689 Z" transform="matrix(0.848 -0.53 0.53 0.848 -282.1528 394.2283)" fill="#7D1416"/>
	
		<path d="M 526.799988 699.099976 A 2 1.3 0 0 1 524.799988 700.399976 A 2 1.3 0 0 1 522.799988 699.099976 A 2 1.3 0 0 1 524.799988 697.799976 A 2 1.3 0 0 1 526.799988 699.099976 Z" transform="matrix(0.8482 -0.5296 0.5296 0.8482 -290.6339 384.0544)" fill="#7D1416"/>
	<path d="M 519.799976 715.5 A 0.7 1.2 0 0 1 519.099976 716.7 A 0.7 1.2 0 0 1 518.399976 715.5 A 0.7 1.2 0 0 1 519.099976 714.3 A 0.7 1.2 0 0 1 519.799976 715.5 Z" transform="matrix(0.848 -0.53 0.53 0.848 -300.3477 383.9064)" fill="#7D1416"/>
	
		<path d="M 572.400012 691.299988 A 1.2 1.1 0 0 1 571.200012 692.399988 A 1.2 1.1 0 0 1 570.000012 691.299988 A 1.2 1.1 0 0 1 571.200012 690.199988 A 1.2 1.1 0 0 1 572.400012 691.299988 Z" transform="matrix(0.8483 -0.5294 0.5294 0.8483 -279.3706 407.2881)" fill="#7D1416"/>
	
		<path d="M 553.100012 727 A 1.4 1.3 0 0 1 551.700012 728.3 A 1.4 1.3 0 0 1 550.300012 727 A 1.4 1.3 0 0 1 551.700012 725.7 A 1.4 1.3 0 0 1 553.100012 727 Z" transform="matrix(0.8482 -0.5297 0.5297 0.8482 -301.3597 402.6394)" fill="#7D1416"/>
	<path fill="none" stroke="#7D1416" stroke-width="4" stroke-linecap="round" stroke-linejoin="round" stroke-miterlimit="10" d="&#10;&#9;&#9;M541.3,756.6c-1.1-1.6-1.1-3-1.2-5c-0.1-3.7-0.3-7.3-0.1-11"/>
	<path fill="none" stroke="#7D1416" stroke-width="4" stroke-linecap="round" stroke-linejoin="round" stroke-miterlimit="10" d="&#10;&#9;&#9;M552.4,735.2c0.2,0.9,0,3.2-0.1,4.5c-0.1,3.9,0.8,8.5,0,12.3"/>
	<path fill="none" stroke="#7D1416" stroke-width="4" stroke-linecap="round" stroke-linejoin="round" stroke-miterlimit="10" d="&#10;&#9;&#9;M561.1,735c0.9,2.1,1,6,0.7,8.2"/>
	<path fill="none" stroke="#7D1416" stroke-width="4" stroke-linecap="round" stroke-linejoin="round" stroke-miterlimit="10" d="&#10;&#9;&#9;M574.7,753.4c-0.9-4.6-2.5-10-1.2-14.6"/>
	<path fill="none" stroke="#7D1416" stroke-width="4" stroke-linecap="round" stroke-linejoin="round" stroke-miterlimit="10" d="&#10;&#9;&#9;M585.7,751c-0.3-1.2-0.6-2.3-0.8-3.5"/>
	<path fill="none" stroke="#7D1416" stroke-width="4" stroke-linecap="round" stroke-linejoin="round" stroke-miterlimit="10" d="&#10;&#9;&#9;M602.2,719.9c0.8,1,0.7,3,0.7,4.2c0.1,3.9,0.1,8-0.1,11.9"/>
	<path fill="none" stroke="#7D1416" stroke-width="4" stroke-linecap="round" stroke-linejoin="round" stroke-miterlimit="10" d="&#10;&#9;&#9;M515.2,727.4c0.7,2,0.2,4.8,0.2,6.8c-0.1,3.8,0.1,7.7-0.2,11.4"/>
	<path fill="none" stroke="#7D1416" stroke-width="4" stroke-linecap="round" stroke-linejoin="round" stroke-miterlimit="10" d="&#10;&#9;&#9;M525.2,738.3c0,0.9,0,2.2-0.2,3"/>
</g>
<g>
	
		<path d="M 348.300007 581.099976 A 51.700001 27.299999 0 0 1 296.600006 608.399975 A 51.700001 27.299999 0 0 1 244.900005 581.099976 A 51.700001 27.299999 0 0 1 296.600006 553.799976 A 51.700001 27.299999 0 0 1 348.300007 581.099976 Z" transform="matrix(0.8374 -0.5467 0.5467 0.8374 -269.4293 256.6643)" fill="#FFF6EA" stroke="#7D1416" stroke-width="4" stroke-linecap="round" stroke-linejoin="round" stroke-miterlimit="10"/>
	
		<path fill="#FFE586" stroke="#7D1416" stroke-width="4" stroke-linecap="round" stroke-linejoin="round" stroke-miterlimit="10" d="&#10;&#9;&#9;M339.8,552.6c0,0.1,0.1,0.1,0.2,0.2c8.2,12.6-4.5,35.5-28.4,51.1c-23.9,15.6-50,18-58.2,5.4l12.6,19.4c8.2,12.6,34.3,10.2,58.2-5.4&#10;&#9;&#9;c23.2-15.2,35-35.2,28.1-48.1l0,0L339.8,552.6C339.8,552.6,340.9,552.1,339.8,552.6z"/>
	<path fill="#7D1416" d="M274.4,589.3c0,0,8.3-2,11.5-5.3c3.2-3.2,0.7-6.6,0.7-6.6s2.8,1.8,4.5-0.7c1.7-2.4,1.4-7.1,1.4-7.1&#10;&#9;&#9;s2,9.5,6.5,9.2c4.5-0.4,9.4-2.3,9.4-2.3s-10.8,7.5-10.5,10.1c0.3,2.6,2.2,5.5,2.2,5.5s-4.9-5.5-6.1-3c-1.1,2.6-1.1,11.8-1.1,11.8&#10;&#9;&#9;s-2.7-9.5-4.1-10.4C287.6,589.6,280.8,588.4,274.4,589.3z"/>
	<path fill="#7D1416" d="M287.3,600.7c0.7,0.4,1,1.3,0.6,2c-0.4,0.7-1.3,0.9-2,0.5c-0.7-0.4-1-1.3-0.6-2&#10;&#9;&#9;C285.6,600.6,286.5,600.3,287.3,600.7z"/>
	
		<path d="M 314.899988 586.900024 A 3.1 2.4 0 0 1 311.799988 589.300025 A 3.1 2.4 0 0 1 308.699988 586.900024 A 3.1 2.4 0 0 1 311.799988 584.500024 A 3.1 2.4 0 0 1 314.899988 586.900024 Z" transform="matrix(0.492 -0.8706 0.8706 0.492 -352.5547 569.6255)" fill="#7D1416"/>
	
		<path d="M 327.600012 567.099976 A 1.9 1.5 0 0 1 325.700012 568.599976 A 1.9 1.5 0 0 1 323.800012 567.099976 A 1.9 1.5 0 0 1 325.700012 565.599976 A 1.9 1.5 0 0 1 327.600012 567.099976 Z" transform="matrix(0.4921 -0.8705 0.8705 0.4921 -328.2828 571.5883)" fill="#7D1416"/>
	
		<path d="M 323.100006 556 A 2.5 1.8 0 0 1 320.600006 557.8 A 2.5 1.8 0 0 1 318.100006 556 A 2.5 1.8 0 0 1 320.600006 554.2 A 2.5 1.8 0 0 1 323.100006 556 Z" transform="matrix(0.4922 -0.8705 0.8705 0.4922 -321.2354 561.462)" fill="#7D1416"/>
	
		<path d="M 279.800006 570.799988 A 1.7 1.4 0 0 1 278.100006 572.199988 A 1.7 1.4 0 0 1 276.400006 570.799988 A 1.7 1.4 0 0 1 278.100006 569.399988 A 1.7 1.4 0 0 1 279.800006 570.799988 Z" transform="matrix(0.4919 -0.8707 0.8707 0.4919 -355.687 532.1648)" fill="#7D1416"/>
	
		<path d="M 266.100006 590 A 2 1.3 0 0 1 264.100006 591.3 A 2 1.3 0 0 1 262.100006 590 A 2 1.3 0 0 1 264.100006 588.7 A 2 1.3 0 0 1 266.100006 590 Z" transform="matrix(0.4923 -0.8704 0.8704 0.4923 -379.4033 529.4665)" fill="#7D1416"/>
	
		<path d="M 267.7 607.099976 A 0.7 1.2 0 0 1 267 608.299976 A 0.7 1.2 0 0 1 266.3 607.099976 A 0.7 1.2 0 0 1 267 605.899976 A 0.7 1.2 0 0 1 267.7 607.099976 Z" transform="matrix(0.4919 -0.8706 0.8706 0.4919 -392.9088 540.9333)" fill="#7D1416"/>
	
		<path d="M 302.499988 560.900024 A 1.2 1.1 0 0 1 301.299988 562.000024 A 1.2 1.1 0 0 1 300.099988 560.900024 A 1.2 1.1 0 0 1 301.299988 559.800024 A 1.2 1.1 0 0 1 302.499988 560.900024 Z" transform="matrix(0.4924 -0.8704 0.8704 0.4924 -335.257 546.8974)" fill="#7D1416"/>
	
		<path d="M 302.500006 601.599976 A 1.4 1.3 0 0 1 301.100006 602.899976 A 1.4 1.3 0 0 1 299.700006 601.599976 A 1.4 1.3 0 0 1 301.100006 600.299976 A 1.4 1.3 0 0 1 302.500006 601.599976 Z" transform="matrix(0.4921 -0.8705 0.8705 0.4921 -370.7719 567.6854)" fill="#7D1416"/>
	<path fill="none" stroke="#7D1416" stroke-width="4" stroke-linecap="round" stroke-linejoin="round" stroke-miterlimit="10" d="&#10;&#9;&#9;M306.1,632.6c-1.8-0.9-2.4-2.2-3.4-3.8c-1.9-3.1-3.7-6.3-5.3-9.6"/>
	<path fill="none" stroke="#7D1416" stroke-width="4" stroke-linecap="round" stroke-linejoin="round" stroke-miterlimit="10" d="&#10;&#9;&#9;M305.6,608.5c0.6,0.7,1.5,2.8,2.1,4c1.8,3.4,4.8,7.1,5.8,10.8"/>
	<path fill="none" stroke="#7D1416" stroke-width="4" stroke-linecap="round" stroke-linejoin="round" stroke-miterlimit="10" d="&#10;&#9;&#9;M313.2,604.1c1.8,1.4,3.8,4.8,4.6,6.9"/>
	<path fill="none" stroke="#7D1416" stroke-width="4" stroke-linecap="round" stroke-linejoin="round" stroke-miterlimit="10" d="&#10;&#9;&#9;M334,613.8c-3-3.6-7-7.6-8.1-12.3"/>
	<path fill="none" stroke="#7D1416" stroke-width="4" stroke-linecap="round" stroke-linejoin="round" stroke-miterlimit="10" d="&#10;&#9;&#9;M342.5,606.4c-0.8-0.9-1.6-1.8-2.4-2.7"/>
	<path fill="none" stroke="#7D1416" stroke-width="4" stroke-linecap="round" stroke-linejoin="round" stroke-miterlimit="10" d="&#10;&#9;&#9;M342.1,571.2c1.2,0.5,2,2.3,2.6,3.3c1.9,3.4,3.9,6.9,5.5,10.5"/>
	<path fill="none" stroke="#7D1416" stroke-width="4" stroke-linecap="round" stroke-linejoin="round" stroke-miterlimit="10" d="&#10;&#9;&#9;M269.2,619.4c1.5,1.4,2.5,4.1,3.4,5.9c1.8,3.4,3.8,6.7,5.3,10.1"/>
	<path fill="none" stroke="#7D1416" stroke-width="4" stroke-linecap="round" stroke-linejoin="round" stroke-miterlimit="10" d="&#10;&#9;&#9;M283.3,624.2c0.5,0.8,1.1,1.9,1.2,2.8"/>
</g>
<g>
	
		<path d="M 669.499989 691.200012 A 51.700001 27.299999 0 0 1 617.799988 718.500011 A 51.700001 27.299999 0 0 1 566.099987 691.200012 A 51.700001 27.299999 0 0 1 617.799988 663.900013 A 51.700001 27.299999 0 0 1 669.499989 691.200012 Z" transform="matrix(0.888 0.4599 -0.4599 0.888 387.0719 -206.7025)" fill="#FFF6EA" stroke="#7D1416" stroke-width="4" stroke-linecap="round" stroke-linejoin="round" stroke-miterlimit="10"/>
	
		<path fill="#FFE586" stroke="#7D1416" stroke-width="4" stroke-linecap="round" stroke-linejoin="round" stroke-miterlimit="10" d="&#10;&#9;&#9;M663.9,714.7c0,0.1-0.1,0.2-0.1,0.2c-6.9,13.4-33.1,13.6-58.5,0.4c-25.4-13.1-40.3-34.6-33.4-48l-10.7,20.5&#10;&#9;&#9;c-6.9,13.4,8,34.9,33.4,48c24.6,12.8,47.9,13.1,55.7,0.8h0L663.9,714.7C663.9,714.7,664.9,715.5,663.9,714.7z"/>
	<path fill="#7D1416" d="M599.8,676c0,0,5.9,6.3,10.3,7.5c4.4,1.2,6.1-2.7,6.1-2.7s-0.1,3.3,2.8,3.6c2.9,0.3,6.9-2.3,6.9-2.3&#10;&#9;&#9;s-7.3,6.4-4.8,10.1c2.5,3.7,6.7,7.1,6.7,7.1s-11.9-5.7-14-4.1c-2.1,1.6-3.7,4.6-3.7,4.6s2.4-7-0.4-6.7c-2.8,0.3-10.8,4.8-10.8,4.8&#10;&#9;&#9;s6.9-7.1,7.1-8.7C606,687.5,603.7,681,599.8,676z"/>
	<path d="M 596.200012 692.700012 A 1.5 1.5 0 0 1 594.700012 694.200012 A 1.5 1.5 0 0 1 593.200012 692.700012 A 1.5 1.5 0 0 1 594.700012 691.200012 A 1.5 1.5 0 0 1 596.200012 692.700012 Z" fill="#7D1416"/>
	<path d="M 623.399988 707.299988 A 3.1 2.4 0 0 1 620.299988 709.699988 A 3.1 2.4 0 0 1 617.199988 707.299988 A 3.1 2.4 0 0 1 620.299988 704.899988 A 3.1 2.4 0 0 1 623.399988 707.299988 Z" fill="#7D1416"/>
	<path d="M 646.199988 709.700012 A 1.9 1.5 0 0 1 644.299988 711.200012 A 1.9 1.5 0 0 1 642.399988 709.700012 A 1.9 1.5 0 0 1 644.299988 708.200012 A 1.9 1.5 0 0 1 646.199988 709.700012 Z" fill="#7D1416"/>
	<path d="M 654 699.700012 A 2.5 1.8 0 0 1 651.5 701.500012 A 2.5 1.8 0 0 1 649 699.700012 A 2.5 1.8 0 0 1 651.5 697.900012 A 2.5 1.8 0 0 1 654 699.700012 Z" fill="#7D1416"/>
	<path d="M 619.400012 670 A 1.7 1.4 0 0 1 617.700012 671.4 A 1.7 1.4 0 0 1 616.000012 670 A 1.7 1.4 0 0 1 617.700012 668.6 A 1.7 1.4 0 0 1 619.400012 670 Z" fill="#7D1416"/>
	<path d="M 596.200012 667.299988 A 2 1.3 0 0 1 594.200012 668.599988 A 2 1.3 0 0 1 592.200012 667.299988 A 2 1.3 0 0 1 594.200012 665.999988 A 2 1.3 0 0 1 596.200012 667.299988 Z" fill="#7D1416"/>
	<path d="M 581.299976 678.200012 A 0.7 1.2 0 0 1 580.599976 679.400012 A 0.7 1.2 0 0 1 579.899976 678.200012 A 0.7 1.2 0 0 1 580.599976 677.000012 A 0.7 1.2 0 0 1 581.299976 678.200012 Z" fill="#7D1416"/>
	<path d="M 638.900012 685.299988 A 1.2 1.1 0 0 1 637.700012 686.399988 A 1.2 1.1 0 0 1 636.500012 685.299988 A 1.2 1.1 0 0 1 637.700012 684.199988 A 1.2 1.1 0 0 1 638.900012 685.299988 Z" fill="#7D1416"/>
	<path d="M 603.600012 705.200012 A 1.4 1.3 0 0 1 602.200012 706.500012 A 1.4 1.3 0 0 1 600.800012 705.200012 A 1.4 1.3 0 0 1 602.200012 703.900012 A 1.4 1.3 0 0 1 603.600012 705.200012 Z" fill="#7D1416"/>
	<path fill="none" stroke="#7D1416" stroke-width="4" stroke-linecap="round" stroke-linejoin="round" stroke-miterlimit="10" d="&#10;&#9;&#9;M577.7,724.8c-0.1-2,0.7-3.2,1.6-4.9c1.8-3.2,3.6-6.3,5.7-9.4"/>
	<path fill="none" stroke="#7D1416" stroke-width="4" stroke-linecap="round" stroke-linejoin="round" stroke-miterlimit="10" d="&#10;&#9;&#9;M598.5,712.5c-0.3,0.9-1.7,2.7-2.4,3.8c-2.1,3.2-3.8,7.7-6.6,10.4"/>
	<path fill="none" stroke="#7D1416" stroke-width="4" stroke-linecap="round" stroke-linejoin="round" stroke-miterlimit="10" d="&#10;&#9;&#9;M606,716.9c-0.3,2.3-2.3,5.7-3.8,7.4"/>
	<path fill="none" stroke="#7D1416" stroke-width="4" stroke-linecap="round" stroke-linejoin="round" stroke-miterlimit="10" d="&#10;&#9;&#9;M607.8,739.8c1.6-4.4,3.2-9.8,6.7-13.1"/>
	<path fill="none" stroke="#7D1416" stroke-width="4" stroke-linecap="round" stroke-linejoin="round" stroke-miterlimit="10" d="&#10;&#9;&#9;M618.4,743.6c0.3-1.2,0.8-2.3,1.1-3.4"/>
	<path fill="none" stroke="#7D1416" stroke-width="4" stroke-linecap="round" stroke-linejoin="round" stroke-miterlimit="10" d="&#10;&#9;&#9;M648.8,725.9c0.2,1.2-1,2.9-1.6,3.9c-2,3.3-4.1,6.9-6.4,10"/>
	<path fill="none" stroke="#7D1416" stroke-width="4" stroke-linecap="round" stroke-linejoin="round" stroke-miterlimit="10" d="&#10;&#9;&#9;M571,686.2c-0.5,2-2.3,4.2-3.5,5.9c-2.1,3.2-4,6.6-6.2,9.6"/>
	<path fill="none" stroke="#7D1416" stroke-width="4" stroke-linecap="round" stroke-linejoin="round" stroke-miterlimit="10" d="&#10;&#9;&#9;M573.8,700.8c-0.5,0.8-1.1,1.9-1.8,2.4"/>
</g>
<g>
	
		<path d="M 1063.700001 459.399994 A 51.700001 27.299999 0 0 1 1012 486.699993 A 51.700001 27.299999 0 0 1 960.299999 459.399994 A 51.700001 27.299999 0 0 1 1012 432.099995 A 51.700001 27.299999 0 0 1 1063.700001 459.399994 Z" transform="matrix(0.888 0.4599 -0.4599 0.888 324.6241 -413.9113)" fill="#FFF6EA" stroke="#7D1416" stroke-width="4" stroke-linecap="round" stroke-linejoin="round" stroke-miterlimit="10"/>
	
		<path fill="#FFE586" stroke="#7D1416" stroke-width="4" stroke-linecap="round" stroke-linejoin="round" stroke-miterlimit="10" d="&#10;&#9;&#9;M1058,482.9c0,0.1-0.1,0.2-0.1,0.2c-6.9,13.4-33.1,13.6-58.5,0.4s-40.3-34.6-33.4-48l-10.7,20.5c-6.9,13.4,8,34.9,33.4,48&#10;&#9;&#9;c24.6,12.8,47.9,13.1,55.7,0.8h0L1058,482.9C1058,482.9,1059,483.7,1058,482.9z"/>
	<path fill="#7D1416" d="M993.9,444.2c0,0,5.9,6.3,10.3,7.5c4.4,1.2,6.1-2.7,6.1-2.7s-0.1,3.3,2.8,3.6c2.9,0.3,6.9-2.3,6.9-2.3&#10;&#9;&#9;s-7.3,6.4-4.8,10.1c2.5,3.7,6.7,7.1,6.7,7.1s-11.9-5.7-14-4.1c-2.1,1.6-3.7,4.6-3.7,4.6s2.4-7-0.4-6.7c-2.8,0.3-10.8,4.8-10.8,4.8&#10;&#9;&#9;s6.9-7.1,7.1-8.7C1000.1,455.8,997.8,449.2,993.9,444.2z"/>
	<path d="M 990.299988 460.899994 A 1.5 1.5 0 0 1 988.799988 462.399994 A 1.5 1.5 0 0 1 987.299988 460.899994 A 1.5 1.5 0 0 1 988.799988 459.399994 A 1.5 1.5 0 0 1 990.299988 460.899994 Z" fill="#7D1416"/>
	<path d="M 1017.500024 475.5 A 3.1 2.4 0 0 1 1014.400024 477.9 A 3.1 2.4 0 0 1 1011.300025 475.5 A 3.1 2.4 0 0 1 1014.400024 473.1 A 3.1 2.4 0 0 1 1017.500024 475.5 Z" fill="#7D1416"/>
	<path d="M 1040.4 477.899994 A 1.9 1.5 0 0 1 1038.5 479.399994 A 1.9 1.5 0 0 1 1036.6 477.899994 A 1.9 1.5 0 0 1 1038.5 476.399994 A 1.9 1.5 0 0 1 1040.4 477.899994 Z" fill="#7D1416"/>
	<path d="M 1048.099976 467.899994 A 2.5 1.8 0 0 1 1045.599976 469.699994 A 2.5 1.8 0 0 1 1043.099976 467.899994 A 2.5 1.8 0 0 1 1045.599976 466.099994 A 2.5 1.8 0 0 1 1048.099976 467.899994 Z" fill="#7D1416"/>
	<path d="M 1013.499988 438.200012 A 1.7 1.4 0 0 1 1011.799988 439.600012 A 1.7 1.4 0 0 1 1010.099988 438.200012 A 1.7 1.4 0 0 1 1011.799988 436.800012 A 1.7 1.4 0 0 1 1013.499988 438.200012 Z" fill="#7D1416"/>
	<path d="M 990.299988 435.5 A 2 1.3 0 0 1 988.299988 436.8 A 2 1.3 0 0 1 986.299988 435.5 A 2 1.3 0 0 1 988.299988 434.2 A 2 1.3 0 0 1 990.299988 435.5 Z" fill="#7D1416"/>
	<path d="M 975.499988 446.399994 A 0.7 1.2 0 0 1 974.799988 447.599994 A 0.7 1.2 0 0 1 974.099988 446.399994 A 0.7 1.2 0 0 1 974.799988 445.199994 A 0.7 1.2 0 0 1 975.499988 446.399994 Z" fill="#7D1416"/>
	<path d="M 1033.100024 453.5 A 1.2 1.1 0 0 1 1031.900024 454.6 A 1.2 1.1 0 0 1 1030.700024 453.5 A 1.2 1.1 0 0 1 1031.900024 452.4 A 1.2 1.1 0 0 1 1033.100024 453.5 Z" fill="#7D1416"/>
	<path d="M 997.699988 473.399994 A 1.4 1.3 0 0 1 996.299988 474.699994 A 1.4 1.3 0 0 1 994.899988 473.399994 A 1.4 1.3 0 0 1 996.299988 472.099994 A 1.4 1.3 0 0 1 997.699988 473.399994 Z" fill="#7D1416"/>
	<path fill="none" stroke="#7D1416" stroke-width="4" stroke-linecap="round" stroke-linejoin="round" stroke-miterlimit="10" d="&#10;&#9;&#9;M971.8,493c-0.1-2,0.7-3.2,1.6-4.9c1.8-3.2,3.6-6.3,5.7-9.4"/>
	<path fill="none" stroke="#7D1416" stroke-width="4" stroke-linecap="round" stroke-linejoin="round" stroke-miterlimit="10" d="&#10;&#9;&#9;M992.6,480.7c-0.3,0.9-1.7,2.7-2.4,3.8c-2.1,3.2-3.8,7.7-6.6,10.4"/>
	<path fill="none" stroke="#7D1416" stroke-width="4" stroke-linecap="round" stroke-linejoin="round" stroke-miterlimit="10" d="&#10;&#9;&#9;M1000.1,485.1c-0.3,2.3-2.3,5.7-3.8,7.4"/>
	<path fill="none" stroke="#7D1416" stroke-width="4" stroke-linecap="round" stroke-linejoin="round" stroke-miterlimit="10" d="&#10;&#9;&#9;M1001.9,508c1.6-4.4,3.2-9.8,6.7-13.1"/>
	<path fill="none" stroke="#7D1416" stroke-width="4" stroke-linecap="round" stroke-linejoin="round" stroke-miterlimit="10" d="&#10;&#9;&#9;M1012.5,511.8c0.3-1.2,0.8-2.3,1.1-3.4"/>
	<path fill="none" stroke="#7D1416" stroke-width="4" stroke-linecap="round" stroke-linejoin="round" stroke-miterlimit="10" d="&#10;&#9;&#9;M1042.9,494.1c0.2,1.2-1,2.9-1.6,3.9c-2,3.3-4.1,6.9-6.4,10"/>
	<path fill="none" stroke="#7D1416" stroke-width="4" stroke-linecap="round" stroke-linejoin="round" stroke-miterlimit="10" d="&#10;&#9;&#9;M965.1,454.4c-0.5,2-2.3,4.2-3.5,5.9c-2.1,3.2-4,6.6-6.2,9.6"/>
	<path fill="none" stroke="#7D1416" stroke-width="4" stroke-linecap="round" stroke-linejoin="round" stroke-miterlimit="10" d="&#10;&#9;&#9;M967.9,469c-0.5,0.8-1.1,1.9-1.8,2.4"/>
</g>
<g>
	<g>
		
			<path d="M 642.199974 473.899994 A 41.599998 22 0 0 1 600.599976 495.899994 A 41.599998 22 0 0 1 558.999977 473.899994 A 41.599998 22 0 0 1 600.599976 451.899994 A 41.599998 22 0 0 1 642.199974 473.899994 Z" transform="matrix(0.888 0.4599 -0.4599 0.888 285.2042 -223.126)" fill="#FFF6EA"/>
		<path fill="#7D1416" d="M619.3,503c-9.1,0-19.6-2.8-29.6-8c-21.6-11.2-33.7-29.2-27.6-41c3-5.9,10.1-9.1,19.8-9.1&#10;&#9;&#9;&#9;c9.1,0,19.6,2.8,29.6,8c10.1,5.2,18.6,12.3,23.8,19.8c5.5,7.8,6.8,15.4,3.8,21.2C636.1,499.7,629.1,503,619.3,503z M581.9,448.3&#10;&#9;&#9;&#9;c-8.4,0-14.3,2.6-16.8,7.3c-5.1,9.8,6.9,26.4,26.1,36.4c9.5,4.9,19.5,7.6,28,7.6c8.4,0,14.3-2.6,16.8-7.3&#10;&#9;&#9;&#9;c2.4-4.6,1.1-10.9-3.6-17.6c-4.9-7.1-12.9-13.7-22.6-18.7C600.4,451,590.5,448.3,581.9,448.3z"/>
	</g>
	<g>
		<path fill="#FFE586" d="M637.7,492.9c0,0.1-0.1,0.1-0.1,0.2c-5.6,10.8-26.7,10.9-47.1,0.4c-20.4-10.6-32.5-27.9-26.9-38.7&#10;&#9;&#9;&#9;l-8.6,16.5c-5.6,10.8,6.5,28.1,26.9,38.7c19.8,10.3,38.6,10.5,44.8,0.6h0L637.7,492.9C637.7,492.9,638.5,493.5,637.7,492.9z"/>
		<path fill="#7D1416" d="M610,519.5c-8.5,0-18.8-2.9-28.8-8.1c-21.6-11.2-33.7-29.2-27.6-41l8.6-16.5c0.4-0.8,1.5-1.2,2.3-0.7&#10;&#9;&#9;&#9;c0.8,0.4,1.2,1.5,0.7,2.3c-5.1,9.8,6.9,26.4,26.1,36.4c9.5,4.9,19.5,7.6,28,7.6c7.3,0,12.9-2,15.8-5.7l1.2-1.9&#10;&#9;&#9;&#9;c0.4-0.7,1.2-1,2-0.7c0.1,0,0.3,0.1,0.4,0.2c0,0,0.1,0.1,0.1,0.1l0.3,0.3c0.7,0.6,0.9,1.7,0.3,2.4c-0.2,0.3-0.5,0.5-0.8,0.6&#10;&#9;&#9;&#9;c-0.2,0.4-0.5,0.7-0.7,1l-9.7,15.6c0,0,0,0.1-0.1,0.1C624.9,516.7,618.4,519.5,610,519.5z M560.9,463.8l-4.3,8.2&#10;&#9;&#9;&#9;c-5,9.7,6.9,26.4,26.1,36.4c9.6,5,19.3,7.7,27.3,7.7c7.3,0,12.7-2.3,15.3-6.4c0,0,0,0,0-0.1l5.3-8.5c-3.2,1.2-7,1.9-11.3,1.9&#10;&#9;&#9;&#9;c-9.1,0-19.6-2.8-29.6-8C573.6,486.6,562.7,474.4,560.9,463.8z"/>
	</g>
	<g>
		<path fill="#7D1416" d="M586.1,461.6c0,0,4.7,5,8.3,6c3.5,1,4.9-2.1,4.9-2.1s-0.1,2.7,2.3,2.9c2.4,0.2,5.6-1.8,5.6-1.8&#10;&#9;&#9;&#9;s-5.9,5.1-3.9,8.2c2,3,5.4,5.7,5.4,5.7s-9.6-4.6-11.3-3.3c-1.7,1.3-3,3.7-3,3.7s1.9-5.6-0.3-5.4c-2.3,0.2-8.7,3.9-8.7,3.9&#10;&#9;&#9;&#9;s5.6-5.7,5.7-7C591.1,471,589.3,465.7,586.1,461.6z"/>
	</g>
	<g>
		<path d="M 583.2 475.100006 A 1.2 1.2 0 0 1 582 476.300006 A 1.2 1.2 0 0 1 580.8 475.100006 A 1.2 1.2 0 0 1 582 473.900006 A 1.2 1.2 0 0 1 583.2 475.100006 Z" fill="#7D1416"/>
	</g>
	<g>
		<path d="M 605.099976 486.799988 A 2.5 1.9 0 0 1 602.599976 488.699988 A 2.5 1.9 0 0 1 600.099976 486.799988 A 2.5 1.9 0 0 1 602.599976 484.899988 A 2.5 1.9 0 0 1 605.099976 486.799988 Z" fill="#7D1416"/>
	</g>
	<g>
		<path d="M 623.6 488.799988 A 1.6 1.2 0 0 1 622 489.999988 A 1.6 1.2 0 0 1 620.4 488.799988 A 1.6 1.2 0 0 1 622 487.599988 A 1.6 1.2 0 0 1 623.6 488.799988 Z" fill="#7D1416"/>
	</g>
	<g>
		<path d="M 629.700012 480.799988 A 2 1.4 0 0 1 627.700012 482.199988 A 2 1.4 0 0 1 625.700012 480.799988 A 2 1.4 0 0 1 627.700012 479.399988 A 2 1.4 0 0 1 629.700012 480.799988 Z" fill="#7D1416"/>
	</g>
	<g>
		<path d="M 601.8 456.899994 A 1.3 1.1 0 0 1 600.5 457.999994 A 1.3 1.1 0 0 1 599.2 456.899994 A 1.3 1.1 0 0 1 600.5 455.799994 A 1.3 1.1 0 0 1 601.8 456.899994 Z" fill="#7D1416"/>
	</g>
	<g>
		<path d="M 583.199976 454.700012 A 1.6 1.1 0 0 1 581.599976 455.800012 A 1.6 1.1 0 0 1 579.999976 454.700012 A 1.6 1.1 0 0 1 581.599976 453.600012 A 1.6 1.1 0 0 1 583.199976 454.700012 Z" fill="#7D1416"/>
	</g>
	<g>
		<path d="M 571.300012 463.399994 A 0.6 1 0 0 1 570.700012 464.399994 A 0.6 1 0 0 1 570.100012 463.399994 A 0.6 1 0 0 1 570.700012 462.399994 A 0.6 1 0 0 1 571.300012 463.399994 Z" fill="#7D1416"/>
	</g>
	<g>
		<path d="M 617.700012 469.100006 A 1 0.9 0 0 1 616.700012 470.000006 A 1 0.9 0 0 1 615.700012 469.100006 A 1 0.9 0 0 1 616.700012 468.200006 A 1 0.9 0 0 1 617.700012 469.100006 Z" fill="#7D1416"/>
	</g>
	<g>
		<path d="M 589.199976 485.200012 A 1.1 1 0 0 1 588.099976 486.200012 A 1.1 1 0 0 1 586.999976 485.200012 A 1.1 1 0 0 1 588.099976 484.200012 A 1.1 1 0 0 1 589.199976 485.200012 Z" fill="#7D1416"/>
	</g>
	<g>
		<path fill="#7D1416" d="M568.3,502.7c-0.9,0-1.6-0.7-1.7-1.6c-0.1-2,0.6-3.3,1.4-4.5l0.2-0.3c1.6-2.8,3-5.2,4.7-7.7&#10;&#9;&#9;&#9;c0.5-0.8,1.6-1,2.4-0.4c0.8,0.5,1,1.6,0.4,2.4c-1.6,2.3-3,4.7-4.5,7.4l-0.2,0.3c-0.7,1.2-1,1.7-0.9,2.6c0.1,0.9-0.7,1.8-1.6,1.8&#10;&#9;&#9;&#9;C568.4,502.7,568.4,502.7,568.3,502.7z"/>
	</g>
	<g>
		<path fill="#7D1416" d="M577.8,504.2c-0.4,0-0.9-0.2-1.2-0.5c-0.7-0.7-0.7-1.7,0-2.4c1.2-1.2,2.2-3.1,3.2-4.9&#10;&#9;&#9;&#9;c0.6-1.1,1.2-2.2,1.8-3.2c0.2-0.3,0.4-0.6,0.6-0.9c0.4-0.5,1-1.5,1.2-1.8c0.3-0.9,1.3-1.3,2.2-1c0.9,0.3,1.3,1.3,1,2.2&#10;&#9;&#9;&#9;c-0.2,0.7-0.8,1.5-1.6,2.6c-0.2,0.3-0.4,0.6-0.6,0.8c-0.6,0.9-1.1,1.9-1.7,2.9c-1.1,2-2.2,4.1-3.8,5.7&#10;&#9;&#9;&#9;C578.7,504.1,578.2,504.2,577.8,504.2z"/>
	</g>
	<g>
		<path fill="#7D1416" d="M588.1,502.3c-0.4,0-0.8-0.1-1.1-0.4c-0.7-0.6-0.8-1.7-0.2-2.4c1.1-1.3,2.4-3.7,2.6-5&#10;&#9;&#9;&#9;c0.1-0.9,1-1.6,1.9-1.5c0.9,0.1,1.6,1,1.5,1.9c-0.3,2.3-2.2,5.4-3.4,6.8C589,502.1,588.5,502.3,588.1,502.3z"/>
	</g>
	<g>
		<path fill="#7D1416" d="M592.5,514.8c-0.2,0-0.4,0-0.6-0.1c-0.9-0.3-1.3-1.3-1-2.2c0.2-0.5,0.4-1,0.5-1.5c1.2-3.4,2.6-7.2,5.3-9.7&#10;&#9;&#9;&#9;c0.7-0.6,1.8-0.6,2.4,0.1c0.6,0.7,0.6,1.8-0.1,2.4c-2.1,2-3.3,5.3-4.4,8.3c-0.2,0.5-0.4,1-0.6,1.5&#10;&#9;&#9;&#9;C593.9,514.3,593.2,514.8,592.5,514.8z"/>
	</g>
	<g>
		<path fill="#7D1416" d="M601.1,517.8c-0.2,0-0.3,0-0.5-0.1c-0.9-0.3-1.4-1.2-1.1-2.1c0.2-0.6,0.4-1.2,0.6-1.7&#10;&#9;&#9;&#9;c0.1-0.4,0.2-0.7,0.4-1.1c0.3-0.9,1.3-1.4,2.2-1.1c0.9,0.3,1.4,1.3,1.1,2.2c-0.1,0.4-0.3,0.7-0.4,1.1c-0.2,0.5-0.4,1.1-0.5,1.6&#10;&#9;&#9;&#9;C602.5,517.3,601.8,517.8,601.1,517.8z"/>
	</g>
	<g>
		<path fill="#7D1416" d="M619.1,514.8c-0.4,0-0.7-0.1-1-0.3c-0.8-0.6-0.9-1.6-0.4-2.4c1.8-2.4,3.4-5.1,5.1-7.9l0.2-0.4&#10;&#9;&#9;&#9;c0.2-0.4,0.8-1.3,0.8-1.7c-0.1-0.9,0.5-1.8,1.5-1.9c0.9-0.1,1.8,0.5,1.9,1.5c0.2,1.5-0.7,2.9-1.3,3.9l-0.2,0.4&#10;&#9;&#9;&#9;c-1.7,2.9-3.4,5.6-5.2,8.2C620.2,514.5,619.7,514.8,619.1,514.8z"/>
	</g>
	<g>
		<path fill="#7D1416" d="M555.2,484.1c-0.3,0-0.7-0.1-1-0.3c-0.8-0.6-0.9-1.6-0.4-2.4c1.1-1.5,2.1-3.2,3.1-4.8&#10;&#9;&#9;&#9;c0.6-1,1.2-1.9,1.8-2.9c0.2-0.4,0.5-0.7,0.8-1.1c0.7-1,1.5-2.2,1.8-3.1c0.2-0.9,1.1-1.5,2.1-1.3c0.9,0.2,1.5,1.1,1.3,2.1&#10;&#9;&#9;&#9;c-0.4,1.6-1.4,3-2.3,4.2c-0.3,0.4-0.5,0.7-0.7,1c-0.6,0.9-1.2,1.9-1.8,2.8c-1,1.7-2.1,3.4-3.3,5&#10;&#9;&#9;&#9;C556.2,483.9,555.7,484.1,555.2,484.1z"/>
	</g>
	<g>
		<path fill="#7D1416" d="M563.7,485.3c-0.5,0-1-0.2-1.3-0.6c-0.6-0.7-0.5-1.8,0.2-2.4c0.4-0.3,0.9-1.2,1.1-1.5&#10;&#9;&#9;&#9;c0.5-0.8,1.5-1.1,2.3-0.6c0.8,0.5,1.1,1.5,0.6,2.3c-0.5,0.9-1.1,1.8-1.8,2.4C564.5,485.1,564.1,485.3,563.7,485.3z"/>
	</g>
</g>
<path fill="#FFF6EA" stroke="#7D1416" stroke-width="4" stroke-linecap="round" stroke-linejoin="round" stroke-miterlimit="10" d="&#10;&#9;M558.4,534.2c0,0-1.2-10.7,7.5-11c0,0-0.1-19,21.1-22.6c0,0,5.8-19.7,34.6-23.7c0,0,0-5.8,9.4-8.7s13.4,0.9,13.4,0.9s6-20.7,32-18.1&#10;&#9;s31.7,17.2,31.7,17.2s4-9.4,13.6-5.6s11.3,11.8,11.3,11.8s12.3-11.9,30.8-2.7s20.9,24.4,20.9,24.4s2.7-3.4,15.6,0&#10;&#9;s14.5,19.3,14.5,19.3s7.6-1.1,13.3,10.2c0,0-2.5,43.7-121.8,46.5C580.7,575.1,556.8,542.2,558.4,534.2z"/>
<g>
	<g>
		<g>
			
				<path fill="#96CD7E" stroke="#7D1416" stroke-width="2" stroke-linecap="round" stroke-linejoin="round" stroke-miterlimit="10" d="&#10;&#9;&#9;&#9;&#9;M728,498.6c0,0-3.5-8.9,0.8-13.6c4.2-4.7,12.4-10.7,11.7-13.1c-0.7-2.4-3.8-0.8-2.8-1.6c1-0.9,4.3-7.8,2.8-9&#10;&#9;&#9;&#9;&#9;c-1.5-1.2-4.2,2-3.9,1c0.3-1,1.9-4.1,0.4-4.6c-1.5-0.5-2,1.8-2.2,0.9c-0.2-0.8-0.8-2.1-1.7-1.4c-0.9,0.7-1.9,1.3-2.7,7.4&#10;&#9;&#9;&#9;&#9;c-0.9,6.1,0.1,5.3-1.7,7.6c-1.9,2.3-1.4,4.6-2,3.3s-0.1-5,1.2-7.8c1.3-2.8,2.5-8.8,1.4-11.9c-1.1-3.2-4-3.5-4.6-2.1&#10;&#9;&#9;&#9;&#9;c-0.6,1.3-0.3,1.3-1.5,1.7c-1.2,0.4-1.4,1-1.7,2.1c-0.3,1.1-1.3,6.9-2.6,5.5c-1.3-1.4,2-9.1,1.3-9.6c-0.7-0.5-1.3,0.1-1.5-0.9&#10;&#9;&#9;&#9;&#9;c-0.2-1.1-0.5-2.5-2.1-2.2c-1.6,0.2-2.6,0.1-2.8,1.5c-0.2,1.4-1.2,4-1.6,2.7c-0.4-1.3-1.1-6.6-2.5-6.1s-1.9,1-2.4,0&#10;&#9;&#9;&#9;&#9;c-0.5-1-3.2-5.2-4.8-3.6c-1.6,1.6-0.5,3.1-1.5,3.6c-1,0.5-0.8,0.3,0,1.6c0.8,1.4,3.9,5,3,4.6c-0.9-0.4-5.5-5.6-5.8-3.7&#10;&#9;&#9;&#9;&#9;c-0.4,1.9-0.2,4.5,1.1,5.5c1.4,1,8.5,5.1,6.8,5.6c-1.7,0.4-12.1-5-12.3-3.9c-0.2,1.1,8.6,5.7,12,8.1c3.4,2.4,11.1,6.5,9.6,8.2&#10;&#9;&#9;&#9;&#9;c-1.5,1.7-2.7,1.9-6.7-1c-4-2.9-10.1-7-10.6-6.1c-0.5,0.9-0.3,2.2-1.5,1.2c-1.2-1-4.2-3.5-5-2.4c-0.8,1.2-4.4,0.1-4.1,1.1&#10;&#9;&#9;&#9;&#9;c0.4,1,1.4,4.5,2.8,6.1c1.3,1.6,3.6,1.4,5,2.6c1.4,1.1-1.2,1.9,0.6,3c1.8,1.1,5.1-0.1,6.2,1c1.1,1.1,0.8,2.8,2.7,2.9&#10;&#9;&#9;&#9;&#9;c1.9,0.1,8.8-3.4,13-0.5c4.2,2.9,8.1,9.5,6.4,17.1C722.5,506.8,728.9,504.4,728,498.6z"/>
		</g>
	</g>
	<g>
		<g>
			
				<path fill="#96CD7E" stroke="#7D1416" stroke-width="3" stroke-linecap="round" stroke-linejoin="round" stroke-miterlimit="10" d="&#10;&#9;&#9;&#9;&#9;M728,498.6c0,0-3.5-8.9,0.8-13.6c4.2-4.7,12.4-10.7,11.7-13.1c-0.7-2.4-3.8-0.8-2.8-1.6c1-0.9,4.3-7.8,2.8-9&#10;&#9;&#9;&#9;&#9;c-1.5-1.2-4.2,2-3.9,1c0.3-1,1.9-4.1,0.4-4.6c-1.5-0.5-2,1.8-2.2,0.9c-0.2-0.8-0.8-2.1-1.7-1.4c-0.9,0.7-1.9,1.3-2.7,7.4&#10;&#9;&#9;&#9;&#9;c-0.9,6.1,0.1,5.3-1.7,7.6c-1.9,2.3-1.4,4.6-2,3.3s-0.1-5,1.2-7.8c1.3-2.8,2.5-8.8,1.4-11.9c-1.1-3.2-4-3.5-4.6-2.1&#10;&#9;&#9;&#9;&#9;c-0.6,1.3-0.3,1.3-1.5,1.7c-1.2,0.4-1.4,1-1.7,2.1c-0.3,1.1-1.3,6.9-2.6,5.5c-1.3-1.4,2-9.1,1.3-9.6c-0.7-0.5-1.3,0.1-1.5-0.9&#10;&#9;&#9;&#9;&#9;c-0.2-1.1-0.5-2.5-2.1-2.2c-1.6,0.2-2.6,0.1-2.8,1.5c-0.2,1.4-1.2,4-1.6,2.7c-0.4-1.3-1.1-6.6-2.5-6.1s-1.9,1-2.4,0&#10;&#9;&#9;&#9;&#9;c-0.5-1-3.2-5.2-4.8-3.6c-1.6,1.6-0.5,3.1-1.5,3.6c-1,0.5-0.8,0.3,0,1.6c0.8,1.4,3.9,5,3,4.6c-0.9-0.4-5.5-5.6-5.8-3.7&#10;&#9;&#9;&#9;&#9;c-0.4,1.9-0.2,4.5,1.1,5.5c1.4,1,8.5,5.1,6.8,5.6c-1.7,0.4-12.1-5-12.3-3.9c-0.2,1.1,8.6,5.7,12,8.1c3.4,2.4,11.1,6.5,9.6,8.2&#10;&#9;&#9;&#9;&#9;c-1.5,1.7-2.7,1.9-6.7-1c-4-2.9-10.1-7-10.6-6.1c-0.5,0.9-0.3,2.2-1.5,1.2c-1.2-1-4.2-3.5-5-2.4c-0.8,1.2-4.4,0.1-4.1,1.1&#10;&#9;&#9;&#9;&#9;c0.4,1,1.4,4.5,2.8,6.1c1.3,1.6,3.6,1.4,5,2.6c1.4,1.1-1.2,1.9,0.6,3c1.8,1.1,5.1-0.1,6.2,1c1.1,1.1,0.8,2.8,2.7,2.9&#10;&#9;&#9;&#9;&#9;c1.9,0.1,8.8-3.4,13-0.5c4.2,2.9,8.1,9.5,6.4,17.1C722.5,506.8,728.9,504.4,728,498.6z"/>
		</g>
	</g>
</g>
<g>
	<g>
		
			<path d="M 786.000011 486.399994 A 40.799999 21.5 0 0 1 745.200012 507.899994 A 40.799999 21.5 0 0 1 704.400013 486.399994 A 40.799999 21.5 0 0 1 745.200012 464.899994 A 40.799999 21.5 0 0 1 786.000011 486.399994 Z" transform="matrix(0.8094 -0.5873 0.5873 0.8094 -143.636 530.3573)" fill="#FFF6EA"/>
		<path fill="#7D1416" d="M778.8,482.8c-4,8-11.1,15.9-20,22.4c-19.3,14-40.3,16.7-48,6.2c-3.8-5.2-3.5-12.8,0.7-21.3&#10;&#9;&#9;&#9;c4-8,11.1-15.9,20-22.4c9-6.6,18.9-10.9,27.8-12.1c9.3-1.3,16.4,0.8,20.2,6C783.3,466.8,783.1,474.3,778.8,482.8z M714.5,491.5&#10;&#9;&#9;&#9;c-3.7,7.3-4,13.7-1,17.9c6.3,8.7,26.1,5.5,43.3-6.9c8.5-6.2,15.2-13.7,19-21.2c3.7-7.3,4-13.7,1-17.9c-3-4.1-9-5.8-17-4.6&#10;&#9;&#9;&#9;c-8.4,1.2-17.7,5.3-26.3,11.5C725,476.5,718.3,484.1,714.5,491.5z"/>
	</g>
	<g>
		<path fill="#FFE586" d="M778,462.3c0,0.1,0.1,0.1,0.1,0.2c7,9.6-2.1,28.1-20.4,41.4c-18.2,13.2-38.7,16.1-45.6,6.5l10.6,14.8&#10;&#9;&#9;&#9;c7,9.6,27.4,6.7,45.6-6.5c17.7-12.8,26.2-29.1,20.3-38.9l0,0L778,462.3C778,462.3,778.9,461.9,778,462.3z"/>
		<path fill="#7D1416" d="M789.2,498.3c-3.7,7.5-10.8,15.2-19.7,21.7c-19.3,14-40.3,16.7-48,6.2l-10.7-14.8&#10;&#9;&#9;&#9;c-0.5-0.7-0.4-1.8,0.4-2.3c0.7-0.5,1.8-0.4,2.3,0.4c0,0,0,0,0,0v0c6.3,8.7,26.1,5.5,43.3-6.9c8.5-6.2,15.2-13.7,19-21.2&#10;&#9;&#9;&#9;c3.2-6.4,3.9-12.2,2-16.3l-1.1-1.9c-0.4-0.6-0.3-1.5,0.2-2c0.1-0.1,0.2-0.2,0.4-0.3c0,0,0.1-0.1,0.1-0.1l0.4-0.2&#10;&#9;&#9;&#9;c0.8-0.4,1.8,0,2.2,0.8c0.1,0.3,0.2,0.6,0.1,1c0.2,0.4,0.4,0.7,0.6,1.1l9.4,15.3c0,0,0,0.1,0.1,0.1&#10;&#9;&#9;&#9;C793.2,484,792.9,490.9,789.2,498.3z M718.9,516.8l5.3,7.4c6.3,8.7,26.1,5.5,43.3-6.9c8.6-6.2,15.2-13.5,18.7-20.5&#10;&#9;&#9;&#9;c3.2-6.4,3.6-12.1,1.1-16.3c0,0,0,0,0-0.1l-5.2-8.4c-0.3,3.3-1.4,7-3.3,10.7c-4,8-11.1,15.9-20,22.4&#10;&#9;&#9;&#9;C744.4,515.7,728.9,519.8,718.9,516.8z"/>
	</g>
	<g>
		<path fill="#7D1416" d="M728,493.8c0,0,6.5-1.9,8.9-4.6c2.4-2.7,0.3-5.3,0.3-5.3s2.3,1.3,3.5-0.7c1.2-2,0.9-5.7,0.9-5.7&#10;&#9;&#9;&#9;s1.9,7.4,5.4,7c3.5-0.5,7.3-2.2,7.3-2.2s-8.2,6.3-7.9,8.4c0.4,2.1,1.9,4.2,1.9,4.2s-4.1-4.2-4.9-2.1c-0.8,2.1-0.4,9.3-0.4,9.3&#10;&#9;&#9;&#9;s-2.5-7.4-3.6-8C738.4,493.5,733,492.8,728,493.8z"/>
	</g>
	<g>
		
			<path d="M 739.2 503.299988 A 1.2 1.2 0 0 1 738 504.499988 A 1.2 1.2 0 0 1 736.8 503.299988 A 1.2 1.2 0 0 1 738 502.099988 A 1.2 1.2 0 0 1 739.2 503.299988 Z" transform="matrix(0.4487 -0.8937 0.8937 0.4487 -42.9024 937.006)" fill="#7D1416"/>
	</g>
	<g>
		
			<path d="M 759.800025 490.399994 A 2.4 1.9 0 0 1 757.400024 492.299994 A 2.4 1.9 0 0 1 755.000024 490.399994 A 2.4 1.9 0 0 1 757.400024 488.499994 A 2.4 1.9 0 0 1 759.800025 490.399994 Z" transform="matrix(0.4487 -0.8937 0.8937 0.4487 -20.7203 947.2175)" fill="#7D1416"/>
	</g>
	<g>
		
			<path d="M 769 474.299988 A 1.5 1.2 0 0 1 767.5 475.499988 A 1.5 1.2 0 0 1 766 474.299988 A 1.5 1.2 0 0 1 767.5 473.099988 A 1.5 1.2 0 0 1 769 474.299988 Z" transform="matrix(0.4487 -0.8937 0.8937 0.4487 -0.7231 947.4387)" fill="#7D1416"/>
	</g>
	<g>
		
			<path d="M 765.099976 465.799988 A 2 1.4 0 0 1 763.099976 467.199988 A 2 1.4 0 0 1 761.099976 465.799988 A 2 1.4 0 0 1 763.099976 464.399988 A 2 1.4 0 0 1 765.099976 465.799988 Z" transform="matrix(0.4487 -0.8937 0.8937 0.4487 4.4404 938.7438)" fill="#7D1416"/>
	</g>
	<g>
		
			<path d="M 731.500012 479.100006 A 1.3 1.1 0 0 1 730.200012 480.200006 A 1.3 1.1 0 0 1 728.900012 479.100006 A 1.3 1.1 0 0 1 730.200012 478.000006 A 1.3 1.1 0 0 1 731.500012 479.100006 Z" transform="matrix(0.4486 -0.8938 0.8938 0.4486 -25.5 916.7922)" fill="#7D1416"/>
	</g>
	<g>
		
			<path d="M 721.500024 494.700012 A 1.6 1.1 0 0 1 719.900024 495.800012 A 1.6 1.1 0 0 1 718.300024 494.700012 A 1.6 1.1 0 0 1 719.900024 493.600012 A 1.6 1.1 0 0 1 721.500024 494.700012 Z" transform="matrix(0.4486 -0.8937 0.8937 0.4486 -45.106 916.2197)" fill="#7D1416"/>
	</g>
	<g>
		
			<path d="M 723.500024 508.100006 A 0.6 0.9 0 0 1 722.900024 509.000006 A 0.6 0.9 0 0 1 722.300024 508.100006 A 0.6 0.9 0 0 1 722.900024 507.200006 A 0.6 0.9 0 0 1 723.500024 508.100006 Z" transform="matrix(0.4486 -0.8938 0.8938 0.4486 -55.4626 926.2209)" fill="#7D1416"/>
	</g>
	<g>
		
			<path d="M 748.9 470.299988 A 0.9 0.8 0 0 1 748 471.099988 A 0.9 0.8 0 0 1 747.1 470.299988 A 0.9 0.8 0 0 1 748 469.499988 A 0.9 0.8 0 0 1 748.9 470.299988 Z" transform="matrix(0.4485 -0.8938 0.8938 0.4485 -7.8063 928.0068)" fill="#7D1416"/>
	</g>
	<g>
		
			<path d="M 750.6 502.399994 A 1.1 1 0 0 1 749.5 503.399994 A 1.1 1 0 0 1 748.4 502.399994 A 1.1 1 0 0 1 749.5 501.399994 A 1.1 1 0 0 1 750.6 502.399994 Z" transform="matrix(0.449 -0.8935 0.8935 0.449 -35.9136 946.5684)" fill="#7D1416"/>
	</g>
	<g>
		<path fill="#7D1416" d="M756.1,527.3c-0.4,0.8-1.3,1.1-2.1,0.8c-1.8-0.8-2.6-2-3.4-3.2l-0.2-0.3c-1.7-2.6-3.2-4.9-4.6-7.4&#10;&#9;&#9;&#9;c-0.4-0.8-0.2-1.8,0.6-2.3c0.8-0.4,1.8-0.2,2.3,0.7c1.3,2.4,2.8,4.7,4.5,7.2l0.2,0.3c0.7,1.1,1.1,1.6,1.9,1.9&#10;&#9;&#9;&#9;C756.1,525.4,756.5,526.4,756.1,527.3C756.2,527.3,756.1,527.3,756.1,527.3z"/>
	</g>
	<g>
		<path fill="#7D1416" d="M761.7,519.7c-0.2,0.4-0.5,0.7-1,0.8c-0.9,0.3-1.8-0.2-2.1-1c-0.5-1.6-1.7-3.3-2.9-5c-0.7-1-1.4-2-2-3&#10;&#9;&#9;&#9;c-0.1-0.3-0.3-0.6-0.5-0.9c-0.3-0.5-0.8-1.6-1.1-1.8c-0.6-0.7-0.6-1.7,0.1-2.4c0.7-0.6,1.7-0.6,2.3,0c0.5,0.5,0.9,1.3,1.6,2.5&#10;&#9;&#9;&#9;c0.2,0.3,0.3,0.6,0.5,0.8c0.5,0.9,1.1,1.8,1.8,2.8c1.3,1.9,2.6,3.8,3.3,5.8C761.9,518.9,761.9,519.4,761.7,519.7z"/>
	</g>
	<g>
		<path fill="#7D1416" d="M764.5,509.9c-0.2,0.3-0.5,0.6-0.9,0.8c-0.9,0.4-1.8-0.1-2.2-0.9c-0.6-1.5-2.1-3.8-3.2-4.5&#10;&#9;&#9;&#9;c-0.8-0.5-1-1.6-0.4-2.3c0.5-0.8,1.6-1,2.3-0.4c1.9,1.3,3.7,4.3,4.5,6C764.7,509,764.7,509.5,764.5,509.9z"/>
	</g>
	<g>
		<path fill="#7D1416" d="M777.4,511.5c-0.1,0.2-0.2,0.3-0.4,0.5c-0.7,0.6-1.7,0.6-2.4-0.1c-0.3-0.4-0.7-0.7-1.1-1.1&#10;&#9;&#9;&#9;c-2.4-2.5-5.1-5.4-6.2-8.9c-0.3-0.9,0.3-1.8,1.1-2.1c0.9-0.3,1.8,0.3,2.1,1.1c0.8,2.7,3.2,5.3,5.4,7.5c0.4,0.4,0.7,0.8,1.1,1.2&#10;&#9;&#9;&#9;C777.6,510.1,777.7,510.9,777.4,511.5z"/>
	</g>
	<g>
		<path fill="#7D1416" d="M783.8,505.3c-0.1,0.1-0.2,0.3-0.3,0.4c-0.6,0.7-1.7,0.7-2.4,0.1c-0.4-0.4-0.9-0.8-1.3-1.3&#10;&#9;&#9;&#9;c-0.3-0.3-0.5-0.5-0.8-0.8c-0.7-0.6-0.7-1.7,0-2.4c0.6-0.7,1.7-0.7,2.4,0c0.3,0.3,0.5,0.6,0.8,0.8c0.4,0.4,0.8,0.8,1.2,1.2&#10;&#9;&#9;&#9;C784,503.9,784.1,504.7,783.8,505.3z"/>
	</g>
	<g>
		<path fill="#7D1416" d="M789,488.2c-0.2,0.3-0.4,0.6-0.7,0.7c-0.8,0.4-1.8,0.1-2.2-0.7c-1.3-2.6-3.1-5.3-4.7-7.9l-0.2-0.4&#10;&#9;&#9;&#9;c-0.2-0.4-0.8-1.3-1.1-1.5c-0.9-0.3-1.3-1.2-1-2.1c0.3-0.9,1.3-1.3,2.1-1c1.4,0.5,2.2,1.8,2.8,2.9l0.2,0.3&#10;&#9;&#9;&#9;c1.7,2.6,3.4,5.4,4.9,8.2C789.3,487.2,789.3,487.8,789,488.2z"/>
	</g>
	<g>
		<path fill="#7D1416" d="M734.1,530.7c-0.2,0.3-0.4,0.6-0.7,0.7c-0.8,0.4-1.8,0.1-2.3-0.7c-0.8-1.6-1.9-3.3-2.8-4.8&#10;&#9;&#9;&#9;c-0.6-0.9-1.2-1.9-1.7-2.8c-0.2-0.4-0.4-0.8-0.7-1.2c-0.6-1.1-1.2-2.3-1.9-2.9c-0.7-0.6-0.8-1.7-0.2-2.4c0.6-0.7,1.7-0.8,2.4-0.2&#10;&#9;&#9;&#9;c1.2,1,2,2.5,2.7,3.9c0.2,0.4,0.4,0.7,0.6,1.1c0.5,0.9,1.1,1.9,1.7,2.8c1,1.6,2,3.3,3,5.1C734.4,529.7,734.3,530.2,734.1,530.7z"/>
	</g>
	<g>
		<path fill="#7D1416" d="M738.9,523.7c-0.2,0.4-0.6,0.7-1.1,0.9c-0.9,0.2-1.8-0.3-2-1.2c-0.1-0.5-0.6-1.3-0.9-1.6&#10;&#9;&#9;&#9;c-0.5-0.8-0.3-1.8,0.5-2.3c0.8-0.5,1.8-0.3,2.3,0.5c0.5,0.8,1.1,1.7,1.3,2.6C739.1,523,739.1,523.4,738.9,523.7z"/>
	</g>
</g>
<path fill="#FFF6EA" d="M678.7,512.4c0,0,3.8-10,13.9-6.4c10.1,3.6,15.5,5.9,21,3.4s14.1-2.4,20.5,3.9c6.4,6.3,19.2,10.1,24.6,6.2&#10;&#9;s13.2-2.7,13.8-2.5c0.7,0.1,6.4,12.1,3,15.5c-3.4,3.4-15.5,12.5-28.3,16.1c-12.8,3.6-31.2,0.7-37.3,0S678.7,512.4,678.7,512.4z"/>
<g>
	<g>
		
			<path fill="#96CD7E" stroke="#7D1416" stroke-width="2" stroke-linecap="round" stroke-linejoin="round" stroke-miterlimit="10" d="&#10;&#9;&#9;&#9;M687.8,496.9c0,0-9.9-17.8-18.5-16.4c-8.7,1.4-7.2,0.1-11.4-3c-4.3-3.1-8.2-4.8-9.2-1.5c-1.1,3.3-3.6,3.5-6.9,3.4&#10;&#9;&#9;&#9;c-3.3-0.1-7.2,5.1-4.8,8.4c2.4,3.3,2.5,5.3-0.4,7.4c-3,2.1-2.4,6.7,2.5,8.7c4.9,2,2.7,3.2,4.9,6.7c2.2,3.4,5.4,5.1,10.5,0.3&#10;&#9;&#9;&#9;c5.1-4.8,3.5-5,11.2-2c7.7,2.9,8.1,0.1,10.6-4.3c2.5-4.5,6.8-3.3,10.1-3.4C689.5,500.7,690.3,500.8,687.8,496.9z"/>
	</g>
	<g>
		
			<path fill="#96CD7E" stroke="#7D1416" stroke-width="3" stroke-linecap="round" stroke-linejoin="round" stroke-miterlimit="10" d="&#10;&#9;&#9;&#9;M687.8,496.9c0,0-9.9-17.8-18.5-16.4c-8.7,1.4-7.2,0.1-11.4-3c-4.3-3.1-8.2-4.8-9.2-1.5c-1.1,3.3-3.6,3.5-6.9,3.4&#10;&#9;&#9;&#9;c-3.3-0.1-7.2,5.1-4.8,8.4c2.4,3.3,2.5,5.3-0.4,7.4c-3,2.1-2.4,6.7,2.5,8.7c4.9,2,2.7,3.2,4.9,6.7c2.2,3.4,5.4,5.1,10.5,0.3&#10;&#9;&#9;&#9;c5.1-4.8,3.5-5,11.2-2c7.7,2.9,8.1,0.1,10.6-4.3c2.5-4.5,6.8-3.3,10.1-3.4C689.5,500.7,690.3,500.8,687.8,496.9z"/>
	</g>
</g>
<path d="M 638.000012 532.799988 A 6.3 4.5 0 0 1 631.700012 537.299988 A 6.3 4.5 0 0 1 625.400012 532.799988 A 6.3 4.5 0 0 1 631.700012 528.299988 A 6.3 4.5 0 0 1 638.000012 532.799988 Z" fill="#FFF6EA" stroke="#7D1416" stroke-width="4" stroke-linecap="round" stroke-linejoin="round" stroke-miterlimit="10"/>
<path d="M 702.999975 532.799988 A 10.4 7.7 0 0 1 692.599976 540.499988 A 10.4 7.7 0 0 1 682.199976 532.799988 A 10.4 7.7 0 0 1 692.599976 525.099988 A 10.4 7.7 0 0 1 702.999975 532.799988 Z" fill="#FFF6EA" stroke="#7D1416" stroke-width="4" stroke-linecap="round" stroke-linejoin="round" stroke-miterlimit="10"/>
<path d="M 773.400024 529.799988 A 5.5 3 0 0 1 767.900024 532.799988 A 5.5 3 0 0 1 762.400024 529.799988 A 5.5 3 0 0 1 767.900024 526.799988 A 5.5 3 0 0 1 773.400024 529.799988 Z" fill="#FFF6EA" stroke="#7D1416" stroke-width="4" stroke-linecap="round" stroke-linejoin="round" stroke-miterlimit="10"/>
<path d="M 655.100024 493.899994 A 4.7 3.9 0 0 1 650.400024 497.799994 A 4.7 3.9 0 0 1 645.700025 493.899994 A 4.7 3.9 0 0 1 650.400024 489.999994 A 4.7 3.9 0 0 1 655.100024 493.899994 Z" fill="#FFF6EA" stroke="#7D1416" stroke-width="4" stroke-linecap="round" stroke-linejoin="round" stroke-miterlimit="10"/>
<path d="M 592.099988 534.700012 A 7.3 4.6 0 0 1 584.799988 539.300012 A 7.3 4.6 0 0 1 577.499988 534.700012 A 7.3 4.6 0 0 1 584.799988 530.100012 A 7.3 4.6 0 0 1 592.099988 534.700012 Z" fill="#FFF6EA" stroke="#7D1416" stroke-width="4" stroke-linecap="round" stroke-linejoin="round" stroke-miterlimit="10"/>
<path d="M 729.499988 557.400024 A 3.7 3.8 0 0 1 725.799988 561.200024 A 3.7 3.8 0 0 1 722.099988 557.400024 A 3.7 3.8 0 0 1 725.799988 553.600024 A 3.7 3.8 0 0 1 729.499988 557.400024 Z" fill="#FFF6EA" stroke="#7D1416" stroke-width="4" stroke-linecap="round" stroke-linejoin="round" stroke-miterlimit="10"/>
<path fill="#96CD7E" stroke="#7D1416" stroke-width="4" stroke-linecap="round" stroke-linejoin="round" stroke-miterlimit="10" d="&#10;&#9;M599.2,496.6c0,0,2.2-7.7,13-9l14.2,10.2c0,0,0.2,10.2-8.5,12C617.9,509.8,603.9,503.5,599.2,496.6z"/>
<path fill="#96CD7E" stroke="#7D1416" stroke-width="4" stroke-linecap="round" stroke-linejoin="round" stroke-miterlimit="10" d="&#10;&#9;M795.1,502.8c-0.3,0.7,8.2,3.2,8.2,3.2s15.8-7.5,20.1-10.8s-2.1-14.2-12.1-17.5C811.3,477.8,800.8,487.3,795.1,502.8z"/>
<path fill="#96CD7E" stroke="#7D1416" stroke-width="4" stroke-linecap="round" stroke-linejoin="round" stroke-miterlimit="10" d="&#10;&#9;M663.7,517.9l8.5,5.7c0,0-9.8,13-19.2,18.3c0,0-7.8-3.7-9.5-13.7C643.4,528.2,661.4,520.9,663.7,517.9z"/>
<path fill="#96CD7E" stroke="#7D1416" stroke-width="4" stroke-linecap="round" stroke-linejoin="round" stroke-miterlimit="10" d="&#10;&#9;M657.8,473.7l12.9-3c0,0-0.5-8.2-3.8-11.2s-10,0-10,0S653.7,465.7,657.8,473.7z"/>
<path fill="#96CD7E" stroke="#7D1416" stroke-width="4" stroke-linecap="round" stroke-linejoin="round" stroke-miterlimit="10" d="&#10;&#9;M756.1,517.7l4,6.4c0,0,13.8,3.6,17,2.9s9-12.5-2.1-18.4L756.1,517.7z"/>
<path fill="#96CD7E" stroke="#7D1416" stroke-width="4" stroke-linecap="round" stroke-linejoin="round" stroke-miterlimit="10" d="&#10;&#9;M597.7,543.4h15.1c0,0,4.6,11,4.9,11.8s-3,5-10,3.8S597.7,543.4,597.7,543.4z"/>
<path fill="#96CD7E" stroke="#7D1416" stroke-width="4" stroke-linecap="round" stroke-linejoin="round" stroke-miterlimit="10" d="&#10;&#9;M661.9,559.2c0,0,3.5-6,8.8-5.7s11.8,5.5,12.2,5.7s-4.9,7.3-4.9,7.3S666.4,565.4,661.9,559.2z"/>
<path fill="#96CD7E" stroke="#7D1416" stroke-width="4" stroke-linecap="round" stroke-linejoin="round" stroke-miterlimit="10" d="&#10;&#9;M758.4,552.6c0,0,5.1-7.5,9.4-6.2s7.6,4.9,7.6,4.9l-6.2,6.9C769.2,558.2,759.9,558,758.4,552.6z"/>
<g>
	<g>
		
			<path fill="#96CD7E" stroke="#7D1416" stroke-width="2" stroke-linecap="round" stroke-linejoin="round" stroke-miterlimit="10" d="&#10;&#9;&#9;&#9;M783.7,528.4c0,0-0.6,0.3,2,4.5s4.2,7.6,5.9,13c1.7,5.3,3,6.2,4.8,6.1c1.8-0.1,2.1,2.2,3,4.6c0.9,2.4,2.6,7.1,3.5,5.6&#10;&#9;&#9;&#9;c0.9-1.4,1.4-2.9,2.5-2.4c1.1,0.5,1.8,1.1,2.7,0.8s1.4-0.3,2.2-0.2c0.9,0.1,3.1,2,2-1.7c-1.1-3.7-12.3-16-11.4-16.5&#10;&#9;&#9;&#9;c1-0.5,5,1.2,6.9,3.8c2,2.5,4.9,9.3,6.8,7.9c2-1.4,2-1.4,2.6-1.2c0.5,0.1,1.6-1-0.5-3.1c-2.1-2.1-2.8-4.9-1.7-4.7&#10;&#9;&#9;&#9;c1.2,0.2,7.2,3.6,9.8,4.5c2.7,0.9,4.7,2.2,4.2,0.5c-0.4-1.7-3.3-3.9-2.3-4.1c1-0.2,9.2,2.8,9.1,0.2c-0.1-2.6-3.1-4.5-6.9-4.9&#10;&#9;&#9;&#9;c-3.7-0.4-4.6-1-3.1-2c1.5-0.9,5.9-2.1,2.5-2.8c-3.4-0.7-6.9,0.6-6.9-0.9c0-1.5,4-2,2.3-3.2c-1.7-1.2-4.5-0.7-4.8-2.1&#10;&#9;&#9;&#9;c-0.3-1.3,0.9-4.1-1.2-3.3c-2.1,0.8-3.5,1.4-3.8,0.6c-0.3-0.8,1.5-2.6-0.9-2.3s-17.2,5.2-18,3.5c-0.8-1.7,2.7-4.2,8.2-6&#10;&#9;&#9;&#9;c5.4-1.8,8.8-2.3,8.4-3.9c-0.4-1.5-1.9-1.3-1.8-2.6c0-1.3,6.8-7.8,5-8c-1.8-0.2-4.5,1.2-4.9,0.3c-0.4-0.9-2.2-1.5-3.5-1.1&#10;&#9;&#9;&#9;c-1.4,0.4-2.8,2.9-4,2.1c-1.1-0.8-1.2-2.7-2.9-2.3s-4.7,3.7-7.9,10.1C788.6,523.5,783.8,526.6,783.7,528.4z"/>
	</g>
	<g>
		
			<path fill="#96CD7E" stroke="#7D1416" stroke-width="3" stroke-linecap="round" stroke-linejoin="round" stroke-miterlimit="10" d="&#10;&#9;&#9;&#9;M783.7,528.3c0,0-0.6,0.3,2,4.5c2.6,4.2,4.2,7.6,5.8,13c1.7,5.3,3,6.2,4.8,6.1c1.8-0.1,2.1,2.2,3,4.7c0.9,2.4,2.6,7.1,3.5,5.6&#10;&#9;&#9;&#9;c0.9-1.4,1.4-2.9,2.5-2.4c1.1,0.5,1.8,1.1,2.7,0.8c0.9-0.3,1.4-0.3,2.2-0.2c0.9,0.1,3.1,2,2-1.7c-1.1-3.7-12.3-16.1-11.3-16.6&#10;&#9;&#9;&#9;c1-0.5,4.9,1.3,6.9,3.8c2,2.5,4.8,9.3,6.8,7.9c2-1.4,2-1.3,2.6-1.2c0.5,0.2,1.7-1-0.5-3.1c-2.1-2.1-2.8-4.9-1.6-4.7&#10;&#9;&#9;&#9;c1.2,0.2,7.2,3.6,9.8,4.6c2.7,1,4.7,2.2,4.2,0.5c-0.4-1.7-3.3-3.9-2.3-4.1c1-0.2,9.2,2.8,9.1,0.2c-0.1-2.6-3.1-4.5-6.8-4.9&#10;&#9;&#9;&#9;c-3.7-0.4-4.6-1-3.1-2c1.5-0.9,5.9-2.1,2.5-2.8c-3.4-0.8-6.9,0.5-6.9-0.9c0-1.5,4-2,2.3-3.2c-1.7-1.3-4.5-0.8-4.8-2.1&#10;&#9;&#9;&#9;c-0.3-1.3,0.9-4.1-1.2-3.3c-2.1,0.8-3.5,1.4-3.8,0.6c-0.3-0.8,1.5-2.6-0.9-2.3c-2.4,0.2-17.2,5.1-18,3.4c-0.8-1.7,2.7-4.2,8.2-6&#10;&#9;&#9;&#9;c5.5-1.8,8.8-2.3,8.4-3.8c-0.4-1.5-1.9-1.3-1.8-2.6c0-1.3,6.8-7.8,5-8c-1.8-0.2-4.5,1.2-4.9,0.3c-0.4-0.9-2.2-1.6-3.5-1.1&#10;&#9;&#9;&#9;c-1.4,0.4-2.8,2.9-4,2.1c-1.1-0.8-1.2-2.7-2.9-2.3c-1.7,0.4-4.7,3.7-7.9,10.1C788.6,523.4,783.8,526.5,783.7,528.3z"/>
	</g>
</g>
<g>
	<g>
		
			<path fill="#96CD7E" stroke="#7D1416" stroke-width="2" stroke-linecap="round" stroke-linejoin="round" stroke-miterlimit="10" d="&#10;&#9;&#9;&#9;M608.6,525.2c0,0,4.2,0.2,1.8-4.8c-2.3-5-4.8-8.5-6.4-14.5c-1.5-6-1.5-9.3-2.6-9.8c-1.1-0.5-0.6,6.8-2.4,5.1&#10;&#9;&#9;&#9;c-1.8-1.7-2.2-7.7-4.6-7c-2.4,0.7-2.4,3.3-4.1,2c-1.7-1.3-3-3.1-3.9-3c-0.9,0.1-1.7,1-3.4,0.8c-1.6-0.2-1.7-0.5-2.5,0.9&#10;&#9;&#9;&#9;c-0.8,1.4-0.4,3.3,4.9,6.6c5.3,3.4,9.1,6.4,7.3,6.5c-1.7,0.2-4-1.8-10.4-6.1c-6.4-4.3-3.8-4.7-6.9-4.5c-3.2,0.1-2.7,1.5-2.3,2.6&#10;&#9;&#9;&#9;c0.4,1.1,2.1,7.3-0.1,6.1c-2.2-1.1-6.6-4.5-7.2-3.1c-0.6,1.3,0.3,3.3-0.8,3.5c-1,0.2-1.2,0.2-4.1,0.2c-2.9,0-2.9,1.2-2.3,2.5&#10;&#9;&#9;&#9;c0.6,1.2,1.9,1.5,1.4,2.4c-0.5,0.9-1.9,1.8-0.3,1.9c1.6,0.2,2.7-0.2,3,0.7c0.3,0.9-0.6,3.2,4.7,2.1c5.3-1.1,10.1,0.1,8.5,2.7&#10;&#9;&#9;&#9;c-1.6,2.6-4.4,7.2,0.7,7.6c5,0.4,11.8,0.2,17.4-1.7C599.6,522.9,606.5,525.7,608.6,525.2z"/>
	</g>
	<g>
		
			<path fill="#96CD7E" stroke="#7D1416" stroke-width="3" stroke-linecap="round" stroke-linejoin="round" stroke-miterlimit="10" d="&#10;&#9;&#9;&#9;M608.6,525.2c0,0,4.2,0.2,1.8-4.8c-2.3-5-4.8-8.5-6.4-14.5c-1.5-6-1.5-9.3-2.6-9.8c-1.1-0.5-0.6,6.8-2.4,5.1&#10;&#9;&#9;&#9;c-1.8-1.7-2.2-7.7-4.6-7c-2.4,0.7-2.4,3.3-4.1,2c-1.7-1.3-3-3.1-3.9-3c-0.9,0.1-1.7,1-3.4,0.8c-1.6-0.2-1.7-0.5-2.5,0.9&#10;&#9;&#9;&#9;c-0.8,1.4-0.4,3.3,4.9,6.6c5.3,3.4,9.1,6.4,7.3,6.5c-1.7,0.2-4-1.8-10.4-6.1c-6.4-4.3-3.8-4.7-6.9-4.5c-3.2,0.1-2.7,1.5-2.3,2.6&#10;&#9;&#9;&#9;c0.4,1.1,2.1,7.3-0.1,6.1c-2.2-1.1-6.6-4.5-7.2-3.1c-0.6,1.3,0.3,3.3-0.8,3.5c-1,0.2-1.2,0.2-4.1,0.2c-2.9,0-2.9,1.2-2.3,2.5&#10;&#9;&#9;&#9;c0.6,1.2,1.9,1.5,1.4,2.4c-0.5,0.9-1.9,1.8-0.3,1.9c1.6,0.2,2.7-0.2,3,0.7c0.3,0.9-0.6,3.2,4.7,2.1c5.3-1.1,10.1,0.1,8.5,2.7&#10;&#9;&#9;&#9;c-1.6,2.6-4.4,7.2,0.7,7.6c5,0.4,11.8,0.2,17.4-1.7C599.6,522.9,606.5,525.7,608.6,525.2z"/>
	</g>
</g>
<path fill="#96CD7E" stroke="#7D1416" stroke-width="4" stroke-linecap="round" stroke-linejoin="round" stroke-miterlimit="10" d="&#10;&#9;M722.1,530.6l9.5-4.6c0,0,9.8,3.3,16.8,9.1c0,0-1.5,9-15.8,13.6C732.6,548.7,723.6,541.2,722.1,530.6z"/>
<path fill="none" stroke="#7D1416" stroke-width="4" stroke-linecap="round" stroke-miterlimit="10" d="M678.7,512.4&#10;&#9;c0,0,3.8-10,13.9-6.4c10.1,3.6,15.5,5.9,21,3.4s14.1-2.4,20.5,3.9c6.4,6.3,19.2,10.1,24.6,6.2s13.2-2.7,13.8-2.5"/>
<path d="M 690.399976 509.799988 A 8.3 5.8 0 0 1 682.099976 515.599988 A 8.3 5.8 0 0 1 673.799975 509.799988 A 8.3 5.8 0 0 1 682.099976 503.999988 A 8.3 5.8 0 0 1 690.399976 509.799988 Z" fill="#FFF6EA" stroke="#7D1416" stroke-width="4" stroke-linecap="round" stroke-linejoin="round" stroke-miterlimit="10"/>
<g>
	
		<path fill="#FFE586" stroke="#7D1416" stroke-width="2" stroke-linecap="round" stroke-linejoin="round" stroke-miterlimit="10" d="&#10;&#9;&#9;M401.9,430.2c4.3-1,5.3,0.1,5.4,2.2s-3.2,11.7-0.3,29.5c2.9,17.9,21.9,38.8,55.4,65.1c33.5,26.2,61.8,31.4,61.8,31.4l0,0&#10;&#9;&#9;c-1-0.2-1.6-0.1-1.6-0.1c-8-1.4-21.8,8.5-28.1,30.2c-6.3,21.7-1.9,34.2,3.6,42.7c2.4,3.7,5.5,6.5,8.8,7.7c0,0,0,0,0,0&#10;&#9;&#9;s-35.5-2.6-64.8-23.3c-29.3-20.8-56.9-41.7-67.7-82c-10.8-40.3,15.4-71.5,15.4-71.5c-4.1-10.5,0.6-22.5,0.2-24.7&#10;&#9;&#9;C389.5,435.1,397.5,431.2,401.9,430.2z"/>
	<path fill="#FFEFBC" d="M402.5,430.1c3.8-0.7,4.6,0.3,4.7,2.3c0.1,2.1-3.2,11.7-0.3,29.5c2.9,17.9,21.9,38.8,55.4,65.1&#10;&#9;&#9;c33.5,26.2,61.8,31.4,61.8,31.4c-1-0.2-1.6-0.1-1.6-0.1c-8-1.4-21.8,8.5-28.1,30.2c-0.2,0.6-0.4,1.3-0.5,1.9&#10;&#9;&#9;c-11.9-3.7-32.3-13.7-58-41.2c-41.6-44.5-35.5-79.7-35.5-79.7S396.8,444.2,402.5,430.1z"/>
	
		<path fill="#FFE586" stroke="#7D1416" stroke-width="2" stroke-linecap="round" stroke-linejoin="round" stroke-miterlimit="10" d="&#10;&#9;&#9;M511.1,580.9c1.1-0.5-0.5-2.9-1.4-2c-0.9,0.9,0.9,2.6,1.4,1.7"/>
	
		<path fill="#FFE586" stroke="#7D1416" stroke-width="2" stroke-linecap="round" stroke-linejoin="round" stroke-miterlimit="10" d="&#10;&#9;&#9;M523,576.8c0.6-0.5,2.6-4.2,0.6-3.8c-1.2,0.2-1.6,3.8-0.2,4.2"/>
	
		<path fill="#FFE586" stroke="#7D1416" stroke-width="2" stroke-linecap="round" stroke-linejoin="round" stroke-miterlimit="10" d="&#10;&#9;&#9;M391.6,468.1c-11.9,20-13.9,49.2-6.8,71.3"/>
	
		<path fill="#FFE586" stroke="#7D1416" stroke-width="2" stroke-linecap="round" stroke-linejoin="round" stroke-miterlimit="10" d="&#10;&#9;&#9;M387.9,547.5c-0.2-0.5-0.5-0.6-0.7-0.2c0.1,0.6,0.1,1.4,0.3,2"/>
	
		<path fill="#FFE586" stroke="#7D1416" stroke-width="2" stroke-linecap="round" stroke-linejoin="round" stroke-miterlimit="10" d="&#10;&#9;&#9;M497.1,630.6c-8.4,1.2-19-5.1-26.4-8.1c-16.8-6.9-29.5-18.5-43.9-29"/>
	
		<path fill="#FFE586" stroke="#7D1416" stroke-width="2" stroke-linecap="round" stroke-linejoin="round" stroke-miterlimit="10" d="&#10;&#9;&#9;M422,590.4c-1.2-0.3-2.3-0.9-3.1-1.7"/>
	
		<path fill="#FFE586" stroke="#7D1416" stroke-width="2" stroke-linecap="round" stroke-linejoin="round" stroke-miterlimit="10" d="&#10;&#9;&#9;M408,577.4c-0.8-0.5-1.4-1.2-1.9-1.9"/>
	
		<path fill="#FFE586" stroke="#7D1416" stroke-width="2" stroke-linecap="round" stroke-linejoin="round" stroke-miterlimit="10" d="&#10;&#9;&#9;M494.5,623.1c-2.8,6.5-37.8-16.3-40.7-18.9"/>
	
		<path fill="#FFE586" stroke="#7D1416" stroke-width="2" stroke-linecap="round" stroke-linejoin="round" stroke-miterlimit="10" d="&#10;&#9;&#9;M449.9,602c-0.7-0.6-1.5-1-2.3-1.2"/>
	
		<path fill="#FFE586" stroke="#7D1416" stroke-width="2" stroke-linecap="round" stroke-linejoin="round" stroke-miterlimit="10" d="&#10;&#9;&#9;M435.8,592.5c-4.8-3.2-9.4-6.6-13.7-10.4c-5.1-4.4-12.9-10.2-15.9-16.3"/>
	
		<path fill="#FFE586" stroke="#7D1416" stroke-width="2" stroke-linecap="round" stroke-linejoin="round" stroke-miterlimit="10" d="&#10;&#9;&#9;M400.1,559.4c-0.2-0.5-0.4-0.9-0.6-1.4"/>
	
		<path fill="#FFE586" stroke="#7D1416" stroke-width="2" stroke-linecap="round" stroke-linejoin="round" stroke-miterlimit="10" d="&#10;&#9;&#9;M396.1,469.7c-3.3,8.2-5.8,16.8-7,25.6c-2,14.4,0.6,32.8,9.9,44.5"/>
	
		<path fill="#FFE586" stroke="#7D1416" stroke-width="2" stroke-linecap="round" stroke-linejoin="round" stroke-miterlimit="10" d="&#10;&#9;&#9;M402.5,541c-0.2,1.3,0,2.7,0.8,3.7"/>
	
		<path fill="#FFE586" stroke="#7D1416" stroke-width="2" stroke-linecap="round" stroke-linejoin="round" stroke-miterlimit="10" d="&#10;&#9;&#9;M399.2,527.4c-1.5-3.8-4.3-7.5-5-11.4"/>
	
		<path fill="#FFE586" stroke="#7D1416" stroke-width="2" stroke-linecap="round" stroke-linejoin="round" stroke-miterlimit="10" d="&#10;&#9;&#9;M478.5,599.5c-16.9-3.2-34-17.7-45.8-29.3"/>
	
		<path fill="#FFE586" stroke="#7D1416" stroke-width="2" stroke-linecap="round" stroke-linejoin="round" stroke-miterlimit="10" d="&#10;&#9;&#9;M426.7,566c-0.6-0.3-1.1-0.8-1.4-1.4"/>
	
		<path fill="#FFE586" stroke="#7D1416" stroke-width="2" stroke-linecap="round" stroke-linejoin="round" stroke-miterlimit="10" d="&#10;&#9;&#9;M492.5,598c-1.3-0.5-2.9-0.4-4.3-0.6c-4.4-0.7-8.5-2.4-12.5-4.3c-13.7-6.4-25.8-16.8-37.5-26.1"/>
	
		<path fill="#FFE586" stroke="#7D1416" stroke-width="2" stroke-linecap="round" stroke-linejoin="round" stroke-miterlimit="10" d="&#10;&#9;&#9;M431.2,562.7c-0.4-0.5-0.7-0.9-1.2-1.3"/>
	
		<path fill="#FFE586" stroke="#7D1416" stroke-width="2" stroke-linecap="round" stroke-linejoin="round" stroke-miterlimit="10" d="&#10;&#9;&#9;M422.1,553.6c-0.3-0.4-0.6-0.8-0.9-1.2"/>
	
		<path fill="#FFE586" stroke="#7D1416" stroke-width="2" stroke-linecap="round" stroke-linejoin="round" stroke-miterlimit="10" d="&#10;&#9;&#9;M478.5,609.4c-5-2-10.1-3.9-14.8-6.3c-4.8-2.5-11.5-5.7-15-9.9"/>
	
		<path fill="#FFE586" stroke="#7D1416" stroke-width="2" stroke-linecap="round" stroke-linejoin="round" stroke-miterlimit="10" d="&#10;&#9;&#9;M434.7,583.5c-0.6-0.4-1-1-1.3-1.7"/>
	
		<path fill="#FFE586" stroke="#7D1416" stroke-width="2" stroke-linecap="round" stroke-linejoin="round" stroke-miterlimit="10" d="&#10;&#9;&#9;M394.7,436.1c-0.7,2.7-1,5.5-1.4,8.3"/>
	
		<path fill="#FFE586" stroke="#7D1416" stroke-width="2" stroke-linecap="round" stroke-linejoin="round" stroke-miterlimit="10" d="&#10;&#9;&#9;M399.2,432c0.5,1.7-1.1,6-1.6,8.2c-1.2,5-4.7,12.2-3.6,17.3"/>
	
		<path fill="#FFE586" stroke="#7D1416" stroke-width="2" stroke-linecap="round" stroke-linejoin="round" stroke-miterlimit="10" d="&#10;&#9;&#9;M393,462.5c0.3,0.4,0.4,0.8,0.3,1.3"/>
	
		<path fill="#FFE586" stroke="#7D1416" stroke-width="2" stroke-linecap="round" stroke-linejoin="round" stroke-miterlimit="10" d="&#10;&#9;&#9;M390.7,456.4c-0.2,0.4-0.3,0.8-0.5,1.2"/>
	
		<path fill="#FFE586" stroke="#7D1416" stroke-width="2" stroke-linecap="round" stroke-linejoin="round" stroke-miterlimit="10" d="&#10;&#9;&#9;M397.2,451.6c-0.9,2.5-0.7,5.9-0.7,8.6"/>
	<path fill="none" stroke="#7D1416" stroke-width="4" stroke-linecap="round" stroke-linejoin="round" stroke-miterlimit="10" d="&#10;&#9;&#9;M401.9,430.2c4.3-1,5.3,0.1,5.4,2.2s-3.2,11.7-0.3,29.5c2.9,17.9,21.9,38.8,55.4,65.1c33.5,26.2,61.8,31.4,61.8,31.4l0,0&#10;&#9;&#9;c-1-0.2-1.6-0.1-1.6-0.1c-8-1.4-21.8,8.5-28.1,30.2c-6.3,21.7-1.9,34.2,3.6,42.7c2.4,3.7,5.5,6.5,8.8,7.7c0,0,0,0,0,0&#10;&#9;&#9;s-35.5-2.6-64.8-23.3c-29.3-20.8-56.9-41.7-67.7-82c-10.8-40.3,15.4-71.5,15.4-71.5c-4.1-10.5,0.6-22.5,0.2-24.7&#10;&#9;&#9;C389.5,435.1,397.5,431.2,401.9,430.2z"/>
	
		<path fill="#FFE586" stroke="#7D1416" stroke-width="2" stroke-linecap="round" stroke-linejoin="round" stroke-miterlimit="10" d="&#10;&#9;&#9;M522.5,558.4c0,0,11.4-1.3,14,20.1c2.6,21.4-7.8,45-15.8,55.1c-8.1,10.1-17.1,6.2-22.7-2.3c-5.5-8.5-9.9-21-3.6-42.7&#10;&#9;&#9;C500.7,566.8,514.5,556.9,522.5,558.4z"/>
	<path fill="#FFF6EA" d="M525.3,561.6c0,0,9.9,6.9,8.6,27.6c-1.3,20.7-10.9,39.8-18.6,45.4c-7.7,5.7-19.1-4.7-21.1-20.9&#10;&#9;&#9;c-2-16.2,6.4-38.3,14.9-46.7C517.8,558.7,523.3,559.6,525.3,561.6z"/>
	<path fill="#7D1416" d="M517.4,605.4c0,0,0.6,1.4,1.9,3.3c1.3,1.8,2.1,0.7,2.5-0.9c0.5-1.7,0.1-3.4-2-4.2c-2.1-0.8-2.2-2.3-2.1-4.1&#10;&#9;&#9;s3.2-4.8,4-6.7c0.8-2,0.6-5.1-1.5-4.9c-2.1,0.2-3.1,0-3.6,4.3c-0.4,4.3,0.7,7.1-1.5,6.2c-2.3-0.9-4.4-4.5-5.7-3.4s-2.1,3.4,0.1,4.6&#10;&#9;&#9;c2.2,1.2,3.5,0.5,3.2,3.5c-0.4,3-3.6,1.9-2,5.1c1.6,3.2,2.4,6.2,3.7,3.3S516.1,605.8,517.4,605.4z"/>
	
		<path fill="#FFE586" stroke="#7D1416" stroke-width="2" stroke-linecap="round" stroke-linejoin="round" stroke-miterlimit="10" d="&#10;&#9;&#9;M516.3,618.4c0.2,0.2,0.6,0.4,0.7,0.6c0.2,0.6-0.1,2.5-0.8,2.6c-1.4,0.1-1.1-3.3,0.1-3.6"/>
	
		<path fill="#FFE586" stroke="#7D1416" stroke-width="2" stroke-linecap="round" stroke-linejoin="round" stroke-miterlimit="10" d="&#10;&#9;&#9;M506.5,614.4c0.8,0.5-1.6,3.7-2.4,3.1c-0.5-0.3,0.2-2,0.4-2.3c0.5-0.6,1.3-0.4,1.8-0.8"/>
	
		<path fill="#FFE586" stroke="#7D1416" stroke-width="2" stroke-linecap="round" stroke-linejoin="round" stroke-miterlimit="10" d="&#10;&#9;&#9;M502.2,603.9c0.3-0.5,0-1-0.5-1.1c-0.5,0.7,0.5,1.3,0.9,0.7"/>
	
		<path fill="#FFE586" stroke="#7D1416" stroke-width="2" stroke-linecap="round" stroke-linejoin="round" stroke-miterlimit="10" d="&#10;&#9;&#9;M528.9,590.8c1.2,0.3,0.5-1.6-0.5-1.7c-0.5,0.8-0.3,1.4,0.1,2.2"/>
	
		<path fill="#FFE586" stroke="#7D1416" stroke-width="2" stroke-linecap="round" stroke-linejoin="round" stroke-miterlimit="10" d="&#10;&#9;&#9;M510.2,628c-0.4,0.5-1.4,4.2-2.4,3.2c-1.1-1.1,0.8-2.7,1.9-2.4"/>
</g>
<path fill="#B1DFDB" stroke="#7D1416" stroke-width="4" stroke-linecap="round" stroke-linejoin="round" stroke-miterlimit="10" d="&#10;&#9;M880.6,377.4c0,0-22-5-44.4,13.5s-28.6,55.1,2.3,56.8c32.8,1.8,57.8-25.8,56.2-53.8c0,0,51-19.5,78.5-57.5s35-74.5,16-74&#10;&#9;s-32.5,27-46.5,54S906.4,365.4,880.6,377.4z"/>
<path fill="#F3BEBD" stroke="#7D1416" stroke-width="4" stroke-miterlimit="10" d="M877.9,384.4c0,0-15-2.8-36.8,14.2s-20.5,42,4,40&#10;&#9;S902.6,394.4,877.9,384.4z"/>
<path fill="none" stroke="#7D1416" stroke-width="4" stroke-linecap="round" stroke-linejoin="round" stroke-miterlimit="10" d="&#10;&#9;M931.9,363.6c-4.3,2.8-9,5.4-13.9,7.7"/>
<path fill="none" stroke="#7D1416" stroke-width="4" stroke-linecap="round" stroke-linejoin="round" stroke-miterlimit="10" d="&#10;&#9;M995.3,264c0,0-8.9,57.4-53.7,92.7"/>
<g>
	<path fill="#F3BEBD" stroke="#7D1416" stroke-width="4" stroke-linecap="round" stroke-miterlimit="10" d="M497.1,376.8&#10;&#9;&#9;c0,0,9.2-14.1,27.4,0s44.6,25.6,42.1,31.3s-6.2,5.7-21.6-2.6S522,394,522,394s-10,3.9,2.1,10.4c9.7,5.2,36.3,18.8,34.2,23&#10;&#9;&#9;s-8.4,7.8-21.4,0s-27.5-15.9-27.5-15.9s-8.9,3.4-1.4,8.6s24.1,14.6,28.9,20.1s4.6,13-5,10.5c-5.1-1.3-41.6-18.8-50.2-34.8&#10;&#9;&#9;c-6.3-11.7-1-20-1-20s-77.7-51.6-100.1-90.8s-20.5-64.3,0-63.7s30.4,42.8,50.8,72.1S473,371.5,497.1,376.8z"/>
	<path fill="none" stroke="#7D1416" stroke-width="4" stroke-linecap="round" stroke-miterlimit="10" d="M429.1,347.2&#10;&#9;&#9;c6,5.2,12.3,10.3,18.8,15.1"/>
	<path fill="none" stroke="#7D1416" stroke-width="4" stroke-linecap="round" stroke-miterlimit="10" d="M379.4,241.4&#10;&#9;&#9;c-1.3,0.1-12,4.2-5.3,30.5c4.8,19,21.7,43.4,44.8,65.8"/>
</g>
<g>
	
		<path d="M 696.700001 382.200012 A 36.200001 8.9 0 0 1 660.5 391.100012 A 36.200001 8.9 0 0 1 624.299999 382.200012 A 36.200001 8.9 0 0 1 660.5 373.300013 A 36.200001 8.9 0 0 1 696.700001 382.200012 Z" transform="matrix(0.749 0.6625 -0.6625 0.749 418.9597 -341.6783)" fill="#F7F0F0" stroke="#7D1416" stroke-width="4" stroke-linecap="round" stroke-linejoin="round" stroke-miterlimit="10"/>
	
		<path fill="#F7F0F0" stroke="#7D1416" stroke-width="4" stroke-linecap="round" stroke-linejoin="round" stroke-miterlimit="10" d="&#10;&#9;&#9;M685.4,367.7c10.2-13.7,23.7-22.6,23.7-22.6l-10.5-6.1l-7.3-9.7c0,0-7.2,14.5-19.5,26.3C659.4,367.5,644,366,644,366l17.2,15.3&#10;&#9;&#9;l17.2,15.3C678.5,396.5,675.2,381.4,685.4,367.7z"/>
	<path fill="#51C1B5" stroke="#7D1416" stroke-width="4" stroke-linejoin="round" stroke-miterlimit="10" d="M706,244.1&#10;&#9;&#9;c0,0,11.7-5.8,19,10.5c7.4,16.3,20.2,20.6,30.3,20.3s16.8-0.1,28.1,6c11.4,6.1,26.3-2.7,27.6-0.9c1.3,1.8,10.7,13.1,5,18.4&#10;&#9;&#9;c-5.7,5.3-40.8,39.6-61,48.2c-20.2,8.6-38.4,6.3-54.9-6.5s-21.4-36.2-17.5-51.9C686.6,272.6,706,244.1,706,244.1z"/>
	
		<path d="M 833.099998 256.100006 A 61.099998 12 0 0 1 772 268.100006 A 61.099998 12 0 0 1 710.900002 256.100006 A 61.099998 12 0 0 1 772 244.100006 A 61.099998 12 0 0 1 833.099998 256.100006 Z" transform="matrix(0.749 0.6625 -0.6625 0.749 363.4293 -447.1883)" fill="none" stroke="#7D1416" stroke-width="4" stroke-linecap="round" stroke-linejoin="round" stroke-miterlimit="10"/>
	<path fill="none" stroke="#7D1416" stroke-width="4" stroke-linecap="round" stroke-linejoin="round" stroke-miterlimit="10" d="&#10;&#9;&#9;M764.1,265.1c-25.3-22.4-42.2-44.5-37.8-49.4c0,0-37.3,47.8-44.5,75.8c-5,19.4,6.8,35.6,14.5,43.8l-0.2,0.2c0,0,1.1,1.1,3.2,2.8&#10;&#9;&#9;c1.9,1.8,3.2,2.8,3.2,2.8l0.2-0.2c9.1,6.7,26.7,16.3,45.3,9c27-10.6,69.8-53.4,69.8-53.4C813.4,301.5,789.3,287.4,764.1,265.1z"/>
	
		<path d="M 721.899976 318.399994 A 7.3 7.3 0 0 1 714.599976 325.699994 A 7.3 7.3 0 0 1 707.299975 318.399994 A 7.3 7.3 0 0 1 714.599976 311.099994 A 7.3 7.3 0 0 1 721.899976 318.399994 Z" fill="none" stroke="#7D1416" stroke-width="4" stroke-linecap="round" stroke-linejoin="round" stroke-miterlimit="10"/>
	
		<path d="M 760.500012 320.700012 A 3.3 3.3 0 0 1 757.200012 324.000012 A 3.3 3.3 0 0 1 753.900012 320.700012 A 3.3 3.3 0 0 1 757.200012 317.400012 A 3.3 3.3 0 0 1 760.500012 320.700012 Z" fill="none" stroke="#7D1416" stroke-width="4" stroke-linecap="round" stroke-linejoin="round" stroke-miterlimit="10"/>
	
		<path d="M 777.000024 314.5 A 1.6 1.6 0 0 1 775.400024 316.1 A 1.6 1.6 0 0 1 773.800024 314.5 A 1.6 1.6 0 0 1 775.400024 312.9 A 1.6 1.6 0 0 1 777.000024 314.5 Z" fill="none" stroke="#7D1416" stroke-width="4" stroke-linecap="round" stroke-linejoin="round" stroke-miterlimit="10"/>
	
		<path d="M 713 271.799988 A 3 3 0 0 1 710 274.799988 A 3 3 0 0 1 707 271.799988 A 3 3 0 0 1 710 268.799988 A 3 3 0 0 1 713 271.799988 Z" fill="none" stroke="#7D1416" stroke-width="4" stroke-linecap="round" stroke-linejoin="round" stroke-miterlimit="10"/>
	
		<path d="M 699.499988 294 A 2.2 2.2 0 0 1 697.299988 296.2 A 2.2 2.2 0 0 1 695.099988 294 A 2.2 2.2 0 0 1 697.299988 291.8 A 2.2 2.2 0 0 1 699.499988 294 Z" fill="none" stroke="#7D1416" stroke-width="4" stroke-linecap="round" stroke-linejoin="round" stroke-miterlimit="10"/>
	
		<path d="M 746.000024 296.100006 A 1.6 1.6 0 0 1 744.400024 297.700006 A 1.6 1.6 0 0 1 742.800024 296.100006 A 1.6 1.6 0 0 1 744.400024 294.500006 A 1.6 1.6 0 0 1 746.000024 296.100006 Z" fill="none" stroke="#7D1416" stroke-width="4" stroke-linecap="round" stroke-linejoin="round" stroke-miterlimit="10"/>
	<path fill="#51C1B5" stroke="#7D1416" stroke-width="4" stroke-linejoin="round" stroke-miterlimit="10" d="M821.5,275.3&#10;&#9;&#9;c0,0,11.2,1.4,20.4-2.4c9.2-3.9,20.3-4.3,17.9,3.4S842.2,294.1,821.5,275.3z"/>
	<path fill="#51C1B5" stroke="#7D1416" stroke-width="4" stroke-linejoin="round" stroke-miterlimit="10" d="M849.7,300.3&#10;&#9;&#9;c0,0,14.9-0.2,13.2,6.7C861.2,314,852.8,304.8,849.7,300.3z"/>
	<path fill="#51C1B5" stroke="#7D1416" stroke-width="4" stroke-linejoin="round" stroke-miterlimit="10" d="M873.6,284.5&#10;&#9;&#9;c0,0,13.9-10.9,20.8-2.6S891.1,296.6,873.6,284.5z"/>
	
		<path d="M 844.799988 249.100006 A 8.5 8.5 0 0 1 836.299988 257.600006 A 8.5 8.5 0 0 1 827.799988 249.100006 A 8.5 8.5 0 0 1 836.299988 240.600006 A 8.5 8.5 0 0 1 844.799988 249.100006 Z" fill="#51C1B5" stroke="#7D1416" stroke-width="4" stroke-linejoin="round" stroke-miterlimit="10"/>
	
		<path d="M 914 252.600006 A 7 7 0 0 1 907 259.600006 A 7 7 0 0 1 900 252.600006 A 7 7 0 0 1 907 245.600006 A 7 7 0 0 1 914 252.600006 Z" fill="#51C1B5" stroke="#7D1416" stroke-width="4" stroke-linejoin="round" stroke-miterlimit="10"/>
	
		<path d="M 831.100024 318.799988 A 6.7 6.7 0 0 1 824.400024 325.499988 A 6.7 6.7 0 0 1 817.700025 318.799988 A 6.7 6.7 0 0 1 824.400024 312.099988 A 6.7 6.7 0 0 1 831.100024 318.799988 Z" fill="#51C1B5" stroke="#7D1416" stroke-width="4" stroke-linejoin="round" stroke-miterlimit="10"/>
</g>
<path fill="#B1DFDB" stroke="#7D1416" stroke-width="4" stroke-linecap="round" stroke-linejoin="round" stroke-miterlimit="10" d="&#10;&#9;M666.2,175.7c-0.4-1.1-5.8-9.4,6.5-9.7c12.2-0.4,14,1.4,15.5-2.9s1.1-6.5,7.6-8.6c6.5-2.2,11.9-4.3,12.6-9.7c0.7-5.4,1.1-9,5.4-11.2&#10;&#9;c4.3-2.2-0.7-7.9,2.2-14.4s14.8-6.8,16.6,4.3s-4,12.2-6.8,15.5c-2.9,3.2-4.3,6.8-6.5,13.7c-2.2,6.8-3.2,12.2-12.6,14.4&#10;&#9;s-9.7,6.5-15.1,8.6s-5.8,1.1-10.1,0S667.7,180,666.2,175.7z"/>
<path fill="#ED84A0" stroke="#7D1416" stroke-width="4" stroke-linecap="round" stroke-miterlimit="10" d="M664.7,210.2&#10;&#9;c-0.2-0.2-8.2-9,2.2-15.1s9.4,3.2,14.4,2.2s7.6-6.5,9-1.1s8.6,11.5,12.6,3.6s5.4-18.4,11.9-17.6s4,10.4,9.7,6.5s0-2.2,8.3-6.5&#10;&#9;c8.3-4.3,6.1-11.5,9-17.2s15.1-6.1,14.8,5.4c-0.4,11.5-6.1,10.8-8.6,15.3s-1.4,11.7-10.1,15.3s-10.8-2.5-15.8,2.5&#10;&#9;s-7.2,13.3-12.9,9.7c-5.8-3.6-7.2-3.3-14.4,0.9C687.5,218.2,673.7,219.6,664.7,210.2z"/>
<path fill="#ED84A0" stroke="#7D1416" stroke-width="4" stroke-linecap="round" stroke-miterlimit="10" d="M1003.8,547.1&#10;&#9;c-0.2-0.2-8.2-9,2.2-15.1c10.4-6.1,9.4,3.2,14.4,2.2s7.6-6.5,9-1.1s8.6,11.5,12.6,3.6s5.4-18.4,11.9-17.6s4,10.4,9.7,6.5&#10;&#9;s0-2.2,8.3-6.5c8.3-4.3,6.1-11.5,9-17.2s15.1-6.1,14.8,5.4c-0.4,11.5-6.1,10.8-8.6,15.3c-2.5,4.5-1.4,11.7-10.1,15.3&#10;&#9;c-8.6,3.6-10.8-2.5-15.8,2.5s-7.2,13.3-12.9,9.7c-5.8-3.6-7.2-3.3-14.4,0.9C1026.5,555,1012.7,556.4,1003.8,547.1z"/>
<path fill="#F3BEBD" stroke="#7D1416" stroke-width="4" stroke-miterlimit="10" d="M620.5,285.4c1.2-1.1,10.1-7.2,11.2,2.2&#10;&#9;s-4.7,13-9.4,11.5S610.8,294.4,620.5,285.4z"/>
<path fill="#F3BEBD" stroke="#7D1416" stroke-width="4" stroke-miterlimit="10" d="M1031.7,585c1.2-1.1,10.1-7.2,11.2,2.2&#10;&#9;s-4.7,13-9.4,11.5S1022,594,1031.7,585z"/>
<path fill="#F3BEBD" stroke="#7D1416" stroke-width="4" stroke-miterlimit="10" d="M425.3,220.2c1.2-1.1,10.1-7.2,11.2,2.2&#10;&#9;s-4.7,13-9.4,11.5S415.6,229.2,425.3,220.2z"/>
<path fill="#F3BEBD" stroke="#7D1416" stroke-width="4" stroke-miterlimit="10" d="M444.4,446.1c1.2-1.1,10.1-7.2,11.2,2.2&#10;&#9;s-4.7,13-9.4,11.5S434.6,455.1,444.4,446.1z"/>
<path fill="#F3BEBD" stroke="#7D1416" stroke-width="4" stroke-miterlimit="10" d="M310.4,493.2c1.2-1.1,10.1-7.2,11.2,2.2&#10;&#9;c1.1,9.4-4.7,13-9.4,11.5S300.7,502.2,310.4,493.2z"/>
<path fill="#FFE586" stroke="#7D1416" stroke-width="4" stroke-linecap="round" stroke-linejoin="round" stroke-miterlimit="10" d="&#10;&#9;M557,261c0,0-9-3.6-3.6-7.9s5.8-4,7.2-9.4s1.8-4.3,6.8-8.6s5.4-5.8,10.8-14s4.7-8.3,11.9-12.2c7.2-4,3.6-3.6,9.7-7.6&#10;&#9;s7.6-3.2,17.3-6.5s10.3-10.1,15.9-8.3c5.7,1.8,12.3,14.4,0,18c-12.3,3.6-14.9,0-22.4,6.5c-7.6,6.5-5.1,12.6-14.8,16.2&#10;&#9;s-12.2,0.7-15.1,8.6c-2.9,7.9-2.2,9.7-8.3,13.7C566.4,253.4,563.9,263.5,557,261z"/>
<path fill="#ED84A0" stroke="#7D1416" stroke-width="4" stroke-linecap="round" stroke-miterlimit="10" d="M522.3,299.4&#10;&#9;c0,0-9.7-2.1-4.3-13.3s5.8-8.3,4.3-15.1s-3.2-8.6,0.7-11.9s7.2-7.3,7.6-13.2s5-8.4,9.7-12.4c4.7-4,15.8-12.8,11.2-15.7&#10;&#9;c-4.7-3-11-1.1-17.2,5.9c-6.2,7-5.5,10.6-11.6,12.7s-4.7,4.7-6.3,11.9s-0.9,5.8-4.5,11.5c-3.6,5.8-6.5,10.1-3.2,15.5&#10;&#9;s3.6,5.8,2.2,13.7S516.9,312.3,522.3,299.4z"/>
<path fill="#ED84A0" stroke="#7D1416" stroke-width="4" stroke-linecap="round" stroke-miterlimit="10" d="M261.7,562.3&#10;&#9;c0,0-13-2.8-5.8-17.8c7.2-15,7.7-11.1,5.8-20.3c-1.9-9.2-4.3-11.6,1-15.9c5.3-4.3,9.7-9.7,10.1-17.7c0.5-7.9,6.8-11.3,13-16.6&#10;&#9;c6.3-5.3,21.3-17.1,15-21.1c-6.3-4-14.8-1.4-23.1,7.9c-8.3,9.4-7.3,14.2-15.6,17.1c-8.2,2.9-6.3,6.3-8.5,15.9&#10;&#9;c-2.2,9.7-1.2,7.7-6,15.5c-4.8,7.7-8.7,13.5-4.3,20.8c4.3,7.2,4.8,7.7,2.9,18.4C244.3,559,254.5,579.7,261.7,562.3z"/>
<path fill="#FFE586" stroke="#7D1416" stroke-width="4" stroke-linecap="round" stroke-linejoin="round" stroke-miterlimit="10" d="&#10;&#9;M561.7,306.2c-1.7-0.6-16.8-4.4-11.8-12.6c5-8.2,6-4.4,8.6,0s7.3,3.1,9.8,5C570.7,300.5,567.9,308.4,561.7,306.2z"/>
<path fill="#B1DFDB" stroke="#7D1416" stroke-width="4" stroke-linecap="round" stroke-linejoin="round" stroke-miterlimit="10" d="&#10;&#9;M600.4,358.1c0,0,2.5-7.9-10.8-4.3s-12.2,3.9-19.4-0.9c-7.2-4.8-11.2-12-19.1-12.7s-6.1-0.7-10.8-6.8s-0.4-16.9-8.6-16.6&#10;&#9;s-14.4,11.9-6.5,18s9,2.9,11.5,13.7s9.7,14.4,18.4,15.1c8.6,0.7,14-2.2,17.6,4s16.2,10.8,25.2,9c9-1.8,6.5-1.8,14,4.3&#10;&#9;c7.6,6.1,15.2,5,14.8-3.6s-7.2-12.2-14.1-13.7S600.4,360.8,600.4,358.1z"/>
<path fill="#FFE586" stroke="#7D1416" stroke-width="4" stroke-linecap="round" stroke-linejoin="round" stroke-miterlimit="10" d="&#10;&#9;M784.1,116.4c0,0-1-6.3,3.5-5.9c4.5,0.4,5.5-2.5,9.4-3.5s8.3,1.5,5.6,5.9c-2.7,4.3-3.6,0.7-8.3,6.7S783.6,123.1,784.1,116.4z"/>
<path fill="#ED84A0" stroke="#7D1416" stroke-width="4" stroke-linecap="round" stroke-miterlimit="10" d="M942.8,395.1&#10;&#9;c0,0-1-6.3,3.5-5.9s5.5-2.5,9.4-3.5s8.3,1.5,5.6,5.9s-3.6,0.7-8.3,6.7S942.4,401.8,942.8,395.1z"/>
<path fill="#B1DFDB" stroke="#7D1416" stroke-width="4" stroke-linecap="round" stroke-linejoin="round" stroke-miterlimit="10" d="&#10;&#9;M993.3,371.2c0,0,3.8-14.5,24.3-19.3s33.7-11.1,31.3-20.4s1.7-16.2,8.2-19.8s10.8-5,8.9-10.5s1.5-14.6,6.8-15.8s12.9-7.7,12.1-19.2&#10;&#9;s5.4-17.1,13.3-13.3s11.6,33,0,37.6s-17.7,5.5-17.9,14.1s0.7,16.6-6.5,18.1s-12.7,3.7-12,8.6s1.8,34.1-11.2,33.3s-18.8-5.3-28.4,2.9&#10;&#9;S989.4,378.3,993.3,371.2z"/>
<path fill="#ED84A0" stroke="#7D1416" stroke-width="4" stroke-linecap="round" stroke-miterlimit="10" d="M1113,336.9&#10;&#9;c0,0,1.3-17,8.7-12.1s2.3,3.6,10.6,6.5s12.5,11.5,2.4,15.5S1110.6,346.8,1113,336.9z"/>
<path fill="#F3BEBD" stroke="#7D1416" stroke-width="4" stroke-linecap="round" stroke-miterlimit="10" d="M1041.7,228.5&#10;&#9;c0,0-5.2-13.8,4.4-14.8s7.6,5.8,12.4,7.4s4.4,8.1,1.6,10.6S1043,234.9,1041.7,228.5z"/>
<path d="M 508.099995 676.5 A 37.700001 11 0 0 1 470.399994 687.5 A 37.700001 11 0 0 1 432.699993 676.5 A 37.700001 11 0 0 1 470.399994 665.5 A 37.700001 11 0 0 1 508.099995 676.5 Z" fill="#EDA6A6"/>
<path d="M 952.5 723.5 A 43 10.9 0 0 1 909.5 734.4 A 43 10.9 0 0 1 866.5 723.5 A 43 10.9 0 0 1 909.5 712.6 A 43 10.9 0 0 1 952.5 723.5 Z" fill="#EDA6A6"/>
</svg>