<svg height="512pt" viewBox="-1 0 512 512.00101" width="512pt" xmlns="http://www.w3.org/2000/svg"><path d="m449.210938 276.136719c31.964843-31.964844 51.144531-73.039063 54.003906-115.652344 2.917968-43.480469-11.40625-83.355469-40.332032-112.277344-28.925781-28.925781-68.800781-43.25-112.277343-40.332031-42.613281 2.859375-83.6875 22.039062-115.652344 54.003906-28.085937 28.085938-46.292969 63.199219-52.242187 100.214844l-29.898438 169.78125-16.777344 16.78125 26.398438 26.398438 16.777344-16.777344 169.785156-29.898438c37.015625-5.945312 72.128906-24.15625 100.214844-52.242187zm-10.507813-203.75c45.742187 45.738281 39.605469 126.292969-13.671875 179.574219-53.277344 53.277343-133.832031 59.410156-179.570312 13.671874-45.738282-45.742187-39.605469-126.296874 13.671874-179.574218 53.277344-53.277344 133.832032-59.410156 179.570313-13.671875zm-249.890625 249.890625 11.027344-60.28125c5.871094 10.074218 13.035156 19.40625 21.441406 27.8125 8.402344 8.40625 17.738281 15.566406 27.808594 21.441406zm0 0" fill="#e2fc85"/><path d="m39.332031 504.5-31.828125-31.828125c0-3.902344 0-6.089844 0-9.992187l121.277344-121.277344 41.820312 41.820312-121.277343 121.277344c-3.902344 0-6.09375 0-9.992188 0zm0 0" fill="#cad8ea"/><path d="m23.035156 447.148438-15.53125 15.53125v9.992187l31.828125 31.828125h9.992188l15.53125-15.53125zm0 0" fill="#cad8ea"/><path d="m166.035156 348.65625 16.777344-16.78125 29.898438-169.78125c5.945312-37.015625 24.15625-72.128906 52.242187-100.214844 30.921875-30.925781 70.371094-49.882812 111.492187-53.671875-8.425781-.796875-17.058593-.921875-25.839843-.332031-42.613281 2.859375-83.6875 22.039062-115.652344 54.003906-28.085937 28.082032-46.296875 63.199219-52.242187 100.214844l-29.898438 169.78125-16.777344 16.78125 26.402344 26.398438 15-15zm0 0" fill="#6ad34d"/><path d="m37.503906 472.671875v-9.992187l106.277344-106.277344-15-15-121.277344 121.277344v9.992187l31.828125 31.828125h9.992188l10.003906-10.003906zm0 0" fill="#b0c4e0"/><path d="m37.503906 472.671875c0-3.902344 0-6.089844 0-9.992187l.53125-.53125-15-15-15.535156 15.53125c.003906 3.902343 0 6.089843 0 9.992187l31.828125 31.828125h9.992187l10.003907-10.003906zm0 0" fill="#b0c4e0"/><path d="m108.148438 414.460938-10.605469-10.609376 10.605469-10.605468 10.609374 10.609375zm17.679687-17.675782-10.605469-10.609375 10.605469-10.605469 10.605469 10.605469zm0 0" fill="#fff"/><path d="m23.035156 436.542969-23.035156 23.03125.00390625 16.203125 36.21874975 36.222656h16.207032l128.777343-128.777344-52.425781-52.429687zm23.179688 60.457031h-3.777344l-27.433594-27.433594v-3.78125l8.03125-8.03125 31.210938 31.214844zm18.640625-18.636719-31.214844-31.214843 95.140625-95.140626 31.214844 31.210938zm0 0"/><path d="m468.1875 42.902344c-30.480469-30.476563-72.425781-45.578125-118.085938-42.511719-44.425781 2.980469-87.203124 22.933594-120.453124 56.183594-29.277344 29.277343-48.0625 65.332031-54.332032 104.273437l-29.089844 165.191406 14.769532 2.601563c25.589844-145.308594 29.089844-165.195313 29.117187-165.355469 5.757813-35.824218 23.097657-69.054687 50.140625-96.101562 30.683594-30.683594 70.050782-49.085938 110.851563-51.824219 85.417969-5.75 150.359375 59.183594 144.628906 144.625-2.738281 40.800781-21.144531 80.167969-51.824219 110.851563-27.046875 27.046874-60.277344 44.382812-96.101562 50.140624l-165.359375 29.117188 2.601562 14.773438 165.191407-29.089844c38.941406-6.269532 74.996093-25.058594 104.273437-54.335938 33.25-33.25 53.203125-76.027344 56.183594-120.453125 3.0625-45.671875-12.035157-87.609375-42.511719-118.085937zm0 0"/><path d="m322.714844 303.773438c76.605468 0 147.769531-65.148438 153.761718-143.859376 5.699219-74.863281-50.449218-130.980468-125.300781-125.300781-73.9375 5.628907-137.859375 69.527344-143.488281 143.488281-5.445312 71.523438 45.460938 125.671876 115.027344 125.671876zm61.671875-219.804688 16.0625 16.0625-23.882813 23.882812-16.0625-16.066406zm-34.488281 13.273438-16.0625-16.0625 23.878906-23.878907 16.0625 16.0625zm-5.023438 132.921874 23.878906-23.878906 16.0625 16.0625-23.882812 23.878906zm5.453125 26.667969-23.878906 23.882813-16.0625-16.0625 23.878906-23.878906zm7.820313-61.152343-23.882813 23.878906-16.0625-16.0625 23.882813-23.878906zm-5.457032-26.671876 23.878906-23.878906 16.0625 16.0625-23.878906 23.878906zm26.667969 26.671876 23.882813-23.878907 16.0625 16.058594-23.882813 23.882813zm34.488281-34.488282 23.878906-23.878906 16.0625 16.0625-23.878906 23.878906zm-10.605468-10.605468-16.066407-16.066407 23.882813-23.878906 16.0625 16.0625zm-37.28125-16.066407-23.878907 23.878907-16.0625-16.0625 23.878907-23.878907zm-34.484376 34.488281-23.882812 23.878907-16.0625-16.0625 23.882812-23.878907zm-34.488281 34.488282-23.878906 23.878906-16.0625-16.066406 23.878906-23.878906zm10.609375 10.605468 16.0625 16.0625-23.878906 23.878907-16.066406-16.0625zm-18.425781 50.550782-13.523437 13.523437c-6.894532-3.417969-13.390626-7.671875-19.363282-12.765625l16.824219-16.824218zm10.609375 10.605468 13.144531 13.144532c-7.558593-.644532-14.960937-2.042969-22.082031-4.207032zm61.15625-7.816406 11.234375 11.234375c-10.25 4.253907-20.757813 7.1875-31.234375 8.765625zm10.605469-10.609375 23.878906-23.878906 18.867187 18.867187c-8.707031 7.898438-18.066406 14.558594-27.808593 19.949219zm34.484375-34.484375 23.882812-23.882812 14.953125 14.953125c-5.453125 9.839843-12.144531 19.179687-19.964843 27.796875zm34.488281-34.488281 19.976563-19.976563c-1.589844 10.648438-4.535157 21.128907-8.722657 31.226563zm7.820313-61.152344 8.941406-8.941406c2.136718 7.042969 3.542968 14.429687 4.1875 22.070313zm-10.609376-10.609375-16.0625-16.0625 16.828126-16.828125c5.046874 5.921875 9.3125 12.410157 12.765624 19.363281zm-26.671874-26.671875-16.0625-16.0625 13.53125-13.53125c6.953124 3.449219 13.441406 7.714844 19.363281 12.765625zm-26.667969-26.671875-13.132813-13.132812c7.640625.644531 15.027344 2.050781 22.074219 4.191406zm-61.15625 7.820313-11.253907-11.25c10.101563-4.1875 20.582032-7.136719 31.230469-8.726563zm-10.605469 10.605469-23.882812 23.878906-18.867188-18.867188c8.617188-7.820312 17.957031-14.511718 27.796875-19.964844zm10.605469 10.609374 16.0625 16.058594-23.878907 23.882813-16.0625-16.0625zm-18.425781 50.546876-23.878907 23.878906-16.0625-16.0625 23.878907-23.878906zm-34.484376 34.488281-23.882812 23.878906-16.0625-16.0625 23.882812-23.878906zm-46.648437-6.691407c1.589844-10.648437 4.535156-21.128906 8.726563-31.230468l11.25 11.25zm12.160156 41.175782-8.941406 8.945312c-2.144531-7.046875-3.546875-14.433594-4.191406-22.074218zm10.605469 10.609375 16.0625 16.0625-16.824219 16.828125c-5.050781-5.921875-9.316406-12.410156-12.769531-19.359375zm12.828125-125.121094 18.871094 18.871094-23.882813 23.878906-14.953125-14.953125c5.453125-9.839844 12.144531-19.175781 19.964844-27.796875zm0 0"/><path d="m196.109375 240.710938-16.628906 90.898437 90.894531-16.628906-17.503906-10.207031c-19.257813-11.234376-35.316406-27.289063-46.554688-46.554688zm33.566406 66.46875-31.53125 5.769531 5.765625-31.535157c7.246094 9.359376 15.832032 18.070313 25.765625 25.765626zm0 0"/></svg>