<?xml version="1.0" encoding="iso-8859-1"?>
<!-- Generator: Adobe Illustrator 19.0.0, SVG Export Plug-In . SVG Version: 6.00 Build 0)  -->
<svg version="1.1" id="Capa_1" xmlns="http://www.w3.org/2000/svg" xmlns:xlink="http://www.w3.org/1999/xlink" x="0px" y="0px"
	 viewBox="0 0 512 512" style="enable-background:new 0 0 512 512;" xml:space="preserve">
<polygon style="fill:#4F4F4F;" points="451.741,419.493 391.771,389.5 428.331,467.56 455.86,449.5 "/>
<polygon style="fill:#696969;" points="421.771,419.5 391.266,389.5 360.534,419.533 372,504.5 428.331,467.56 "/>
<polygon style="fill:#B3B3B3;" points="425.86,229.5 350.86,214.5 421.771,419.5 451.741,419.493 "/>
<polygon style="fill:#CCCCCC;" points="395.86,229.5 350.86,214.5 334.5,229.5 360.534,419.533 421.771,419.5 "/>
<path style="fill:#4F4F4F;" d="M500.105,134.04c-5.85-5.86-15.35-5.86-21.21,0l-65.46,65.46H364.5c-16.5,0-30,13.5-30,30h91.365
	l74.24-74.25C505.965,149.4,505.965,139.9,500.105,134.04z"/>
<polygon style="fill:#B3B3B3;" points="364.5,449.5 384.5,489.5 339.954,489.5 314.5,469.5 334.5,449.5 "/>
<path style="fill:#353535;" d="M474.5,449.5l-20,55h30c11.05,0,20-8.95,20-20v-35H474.5z"/>
<path style="fill:#4F4F4F;" d="M364.5,449.5l7.5,55h82.5c11.05,0,20-8.95,20-20v-35H364.5z"/>
<path style="fill:#CCCCCC;" d="M27.5,449.5c-11.05,0-20,8.95-20,20s8.95,20,20,20h312.454l-5.454-40H27.5z"/>
<path style="fill:#9DB55F;" d="M231,232.5h-30L186,255l15,22.5v30h45v-35.335C246,256.954,240.329,243.075,231,232.5z"/>
<path style="fill:#B9D171;" d="M141,232.5c-9.329,10.575-15,24.454-15,39.665V307.5h45v-30h30v-45H141z"/>
<polygon style="fill:#FFB4A9;" points="231,232.5 201,232.5 171,172.5 231,202.5 "/>
<polygon style="fill:#FFD9D4;" points="201,232.5 141,232.5 141,202.5 201,172.5 "/>
<path style="fill:#4F4F4F;" d="M211,127.5h-30l20,75h30v-55C231,136.454,222.046,127.5,211,127.5z"/>
<path style="fill:#696969;" d="M181,127.5h-20c-11.046,0-20,8.954-20,20v55h60v-55C201,136.454,192.046,127.5,181,127.5z"/>
<path style="fill:#E18F4E;" d="M121,112.5c11.046,0,20-8.954,20-20v-40c-22.091,0-40,17.909-40,40
	C101,103.546,109.954,112.5,121,112.5z"/>
<path style="fill:#FFB4A9;" d="M213,16.5h-27v81c24.85,0,45-20.15,45-45C231,37.78,223.93,24.7,213,16.5z"/>
<path style="fill:#FFD9D4;" d="M199.2,31.14c1.15,6.36,1.8,13.63,1.8,21.36c0,24.85-6.72,45-15,45c-24.85,0-45-20.15-45-45
	L199.2,31.14z"/>
<path style="fill:#C27749;" d="M213,16.5c-4.04,5.38-8.67,10.29-13.8,14.64L186,7.5C196.12,7.5,205.48,10.85,213,16.5z"/>
<path style="fill:#E18F4E;" d="M141,52.5c0-24.85,20.15-45,45-45c5.7,0,10.67,9.56,13.2,23.64C183.51,44.46,163.19,52.5,141,52.5z"
	/>
<path d="M504.5,442h-42.088l-28.618-209.827l71.615-71.615c4.25-4.249,6.591-9.899,6.591-15.91s-2.341-11.661-6.59-15.909
	c-4.249-4.25-9.899-6.591-15.91-6.591s-11.661,2.341-15.91,6.59L410.327,192H364.5c-20.678,0-37.5,16.822-37.5,37.5
	c0,0.312,0.025,0.618,0.062,0.92c0.004,0.031,0.002,0.063,0.006,0.094L355.908,442H231.573V315H246c4.142,0,7.5-3.357,7.5-7.5
	v-35.335c0-15.472-5.307-30.418-15-42.406v-20.513c17.096-3.484,30-18.635,30-36.745v-45c0-4.143-3.357-7.5-7.5-7.5
	c-4.142,0-7.5,3.357-7.5,7.5v45c0,9.777-6.271,18.114-15,21.21V147.5c0-15.163-12.336-27.5-27.5-27.5h-50
	c-12.465,0-23.013,8.339-26.375,19.729C92.105,136.461,58.5,100.843,58.5,57.5c0-4.143-3.358-7.5-7.5-7.5s-7.5,3.357-7.5,7.5
	c0,51.238,39.729,93.372,90,97.214v75.044c-9.693,11.988-15,26.935-15,42.406V307.5c0,4.143,3.358,7.5,7.5,7.5h22.5v30.576
	c0,5.021-4.338,11.04-9.102,12.628l-65.681,21.894c-3.062,1.021-5.128,3.887-5.128,7.115v31.623c0,4.143,3.358,7.5,7.5,7.5
	s7.5-3.357,7.5-7.5v-26.218l60.553-20.184c10.855-3.619,19.358-15.417,19.358-26.858V315h7.5c4.142,0,7.5-3.357,7.5-7.5V285h15v22.5
	c0,4.143,3.358,7.5,7.5,7.5h15.573v127H27.5C12.336,442,0,454.337,0,469.5S12.336,497,27.5,497H35v7.5c0,4.143,3.358,7.5,7.5,7.5
	s7.5-3.357,7.5-7.5V497h313.408l1.16,8.514C365.075,509.23,368.249,512,372,512h112.5c15.164,0,27.5-12.337,27.5-27.5v-35
	C512,445.357,508.643,442,504.5,442z M148.5,225v-15h75v15H148.5z M161,135h50c6.893,0,12.5,5.607,12.5,12.5V195h-75v-47.5
	C148.5,140.607,154.107,135,161,135z M211,270h-40c-4.142,0-7.5,3.357-7.5,7.5V300h-30v-27.835c0-11.687,3.905-22.982,11.039-32.165
	h82.922c7.134,9.183,11.039,20.478,11.039,32.165V300h-30v-15h2.5c4.142,0,7.5-3.357,7.5-7.5S215.142,270,211,270z M443.181,412
	h-76.225l-23.864-175h76.221L443.181,412z M364.5,207h48.934c1.989,0,3.896-0.79,5.304-2.196l65.46-65.46
	c1.416-1.416,3.3-2.196,5.303-2.196s3.887,0.78,5.304,2.197c1.416,1.416,2.196,3.3,2.196,5.303s-0.78,3.887-2.197,5.303L422.753,222
	h-79.461C346.389,213.271,354.723,207,364.5,207z M27.5,482c-6.893,0-12.5-5.607-12.5-12.5S20.607,457,27.5,457h330.453l3.409,25
	H27.5z M371.047,442l-2.045-15h76.225l2.046,15H371.047z M497,484.5c0,6.893-5.607,12.5-12.5,12.5H378.547l-1.151-8.445
	c-0.007-0.052-0.014-0.104-0.021-0.155l-4.283-31.4h82.646c0.079,0.002,0.158,0.002,0.237,0H497V484.5z"/>
<path d="M121,120c15.164,0,27.5-12.337,27.5-27.5v-3.308C158.037,98.937,171.321,105,186,105c28.949,0,52.5-23.552,52.5-52.5
	S214.949,0,186,0c-26.582,0-48.598,19.863-52.022,45.523C111.105,48.927,93.5,68.695,93.5,92.5C93.5,107.663,105.836,120,121,120z
	 M223.5,52.5c0,20.678-16.822,37.5-37.5,37.5c-18.229,0-33.454-13.076-36.806-30.34c25.031-2.055,47.916-13.496,64.607-32.299
	C219.825,34.017,223.5,42.837,223.5,52.5z M186,15c5.583,0,10.88,1.235,15.646,3.433c-13.717,14.935-32.143,24.147-52.297,26.147
	C152.995,27.694,168.04,15,186,15z M133.5,60.873V92.5c0,6.893-5.607,12.5-12.5,12.5s-12.5-5.607-12.5-12.5
	C108.5,77.16,119.183,64.268,133.5,60.873z"/>
<g>
</g>
<g>
</g>
<g>
</g>
<g>
</g>
<g>
</g>
<g>
</g>
<g>
</g>
<g>
</g>
<g>
</g>
<g>
</g>
<g>
</g>
<g>
</g>
<g>
</g>
<g>
</g>
<g>
</g>
</svg>
