<?xml version="1.0" encoding="iso-8859-1"?>
<!-- Generator: Adobe Illustrator 19.0.0, SVG Export Plug-In . SVG Version: 6.00 Build 0)  -->
<svg xmlns="http://www.w3.org/2000/svg" xmlns:xlink="http://www.w3.org/1999/xlink" version="1.1" id="Layer_1" x="0px" y="0px" viewBox="0 0 505.692 505.692" style="enable-background:new 0 0 505.692 505.692;" xml:space="preserve" width="512" height="512">
<g>
	<g>
		<path style="fill:#58B741;" d="M383.6,126.726l-56.228,19.8l40.202-37.12c28.79-25.844,49.44-63.813,63.61-101.902l41.848,14.275    C453.758,64.808,422.592,101.145,383.6,126.726z"/>
		<path style="fill:#654B87;" d="M52.433,433.388c-0.481-0.82-0.962-1.64-1.449-2.454c-33.68-56.957-19.771-129.853,32.166-170.83    c51.994-41.019,99.066-87.908,140.269-139.732c3.55-4.44,7.05-8.931,10.501-13.456c23.928-31.353,61.278-47.079,98.436-44.696    c17.607,1.117,35.164,6.3,51.244,15.804c0.622,0.368,1.244,0.736,1.874,1.11c32.4,19.163,51.951,51.767,55.727,86.585    c2.524,23.158-1.945,47.298-14.248,69.12c-7.142,12.671-14.545,25.208-22.224,37.625    c-40.786,66.016-89.039,128.34-144.285,185.623C200.119,520.63,96.669,508.185,52.433,433.388z"/>
		<path style="fill:#463068;" d="M404.727,272.464c-38.424-18.837-38.431-73.079-38.431-73.079    c-24.876,24.876-80.165,11.052-80.165,11.052c-9.786-14.92-13.619-30.787-14.574-44.823c-1.633-23.653,4.9-42.108,4.9-42.108    c-21.136,8.818-39.966,3.691-53.04-3.133c3.55-4.44,7.05-8.931,10.501-13.456c23.928-31.353,61.278-47.079,98.436-44.696    c26.418,5.798,50.558,18.965,69.848,37.646c10.72,10.366,19.933,22.422,27.216,35.857c5.593,10.317,9.39,20.351,11.781,29.995    c2.524,23.158-1.945,47.298-14.248,69.12C419.81,247.51,412.407,260.047,404.727,272.464z"/>
		<path style="fill:#463068;" d="M101.004,481.124c-19.311-10.882-36.232-26.884-48.564-47.73c-0.481-0.82-0.962-1.64-1.456-2.461    c-33.672-56.95-19.764-129.846,32.173-170.823c56.463-44.541,107.113-96.011,150.762-153.195    c35.263-46.195,99.66-58.464,149.687-28.885l1.867,1.103c19.325,11.434,34.082,27.648,43.65,46.266    c-49.37-26.474-111.171-13.619-145.438,31.282c-43.657,57.177-94.307,108.647-150.769,153.188    C80.978,350.847,67.07,423.743,100.749,480.7C100.834,480.841,100.919,480.983,101.004,481.124z"/>
		<path style="fill:#70D65B;" d="M428.5,258.817c-45.608-15.203-45.615-76.021-45.615-76.021    c-24.876,24.876-80.165,11.052-80.165,11.052c-9.786-14.92-13.619-30.787-14.574-44.823c-1.633-23.653,4.9-42.108,4.9-42.108    c-40.086,16.723-71.877-16.723-71.877-16.723c32.965-40.432,72.485-49.674,106.002-47.609c34.846,2.15,67.14,16.992,91.62,40.694    c10.72,10.366,19.933,22.422,27.217,35.857C488.208,197.03,428.5,258.817,428.5,258.817z"/>
		<path style="fill:#58B741;" d="M288.147,149.025c-1.633-23.653,4.9-42.108,4.9-42.108c-40.086,16.723-71.877-16.723-71.877-16.723    c32.965-40.432,72.485-49.674,106.002-47.609c34.846,2.15,67.14,16.992,91.62,40.694C354.24,66.187,318.595,98,288.147,149.025z"/>
	</g>
	<path d="M479.902,18.779c-0.842-1.934-2.46-3.424-4.456-4.105l-41.84-14.27c-3.849-1.313-8.034,0.677-9.45,4.483   c-7.34,19.727-15.791,37.635-25.166,53.349c-21.535-13.581-46.165-21.584-71.362-23.138c-14.506-0.896-28.533,0.339-41.708,3.667   c-4.016,1.014-6.449,5.092-5.435,9.108c1.015,4.017,5.097,6.451,9.108,5.435c11.673-2.948,24.158-4.038,37.11-3.238   c23.212,1.432,45.907,8.933,65.632,21.693c19.616,12.69,35.896,30.307,47.077,50.946c16.315,30.113,18.624,61.158,6.862,92.273   c-6.339,16.768-15.289,29.126-19.994,34.933c-35.313-15.815-35.891-66.598-35.893-67.12c0-3.034-1.827-5.768-4.63-6.929   s-6.028-0.519-8.174,1.626c-10.929,10.929-29.802,12.918-43.674,12.669c-11.566-0.21-21.749-1.987-26.512-2.958   c-21.554-35.824-7.429-77.375-7.284-77.788c0.989-2.795,0.239-5.912-1.915-7.95c-2.153-2.038-5.307-2.616-8.044-1.474   c-26.479,11.051-48.889-2.792-58.527-10.498c9.998-11.134,21.069-20.018,32.988-26.459c3.645-1.969,5.002-6.52,3.032-10.164   c-1.969-3.644-6.521-5.001-10.163-3.032c-15.534,8.395-29.708,20.375-42.129,35.609c-2.386,2.926-2.225,7.169,0.376,9.906   c0.46,0.485,4.283,4.427,10.708,8.968c-42.917,55.87-92.671,106.299-147.937,149.895c-26.564,20.958-44.645,50.761-50.913,83.917   c-6.279,33.215-0.264,67.528,16.961,96.66c0.474,0.79,0.941,1.588,1.425,2.413c22.353,37.796,60.198,62.404,103.83,67.516   c5.544,0.649,11.065,0.97,16.549,0.97c37.486,0,73.05-14.991,99.485-42.398c2.875-2.981,2.79-7.729-0.191-10.605   c-2.982-2.875-7.73-2.789-10.605,0.192c-27.023,28.018-64.743,41.48-103.492,36.943c-38.941-4.562-72.715-26.524-92.648-60.227   c-0.494-0.843-0.988-1.686-1.465-2.48c-15.345-25.952-20.711-56.564-15.109-86.197c5.596-29.601,21.743-56.21,45.465-74.927   c56.725-44.747,107.751-96.56,151.689-154.014c8.473,4.024,18.845,7.189,30.514,7.188c4.032,0,8.222-0.378,12.538-1.229   c-3.368,17.85-5.495,50.404,13.911,80.025c1.034,1.578,2.624,2.708,4.454,3.166c2.121,0.53,46.173,11.24,75.641-4.486   c2.303,16.054,9.206,42.306,29.821,58.645c-37.073,61.959-80.598,120.572-129.485,174.288c-2.788,3.063-2.564,7.807,0.499,10.595   c1.438,1.308,3.244,1.953,5.046,1.953c2.038,0,4.069-0.826,5.549-2.452c49.514-54.405,93.603-113.769,131.167-176.522   c2.219,1.028,4.541,1.966,6.991,2.782c0.778,0.259,1.578,0.385,2.371,0.385c2.001,0,3.958-0.802,5.395-2.289   c0.652-0.675,16.105-16.85,26.188-43.159c9.369-24.447,15.677-62.562-7.481-105.306c-4.645-8.574-10.086-16.677-16.219-24.198   c17.943-19.778,32.562-42.125,43.488-66.529C480.732,22.912,480.744,20.713,479.902,18.779z M426.293,80.158   c-4.704-4.748-9.716-9.186-14.994-13.29c8.969-14.896,17.122-31.635,24.309-49.933l27.076,9.235   C453.082,45.779,440.874,63.879,426.293,80.158z"/>
</g>















</svg>
