<?xml version="1.0" encoding="utf-8"?>
<!-- Generator: Adobe Illustrator 16.0.0, SVG Export Plug-In . SVG Version: 6.00 Build 0)  -->
<!DOCTYPE svg PUBLIC "-//W3C//DTD SVG 1.1//EN" "http://www.w3.org/Graphics/SVG/1.1/DTD/svg11.dtd">
<svg version="1.1" id="Layer_1" xmlns="http://www.w3.org/2000/svg" xmlns:xlink="http://www.w3.org/1999/xlink" x="0px" y="0px"
	 width="1400px" height="980px" viewBox="0 0 1400 980" enable-background="new 0 0 1400 980" xml:space="preserve">
<rect fill="#FFC294" width="1400" height="980"/>
<g opacity="0.15">
	<path fill="#231F20" d="M867.092,464.244c51.781,37.418,124.563,16.254,150.552-41.451c2.591-5.753-1.182-11.08-5.728-12.677
		l4.286-20.998c4.836,0.912,10.399-1.793,10.265-8.14c-0.6-28.185-11.539-54.079-31.015-74.232
		c-0.861-17.209-0.711-35.142-3.934-51.986c-5.296-27.68-30.114-44.827-56.519-48.305c0-4.583,0-14.239,0-19.456c0-11-17-11-17,0
		c0,6.055,0,12.856,0,19.113c-28.057,2.524-51.467,20.139-58.294,48.647c-3.996,16.693-3.155,35.765-3.886,53.116
		C811.874,351.034,816.535,427.709,867.092,464.244z"/>
	<path fill="#231F20" d="M928.125,818.549c-0.492-5.415-4.945-8.174-9.204-8.248l-1.721-23.625c4.319,0.03,8.437-2.714,8.001-8.269
		c-0.117-1.497-0.234-2.994-0.353-4.491c33.656-1.104,69.609-7.966,77.994-40.123c0.104-0.301,0.19-0.607,0.244-0.921
		c0.149-0.62,0.235-1.226,0.265-1.814c5.169-35.884-17.371-71.018-43.002-94.131c-34.792-31.372-81.248-40.013-124.321-21.209
		c-5.641,2.462-5.433,8.131-2.411,11.931l-17.892,11.927c-2.856-3.764-8.58-5.61-13.061-1.435
		c-24.881,23.192-46.785,57.58-41.635,92.941c0.03,0.581,0.116,1.179,0.264,1.79c0.053,0.31,0.139,0.612,0.24,0.909
		c8.188,31.462,42.767,38.718,75.773,40.054c-1.637,20.894-3.274,41.727-4.911,62.62C832.029,841.137,836.588,845,841,845
		c26.717,0,53.436,0,80.152,0c4.369,0,9.028-3.866,8.604-8.545C929.213,830.467,928.669,824.537,928.125,818.549z"/>
	<path fill="#231F20" d="M134.703,320.709c4.372,37.133,22.75,70.632,57.727,86.694c36.724,16.866,81.4,9.399,111.105-17.567
		c4.734-4.298,2.705-10.131-1.43-12.902l11.528-16.888c4.318,2.118,10.769,1.089,13.094-4.739
		c11.146-27.949,12.711-59.994,0.635-87.809c-8.842-20.368-26.725-35.005-46.71-43.781c0.683-4.615-2.528-9.717-9.651-9.717
		c-25,0-48,0-73,0c-7.402,0-10.583,5.51-9.556,10.257c-25.239,11.479-45.448,32.502-52.284,61.594
		c-1.327,5.646,2.582,9.587,6.974,10.521c-0.361,3.241-0.552,6.567-0.552,9.98c0,2.084,0.046,4.138,0.132,6.166
		C138.271,312.338,134.035,315.046,134.703,320.709z"/>
	<path fill="#231F20" d="M721.071,328.792c0.024-0.703,0.054-1.405,0.054-2.114c0-5.854-0.849-11.507-2.401-16.861
		c4.106-1.961,7.12-6.913,4.558-12.21c-13.693-28.298-42.477-42.394-71.443-38.857c-2.183-37.216-31.348-65.66-68.923-66.708
		c-37.539-1.047-66.744,30.897-68.925,66.718c-21.065-2.68-42.106,4.108-58.405,19.956c-4.222,4.105-2.785,9.449,0.682,12.414
		c-3.771,5.175-6.742,10.967-8.726,17.204c-4.322-1.552-9.366-0.134-10.225,5.655c-5.115,34.434,12.612,65.412,45.148,78.04
		c7.925,3.076,16.119,4.336,24.201,4.076c15.613,13.899,31.226,27.798,46.837,41.698c0.249,0.222,0.502,0.423,0.757,0.61
		c-0.765,11.851-1.53,23.917-2.295,35.768c-0.302,4.685,4.142,8.819,8.604,8.819c16.018,0,32.037,0,48.055,0
		c4.398,0,8.99-4.139,8.604-8.819c-0.956-11.584-1.911-23.277-2.867-34.861c0.331-0.971,0.49-2.133,0.409-3.392
		c-0.016-0.247-0.032-0.521-0.048-0.768c13.334-12.472,26.669-24.957,40.004-37.429c0.755-0.706,1.333-1.459,1.756-2.224
		c34.576,1.647,65.11-21.89,72.042-56.098C729.69,333.645,725.542,329.639,721.071,328.792z M541.489,385.097
		c4.752,3.609,9.999,6.616,15.635,8.938c-0.488,7.562-0.977,15.124-1.464,22.686c-9.292-8.272-18.583-16.544-27.875-24.816
		C532.568,390.134,537.167,387.846,541.489,385.097z M612.017,393.237c4.436-2.133,8.602-4.756,12.445-7.798
		c3.718,2.355,7.688,4.345,11.875,5.927c-7.683,7.186-15.366,14.372-23.049,21.558C612.864,406.361,612.44,399.799,612.017,393.237z
		"/>
	<path fill="#231F20" d="M322.563,673.02c-15.306-12.166-25.537-24.332-35.576-41.12c-7.174-11.993-14.677-24.161-23.808-34.801
		c-1.962-2.287-4.407-3.471-7.082-4.059c6.42-15.953,12.842-31.905,19.263-47.858c4.146-10.302-12.503-14.733-16.593-4.575
		c-2.922,7.261-5.845,14.521-8.768,21.783c0-15.156,0-34.452,0-46.39c0-13-18-13-18,0c0,14.979,0,29.959,0,45.885
		c-2.855-7.093-5.71-14.186-8.565-21.278c-4.089-10.158-20.739-5.727-16.593,4.575c6.493,16.131,12.985,32.261,19.479,48.392
		c-2.625,0.803-5.047,2.257-7.213,4.873c-11.351,13.713-20.356,29.47-29.27,44.799c-2.426,4.17-0.997,8.159,1.852,10.559
		l-15.973,16.908c-3.109-2.466-7.776-3.282-11.684-0.157c-18.261,14.607-34.522,28.718-42.967,51.197
		c-8.403,22.367-6.786,49.388,3.258,70.869c15.391,32.914,53.93,48.691,87.309,55.667c7.745,1.619,15.839,2.622,24.092,3.018
		c3.607,0.978,7.308,1.137,10.975,0.155c39.1-0.719,79.972-15.146,103.799-45.049c21.853-27.424,22.374-68.725,5.567-98.783
		C348.112,693.402,335.104,682.983,322.563,673.02z"/>
	<path fill="#231F20" d="M1203.032,634c-0.005,0-0.01-0.001-0.015-0.001c-0.006,0-0.012,0.001-0.018,0.001
		C1203,634,1203.014,634,1203.032,634z"/>
	<path fill="#231F20" d="M1153.752,314.603c-10.664,12.002-12.325,28.133-11.859,43.386c0.17,5.55,4.557,8.324,8.849,8.314
		c0.28,4.5,0.649,9.375,1.097,14.564c-4.316-0.022-8.373,2.712-7.837,8.244c2.481,25.615,5.577,51.173,8.979,76.692
		c-0.49,2.372-0.179,4.959,0.946,7.05c3.507,25.877,7.301,51.717,11.077,77.538c3.499,23.935,3.513,78.946,35.637,83.229
		c0.711,0.245,1.503,0.377,2.377,0.378c0.727-0.001,1.409-0.065,2.049-0.184c32.264-2.312,32.127-51.854,35.521-74.729
		c0.821-5.538-3.141-9.459-7.433-10.522l3.193-21.661c4.142,1.188,8.7-0.367,9.498-5.866c7.871-54.255,17.086-109.108,19.38-163.953
		c0.582-13.904-1.061-24.855-8.016-37.051c-6.606-11.583-18.629-15.992-31.251-17.71c10.827-26.9,21.655-53.8,32.482-80.7
		c4.146-10.302-12.503-14.734-16.592-4.576c-4.831,12.002-9.662,24.005-14.493,36.007c3.287-17.112,6.574-34.225,9.862-51.337
		c2.082-10.841-14.501-15.466-16.593-4.575c-2.542,13.233-5.085,26.465-7.627,39.698c0-23.809,0-48.736,0-66.839c0-10-17-10-17,0
		c0,25.657,0,51.017,0,76.403c-3.154-16.421-6.309-32.842-9.464-49.262c-2.092-10.891-18.675-6.266-16.593,4.575
		c3.36,17.486,6.72,34.974,10.079,52.461c-4.982-12.377-9.964-24.754-14.946-37.131c-4.089-10.158-20.739-5.726-16.592,4.576
		c10.822,26.887,21.646,53.774,32.468,80.662C1170.574,303.676,1160.584,306.914,1153.752,314.603z M1211.979,625.032
		c0.242,0.127,0.502,0.255,0.763,0.383c-0.26,0.127-0.517,0.255-0.756,0.382C1211.995,625.542,1211.992,625.287,1211.979,625.032z"
		/>
	<path fill="#231F20" d="M621.633,609.432c-48.284-33.62-102.815-2.041-128.608,42.983c-27.256,47.576-29.452,113.671,6.817,157.029
		c33.835,40.443,100.919,44.743,141.137,11.72c4.713-3.871,8.973-8,12.998-12.582c4.25-4.841,1.897-11.008-2.254-13.657
		l12.409-24.535c4.438,2.206,10.543,1.086,12.037-5.108C689.623,709.494,669.723,642.916,621.633,609.432z"/>
	<path fill="#231F20" d="M1348.481,784c-38.487,0-76.975,0-115.462,0c4.714-2.061,9.431-4.113,14.143-6.179
		c11.11-4.87,22.422-9.21,32.591-15.877c28.246-18.521,47.353-47.054,40.126-81.699c-1.247-5.977-7.892-7.179-12.639-5.141
		c-15.041,6.451-30.082,12.903-45.123,19.354c-5.085,2.181-5.435,6.976-3.252,10.686l-20.01,8.579
		c-2.183-3.709-6.896-6.333-11.938-4.172c-55.657,23.87-111.314,47.737-166.973,71.607c-7.338,3.147-16.939,5.889-22.964,11.384
		c-8.739,7.973-12.231,20.221-10.688,31.8c-13.143,3.894-26.285,7.788-39.427,11.682c-10.613,3.146-6.091,19.753,4.574,16.594
		c13.627-4.038,27.254-8.075,40.88-12.113c2.479,3.693,5.662,6.939,9.563,9.449c8.176,5.26,17.328,5.896,26.676,4.157
		c1.384,0.061,2.773,0.097,4.167,0.108c15.567,0.131,31.133,0.272,46.702,0.401c5.547,0.046,8.318-4.228,8.32-8.525l16.955,0.13
		c0.013,4.303,2.787,8.62,8.321,8.668c33.137,0.283,66.717-1.102,99.789,0.907c42.767,2.597,94.944-13.327,103.962-60.861
		C1357.808,789.51,1354.417,784,1348.481,784z"/>
</g>
<g>
	<g>
		<line fill="#9E6C3B" x1="909" y1="197" x2="909" y2="175"/>
		<g>
			<path fill="#714500" d="M919,197c0,0,0-15,0-22c0-11-17-11-17,0c0,7,0,15,0,22C902,208,919,208,919,197C919,197,919,208,919,197z
				"/>
		</g>
	</g>
	<g>
		<path fill="#F4EB7D" d="M994.215,406.451c-14.223,33.209-46.757,56.454-84.52,56.454c-50.816,0-91.786-41.97-91.786-93.794
			c0-27.511,10.87-52.209,30.324-69.368l2.432-41.503c0-33.482,24.107-55.848,57.593-55.848h1.558
			c33.485,0,58.807,22.366,58.807,55.848l2.432,40.256c18.244,17.194,30.81,42.485,30.81,70.484"/>
		<g>
			<path fill="#86A53A" d="M986.786,402.108c-12.871,28.582-38.251,48.766-69.851,51.907c-28.733,2.857-56.904-10.914-73.925-33.843
				c-18.379-24.762-21.332-58.917-9.053-86.956c3.122-7.129,7.547-13.668,12.555-19.588c3.688-4.361,9.96-7.661,10.325-13.885
				c0.404-6.917,0.81-13.834,1.216-20.752c1.188-20.285,0.102-40.918,16.006-56.145c18.948-18.14,54.457-14.944,72.706,2.022
				c15.48,14.394,13.518,37.747,14.686,57.105c0.359,5.923-0.286,13.02,1.307,18.81c1.579,5.74,9.291,10.965,12.84,15.641
				c5.57,7.34,9.748,15.691,12.879,24.322c3.297,9.083,4.579,18.621,4.783,28.234c0.235,11.08,17.443,11.103,17.207,0
				c-0.623-29.285-12.404-56.1-33.329-76.568c0.84,2.029,1.68,4.056,2.52,6.084c-1.107-18.339-0.682-37.664-4.139-55.734
				c-5.959-31.148-36.639-48.974-66.481-48.974c-31.118,0-57.94,18.11-65.331,48.974c-4.295,17.942-3,38.634-4.076,56.981
				c0.84-2.029,1.681-4.056,2.521-6.084c-46.428,42.7-42.493,121.417,8.941,158.586c51.781,37.418,124.563,16.254,150.552-41.451
				C1006.161,400.762,991.337,392.004,986.786,402.108L986.786,402.108z"/>
		</g>
	</g>
	<g>
		<path fill="#9E6C3B" d="M877.198,350.573c-3.858,6.001-6.095,13.143-6.095,20.809c0,21.289,17.256,38.543,38.542,38.543
			s38.542-17.254,38.542-38.543c0-21.284-17.256-38.542-38.542-38.542"/>
		<g>
			<path fill="#714500" d="M869.77,346.23c-24.218,41.821,19.979,87.668,62.762,66.378c19.525-9.716,27.062-33.074,22.714-53.244
				c-4.558-21.143-25.136-34.258-45.6-35.128c-11.1-0.472-11.054,16.737,0,17.207c28.72,1.222,40.708,37.519,16.882,54.688
				c-27.054,19.494-57.311-14.602-41.9-41.215C890.198,345.294,875.325,336.634,869.77,346.23L869.77,346.23z"/>
		</g>
	</g>
</g>
<g>
	<g>
		<g>
			<path fill="#DDA692" d="M866.188,753.091c-57.799,0-105.475-0.068-112.598-34.506c25.013-9.991,66.107-10.029,112.598-10.029
				c46.494,0,87.587,0.038,112.604,10.029C971.66,753.022,923.984,753.091,866.188,753.091z"/>
			<g>
				<path fill="#B5897C" d="M866.188,744.487c-22.313-0.004-45.008,0.545-67.121-2.911c-15.985-2.498-32.999-7.888-37.18-25.279
					c-2.004,3.528-4.007,7.057-6.009,10.584c34.171-12.926,74.458-9.718,110.31-9.723c35.852-0.003,76.146-3.201,110.316,9.723
					c-2.003-3.527-4.006-7.056-6.009-10.584c-3.981,16.548-19.032,21.674-34.197,24.747
					C913.524,745.658,889.288,744.483,866.188,744.487c-11.097,0.001-11.097,17.208,0,17.207
					c36.869-0.006,109.295,7.406,120.899-40.822c1.177-4.887-1.513-8.884-6.01-10.583c-35.569-13.455-77.597-10.334-114.89-10.338
					c-37.286-0.003-79.32-3.116-114.885,10.338c-4.497,1.699-7.184,5.695-6.009,10.583c11.592,48.229,84.03,40.816,120.894,40.822
					C877.284,761.695,877.284,744.488,866.188,744.487z"/>
			</g>
		</g>
		<g>
			<path fill="#DDA692" d="M824.37,611.146c12.942-5.946,27.052-9.461,41.817-9.461c62.718,0,113.55,63.372,113.55,107.367
				c0,3.448-0.347,6.6-0.946,9.532c-25.017-9.991-66.109-10.029-112.604-10.029c-46.49,0-87.585,0.038-112.598,10.029
				c-0.604-2.933-0.956-6.084-0.956-9.532c0-24.351,15.576-54.635,40.115-76.827"/>
			<g>
				<path fill="#B5897C" d="M828.713,618.575c36.285-15.838,74.174-6.647,103.469,18.519c21.074,18.106,43.322,49.77,38.313,79.203
					c3.526-2.002,7.055-4.005,10.582-6.008c-35.569-13.455-77.597-10.334-114.89-10.338c-37.286-0.003-79.32-3.116-114.885,10.338
					c3.529,2.003,7.057,4.006,10.584,6.008c-5.038-29.368,16.822-59.229,36.947-77.986c8.132-7.582-4.063-19.725-12.169-12.17
					c-25.301,23.584-47.545,58.743-41.371,94.731c0.743,4.329,6.501,7.554,10.584,6.009c34.171-12.926,74.458-9.718,110.31-9.723
					c35.852-0.003,76.146-3.201,110.316,9.723c4.079,1.543,9.847-1.679,10.583-6.009c6.214-36.511-16.675-72.442-42.737-95.945
					c-34.792-31.372-81.248-40.013-124.321-21.209C809.88,608.147,818.648,622.968,828.713,618.575L828.713,618.575z"/>
			</g>
		</g>
		<g>
			<polyline fill="#DDA692" points="900.598,766.407 896.245,710.889 833.904,710.889 825,824.515 905.152,824.515 903.521,806.549 
							"/>
			<g>
				<path fill="#B5897C" d="M909.201,766.407c-1.451-18.507-2.901-37.013-4.353-55.519c-0.366-4.674-3.637-8.604-8.604-8.604
					c-20.78,0-41.562,0-62.341,0c-4.968,0-8.238,3.93-8.604,8.604c-2.968,37.875-5.936,75.75-8.903,113.626
					c-0.367,4.682,4.191,8.604,8.604,8.604c26.717,0,53.436,0,80.152,0c4.369,0,9.028-3.926,8.604-8.604
					c-0.543-5.988-1.087-11.978-1.631-17.966c-0.995-10.957-18.211-11.055-17.207,0c0.544,5.988,1.087,11.978,1.632,17.966
					c2.866-2.867,5.734-5.736,8.603-8.604c-26.717,0-53.436,0-80.152,0c2.867,2.867,5.736,5.736,8.604,8.604
					c2.969-37.876,5.936-75.751,8.904-113.626c-2.868,2.867-5.736,5.736-8.604,8.604c20.779,0,41.561,0,62.341,0
					c-2.867-2.867-5.736-5.736-8.604-8.604c1.45,18.506,2.901,37.012,4.353,55.519C892.855,777.393,910.069,777.477,909.201,766.407
					L909.201,766.407z"/>
			</g>
		</g>
	</g>
</g>
<g>
	<path fill="#FC4B42" d="M302.43,341.019c5.616-13.374,8.756-29.002,8.756-46.667c0-50.979-41.324-83.229-92.302-83.229
		c-50.979,0-92.302,32.25-92.302,83.229c0,64.087,41.323,101.375,92.302,101.375c24.143,0,46.119-8.362,62.566-23.975"/>
	<g>
		<path fill="#FC4B42" d="M127.306,308.709c5.712,55.263,44.535,87.017,91.578,87.017c24.143,0,46.119-8.362,62.566-23.975"/>
		<g>
			<path fill="#E03827" d="M118.703,308.709c4.372,37.133,22.75,70.632,57.727,86.694c36.724,16.866,81.4,9.399,111.105-17.567
				c8.232-7.474-3.974-19.606-12.168-12.168c-24.972,22.673-62.36,27.688-92.909,13.658c-27.894-12.81-43.075-41.114-46.547-70.616
				C134.629,297.828,117.406,297.701,118.703,308.709L118.703,308.709z"/>
		</g>
	</g>
	<g>
		<path fill="#FC4B42" d="M302.43,341.019c5.616-13.374,8.756-29.002,8.756-46.667c0-50.979-41.324-83.229-92.302-83.229
			c-44.606,0-81.82,24.691-90.427,65.016"/>
		<g>
			<path fill="#E03827" d="M310.727,343.307c11.146-27.949,12.711-59.994,0.635-87.809c-10.381-23.913-33.222-39.933-57.299-47.833
				c-53.79-17.648-120.302,8.312-133.902,66.186c-2.536,10.794,14.056,15.376,16.593,4.575
				c11.488-48.892,64.725-66.731,109.642-55.075c20.976,5.444,38.604,18.994,48.783,38.086c12.406,23.272,8.32,53.809-1.045,77.293
				C290.019,349.047,306.668,353.482,310.727,343.307L310.727,343.307z"/>
		</g>
	</g>
	<g>
		<g>
			<path fill="#4BAD3D" d="M182,219c0,0,48,0,73,0c13,0,13-17,0-17c-25,0-48,0-73,0C169,202,169,219,182,219
				C182,219,169,219,182,219z"/>
		</g>
		<g>
			<path fill="#4BAD3D" d="M226,253c0,0,0-27,0-39s-17-12-17,0s0,27,0,39C209,266,226,266,226,253C226,253,226,266,226,253z"/>
		</g>
		<g>
			<path fill="#4BAD3D" d="M193.583,247.119C203.915,237.762,214.245,228,224.577,219c-4.056,0-8.113,0-12.168,0
				c10.331,9,20.662,18.762,30.992,28.119c8.202,7.427,20.409-4.68,12.169-12.145c-10.331-9.356-20.662-18.703-30.993-28.06
				c-3.607-3.265-8.562-3.26-12.168,0.006c-10.331,9.357-20.662,18.695-30.994,28.051
				C173.175,242.437,185.38,254.546,193.583,247.119L193.583,247.119z"/>
		</g>
	</g>
</g>
<g>
	<g>
		<g>
			<polyline fill="#9EC453" points="590.164,423.874 586.95,374.06 550.242,374.06 544.568,461.965 592.623,461.965 589.349,422.29 
							"/>
			<g>
				<path fill="#86A53A" d="M598.768,423.874c-1.072-16.605-2.143-33.209-3.214-49.814c-0.301-4.679-3.685-8.604-8.604-8.604
					c-12.236,0-24.473,0-36.708,0c-4.918,0-8.301,3.925-8.603,8.604c-1.892,29.301-3.783,58.604-5.674,87.905
					c-0.302,4.685,4.142,8.604,8.604,8.604c16.018,0,32.037,0,48.055,0c4.398,0,8.99-3.923,8.604-8.604
					c-1.091-13.225-2.182-26.451-3.273-39.675c-0.905-10.978-18.121-11.066-17.207,0c1.091,13.225,2.182,26.45,3.273,39.675
					c2.868-2.868,5.736-5.736,8.604-8.604c-16.018,0-32.037,0-48.055,0c2.868,2.868,5.736,5.736,8.604,8.604
					c1.891-29.301,3.782-58.604,5.673-87.905c-2.867,2.868-5.736,5.736-8.604,8.604c12.236,0,24.473,0,36.708,0
					c-2.867-2.867-5.736-5.736-8.604-8.604c1.072,16.605,2.143,33.209,3.214,49.814
					C582.271,434.891,599.483,434.958,598.768,423.874L598.768,423.874z"/>
			</g>
		</g>
		<circle fill="#9EC453" cx="566.913" cy="249.085" r="60.441"/>
		<rect x="503" y="285" fill="#9EC453" width="116" height="52"/>
		<g>
			<path fill="#9EC453" d="M627.354,249.085c0-33.381-27.06-60.439-60.439-60.439c-33.382,0-60.442,27.058-60.442,60.439"/>
			<g>
				<path fill="#86A53A" d="M635.958,249.085c-1.069-38.359-30.683-67.973-69.042-69.042c-38.35-1.07-68.021,32.291-69.046,69.042
					c-0.31,11.103,16.899,11.072,17.207,0c0.806-28.864,22.975-51.03,51.839-51.836c28.857-0.805,51.063,24.185,51.835,51.836
					C619.059,260.158,636.268,260.188,635.958,249.085L635.958,249.085z"/>
			</g>
		</g>
		<g>
			<path fill="#9EC453" d="M506.473,318.423c0,33.382,27.06,60.438,60.442,60.438c33.379,0,60.439-27.055,60.439-60.438"/>
			<g>
				<path fill="#86A53A" d="M497.869,318.423c1.071,38.362,30.686,67.972,69.046,69.042c38.349,1.07,68.018-32.291,69.042-69.042
					c0.31-11.103-16.898-11.073-17.208,0c-0.805,28.863-22.972,51.029-51.835,51.834c-28.858,0.806-51.067-24.179-51.839-51.834
					C514.768,307.351,497.559,307.321,497.869,318.423L497.869,318.423z"/>
			</g>
		</g>
		<circle fill="#9EC453" cx="644.686" cy="314.678" r="60.439"/>
		<g>
			<path fill="#9EC453" d="M699.853,289.95c-9.451-21.052-30.597-35.715-55.164-35.715c-10.043,0-19.513,2.452-27.846,6.785"/>
			<g>
				<path fill="#86A53A" d="M707.281,285.607c-17.412-35.982-59.221-49.02-94.782-32.016c-10.008,4.784-1.272,19.619,8.685,14.857
					c27.661-13.225,58.153-1.196,71.239,25.844C697.257,304.279,712.092,295.549,707.281,285.607L707.281,285.607z"/>
			</g>
		</g>
		<g>
			<path fill="#9EC453" d="M584.247,314.678c0,33.377,27.063,60.439,60.441,60.439c29.816,0,54.593-21.597,59.538-50"/>
			<g>
				<path fill="#86A53A" d="M575.644,314.678c0.967,34.675,26.656,65.677,62.236,68.664c35.636,2.991,67.538-20.872,74.643-55.937
					c2.195-10.833-14.39-15.447-16.593-4.576c-5.419,26.746-27.341,44.352-54.67,43.589c-27.484-0.767-47.679-25.564-48.408-51.74
					C592.542,303.606,575.333,303.576,575.644,314.678L575.644,314.678z"/>
			</g>
		</g>
		<circle fill="#9EC453" cx="489.138" cy="314.678" r="60.439"/>
		<g>
			<path fill="#9EC453" d="M429.612,304.276c-5.822,32.866,16.101,64.233,48.97,70.056c28.15,4.987,55.195-10.378,66.039-35.54"/>
			<g>
				<path fill="#86A53A" d="M421.316,301.989c-5.115,34.434,12.612,65.412,45.148,78.04c33.183,12.879,71.104-5.757,85.585-36.894
					c4.649-9.994-10.182-18.739-14.857-8.686c-11.427,24.568-36.545,37.026-62.962,30.025c-24.983-6.621-40.007-33.092-36.321-57.91
					C439.521,295.714,422.941,291.045,421.316,301.989L421.316,301.989z"/>
			</g>
		</g>
		<g>
			<path fill="#9EC453" d="M516.787,261.061c-5.255-2.701-10.997-4.671-17.119-5.756c-20.544-3.64-40.5,3.56-53.999,17.496"/>
			<g>
				<path fill="#86A53A" d="M521.13,253.632c-27.994-13.354-59.218-8.624-81.544,13.084c-7.966,7.747,4.211,19.904,12.168,12.168
					c16.462-16.01,39.791-20.366,60.691-10.396C522.406,273.241,531.142,258.408,521.13,253.632L521.13,253.632z"/>
			</g>
		</g>
	</g>
	<g>
		<line fill="#9EC453" x1="591.919" y1="417.719" x2="632.64" y2="379.633"/>
		<g>
			<path fill="#86A53A" d="M598.003,423.803c13.573-12.695,27.147-25.391,40.721-38.086c8.118-7.594-4.075-19.738-12.168-12.168
				c-13.573,12.695-27.147,25.391-40.721,38.086C577.716,419.229,589.91,431.372,598.003,423.803L598.003,423.803z"/>
		</g>
	</g>
	<g>
		<line fill="#9EC453" x1="493.762" y1="375.361" x2="543.586" y2="419.718"/>
		<g>
			<path fill="#86A53A" d="M487.679,381.445c16.608,14.785,33.216,29.57,49.823,44.357c8.258,7.35,20.472-4.775,12.168-12.168
				c-16.608-14.786-33.217-29.57-49.824-44.357C491.588,361.926,479.375,374.052,487.679,381.445L487.679,381.445z"/>
		</g>
	</g>
</g>
<g>
	<g>
		<path fill="#E2BCBC" d="M154.117,664.64c-22.227,17.863-46.004,33.693-45.545,79.896c0.827,82.612,117.147,87.221,117.345,87.221
			c0.196,0,116.304-4.536,117.124-87.148c0.672-67.43-50.388-69.926-72.795-108.707c-22.248-38.507-30.84-45.9-30.84-45.9h-13.274
			h-14.136c0,0-8.481,7.394-30.729,45.9"/>
		<g>
			<path fill="#CE9F9F" d="M148.033,658.555c-18.261,14.607-34.522,28.718-42.967,51.197c-8.403,22.367-6.786,49.388,3.258,70.869
				c15.391,32.914,53.93,48.691,87.309,55.667c47.375,9.901,107.702-2.765,138.867-41.876c21.853-27.424,22.374-68.725,5.567-98.783
				c-7.954-14.227-20.962-24.646-33.502-34.609c-15.306-12.166-25.537-24.332-35.576-41.12
				c-7.174-11.993-14.677-24.161-23.808-34.801c-5.307-6.185-14.131-4.328-21.533-4.328c-8.768,0-16.603-1.493-22.54,5.676
				c-11.351,13.713-20.356,29.47-29.27,44.799c-5.59,9.611,9.283,18.271,14.857,8.686c8.421-14.48,16.889-32.789,29.385-44.46
				c-2.029,0.837-4.056,2.529-6.084,2.529c9.137,0,18.273,0,27.41,0c-2.029,0-4.056-1.692-6.084-2.529
				c10.511,9.693,17.739,24.644,24.935,36.676c11.785,19.709,25.964,32.718,43.645,47.051
				c19.021,15.423,30.715,32.914,32.388,57.912c1.492,22.28-6.137,41.719-22.786,56.523c-21.692,19.293-54.445,27.167-82.771,29.349
				c-18.693,1.44-39.787-5.032-56.974-11.386c-24.079-8.903-45.705-25.431-52.616-51.075c-4.798-17.797-1.996-38.931,6.57-55.088
				c7.737-14.593,21.886-24.63,34.489-34.708C168.866,663.792,156.606,651.697,148.033,658.555L148.033,658.555z"/>
		</g>
	</g>
	<g>
		<path fill="#DDABAB" d="M265.755,714.996c-4.307-39.854-17.758-46.995-24.29-79.096c-7.842-38.507-10.868-45.9-10.868-45.9h-4.675
			h-4.982c0,0-2.988,7.394-10.828,45.9c-7.893,38.783-25.849,41.358-25.609,108.792c0.291,82.611,41.271,87.142,41.343,87.142
			c0.067,0,37.925-4.236,41.059-78.101"/>
		<g>
			<path fill="#CE9F9F" d="M274.359,714.996c-1.654-13.747-4.378-26.89-9.468-39.793c-4.607-11.681-10.146-22.749-13.506-34.907
				c-4.816-17.417-6.037-36.112-12.49-53.094c-1.38-3.628-4.193-6.202-8.297-6.202c-3.219,0-6.438,0-9.657,0
				c-4.093,0-6.933,2.569-8.296,6.202c-4.941,13.162-7.023,27.824-9.872,41.502c-3.808,18.266-11.472,34.011-17.934,51.334
				c-8.575,22.989-9.493,48.688-8.761,72.924c0.667,22.044,4.72,45.478,16.915,64.267c7.369,11.355,23.202,26.645,38.31,22.075
				c34.489-10.429,42.607-55.118,44.208-85.607c0.582-11.095-16.627-11.037-17.207,0.001c-1.203,22.917-6.9,62.872-33.269,69.481
				c-3.849,0.964,5.305,0.805,1.813,0.042c-3.049-0.666-2.998-0.778-5.474-2.07c-10.125-5.28-16.495-15.843-20.516-26.148
				c-8.745-22.423-8.54-47.89-7.141-71.521c1.04-17.534,5.224-34.023,12.292-50.04c7.058-15.997,11.49-31.48,15.118-48.608
				c2.317-10.941,4.157-22.629,8.111-33.159c-2.765,2.105-5.531,4.327-8.296,6.327c3.219,0,6.438,0,9.657,0
				c-2.765-2-5.531-4.222-8.296-6.327c5.542,14.581,7.752,31.031,10.868,46.209c5.502,26.807,20.664,49.547,23.983,77.116
				C258.46,725.873,275.683,725.998,274.359,714.996L274.359,714.996z"/>
		</g>
	</g>
	<g>
		<line fill="#86A53A" x1="226" y1="573" x2="226" y2="504"/>
		<g>
			<path fill="#9EC453" d="M234,573c0,0,0-47,0-69c0-13-18-13-18,0c0,22,0,44,0,69C216,583,234,583,234,573C234,573,234,583,234,573
				z"/>
		</g>
	</g>
	<g>
		<line fill="#9EC453" x1="230.451" y1="582.105" x2="251.064" y2="530.894"/>
		<g>
			<path fill="#86A53A" d="M238.748,584.393c6.87-17.07,13.742-34.141,20.612-51.211c4.146-10.302-12.503-14.733-16.593-4.575
				c-6.871,17.07-13.742,34.141-20.612,51.211C218.009,590.119,234.658,594.551,238.748,584.393L238.748,584.393z"/>
		</g>
	</g>
	<g>
		<line fill="#9EC453" x1="219.752" y1="582.105" x2="199.138" y2="530.894"/>
		<g>
			<path fill="#86A53A" d="M228.048,579.817c-6.872-17.07-13.742-34.141-20.613-51.211c-4.089-10.158-20.739-5.727-16.593,4.575
				c6.871,17.07,13.742,34.141,20.613,51.211C215.545,594.551,232.194,590.119,228.048,579.817L228.048,579.817z"/>
		</g>
	</g>
</g>
<g>
	<path fill="#FF8A50" d="M1221.551,506.748c10.414-71.675,23.647-169.77,17.761-182.65c-7.186-15.716-8.312-26.315-52.312-26.326
		V300c0,0,0.925,0,0.913,0c-0.014,0-0.913,0-0.913,0v-2.228c-44,0.011-44.213,10.558-51.399,26.273
		c-8.561,18.73,22.892,217.831,27.706,253.684c4.666,34.727,21.693,35.507,23.693,35.542V615c0,0,0.899,0,0.913,0
		c0.012,0-0.913,0-0.913,0v-1.716c2-0.035,19.491-0.967,24.155-35.69c0.859-6.396,2.589-17.976,4.786-32.796"/>
	<g>
		<path fill="#FF8A50" d="M1136.604,377.111c6.397,67.031,23.286,175.117,26.71,200.618c4.667,34.727,21.686,35.507,23.686,35.542
			V615c0,0,0.899,0,0.913,0c0.012,0-0.913,0-0.913,0v-1.716c2-0.035,19.491-0.967,24.155-35.69
			c0.859-6.396,2.589-17.976,4.786-32.796"/>
		<g>
			<path fill="#F26933" d="M1128.001,377.111c5.228,53.955,13.16,107.656,21.003,161.28c3.61,24.698,3.51,82.492,38.813,83.482
				c-2.865-2.867-5.816-5.736-7.816-8.603c0,0.091,0,0.181,0,0.272c0,4.688,2.343,8.456,7.032,8.456c0.294,0-0.032,0-0.032,0
				c12,0,12-17,0-17c0,0,0.326,0,0.032,0c2.867,3,3.968,5.675,9.968,8.544c0-0.087,0-0.173,0-0.26c-6,2.867-6.417,5.735-9.286,8.604
				c33.623-1.007,33.433-51.61,36.874-74.802c1.609-10.85-15.14-15.521-16.764-4.576c-2.327,15.688-3.524,32.272-8.102,47.495
				c-1.424,4.733-4.139,10.021-8.281,12.961c-2.15,1.523-3.292,1.704-3.603,1.715c-4.688,0.14-7.839,3.808-7.839,8.604
				c0,0.087,0,0.173,0,0.26c0,4.688,2.343,8.456,7.032,8.456c0.294,0-0.032,0-0.032,0c12,0,12-17,0-17c0,0,0.326,0,0.032,0
				c2.867,3,3.968,5.675,9.968,8.544c0-0.092,0-0.182,0-0.272c0-4.79-4.598-8.473-9.286-8.604c-1.558-0.045,0.524,0.369-2.138-0.378
				c-1.709-0.481-3.312-1.862-4.576-3.092c-7.026-6.833-8.374-19.146-9.63-28.257c-2.205-16.001-4.69-31.973-7.022-47.957
				c-7.17-49.167-14.325-98.406-19.118-147.873C1144.171,366.169,1126.931,366.066,1128.001,377.111L1128.001,377.111z"/>
		</g>
	</g>
	<g>
		<path fill="#FF8A50" d="M1221.551,506.748c10.414-71.675,23.647-169.77,17.761-182.65c-7.186-15.716-8.312-26.315-52.312-26.326
			V300c0,0,0.925,0,0.913,0c-0.014,0-0.913,0-0.913,0v-2.228c-44,0.011-44.213,10.558-51.399,26.273
			c-1.391,3.043-1.718,10.85-1.282,21.943"/>
		<g>
			<path fill="#F26933" d="M1229.847,509.036c7.871-54.255,17.086-109.108,19.38-163.953c0.582-13.904-1.061-24.855-8.016-37.051
				c-10.535-18.472-34.842-18.702-53.395-18.864c-4.689-0.041-7.816,3.944-7.816,8.604c0,0.375,0,0.749,0,1.123
				c0,4.69,2.343,9.104,7.032,9.104c0.294,0-0.032,0-0.032,0c12,0,12-17,0-17c0,0,0.326,0,0.032,0c2.867,2,3.968,5.028,9.968,7.896
				c0-0.374,0-0.749,0-1.123c0-4.66-4.596-8.645-9.286-8.604c-16.445,0.144-38.024-0.001-49.962,13.434
				c-10.664,12.002-12.325,28.133-11.859,43.386c0.338,11.071,17.462,11.103,17.123,0c-0.333-10.897-0.438-22.121,6.604-31.219
				c7.682-9.925,27.385-8.299,38.22-8.394c-2.868-2.868-5.839-5.736-7.839-8.604c0,0.375,0,0.749,0,1.123
				c0,4.69,2.343,9.104,7.032,9.104c0.294,0-0.032,0-0.032,0c12,0,12-17,0-17c0,0,0.326,0,0.032,0c2.867,2,3.968,5.028,9.968,7.896
				c0-0.374,0-0.749,0-1.123c-6,2.867-6.417,5.736-9.286,8.604c15.182,0.133,33.591-1.117,41.12,14.42
				c5.258,10.849,3.577,22.27,2.837,34.095c-3.126,50.06-11.137,99.973-18.331,149.567
				C1211.766,515.31,1228.26,519.982,1229.847,509.036L1229.847,509.036z"/>
		</g>
	</g>
	<g>
		<g>
			<line fill="#86A53A" x1="1180.967" y1="284.905" x2="1162.24" y2="187.428"/>
			<g>
				<path fill="#9EC453" d="M1189.263,282.618c-6.241-32.492-12.483-64.985-18.727-97.477c-2.092-10.891-18.675-6.266-16.593,4.575
					c6.243,32.491,12.484,64.984,18.728,97.477C1174.763,298.083,1191.346,293.459,1189.263,282.618L1189.263,282.618z"/>
			</g>
		</g>
		<g>
			<line fill="#86A53A" x1="1194.197" y1="284.905" x2="1212.923" y2="187.428"/>
			<g>
				<path fill="#9EC453" d="M1202.493,287.193c6.242-32.493,12.483-64.986,18.727-97.477c2.082-10.841-14.501-15.466-16.593-4.575
					c-6.242,32.492-12.484,64.985-18.728,97.477C1183.818,293.459,1200.401,298.083,1202.493,287.193L1202.493,287.193z"/>
			</g>
		</g>
		<g>
			<line fill="#9EC453" x1="1187" y1="298" x2="1187" y2="158"/>
			<g>
				<path fill="#86A53A" d="M1197,298c0,0,0-93,0-140c0-10-17-10-17,0c0,47,0,93,0,140C1180,310,1197,310,1197,298
					C1197,298,1197,310,1197,298z"/>
			</g>
		</g>
		<g>
			<line fill="#9EC453" x1="1197.083" y1="299.415" x2="1234.146" y2="207.333"/>
			<g>
				<path fill="#86A53A" d="M1205.379,301.702c12.354-30.693,24.709-61.387,37.063-92.081c4.146-10.302-12.503-14.734-16.592-4.576
					c-12.354,30.694-24.709,61.387-37.063,92.081C1184.642,307.429,1201.29,311.86,1205.379,301.702L1205.379,301.702z"/>
			</g>
		</g>
		<g>
			<line fill="#9EC453" x1="1177.845" y1="299.415" x2="1140.78" y2="207.333"/>
			<g>
				<path fill="#86A53A" d="M1186.141,297.126c-12.354-30.694-24.71-61.387-37.064-92.081c-4.089-10.158-20.739-5.726-16.592,4.576
					c12.354,30.693,24.71,61.387,37.064,92.081C1173.639,311.86,1190.288,307.429,1186.141,297.126L1186.141,297.126z"/>
			</g>
		</g>
	</g>
	<g>
		<line fill="#FF8A50" x1="1239" y1="373" x2="1204" y2="373"/>
		<g>
			<path fill="#F26933" d="M1239,364c0,0-24,0-35,0c-10,0-10,17,0,17c11,0,24,0,35,0C1249,381,1249,364,1239,364
				C1239,364,1249,364,1239,364z"/>
		</g>
	</g>
	<g>
		<line fill="#FF8A50" x1="1174" y1="457" x2="1145" y2="457"/>
		<g>
			<path fill="#F26933" d="M1174,447c0,0-19,0-29,0c-11,0-11,18,0,18c10,0,20,0,29,0C1186,465,1186,447,1174,447
				C1174,447,1186,447,1174,447z"/>
		</g>
	</g>
</g>
<g>
	<g>
		<path fill="#BC9455" d="M651.873,750.993c2.557-9.872,3.923-20.617,3.923-32.135c0-63.713-41.831-127.006-95.255-127.006
			c-53.422,0-95.253,63.293-95.253,127.006c0,63.715,41.831,103.724,95.253,103.724c28.688,0,54.033-11.538,71.352-32.085"/>
		<g>
			<path fill="#997147" d="M660.168,753.281c13.455-55.787-6.445-122.365-54.536-155.85c-48.284-33.62-102.815-2.041-128.608,42.983
				c-27.256,47.576-29.452,113.671,6.817,157.029c33.835,40.443,100.919,44.743,141.137,11.72c4.713-3.871,8.973-8,12.998-12.582
				c7.289-8.303-4.832-20.522-12.169-12.169c-31.498,35.873-88.395,39.728-123.751,7.204
				c-36.03-33.145-33.591-91.622-15.037-132.955c18.744-41.756,62.687-74.537,107.271-48.084
				c44.206,26.228,60.678,90.884,49.285,138.128C640.975,759.491,657.568,764.065,660.168,753.281L660.168,753.281z"/>
		</g>
	</g>
	<circle fill="#997147" cx="532.204" cy="651.164" r="10.884"/>
	<circle fill="#997147" cx="571.955" cy="639.807" r="10.884"/>
	<circle fill="#997147" cx="560.598" cy="673.878" r="10.884"/>
</g>
<g>
	<g>
		<line fill="#9EC453" x1="1039.525" y1="812.656" x2="973.154" y2="832.32"/>
		<g>
			<path fill="#86A53A" d="M1037.237,804.359c-22.123,6.555-44.247,13.111-66.37,19.665c-10.613,3.146-6.091,19.753,4.574,16.594
				c22.124-6.556,44.248-13.111,66.371-19.666C1052.427,817.807,1047.903,801.199,1037.237,804.359L1037.237,804.359z"/>
		</g>
	</g>
	<g>
		<g>
			<path fill="#9EC453" d="M1137.026,834.289l98.847,0.996c0,0,86.305,8.715,96.608-54.285h-77.067h-19.445h-189.484
				c-13.304,0-26.484,9.131-26.484,22.438v6.229c0,13.307,12.021,23.884,25.326,23.884l57.831,0.479"/>
			<g>
				<path fill="#86A53A" d="M1137.026,842.894c33.137,0.283,66.717-1.102,99.789,0.907c42.767,2.597,94.944-13.327,103.962-60.861
					c1.03-5.43-2.36-10.939-8.296-10.939c-49.522,0-99.044,0-148.566,0c-37.713,0-75.426,0-113.14,0c-8.083,0-16.165,0-24.249,0
					c-23.209,0-38.298,21.077-33.5,43.172c4.848,22.33,24.049,26.886,43.701,27.048c15.567,0.131,31.133,0.272,46.702,0.401
					c11.099,0.092,11.09-17.108,0-17.2c-14.908-0.125-29.814-0.246-44.722-0.37c-5.571-0.048-11.499,0.449-17.005-0.644
					c-16.209-3.214-15.138-26.68-3.373-33.494c6.774-3.922,20.225-1.913,27.549-1.913c17.029,0,34.06,0,51.089,0
					c55.811,0,111.623,0,167.435,0c16.026,0,32.053,0,48.079,0c-2.766-3-5.532-7.109-8.296-10.739
					c-7.584,39.975-52.887,50.943-88.313,48.195c-32.609-2.531-66.128-0.528-98.847-0.808
					C1125.926,825.555,1125.936,842.798,1137.026,842.894L1137.026,842.894z"/>
			</g>
		</g>
		<g>
			<path fill="#9EC453" d="M1215.26,704.98l-182.648,78.331c-12.227,5.244-17.888,19.411-12.646,31.637l2.443,5.696
				c5.249,12.231,19.409,17.892,31.64,12.649c0,0,196.521-84.75,198.382-86.385c22.745-13.463,52.183-38.741,43.152-76.377
				l-45.123,19.355"/>
			<g>
				<path fill="#86A53A" d="M1210.918,697.552c-55.657,23.87-111.314,47.737-166.973,71.607
					c-7.338,3.147-16.939,5.889-22.964,11.384c-16.416,14.976-14.325,45.041,4.903,57.411c22.194,14.278,51.572-5.456,72.566-14.528
					c44.27-19.128,88.545-38.241,132.711-57.604c11.11-4.87,22.422-9.21,32.591-15.877c28.246-18.521,47.353-47.054,40.126-81.699
					c-1.247-5.977-7.892-7.179-12.639-5.141c-15.041,6.451-30.082,12.903-45.123,19.354c-10.171,4.362-1.396,19.181,8.686,14.856
					c15.041-6.451,30.081-12.903,45.121-19.354c-4.212-1.714-8.425-3.428-12.639-5.141c8.259,39.581-27.896,61.898-58.813,75.51
					c-33.797,14.88-67.699,29.518-101.589,44.186c-25.318,10.96-50.645,21.903-75.978,32.832
					c-20.112,8.674-34.13-25.953-13.627-34.748c8.041-3.447,16.081-6.896,24.121-10.343
					c52.735-22.616,105.468-45.231,158.203-67.848C1229.773,708.048,1220.999,693.229,1210.918,697.552L1210.918,697.552z"/>
			</g>
		</g>
	</g>
	<circle fill="#86A53A" cx="1179.233" cy="807.739" r="13.52"/>
	<circle fill="#86A53A" cx="1216.105" cy="807.739" r="13.521"/>
	<circle fill="#86A53A" cx="1252.978" cy="807.739" r="13.52"/>
</g>
</svg>
