<?xml version="1.0" encoding="utf-8"?>
<!-- Generator: Adobe Illustrator 18.0.0, SVG Export Plug-In . SVG Version: 6.00 Build 0)  -->
<!DOCTYPE svg PUBLIC "-//W3C//DTD SVG 1.1//EN" "http://www.w3.org/Graphics/SVG/1.1/DTD/svg11.dtd">
<svg version="1.1" id="Layer_1" xmlns="http://www.w3.org/2000/svg" xmlns:xlink="http://www.w3.org/1999/xlink" x="0px" y="0px"
	 viewBox="0 0 2800 2800" enable-background="new 0 0 2800 2800" xml:space="preserve">
<radialGradient id="SVGID_1_" cx="1400" cy="1400" r="1400" gradientUnits="userSpaceOnUse">
	<stop  offset="0" style="stop-color:#46164B"/>
	<stop  offset="1" style="stop-color:#161231"/>
</radialGradient>
<rect fill="url(#SVGID_1_)" width="2800" height="2800"/>
<g>
	<g>
		<linearGradient id="SVGID_2_" gradientUnits="userSpaceOnUse" x1="398.3646" y1="357.6599" x2="537.0367" y2="357.6599">
			<stop  offset="0" style="stop-color:#F1F6F1"/>
			<stop  offset="1" style="stop-color:#C1D4E1"/>
		</linearGradient>
		<path fill="url(#SVGID_2_)" d="M537.037,279.378h-74.252c-3.316,0-6.476-0.634-9.404-1.741l-55.016,160.047h138.672V279.378z"/>
		<linearGradient id="SVGID_3_" gradientUnits="userSpaceOnUse" x1="537.0367" y1="357.6599" x2="675.7087" y2="357.6599">
			<stop  offset="0" style="stop-color:#F1F6F1"/>
			<stop  offset="1" style="stop-color:#C1D4E1"/>
		</linearGradient>
		<path fill="url(#SVGID_3_)" d="M537.037,279.378v158.306h138.672l-55.016-160.047c-2.928,1.108-6.088,1.741-9.404,1.741H537.037z"
			/>
		<linearGradient id="SVGID_4_" gradientUnits="userSpaceOnUse" x1="315.5468" y1="986.5936" x2="537.0367" y2="986.5936">
			<stop  offset="0.0049" style="stop-color:#792D1F"/>
			<stop  offset="1" style="stop-color:#591E14"/>
		</linearGradient>
		<path fill="url(#SVGID_4_)" d="M398.365,437.683l-56.298,163.774c-4.807,13.983-7.26,28.668-7.26,43.454v673.617
			c-0.001,0.001-0.001,0.002-0.002,0.003c-0.613,0.804-1.203,1.625-1.79,2.449c-0.203,0.284-0.408,0.567-0.607,0.854
			c-0.542,0.779-1.07,1.568-1.589,2.364c-0.221,0.339-0.438,0.68-0.655,1.022c-0.502,0.792-0.998,1.588-1.477,2.396
			c-0.147,0.247-0.288,0.498-0.43,0.748c-1.559,2.735-3.02,5.526-4.321,8.393c-0.216,0.476-0.438,0.948-0.646,1.428
			c-0.314,0.725-0.61,1.458-0.907,2.192c-0.234,0.58-0.466,1.161-0.688,1.747c-0.266,0.7-0.524,1.403-0.774,2.111
			c-0.231,0.656-0.452,1.317-0.67,1.979c-0.218,0.664-0.438,1.326-0.641,1.996c-0.248,0.816-0.474,1.64-0.7,2.465
			c-0.147,0.536-0.307,1.067-0.445,1.607c-0.339,1.328-0.645,2.668-0.927,4.018c-0.105,0.506-0.192,1.019-0.29,1.528
			c-0.177,0.925-0.348,1.852-0.498,2.787c-0.09,0.564-0.169,1.131-0.25,1.698c-0.129,0.908-0.245,1.819-0.347,2.736
			c-0.063,0.56-0.124,1.12-0.177,1.684c-0.093,0.99-0.164,1.985-0.226,2.984c-0.03,0.484-0.069,0.965-0.092,1.451
			c-0.069,1.484-0.113,2.976-0.113,4.477v65.484c0,11.401,2.022,22.331,5.726,32.449c1.059,2.891,2.255,5.715,3.58,8.466
			c0.663,1.375,1.357,2.732,2.084,4.069c2.905,5.349,6.313,10.385,10.16,15.046c0.962,1.165,1.951,2.307,2.966,3.424
			c16.248,17.877,39.264,29.492,65.001,30.796c1.608,0.082,3.228,0.123,4.856,0.123h127.116V437.683H398.365z"/>
		<linearGradient id="SVGID_5_" gradientUnits="userSpaceOnUse" x1="537.0367" y1="986.5936" x2="758.5265" y2="986.5936">
			<stop  offset="0.0049" style="stop-color:#792D1F"/>
			<stop  offset="1" style="stop-color:#591E14"/>
		</linearGradient>
		<path fill="url(#SVGID_5_)" d="M758.414,1371.168c-0.023-0.486-0.061-0.967-0.091-1.451c-0.062-0.998-0.134-1.994-0.227-2.984
			c-0.053-0.563-0.113-1.123-0.176-1.684c-0.103-0.916-0.219-1.828-0.348-2.736c-0.08-0.567-0.159-1.134-0.25-1.698
			c-0.15-0.934-0.32-1.862-0.498-2.787c-0.097-0.509-0.184-1.022-0.29-1.528c-0.282-1.35-0.589-2.69-0.927-4.018
			c-0.137-0.54-0.298-1.071-0.445-1.607c-0.226-0.825-0.452-1.649-0.7-2.465c-0.204-0.67-0.424-1.332-0.641-1.996
			c-0.218-0.662-0.438-1.323-0.67-1.979c-0.25-0.708-0.508-1.411-0.774-2.111c-0.223-0.586-0.455-1.167-0.688-1.747
			c-0.296-0.734-0.593-1.467-0.907-2.192c-0.208-0.48-0.43-0.953-0.645-1.428c-1.295-2.857-2.749-5.637-4.303-8.362
			c-0.149-0.26-0.296-0.521-0.448-0.779c-0.479-0.808-0.974-1.604-1.476-2.396c-0.217-0.342-0.435-0.683-0.656-1.022
			c-0.518-0.796-1.046-1.585-1.589-2.364c-0.199-0.287-0.404-0.569-0.607-0.854c-0.587-0.825-1.179-1.646-1.792-2.451
			c0,0,0,0,0-0.001V644.91c0-14.786-2.453-29.469-7.26-43.451l-56.298-163.775H537.037v1097.82h127.116
			c1.629,0,3.248-0.041,4.857-0.123c25.736-1.305,48.752-12.919,65.001-30.796c1.015-1.117,2.005-2.259,2.966-3.424
			c3.847-4.661,7.254-9.698,10.16-15.046c0.727-1.337,1.421-2.694,2.084-4.069c1.326-2.75,2.522-5.575,3.58-8.466
			c3.705-10.118,5.726-21.047,5.726-32.449v-65.484C758.526,1374.144,758.483,1372.653,758.414,1371.168z"/>
	</g>
	<g>
		<path fill="#471C16" d="M440.387,1254.308h-46.207c-8.137,0-14.733-6.596-14.733-14.733V729.761
			c0-8.137,6.596-14.733,14.733-14.733h46.207c8.137,0,14.733,6.596,14.733,14.733v509.814
			C455.12,1247.711,448.524,1254.308,440.387,1254.308z"/>
		<path fill="#471C16" d="M560.14,1254.308h-46.207c-8.137,0-14.733-6.596-14.733-14.733V729.761
			c0-8.137,6.596-14.733,14.733-14.733h46.207c8.137,0,14.733,6.596,14.733,14.733v509.814
			C574.874,1247.711,568.277,1254.308,560.14,1254.308z"/>
		<path fill="#471C16" d="M679.894,1256.234h-46.207c-8.137,0-14.733-6.596-14.733-14.733V731.687
			c0-8.137,6.596-14.733,14.733-14.733h46.207c8.137,0,14.733,6.596,14.733,14.733V1241.5
			C694.627,1249.637,688.031,1256.234,679.894,1256.234z"/>
	</g>
	<g>
		<linearGradient id="SVGID_6_" gradientUnits="userSpaceOnUse" x1="436.1661" y1="219.8586" x2="537.0367" y2="219.8586">
			<stop  offset="0.0049" style="stop-color:#EE6848"/>
			<stop  offset="1" style="stop-color:#D95830"/>
		</linearGradient>
		<path fill="url(#SVGID_6_)" d="M462.784,160.339c-14.701,0-26.618,11.917-26.618,26.618v65.802
			c0,11.385,7.161,21.073,17.214,24.877c2.928,1.108,6.088,1.741,9.404,1.741h74.252V160.339H462.784z"/>
		<linearGradient id="SVGID_7_" gradientUnits="userSpaceOnUse" x1="537.0367" y1="219.8586" x2="637.9072" y2="219.8586">
			<stop  offset="0.0049" style="stop-color:#EE6848"/>
			<stop  offset="1" style="stop-color:#D95830"/>
		</linearGradient>
		<path fill="url(#SVGID_7_)" d="M611.289,160.339h-74.252v119.039h74.252c3.316,0,6.476-0.634,9.404-1.741
			c10.053-3.803,17.214-13.491,17.214-24.877v-65.802C637.907,172.257,625.99,160.339,611.289,160.339z"/>
	</g>
</g>
<g>
	<g>
		<path fill="#FFFFFF" d="M1651.434,2575.625h149.185c20.853,0,38.108-16.22,39.396-37.033l39.377-636.217h-227.958V2575.625z"/>
		<path fill="#FFFFFF" d="M1423.476,1902.375l39.376,636.217c1.288,20.813,18.543,37.033,39.396,37.033h149.185v-673.25H1423.476z"
			/>
		<path fill="#DEF1F0" d="M1909.536,1833.193c0.027,0.624,0.094,1.238,0.094,1.868v-1.868H1909.536z"/>
		<path fill="#DEF1F0" d="M1393.238,1833.193v1.868c0-0.631,0.068-1.244,0.094-1.868H1393.238z"/>
		<linearGradient id="SVGID_8_" gradientUnits="userSpaceOnUse" x1="1651.434" y1="1869.0195" x2="1909.6298" y2="1869.0195">
			<stop  offset="0" style="stop-color:#F1F6F1"/>
			<stop  offset="1" style="stop-color:#C1D4E1"/>
		</linearGradient>
		<path fill="url(#SVGID_8_)" d="M1651.434,1835.664v32.12v34.591h227.958h5.082c13.893,0,25.156-11.263,25.156-25.157v-41.554
			H1651.434z"/>
		<linearGradient id="SVGID_9_" gradientUnits="userSpaceOnUse" x1="1393.238" y1="1869.0195" x2="1651.434" y2="1869.0195">
			<stop  offset="0" style="stop-color:#F1F6F1"/>
			<stop  offset="1" style="stop-color:#C1D4E1"/>
		</linearGradient>
		<path fill="url(#SVGID_9_)" d="M1393.238,1835.664v41.554c0,13.894,11.263,25.157,25.157,25.157h5.081h227.958v-34.591v-32.12
			H1393.238z"/>
		<path fill="#FFFFFF" d="M1651.434,1792.136v41.057h258.102c-0.986-22.833-19.755-41.057-42.831-41.057h-13.922h-156.875H1651.434z
			"/>
		<path fill="#FFFFFF" d="M1651.434,1792.136h-44.474h-156.875h-13.922c-23.076,0-41.845,18.223-42.831,41.057h258.102V1792.136z"/>
		<path fill="#FFFFFF" d="M1651.434,1833.193v2.471h258.196v-0.602c0-0.631-0.068-1.244-0.094-1.868H1651.434z"/>
		<path fill="#FFFFFF" d="M1651.434,1833.193h-258.102c-0.026,0.624-0.094,1.238-0.094,1.868v0.602h258.196V1833.193z"/>
		<linearGradient id="SVGID_10_" gradientUnits="userSpaceOnUse" x1="1450.0852" y1="1772.3702" x2="1651.434" y2="1772.3702">
			<stop  offset="0" style="stop-color:#F1F6F1"/>
			<stop  offset="1" style="stop-color:#C1D4E1"/>
		</linearGradient>
		<path fill="url(#SVGID_10_)" d="M1606.96,1772.37h44.474v-19.766h-174.722c-14.706,0-26.627,11.922-26.627,26.627v12.905h156.875
			V1772.37z"/>
		<linearGradient id="SVGID_11_" gradientUnits="userSpaceOnUse" x1="1651.434" y1="1772.3702" x2="1852.7827" y2="1772.3702">
			<stop  offset="0" style="stop-color:#F1F6F1"/>
			<stop  offset="1" style="stop-color:#C1D4E1"/>
		</linearGradient>
		<path fill="url(#SVGID_11_)" d="M1695.908,1772.37v19.766h156.875v-12.905c0-14.706-11.922-26.627-26.627-26.627h-174.722v19.766
			H1695.908z"/>
		<linearGradient id="SVGID_12_" gradientUnits="userSpaceOnUse" x1="1606.96" y1="1782.2533" x2="1651.434" y2="1782.2533">
			<stop  offset="0" style="stop-color:#708A92"/>
			<stop  offset="1" style="stop-color:#78A4B9"/>
		</linearGradient>
		<rect x="1606.96" y="1772.37" fill="url(#SVGID_12_)" width="44.474" height="19.766"/>
		<linearGradient id="SVGID_13_" gradientUnits="userSpaceOnUse" x1="1651.434" y1="1782.2533" x2="1695.9078" y2="1782.2533">
			<stop  offset="0" style="stop-color:#708A92"/>
			<stop  offset="1" style="stop-color:#78A4B9"/>
		</linearGradient>
		<rect x="1651.434" y="1772.37" fill="url(#SVGID_13_)" width="44.474" height="19.766"/>
	</g>
	<g>
		<linearGradient id="SVGID_14_" gradientUnits="userSpaceOnUse" x1="1482.1027" y1="2199.7126" x2="1651.434" y2="2199.7126">
			<stop  offset="0" style="stop-color:#F1F6F1"/>
			<stop  offset="1" style="stop-color:#C1D4E1"/>
		</linearGradient>
		<path fill="url(#SVGID_14_)" d="M1482.103,2199.713c0,93.519,75.812,169.331,169.331,169.331v-338.663
			C1557.915,2030.381,1482.103,2106.193,1482.103,2199.713z"/>
		<linearGradient id="SVGID_15_" gradientUnits="userSpaceOnUse" x1="1651.434" y1="2199.7126" x2="1820.7651" y2="2199.7126">
			<stop  offset="0" style="stop-color:#F1F6F1"/>
			<stop  offset="1" style="stop-color:#C1D4E1"/>
		</linearGradient>
		<path fill="url(#SVGID_15_)" d="M1651.434,2030.381v338.663c93.519,0,169.331-75.812,169.331-169.331
			C1820.765,2106.193,1744.953,2030.381,1651.434,2030.381z"/>
	</g>
	<g>
		<path fill="#6F2616" d="M1645.21,2212.773c-0.554-4.526-1.22-9.01-1.863-13.345c-4.532-30.538-8.819-59.554,25.627-93.97
			c-32.235-0.713-66.918,25.765-83.839,67.123c-16.046,39.218-11.326,80.097,9.233,103.056
			C1604.318,2271.108,1649.569,2248.446,1645.21,2212.773z"/>
		<path fill="#582014" d="M1717.732,2226.831c19.217-46.969,8.656-96.326-23.242-114.415c-36.844,30.892-33.74,52.005-29.031,83.729
			c0.665,4.476,1.351,9.104,1.939,13.914c5.083,41.591-31.241,68.3-52.334,80.136
			C1651.59,2304.658,1697.437,2276.436,1717.732,2226.831z"/>
	</g>
</g>
<g>
	<linearGradient id="SVGID_16_" gradientUnits="userSpaceOnUse" x1="1199.6222" y1="1282.0641" x2="1405.3462" y2="1282.0641">
		<stop  offset="0" style="stop-color:#EF445D"/>
		<stop  offset="1" style="stop-color:#EB2358"/>
	</linearGradient>
	<path fill="url(#SVGID_16_)" d="M1199.622,1023.712v423.555c0,51.445,41.704,93.149,93.149,93.149h112.575v-516.704H1199.622z"/>
	<linearGradient id="SVGID_17_" gradientUnits="userSpaceOnUse" x1="1405.3462" y1="1282.0641" x2="1743.0245" y2="1282.0641">
		<stop  offset="0" style="stop-color:#EF445D"/>
		<stop  offset="1" style="stop-color:#EB2358"/>
	</linearGradient>
	<path fill="url(#SVGID_17_)" d="M1648.475,1107.195h-37.404v-83.483h-205.724v516.704h112.575
		c51.445,0,93.149-41.704,93.149-93.149v-32.599h37.404c52.135,0,94.55-42.415,94.55-94.55v-118.373
		C1743.025,1149.61,1700.61,1107.195,1648.475,1107.195z M1695.23,1320.118c0,25.781-20.975,46.755-46.755,46.755h-37.404V1154.99
		h37.404c25.781,0,46.755,20.974,46.755,46.755V1320.118z"/>
	<g>
		<rect x="1494.701" y="1023.712" fill="#F9F39D" width="10.39" height="147.224"/>
	</g>
	<g>
		<path fill="#FFFFFF" d="M1289.978,953.059c0,0,0.485-0.764,1.325-2.215c0.854-1.44,1.996-3.618,3.358-6.388
			c1.343-2.782,2.867-6.189,4.327-10.159c1.461-3.967,2.872-8.493,3.945-13.471c1.083-4.972,1.827-10.395,1.972-16.086
			c0.159-5.69-0.314-11.643-1.515-17.64c-0.639-2.992-1.4-6.003-2.366-8.999c-0.207-0.757-0.481-1.499-0.771-2.239
			c-0.279-0.742-0.559-1.485-0.839-2.231c-0.501-1.508-1.229-2.955-1.847-4.44c-2.67-5.87-5.958-11.619-9.753-17.095
			c-2.049-2.815-4.098-5.63-6.139-8.434c-1.067-1.566-2.253-3.297-3.217-4.946c-0.961-1.663-1.938-3.305-2.779-5.028
			c-0.903-1.683-1.672-3.434-2.444-5.169c-0.398-0.861-0.691-1.771-1.037-2.65c-0.325-0.889-0.687-1.758-0.956-2.664
			c-1.218-3.563-2.103-7.191-2.745-10.785c-0.564-3.61-0.974-7.174-1.013-10.669c-0.03-0.872,0.008-1.74,0.01-2.6
			c0.006-0.861,0.018-1.715,0.081-2.561c0.05-0.845,0.099-1.686,0.149-2.52c0.092-0.829,0.183-1.653,0.274-2.471
			c0.764-6.536,2.392-12.492,4.274-17.761c3.89-10.531,8.905-18.266,12.656-23.371c1.863-2.57,3.508-4.449,4.586-5.748
			c1.115-1.276,1.729-1.936,1.729-1.936s-0.349,0.83-1.003,2.387c-0.662,1.546-1.578,3.836-2.693,6.734
			c-1.103,2.903-2.387,6.427-3.621,10.498c-1.235,4.068-2.437,8.677-3.34,13.707c-0.408,2.522-0.847,5.129-1.052,7.839
			c-0.14,1.35-0.205,2.723-0.298,4.11c-0.031,1.39-0.107,2.795-0.062,4.215c-0.002,2.84,0.216,5.73,0.56,8.647
			c0.396,2.913,0.924,5.85,1.667,8.781c0.829,2.909,1.701,5.845,2.895,8.714c1.205,2.859,2.527,5.712,4.105,8.477
			c0.744,1.403,1.625,2.747,2.476,4.109c0.415,0.706,0.883,1.288,1.311,1.94c0.451,0.651,0.825,1.255,1.334,1.949
			c2.162,2.902,4.332,5.816,6.502,8.729c4.241,6.264,8.011,12.94,10.809,19.967c1.452,3.487,2.586,7.087,3.524,10.682
			c0.215,0.905,0.43,1.808,0.644,2.708c0.213,0.899,0.438,1.79,0.573,2.703c0.149,0.907,0.297,1.811,0.444,2.711
			c0.14,0.901,0.301,1.792,0.365,2.698c0.854,7.186,0.623,14.223-0.376,20.701c-1.003,6.486-2.776,12.411-4.892,17.613
			c-2.127,5.205-4.586,9.698-7.024,13.471c-2.443,3.773-4.851,6.839-6.96,9.235c-2.093,2.409-3.928,4.119-5.168,5.273
			C1290.708,952.522,1289.978,953.059,1289.978,953.059z"/>
		<path fill="#FFFFFF" d="M1389.191,953.059c0,0,0.631-0.921,1.723-2.684c1.105-1.752,2.605-4.397,4.382-7.79
			c1.758-3.404,3.754-7.589,5.684-12.49c1.929-4.897,3.805-10.508,5.264-16.708c1.468-6.194,2.514-12.982,2.797-20.136
			c0.298-7.152-0.204-14.667-1.652-22.248c-0.311-1.903-0.882-3.777-1.28-5.69c-0.188-0.959-0.489-1.899-0.771-2.845
			c-0.28-0.945-0.562-1.894-0.844-2.846c-0.146-0.474-0.269-0.955-0.433-1.425l-0.52-1.406c-0.345-0.938-0.692-1.879-1.039-2.822
			c-0.623-1.907-1.532-3.734-2.304-5.61c-3.327-7.42-7.464-14.663-12.224-21.549c-2.556-3.503-5.112-7.007-7.658-10.497
			c-1.307-1.917-2.735-3.998-3.922-6.008c-1.179-2.027-2.38-4.028-3.411-6.126c-1.109-2.051-2.052-4.183-3.001-6.295
			c-0.491-1.047-0.853-2.155-1.281-3.224c-0.401-1.082-0.85-2.14-1.182-3.242c-1.507-4.336-2.604-8.752-3.423-13.128
			c-0.721-4.396-1.243-8.742-1.335-13.006c-0.047-1.064-0.01-2.124-0.017-3.175c-0.002-1.051,0.003-2.095,0.07-3.13
			c0.051-1.034,0.102-2.061,0.153-3.082c0.102-1.015,0.202-2.024,0.303-3.025c0.847-8.004,2.745-15.331,4.957-21.838
			c2.285-6.495,4.929-12.175,7.551-17.018c2.627-4.843,5.215-8.86,7.463-12.071c2.221-3.227,4.173-5.608,5.461-7.248
			c1.342-1.601,2.058-2.455,2.058-2.455s-0.463,1.011-1.331,2.906c-0.424,0.947-0.948,2.116-1.563,3.489
			c-0.574,1.392-1.283,2.96-2.005,4.745c-1.463,3.559-3.162,7.892-4.81,12.919c-1.649,5.023-3.263,10.737-4.509,17.003
			c-0.569,3.143-1.169,6.399-1.485,9.791c-0.207,1.69-0.31,3.412-0.453,5.152c-0.058,0.871-0.07,1.75-0.109,2.633
			c-0.039,0.883-0.07,1.77-0.048,2.664c-0.056,3.573,0.18,7.22,0.566,10.907c0.448,3.683,1.089,7.401,1.989,11.118
			c1.006,3.69,2.089,7.415,3.573,11.057c1.495,3.631,3.148,7.252,5.132,10.756c0.934,1.778,2.039,3.482,3.108,5.207
			c0.52,0.891,1.114,1.644,1.657,2.474c0.57,0.826,1.058,1.61,1.692,2.477c2.667,3.588,5.344,7.19,8.021,10.792
			c5.207,7.675,9.826,15.844,13.28,24.421c1.786,4.26,3.192,8.65,4.363,13.037c0.269,1.105,0.536,2.206,0.803,3.303
			c0.266,1.097,0.548,2.185,0.717,3.298c0.188,1.107,0.376,2.209,0.563,3.307c0.179,1.099,0.385,2.187,0.47,3.292
			c1.1,8.771,0.899,17.369-0.239,25.308c-1.141,7.95-3.216,15.238-5.717,21.663c-2.512,6.429-5.435,12.006-8.342,16.709
			c-2.912,4.704-5.793,8.547-8.316,11.566c-2.508,3.031-4.701,5.209-6.192,6.675
			C1390.066,952.366,1389.191,953.059,1389.191,953.059z"/>
		<path fill="#FFFFFF" d="M1489.438,953.059c0,0,0.486-0.764,1.325-2.215c0.854-1.44,1.996-3.618,3.358-6.388
			c1.343-2.782,2.867-6.189,4.327-10.159c1.461-3.967,2.872-8.493,3.945-13.471c1.083-4.972,1.827-10.395,1.972-16.086
			c0.159-5.69-0.314-11.643-1.515-17.64c-0.639-2.992-1.4-6.003-2.366-8.999c-0.207-0.757-0.481-1.499-0.771-2.239
			c-0.279-0.742-0.559-1.485-0.839-2.231c-0.501-1.508-1.229-2.955-1.847-4.44c-2.67-5.87-5.958-11.619-9.753-17.095
			c-2.049-2.815-4.098-5.63-6.139-8.434c-1.067-1.566-2.253-3.297-3.217-4.946c-0.961-1.663-1.938-3.305-2.779-5.028
			c-0.903-1.683-1.672-3.434-2.444-5.169c-0.398-0.861-0.691-1.771-1.037-2.65c-0.325-0.889-0.687-1.758-0.956-2.664
			c-1.218-3.563-2.103-7.191-2.745-10.785c-0.564-3.61-0.973-7.174-1.013-10.669c-0.03-0.872,0.008-1.74,0.01-2.6
			c0.007-0.861,0.018-1.715,0.081-2.561c0.05-0.845,0.1-1.686,0.149-2.52c0.092-0.829,0.183-1.653,0.274-2.471
			c0.764-6.536,2.392-12.492,4.274-17.761c3.89-10.531,8.905-18.266,12.656-23.371c1.863-2.57,3.508-4.449,4.586-5.748
			c1.115-1.276,1.729-1.936,1.729-1.936s-0.349,0.83-1.003,2.387c-0.661,1.546-1.578,3.836-2.693,6.734
			c-1.103,2.903-2.387,6.427-3.621,10.498c-1.235,4.068-2.437,8.677-3.34,13.707c-0.408,2.522-0.847,5.129-1.052,7.839
			c-0.14,1.35-0.205,2.723-0.298,4.11c-0.031,1.39-0.107,2.795-0.062,4.215c-0.002,2.84,0.216,5.73,0.56,8.647
			c0.396,2.913,0.924,5.85,1.667,8.781c0.829,2.909,1.702,5.845,2.895,8.714c1.205,2.859,2.527,5.712,4.105,8.477
			c0.744,1.403,1.625,2.747,2.476,4.109c0.415,0.706,0.883,1.288,1.311,1.94c0.451,0.651,0.824,1.255,1.334,1.949
			c2.162,2.902,4.332,5.816,6.502,8.729c4.241,6.264,8.011,12.94,10.809,19.967c1.452,3.487,2.586,7.087,3.524,10.682
			c0.215,0.905,0.43,1.808,0.644,2.708c0.213,0.899,0.438,1.79,0.573,2.703c0.148,0.907,0.296,1.811,0.444,2.711
			c0.14,0.901,0.301,1.792,0.365,2.698c0.854,7.186,0.623,14.223-0.376,20.701c-1.003,6.486-2.776,12.411-4.892,17.613
			c-2.127,5.205-4.585,9.698-7.024,13.471c-2.443,3.773-4.851,6.839-6.96,9.235c-2.093,2.409-3.928,4.119-5.168,5.273
			C1490.167,952.522,1489.438,953.059,1489.438,953.059z"/>
	</g>
	<g>
		<linearGradient id="SVGID_18_" gradientUnits="userSpaceOnUse" x1="1194.9525" y1="1447.9014" x2="1279.0698" y2="1538.1061">
			<stop  offset="0" style="stop-color:#BEDA79"/>
			<stop  offset="0.9951" style="stop-color:#6CBF5A"/>
		</linearGradient>
		<path fill="url(#SVGID_18_)" d="M1268.76,1543.539c43.735-27.477,70.555-71.693,77.389-119.1
			c-45.676-14.419-97.15-9.447-140.886,18.03s-70.555,71.693-77.389,119.1C1173.55,1575.988,1225.024,1571.016,1268.76,1543.539z"/>
	</g>
	<g>
		<linearGradient id="SVGID_19_" gradientUnits="userSpaceOnUse" x1="1115.858" y1="1360.4612" x2="1314.9252" y2="1360.4612">
			<stop  offset="0" style="stop-color:#A4CF5C"/>
			<stop  offset="0.9951" style="stop-color:#6CBF5A"/>
		</linearGradient>
		<path fill="url(#SVGID_19_)" d="M1276.764,1403.297c37.072-53.115,46.424-117.289,31.136-175.378
			c-59.798,5.682-116.81,36.592-153.882,89.707c-37.072,53.115-46.424,117.289-31.136,175.378
			C1182.68,1487.321,1239.693,1456.412,1276.764,1403.297z"/>
	</g>
	<g>
		<g>
			<g>
				<circle fill="#FDE679" cx="1087.601" cy="1434.261" r="127.792"/>
				<path fill="#F9F39D" d="M1087.601,1306.469c70.578,0,127.792,57.214,127.792,127.792c0,70.578-57.214,127.792-127.792,127.792"
					/>
			</g>
			<g>
				<path fill="#FFCE34" d="M1087.601,1572.443c-76.195,0-138.182-61.989-138.182-138.182c0-76.194,61.988-138.182,138.182-138.182
					c76.193,0,138.18,61.989,138.18,138.182C1225.782,1510.455,1163.794,1572.443,1087.601,1572.443z M1087.601,1316.859
					c-64.735,0-117.402,52.666-117.402,117.402c0,64.736,52.667,117.402,117.402,117.402s117.4-52.666,117.4-117.402
					C1205.001,1369.525,1152.337,1316.859,1087.601,1316.859z"/>
			</g>
		</g>
		<g>
			<rect x="1080.328" y="1306.469" fill="#FFCE34" width="14.546" height="255.584"/>
		</g>
		<g>
			
				<rect x="959.809" y="1426.988" transform="matrix(0.7071 0.7071 -0.7071 0.7071 1332.7266 -348.9643)" fill="#FFCE34" width="255.584" height="14.546"/>
		</g>
		<g>
			<rect x="959.809" y="1426.988" fill="#FFCE34" width="255.582" height="14.546"/>
		</g>
		<g>
			
				<rect x="1080.327" y="1306.469" transform="matrix(0.707 0.7072 -0.7072 0.707 1332.9025 -348.9401)" fill="#FFCE34" width="14.546" height="255.584"/>
		</g>
	</g>
	<g>
		<linearGradient id="SVGID_20_" gradientUnits="userSpaceOnUse" x1="1499.8961" y1="1227.9186" x2="1572.6268" y2="1227.9186">
			<stop  offset="0" style="stop-color:#E5E779"/>
			<stop  offset="0.9951" style="stop-color:#D1C26F"/>
		</linearGradient>
		<rect x="1499.896" y="1154.363" fill="url(#SVGID_20_)" width="72.731" height="147.111"/>
		<linearGradient id="SVGID_21_" gradientUnits="userSpaceOnUse" x1="1427.1654" y1="1227.9186" x2="1499.8961" y2="1227.9186">
			<stop  offset="0" style="stop-color:#E5E779"/>
			<stop  offset="0.9951" style="stop-color:#D1C26F"/>
		</linearGradient>
		<rect x="1427.165" y="1154.363" fill="url(#SVGID_21_)" width="72.731" height="147.111"/>
		<linearGradient id="SVGID_22_" gradientUnits="userSpaceOnUse" x1="1510.7098" y1="1291.3901" x2="1561.8132" y2="1346.1918">
			<stop  offset="0" style="stop-color:#BEDA79"/>
			<stop  offset="0.9951" style="stop-color:#9DB470"/>
		</linearGradient>
		<polygon fill="url(#SVGID_22_)" points="1499.896,1301.474 1499.896,1318.791 1499.896,1336.108 1572.627,1336.108 
			1572.627,1318.791 1572.627,1301.474 		"/>
		<linearGradient id="SVGID_23_" gradientUnits="userSpaceOnUse" x1="1427.1654" y1="1318.791" x2="1499.8961" y2="1318.791">
			<stop  offset="0" style="stop-color:#BEDA79"/>
			<stop  offset="0.9951" style="stop-color:#9DB470"/>
		</linearGradient>
		<polygon fill="url(#SVGID_23_)" points="1427.165,1301.474 1427.165,1318.791 1427.165,1336.108 1499.896,1336.108 
			1499.896,1318.791 1499.896,1301.474 		"/>
		<linearGradient id="SVGID_24_" gradientUnits="userSpaceOnUse" x1="1499.8961" y1="1137.0463" x2="1572.6268" y2="1137.0463">
			<stop  offset="0" style="stop-color:#BEDA79"/>
			<stop  offset="0.9951" style="stop-color:#9DB470"/>
		</linearGradient>
		<polygon fill="url(#SVGID_24_)" points="1499.896,1119.729 1499.896,1137.046 1499.896,1154.363 1572.627,1154.363 
			1572.627,1137.046 1572.627,1119.729 		"/>
		<linearGradient id="SVGID_25_" gradientUnits="userSpaceOnUse" x1="1437.9791" y1="1109.6455" x2="1489.0824" y2="1164.447">
			<stop  offset="0" style="stop-color:#BEDA79"/>
			<stop  offset="0.9951" style="stop-color:#9DB470"/>
		</linearGradient>
		<polygon fill="url(#SVGID_25_)" points="1427.165,1119.729 1427.165,1137.046 1427.165,1154.363 1499.896,1154.363 
			1499.896,1137.046 1499.896,1119.729 		"/>
	</g>
</g>
<g>
	<path fill="none" d="M2465.187,1210.235h-28.353l-6.05,189.022h34.403c22.898,0,41.528-18.63,41.528-41.528v-105.967
		C2506.715,1228.865,2488.085,1210.235,2465.187,1210.235z"/>
	<path fill="none" d="M2238.458,1002.244c-0.34,0.558-0.647,1.138-0.998,1.689c0.341,0.325,0.663,0.669,0.998,0.999
		c0.336-0.33,0.657-0.674,0.999-0.999C2239.104,1003.382,2238.797,1002.802,2238.458,1002.244z"/>
	<linearGradient id="SVGID_26_" gradientUnits="userSpaceOnUse" x1="2037.6963" y1="1352.8326" x2="2243.5583" y2="1352.8326">
		<stop  offset="0" style="stop-color:#9DA6B5"/>
		<stop  offset="1" style="stop-color:#C1D4E1"/>
	</linearGradient>
	<path fill="url(#SVGID_26_)" d="M2130.698,1526.704c-23.977,0-43.627-19.031-44.394-42.996l-11.013-344.12
		c-3.088,0.311-6.218,0.479-9.388,0.479c-9.835,0-19.308-1.536-28.207-4.363l11.634,363.551
		c1.261,39.41,33.574,70.705,73.004,70.705h121.19l0.034-43.257H2130.698z"/>
	<linearGradient id="SVGID_27_" gradientUnits="userSpaceOnUse" x1="2243.5247" y1="1352.8326" x2="2543.9463" y2="1352.8326">
		<stop  offset="0" style="stop-color:#9DA6B5"/>
		<stop  offset="1" style="stop-color:#C1D4E1"/>
	</linearGradient>
	<path fill="url(#SVGID_27_)" d="M2465.187,1173.003h-27.162l1.194-37.299c-8.899,2.827-18.372,4.363-28.207,4.363
		c-3.17,0-6.301-0.168-9.388-0.479l-11.012,344.12c-0.767,23.965-20.416,42.996-44.394,42.996h-102.659l-0.034,43.257h111.056
		c39.43,0,71.743-31.295,73.004-70.705l2.008-62.767h35.594c43.427,0,78.759-35.331,78.759-78.759v-105.967
		C2543.946,1208.334,2508.614,1173.003,2465.187,1173.003z M2506.715,1357.729c0,22.898-18.63,41.528-41.528,41.528h-34.403
		l6.05-189.022h28.353c22.898,0,41.528,18.63,41.528,41.528V1357.729z"/>
	<linearGradient id="SVGID_28_" gradientUnits="userSpaceOnUse" x1="2243.5583" y1="1329.5236" x2="2401.6235" y2="1329.5236">
		<stop  offset="0" style="stop-color:#FDDE3F"/>
		<stop  offset="1" style="stop-color:#FDE679"/>
	</linearGradient>
	<path fill="url(#SVGID_28_)" d="M2303.613,1164.411c-22.752,0-43.588-8.174-59.758-21.732l-0.297,384.025h102.659
		c23.978,0,43.627-19.031,44.394-42.996l11.012-344.12c-9.774-0.984-19.102-3.477-27.749-7.245
		C2356.809,1151.979,2331.671,1164.411,2303.613,1164.411z"/>
	<linearGradient id="SVGID_29_" gradientUnits="userSpaceOnUse" x1="2075.2915" y1="1329.5236" x2="2243.8555" y2="1329.5236">
		<stop  offset="0" style="stop-color:#FDDE3F"/>
		<stop  offset="1" style="stop-color:#FDE679"/>
	</linearGradient>
	<path fill="url(#SVGID_29_)" d="M2238.458,1137.78c-16.79,16.466-39.781,26.632-65.155,26.632
		c-28.058,0-53.196-12.432-70.262-32.068c-8.647,3.768-17.975,6.261-27.749,7.245l11.013,344.12
		c0.767,23.965,20.416,42.996,44.394,42.996h112.861l0.297-384.025C2241.991,1141.117,2240.192,1139.481,2238.458,1137.78z"/>
	<linearGradient id="SVGID_30_" gradientUnits="userSpaceOnUse" x1="2243.8555" y1="989.1218" x2="2504.0913" y2="989.1218">
		<stop  offset="0" style="stop-color:#F1F6F1"/>
		<stop  offset="1" style="stop-color:#D8E2E1"/>
	</linearGradient>
	<path fill="url(#SVGID_30_)" d="M2411.012,953.909c0-51.406-41.673-93.079-93.079-93.079c-5.423,0-10.729,0.49-15.897,1.38
		c-7.103-26.262-30.032-46.005-57.927-48.378l-0.065,83.496l-0.014,18.765c1.935,4.345,3.55,8.863,4.812,13.525
		c-1.262-4.663-2.877-9.181-4.812-13.525l-0.022,28.974l-0.037,46.734l-0.015,18.981l-0.016,22.21l-0.047,60.441l-0.03,38.564
		l-0.008,10.682c16.17,13.558,37.005,21.732,59.758,21.732c28.058,0,53.196-12.432,70.262-32.068
		c8.647,3.768,17.975,6.261,27.749,7.245c3.088,0.311,6.218,0.479,9.388,0.479c9.835,0,19.308-1.536,28.207-4.363
		c37.614-11.949,64.872-47.145,64.872-88.716C2504.091,995.582,2462.418,953.909,2411.012,953.909z"/>
	<linearGradient id="SVGID_31_" gradientUnits="userSpaceOnUse" x1="1972.8241" y1="988.993" x2="2244.1091" y2="988.993">
		<stop  offset="0" style="stop-color:#F1F6F1"/>
		<stop  offset="1" style="stop-color:#D8E2E1"/>
	</linearGradient>
	<path fill="url(#SVGID_31_)" d="M2238.458,813.575c-30.414,0-56,20.618-63.578,48.636c-5.169-0.89-10.474-1.38-15.897-1.38
		c-51.406,0-93.08,41.673-93.08,93.079c-51.406,0-93.079,41.673-93.079,93.079c0,41.571,27.258,76.766,64.872,88.716
		c8.899,2.827,18.372,4.363,28.207,4.363c3.17,0,6.301-0.169,9.389-0.479c9.774-0.984,19.102-3.477,27.749-7.245
		c17.066,19.636,42.204,32.068,70.262,32.068c25.375,0,48.365-10.166,65.155-26.632c0.943-0.924,1.802-1.927,2.703-2.891
		c-0.901,0.964-1.76,1.967-2.703,2.891c1.735,1.702,3.534,3.337,5.398,4.9l0.008-10.682v0l0.03-38.564l0.047-60.441l0.016-22.21
		l0.015-18.981l0.037-46.734l0.022-28.974c0,0,0,0,0-0.001l0.014-18.764v0l0.065-83.496
		C2242.244,813.674,2240.363,813.575,2238.458,813.575z M2237.459,1003.932c0.352-0.55,0.659-1.131,0.998-1.689
		c0.34,0.558,0.646,1.138,0.999,1.689c-0.341,0.325-0.663,0.669-0.999,0.999C2238.122,1004.602,2237.8,1004.257,2237.459,1003.932z"
		/>
</g>
<g>
	<g>
		<linearGradient id="SVGID_32_" gradientUnits="userSpaceOnUse" x1="2053.5615" y1="2265.7944" x2="2231.3677" y2="2265.7944">
			<stop  offset="0" style="stop-color:#82B5CC"/>
			<stop  offset="1" style="stop-color:#C3DFF4"/>
		</linearGradient>
		<path fill="url(#SVGID_32_)" d="M2140.104,2530.907c-13.487,0-24.541-10.699-24.982-24.178l-14.053-429.921h130.3v-120.845
			h-177.806l19.177,586.668c0.601,18.394,15.686,32.994,34.09,32.994h124.539v-44.718H2140.104z"/>
		<linearGradient id="SVGID_33_" gradientUnits="userSpaceOnUse" x1="2231.3677" y1="2265.7944" x2="2409.1755" y2="2265.7944">
			<stop  offset="0" style="stop-color:#82B5CC"/>
			<stop  offset="1" style="stop-color:#C3DFF4"/>
		</linearGradient>
		<path fill="url(#SVGID_33_)" d="M2231.368,1955.964v120.845h130.301l-14.054,429.921c-0.44,13.479-11.495,24.178-24.981,24.178
			h-91.265v44.718h124.54c18.404,0,33.488-14.6,34.09-32.994l19.178-586.668H2231.368z"/>
		<linearGradient id="SVGID_34_" gradientUnits="userSpaceOnUse" x1="2101.0681" y1="2303.8579" x2="2231.3677" y2="2303.8579">
			<stop  offset="0" style="stop-color:#F26E2A"/>
			<stop  offset="1" style="stop-color:#F89521"/>
		</linearGradient>
		<path fill="url(#SVGID_34_)" d="M2115.122,2506.729c0.441,13.479,11.495,24.178,24.982,24.178h91.264v-454.099h-130.3
			L2115.122,2506.729z"/>
		<linearGradient id="SVGID_35_" gradientUnits="userSpaceOnUse" x1="2231.3677" y1="2303.8579" x2="2361.6682" y2="2303.8579">
			<stop  offset="0" style="stop-color:#F26E2A"/>
			<stop  offset="1" style="stop-color:#F89521"/>
		</linearGradient>
		<path fill="url(#SVGID_35_)" d="M2322.633,2530.907c13.487,0,24.541-10.699,24.981-24.178l14.054-429.921h-130.301v454.099
			H2322.633z"/>
	</g>
	<circle fill="#FFD700" cx="2251.598" cy="2456.112" r="29.546"/>
	<circle fill="#FFD700" cx="2285.402" cy="2349.907" r="27.017"/>
	<circle fill="#FFD700" cx="2197.297" cy="2254.083" r="19.165"/>
	<circle fill="#FFD700" cx="2168.55" cy="2349.907" r="19.165"/>
	<circle fill="#FFD700" cx="2270.762" cy="2185.409" r="19.165"/>
	<circle fill="#FFD700" cx="2202.089" cy="2126.317" r="14.374"/>
	<circle fill="#FFD700" cx="2296.848" cy="2251.155" r="11.446"/>
	<g>
		<path fill="#2384A7" d="M2453.985,1708.422c-13.996-5.917-29.911-5.607-43.663,0.848c-13.75,6.454-24.159,18.496-28.551,33.038
			l-101.066,334.5h33.366l98.275-325.262c1.803-5.967,5.905-10.712,11.547-13.36c5.643-2.648,11.913-2.768,17.658-0.343
			l167.96,70.995l12.434-29.421L2453.985,1708.422z"/>
	</g>
</g>
<g>
	<g>
		<linearGradient id="SVGID_36_" gradientUnits="userSpaceOnUse" x1="708.6136" y1="2247.7664" x2="978.8953" y2="2247.7664">
			<stop  offset="0" style="stop-color:#F1F6F1"/>
			<stop  offset="1" style="stop-color:#C1D4E1"/>
		</linearGradient>
		<path fill="url(#SVGID_36_)" d="M721.806,1919.907c-11.152,0-17.255,12.997-10.132,21.578l247.83,298.589v289.214
			c-63.66,3.645-112.252,22.998-112.252,46.337h131.289l0.354-655.718H721.806z"/>
		<linearGradient id="SVGID_37_" gradientUnits="userSpaceOnUse" x1="978.541" y1="2247.7664" x2="1249.3381" y2="2247.7664">
			<stop  offset="0" style="stop-color:#F1F6F1"/>
			<stop  offset="1" style="stop-color:#C1D4E1"/>
		</linearGradient>
		<path fill="url(#SVGID_37_)" d="M1246.278,1941.485c7.122-8.581,1.02-21.578-10.133-21.578h-257.25l-0.354,655.718h136.74
			c0-23.895-50.939-43.607-116.833-46.565v-288.986L1246.278,1941.485z"/>
	</g>
	<g>
		<polygon fill="#6D4C20" points="1271.771,1749.55 1050.51,1977.179 1074.474,1977.179 1284.093,1761.527 		"/>
	</g>
	<g>
		<linearGradient id="SVGID_38_" gradientUnits="userSpaceOnUse" x1="800.7316" y1="2087.9773" x2="978.8421" y2="2087.9773">
			<stop  offset="0" style="stop-color:#EF445D"/>
			<stop  offset="1" style="stop-color:#EB2358"/>
		</linearGradient>
		<path fill="url(#SVGID_38_)" d="M809.429,1977.179c-7.352,0-11.376,8.568-6.679,14.226l169.546,204.273
			c1.651,1.99,3.971,3.002,6.322,3.099l0.225-221.597H809.429z"/>
		<linearGradient id="SVGID_39_" gradientUnits="userSpaceOnUse" x1="978.6175" y1="2087.9812" x2="1157.2201" y2="2087.9812">
			<stop  offset="0" style="stop-color:#EF445D"/>
			<stop  offset="1" style="stop-color:#EB2358"/>
		</linearGradient>
		<path fill="url(#SVGID_39_)" d="M1148.522,1977.179h-169.68l-0.225,221.597c2.59,0.106,5.218-0.906,7.039-3.099l169.546-204.273
			C1159.898,1985.747,1155.875,1977.179,1148.522,1977.179z"/>
	</g>
	<g>
		<linearGradient id="SVGID_40_" gradientUnits="userSpaceOnUse" x1="1173.1115" y1="1863.3645" x2="1245.2878" y2="1863.3645">
			<stop  offset="0" style="stop-color:#ABD377"/>
			<stop  offset="0.9951" style="stop-color:#6CBF5A"/>
		</linearGradient>
		<path fill="url(#SVGID_40_)" d="M1173.126,1791.203c-0.001,0-0.003,0-0.005,0l-0.009,144.323c0.005,0,0.009,0,0.014,0
			c39.854,0,72.162-32.308,72.162-72.162C1245.288,1823.511,1212.98,1791.203,1173.126,1791.203z"/>
		<linearGradient id="SVGID_41_" gradientUnits="userSpaceOnUse" x1="1100.964" y1="1863.3644" x2="1173.1206" y2="1863.3644">
			<stop  offset="0" style="stop-color:#ABD377"/>
			<stop  offset="0.9951" style="stop-color:#6CBF5A"/>
		</linearGradient>
		<path fill="url(#SVGID_41_)" d="M1100.964,1863.365c0,39.849,32.3,72.154,72.147,72.161l0.009-144.323
			C1133.27,1791.205,1100.964,1823.512,1100.964,1863.365z"/>
	</g>
</g>
<g>
	<g>
		<linearGradient id="SVGID_42_" gradientUnits="userSpaceOnUse" x1="412.9699" y1="2151.2126" x2="597.3735" y2="2151.2126">
			<stop  offset="0" style="stop-color:#F1F6F1"/>
			<stop  offset="1" style="stop-color:#C1D4E1"/>
		</linearGradient>
		<path fill="url(#SVGID_42_)" d="M513.926,2521.162h-78.374v-208.64c97.364-11.86,170.172-99.313,161.049-199.667L561.506,1726.8
			H412.971l-0.001,331.581h137.345l4.741,52.147c7.596,83.551-58.191,155.588-142.085,155.588h-0.001v309.509h155.419l0,0
			C568.389,2545.546,544.005,2521.162,513.926,2521.162z"/>
		<linearGradient id="SVGID_43_" gradientUnits="userSpaceOnUse" x1="228.5668" y1="2151.2126" x2="412.9706" y2="2151.2126">
			<stop  offset="0" style="stop-color:#F1F6F1"/>
			<stop  offset="1" style="stop-color:#C1D4E1"/>
		</linearGradient>
		<path fill="url(#SVGID_43_)" d="M412.97,2266.116c-83.895,0-149.682-72.038-142.086-155.588l4.741-52.147H412.97l0.001-331.581
			H264.435l-35.096,386.055c-9.123,100.354,63.684,187.808,161.049,199.667v208.64h-78.374c-30.079,0-54.463,24.384-54.463,54.463
			l0,0H412.97V2266.116L412.97,2266.116z"/>
		<linearGradient id="SVGID_44_" gradientUnits="userSpaceOnUse" x1="412.9699" y1="2162.2488" x2="555.6533" y2="2162.2488">
			<stop  offset="0" style="stop-color:#FDDE3F"/>
			<stop  offset="1" style="stop-color:#FDE679"/>
		</linearGradient>
		<path fill="url(#SVGID_44_)" d="M412.971,2266.116c83.895,0,149.681-72.038,142.085-155.588l-4.741-52.147H412.97
			L412.971,2266.116L412.971,2266.116z"/>
		<linearGradient id="SVGID_45_" gradientUnits="userSpaceOnUse" x1="270.2865" y1="2162.2488" x2="412.9699" y2="2162.2488">
			<stop  offset="0" style="stop-color:#FDDE3F"/>
			<stop  offset="1" style="stop-color:#FDE679"/>
		</linearGradient>
		<path fill="url(#SVGID_45_)" d="M270.884,2110.528c-7.596,83.551,58.191,155.588,142.086,155.588l0,0v-207.735H275.625
			L270.884,2110.528z"/>
	</g>
	<g>
		<path fill="#2384A7" d="M601.22,1623.143c-13.996-5.917-29.911-5.607-43.664,0.849c-13.75,6.454-24.159,18.496-28.551,33.038
			l-107.334,401.352h33.366l104.543-392.114c1.803-5.967,5.905-10.712,11.548-13.36c5.643-2.648,11.912-2.768,17.658-0.343
			l167.96,70.995l12.433-29.421L601.22,1623.143z"/>
	</g>
</g>
<g>
	<linearGradient id="SVGID_46_" gradientUnits="userSpaceOnUse" x1="979.748" y1="372.7334" x2="1113.002" y2="372.7334">
		<stop  offset="0" style="stop-color:#F48587"/>
		<stop  offset="1" style="stop-color:#EB2542"/>
	</linearGradient>
	<path fill="url(#SVGID_46_)" d="M1113.002,410.059c0,16.699-5.674,29.504-17.021,38.42c-11.349,8.917-27.842,13.374-49.484,13.374
		h-66.749V283.614h63.466c18.967,0,33.879,4.054,44.742,12.158c10.861,8.106,16.292,19.21,16.292,33.313
		c0,17.185-8.553,29.909-25.654,38.177c11.508,2.918,20.122,8.289,25.836,16.109
		C1110.145,391.195,1113.002,400.089,1113.002,410.059z M1003.335,358.265h39.636c13.049,0,22.654-2.086,28.815-6.262
		c6.159-4.173,9.24-11.125,9.24-20.851c0-8.754-3-15.338-8.997-19.757c-6-4.417-16.414-6.626-31.247-6.626h-37.447V358.265z
		 M1003.335,440.698h42.918c28.207,0,42.311-10.213,42.311-30.639c0-10.618-3.264-18.378-9.788-23.283
		c-6.525-4.903-18.379-7.355-35.563-7.355h-39.879V440.698z"/>
	<linearGradient id="SVGID_47_" gradientUnits="userSpaceOnUse" x1="1145.8291" y1="372.7334" x2="1278.7183" y2="372.7334">
		<stop  offset="0" style="stop-color:#F48587"/>
		<stop  offset="1" style="stop-color:#EB2542"/>
	</linearGradient>
	<path fill="url(#SVGID_47_)" d="M1278.718,461.853h-132.889V283.614h128.755v21.155h-105.168v54.469h98.36v21.155h-98.36v60.305
		h109.302V461.853z"/>
	<linearGradient id="SVGID_48_" gradientUnits="userSpaceOnUse" x1="1293.4297" y1="372.7334" x2="1456.3496" y2="372.7334">
		<stop  offset="0" style="stop-color:#F48587"/>
		<stop  offset="1" style="stop-color:#EB2542"/>
	</linearGradient>
	<path fill="url(#SVGID_48_)" d="M1456.35,283.614l-69.302,178.239h-24.316l-69.302-178.239h25.167l56.292,152.829l56.292-152.829
		H1456.35z"/>
	<linearGradient id="SVGID_49_" gradientUnits="userSpaceOnUse" x1="1477.9912" y1="372.7334" x2="1610.8799" y2="372.7334">
		<stop  offset="0" style="stop-color:#F48587"/>
		<stop  offset="1" style="stop-color:#EB2542"/>
	</linearGradient>
	<path fill="url(#SVGID_49_)" d="M1610.88,461.853h-132.889V283.614h128.756v21.155h-105.169v54.469h98.36v21.155h-98.36v60.305
		h109.302V461.853z"/>
	<linearGradient id="SVGID_50_" gradientUnits="userSpaceOnUse" x1="1644.0723" y1="372.7334" x2="1792.6455" y2="372.7334">
		<stop  offset="0" style="stop-color:#F48587"/>
		<stop  offset="1" style="stop-color:#EB2542"/>
	</linearGradient>
	<path fill="url(#SVGID_50_)" d="M1792.646,461.853h-25.532l-16.778-47.539c-3-8.429-7.984-15.319-14.954-20.669
		c-6.973-5.35-14.997-8.024-24.074-8.024h-43.647v76.232h-23.587V283.614h78.906c13.779,0,25.047,1.337,33.801,4.012
		s15.885,8.31,21.398,16.9c5.511,8.592,8.268,18.279,8.268,29.058c0,12.322-3.568,22.614-10.699,30.882
		c-7.134,8.268-16.9,13.659-29.302,16.17v0.486c12.401,3.972,21.843,14.711,28.329,32.219L1792.646,461.853z M1667.659,364.466
		h52.646c14.669,0,25.308-2.31,31.915-6.93c6.605-4.62,9.909-12.603,9.909-23.952c0-20.262-12.727-30.396-38.178-30.396h-56.292
		V364.466z"/>
	<linearGradient id="SVGID_51_" gradientUnits="userSpaceOnUse" x1="1803.709" y1="372.7334" x2="1970.2764" y2="372.7334">
		<stop  offset="0" style="stop-color:#F48587"/>
		<stop  offset="1" style="stop-color:#EB2542"/>
	</linearGradient>
	<path fill="url(#SVGID_51_)" d="M1970.276,461.853h-26.627l-20.668-54.226h-74.652l-19.695,54.226h-24.925l68.45-178.239h25.411
		L1970.276,461.853z M1916.051,388.904l-31.368-82.676l-29.909,82.676H1916.051z"/>
	<linearGradient id="SVGID_52_" gradientUnits="userSpaceOnUse" x1="1981.7061" y1="372.7334" x2="2147.7871" y2="372.7334">
		<stop  offset="0" style="stop-color:#F48587"/>
		<stop  offset="1" style="stop-color:#EB2542"/>
	</linearGradient>
	<path fill="url(#SVGID_52_)" d="M2067.907,464.893c-25.613,0-46.383-8.389-62.311-25.167
		c-15.927-16.778-23.891-39.107-23.891-66.992c0-27.964,7.861-50.314,23.587-67.052c15.724-16.737,36.353-25.107,61.886-25.107
		c21.478,0,39.331,5.167,53.557,15.501c14.225,10.335,22.188,24.176,23.891,41.521h-24.438
		c-0.973-11.508-6.161-20.526-15.563-27.052c-9.404-6.524-21.806-9.788-37.205-9.788c-18.4,0-33.212,6.282-44.438,18.845
		c-11.228,12.565-16.84,30.274-16.84,53.131c0,22.778,5.673,40.468,17.021,53.071c11.348,12.604,26.181,18.906,44.5,18.906
		c25.693,0,44.781-8.469,57.265-25.411v-27.113h-47.052V370.91h69.909v90.943h-16.657l-6.2-18.724
		C2112.852,457.64,2093.845,464.893,2067.907,464.893z"/>
	<linearGradient id="SVGID_53_" gradientUnits="userSpaceOnUse" x1="2183.6533" y1="372.7334" x2="2316.542" y2="372.7334">
		<stop  offset="0" style="stop-color:#F48587"/>
		<stop  offset="1" style="stop-color:#EB2542"/>
	</linearGradient>
	<path fill="url(#SVGID_53_)" d="M2316.542,461.853h-132.889V283.614h128.756v21.155H2207.24v54.469h98.36v21.155h-98.36v60.305
		h109.302V461.853z"/>
	<linearGradient id="SVGID_54_" gradientUnits="userSpaceOnUse" x1="2340.9805" y1="372.7334" x2="2482.9883" y2="372.7334">
		<stop  offset="0" style="stop-color:#F48587"/>
		<stop  offset="1" style="stop-color:#EB2542"/>
	</linearGradient>
	<path fill="url(#SVGID_54_)" d="M2416.969,464.893c-25.127,0-43.911-5.633-56.353-16.9c-12.443-11.265-18.988-25.733-19.636-43.405
		h22.736c1.215,13.294,6.747,23.122,16.596,29.484c9.848,6.364,21.742,9.544,35.684,9.544c13.211,0,23.85-2.715,31.916-8.146
		c8.064-5.429,12.098-12.806,12.098-22.128c0-9.806-4.176-16.94-12.523-21.398c-8.35-4.457-22.717-8.854-43.101-13.192
		c-20.386-4.335-35.016-10.353-43.892-18.055c-8.875-7.7-13.313-17.952-13.313-30.76c0-14.426,5.774-26.262,17.325-35.502
		c11.55-9.24,26.889-13.86,46.019-13.86c20.101,0,36.312,4.662,48.633,13.982c12.319,9.322,18.846,22.493,19.574,39.514h-22.979
		c-2.352-21.56-17.104-32.341-44.256-32.341c-13.131,0-23.304,2.474-30.518,7.417c-7.215,4.945-10.82,11.51-10.82,19.696
		c0,7.458,2.897,13.051,8.693,16.778c5.794,3.729,16.614,7.337,32.462,10.821c15.846,3.486,28.43,6.93,37.751,10.334
		c9.32,3.404,17.305,8.693,23.952,15.866c6.646,7.174,9.97,16.799,9.97,28.876c0,15.319-6.1,28.045-18.298,38.177
		C2452.49,459.828,2436.584,464.893,2416.969,464.893z"/>
</g>
</svg>
