<?xml version="1.0" encoding="iso-8859-1"?>
<!-- Generator: Adobe Illustrator 19.0.0, SVG Export Plug-In . SVG Version: 6.00 Build 0)  -->
<svg version="1.1" id="Capa_1" xmlns="http://www.w3.org/2000/svg" xmlns:xlink="http://www.w3.org/1999/xlink" x="0px" y="0px"
	 viewBox="0 0 512 512" style="enable-background:new 0 0 512 512;" xml:space="preserve">
<path style="fill:#3C3A41;" d="M512,421v46c0,24.899-20.099,45-45,45H45c-24.901,0-45-20.101-45-45v-46c0-24.901,20.099-45,45-45
	l37.5-21h331.601L467,376C491.901,376,512,396.099,512,421z"/>
<path style="fill:#2B292C;" d="M512,421v46c0,24.899-20.099,45-45,45H256V355h158.101L467,376C491.901,376,512,396.099,512,421z"/>
<path style="fill:#FC1939;" d="M512,286c0-24.901-20.099-45-45-45H45c-24.901,0-45,20.099-45,45v45c0,24.899,20.099,45,45,45h422
	c24.901,0,45-20.101,45-45V286z"/>
<path style="fill:#DF1432;" d="M512,286v45c0,24.899-20.099,45-45,45H256V241h211C491.901,241,512,261.099,512,286z"/>
<path style="fill:#57555C;" d="M151,512H61.201V376H151V512z"/>
<path style="fill:#3C3A41;" d="M452,512h-91V376h91V512z"/>
<path style="fill:#CAE8F9;" d="M331,446c0,8.399-6.599,15-15,15H196c-8.401,0-15-6.601-15-15c0-8.401,6.599-15,15-15h120
	C324.401,431,331,437.599,331,446z"/>
<path style="fill:#FF4C5B;" d="M151,376H61.201V241H151V376z"/>
<path style="fill:#FC1939;" d="M452,376h-91V241h91V376z"/>
<path style="fill:#CAE8F9;" d="M331,310c0,8.399-6.599,15-15,15H196c-8.401,0-15-6.601-15-15c0-8.401,6.599-15,15-15h120
	C324.401,295,331,301.599,331,310z"/>
<path style="fill:#FEA832;" d="M151,0c-4.2,0-7.8,1.8-10.499,4.499C137.8,7.2,136,10.8,136,15v75
	c0,32.999,13.5,63.999,35.099,85.899C193.001,197.5,223.001,211,256,211s62.999-13.5,84.901-35.101
	C362.5,153.999,376,122.999,376,90V0H151z"/>
<path style="fill:#713708;" d="M391,0h-15l-19.2,17.399L376,30h15c16.5,0,30,13.5,30,30s-13.5,30-30,30h-15l-24.901,5.7l13.2,24.3
	H391c32.999,0,60-27.001,60-60C451,26.999,423.999,0,391,0z"/>
<path style="fill:#FE9923;" d="M340.901,175.899C318.999,197.5,288.999,211,256,211V0h120v90
	C376,122.999,362.5,153.999,340.901,175.899z"/>
<path style="fill:#994C0F;" d="M375,241H137c-24.853,0-45-20.147-45-45l0,0c0-8.284,6.716-15,15-15h298c8.284,0,15,6.716,15,15l0,0
	C420,220.853,399.853,241,375,241"/>
<path style="fill:#713708;" d="M405,181H256v60h119c24.853,0,45-20.147,45-45l0,0C420,187.716,413.284,181,405,181z"/>
<g>
	<path style="fill:#A4D9F5;" d="M331,446c0,8.399-6.599,15-15,15h-60v-30h60C324.401,431,331,437.599,331,446z"/>
	<path style="fill:#A4D9F5;" d="M316,325h-60v-30h60c8.401,0,15,6.599,15,15C331,318.399,324.401,325,316,325z"/>
</g>
<g>
</g>
<g>
</g>
<g>
</g>
<g>
</g>
<g>
</g>
<g>
</g>
<g>
</g>
<g>
</g>
<g>
</g>
<g>
</g>
<g>
</g>
<g>
</g>
<g>
</g>
<g>
</g>
<g>
</g>
</svg>
