<svg height="512pt" viewBox="0 -49 512.003 512" width="512pt" xmlns="http://www.w3.org/2000/svg"><path d="m360.753906 113.660156s-33.40625-77.792968-151.273437-77.792968c-49.855469 0-79.320313 36.019531-74.269531 75.152343.253906 1.964844.488281 3.96875.710937 5.996094 3.34375 30.976563 29.351563 54.523437 60.507813 54.523437h126.878906c29.78125 0 49.652344-30.714843 37.445312-57.878906zm0 0" fill="#d08f61"/><path d="m360.753906 113.660156s-33.40625-77.792968-151.273437-77.792968c-7.453125 0-14.441407.816406-20.933594 2.316406 90.585937 12.902344 117.472656 75.476562 117.472656 75.476562 12.210938 27.164063-7.660156 57.878906-37.441406 57.878906h54.730469c29.78125 0 49.652344-30.714843 37.445312-57.878906zm0 0" fill="#c67f4f"/><path d="m383.632812 32.367188c-1.824218-2.410157-4.253906-4.011719-6.875-4.796876-4.664062-1.398437-8.15625-5.082031-9.300781-9.8125-.644531-2.664062-2.113281-5.175781-4.421875-7.128906-4.730468-4-11.78125-4.191406-16.71875-.449218-6.503906 4.929687-7.132812 14.242187-1.679687 19.996093.089843.09375.183593.191407.277343.28125.8125.804688.804688 2.113281-.023437 2.902344l-53.511719 50.707031 15.332032 16.179688 53.503906-50.699219c.808594-.765625 2.089844-.730469 2.855468.078125l.058594.0625c5.453125 5.753906 14.785156 5.625 20.054688-.605469 4-4.726562 4.191406-11.78125.449218-16.714843zm0 0" fill="#a3acb2"/><path d="m329.640625 64.199219c-6.058594-6.394531-14.769531-8.929688-21.679687-6.308594-22.558594 8.546875-48.28125 20.207031-55.105469 26.675781-12.476563 11.820313-10.875 33.765625 3.574219 49.011719 14.445312 15.246094 36.273437 18.023437 48.75 6.203125 6.824218-6.46875 19.847656-31.527344 29.597656-53.59375 2.988281-6.757812.921875-15.59375-5.136719-21.988281zm0 0" fill="#bc7442"/><path d="m379.355469 163.082031h-246.097657c-.585937 0-1.0625.476563-1.0625 1.0625 0 12.496094 10.128907 22.621094 22.621094 22.621094h202.980469c12.496094 0 22.625-10.125 22.625-22.621094-.003906-.585937-.480469-1.0625-1.066406-1.0625zm0 0" fill="#545464"/><path d="m379.355469 163.082031h-52.914063v23.683594h31.355469c12.492187 0 22.621094-10.125 22.621094-22.621094 0-.585937-.476563-1.0625-1.0625-1.0625zm0 0" fill="#394856"/><path d="m75.21875 130.4375c-20.511719 0-37.136719-16.628906-37.136719-37.140625v-40.570313c0-2.289062 1.855469-4.140624 4.140625-4.140624h65.992188c2.289062 0 4.144531 1.851562 4.144531 4.140624v40.570313c-.003906 20.511719-16.628906 37.140625-37.140625 37.140625zm0 0" fill="#e8f3f9"/><path d="m108.214844 48.585938h-45.316406v48.855468c0 9.820313-4.292969 18.632813-11.097657 24.675782 6.386719 5.199218 14.539063 8.320312 23.417969 8.320312 20.511719 0 37.136719-16.628906 37.136719-37.136719v-40.574219c0-2.285156-1.851563-4.140624-4.140625-4.140624zm0 0" fill="#ccd2d6"/><path d="m101.449219 188.824219h-52.460938v-9.148438c0-5.882812 4.773438-10.65625 10.65625-10.65625h31.148438c5.886719 0 10.65625 4.773438 10.65625 10.65625zm0 0" fill="#ccd2d6"/><path d="m38.082031 78.5v14.800781c0 20.507813 16.625 37.136719 37.136719 37.136719s37.136719-16.628906 37.136719-37.136719v-14.800781zm0 0" fill="#c35f58"/><path d="m62.898438 97.441406c0 9.820313-4.292969 18.632813-11.097657 24.675782 6.386719 5.199218 14.539063 8.320312 23.417969 8.320312 20.511719 0 37.136719-16.628906 37.136719-37.136719v-14.800781h-49.457031zm0 0" fill="#af4e4b"/><path d="m436.78125 130.4375c-20.511719 0-37.136719-16.628906-37.136719-37.140625v-40.570313c0-2.289062 1.851563-4.140624 4.140625-4.140624h65.992188c2.289062 0 4.144531 1.851562 4.144531 4.140624v40.570313c-.003906 20.511719-16.632813 37.140625-37.140625 37.140625zm0 0" fill="#e8f3f9"/><path d="m469.777344 48.585938h-45.316406v48.855468c0 9.820313-4.292969 18.632813-11.101563 24.675782 6.390625 5.199218 14.539063 8.320312 23.421875 8.320312 20.507812 0 37.136719-16.628906 37.136719-37.136719v-40.574219c0-2.285156-1.855469-4.140624-4.140625-4.140624zm0 0" fill="#ccd2d6"/><path d="m463.011719 188.824219h-52.460938v-9.148438c0-5.882812 4.769531-10.65625 10.65625-10.65625h31.144531c5.886719 0 10.660157 4.773438 10.660157 10.65625zm0 0" fill="#ccd2d6"/><path d="m399.644531 78.5v14.800781c0 20.507813 16.625 37.136719 37.136719 37.136719s37.136719-16.628906 37.136719-37.136719v-14.800781zm0 0" fill="#c35f58"/><path d="m424.460938 97.441406c0 9.820313-4.292969 18.632813-11.101563 24.675782 6.390625 5.199218 14.539063 8.320312 23.421875 8.320312 20.507812 0 37.136719-16.628906 37.136719-37.136719v-14.800781h-49.457031zm0 0" fill="#af4e4b"/><path d="m454.703125 405.523438h-397.40625c-4.320313 0-7.820313-3.503907-7.820313-7.824219v-209.832031h413.050782v209.832031c-.003906 4.320312-3.503906 7.824219-7.824219 7.824219zm0 0" fill="#fdbd37"/><path d="m413.066406 187.867188v217.65625h41.636719c4.320313 0 7.820313-3.503907 7.820313-7.820313v-209.835937zm0 0" fill="#fa9a39"/><path d="m49.34375 214.9375v57.195312c0 19.011719 15.410156 34.421876 34.421875 34.421876 19.007813 0 34.417969-15.410157 34.417969-34.421876v-57.195312zm0 0" fill="#fa9a39"/><path d="m118.183594 214.9375v57.195312c0 19.011719 15.414062 34.421876 34.421875 34.421876 19.011719 0 34.421875-15.410157 34.421875-34.421876v-57.195312zm0 0" fill="#e8842a"/><path d="m187.15625 214.9375v57.195312c0 19.011719 15.414062 34.421876 34.421875 34.421876 19.011719 0 34.421875-15.410157 34.421875-34.421876v-57.195312zm0 0" fill="#fa9a39"/><path d="m256 214.9375v57.195312c0 19.011719 15.410156 34.421876 34.421875 34.421876 19.007813 0 34.421875-15.410157 34.421875-34.421876v-57.195312zm0 0" fill="#e8842a"/><path d="m324.84375 214.9375v57.195312c0 19.011719 15.410156 34.421876 34.417969 34.421876 19.011719 0 34.421875-15.410157 34.421875-34.421876v-57.195312zm0 0" fill="#fa9a39"/><path d="m393.683594 214.9375v57.195312c0 19.011719 15.410156 34.421876 34.421875 34.421876 19.007812 0 34.421875-15.410157 34.421875-34.421876v-57.195312zm0 0" fill="#e8842a"/><path d="m413.066406 303.101562c4.542969 2.210938 9.644532 3.453126 15.039063 3.453126 19.007812 0 34.417969-15.410157 34.417969-34.421876v-57.195312h-49.457032zm0 0" fill="#db7726"/><path d="m489.945312 214.9375h-467.890624c-8.039063 0-14.554688-6.515625-14.554688-14.554688 0-8.039062 6.515625-14.554687 14.554688-14.554687h467.890624c8.039063 0 14.554688 6.515625 14.554688 14.554687 0 8.039063-6.515625 14.554688-14.554688 14.554688zm0 0" fill="#c35f58"/><path d="m489.945312 185.828125h-35.199218v29.109375h35.199218c8.039063 0 14.554688-6.515625 14.554688-14.554688 0-8.039062-6.515625-14.554687-14.554688-14.554687zm0 0" fill="#af4e4b"/><path d="m462.523438 314.285156c-4.140626 0-7.5 3.355469-7.5 7.5v75.914063c0 .175781-.144532.320312-.320313.320312h-397.40625c-.179687 0-.324219-.144531-.324219-.320312v-75.914063c0-4.144531-3.355468-7.5-7.5-7.5-4.140625 0-7.5 3.355469-7.5 7.5v75.914063c0 8.445312 6.875 15.320312 15.324219 15.320312h397.40625c8.449219 0 15.320313-6.875 15.320313-15.320312v-75.914063c0-4.140625-3.355469-7.5-7.5-7.5zm0 0"/><path d="m250.984375 138.734375c14.824219 15.644531 41.761719 22.824219 59.101563 6.71875.085937-.078125.167968-.15625.25-.230469 10.960937-10.386718 29.25-51.367187 31.300781-56.003906 1.824219-4.125 2.355469-8.746094 1.710937-13.355469l18.558594-17.589843c3.441406 2.113281 7.460938 3.230468 11.574219 3.101562 5.941406-.167969 11.566406-2.882812 15.429687-7.449219 6.257813-7.394531 6.554688-18.371093.699219-26.09375-2.722656-3.589843-6.421875-6.167969-10.699219-7.449219-2.125-.636718-3.640625-2.238281-4.164062-4.390624-1.046875-4.339844-3.421875-8.175782-6.863282-11.085938-7.398437-6.265625-18.375-6.558594-26.097656-.703125-4.765625 3.609375-7.777344 9.082031-8.261718 15.007813-.347657 4.230468.605468 8.433593 2.664062 12.058593l-19.328125 18.316407c-3.957031-.492188-7.917969-.089844-11.558594 1.289062-4.742187 1.796875-46.644531 17.859375-57.605469 28.242188-15.457031 14.648437-13.980468 41.390624 3.289063 59.617187zm99.039063-99.949219c.839843-.910156 1.59375-1.894531 2.128906-3.007812 1.339844-2.796875 1.09375-6.289063-.625-8.871094-1.765625-2.648438-4.09375-5.082031-2.539063-8.472656 1.695313-3.691406 7.007813-4.664063 9.738281-1.53125 1.28125 1.46875 1.699219 3.472656 2.351563 5.308594 1.808594 5.058593 5.796875 9.292968 10.734375 11.402343 1.789062.761719 3.75 1.292969 5.167969 2.621094 1.984375 1.851563 2.390625 5.160156.917969 7.4375-1.46875 2.28125-4.652344 3.273437-7.15625 2.230469-1.710938-.710938-2.980469-2.179688-4.558594-3.148438-2.28125-1.40625-5.226563-1.675781-7.726563-.714844-2.140625.828126-21.460937 19.203126-21.460937 19.203126-1.722656-1.734376-3.445313-3.46875-5.171875-5.207032 0 0 17.542969-16.535156 18.199219-17.25zm-92.007813 51.222656c5.179687-4.910156 27.796875-15.707031 52.601563-25.109374 4.800781-1.816407 10.3125 1.007812 13.582031 4.457031 3.941406 4.160156 5.46875 9.835937 3.71875 13.800781-10.722657 24.265625-22.714844 46.265625-27.898438 51.175781-11.101562 10.519531-29.042969 3.695313-38.148437-5.914062-11.582032-12.222657-13.3125-29.453125-3.855469-38.410157zm0 0"/><path d="m489.945312 178.324219h-19.484374c-.691407-9.382813-8.546876-16.808594-18.105469-16.808594h-8.074219v-24.214844c21.054688-3.574219 37.136719-21.949219 37.136719-44.007812v-40.570313c0-6.417968-5.222657-11.640625-11.640625-11.640625h-65.992188c-6.421875 0-11.644531 5.222657-11.644531 11.640625v40.570313c0 22.058593 16.085937 40.433593 37.140625 44.007812v24.214844h-8.074219c-9.558593 0-17.417969 7.425781-18.109375 16.808594h-18.769531c2.300781-4.277344 3.589844-9.132813 3.589844-14.183594 0-4.722656-3.839844-8.5625-8.5625-8.5625h-14.464844c8.066406-13.332031 9.40625-30.046875 2.722656-44.957031-.226562-.515625-1.375-3.0625-3.683593-6.984375-2.101563-3.570313-6.699219-4.761719-10.269532-2.660157-3.566406 2.101563-4.757812 6.699219-2.65625 10.269532 1.960938 3.332031 2.859375 5.375 2.859375 5.375.015625.035156.03125.074218.046875.109375 6.0625 13.480469 2.609375 29.109375-8.320312 38.847656 0 0-177.914063 0-177.921875 0-2.714844 0-12.167969-8.738281-17.800781-19.023437-12.019532-21.960938-10.429688-52.460938 6.238281-71.421876 12.34375-14.039062 31.300781-21.769531 53.375-21.769531 22.941406 0 44.238281 3.066407 63.292969 9.125 3.945312 1.253907 8.167968-.929687 9.421874-4.875 1.253907-3.949219-.929687-8.167969-4.878906-9.421875-20.527344-6.523437-43.351562-9.828125-67.835937-9.828125-26.449219 0-49.40625 9.539063-64.636719 26.863281-23.71875 26.972657-23.324219 73.335938.164062 100.351563h-11.75c-4.722656 0-8.5625 3.84375-8.5625 8.5625 0 5.054687 1.289063 9.90625 3.589844 14.1875h-19.382812c-.691406-9.386719-8.550782-16.8125-18.109375-16.8125h-8.070313v-24.210937c21.054688-3.578126 37.136719-21.949219 37.136719-44.007813v-40.570313c0-6.421874-5.222656-11.644531-11.644531-11.644531h-65.992188c-6.417968 0-11.640625 5.222657-11.640625 11.644531v40.570313c0 22.058594 16.082031 40.429687 37.136719 44.007813v24.210937h-8.074219c-9.558593 0-17.414062 7.425781-18.105469 16.8125h-19.484374c-12.160157-.003906-22.054688 9.890625-22.054688 22.050781 0 12.164063 9.894531 22.054688 22.054688 22.054688h19.789062v49.699218c0 23.113282 18.804688 41.917969 41.921875 41.917969 14.238281 0 26.839844-7.132812 34.421875-18.015625 7.578125 10.882813 20.179688 18.015625 34.417969 18.015625 14.28125 0 26.914062-7.175781 34.488281-18.109375 7.574219 10.933594 20.207031 18.109375 34.488281 18.109375 14.238281 0 26.839844-7.132812 34.421875-18.015625 7.578125 10.882813 20.179688 18.015625 34.417969 18.015625s26.84375-7.132812 34.421875-18.015625c7.582031 10.882813 20.183594 18.015625 34.421875 18.015625s26.839844-7.132812 34.421875-18.015625c7.578125 10.882813 20.179688 18.015625 34.417969 18.015625 23.117187 0 41.921875-18.804687 41.921875-41.917969v-49.699218h19.921875c12.160156 0 22.054687-9.890625 22.054687-22.054688-.003906-12.160156-9.898437-22.054687-22.058594-22.054687zm-23.527343-122.242188v14.914063h-59.277344v-14.914063zm-59.273438 37.214844v-7.300781h59.273438v7.300781c0 16.339844-13.292969 29.636719-29.636719 29.636719s-29.636719-13.296875-29.636719-29.636719zm14.0625 83.21875h31.148438c1.257812 0 2.347656.742187 2.855469 1.8125h-36.859376c.507813-1.070313 1.597657-1.8125 2.855469-1.8125zm-49.746093-5.9375c-1.667969 3.519531-4.664063 6.355469-8.417969 7.746094h-213.472657c-3.753906-1.390625-6.75-4.226563-8.417968-7.746094zm-266.605469-114.496094v14.914063h-59.273438v-14.914063zm-59.273438 37.214844v-7.300781h59.277344v7.300781c0 16.339844-13.296875 29.636719-29.640625 29.636719-16.339844 0-29.636719-13.296875-29.636719-29.636719zm14.0625 83.21875h31.148438c1.257812 0 2.347656.742187 2.855469 1.8125h-36.859376c.507813-1.070313 1.597657-1.8125 2.855469-1.8125zm51.039063 95.617187c0 14.84375-12.074219 26.917969-26.917969 26.917969s-26.921875-12.074219-26.921875-26.917969v-49.699218h53.839844zm68.84375 0c0 14.84375-12.078125 26.917969-26.921875 26.917969s-26.921875-12.074219-26.921875-26.917969v-49.699218h53.84375zm68.972656 0c0 14.84375-12.078125 26.917969-26.921875 26.917969s-26.921875-12.074219-26.921875-26.917969v-49.699218h53.84375zm68.84375 0c0 14.84375-12.078125 26.917969-26.921875 26.917969s-26.921875-12.074219-26.921875-26.917969v-49.699218h53.84375zm68.839844 0c0 14.84375-12.078125 26.917969-26.921875 26.917969s-26.917969-12.074219-26.917969-26.917969v-49.699218h53.839844zm68.839844 0c0 14.84375-12.074219 26.917969-26.917969 26.917969s-26.921875-12.074219-26.921875-26.917969v-49.699218h53.839844zm34.921874-64.699218h-467.890624c-3.890626 0-7.054688-3.164063-7.054688-7.054688s3.164062-7.054687 7.054688-7.054687h467.890624c3.890626 0 7.054688 3.164062 7.054688 7.054687s-3.164062 7.054688-7.054688 7.054688zm0 0"/></svg>